<?xml version="1.0" encoding="utf-8"?>
<!-- Generator: Adobe Illustrator 26.5.0, SVG Export Plug-In . SVG Version: 6.00 Build 0)  -->
<svg version="1.0" id="Layer_1" xmlns="http://www.w3.org/2000/svg" xmlns:xlink="http://www.w3.org/1999/xlink" x="0px" y="0px"
	 viewBox="0 0 32 32" enable-background="new 0 0 32 32" xml:space="preserve">
<g>
	<path fill="#92A1AB" d="M24.7,27.9c-0.1,0.1-0.2,0.2-0.2,0.4v0.9c0,0.1,0,0.1,0,0.1c0,0-0.1,0.1-0.1,0.1c-2.8,0.7-5.8,0.7-8.6,0
		c0,0-0.1,0-0.1-0.1c0,0-0.1-0.1-0.1-0.1v-0.9c0-0.1-0.1-0.3-0.2-0.4c-0.2-0.2-0.6-0.2-0.8,0c-0.1,0.1-0.2,0.2-0.2,0.4v0.9
		c0,0.3,0.1,0.6,0.3,0.8c0.2,0.2,0.4,0.4,0.7,0.5c1.5,0.4,3,0.6,4.6,0.6c1.5,0,3.1-0.2,4.5-0.6c0.3-0.1,0.5-0.2,0.7-0.5
		c0.2-0.2,0.3-0.5,0.3-0.8v-0.9c0-0.1-0.1-0.3-0.2-0.4C25.3,27.7,24.9,27.7,24.7,27.9z"/>
	<path fill="#92A1AB" d="M24.7,25c-0.1,0.1-0.2,0.2-0.2,0.4v0.9c0,0.1,0,0.1,0,0.1c0,0-0.1,0.1-0.1,0.1c-2.8,0.7-5.8,0.7-8.6,0
		c0,0-0.1,0-0.1-0.1c0,0,0-0.1,0-0.1v-0.9c0-0.1-0.1-0.3-0.2-0.4c-0.2-0.2-0.6-0.2-0.8,0c-0.1,0.1-0.2,0.2-0.2,0.4v0.9
		c0,0.3,0.1,0.6,0.3,0.8c0.2,0.2,0.4,0.4,0.7,0.5c1.5,0.4,3,0.6,4.6,0.6h0c1.5,0,3.1-0.2,4.5-0.6c0.3-0.1,0.5-0.2,0.7-0.5
		c0.2-0.2,0.3-0.5,0.3-0.8v-0.9c0-0.1-0.1-0.3-0.2-0.4C25.3,24.8,24.9,24.8,24.7,25z"/>
	<path fill="#92A1AB" d="M24.7,22.2c-0.1,0.1-0.2,0.2-0.2,0.4v1c0,0,0,0.1,0,0.1c0,0-0.1,0.1-0.1,0.1c-2.8,0.7-5.8,0.7-8.6,0
		c0,0-0.1,0-0.1-0.1c0,0,0-0.1,0-0.1v-0.9c0-0.1-0.1-0.3-0.2-0.4c-0.2-0.2-0.6-0.2-0.8,0c-0.1,0.1-0.2,0.2-0.2,0.4v0.9
		c0,0.3,0.1,0.6,0.3,0.8c0.2,0.2,0.4,0.4,0.7,0.5c1.5,0.4,3,0.6,4.5,0.6c0,0,0,0,0,0c1.5,0,3.1-0.2,4.5-0.6c0.3-0.1,0.5-0.2,0.7-0.5
		c0.2-0.2,0.3-0.5,0.3-0.8v-1c0-0.1-0.1-0.3-0.2-0.4C25.3,22,24.9,22,24.7,22.2z"/>
	<rect x="10.5" y="17.6" fill="#92A1AB" width="1.1" height="1"/>
	<rect x="10.5" y="15.5" fill="#92A1AB" width="1.1" height="1"/>
	<rect x="10.5" y="13.4" fill="#92A1AB" width="1.1" height="1"/>
	<rect x="13" y="17.6" fill="#92A1AB" width="1.1" height="1"/>
	<rect x="13" y="15.5" fill="#92A1AB" width="1.1" height="1"/>
	<rect x="13" y="13.4" fill="#92A1AB" width="1.1" height="1"/>
	<rect x="15.6" y="17.6" fill="#92A1AB" width="1.1" height="1"/>
	<rect x="15.6" y="15.5" fill="#92A1AB" width="1.1" height="1"/>
	<rect x="15.6" y="13.4" fill="#92A1AB" width="1.1" height="1"/>
	<rect x="10.5" y="23.9" fill="#92A1AB" width="1.1" height="1"/>
	<rect x="10.5" y="21.8" fill="#92A1AB" width="1.1" height="1"/>
	<rect x="10.5" y="19.8" fill="#92A1AB" width="1.1" height="1"/>
	<rect x="13" y="23.9" fill="#92A1AB" width="1.1" height="1"/>
	<rect x="13" y="21.8" fill="#92A1AB" width="1.1" height="1"/>
	<rect x="13" y="19.8" fill="#92A1AB" width="1.1" height="1"/>
	<path fill="#92A1AB" d="M14,26.6H7.5V12.3c0-0.1,0-0.1,0.1-0.1c0,0,0.1-0.1,0.1-0.1h11.7c0.1,0,0.1,0,0.1,0.1c0,0,0.1,0.1,0.1,0.1
		V19c-2.6,0.1-5,0.7-5,1.9c0,1.3,2.8,1.9,5.5,1.9c2.8,0,5.5-0.6,5.5-1.9c0-1.3-2.4-1.9-5-1.9v-6.7c0-0.3-0.1-0.7-0.4-0.9
		C20,11.2,19.7,11,19.4,11h-0.9V7.8c0-0.3-0.1-0.6-0.3-0.8c-0.2-0.2-0.5-0.3-0.8-0.3h-1c-0.1-0.4-0.2-0.7-0.5-1
		c-0.3-0.4-0.7-0.8-1.3-1c-0.2-0.1-0.4-0.1-0.6-0.1v-3c0-0.1-0.1-0.3-0.2-0.4c-0.2-0.2-0.6-0.2-0.8,0C13.1,1.3,13,1.4,13,1.5v3
		c-0.5,0.1-1,0.3-1.4,0.7c-0.3,0.2-0.5,0.5-0.7,0.9c-0.1,0.2-0.2,0.4-0.2,0.6H9.8C9.5,6.7,9.2,6.8,9,7C8.8,7.2,8.7,7.5,8.7,7.8V11
		H7.7c-0.3,0-0.7,0.1-0.9,0.4c-0.2,0.2-0.4,0.6-0.4,0.9v14.8c0,0.1,0.1,0.3,0.2,0.4c0.1,0.1,0.2,0.2,0.4,0.2h7
		c0.1,0,0.3-0.1,0.4-0.2c0.1-0.1,0.2-0.2,0.2-0.4c0-0.1-0.1-0.3-0.2-0.4C14.2,26.6,14.1,26.6,14,26.6z M13.7,5.6
		c0.4,0,0.9,0.2,1.2,0.5c0.2,0.2,0.3,0.4,0.4,0.6h-3.3c0,0,0-0.1,0-0.1C12,6.4,12.2,6.2,12.4,6c0.2-0.2,0.4-0.3,0.6-0.4
		C13.2,5.6,13.4,5.5,13.7,5.6z M15.8,7.8c0,0,0.1,0,0.1,0c0,0,0,0,0,0c0,0,0.1,0,0.1,0l1.3,0c0,0,0,0,0.1,0c0,0,0,0,0,0V11H9.8V7.8
		l0,0L15.8,7.8z M20.3,20c2.8,0,4.2,0.7,4.3,0.9c-0.1,0.2-1.4,0.9-4.5,0.9c-3,0-4.4-0.7-4.5-0.8c0.1-0.2,1.4-0.9,4.5-0.9L20.3,20z"
		/>
	<rect x="10.5" y="8.5" fill="#92A1AB" width="6.2" height="2"/>
</g>
</svg>
