<?xml version="1.0" encoding="utf-8"?>
<!-- Generator: Adobe Illustrator 26.5.0, SVG Export Plug-In . SVG Version: 6.00 Build 0)  -->
<svg version="1.0" id="Layer_1" xmlns="http://www.w3.org/2000/svg" xmlns:xlink="http://www.w3.org/1999/xlink" x="0px" y="0px"
	 viewBox="0 0 32 32" enable-background="new 0 0 32 32" xml:space="preserve">
<g>
	<g>
		<defs>
			<rect id="SVGID_1_" x="0.7" width="30.5" height="32"/>
		</defs>
		<clipPath id="SVGID_00000078735585572496322560000002916715064089920911_">
			<use xlink:href="#SVGID_1_"  overflow="visible"/>
		</clipPath>
		<g clip-path="url(#SVGID_00000078735585572496322560000002916715064089920911_)">
			<path fill="#143B61" d="M1.3,27.4C1.3,27.4,1.4,27.4,1.3,27.4c0.1,0.1,0.1,0.1,0.1,0.1c0,0,0,0,0,0.1c0,0,0,0,0,0
				c0,0-0.1,0-0.2,0c-0.1,0-0.1,0-0.2,0c0,0,0,0,0,0c0,0,0,0,0-0.1s0,0,0-0.1c0,0,0,0,0,0c0,0,0.1,0,0.2,0
				C1.2,27.3,1.3,27.3,1.3,27.4z"/>
			<path fill="#143B61" d="M9.1,31.8C9.1,31.8,9.1,31.8,9.1,31.8c0.1,0.1,0.1,0.1,0.1,0.1s0,0,0,0.1c0,0,0,0,0,0c0,0-0.1,0-0.2,0
				s-0.1,0-0.2,0c0,0,0,0,0,0c0,0,0,0,0-0.1s0,0,0-0.1c0,0,0,0,0,0c0,0,0.1,0,0.2,0S9,31.7,9.1,31.8z"/>
			<path fill="#143B61" d="M10,31.2c0.1,0,0.1,0.1,0,0.2c0,0-0.1,0-0.2,0s-0.1,0-0.2,0c-0.1,0-0.1-0.1,0-0.2c0,0,0.1,0,0.2,0
				C9.9,31.1,10,31.2,10,31.2z"/>
			<path fill="#143B61" d="M7.2,31.8c0.1,0,0.1,0.1,0,0.2c0,0-0.1,0-0.2,0s-0.1,0-0.2,0c-0.1,0-0.1-0.1,0-0.2c0,0,0.1,0,0.2,0
				S7.1,31.7,7.2,31.8z"/>
			<path fill="#143B61" d="M5,32c0.1,0,0.3-0.1,0.3-0.1c0-0.1-0.1-0.1-0.3-0.1s-0.3,0.1-0.3,0.1C4.8,31.9,4.9,32,5,32z"/>
			<path fill="#143B61" d="M6,31.4c0.1,0,0.3-0.1,0.3-0.1c0-0.1-0.1-0.1-0.3-0.1s-0.3,0.1-0.3,0.1S5.9,31.4,6,31.4z"/>
			<path fill="#143B61" d="M8.1,31.2c0.1,0,0.1,0.1,0,0.2c0,0-0.1,0-0.2,0s-0.1,0-0.2,0c-0.1,0-0.1-0.1,0-0.2c0,0,0.1,0,0.2,0
				C8,31.1,8.1,31.2,8.1,31.2z"/>
			<path fill="#143B61" d="M9.1,30.6C9.1,30.6,9.1,30.7,9.1,30.6c0.1,0.1,0.1,0.1,0.1,0.1s0,0,0,0.1c0,0,0,0,0,0c0,0-0.1,0-0.2,0
				s-0.1,0-0.2,0c0,0,0,0,0,0c0,0,0,0,0-0.1c0,0,0,0,0-0.1c0,0,0,0,0,0c0,0,0.1,0,0.2,0S9,30.6,9.1,30.6z"/>
			<path fill="#143B61" d="M4.3,31.2c0.1,0,0.1,0.1,0,0.2c0,0-0.1,0-0.2,0c-0.1,0-0.1,0-0.2,0c-0.1,0-0.1-0.1,0-0.2c0,0,0.1,0,0.2,0
				C4.1,31.1,4.2,31.2,4.3,31.2z"/>
			<path fill="#143B61" d="M5,30.9c0.1,0,0.3-0.1,0.3-0.1c0-0.1-0.1-0.1-0.3-0.1s-0.3,0.1-0.3,0.1C4.8,30.8,4.9,30.9,5,30.9z"/>
			<path fill="#143B61" d="M6,30.3c0.1,0,0.3-0.1,0.3-0.1C6.3,30.1,6.2,30,6,30s-0.3,0.1-0.3,0.1C5.7,30.3,5.9,30.3,6,30.3z"/>
			<path fill="#143B61" d="M7.2,30.6c0.1,0,0.1,0.1,0,0.2c0,0-0.1,0-0.2,0s-0.1,0-0.2,0c-0.1,0-0.1-0.1,0-0.2c0,0,0.1,0,0.2,0
				C7,30.6,7.1,30.6,7.2,30.6z"/>
			<path fill="#143B61" d="M3.3,30.6C3.3,30.6,3.3,30.7,3.3,30.6c0.1,0.1,0.1,0.1,0.1,0.1s0,0,0,0.1c0,0,0,0,0,0c0,0-0.1,0-0.2,0
				c-0.1,0-0.1,0-0.2,0c0,0,0,0,0,0c0,0,0,0,0-0.1c0,0,0,0,0-0.1c0,0,0,0,0,0c0,0,0.1,0,0.2,0C3.2,30.6,3.2,30.6,3.3,30.6z"/>
			<path fill="#143B61" d="M4.3,30.1C4.3,30.1,4.3,30.1,4.3,30.1c0.1,0.1,0.1,0.1,0.1,0.1c0,0,0,0,0,0.1c0,0,0,0,0,0
				c0,0-0.1,0-0.2,0c-0.1,0-0.1,0-0.2,0c-0.1,0-0.1-0.1,0-0.2c0,0,0.1,0,0.2,0C4.1,30,4.2,30,4.3,30.1z"/>
			<path fill="#143B61" d="M5.2,29.5c0.1,0,0.1,0.1,0,0.2c0,0-0.1,0-0.2,0s-0.1,0-0.2,0c0,0,0,0,0,0c0,0,0,0,0-0.1c0,0,0,0,0-0.1
				c0,0,0,0,0,0c0,0,0.1,0,0.2,0C5.1,29.5,5.2,29.5,5.2,29.5z"/>
			<path fill="#143B61" d="M8.1,30.1C8.1,30.1,8.2,30.1,8.1,30.1c0.1,0.1,0.1,0.1,0.1,0.1c0,0,0,0,0,0.1c0,0,0,0,0,0
				c0,0-0.1,0-0.2,0s-0.1,0-0.2,0c-0.1,0-0.1-0.1,0-0.2c0,0,0.1,0,0.2,0C8,30,8.1,30,8.1,30.1z"/>
			<path fill="#143B61" d="M2.3,30.1c0.1,0,0.1,0.1,0,0.2c0,0-0.1,0-0.2,0s-0.1,0-0.2,0c0,0,0,0,0,0c0,0,0,0,0-0.1c0,0,0,0,0-0.1
				c0,0,0,0,0,0c0,0,0.1,0,0.2,0S2.3,30,2.3,30.1z"/>
			<path fill="#143B61" d="M3.3,29.5c0.1,0,0.1,0.1,0,0.2c0,0-0.1,0-0.2,0c-0.1,0-0.1,0-0.2,0c-0.1,0-0.1-0.1,0-0.2c0,0,0.1,0,0.2,0
				C3.2,29.5,3.2,29.5,3.3,29.5z"/>
			<path fill="#143B61" d="M4.3,28.9C4.3,28.9,4.3,29,4.3,28.9c0,0.1,0.1,0.1,0.1,0.1c0,0,0,0,0,0.1c0,0,0,0,0,0c0,0-0.1,0-0.2,0
				c-0.1,0-0.1,0-0.2,0c0,0,0,0,0,0c0,0,0,0,0-0.1c0,0,0,0,0-0.1c0,0,0,0,0,0c0,0,0.1,0,0.2,0C4.1,28.9,4.2,28.9,4.3,28.9z"/>
			<path fill="#143B61" d="M7,29.8c0.1,0,0.3-0.1,0.3-0.1S7.1,29.5,7,29.5s-0.3,0.1-0.3,0.1S6.8,29.8,7,29.8z"/>
			<path fill="#143B61" d="M6.2,28.9c0.1,0,0.1,0.1,0,0.2c0,0-0.1,0-0.2,0s-0.1,0-0.2,0c-0.1,0-0.1-0.1,0-0.2c0,0,0.1,0,0.2,0
				S6.1,28.9,6.2,28.9z"/>
			<path fill="#143B61" d="M5,28.7c0.1,0,0.3-0.1,0.3-0.1c0-0.1-0.1-0.1-0.3-0.1s-0.3,0.1-0.3,0.1C4.8,28.6,4.9,28.7,5,28.7z"/>
			<path fill="#143B61" d="M1.2,29.8c0.1,0,0.3-0.1,0.3-0.1s-0.1-0.1-0.3-0.1s-0.3,0.1-0.3,0.1S1,29.8,1.2,29.8z"/>
			<path fill="#143B61" d="M2.3,28.9c0.1,0,0.1,0.1,0,0.2c0,0-0.1,0-0.2,0s-0.1,0-0.2,0c0,0,0,0,0,0c0,0,0,0,0-0.1c0,0,0,0,0-0.1
				c0,0,0,0,0,0c0,0,0.1,0,0.2,0S2.3,28.9,2.3,28.9z"/>
			<path fill="#143B61" d="M3.3,28.4c0.1,0,0.1,0.1,0,0.2c0,0-0.1,0-0.2,0c-0.1,0-0.1,0-0.2,0c-0.1,0-0.1-0.1,0-0.2c0,0,0.1,0,0.2,0
				C3.2,28.3,3.2,28.4,3.3,28.4z"/>
			<path fill="#143B61" d="M4.3,27.8C4.3,27.8,4.3,27.9,4.3,27.8c0.1,0.1,0.1,0.1,0.1,0.1c0,0,0,0,0,0.1c0,0,0,0,0,0
				c0,0-0.1,0-0.2,0c-0.1,0-0.1,0-0.2,0c0,0,0,0,0,0c0,0,0,0,0-0.1c0,0,0,0,0-0.1c0,0,0,0,0,0c0,0,0.1,0,0.2,0
				C4.1,27.8,4.2,27.8,4.3,27.8z"/>
			<path fill="#143B61" d="M1.4,28.4C1.4,28.4,1.4,28.4,1.4,28.4c0.1,0.1,0.1,0.1,0.1,0.1c0,0,0,0,0,0.1c0,0,0,0,0,0
				c0,0-0.1,0-0.2,0c-0.1,0-0.1,0-0.2,0c0,0,0,0,0,0c0,0,0,0,0-0.1s0,0,0-0.1c0,0,0,0,0,0c0,0,0.1,0,0.2,0
				C1.2,28.4,1.3,28.4,1.4,28.4z"/>
			<path fill="#143B61" d="M2.3,27.8C2.3,27.8,2.4,27.9,2.3,27.8c0.1,0.1,0.1,0.1,0.1,0.1c0,0,0,0,0,0.1c0,0,0,0,0,0
				c0,0-0.1,0-0.2,0c-0.1,0-0.1,0-0.2,0c0,0,0,0,0,0c0,0,0,0,0-0.1s0,0,0-0.1c0,0,0,0,0,0c0,0,0.1,0,0.2,0
				C2.2,27.8,2.3,27.8,2.3,27.8z"/>
			<path fill="#143B61" d="M3.3,27.3C3.3,27.3,3.3,27.3,3.3,27.3c0.1,0.1,0.1,0.1,0.1,0.1c0,0,0,0,0,0.1c0,0,0,0,0,0
				c0,0-0.1,0-0.2,0c-0.1,0-0.1,0-0.2,0c0,0,0,0,0,0c0,0,0,0,0-0.1c0,0,0,0,0-0.1c0,0,0,0,0,0c0,0,0.1,0,0.2,0
				C3.2,27.2,3.2,27.3,3.3,27.3z"/>
			<path fill="#143B61" d="M12.7,21c0.1,0,0.3-0.1,0.3-0.1c0-0.1-0.1-0.1-0.3-0.1c-0.1,0-0.3,0.1-0.3,0.1C12.4,20.9,12.6,21,12.7,21
				z"/>
			<path fill="#143B61" d="M13.9,20.1c0.1,0,0.1,0.1,0,0.2c0,0-0.1,0-0.2,0s-0.1,0-0.2,0c-0.1,0-0.1-0.1,0-0.2c0,0,0.1,0,0.2,0
				C13.7,20.1,13.8,20.1,13.9,20.1z"/>
			<path fill="#143B61" d="M14.8,19.6C14.9,19.6,14.9,19.6,14.8,19.6c0.1,0.1,0.1,0.1,0.1,0.1s0,0,0,0.1s0,0,0,0c0,0-0.1,0-0.2,0
				s-0.1,0-0.2,0c0,0,0,0,0,0c0,0,0,0,0-0.1s0,0,0-0.1c0,0,0,0,0,0c0,0,0.1,0,0.2,0S14.8,19.5,14.8,19.6z"/>
			<path fill="#143B61" d="M15.8,19C15.8,19,15.8,19.1,15.8,19c0.1,0.1,0.1,0.1,0.1,0.1s0,0,0,0.1c0,0,0,0,0,0c0,0-0.1,0-0.2,0
				s-0.1,0-0.2,0c0,0,0,0,0,0c0,0,0,0,0-0.1s0,0,0-0.1c0,0,0,0,0,0c0,0,0.1,0,0.2,0C15.7,19,15.7,19,15.8,19z"/>
			<path fill="#143B61" d="M16.6,18.7c0.1,0,0.3-0.1,0.3-0.1c0-0.1-0.1-0.1-0.3-0.1s-0.3,0.1-0.3,0.1S16.4,18.7,16.6,18.7z"/>
			<path fill="#143B61" d="M17.7,17.9C17.7,17.9,17.8,17.9,17.7,17.9c0.1,0.1,0.1,0.1,0.1,0.1s0,0,0,0.1c0,0,0,0,0,0
				c0,0-0.1,0-0.2,0c-0.1,0-0.1,0-0.2,0c0,0,0,0,0,0c0,0,0,0,0-0.1s0,0,0-0.1c0,0,0,0,0,0c0,0,0.1,0,0.2,0
				C17.6,17.9,17.7,17.9,17.7,17.9z"/>
			<path fill="#143B61" d="M18.5,17.6c0.1,0,0.3-0.1,0.3-0.1s-0.1-0.1-0.3-0.1s-0.3,0.1-0.3,0.1C18.2,17.5,18.3,17.6,18.5,17.6z"/>
			<path fill="#143B61" d="M11.9,20.1C11.9,20.1,12,20.2,11.9,20.1c0.1,0.1,0.1,0.1,0.1,0.1s0,0,0,0.1c0,0,0,0,0,0c0,0-0.1,0-0.2,0
				s-0.1,0-0.2,0c0,0,0,0,0,0c0,0,0,0,0-0.1s0,0,0-0.1c0,0,0,0,0,0c0,0,0.1,0,0.2,0S11.9,20.1,11.9,20.1z"/>
			<path fill="#143B61" d="M12.9,19.6c0.1,0,0.1,0.1,0,0.2c0,0-0.1,0-0.2,0s-0.1,0-0.2,0c-0.1,0-0.1-0.1,0-0.2c0.1,0,0.1,0,0.2,0
				S12.8,19.5,12.9,19.6z"/>
			<path fill="#143B61" d="M13.9,19C13.9,19,13.9,19.1,13.9,19c0.1,0.1,0.1,0.1,0.1,0.1s0,0,0,0.1c0,0,0,0,0,0c0,0-0.1,0-0.2,0
				s-0.1,0-0.2,0c0,0,0,0,0,0c0,0,0,0,0-0.1s0,0,0-0.1c0,0,0,0,0,0c0,0,0.1,0,0.2,0C13.7,19,13.8,19,13.9,19z"/>
			<path fill="#143B61" d="M14.8,18.5C14.9,18.5,14.9,18.5,14.8,18.5C14.9,18.5,14.9,18.6,14.8,18.5c0.1,0.1,0.1,0.1,0,0.2
				c0,0,0,0,0,0c0,0-0.1,0-0.2,0s-0.1,0-0.2,0c0,0,0,0,0,0c0,0,0,0,0-0.1s0,0,0-0.1c0,0,0,0,0,0c0,0,0.1,0,0.2,0
				C14.7,18.4,14.8,18.4,14.8,18.5z"/>
			<path fill="#143B61" d="M15.8,17.9c0.1,0,0.1,0.1,0,0.2c0,0-0.1,0-0.2,0s-0.1,0-0.2,0c-0.1,0-0.1-0.1,0-0.2c0,0,0.1,0,0.2,0
				C15.7,17.9,15.7,17.9,15.8,17.9z"/>
			<path fill="#143B61" d="M16.6,17.6c0.1,0,0.3-0.1,0.3-0.1s-0.1-0.1-0.3-0.1s-0.3,0.1-0.3,0.1C16.3,17.5,16.4,17.6,16.6,17.6z"/>
			<path fill="#143B61" d="M17.5,17.1c0.1,0,0.3-0.1,0.3-0.1c0-0.1-0.1-0.1-0.3-0.1s-0.3,0.1-0.3,0.1C17.3,17,17.4,17.1,17.5,17.1z"
				/>
			<path fill="#143B61" d="M10.8,19.8c0.1,0,0.3-0.1,0.3-0.1c0-0.1-0.1-0.1-0.3-0.1c-0.1,0-0.3,0.1-0.3,0.1
				C10.5,19.8,10.6,19.8,10.8,19.8z"/>
			<path fill="#143B61" d="M11.7,19.3c0.1,0,0.3-0.1,0.3-0.1c0-0.1-0.1-0.1-0.3-0.1s-0.3,0.1-0.3,0.1C11.5,19.2,11.6,19.3,11.7,19.3
				z"/>
			<path fill="#143B61" d="M12.7,18.7c0.1,0,0.3-0.1,0.3-0.1c0-0.1-0.1-0.1-0.3-0.1c-0.1,0-0.3,0.1-0.3,0.1S12.6,18.7,12.7,18.7z"/>
			<path fill="#143B61" d="M13.9,17.9c0.1,0,0.1,0.1,0,0.2c0,0-0.1,0-0.2,0s-0.1,0-0.2,0c-0.1,0-0.1-0.1,0-0.2c0,0,0.1,0,0.2,0
				C13.7,17.9,13.8,17.9,13.9,17.9z"/>
			<path fill="#143B61" d="M14.8,17.4C14.9,17.4,14.9,17.4,14.8,17.4c0.1,0.1,0.1,0.1,0.1,0.1c0,0,0,0,0,0.1s0,0,0,0
				c0,0-0.1,0-0.2,0s-0.1,0-0.2,0c0,0,0,0,0,0c0,0,0,0,0-0.1c0,0,0,0,0-0.1c0,0,0,0,0,0c0,0,0.1,0,0.2,0S14.8,17.3,14.8,17.4z"/>
			<path fill="#143B61" d="M15.6,17.1c0.1,0,0.3-0.1,0.3-0.1c0-0.1-0.1-0.1-0.3-0.1s-0.3,0.1-0.3,0.1C15.3,17,15.4,17.1,15.6,17.1z"
				/>
			<path fill="#143B61" d="M16.7,16.2C16.8,16.2,16.8,16.3,16.7,16.2c0.1,0.1,0.1,0.1,0.1,0.1c0,0,0,0,0,0.1c0,0,0,0,0,0
				c0,0-0.1,0-0.2,0c-0.1,0-0.1,0-0.2,0c0,0,0,0,0,0c0,0,0,0,0-0.1c0,0,0,0,0-0.1c0,0,0,0,0,0c0,0,0.1,0,0.2,0
				C16.6,16.2,16.7,16.2,16.7,16.2z"/>
			<path fill="#143B61" d="M10,19C10,19,10,19.1,10,19c0.1,0.1,0.1,0.1,0.1,0.1s0,0,0,0.1c0,0,0,0,0,0c0,0-0.1,0-0.2,0s-0.1,0-0.2,0
				c0,0,0,0,0,0c0,0,0,0,0-0.1s0,0,0-0.1c0,0,0,0,0,0c0,0,0.1,0,0.2,0C9.9,19,9.9,19,10,19z"/>
			<path fill="#143B61" d="M11,18.5C11,18.5,11,18.5,11,18.5c0.1,0.1,0.1,0.1,0.1,0.1c0,0,0,0,0,0.1c0,0,0,0,0,0c0,0-0.1,0-0.2,0
				s-0.1,0-0.2,0c-0.1,0-0.1-0.1,0-0.2c0,0,0.1,0,0.2,0C10.8,18.4,10.9,18.4,11,18.5z"/>
			<path fill="#143B61" d="M11.7,18.2c0.1,0,0.3-0.1,0.3-0.1s-0.1-0.1-0.3-0.1S11.5,18,11.5,18C11.5,18.1,11.6,18.2,11.7,18.2z"/>
			<path fill="#143B61" d="M12.9,17.4c0.1,0,0.1,0.1,0,0.2c0,0-0.1,0-0.2,0s-0.1,0-0.2,0c-0.1,0-0.1-0.1,0-0.2c0,0,0.1,0,0.2,0
				S12.8,17.3,12.9,17.4z"/>
			<path fill="#143B61" d="M13.9,16.8c0.1,0,0.1,0.1,0,0.2c0,0-0.1,0-0.2,0s-0.1,0-0.2,0c-0.1,0-0.1-0.1,0-0.2c0,0,0.1,0,0.2,0
				C13.7,16.8,13.8,16.8,13.9,16.8z"/>
			<path fill="#143B61" d="M14.8,16.2C14.9,16.2,14.9,16.3,14.8,16.2c0.1,0.1,0.1,0.1,0.1,0.1c0,0,0,0,0,0.1c0,0,0,0,0,0
				c0,0-0.1,0-0.2,0s-0.1,0-0.2,0c0,0,0,0,0,0c0,0,0,0,0-0.1c0,0,0,0,0-0.1c0,0,0,0,0,0c0,0,0.1,0,0.2,0S14.8,16.2,14.8,16.2z"/>
			<path fill="#143B61" d="M15.6,16c0.1,0,0.3-0.1,0.3-0.1s-0.1-0.2-0.3-0.2c-0.1,0-0.3,0.1-0.3,0.1S15.4,16,15.6,16z"/>
			<path fill="#143B61" d="M9,18.5c0.1,0,0.1,0.1,0,0.2c0,0-0.1,0-0.2,0s-0.1,0-0.2,0c0,0,0,0,0,0c0,0,0,0,0-0.1s0,0,0-0.1
				c0,0,0,0,0,0c0,0,0.1,0,0.2,0C8.9,18.4,9,18.4,9,18.5z"/>
			<path fill="#143B61" d="M9.8,18.2c0.1,0,0.3-0.1,0.3-0.1s-0.1-0.1-0.3-0.1S9.6,18,9.6,18C9.6,18.1,9.7,18.2,9.8,18.2z"/>
			<path fill="#143B61" d="M10.8,17.6c0.1,0,0.3-0.1,0.3-0.1s-0.1-0.1-0.3-0.1s-0.3,0.1-0.3,0.1C10.5,17.5,10.6,17.6,10.8,17.6z"/>
			<path fill="#143B61" d="M11.7,17.1c0.1,0,0.3-0.1,0.3-0.1c0-0.1-0.1-0.1-0.3-0.1s-0.3,0.1-0.3,0.1C11.5,17,11.6,17.1,11.7,17.1z"
				/>
			<path fill="#143B61" d="M12.9,16.2C12.9,16.2,12.9,16.3,12.9,16.2c0.1,0.1,0.1,0.1,0.1,0.1c0,0,0,0,0,0.1c0,0,0,0,0,0
				c0,0-0.1,0-0.2,0s-0.1,0-0.2,0c0,0,0,0,0,0c0,0,0,0,0-0.1s0,0,0-0.1c0,0,0,0,0,0c0,0,0.1,0,0.2,0S12.8,16.2,12.9,16.2z"/>
			<path fill="#143B61" d="M13.9,15.7C13.9,15.7,13.9,15.7,13.9,15.7c0.1,0.1,0.1,0.1,0.1,0.1c0,0,0,0,0,0.1c0,0,0,0,0,0
				c0,0-0.1,0-0.2,0s-0.1,0-0.2,0c0,0,0,0,0,0c0,0,0,0,0-0.1c0,0,0,0,0-0.1c0,0,0,0,0,0c0,0,0.1,0,0.2,0
				C13.7,15.6,13.8,15.7,13.9,15.7z"/>
			<path fill="#143B61" d="M14.8,15.1C14.9,15.1,14.9,15.1,14.8,15.1c0.1,0.1,0.1,0.1,0.1,0.1c0,0,0,0,0,0.1c0,0,0,0,0,0
				c0,0-0.1,0-0.2,0s-0.1,0-0.2,0c0,0,0,0,0,0c0,0,0,0,0-0.1c0,0,0,0,0-0.1c0,0,0,0,0,0c0,0,0.1,0,0.2,0
				C14.7,15.1,14.8,15.1,14.8,15.1z"/>
			<path fill="#143B61" d="M7.9,18.2c0.1,0,0.3-0.1,0.3-0.1S8,17.9,7.9,17.9c-0.1,0-0.3,0.1-0.3,0.1C7.6,18.1,7.7,18.2,7.9,18.2z"/>
			<path fill="#143B61" d="M9,17.4C9,17.4,9.1,17.4,9,17.4c0.1,0.1,0.1,0.1,0.1,0.1s0,0,0,0.1c0,0,0,0,0,0c0,0-0.1,0-0.2,0
				s-0.1,0-0.2,0c0,0,0,0,0,0c0,0,0,0,0-0.1s0,0,0-0.1c0,0,0,0,0,0c0,0,0.1,0,0.2,0C8.9,17.3,9,17.3,9,17.4z"/>
			<path fill="#143B61" d="M9.8,17.1c0.1,0,0.3-0.1,0.3-0.1c0-0.1-0.1-0.1-0.3-0.1s-0.3,0.1-0.3,0.1C9.6,17,9.7,17.1,9.8,17.1z"/>
			<path fill="#143B61" d="M10.8,16.5c0.1,0,0.3-0.1,0.3-0.1c0-0.1-0.1-0.1-0.3-0.1s-0.3,0.1-0.3,0.1C10.5,16.4,10.6,16.5,10.8,16.5
				z"/>
			<path fill="#143B61" d="M11.9,15.7c0.1,0,0.1,0.1,0,0.2c0,0-0.1,0-0.2,0s-0.1,0-0.2,0c-0.1,0-0.1-0.1,0-0.2c0,0,0.1,0,0.2,0
				C11.8,15.6,11.8,15.7,11.9,15.7z"/>
			<path fill="#143B61" d="M12.9,15.1C12.9,15.1,12.9,15.1,12.9,15.1c0.1,0.1,0.1,0.1,0.1,0.1c0,0,0,0,0,0.1c0,0,0,0,0,0
				c0,0-0.1,0-0.2,0c-0.1,0-0.1,0-0.2,0c-0.1,0-0.1-0.1,0-0.2c0,0,0.1,0,0.2,0C12.8,15.1,12.8,15.1,12.9,15.1z"/>
			<path fill="#143B61" d="M13.9,14.6C13.9,14.6,13.9,14.6,13.9,14.6c0,0.1,0.1,0.1,0.1,0.1c0,0,0,0,0,0.1c0,0,0,0,0,0
				c0,0-0.1,0-0.2,0s-0.1,0-0.2,0c0,0,0,0,0,0c0,0,0,0,0-0.1c0,0,0,0,0-0.1c0,0,0,0,0,0c0,0,0.1,0,0.2,0
				C13.7,14.5,13.8,14.5,13.9,14.6z"/>
			<path fill="#143B61" d="M7.1,17.4C7.1,17.4,7.2,17.4,7.1,17.4c0.1,0.1,0.1,0.1,0.1,0.1c0,0,0,0,0,0.1c0,0,0,0,0,0
				c0,0-0.1,0-0.2,0s-0.1,0-0.2,0c0,0,0,0,0,0c0,0,0,0,0-0.1c0,0,0,0,0-0.1c0,0,0,0,0,0c0,0,0.1,0,0.2,0S7,17.3,7.1,17.4z"/>
			<path fill="#143B61" d="M8.1,16.8c0.1,0,0.1,0.1,0,0.2c0,0-0.1,0-0.2,0s-0.1,0-0.2,0c0,0,0,0,0,0c0,0,0,0,0-0.1c0,0,0,0,0-0.1
				c0,0,0,0,0,0c0,0,0.1,0,0.2,0C7.9,16.8,8,16.8,8.1,16.8z"/>
			<path fill="#143B61" d="M9,16.2c0.1,0,0.1,0.1,0,0.2c0,0-0.1,0-0.2,0s-0.1,0-0.2,0c-0.1,0-0.1-0.1,0-0.2c0,0,0.1,0,0.2,0
				C8.9,16.2,9,16.2,9,16.2z"/>
			<path fill="#143B61" d="M10,15.7C10,15.7,10,15.7,10,15.7c0.1,0.1,0.1,0.1,0.1,0.1c0,0,0,0,0,0.1c0,0,0,0,0,0c0,0-0.1,0-0.2,0
				s-0.1,0-0.2,0c-0.1,0-0.1-0.1,0-0.2c0,0,0.1,0,0.2,0C9.9,15.6,9.9,15.7,10,15.7z"/>
			<path fill="#143B61" d="M10.9,15.1C11,15.1,11,15.1,10.9,15.1c0.1,0.1,0.1,0.1,0.1,0.1c0,0,0,0,0,0.1c0,0,0,0,0,0
				c0,0-0.1,0-0.2,0s-0.1,0-0.2,0c0,0,0,0,0,0c0,0,0-0.1,0-0.1c0,0,0,0,0-0.1c0,0,0,0,0,0c0,0,0.1,0,0.2,0
				C10.8,15.1,10.9,15.1,10.9,15.1z"/>
			<path fill="#143B61" d="M11.7,14.8c0.1,0,0.3-0.1,0.3-0.1s-0.1-0.1-0.3-0.1s-0.3,0.1-0.3,0.1C11.5,14.8,11.6,14.8,11.7,14.8z"/>
			<path fill="#143B61" d="M12.9,14.2c0,0-0.1,0-0.2,0s-0.1,0-0.2,0c0,0,0,0,0,0c0,0,0,0,0-0.1c0,0,0,0,0-0.1c0,0,0,0,0,0
				C12.6,13.9,13,14.2,12.9,14.2z"/>
			<path fill="#143B61" d="M6.1,16.8c0.1,0,0.1,0.1,0,0.2c0,0-0.1,0-0.2,0s-0.1,0-0.2,0c-0.1,0-0.1-0.1,0-0.2c0,0,0.1,0,0.2,0
				C6,16.8,6.1,16.8,6.1,16.8z"/>
			<path fill="#143B61" d="M6.9,16.5c0.1,0,0.3-0.1,0.3-0.1c0-0.1-0.1-0.1-0.3-0.1s-0.3,0.1-0.3,0.1C6.6,16.4,6.8,16.5,6.9,16.5z"/>
			<path fill="#143B61" d="M8.1,15.7c0.1,0,0.1,0.1,0,0.2c0,0-0.1,0-0.2,0s-0.1,0-0.2,0c0,0,0,0,0,0c0,0,0,0,0-0.1c0,0,0,0,0-0.1
				c0,0,0,0,0,0c0,0,0.1,0,0.2,0C7.9,15.6,8,15.7,8.1,15.7z"/>
			<path fill="#143B61" d="M9,15.1c0.1,0,0.1,0.1,0,0.2c0,0-0.1,0-0.2,0s-0.1,0-0.2,0c-0.1,0-0.1-0.1,0-0.2c0,0,0.1,0,0.2,0
				C8.9,15.1,9,15.1,9,15.1z"/>
			<path fill="#143B61" d="M10,14.6C10,14.6,10,14.6,10,14.6c0.1,0.1,0.1,0.1,0.1,0.1c0,0,0,0,0,0.1c0,0,0,0,0,0c0,0-0.1,0-0.2,0
				s-0.1,0-0.2,0c0,0,0,0,0,0c0,0,0,0,0-0.1c0,0,0,0,0-0.1c0,0,0,0,0,0c0,0,0.1,0,0.2,0S9.9,14.5,10,14.6z"/>
			<path fill="#143B61" d="M10.9,14C11,14,11,14,10.9,14c0.1,0.1,0.1,0.1,0.1,0.1c0,0,0,0,0,0.1c0,0,0,0,0,0c0,0-0.1,0-0.2,0
				s-0.1,0-0.2,0c0,0,0,0,0,0c0,0,0,0,0-0.1c0,0,0,0,0-0.1c0,0,0,0,0,0c0,0,0.1,0,0.2,0S10.9,14,10.9,14z"/>
			<path fill="#143B61" d="M5.2,16.2c0.1,0,0.1,0.1,0,0.2c0,0-0.1,0-0.2,0s-0.1,0-0.2,0c-0.1,0-0.1-0.1,0-0.2c0,0,0.1,0,0.2,0
				S5.1,16.2,5.2,16.2z"/>
			<path fill="#143B61" d="M6.1,15.7c0.1,0,0.1,0.1,0,0.2c0,0-0.1,0-0.2,0s-0.1,0-0.2,0c-0.1,0-0.1-0.1,0-0.2c0,0,0.1,0,0.2,0
				C6,15.6,6.1,15.7,6.1,15.7z"/>
			<path fill="#143B61" d="M6.9,15.4c0.1,0,0.3-0.1,0.3-0.1s-0.1-0.1-0.3-0.1s-0.3,0.1-0.3,0.1C6.6,15.3,6.8,15.4,6.9,15.4z"/>
			<path fill="#143B61" d="M8.1,14.6C8.1,14.6,8.1,14.6,8.1,14.6c0.1,0.1,0.1,0.1,0.1,0.1c0,0,0,0,0,0.1c0,0,0,0,0,0
				c0,0-0.1,0-0.2,0s-0.1,0-0.2,0c0,0,0,0,0,0c0,0,0,0,0-0.1c0,0,0,0,0-0.1c0,0,0,0,0,0c0,0,0.1,0,0.2,0C7.9,14.5,8,14.5,8.1,14.6z"
				/>
			<path fill="#143B61" d="M8.8,14.3c0.1,0,0.3-0.1,0.3-0.1S9,14,8.8,14S8.6,14,8.6,14.1C8.6,14.2,8.7,14.3,8.8,14.3z"/>
			<path fill="#143B61" d="M9.8,13.7c0.1,0,0.3-0.1,0.3-0.1s-0.1-0.1-0.3-0.1s-0.3,0.1-0.3,0.1C9.6,13.6,9.7,13.7,9.8,13.7z"/>
			<path fill="#143B61" d="M4,15.9c0.1,0,0.3-0.1,0.3-0.1S4.2,15.6,4,15.6s-0.3,0.1-0.3,0.1S3.9,15.9,4,15.9z"/>
			<path fill="#143B61" d="M5,15.4c0.1,0,0.3-0.1,0.3-0.1S5.1,15.1,5,15.1s-0.3,0.1-0.3,0.1S4.8,15.4,5,15.4z"/>
			<path fill="#143B61" d="M6.1,14.6C6.2,14.6,6.2,14.6,6.1,14.6c0.1,0.1,0.1,0.1,0.1,0.1c0,0,0,0,0,0.1s0,0,0,0c0,0-0.1,0-0.2,0
				s-0.1,0-0.2,0c0,0,0,0,0,0c0,0,0,0,0-0.1c0,0,0,0,0-0.1c0,0,0,0,0,0c0,0,0.1,0,0.2,0C6,14.5,6.1,14.5,6.1,14.6z"/>
			<path fill="#143B61" d="M7.1,14C7.1,14,7.2,14,7.1,14c0.1,0.1,0.1,0.1,0.1,0.1c0,0,0,0,0,0.1c0,0,0,0,0,0c0,0-0.1,0-0.2,0
				s-0.1,0-0.2,0c0,0,0,0,0,0c0,0,0,0,0-0.1c0,0,0,0,0-0.1c0,0,0,0,0,0c0,0,0.1,0,0.2,0C7,14,7,14,7.1,14z"/>
			<path fill="#143B61" d="M8.1,13.5c0.1,0,0.1,0.1,0,0.2c0,0-0.1,0-0.2,0s-0.1,0-0.2,0c0,0,0,0,0,0c0,0,0,0,0-0.1s0,0,0-0.1
				c0,0,0,0,0,0c0,0,0.1,0,0.2,0C7.9,13.4,8,13.4,8.1,13.5z"/>
			<path fill="#143B61" d="M9,12.9c0.1,0,0.1,0.1,0,0.2c0,0-0.1,0-0.2,0s-0.1,0-0.2,0c-0.1,0-0.1-0.1,0-0.2c0,0,0.1,0,0.2,0
				C8.9,12.8,9,12.9,9,12.9z"/>
			<path fill="#143B61" d="M3.2,15.1c0.1,0,0.1,0.1,0,0.2c-0.1,0-0.1,0-0.2,0s-0.1,0-0.2,0c-0.1,0-0.1-0.1,0-0.2c0,0,0.1,0,0.2,0
				C3.1,15.1,3.2,15.1,3.2,15.1z"/>
			<path fill="#143B61" d="M4.2,14.6C4.2,14.6,4.3,14.6,4.2,14.6c0.1,0.1,0.1,0.1,0.1,0.1c0,0,0,0,0,0.1c0,0,0,0,0,0
				c0,0-0.1,0-0.2,0c-0.1,0-0.1,0-0.2,0c0,0,0,0,0,0c0,0,0,0,0-0.1c0,0,0,0,0-0.1c0,0,0,0,0,0c0,0,0.1,0,0.2,0
				C4.1,14.5,4.2,14.5,4.2,14.6z"/>
			<path fill="#143B61" d="M5.2,14C5.2,14,5.2,14,5.2,14c0.1,0.1,0.1,0.1,0.1,0.1c0,0,0,0,0,0.1c0,0,0,0,0,0c0,0-0.1,0-0.2,0
				s-0.1,0-0.2,0c0,0,0,0,0,0c0,0,0,0,0-0.1c0,0,0,0,0-0.1c0,0,0,0,0,0c0,0,0.1,0,0.2,0S5.1,14,5.2,14z"/>
			<path fill="#143B61" d="M6.1,13.5c0.1,0,0.1,0.1,0,0.2c0,0-0.1,0-0.2,0s-0.1,0-0.2,0c-0.1,0-0.1-0.1,0-0.2c0,0,0.1,0,0.2,0
				C6,13.4,6.1,13.4,6.1,13.5z"/>
			<path fill="#143B61" d="M7.1,12.9C7.1,12.9,7.2,12.9,7.1,12.9C7.2,13,7.2,13,7.2,13c0,0,0,0,0,0.1c0,0,0,0,0,0c0,0-0.1,0-0.2,0
				s-0.1,0-0.2,0c0,0,0,0,0,0c0,0,0,0,0-0.1c0,0,0,0,0-0.1c0,0,0,0,0,0c0,0,0.1,0,0.2,0S7,12.9,7.1,12.9z"/>
			<path fill="#143B61" d="M2.3,14.6C2.3,14.6,2.3,14.6,2.3,14.6c0.1,0.1,0.1,0.1,0.1,0.1c0,0,0,0,0,0.1s0,0,0,0c0,0-0.1,0-0.2,0
				s-0.1,0-0.2,0c0,0,0,0,0,0c0,0,0,0,0-0.1c0,0,0,0,0-0.1c0,0,0,0,0,0c0,0,0.1,0,0.2,0C2.1,14.5,2.2,14.5,2.3,14.6z"/>
			<path fill="#143B61" d="M3.1,14.3c0.1,0,0.3-0.1,0.3-0.1S3.2,14,3.1,14S2.8,14,2.8,14.1C2.8,14.2,2.9,14.3,3.1,14.3z"/>
			<path fill="#143B61" d="M4,13.7c0.1,0,0.3-0.1,0.3-0.1S4.2,13.4,4,13.4s-0.3,0.1-0.3,0.1S3.9,13.7,4,13.7z"/>
			<path fill="#143B61" d="M5.2,12.9c0.1,0,0.1,0.1,0,0.2c0,0-0.1,0-0.2,0s-0.1,0-0.2,0c-0.1,0-0.1-0.1,0-0.2c0,0,0.1,0,0.2,0
				S5.1,12.9,5.2,12.9z"/>
			<path fill="#143B61" d="M6.1,12.3c0.1,0,0.1,0.1,0,0.2c0,0-0.1,0-0.2,0s-0.1,0-0.2,0c-0.1,0-0.1-0.1,0-0.2c0,0,0.1,0,0.2,0
				S6.1,12.3,6.1,12.3z"/>
			<path fill="#143B61" d="M1.3,14C1.3,14,1.4,14,1.3,14c0.1,0.1,0.1,0.1,0.1,0.1c0,0,0,0,0,0.1c0,0,0,0,0,0c0,0-0.1,0-0.2,0
				c-0.1,0-0.1,0-0.2,0c0,0,0,0,0,0c0,0,0,0,0-0.1c0,0,0,0,0-0.1c0,0,0,0,0,0c0,0,0.1,0,0.2,0C1.2,13.9,1.3,14,1.3,14z"/>
			<path fill="#143B61" d="M2.1,13.7c0.1,0,0.3-0.1,0.3-0.1s-0.1-0.1-0.3-0.1s-0.3,0.1-0.3,0.1S2,13.7,2.1,13.7z"/>
			<path fill="#143B61" d="M3.1,13.1c0.1,0,0.3-0.1,0.3-0.1s-0.1-0.1-0.3-0.1S2.8,12.9,2.8,13C2.8,13.1,2.9,13.1,3.1,13.1z"/>
			<path fill="#143B61" d="M4,12.6c0.1,0,0.3-0.1,0.3-0.1S4.2,12.3,4,12.3s-0.3,0.1-0.3,0.1S3.9,12.6,4,12.6z"/>
			<path fill="#143B61" d="M5.2,11.8c0.1,0,0.1,0.1,0,0.2c0,0-0.1,0-0.2,0s-0.1,0-0.2,0c-0.1,0-0.1-0.1,0-0.2c0,0,0.1,0,0.2,0
				S5.1,11.7,5.2,11.8z"/>
			<path fill="#143B61" d="M1.3,12.9c0.1,0,0.1,0.1,0,0.2c0,0-0.1,0-0.2,0c-0.1,0-0.1,0-0.2,0c-0.1,0-0.1-0.1,0-0.2c0,0,0.1,0,0.2,0
				S1.2,12.8,1.3,12.9z"/>
			<path fill="#143B61" d="M2.1,12.6c0.1,0,0.3-0.1,0.3-0.1s-0.1-0.1-0.3-0.1s-0.3,0.1-0.3,0.1S2,12.6,2.1,12.6z"/>
			<path fill="#143B61" d="M3.2,11.8C3.3,11.8,3.3,11.8,3.2,11.8c0.1,0.1,0.1,0.1,0.1,0.1c0,0,0,0,0,0.1c0,0,0,0,0,0
				c0,0-0.1,0-0.2,0s-0.1,0-0.2,0c0,0,0,0,0,0c0,0,0,0,0-0.1c0,0,0,0,0-0.1c0,0,0,0,0,0c0.1,0,0.1,0,0.2,0
				C3.1,11.7,3.2,11.7,3.2,11.8z"/>
			<path fill="#143B61" d="M1.3,11.8c0.1,0,0.1,0.1,0,0.2c0,0-0.1,0-0.2,0c-0.1,0-0.1,0-0.2,0c-0.1,0-0.1-0.1,0-0.2
				c0.1,0,0.1,0,0.2,0C1.2,11.7,1.2,11.7,1.3,11.8z"/>
			<path fill="#143B61" d="M2.3,11.2C2.3,11.2,2.3,11.2,2.3,11.2c0.1,0.1,0.1,0.1,0.1,0.1s0,0,0,0.1s0,0,0,0c0,0-0.1,0-0.2,0
				s-0.1,0-0.2,0c-0.1,0-0.1-0.1,0-0.2c0,0,0.1,0,0.2,0C2.1,11.2,2.2,11.2,2.3,11.2z"/>
			<path fill="#143B61" d="M1.3,10.9c0,0-0.1,0-0.2,0c-0.1,0-0.1,0-0.2,0c-0.1,0-0.1-0.1,0-0.2C1.1,10.6,1.4,10.8,1.3,10.9z"/>
			<path fill="#143B61" d="M11.6,31.2c0,0,0.1,0,0.2,0s0.1,0,0.2,0c0.1,0,0.1,0.1,0,0.2c0,0-0.1,0-0.2,0s-0.1,0-0.2,0c0,0,0,0,0,0
				C11.5,31.3,11.5,31.3,11.6,31.2C11.5,31.3,11.5,31.2,11.6,31.2C11.6,31.2,11.6,31.2,11.6,31.2z"/>
			<path fill="#143B61" d="M12.9,30.6c0.1,0,0.1,0.1,0,0.2c0,0-0.1,0-0.2,0s-0.1,0-0.2,0c-0.1,0-0.1-0.1,0-0.2c0,0,0.1,0,0.2,0
				C12.8,30.6,12.9,30.6,12.9,30.6z"/>
			<path fill="#143B61" d="M13.9,30.1C13.9,30.1,13.9,30.1,13.9,30.1c0.1,0.1,0.1,0.1,0.1,0.1c0,0,0,0,0,0.1c0,0,0,0,0,0
				c0,0-0.1,0-0.2,0s-0.1,0-0.2,0c0,0,0,0,0,0c0,0,0,0,0-0.1c0,0,0,0,0-0.1c0,0,0,0,0,0c0,0,0.1,0,0.2,0S13.9,30,13.9,30.1z"/>
			<path fill="#143B61" d="M14.9,29.5C14.9,29.5,14.9,29.6,14.9,29.5c0.1,0.1,0.1,0.1,0.1,0.1c0,0,0,0,0,0.1s0,0,0,0
				c0,0-0.1,0-0.2,0s-0.1,0-0.2,0c0,0,0,0,0,0c0,0,0,0,0-0.1c0,0,0,0,0-0.1c0,0,0,0,0,0c0,0,0.1,0,0.2,0
				C14.7,29.5,14.8,29.5,14.9,29.5z"/>
			<path fill="#143B61" d="M15.6,29.2c0.1,0,0.3-0.1,0.3-0.1c0-0.1-0.1-0.1-0.3-0.1s-0.2,0.1-0.2,0.1C15.4,29.2,15.5,29.2,15.6,29.2
				z"/>
			<path fill="#143B61" d="M10.6,30.6c0,0,0.1,0,0.2,0s0.1,0,0.2,0c0.1,0,0.1,0.1,0,0.2c0,0-0.1,0-0.2,0s-0.1,0-0.2,0c0,0,0,0,0,0
				C10.6,30.8,10.6,30.8,10.6,30.6C10.6,30.7,10.6,30.7,10.6,30.6C10.6,30.7,10.6,30.7,10.6,30.6z"/>
			<path fill="#143B61" d="M12,30.1c0.1,0,0.1,0.1,0,0.2c0,0-0.1,0-0.2,0s-0.1,0-0.2,0c0,0,0,0,0,0c0,0,0,0,0-0.1c0,0,0,0,0-0.1
				c0,0,0,0,0,0c0,0,0.1,0,0.2,0C11.8,30,11.9,30,12,30.1z"/>
			<path fill="#143B61" d="M12.9,29.5C12.9,29.5,13,29.6,12.9,29.5c0.1,0.1,0.1,0.1,0.1,0.1c0,0,0,0,0,0.1s0,0,0,0c0,0-0.1,0-0.2,0
				s-0.1,0-0.2,0c0,0,0,0,0,0c0,0,0,0,0-0.1c0,0,0,0,0-0.1c0,0,0,0,0,0c0,0,0.1,0,0.2,0C12.8,29.5,12.9,29.5,12.9,29.5z"/>
			<path fill="#143B61" d="M13.9,29C13.9,29,13.9,29,13.9,29C14,29,14,29.1,14,29.1c0,0,0,0,0,0.1c0,0,0,0,0,0c0,0-0.1,0-0.2,0
				s-0.1,0-0.2,0c0,0,0,0,0,0c0,0,0,0,0-0.1s0,0,0-0.1c0,0,0,0,0,0c0,0,0.1,0,0.2,0S13.9,28.9,13.9,29z"/>
			<path fill="#143B61" d="M14.7,28.7c0.1,0,0.3-0.1,0.3-0.1c0-0.1-0.1-0.1-0.3-0.1s-0.3,0.1-0.3,0.1C14.4,28.6,14.5,28.7,14.7,28.7
				z"/>
			<path fill="#143B61" d="M15.8,27.9c0.1,0,0.1,0.1,0,0.2c0,0-0.1,0-0.2,0s-0.1,0-0.2,0c-0.1,0-0.1-0.1,0-0.2c0,0,0.1,0,0.2,0
				S15.8,27.8,15.8,27.9z"/>
			<path fill="#143B61" d="M24.3,23.1c0.1,0,0.3-0.1,0.3-0.1s-0.1-0.1-0.3-0.1S24,22.9,24,23C24.1,23,24.2,23.1,24.3,23.1z"/>
			<path fill="#143B61" d="M25.5,22.3c0.1,0,0.1,0.1,0,0.2c0,0-0.1,0-0.2,0c-0.1,0-0.1,0-0.2,0c-0.1,0-0.1-0.1,0-0.2
				c0,0,0.1,0,0.2,0C25.3,22.2,25.4,22.3,25.5,22.3z"/>
			<path fill="#143B61" d="M26.4,21.7C26.5,21.7,26.5,21.7,26.4,21.7c0.1,0.1,0.1,0.1,0.1,0.1c0,0,0,0,0,0.1c0,0,0,0,0,0
				c0,0-0.1,0-0.2,0c-0.1,0-0.1,0-0.2,0c-0.1,0-0.1-0.1,0-0.2c0,0,0.1,0,0.2,0C26.3,21.7,26.4,21.7,26.4,21.7z"/>
			<path fill="#143B61" d="M9.7,30.1c0,0,0.1,0,0.2,0s0.1,0,0.2,0c0,0,0,0,0,0c0,0,0,0,0,0.1c0,0,0,0,0,0.1c0,0,0,0,0,0
				c0,0-0.1,0-0.2,0s-0.1,0-0.2,0C9.6,30.2,9.6,30.1,9.7,30.1z"/>
			<path fill="#143B61" d="M10.8,29.8c0.1,0,0.3-0.1,0.3-0.1c0-0.1-0.1-0.1-0.3-0.1s-0.3,0.1-0.3,0.1S10.7,29.8,10.8,29.8z"/>
			<path fill="#143B61" d="M12,29c0.1,0,0.1,0.1,0,0.2c0,0-0.1,0-0.2,0s-0.1,0-0.2,0c0,0,0,0,0,0c0,0,0,0,0-0.1c0,0,0,0,0-0.1
				c0,0,0,0,0,0c0,0,0.1,0,0.2,0C11.8,28.9,11.9,28.9,12,29z"/>
			<path fill="#143B61" d="M12.9,28.4c0.1,0,0.1,0.1,0,0.2c0,0-0.1,0-0.2,0s-0.1,0-0.2,0c-0.1,0-0.1-0.1,0-0.2c0,0,0.1,0,0.2,0
				C12.8,28.4,12.9,28.4,12.9,28.4z"/>
			<path fill="#143B61" d="M13.9,27.9C13.9,27.9,13.9,27.9,13.9,27.9C14,27.9,14,28,14,28c0,0,0,0,0,0.1c0,0,0,0,0,0
				c0,0-0.1,0-0.2,0s-0.1,0-0.2,0c0,0,0,0,0,0c0,0,0,0,0-0.1c0,0,0,0,0-0.1c0,0,0,0,0,0c0,0,0.1,0,0.2,0S13.9,27.8,13.9,27.9z"/>
			<path fill="#143B61" d="M14.7,27.6c0.1,0,0.3-0.1,0.3-0.1s-0.1-0.1-0.3-0.1s-0.3,0.1-0.3,0.1S14.5,27.6,14.7,27.6z"/>
			<path fill="#143B61" d="M20.6,24C20.7,24,20.7,24,20.6,24c0.1,0.1,0.1,0.1,0.1,0.1s0,0,0,0.1c0,0,0,0,0,0c0,0-0.1,0-0.2,0
				s-0.1,0-0.2,0c0,0,0,0,0,0c0,0,0,0,0-0.1c0,0,0,0,0-0.1c0,0,0,0,0,0c0,0,0.1,0,0.2,0S20.6,23.9,20.6,24z"/>
			<path fill="#143B61" d="M21.4,23.6c0.1,0,0.3-0.1,0.3-0.1s-0.1-0.1-0.3-0.1s-0.3,0.1-0.3,0.1C21.2,23.6,21.3,23.6,21.4,23.6z"/>
			<path fill="#143B61" d="M22.4,23.1c0.1,0,0.3-0.1,0.3-0.1s-0.1-0.1-0.3-0.1s-0.3,0.1-0.3,0.1C22.1,23,22.3,23.1,22.4,23.1z"/>
			<path fill="#143B61" d="M23.5,22.3C23.5,22.3,23.6,22.3,23.5,22.3c0.1,0.1,0.1,0.1,0.1,0.1c0,0,0,0,0,0.1c0,0,0,0,0,0
				c0,0-0.1,0-0.2,0c-0.1,0-0.1,0-0.2,0c0,0,0,0,0,0c0,0,0,0,0-0.1c0,0,0,0,0-0.1c0,0,0,0,0,0c0,0,0.1,0,0.2,0
				C23.4,22.2,23.5,22.3,23.5,22.3z"/>
			<path fill="#143B61" d="M24.5,21.7c0.1,0,0.1,0.1,0,0.2c0,0-0.1,0-0.2,0c-0.1,0-0.1,0-0.2,0c0,0,0,0,0,0c0,0,0,0,0-0.1
				c0,0,0,0,0-0.1c0,0,0,0,0,0c0,0,0.1,0,0.2,0C24.4,21.6,24.5,21.7,24.5,21.7z"/>
			<path fill="#143B61" d="M25.5,21.2c0.1,0,0.1,0.1,0,0.2c0,0-0.1,0-0.2,0c-0.1,0-0.1,0-0.2,0c-0.1,0-0.1-0.1,0-0.2
				c0,0,0.1,0,0.2,0C25.3,21.1,25.4,21.1,25.5,21.2z"/>
			<path fill="#143B61" d="M8.7,29.5c0,0,0.1,0,0.2,0s0.1,0,0.2,0c0,0,0,0,0,0c0,0,0,0,0,0.1c0,0,0,0,0,0.1c0,0,0,0,0,0
				c0,0-0.1,0-0.2,0s-0.1,0-0.2,0c0,0,0,0,0,0c0,0,0,0,0-0.1C8.6,29.6,8.6,29.6,8.7,29.5C8.7,29.6,8.7,29.5,8.7,29.5z"/>
			<path fill="#143B61" d="M10,29c0.1,0,0.1,0.1,0,0.2c0,0-0.1,0-0.2,0s-0.1,0-0.2,0c-0.1,0-0.1-0.1,0-0.2c0,0,0.1,0,0.2,0
				S10,28.9,10,29z"/>
			<path fill="#143B61" d="M11,28.4C11,28.4,11,28.4,11,28.4c0.1,0.1,0.1,0.1,0.1,0.1s0,0,0,0.1c0,0,0,0,0,0c0,0-0.1,0-0.2,0
				s-0.1,0-0.2,0c0,0,0,0,0,0c0,0,0,0,0-0.1c0,0,0,0,0-0.1c0,0,0,0,0,0c0,0,0.1,0,0.2,0C10.9,28.4,10.9,28.4,11,28.4z"/>
			<path fill="#143B61" d="M12,27.9c0.1,0,0.1,0.1,0,0.2c0,0-0.1,0-0.2,0s-0.1,0-0.2,0c-0.1,0-0.1-0.1,0-0.2c0,0,0.1,0,0.2,0
				S11.9,27.8,12,27.9z"/>
			<path fill="#143B61" d="M12.8,27.6c0.1,0,0.3-0.1,0.3-0.1s-0.1-0.1-0.3-0.1s-0.3,0.1-0.3,0.1S12.6,27.6,12.8,27.6z"/>
			<path fill="#143B61" d="M13.9,26.7C13.9,26.7,13.9,26.8,13.9,26.7c0.1,0.1,0.1,0.1,0.1,0.1c0,0,0,0,0,0.1c0,0,0,0,0,0
				c0,0-0.1,0-0.2,0s-0.1,0-0.2,0c0,0,0,0,0,0c0,0,0,0,0-0.1s0,0,0-0.1c0,0,0,0,0,0c0,0,0.1,0,0.2,0S13.9,26.7,13.9,26.7z"/>
			<path fill="#143B61" d="M18.5,24.2c0.1,0,0.3-0.1,0.3-0.1c0-0.1-0.1-0.1-0.3-0.1s-0.3,0.1-0.3,0.1S18.4,24.2,18.5,24.2z"/>
			<path fill="#143B61" d="M19.7,23.4C19.7,23.4,19.7,23.4,19.7,23.4c0.1,0.1,0.1,0.1,0.1,0.1s0,0,0,0.1c0,0,0,0,0,0
				c0,0-0.1,0-0.2,0c-0.1,0-0.1,0-0.2,0c0,0,0,0,0,0c0,0,0,0,0-0.1s0,0,0-0.1c0,0,0,0,0,0c0,0,0.1,0,0.2,0
				C19.5,23.4,19.6,23.4,19.7,23.4z"/>
			<path fill="#143B61" d="M20.5,23.1c0.1,0,0.3-0.1,0.3-0.1s-0.1-0.1-0.3-0.1s-0.3,0.1-0.3,0.1C20.2,23,20.3,23.1,20.5,23.1z"/>
			<path fill="#143B61" d="M21.6,22.3c0.1,0,0.1,0.1,0,0.2c0,0-0.1,0-0.2,0c-0.1,0-0.1,0-0.2,0c-0.1,0-0.1-0.1,0-0.2
				c0,0,0.1,0,0.2,0C21.5,22.2,21.5,22.3,21.6,22.3z"/>
			<path fill="#143B61" d="M22.6,21.7c0.1,0,0.1,0.1,0,0.2c0,0-0.1,0-0.2,0c-0.1,0-0.1,0-0.2,0c-0.1,0-0.1-0.1,0-0.2
				c0,0,0.1,0,0.2,0C22.4,21.7,22.5,21.7,22.6,21.7z"/>
			<path fill="#143B61" d="M23.5,21.2C23.5,21.2,23.6,21.2,23.5,21.2c0.1,0.1,0.1,0.1,0.1,0.1c0,0,0,0,0,0.1c0,0,0,0,0,0
				c0,0-0.1,0-0.2,0c-0.1,0-0.1,0-0.2,0c0,0,0,0,0,0c0,0,0,0,0-0.1c0,0,0,0,0-0.1c0,0,0,0,0,0c0,0,0.1,0,0.2,0
				C23.4,21.1,23.5,21.1,23.5,21.2z"/>
			<path fill="#143B61" d="M24.5,20.6C24.5,20.6,24.5,20.6,24.5,20.6c0.1,0.1,0.1,0.1,0.1,0.1s0,0,0,0.1c0,0,0,0,0,0
				c0,0-0.1,0-0.2,0c-0.1,0-0.1,0-0.2,0c0,0,0,0,0,0c0,0,0,0,0-0.1s0,0,0-0.1c0,0,0,0,0,0c0,0,0.1,0,0.2,0
				C24.4,20.6,24.5,20.6,24.5,20.6z"/>
			<path fill="#143B61" d="M7.7,29c0,0,0.1,0,0.2,0s0.1,0,0.2,0c0,0,0,0,0,0c0,0,0,0,0,0.1c0,0,0,0,0,0.1c0,0,0,0,0,0
				c0,0-0.1,0-0.2,0s-0.1,0-0.2,0C7.6,29.1,7.6,29,7.7,29z"/>
			<path fill="#143B61" d="M9.1,28.4c0.1,0,0.1,0.1,0,0.2c0,0-0.1,0-0.2,0s-0.1,0-0.2,0c-0.1,0-0.1-0.1,0-0.2c0,0,0.1,0,0.2,0
				S9,28.4,9.1,28.4z"/>
			<path fill="#143B61" d="M9.9,28.1c0.1,0,0.3-0.1,0.3-0.1s-0.1-0.1-0.3-0.1S9.6,27.9,9.6,28C9.6,28,9.7,28.1,9.9,28.1z"/>
			<path fill="#143B61" d="M10.8,27.6c0.1,0,0.3-0.1,0.3-0.1s-0.1-0.1-0.3-0.1s-0.3,0.1-0.3,0.1S10.7,27.6,10.8,27.6z"/>
			<path fill="#143B61" d="M12,26.7C12,26.7,12,26.8,12,26.7c0.1,0.1,0.1,0.1,0.1,0.1c0,0,0,0,0,0.1c0,0,0,0,0,0c0,0-0.1,0-0.2,0
				s-0.1,0-0.2,0c0,0,0,0,0,0c0,0,0,0,0-0.1c0,0,0,0,0-0.1c0,0,0,0,0,0c0,0,0.1,0,0.2,0S11.9,26.7,12,26.7z"/>
			<path fill="#143B61" d="M12.8,26.4c0.1,0,0.3-0.1,0.3-0.1c0-0.1-0.1-0.1-0.3-0.1s-0.3,0.1-0.3,0.1C12.5,26.4,12.6,26.4,12.8,26.4
				z"/>
			<path fill="#143B61" d="M17.8,23.4C17.8,23.4,17.8,23.4,17.8,23.4C17.8,23.5,17.8,23.5,17.8,23.4c0.1,0.1,0.1,0.1,0,0.2
				c0,0,0,0,0,0c0,0-0.1,0-0.2,0c-0.1,0-0.1,0-0.2,0c0,0,0,0,0,0c0,0,0,0,0-0.1c0,0,0,0,0-0.1c0,0,0,0,0,0c0,0,0.1,0,0.2,0
				C17.6,23.4,17.7,23.4,17.8,23.4z"/>
			<path fill="#143B61" d="M18.7,22.8c0.1,0,0.1,0.1,0,0.2c0,0-0.1,0-0.2,0c-0.1,0-0.1,0-0.2,0c-0.1,0-0.1-0.1,0-0.2
				c0,0,0.1,0,0.2,0C18.6,22.8,18.7,22.8,18.7,22.8z"/>
			<path fill="#143B61" d="M19.7,22.3c0.1,0,0.1,0.1,0,0.2c0,0-0.1,0-0.2,0c-0.1,0-0.1,0-0.2,0c-0.1,0-0.1-0.1,0-0.2
				c0,0,0.1,0,0.2,0C19.5,22.2,19.6,22.3,19.7,22.3z"/>
			<path fill="#143B61" d="M20.6,21.7C20.7,21.7,20.7,21.7,20.6,21.7c0.1,0.1,0.1,0.1,0.1,0.1c0,0,0,0,0,0.1c0,0,0,0,0,0
				c0,0-0.1,0-0.2,0c0,0-0.1,0-0.2,0c0,0,0,0,0,0c0,0,0,0,0-0.1c0,0,0,0,0-0.1c0,0,0,0,0,0c0,0,0.1,0,0.2,0
				C20.5,21.6,20.6,21.7,20.6,21.7z"/>
			<path fill="#143B61" d="M21.4,21.4c0.1,0,0.3-0.1,0.3-0.1s-0.1-0.1-0.3-0.1s-0.3,0.1-0.3,0.1C21.2,21.3,21.3,21.4,21.4,21.4z"/>
			<path fill="#143B61" d="M22.6,20.6C22.6,20.6,22.6,20.6,22.6,20.6c0.1,0.1,0.1,0.1,0.1,0.1s0,0,0,0.1c0,0,0,0,0,0
				c0,0-0.1,0-0.2,0c-0.1,0-0.1,0-0.2,0c0,0,0,0,0,0c0,0,0,0,0-0.1s0,0,0-0.1c0,0,0,0,0,0c0,0,0.1,0,0.2,0
				C22.4,20.6,22.5,20.6,22.6,20.6z"/>
			<path fill="#143B61" d="M23.5,20.1C23.5,20.1,23.6,20.1,23.5,20.1c0.1,0.1,0.1,0.1,0.1,0.1c0,0,0,0,0,0.1c0,0,0,0,0,0
				c0,0-0.1,0-0.2,0c-0.1,0-0.1,0-0.2,0c0,0,0,0,0,0c0,0,0,0,0-0.1c0,0,0,0,0-0.1c0,0,0,0,0,0c0,0,0.1,0,0.2,0
				C23.4,20,23.5,20,23.5,20.1z"/>
			<path fill="#143B61" d="M6.8,28.4c0,0,0.1,0,0.2,0s0.1,0,0.2,0c0,0,0,0,0,0c0,0,0,0,0,0.1s0,0,0,0.1c0,0,0,0,0,0c0,0-0.1,0-0.2,0
				s-0.1,0-0.2,0C6.7,28.6,6.7,28.5,6.8,28.4z"/>
			<path fill="#143B61" d="M8.1,27.8C8.1,27.8,8.2,27.9,8.1,27.8c0.1,0.1,0.1,0.1,0.1,0.1c0,0,0,0,0,0.1c0,0,0,0,0,0
				c0,0-0.1,0-0.2,0s-0.1,0-0.2,0c0,0,0,0,0,0c0,0,0,0,0-0.1c0,0,0,0,0-0.1c0,0,0,0,0,0c0,0,0.1,0,0.2,0S8.1,27.8,8.1,27.8z"/>
			<path fill="#143B61" d="M9.1,27.3c0.1,0,0.1,0.1,0,0.2c0,0-0.1,0-0.2,0s-0.1,0-0.2,0c-0.1,0-0.1-0.1,0-0.2c0,0,0.1,0,0.2,0
				S9,27.3,9.1,27.3z"/>
			<path fill="#143B61" d="M9.8,27c0.1,0,0.3-0.1,0.3-0.1c0-0.1-0.1-0.1-0.3-0.1s-0.3,0.1-0.3,0.1C9.6,26.9,9.7,27,9.8,27z"/>
			<path fill="#143B61" d="M16.6,23.1c0.1,0,0.3-0.1,0.3-0.1s-0.1-0.1-0.3-0.1s-0.3,0.1-0.3,0.1C16.3,23,16.4,23.1,16.6,23.1z"/>
			<path fill="#143B61" d="M17.7,22.3c0.1,0,0.1,0.1,0,0.2c0,0-0.1,0-0.2,0c-0.1,0-0.1,0-0.2,0c-0.1,0-0.1-0.1,0-0.2
				c0,0,0.1,0,0.2,0C17.6,22.2,17.7,22.3,17.7,22.3z"/>
			<path fill="#143B61" d="M18.7,21.7C18.7,21.7,18.8,21.7,18.7,21.7c0.1,0.1,0.1,0.1,0.1,0.1c0,0,0,0,0,0.1c0,0,0,0,0,0
				c0,0-0.1,0-0.2,0c-0.1,0-0.1,0-0.2,0c0,0,0,0,0,0c0,0,0,0,0-0.1c0,0,0,0,0-0.1c0,0,0,0,0,0c0,0,0.1,0,0.2,0
				C18.6,21.7,18.7,21.7,18.7,21.7z"/>
			<path fill="#143B61" d="M19.5,21.4c0.1,0,0.3-0.1,0.3-0.1s-0.1-0.1-0.3-0.1s-0.3,0.1-0.3,0.1C19.2,21.3,19.3,21.4,19.5,21.4z"/>
			<path fill="#143B61" d="M20.4,20.9c0.1,0,0.3-0.1,0.3-0.1s-0.1-0.1-0.3-0.1s-0.3,0.1-0.3,0.1C20.2,20.8,20.3,20.9,20.4,20.9z"/>
			<path fill="#143B61" d="M21.6,20.1c0.1,0,0.1,0.1,0,0.2c0,0-0.1,0-0.2,0c-0.1,0-0.1,0-0.2,0c-0.1,0-0.1-0.1,0-0.2
				c0,0,0.1,0,0.2,0C21.5,20,21.5,20,21.6,20.1z"/>
			<path fill="#143B61" d="M22.6,19.5C22.6,19.5,22.6,19.5,22.6,19.5c0.1,0.1,0.1,0.1,0.1,0.1c0,0,0,0,0,0.1c0,0,0,0,0,0
				c0,0-0.1,0-0.2,0c-0.1,0-0.1,0-0.2,0c0,0,0,0,0,0c0,0,0,0,0-0.1c0,0,0,0,0-0.1c0,0,0,0,0,0c0,0,0.1,0,0.2,0
				C22.4,19.4,22.5,19.5,22.6,19.5z"/>
			<path fill="#143B61" d="M5.8,27.8c0,0,0.1,0,0.2,0s0.1,0,0.2,0c0.1,0,0.1,0.1,0,0.2c0,0-0.1,0-0.2,0s-0.1,0-0.2,0
				C5.7,28,5.7,27.9,5.8,27.8z"/>
			<path fill="#143B61" d="M6.8,27.3c0,0,0.1,0,0.2,0s0.1,0,0.2,0c0,0,0,0,0,0c0,0,0,0,0,0.1c0,0,0,0,0,0.1c0,0,0,0,0,0
				c0,0-0.1,0-0.2,0s-0.1,0-0.2,0c0,0,0,0,0,0c0,0,0,0,0-0.1C6.7,27.4,6.7,27.4,6.8,27.3C6.7,27.3,6.7,27.3,6.8,27.3z"/>
			<path fill="#143B61" d="M8.1,26.7c0.1,0,0.1,0.1,0,0.2c0,0-0.1,0-0.2,0s-0.1,0-0.2,0C7.6,26.9,8,26.7,8.1,26.7z"/>
			<path fill="#143B61" d="M15.8,22.3C15.9,22.3,15.9,22.3,15.8,22.3c0.1,0.1,0.1,0.1,0.1,0.1s0,0,0,0.1c0,0,0,0,0,0
				c0,0-0.1,0-0.2,0s-0.1,0-0.2,0c-0.1,0-0.1-0.1,0-0.2c0,0,0.1,0,0.2,0S15.8,22.3,15.8,22.3z"/>
			<path fill="#143B61" d="M16.8,21.7C16.8,21.7,16.8,21.7,16.8,21.7c0.1,0.1,0.1,0.1,0.1,0.1c0,0,0,0,0,0.1c0,0,0,0,0,0
				c0,0-0.1,0-0.2,0c-0.1,0-0.1,0-0.2,0c0,0,0,0,0,0c0,0,0,0,0-0.1c0,0,0,0,0-0.1c0,0,0,0,0,0c0,0,0.1,0,0.2,0
				C16.7,21.7,16.7,21.7,16.8,21.7z"/>
			<path fill="#143B61" d="M17.7,21.2c0.1,0,0.1,0.1,0,0.2c0,0-0.1,0-0.2,0c-0.1,0-0.1,0-0.2,0c-0.1,0-0.1-0.1,0-0.2
				c0,0,0.1,0,0.2,0C17.6,21.1,17.7,21.1,17.7,21.2z"/>
			<path fill="#143B61" d="M18.7,20.6C18.7,20.6,18.8,20.6,18.7,20.6c0.1,0.1,0.1,0.1,0.1,0.1s0,0,0,0.1c0,0,0,0,0,0
				c0,0-0.1,0-0.2,0c-0.1,0-0.1,0-0.2,0c-0.1,0-0.1-0.1,0-0.2c0,0,0.1,0,0.2,0C18.6,20.6,18.7,20.6,18.7,20.6z"/>
			<path fill="#143B61" d="M19.5,20.3c0.1,0,0.3-0.1,0.3-0.1c0-0.1-0.1-0.1-0.3-0.1s-0.3,0.1-0.3,0.1C19.2,20.2,19.3,20.3,19.5,20.3
				z"/>
			<path fill="#143B61" d="M20.6,19.5c0.1,0,0.1,0.1,0,0.2c0,0-0.1,0-0.2,0s-0.1,0-0.2,0c-0.1,0-0.1-0.1,0-0.2c0,0,0.1,0,0.2,0
				C20.5,19.4,20.6,19.5,20.6,19.5z"/>
			<path fill="#143B61" d="M21.4,19.2c0.1,0,0.3-0.1,0.3-0.1s-0.1-0.1-0.3-0.1s-0.3,0.1-0.3,0.1C21.2,19.1,21.3,19.2,21.4,19.2z"/>
			<path fill="#143B61" d="M5.2,27.3C5.3,27.3,5.3,27.3,5.2,27.3c0.1,0.1,0.1,0.1,0.1,0.1c0,0,0,0,0,0.1c0,0,0,0,0,0
				c0,0-0.1,0-0.2,0s-0.1,0-0.2,0c0,0,0,0,0,0c0,0,0,0,0-0.1c0,0,0,0,0-0.1c0,0,0,0,0,0c0,0,0.1,0,0.2,0S5.2,27.3,5.2,27.3z"/>
			<path fill="#143B61" d="M14.9,21.7C14.9,21.7,14.9,21.7,14.9,21.7c0.1,0.1,0.1,0.1,0.1,0.1c0,0,0,0,0,0.1c0,0,0,0,0,0
				c0,0-0.1,0-0.2,0s-0.1,0-0.2,0c0,0,0,0,0,0c0,0,0,0,0,0c0,0,0,0,0-0.1c0,0,0,0,0,0c0,0,0.1,0,0.2,0S14.8,21.7,14.9,21.7z"/>
			<path fill="#143B61" d="M15.6,21.4c0.1,0,0.3-0.1,0.3-0.1s-0.1-0.1-0.3-0.1s-0.3,0.1-0.3,0.1C15.4,21.3,15.5,21.4,15.6,21.4z"/>
			<path fill="#143B61" d="M16.8,20.6c0.1,0,0.1,0.1,0,0.2c0,0-0.1,0-0.2,0c-0.1,0-0.1,0-0.2,0c0,0,0,0,0,0c0,0,0,0,0-0.1s0,0,0-0.1
				s0,0,0,0c0,0,0.1,0,0.2,0C16.7,20.6,16.7,20.6,16.8,20.6z"/>
			<path fill="#143B61" d="M17.7,20.1c0.1,0,0.1,0.1,0,0.2c0,0-0.1,0-0.2,0c-0.1,0-0.1,0-0.2,0c-0.1,0-0.1-0.1,0-0.2
				c0,0,0.1,0,0.2,0C17.6,20,17.7,20,17.7,20.1z"/>
			<path fill="#143B61" d="M18.7,19.5C18.7,19.5,18.8,19.5,18.7,19.5c0.1,0.1,0.1,0.1,0.1,0.1c0,0,0,0,0,0.1c0,0,0,0,0,0
				c0,0-0.1,0-0.2,0c-0.1,0-0.1,0-0.2,0c-0.1,0-0.1-0.1,0-0.2c0,0,0.1,0,0.2,0C18.6,19.5,18.7,19.5,18.7,19.5z"/>
			<path fill="#143B61" d="M19.5,19.2c0.1,0,0.3-0.1,0.3-0.1s-0.1-0.1-0.3-0.1s-0.3,0.1-0.3,0.1C19.2,19.1,19.3,19.2,19.5,19.2z"/>
			<path fill="#143B61" d="M20.6,18.4C20.7,18.4,20.7,18.4,20.6,18.4c0.1,0.1,0.1,0.1,0.1,0.1s0,0,0,0.1c0,0,0,0,0,0
				c0,0-0.1,0-0.2,0s-0.1,0-0.2,0c0,0,0,0,0,0c0,0,0,0,0-0.1s0,0,0-0.1c0,0,0,0,0,0c0,0,0.1,0,0.2,0C20.5,18.3,20.6,18.3,20.6,18.4z
				"/>
			<path fill="#143B61" d="M13.9,21.2c0.1,0,0.1,0.1,0,0.2c0,0-0.1,0-0.2,0s-0.1,0-0.2,0c0,0,0,0,0,0c0,0,0,0,0-0.1s0,0,0-0.1
				c0,0,0,0,0,0c0,0,0.1,0,0.2,0S13.8,21.1,13.9,21.2z"/>
			<path fill="#143B61" d="M14.9,20.6c0.1,0,0.1,0.1,0,0.2c0,0-0.1,0-0.2,0s-0.1,0-0.2,0c-0.1,0-0.1-0.1,0-0.2c0,0,0.1,0,0.2,0
				C14.7,20.6,14.8,20.6,14.9,20.6z"/>
			<path fill="#143B61" d="M15.8,20.1C15.9,20.1,15.9,20.1,15.8,20.1c0.1,0.1,0.1,0.1,0.1,0.1s0,0,0,0.1c0,0,0,0,0,0
				c0,0-0.1,0-0.2,0s-0.1,0-0.2,0c-0.1,0-0.1-0.1,0-0.2c0,0,0.1,0,0.2,0S15.8,20,15.8,20.1z"/>
			<path fill="#143B61" d="M16.8,19.5c0.1,0,0.1,0.1,0,0.2c0,0-0.1,0-0.2,0c-0.1,0-0.1,0-0.2,0c0,0,0,0,0,0c0,0,0,0,0-0.1s0,0,0-0.1
				c0,0,0,0,0,0c0,0,0.1,0,0.2,0C16.7,19.4,16.7,19.5,16.8,19.5z"/>
			<path fill="#143B61" d="M17.6,19.2c0.1,0,0.3-0.1,0.3-0.1s-0.1-0.1-0.3-0.1s-0.3,0.1-0.3,0.1C17.3,19.1,17.4,19.2,17.6,19.2z"/>
			<path fill="#143B61" d="M18.7,18.4C18.7,18.4,18.8,18.4,18.7,18.4c0.1,0.1,0.1,0.1,0.1,0.1s0,0,0,0.1c0,0,0,0,0,0
				c0,0-0.1,0-0.2,0c-0.1,0-0.1,0-0.2,0c0,0,0,0,0,0c0,0,0,0,0-0.1s0,0,0-0.1c0,0,0,0,0,0c0,0,0.1,0,0.2,0
				C18.6,18.3,18.7,18.3,18.7,18.4z"/>
			<path fill="#143B61" d="M19.5,18.1c0.1,0,0.3-0.1,0.3-0.1c0-0.1-0.1-0.1-0.3-0.1s-0.3,0.1-0.3,0.1C19.2,18,19.3,18.1,19.5,18.1z"
				/>
			<path fill="#143B61" d="M19.6,16.8C19.7,16.8,19.7,16.8,19.6,16.8c0.1,0.1,0.1,0.1,0.1,0.1c0,0,0,0,0,0.1c0,0,0,0,0,0
				c0,0-0.1,0-0.2,0c-0.1,0-0.1,0-0.2,0c0,0,0,0,0,0c0,0,0,0,0-0.1c0,0,0,0,0-0.1c0,0,0,0,0,0c0,0,0.1,0,0.2,0
				C19.5,16.8,19.6,16.8,19.6,16.8z"/>
			<path fill="#143B61" d="M20.6,16.2C20.6,16.2,20.6,16.3,20.6,16.2c0.1,0.1,0.1,0.1,0.1,0.1c0,0,0,0,0,0.1s0,0,0,0
				c0,0-0.1,0-0.2,0c-0.1,0-0.1,0-0.2,0c0,0,0,0,0,0s0,0,0-0.1c0,0,0,0,0-0.1c0,0,0,0,0,0c0,0,0.1,0,0.2,0
				C20.5,16.2,20.5,16.2,20.6,16.2z"/>
			<path fill="#143B61" d="M21.4,16c0.1,0,0.3-0.1,0.3-0.1c0-0.1-0.1-0.1-0.3-0.1s-0.3,0.1-0.3,0.1C21.1,15.9,21.3,16,21.4,16z"/>
			<path fill="#143B61" d="M22.2,15.1c0,0,0.1,0,0.2,0c0.1,0,0.1,0,0.2,0c0,0,0,0,0,0c0,0,0,0,0,0.1s0,0,0,0.1c0,0,0,0,0,0
				c-0.1,0-0.1,0-0.2,0s-0.1,0-0.2,0C22.1,15.3,22.1,15.2,22.2,15.1z"/>
			<path fill="#143B61" d="M18.3,16.2c0,0,0.1,0,0.2,0c0.1,0,0.1,0,0.2,0c0,0,0,0,0,0c0,0,0,0,0,0.1c0,0,0,0,0,0.1c0,0,0,0,0,0
				c0,0-0.1,0-0.2,0c-0.1,0-0.1,0-0.2,0C18.2,16.4,18.2,16.3,18.3,16.2z"/>
			<path fill="#143B61" d="M19.6,15.7C19.7,15.7,19.7,15.7,19.6,15.7c0.1,0.1,0.1,0.1,0.1,0.1c0,0,0,0,0,0.1c0,0,0,0,0,0
				c0,0-0.1,0-0.2,0c-0.1,0-0.1,0-0.2,0c0,0,0,0,0,0c0,0,0,0,0-0.1c0,0,0,0,0-0.1c0,0,0,0,0,0c0,0,0.1,0,0.2,0
				C19.5,15.7,19.6,15.7,19.6,15.7z"/>
			<path fill="#143B61" d="M20.6,15.1c0.1,0,0.1,0.1,0,0.2c0,0-0.1,0-0.2,0c-0.1,0-0.1,0-0.2,0c0,0,0,0,0,0c0,0,0,0,0-0.1
				c0,0,0,0,0-0.1c0,0,0,0,0,0c0,0,0.1,0,0.2,0C20.5,15.1,20.5,15.1,20.6,15.1z"/>
			<path fill="#143B61" d="M17.3,15.7c0,0,0.1,0,0.2,0c0.1,0,0.1,0,0.2,0c0,0,0,0,0,0c0,0,0,0,0,0.1c0,0,0,0,0,0.1c0,0,0,0,0,0
				c0,0-0.1,0-0.2,0c-0.1,0-0.1,0-0.2,0c0,0,0,0,0,0c0,0,0,0,0-0.1C17.3,15.8,17.3,15.8,17.3,15.7C17.3,15.7,17.3,15.7,17.3,15.7z"
				/>
			<path fill="#143B61" d="M18.7,15.1c0.1,0,0.1,0.1,0,0.2c-0.1,0-0.1,0-0.2,0c-0.1,0-0.1,0-0.2,0c-0.1,0-0.1-0.1,0-0.2
				c0,0,0.1,0,0.2,0C18.6,15.1,18.6,15.1,18.7,15.1z"/>
			<path fill="#143B61" d="M16.4,15.1c0,0,0.1,0,0.2,0c0.1,0,0.1,0,0.2,0c0.1,0,0.1,0.1,0,0.2c0,0-0.1,0-0.2,0c-0.1,0-0.1,0-0.2,0
				C16.3,15.3,16.3,15.2,16.4,15.1z"/>
			<path fill="#143B61" d="M27,21.2c0,0,0.1,0,0.2,0c0.1,0,0.1,0,0.2,0c0,0,0,0,0,0c0,0,0,0,0,0.1s0,0,0,0.1c0,0,0,0,0,0
				c0,0-0.1,0-0.2,0c-0.1,0-0.1,0-0.2,0C26.9,21.3,26.9,21.2,27,21.2z"/>
			<path fill="#143B61" d="M28.4,20.6C28.4,20.6,28.4,20.6,28.4,20.6c0.1,0.1,0.1,0.1,0.1,0.1s0,0,0,0.1c0,0,0,0,0,0
				c0,0-0.1,0-0.2,0c-0.1,0-0.1,0-0.2,0c0,0,0,0,0,0c0,0,0,0,0-0.1s0,0,0-0.1c0,0,0,0,0,0c0,0,0.1,0,0.2,0
				C28.2,20.6,28.3,20.6,28.4,20.6z"/>
			<path fill="#143B61" d="M29.3,20.1c0.1,0,0.1,0.1,0,0.2c0,0-0.1,0-0.2,0c-0.1,0-0.1,0-0.2,0c0,0,0,0,0,0c0,0,0,0,0-0.1s0,0,0-0.1
				c0,0,0,0,0,0c0,0,0.1,0,0.2,0C29.2,20,29.3,20,29.3,20.1z"/>
			<path fill="#143B61" d="M30.3,19.5c0.1,0,0.1,0.1,0,0.2c0,0-0.1,0-0.2,0c-0.1,0-0.1,0-0.2,0c-0.1,0-0.1-0.1,0-0.2
				c0,0,0.1,0,0.2,0C30.2,19.5,30.2,19.5,30.3,19.5z"/>
			<path fill="#143B61" d="M30.9,19.2c-0.1,0-0.1-0.1,0-0.2c0,0,0.1,0,0.2,0c0.1,0,0.1,0,0.2,0C31.3,19,31,19.2,30.9,19.2z"/>
			<path fill="#143B61" d="M26.1,20.6c0,0,0.1,0,0.2,0c0.1,0,0.1,0,0.2,0c0,0,0,0,0,0c0,0,0,0,0,0.1s0,0,0,0.1c0,0,0,0,0,0
				c0,0-0.1,0-0.2,0c-0.1,0-0.1,0-0.2,0C26,20.8,26,20.7,26.1,20.6z"/>
			<path fill="#143B61" d="M27.4,20.1c0.1,0,0.1,0.1,0,0.2c0,0-0.1,0-0.2,0c-0.1,0-0.1,0-0.2,0c-0.1,0-0.1-0.1,0-0.2
				c0,0,0.1,0,0.2,0C27.3,20,27.3,20,27.4,20.1z"/>
			<path fill="#143B61" d="M28.2,19.8c0.1,0,0.3-0.1,0.3-0.1c0-0.1-0.1-0.1-0.3-0.1s-0.3,0.1-0.3,0.1C27.9,19.7,28,19.8,28.2,19.8z"
				/>
			<path fill="#143B61" d="M29.1,19.2c0.1,0,0.3-0.1,0.3-0.1s-0.1-0.1-0.3-0.1s-0.3,0.1-0.3,0.1C28.9,19.1,29,19.2,29.1,19.2z"/>
			<path fill="#143B61" d="M30.3,18.4c0.1,0,0.1,0.1,0,0.2c0,0-0.1,0-0.2,0c-0.1,0-0.1,0-0.2,0c-0.1,0-0.1-0.1,0-0.2
				c0,0,0.1,0,0.2,0C30.2,18.3,30.2,18.4,30.3,18.4z"/>
			<path fill="#143B61" d="M25.1,20.1c0,0,0.1,0,0.2,0c0.1,0,0.1,0,0.2,0c0.1,0,0.1,0.1,0,0.2c0,0-0.1,0-0.2,0c-0.1,0-0.1,0-0.2,0
				C25,20.2,25,20.1,25.1,20.1z"/>
			<path fill="#143B61" d="M26.4,19.5c0.1,0,0.1,0.1,0,0.2c0,0-0.1,0-0.2,0c-0.1,0-0.1,0-0.2,0c-0.1,0-0.1-0.1,0-0.2
				c0,0,0.1,0,0.2,0C26.3,19.5,26.4,19.5,26.4,19.5z"/>
			<path fill="#143B61" d="M27.4,19c0.1,0,0.1,0.1,0,0.2c0,0-0.1,0-0.2,0c-0.1,0-0.1,0-0.2,0c-0.1,0-0.1-0.1,0-0.2c0,0,0.1,0,0.2,0
				C27.3,18.9,27.3,18.9,27.4,19z"/>
			<path fill="#143B61" d="M28.4,18.4C28.4,18.4,28.4,18.4,28.4,18.4c0.1,0.1,0.1,0.1,0.1,0.1s0,0,0,0.1c0,0,0,0,0,0
				c0,0-0.1,0-0.2,0c-0.1,0-0.1,0-0.2,0c0,0,0,0,0,0c0,0,0,0,0-0.1s0,0,0-0.1c0,0,0,0,0,0c0,0,0.1,0,0.2,0
				C28.2,18.3,28.3,18.4,28.4,18.4z"/>
			<path fill="#143B61" d="M29.3,17.8C29.3,17.8,29.4,17.9,29.3,17.8c0.1,0.1,0.1,0.1,0.1,0.1c0,0,0,0,0,0.1c0,0,0,0,0,0
				c0,0-0.1,0-0.2,0c-0.1,0-0.1,0-0.2,0c0,0,0,0,0,0c0,0,0,0,0-0.1c0,0,0,0,0-0.1c0,0,0,0,0,0c0,0,0.1,0,0.2,0
				C29.2,17.8,29.3,17.8,29.3,17.8z"/>
			<path fill="#143B61" d="M24.1,19.5c0,0,0.1,0,0.2,0c0.1,0,0.1,0,0.2,0c0.1,0,0.1,0.1,0,0.2c0,0-0.1,0-0.2,0c-0.1,0-0.1,0-0.2,0
				c0,0,0,0,0,0C24.1,19.7,24.1,19.6,24.1,19.5C24.1,19.6,24.1,19.6,24.1,19.5C24.1,19.5,24.1,19.5,24.1,19.5z"/>
			<path fill="#143B61" d="M25.5,19C25.5,19,25.5,19,25.5,19c0.1,0.1,0.1,0.1,0.1,0.1c0,0,0,0,0,0.1c0,0,0,0,0,0c0,0-0.1,0-0.2,0
				c-0.1,0-0.1,0-0.2,0c0,0,0,0,0,0c0,0,0,0,0-0.1c0,0,0,0,0-0.1c0,0,0,0,0,0c0,0,0.1,0,0.2,0C25.4,18.9,25.4,18.9,25.5,19z"/>
			<path fill="#143B61" d="M26.4,18.4c0.1,0,0.1,0.1,0,0.2c0,0-0.1,0-0.2,0c-0.1,0-0.1,0-0.2,0c-0.1,0-0.1-0.1,0-0.2
				c0,0,0.1,0,0.2,0C26.3,18.3,26.4,18.4,26.4,18.4z"/>
			<path fill="#143B61" d="M27.2,18.1c0.1,0,0.3-0.1,0.3-0.1c0-0.1-0.1-0.1-0.3-0.1s-0.3,0.1-0.3,0.1S27.1,18.1,27.2,18.1z"/>
			<path fill="#143B61" d="M28.2,17.5c0.1,0,0.3-0.1,0.3-0.1c0-0.1-0.1-0.1-0.3-0.1s-0.3,0.1-0.3,0.1C27.9,17.5,28,17.5,28.2,17.5z"
				/>
			<path fill="#143B61" d="M23.2,19c0,0,0.1,0,0.2,0c0.1,0,0.1,0,0.2,0c0.1,0,0.1,0.1,0,0.2c0,0-0.1,0-0.2,0c-0.1,0-0.1,0-0.2,0
				C23.1,19.1,23.1,19,23.2,19z"/>
			<path fill="#143B61" d="M24.5,18.4C24.5,18.4,24.5,18.4,24.5,18.4c0.1,0.1,0.1,0.1,0.1,0.1c0,0,0,0,0,0.1c0,0,0,0,0,0
				c0,0-0.1,0-0.2,0c-0.1,0-0.1,0-0.2,0c0,0,0,0,0,0c0,0,0,0,0-0.1c0,0,0,0,0-0.1c0,0,0,0,0,0c0,0,0.1,0,0.2,0
				C24.4,18.3,24.5,18.3,24.5,18.4z"/>
			<path fill="#143B61" d="M25.3,18.1c0.1,0,0.3-0.1,0.3-0.1c0-0.1-0.1-0.1-0.3-0.1S25,17.9,25,17.9C25,18,25.1,18.1,25.3,18.1z"/>
			<path fill="#143B61" d="M26.4,17.3c0.1,0,0.1,0.1,0,0.2c0,0-0.1,0-0.2,0c-0.1,0-0.1,0-0.2,0c-0.1,0-0.1-0.1,0-0.2
				c0,0,0.1,0,0.2,0C26.3,17.2,26.4,17.2,26.4,17.3z"/>
			<path fill="#143B61" d="M27.2,17c0.1,0,0.3-0.1,0.3-0.1s-0.1-0.1-0.3-0.1s-0.3,0.1-0.3,0.1C26.9,16.9,27.1,17,27.2,17z"/>
			<path fill="#143B61" d="M22.2,18.4c0,0,0.1,0,0.2,0c0.1,0,0.1,0,0.2,0c0,0,0,0,0,0c0,0,0,0,0,0.1c0,0,0,0,0,0.1c0,0,0,0,0,0
				c0,0-0.1,0-0.2,0c-0.1,0-0.1,0-0.2,0c0,0,0,0,0,0c0,0,0,0,0-0.1C22.1,18.5,22.1,18.5,22.2,18.4C22.2,18.4,22.2,18.4,22.2,18.4z"
				/>
			<path fill="#143B61" d="M23.5,17.8c0.1,0,0.1,0.1,0,0.2c0,0-0.1,0-0.2,0c-0.1,0-0.1,0-0.2,0c-0.1,0-0.1-0.1,0-0.2
				c0,0,0.1,0,0.2,0C23.4,17.8,23.5,17.8,23.5,17.8z"/>
			<path fill="#143B61" d="M24.5,17.3C24.5,17.3,24.5,17.3,24.5,17.3c0.1,0.1,0.1,0.1,0.1,0.1c0,0,0,0,0,0.1c0,0,0,0,0,0
				c0,0-0.1,0-0.2,0c-0.1,0-0.1,0-0.2,0c0,0,0,0,0,0c0,0,0,0,0-0.1s0,0,0-0.1c0,0,0,0,0,0c0,0,0.1,0,0.2,0
				C24.4,17.2,24.5,17.2,24.5,17.3z"/>
			<path fill="#143B61" d="M25.5,16.7c0.1,0,0.1,0.1,0,0.2c0,0-0.1,0-0.2,0c-0.1,0-0.1,0-0.2,0c-0.1,0-0.1-0.1,0-0.2
				c0,0,0.1,0,0.2,0C25.3,16.7,25.4,16.7,25.5,16.7z"/>
			<path fill="#143B61" d="M26.4,16.1C26.5,16.1,26.5,16.2,26.4,16.1c0.1,0.1,0.1,0.1,0.1,0.1c0,0,0,0,0,0.1c0,0,0,0,0,0
				c0,0-0.1,0-0.2,0c-0.1,0-0.1,0-0.2,0c0,0,0,0,0,0c0,0,0,0,0-0.1c0,0,0,0,0-0.1c0,0,0,0,0,0c0,0,0.1,0,0.2,0
				C26.3,16.1,26.4,16.1,26.4,16.1z"/>
			<path fill="#143B61" d="M27.4,15.6C27.4,15.6,27.4,15.6,27.4,15.6c0.1,0.1,0.1,0.1,0.1,0.1c0,0,0,0,0,0.1c0,0,0,0,0,0
				c0,0-0.1,0-0.2,0c-0.1,0-0.1,0-0.2,0c0,0,0,0,0,0c0,0,0,0,0-0.1c0,0,0,0,0-0.1c0,0,0,0,0,0c0,0,0.1,0,0.2,0
				C27.3,15.6,27.3,15.6,27.4,15.6z"/>
			<path fill="#143B61" d="M21.2,17.8c0,0,0.1,0,0.2,0c0.1,0,0.1,0,0.2,0c0.1,0,0.1,0.1,0,0.2c-0.1,0-0.1,0-0.2,0c0,0-0.1,0-0.2,0
				C21.1,18,21.1,17.9,21.2,17.8z"/>
			<path fill="#143B61" d="M22.6,17.3c0.1,0,0.1,0.1,0,0.2c0,0-0.1,0-0.2,0c-0.1,0-0.1,0-0.2,0c-0.1,0-0.1-0.1,0-0.2
				c0,0,0.1,0,0.2,0C22.4,17.2,22.5,17.2,22.6,17.3z"/>
			<path fill="#143B61" d="M23.5,16.7c0.1,0,0.1,0.1,0,0.2c0,0-0.1,0-0.2,0c-0.1,0-0.1,0-0.2,0c-0.1,0-0.1-0.1,0-0.2
				c0,0,0.1,0,0.2,0C23.4,16.7,23.5,16.7,23.5,16.7z"/>
			<path fill="#143B61" d="M24.3,16.4c0.1,0,0.3-0.1,0.3-0.1s-0.1-0.1-0.3-0.1S24,16.2,24,16.3C24.1,16.3,24.2,16.4,24.3,16.4z"/>
			<path fill="#143B61" d="M25.5,15.6C25.5,15.6,25.5,15.6,25.5,15.6c0.1,0.1,0.1,0.1,0.1,0.1c0,0,0,0,0,0.1c0,0,0,0,0,0
				c0,0-0.1,0-0.2,0c-0.1,0-0.1,0-0.2,0c0,0,0,0,0,0c0,0,0,0,0-0.1c0,0,0,0,0-0.1c0,0,0,0,0,0c0,0,0.1,0,0.2,0
				C25.3,15.6,25.4,15.6,25.5,15.6z"/>
			<path fill="#143B61" d="M26.4,15c0.1,0,0.1,0.1,0,0.2c0,0-0.1,0-0.2,0c-0.1,0-0.1,0-0.2,0c-0.1,0-0.1-0.1,0-0.2c0,0,0.1,0,0.2,0
				C26.3,15,26.4,15,26.4,15C26.3,15,26.5,15.1,26.4,15z"/>
			<path fill="#143B61" d="M20.3,17.3c0,0,0.1,0,0.2,0c0.1,0,0.1,0,0.2,0c0.1,0,0.1,0.1,0,0.2c0,0-0.1,0-0.2,0c-0.1,0-0.1,0-0.2,0
				c0,0,0,0,0,0C20.2,17.4,20.2,17.4,20.3,17.3C20.2,17.3,20.2,17.3,20.3,17.3C20.2,17.3,20.3,17.3,20.3,17.3z"/>
			<path fill="#143B61" d="M21.4,17c0.1,0,0.3-0.1,0.3-0.1s-0.1-0.1-0.3-0.1s-0.3,0.1-0.3,0.1C21.2,16.9,21.3,17,21.4,17z"/>
			<path fill="#143B61" d="M22.4,16.4c0.1,0,0.3-0.1,0.3-0.1s-0.1-0.1-0.3-0.1s-0.3,0.1-0.3,0.1C22.1,16.3,22.2,16.4,22.4,16.4z"/>
			<path fill="#143B61" d="M23.5,15.6C23.5,15.6,23.6,15.6,23.5,15.6c0.1,0.1,0.1,0.1,0.1,0.1c0,0,0,0,0,0.1c0,0,0,0,0,0
				c0,0-0.1,0-0.2,0c-0.1,0-0.1,0-0.2,0c0,0,0,0,0,0c0,0,0,0,0-0.1c0,0,0,0,0-0.1c0,0,0,0,0,0c0,0,0.1,0,0.2,0
				C23.4,15.6,23.5,15.6,23.5,15.6z"/>
			<path fill="#143B61" d="M24.3,15.3c0.1,0,0.3-0.1,0.3-0.1S24.5,15,24.3,15S24,15.1,24,15.1C24.1,15.2,24.2,15.3,24.3,15.3z"/>
			<path fill="#FFFFFF" d="M27.3,15.1c0.6-0.6,0.6-1.2,0-1.7c0.6-0.6,0.6-1.4-0.2-1.8l-16-9.2c-1-0.6-2.6-0.5-3.8,0.1L1.8,5.7
				c-1,0.6-1.2,1.5-0.5,2C0.8,8.3,0.8,9,1.4,9.4c-0.7,0.6-0.6,1.4,0.2,1.9l16,9.2c1,0.6,2.7,0.5,3.8-0.1l5.5-3.2
				C27.9,16.6,28,15.7,27.3,15.1z"/>
			<path fill="#143B61" d="M27.3,15.1c0.6-0.6,0.6-1.2,0-1.7c0.6-0.6,0.6-1.4-0.2-1.8l-0.6-0.3l-7.4,4.4v5.2c0.8,0,1.5-0.2,2.1-0.5
				l5.5-3.2C27.9,16.5,28,15.7,27.3,15.1z"/>
			<path fill="#FFFFFF" d="M26.7,17l-5.5,3.2c-0.6,0.3-1.3,0.5-2.1,0.5v0.3c0.8,0,1.5-0.2,2.2-0.6l5.5-3.2c0.6-0.4,1-0.9,1-1.4
				c0-0.1,0-0.3-0.1-0.5c-0.1-0.1-0.2-0.3-0.3-0.4c0.2-0.2,0.4-0.6,0.4-0.9c0-0.1,0-0.3-0.1-0.4c-0.1-0.1-0.1-0.3-0.3-0.4
				c0.2-0.2,0.3-0.5,0.4-0.9c0-0.2,0-0.4-0.1-0.5c-0.1-0.2-0.2-0.3-0.4-0.4c-0.1,0.1-0.2,0.2-0.3,0.2c0.1,0.1,0.2,0.2,0.3,0.3
				s0.1,0.3,0.1,0.4c0,0.4-0.3,0.8-0.8,1.1l-5.5,3.2c-0.6,0.3-1.3,0.5-2.1,0.5v0.3c0.8,0,1.5-0.2,2.2-0.5l5.5-3.2
				c0.1-0.1,0.3-0.2,0.4-0.3c0.1,0.1,0.1,0.1,0.2,0.2c0,0.1,0.1,0.2,0.1,0.3c0,0.4-0.3,0.8-0.8,1.1l-5.5,3.2
				c-0.6,0.3-1.3,0.5-2.1,0.5v0.3c0.8,0,1.5-0.2,2.2-0.6l5.5-3.2c0.1-0.1,0.2-0.2,0.4-0.2c0.1,0.1,0.2,0.2,0.2,0.3
				c0,0.1,0.1,0.2,0.1,0.3C27.6,16.3,27.3,16.7,26.7,17z"/>
			<path fill="#143B61" d="M19.2,20.7c-0.5,0-1.1-0.1-1.6-0.3l-16-9.2c-0.4-0.2-0.6-0.5-0.6-0.8c0-0.2,0.1-0.5,0.3-0.7
				c0,0,0,0,0.1,0l16,9.2c0.5,0.3,1.1,0.4,1.7,0.4V19c-0.5,0-1.1-0.1-1.6-0.3l-16-9.2C1.3,9.2,1.1,8.9,1.1,8.6
				c0-0.2,0.1-0.5,0.3-0.6c0,0,0.1,0,0.1,0.1l16,9.2c0.5,0.3,1.1,0.4,1.7,0.4v-0.3c-0.5,0-1.1-0.1-1.6-0.3l-16-9.3
				C1.3,7.5,1.1,7.3,1.1,6.9c0-0.1,0-0.3,0.1-0.4c0.1-0.1,0.2-0.3,0.3-0.3C1.4,6.1,1.3,6,1.2,5.9C1.1,6.1,1,6.2,0.9,6.4
				C0.8,6.6,0.7,6.7,0.7,6.9c0,0.1,0,0.3,0.1,0.4C0.9,7.5,1,7.6,1.1,7.7C0.9,8,0.8,8.3,0.7,8.6c0,0.1,0,0.3,0.1,0.5
				C0.9,9.2,1,9.4,1.1,9.5C0.9,9.7,0.8,10,0.7,10.3c0,0.4,0.3,0.8,0.7,1.1l16,9.2c0.5,0.3,1.1,0.4,1.7,0.4V20.7z"/>
			<path fill="#FFFFFF" d="M17.5,15.3l-16-9.2c-1-0.6-0.9-1.5,0.3-2.2l5.5-3.2c1.1-0.6,2.8-0.7,3.8-0.1l16,9.2
				c1,0.6,0.9,1.5-0.3,2.2l-5.5,3.2C20.2,15.8,18.5,15.9,17.5,15.3z"/>
			<path fill="#E6F1F7" d="M27,10.5L11,1.2c-1-0.6-2.7-0.5-3.8,0.1L1.7,4.6C1.4,4.8,1.1,5.1,0.9,5.4C1,5.7,1.2,5.9,1.5,6.1l16,9.2
				c1,0.6,2.7,0.5,3.8-0.1l5.5-3.2c0.3-0.2,0.6-0.5,0.8-0.8C27.5,10.8,27.3,10.6,27,10.5z"/>
			<path fill="#143B61" d="M19.2,15.9c-0.6,0-1.2-0.1-1.7-0.4l-16-9.2C1,6,0.7,5.6,0.7,5.1c0-0.5,0.4-1,1-1.4l5.5-3.2
				c1.2-0.7,2.9-0.7,4-0.1l16,9.2c0.5,0.3,0.7,0.7,0.7,1.1c0,0.5-0.4,1-1,1.4l-5.5,3.2C20.7,15.7,20,15.9,19.2,15.9z M17.6,15.2
				c0.9,0.5,2.5,0.5,3.6-0.1l5.5-3.2c0.5-0.3,0.8-0.7,0.8-1.1c0-0.3-0.2-0.6-0.6-0.8L11,0.7c-0.9-0.5-2.5-0.5-3.6,0.1L1.9,4
				C1.4,4.3,1.1,4.7,1.1,5.1c0,0.3,0.2,0.6,0.6,0.8L17.6,15.2z"/>
			<path fill="#FFFFFF" d="M23.8,11.4c-0.8-0.5-0.8-1.2,0-1.7c0.1,0,0.2-0.1,0.3-0.1L11.5,2.2c-0.1,0-0.1,0.1-0.2,0.1
				c-0.5,0.2-1,0.4-1.5,0.4s-1-0.1-1.5-0.4C8.2,2.3,8.1,2.2,8,2.1L4.3,4.2c0.2,0,0.3,0.1,0.5,0.2c0.8,0.5,0.8,1.2,0,1.7
				c-0.1,0-0.1,0.1-0.2,0.1l12.5,7.2c0,0,0.1-0.1,0.2-0.1c0.5-0.2,1-0.4,1.5-0.4s1,0.1,1.5,0.4c0.1,0.1,0.2,0.2,0.3,0.3l3.6-2.1
				C24.1,11.5,23.9,11.4,23.8,11.4z"/>
			<path fill="#143B61" d="M20.5,13.9L20.5,13.9c-0.2-0.2-0.3-0.3-0.4-0.3c-0.4-0.2-0.9-0.3-1.4-0.3c-0.5,0-1,0.1-1.4,0.3
				c0,0-0.1,0.1-0.1,0.1l-0.1,0.1L17,13.7L4.2,6.3l0.3-0.1C4.5,6.1,4.6,6,4.7,6C5,5.8,5.2,5.5,5.2,5.3c0-0.2-0.2-0.5-0.5-0.7
				C4.5,4.5,4.4,4.4,4.2,4.4L3.9,4.3L8,1.9L8.1,2c0.1,0.1,0.2,0.2,0.3,0.2c0.4,0.2,0.9,0.3,1.4,0.3c0.5,0,1-0.1,1.4-0.3
				c0.1,0,0.1-0.1,0.2-0.1l0.1,0l12.9,7.5l-0.3,0.1c-0.1,0-0.2,0.1-0.2,0.1c-0.3,0.2-0.5,0.5-0.5,0.7c0,0.3,0.2,0.5,0.5,0.7
				c0.1,0.1,0.3,0.1,0.5,0.2l0.4,0.1L20.5,13.9z M18.7,12.9c0.6,0,1.1,0.1,1.6,0.4c0.1,0.1,0.2,0.1,0.3,0.2l3.2-1.9
				c-0.1,0-0.1,0-0.2-0.1c-0.5-0.2-0.7-0.6-0.7-1s0.2-0.7,0.7-1l-12.1-7c0,0-0.1,0.1-0.1,0.1c-0.5,0.2-1,0.4-1.6,0.4
				c-0.5,0-1.1-0.1-1.6-0.4C8.1,2.5,8,2.4,7.9,2.3L4.7,4.2c0,0,0.1,0,0.2,0.1c0.5,0.3,0.7,0.6,0.7,1c0,0.4-0.2,0.7-0.7,1l12.1,7
				c0,0,0.1,0,0.1-0.1C17.6,13,18.2,12.8,18.7,12.9L18.7,12.9z"/>
			<path fill="#FFFFFF" d="M16.7,9.1c-1.3,0.8-3.5,0.8-4.8,0c-1.3-0.8-1.3-2,0-2.8c1.3-0.8,3.5-0.8,4.8,0
				C18.1,7.1,18.1,8.3,16.7,9.1z"/>
			<path fill="#E6F1F7" d="M16.7,9.7c-1.3,0.8-3.5,0.8-4.8,0s-1.3-2,0-2.8s3.5-0.8,4.8,0C18.1,7.7,18.1,8.9,16.7,9.7z"/>
			<path fill="#143B61" d="M14.3,9.8c-0.9,0-1.7-0.2-2.5-0.6c-0.7-0.4-1.1-1-1.1-1.5s0.4-1.1,1.1-1.5c1.4-0.8,3.6-0.8,5,0
				c0.7,0.4,1.1,1,1.1,1.5s-0.4,1.1-1.1,1.5C16,9.6,15.2,9.8,14.3,9.8z M14.3,5.9c-0.8,0-1.6,0.2-2.3,0.6c-0.6,0.3-0.9,0.8-0.9,1.2
				c0,0.5,0.3,0.9,0.9,1.2c1.3,0.7,3.4,0.7,4.6,0c0.6-0.3,0.9-0.8,0.9-1.2c0-0.5-0.3-0.9-0.9-1.2C15.9,6.1,15.1,5.9,14.3,5.9
				L14.3,5.9z"/>
			<path fill="#FFFFFF" d="M14.4,24c-0.9-1.6-3.4-2.8-6.4-2.8S2.5,22.4,1.6,24H1.2v1.4c0,2.3,3.1,4.2,6.8,4.2c3.8,0,6.8-1.9,6.8-4.2
				V24C14.8,24,14.4,24,14.4,24z"/>
			<path fill="#143B61" d="M8,29.8c-3.8,0-6.9-1.9-6.9-4.3v-1.5h0.5c1-1.7,3.6-2.8,6.4-2.8s5.4,1.1,6.4,2.8h0.5v1.5
				C14.9,27.8,11.8,29.8,8,29.8z M1.3,24.1v1.3c0,2.2,3,4.1,6.7,4.1s6.7-1.8,6.7-4.1v-1.3h-0.3l0,0c-1-1.6-3.5-2.7-6.3-2.7
				c-2.8,0-5.3,1.1-6.3,2.7l0,0C1.7,24.1,1.3,24.1,1.3,24.1z"/>
			<path fill="#FFFFFF" d="M8,28.2c3.8,0,6.8-1.9,6.8-4.2s-3-4.2-6.8-4.2S1.2,21.7,1.2,24S4.2,28.2,8,28.2z"/>
			<path fill="#E6F1F7" d="M8,28.6c3.8,0,6.8-1.9,6.8-4.2s-3.1-4.2-6.8-4.2c-3.8,0-6.8,1.9-6.8,4.2C1.2,26.7,4.2,28.6,8,28.6z"/>
			<path fill="#143B61" d="M8,28.3c-3.8,0-6.9-1.9-6.9-4.3s3.1-4.3,6.9-4.3s6.9,1.9,6.9,4.3S11.8,28.3,8,28.3z M8,19.9
				c-3.7,0-6.7,1.8-6.7,4.1s3,4.1,6.7,4.1s6.7-1.8,6.7-4.1S11.7,19.9,8,19.9z"/>
			<path fill="#FFFFFF" d="M13.4,23.8C13.4,25.6,11,27,8,27c-3,0-5.4-1.4-5.4-3.2c0-1.7,2.4-3.2,5.4-3.2
				C11,20.7,13.4,22.1,13.4,23.8z"/>
			<path fill="#143B61" d="M8,27.1c-3.1,0-5.5-1.5-5.5-3.3s2.5-3.3,5.5-3.3s5.5,1.5,5.5,3.3C13.5,25.6,11,27.1,8,27.1z M8,20.8
				c-2.9,0-5.3,1.4-5.3,3.1S5,26.9,8,26.9s5.3-1.4,5.3-3.1S10.9,20.8,8,20.8z"/>
			<path fill="#FFFFFF" d="M8,20.7c-3,0-5.4,1.4-5.4,3.2c0,0.1,0,0.3,0.1,0.5C3,22.7,5.3,21.6,8,21.6s5,1.2,5.4,2.7
				c0-0.1,0-0.3,0.1-0.5C13.4,22.1,11,20.7,8,20.7z"/>
			<path fill="#143B61" d="M13.3,24.5l0-0.2c-0.4-1.5-2.6-2.6-5.3-2.6s-4.9,1.1-5.3,2.6l-0.1,0.2l-0.1-0.2c0-0.2-0.1-0.3-0.1-0.5
				c0-1.8,2.5-3.3,5.5-3.3s5.5,1.5,5.5,3.3c0,0.2,0,0.3-0.1,0.5L13.3,24.5z M8,20.8c-2.9,0-5.3,1.4-5.3,3.1v0
				c0.7-1.4,2.8-2.4,5.3-2.4s4.7,1,5.3,2.4v0C13.3,22.2,10.9,20.8,8,20.8z"/>
			<path fill="#E6F1F7" d="M7.1,20.7v0.9l-1.5,0.3l-1.5,0.6l-1.1,1l-0.4,0.8l-0.1-0.8l0.5-1l0.8-0.8l1.3-0.7l1.7-0.4L7.1,20.7
				L7.1,20.7z"/>
			<path fill="#FFFFFF" d="M10.9,25.4c0.2-0.2,0.3-0.4,0.3-0.6v-0.6L10.8,24c-0.1-0.1-0.2-0.1-0.3-0.2c-0.4-0.2-0.8-0.3-1.2-0.3
				c-0.6,0-1.2,0.1-1.7,0.3L6.1,23c0.3-0.1,0.7,0,1,0.1l0.8-0.6V22l-1,0.3c-0.1,0-0.2,0-0.3,0c-0.4,0-0.9,0.1-1.2,0.3l-0.2-0.1
				l0.1,0v-0.3l-0.7,0v0.9l0.2-0.2l0.1,0.1c-0.1,0.1-0.2,0.2-0.3,0.2l-0.2-0.1v0.6c0,0.3,0.2,0.5,0.6,0.8c0.4,0.2,0.8,0.3,1.3,0.3
				c0.5,0,1.1-0.1,1.6-0.3l1.5,0.8c-0.2,0-0.4,0-0.6,0c-0.1,0-0.3,0-0.5-0.1l0-0.1l-1.1,0.1v0.6c0.5,0.2,1,0.3,1.6,0.3
				c0.5,0,1-0.1,1.4-0.3l0.6,0.4l0.5-0.3v-0.6L10.9,25.4z M6.3,24.1c-0.2,0-0.3,0-0.5-0.1c0,0-0.1-0.1-0.1-0.1c0,0-0.1-0.1-0.1-0.2
				c0,0,0-0.1,0-0.2c0,0,0-0.1,0.1-0.1l1.2,0.7C6.7,24.1,6.5,24.1,6.3,24.1z M9.9,25.2l-1.4-0.8c0.2-0.1,0.5-0.1,0.7-0.1
				c0.2,0,0.4,0,0.5,0.1c0.1,0,0.1,0.1,0.2,0.1c0,0.1,0.1,0.1,0.1,0.2c0,0.1,0,0.1,0,0.2C10,25.1,10,25.1,9.9,25.2z"/>
			<path fill="#143B61" d="M10.8,26.4L10.2,26c-0.4,0.2-0.9,0.3-1.4,0.3c-0.5,0-1.1-0.1-1.6-0.3l-0.1,0v-0.7l1.3-0.1l0,0.2
				c0.1,0,0.2,0,0.3,0c0.1,0,0.2,0,0.3,0l-1.1-0.6C7.4,24.9,6.8,25,6.3,25c-0.5,0-0.9-0.1-1.3-0.4c-0.4-0.2-0.6-0.5-0.7-0.8v-0.7
				l0.1-0.1v-1l1,0v0.4c0.4-0.2,0.8-0.3,1.2-0.3c0.1,0,0.2,0,0.3,0L8,21.9v0.8l-0.9,0.7l0,0c-0.2-0.1-0.4-0.1-0.6-0.1l1.1,0.6
				c0.5-0.2,1.1-0.3,1.7-0.3c0.4,0,0.9,0.1,1.3,0.4c0.1,0,0.2,0.1,0.3,0.2l0.5,0.2v0.7l0,0.1c0,0.1-0.1,0.2-0.2,0.3l0.3,0v0.7
				L10.8,26.4z M10.2,25.8l0.6,0.4l0.4-0.2v-0.4l-0.6,0l0.2-0.2c0.2-0.1,0.3-0.3,0.3-0.6v-0.1v-0.4l-0.4-0.1
				c-0.1-0.1-0.2-0.1-0.3-0.2c-0.4-0.2-0.8-0.3-1.2-0.3c-0.6,0-1.1,0.1-1.7,0.3l0,0l-1.7-1L6.1,23c0.3-0.1,0.7-0.1,1,0l0.7-0.5v-0.3
				l-0.7,0.2l0,0H6.9c-0.1,0-0.2,0-0.3,0c-0.4,0-0.8,0.1-1.2,0.3l0,0L5,22.5l0.1-0.1v-0.1l-0.5,0.1l0,0.5l0.1-0.1l0.3,0.2L4.9,23
				c-0.1,0.1-0.2,0.1-0.3,0.2l0,0.1l-0.1,0v0.5c0,0.2,0.2,0.5,0.6,0.7c0.4,0.2,0.8,0.3,1.2,0.3c0.5,0,1.1-0.1,1.6-0.2l0,0l1.8,1
				l-0.3,0.1c-0.2,0-0.4,0-0.7,0c-0.1,0-0.3,0-0.5-0.1l-0.1,0l0-0.1l-0.8,0.1v0.4c0.5,0.2,1,0.3,1.4,0.3C9.3,26.1,9.7,26,10.2,25.8
				L10.2,25.8z M9.9,25.3l-1.7-0.9l0.2-0.1c0.2-0.1,0.5-0.1,0.8-0.1c0.2,0,0.4,0.1,0.6,0.2c0.1,0,0.2,0.1,0.2,0.2
				c0,0.1,0.1,0.2,0.1,0.3c0,0.1,0,0.2,0,0.3C10.1,25.2,10,25.3,9.9,25.3L9.9,25.3z M8.8,24.4L9.9,25c0,0,0-0.1,0.1-0.1
				c0,0,0-0.1,0-0.1c0-0.1,0-0.1-0.1-0.2c0,0-0.1-0.1-0.1-0.1c-0.1-0.1-0.3-0.1-0.5-0.1C9.1,24.4,8.9,24.4,8.8,24.4z M6.4,24.2H6.3
				c-0.2,0-0.3,0-0.5-0.1c-0.1,0-0.1-0.1-0.2-0.1c0,0-0.1-0.1-0.1-0.2c0-0.1,0-0.1,0-0.2c0-0.1,0-0.1,0.1-0.2l0-0.1l1.5,0.9
				l-0.3,0.1C6.7,24.2,6.6,24.2,6.4,24.2L6.4,24.2z M6.3,24c0.1,0,0.2,0,0.3,0l-0.9-0.5c0,0,0,0,0,0.1c0,0,0,0,0,0.1
				c0,0,0,0.1,0.1,0.1c0,0,0.1,0.1,0.1,0.1C6,24,6.1,24,6.3,24L6.3,24z"/>
			<path fill="#FFFFFF" d="M9.4,24.9L7.9,24c-0.5,0.2-1.1,0.3-1.6,0.3c-0.4,0-0.9-0.1-1.3-0.3c-0.4-0.2-0.6-0.5-0.6-0.8
				c0-0.3,0.1-0.6,0.5-0.8l-0.3-0.2l0.5-0.3l0.3,0.2c0.4-0.2,0.8-0.3,1.2-0.3c0.4,0,0.9,0.1,1.3,0.2l-0.8,0.6
				c-0.3-0.1-0.7-0.1-1-0.1l1.4,0.8c0.6-0.2,1.1-0.3,1.7-0.3c0.4,0,0.9,0.1,1.2,0.3c0.4,0.2,0.7,0.5,0.7,0.8c0,0.3-0.1,0.6-0.5,0.9
				l0.7,0.4l-0.5,0.3l-0.6-0.4c-0.4,0.2-0.9,0.3-1.4,0.3c-0.5,0-1.1-0.1-1.6-0.3l0.8-0.6c0.2,0.1,0.4,0.1,0.7,0.1
				C8.9,24.9,9.1,24.9,9.4,24.9z M5.6,22.8c0,0-0.1,0.1-0.1,0.1c0,0,0,0.1,0,0.2c0,0.1,0,0.1,0.1,0.2c0,0,0.1,0.1,0.1,0.1
				c0.1,0.1,0.3,0.1,0.5,0.1c0.2,0,0.4,0,0.6,0L5.6,22.8z M9.9,24.6c0.1,0,0.1-0.1,0.1-0.2c0-0.1,0-0.1,0-0.2c0-0.1,0-0.1-0.1-0.2
				c0-0.1-0.1-0.1-0.2-0.1c-0.2-0.1-0.4-0.1-0.5-0.1c-0.2,0-0.5,0-0.7,0.1L9.9,24.6z"/>
			<path fill="#E6F1F7" d="M9.3,25.1l-1.5-0.8c-0.5,0.2-1.1,0.3-1.6,0.3c-0.4,0-0.9-0.1-1.3-0.3c-0.1-0.1-0.3-0.2-0.4-0.3
				c-0.1-0.1-0.1-0.3-0.2-0.4c0-0.2,0-0.3,0.1-0.5c0.1-0.1,0.2-0.3,0.3-0.4l-0.2-0.2L5,22.2l0.3,0.2c0.4-0.2,0.8-0.3,1.3-0.3
				c0.4,0,0.8,0.1,1.2,0.3l-0.7,0.5c-0.3-0.1-0.7-0.1-1-0.1l1.4,0.8c0.6-0.2,1.1-0.3,1.7-0.3c0.4,0,0.9,0.1,1.2,0.3
				c0.4,0.2,0.7,0.5,0.7,0.8c0,0.3-0.1,0.6-0.5,0.9l0.6,0.4L10.8,26l-0.6-0.4c-0.4,0.2-0.9,0.3-1.4,0.3c-0.5,0-1-0.1-1.4-0.3L8,25
				c0.2,0.1,0.4,0.1,0.7,0.1C8.9,25.2,9.1,25.2,9.3,25.1z M5.6,23.1c0,0-0.1,0.1-0.1,0.1c0,0,0,0.1,0,0.2c0,0.1,0,0.1,0.1,0.2
				c0,0,0.1,0.1,0.1,0.1c0.1,0.1,0.3,0.1,0.5,0.1c0.2,0,0.4,0,0.6,0L5.6,23.1z M9.9,24.9c0.1,0,0.1-0.1,0.1-0.2c0-0.1,0-0.1,0-0.2
				c0-0.1,0-0.1-0.1-0.2c0-0.1-0.1-0.1-0.2-0.1C9.6,24,9.4,24,9.2,24c-0.2,0-0.5,0-0.7,0.1L9.9,24.9z"/>
			<path fill="#143B61" d="M10.8,25.8l-0.7-0.4c-0.4,0.2-0.9,0.3-1.4,0.3c-0.5,0-1.1-0.1-1.6-0.3l-0.1,0v-0.2l0.3-0.2L8,24.7l0.1,0
				c0.2,0.1,0.4,0.1,0.7,0.1c0.1,0,0.2,0,0.3,0l-1.1-0.6c-0.5,0.2-1.1,0.3-1.6,0.2c-0.5,0-0.9-0.1-1.3-0.4c-0.4-0.2-0.6-0.5-0.7-0.8
				c0-0.2,0-0.3,0.1-0.5c0.1-0.1,0.2-0.3,0.3-0.4l-0.4-0.2L5,21.8L5.4,22c0.4-0.2,0.8-0.3,1.2-0.3c0.5,0,0.9,0,1.4,0.2V22l-0.9,0.7
				l0,0c-0.2-0.1-0.4-0.1-0.6-0.1l1.1,0.6c0.5-0.2,1.1-0.3,1.7-0.3c0.4,0,0.9,0.1,1.3,0.4c0.5,0.2,0.7,0.6,0.8,0.9
				c0,0.3-0.1,0.6-0.4,0.9l0.6,0.3v0.2L10.8,25.8z M10.2,25.2l0.6,0.3l0.3-0.2L10.5,25l0.1-0.1c0.3-0.3,0.5-0.6,0.5-0.8
				c0-0.3-0.2-0.5-0.6-0.7c-0.4-0.2-0.8-0.3-1.2-0.3c-0.6,0-1.1,0.1-1.7,0.3l0,0l-1.6-0.9l0.3-0.1c0.3-0.1,0.7-0.1,1,0L7.7,22
				c-0.3-0.1-0.7-0.1-1.1-0.1c-0.4,0-0.8,0.1-1.2,0.3l0,0L5,22l-0.3,0.2l0.3,0.2l-0.1,0.1c-0.3,0.2-0.5,0.5-0.5,0.7
				c0,0.2,0.2,0.5,0.6,0.7c0.4,0.2,0.8,0.3,1.2,0.3c0.5,0,1.1-0.1,1.6-0.2l0,0l1.8,1L9.4,25c-0.2,0-0.4,0-0.7,0
				c-0.2,0-0.5,0-0.7-0.1l-0.6,0.4c0.4,0.1,0.9,0.2,1.3,0.2C9.3,25.6,9.7,25.4,10.2,25.2L10.2,25.2z M9.9,24.7l-1.7-0.9l0.2-0.1
				c0.2-0.1,0.5-0.1,0.8-0.1c0.2,0,0.4,0,0.6,0.1c0.1,0,0.2,0.1,0.2,0.2c0,0.1,0.1,0.2,0.1,0.3c0,0.1,0,0.2,0,0.3
				C10.1,24.6,10,24.7,9.9,24.7L9.9,24.7z M8.8,23.9l1.1,0.6c0,0,0-0.1,0.1-0.1c0,0,0-0.1,0-0.1c0-0.1,0-0.1-0.1-0.2
				c0,0-0.1-0.1-0.1-0.1c-0.1-0.1-0.3-0.1-0.5-0.1C9.1,23.8,8.9,23.8,8.8,23.9z M6.4,23.7H6.3c-0.2,0-0.3,0-0.5-0.1
				c-0.1,0-0.1-0.1-0.2-0.1c0,0-0.1-0.1-0.1-0.2c0-0.1,0-0.1,0-0.2c0-0.1,0-0.1,0.1-0.2l0-0.1l1.5,0.9l-0.3,0.1
				C6.7,23.6,6.6,23.6,6.4,23.7z M5.7,23C5.7,23,5.7,23,5.7,23c0,0.1,0,0.1,0,0.1c0,0,0,0.1,0.1,0.1c0,0,0.1,0.1,0.1,0.1
				c0.1,0.1,0.3,0.1,0.4,0.1c0.1,0,0.2,0,0.3,0L5.7,23z"/>
			<path fill="#143B61" d="M8.7,28.2v1.4l1.6-0.3l1.6-0.5l1.6-1l1-1.2l0.3-0.8l0-1.1L14,26.1l-1.5,1L10.2,28L8.7,28.2z"/>
			<path fill="#143B61" d="M7.7,28.2v1.4l-0.7,0v-1.5L7.7,28.2z"/>
		</g>
	</g>
</g>
</svg>
