<?xml version="1.0" encoding="utf-8"?>
<!-- Generator: Adobe Illustrator 26.5.0, SVG Export Plug-In . SVG Version: 6.00 Build 0)  -->
<svg version="1.0" id="Layer_1" xmlns="http://www.w3.org/2000/svg" xmlns:xlink="http://www.w3.org/1999/xlink" x="0px" y="0px"
	 viewBox="0 0 248 55" enable-background="new 0 0 248 55" xml:space="preserve">
<path fill="#143B61" d="M26.8,37c0,1.8-1.3,3.2-3.5,3.2c-1.7,0-2.9-0.7-3.8-1.7l1.4-1.4c0.7,0.7,1.4,1.2,2.3,1.2
	c0.8,0,1.4-0.4,1.4-1.2c0,0,0.1-1.2-1.9-1.2h-0.9l-0.3-1.5l3.1-3.1l-1.2,0.8h-3.3v-1.7h6.5V32l-2.5,2.3C25.5,34.5,26.8,35.2,26.8,37
	z M20.8,26c0-0.9,0.7-1.6,1.5-1.6h1L23,24.5c0,2.4-0.1,2.7,0.1,3h-0.8C21.4,27.6,20.8,26.8,20.8,26z M22.2,27.9h0.9v-0.3
	c0.1,0.1,0.1,0.2,0.3,0.3c0.3,0.1,0.1,0.1,8.1,0.1v-4h-0.4v3.6c0,0-7.3,0-7.5,0c-0.1-0.1-0.1-0.1-0.2-0.3c0-0.2,0-0.2,0-3.2h-1.2
	c-1.2,0-2,0.9-2,2C20.3,27.1,21.1,27.9,22.2,27.9z M34.6,23.6h-0.9c0-0.3-0.1-0.9,0.5-0.9h0.3V23c-0.3,0-0.4-0.1-0.4,0.1v0.1h0.6
	V23.6z M35.7,28c-0.1,0-0.2,0-0.4-0.1l0.1-0.4c0.2,0.1,0.4,0.1,0.5-0.1c0.1-0.2,0.1-0.3,0.1-3.5h0.4c0,3,0,3-0.1,3.4
	C36.4,27.8,36.1,28,35.7,28z M23.4,23.6H23v-0.4h0.4V23.6z M32.7,25c0.2-0.4,0.6-0.6,1-0.6h0.7l-0.2,0.1v1.9c-0.4,0-0.6,0-0.9-0.1
	c-0.4-0.1-0.7-0.4-0.7-0.9C32.6,25.3,32.7,25.2,32.7,25z M32.7,26.5c0.6,0.4,1.3,0.4,1.4,0.4l0.1-0.3c0,0.3,0.1,0.7-0.2,0.9
	c-0.2,0.1-0.7,0.1-0.9,0.1c-0.1,0-0.2-0.1-0.4-0.1l-0.1,0.4c0.3,0.1,0.5,0.1,0.8,0.1c0.4,0,0.7-0.1,0.9-0.3c0.2-0.2,0.3-0.4,0.3-0.8
	v-3c-0.5,0-0.9-0.1-1.4,0.1C31.9,24.5,31.9,26,32.7,26.5z M22.6,23.6h-0.4v-0.4h0.4V23.6z M18.2,24h0.4v4h-0.4l-2.8-3.6l0.2,0.6v3
	h-0.4v-4h0.4l2.7,3.4l-0.2-0.5L18.2,24L18.2,24z M1.7,28L0,24h0.5c0,0.1,1.4,3.3,1.5,3.7L2,27.3L3.3,24h0.5l-1.7,4H1.7z M9.3,24h0.4
	v4H9.3V24z M14,26c0,0.9-0.7,1.6-1.5,1.6c-0.9,0-1.6-0.7-1.6-1.7c0-0.9,0.7-1.6,1.5-1.6C13.4,24.3,14,25,14,26z M12.5,23.9
	c-1.2,0-2,0.9-2,2c0,1.1,0.8,2,2,2s2-0.9,2-2C14.6,24.9,13.8,23.9,12.5,23.9z M8.5,26.8C8.5,27.6,8,28,7.2,28
	c-0.7,0-1.2-0.2-1.6-0.7L5.9,27c0.4,0.4,0.8,0.6,1.4,0.6c0.5,0,0.9-0.3,0.9-0.7c0-1.1-2.4-0.4-2.4-1.9c0-0.7,0.6-1.1,1.3-1.1
	c0.6,0,1,0.1,1.4,0.5l-0.3,0.4c-0.9-0.7-2-0.4-2,0.2c0,0.4,0.2,0.6,1.1,0.8C8.1,26,8.5,26.3,8.5,26.8z M4.9,27.9H4.4v-4h0.4V27.9z
	 M30.9,28.4h0.4v0.4h-0.4V28.4z M30.1,28.4h0.4v0.4h-0.4V28.4z M3.5,38.2h3.7V40H0.1v-1.7c3.5-3,4.9-3.6,4.9-4.9
	c0-0.8-0.5-1.2-1.3-1.2c-0.7,0-1.2,0.4-2,1.3l-1.5-1.2c0.9-1.3,1.9-2,3.6-2c2,0,3.3,1.2,3.3,3c0,2.2-1.7,3-4.6,5.4l-0.4,0.4
	L3.5,38.2z M35.3,35.2c0,1.7-1.2,3-2.9,3c-1.7,0-2.9-1.4-2.9-3s1.2-3,2.9-3C34.2,32.1,35.3,33.5,35.3,35.2z M32.5,30.2
	c-3,0-5.1,2.2-5.1,5c0,2.8,2.1,4.9,5.1,4.9c3,0,5.1-2.2,5.1-5C37.6,32.4,35.5,30.2,32.5,30.2z"/>
<path fill="#143B61" d="M13,29.6l0.5,0.4L13,30.5l-0.5-0.4"/>
<path fill="#A1B1C0" d="M14.1,30l0.5,0.4l0.4-0.5l-0.5-0.4"/>
<path fill="#143B61" d="M13.4,30.7l0.4,0.4l0.4-0.4l-0.4-0.4"/>
<path fill="#143B61" d="M14.8,30.9l0.4,0.4l0.4-0.4l-0.4-0.4"/>
<path fill="#143B61" d="M12.8,31.3l0.4,0.4l0.4-0.4l-0.4-0.4"/>
<path fill="#143B61" d="M14,31.3l0.4,0.4l0.4-0.4l-0.4-0.4"/>
<path fill="#143B61" d="M13.5,31.7l0.3,0.3l0.3-0.3l-0.3-0.3"/>
<path fill="#143B61" d="M14.6,31.9l0.3,0.3l0.3-0.3l-0.3-0.3"/>
<path fill="#143B61" d="M16.8,29.9l0.8-0.1l0.1,0.8l-0.8,0.1L16.8,29.9z"/>
<path fill="#143B61" d="M15.7,30.3l0.7-0.1l0.1,0.7l-0.7,0.1L15.7,30.3z"/>
<path fill="#143B61" d="M17,31.2l0.7-0.1l0.1,0.7l-0.7,0.1L17,31.2z"/>
<path fill="#143B61" d="M16.1,31.3l0.5-0.1l0.1,0.5l-0.5,0.1L16.1,31.3z"/>
<path fill="#A1B1C0" d="M17.1,32.3l0.5-0.1l0.1,0.5l-0.5,0.1L17.1,32.3z"/>
<path fill="#143B61" d="M15.3,31.5l0.5-0.1l0.1,0.5L15.4,32L15.3,31.5z"/>
<path fill="#143B61" d="M16.2,32.1l0.5-0.1l0.1,0.5l-0.5,0.1L16.2,32.1z"/>
<path fill="#A1B1C0" d="M15.6,32.2l0.4-0.1l0.1,0.4l-0.4,0.1L15.6,32.2z"/>
<path fill="#143B61" d="M16.3,33l0.4-0.1l0.1,0.4l-0.4,0.1L16.3,33z"/>
<path fill="#143B61" d="M19.3,32.7l-0.4,0.7l0.8,0.4l0.4-0.7"/>
<path fill="#143B61" d="M18.2,32.3l-0.3,0.6l0.6,0.3l0.3-0.6"/>
<path fill="#143B61" d="M18.7,33.7l-0.3,0.6l0.6,0.3l0.3-0.6"/>
<path fill="#143B61" d="M17.9,33.3l-0.2,0.5l0.5,0.2l0.2-0.5"/>
<path fill="#143B61" d="M18.1,34.7l-0.2,0.5l0.5,0.2l0.2-0.5"/>
<path fill="#143B61" d="M17.1,33l-0.2,0.5l0.5,0.2l0.2-0.5"/>
<path fill="#A1B1C0" d="M17.5,34.1l-0.2,0.5l0.5,0.2l0.2-0.5"/>
<path fill="#143B61" d="M16.9,33.8l-0.1,0.4l0.4,0.1l0.1-0.4"/>
<path fill="#143B61" d="M16.9,35.1l0.1-0.4l0.4,0.1l-0.1,0.4L16.9,35.1z"/>
<path fill="#143B61" d="M19.6,36.3l-0.7,0.4l0.4,0.7l0.7-0.4"/>
<path fill="#143B61" d="M19,35.3l-0.6,0.3l0.3,0.6l0.6-0.3"/>
<path fill="#143B61" d="M18.5,36.9L18,37.1l0.3,0.6l0.6-0.3"/>
<path fill="#143B61" d="M18.1,36l-0.4,0.2l0.2,0.4l0.4-0.2"/>
<path fill="#143B61" d="M17.5,37.3l-0.4,0.2l0.2,0.4l0.4-0.2"/>
<path fill="#143B61" d="M17.7,35.3l-0.4,0.2l0.2,0.4l0.4-0.2"/>
<path fill="#143B61" d="M17.3,36.4l-0.4,0.2l0.2,0.4l0.4-0.2"/>
<path fill="#A1B1C0" d="M17.1,35.8L16.8,36l0.1,0.3l0.3-0.1"/>
<path fill="#143B61" d="M16.6,36.7l-0.4,0.2l0.1,0.3l0.3-0.1"/>
<path fill="#143B61" d="M16.9,40.2l0.1-0.9l0.9,0.1l-0.1,0.9L16.9,40.2z"/>
<path fill="#143B61" d="M17.1,38.9l0.1-0.7l0.7,0.1L17.7,39L17.1,38.9z"/>
<path fill="#143B61" d="M15.9,39.8l0.1-0.7l0.7,0.1l-0.1,0.7L15.9,39.8z"/>
<path fill="#143B61" d="M16.1,38.8l0.1-0.5l0.5,0.1l-0.1,0.5L16.1,38.8z"/>
<path fill="#A1B1C0" d="M14.9,39.5L15,39l0.5,0.1l-0.1,0.5L14.9,39.5z"/>
<path fill="#A1B1C0" d="M16.2,38l0.1-0.5l0.5,0.1l-0.1,0.5L16.2,38z"/>
<path fill="#143B61" d="M15.3,38.7l0.1-0.5l0.5,0.1l-0.1,0.5L15.3,38.7z"/>
<path fill="#A1B1C0" d="M15.6,37.9l0.1-0.4l0.4,0.1L15.9,38L15.6,37.9z"/>
<path fill="#A1B1C0" d="M14.6,38.4l0.1-0.4l0.4,0.1L15,38.5L14.6,38.4z"/>
<path fill="#143B61" d="M14.6,41l-0.7-0.6l-0.6,0.7l0.7,0.6"/>
<path fill="#143B61" d="M14.4,29.2l-0.7-0.6l-0.6,0.7l0.7,0.6"/>
<path fill="#143B61" d="M15.2,40.1l-0.5-0.4l-0.4,0.5l0.5,0.4"/>
<path fill="#143B61" d="M13.6,40.1l-0.5-0.4l-0.4,0.5l0.5,0.4"/>
<path fill="#143B61" d="M14.3,39.5l-0.4-0.4l-0.4,0.4l0.4,0.4"/>
<path fill="#143B61" d="M12.9,39.3l-0.4-0.4l-0.4,0.4l0.4,0.4"/>
<path fill="#143B61" d="M14.8,38.8l-0.4-0.4L14,38.8l0.4,0.4"/>
<path fill="#A1B1C0" d="M13.6,38.9l-0.4-0.4l-0.4,0.4l0.4,0.4"/>
<path fill="#143B61" d="M14.1,38.4l-0.3-0.2l-0.2,0.3l0.3,0.2"/>
<path fill="#A1B1C0" d="M13.1,38.2L12.8,38l-0.2,0.3l0.3,0.2"/>
<path fill="#143B61" d="M9.9,39.6l0.8-0.1l0.1,0.8l-0.8,0.2L9.9,39.6z"/>
<path fill="#143B61" d="M11.2,39.4l0.7-0.1l0.1,0.7l-0.7,0.1L11.2,39.4z"/>
<path fill="#143B61" d="M9.9,38.5l0.7-0.1l0.1,0.7l-0.7,0.1L9.9,38.5z"/>
<path fill="#143B61" d="M11,38.5l0.5-0.1l0.1,0.5L11.1,39L11,38.5z"/>
<path fill="#143B61" d="M11.7,38.3l0.5-0.1l0.1,0.5l-0.5,0.1L11.7,38.3z"/>
<path fill="#143B61" d="M10.8,37.6l0.5-0.1l0.1,0.5l-0.5,0.1L10.8,37.6z"/>
<path fill="#143B61" d="M11.7,37.7l0.4-0.1l0.1,0.4L11.7,38L11.7,37.7z"/>
<path fill="#A1B1C0" d="M10.9,36.9l0.4-0.1l0.1,0.4L11,37.3L10.9,36.9z"/>
<path fill="#143B61" d="M8.4,37.7l0.4-0.8L8,36.5l-0.4,0.8"/>
<path fill="#143B61" d="M9.5,37.9l0.3-0.6l-0.6-0.3l-0.3,0.6"/>
<path fill="#143B61" d="M9,36.5l0.3-0.6l-0.7-0.4l-0.3,0.7"/>
<path fill="#143B61" d="M9.3,36.7l0.2-0.5l0.5,0.2l-0.2,0.5L9.3,36.7z"/>
<path fill="#A1B1C0" d="M10.4,38.1l0.2-0.5l-0.5-0.2l-0.2,0.5"/>
<path fill="#143B61" d="M9.1,35.3l0.2-0.5L9.8,35l-0.2,0.5L9.1,35.3z"/>
<path fill="#143B61" d="M10.1,36.9l0.2-0.5l0.5,0.2l-0.2,0.5L10.1,36.9z"/>
<path fill="#143B61" d="M9.7,35.8l0.2-0.5l0.5,0.2l-0.2,0.5L9.7,35.8z"/>
<path fill="#143B61" d="M10.7,36.4l0.1-0.4l-0.4-0.1l-0.1,0.4"/>
<path fill="#143B61" d="M10.6,35.4l0.1-0.4l-0.4-0.1l-0.1,0.4"/>
<path fill="#143B61" d="M8,34l0.7-0.4l-0.4-0.7l-0.7,0.4"/>
<path fill="#143B61" d="M8.6,34.9l0.6-0.4L8.8,34l-0.6,0.4"/>
<path fill="#143B61" d="M9.1,33.4L9.6,33l-0.3-0.6l-0.6,0.4"/>
<path fill="#143B61" d="M9.5,34.2l0.4-0.3l-0.3-0.4l-0.4,0.3"/>
<path fill="#143B61" d="M10.1,32.9l0.4-0.3l-0.3-0.4l-0.4,0.3"/>
<path fill="#143B61" d="M9.9,34.9l0.4-0.3l-0.3-0.4l-0.4,0.3"/>
<path fill="#143B61" d="M10.3,33.7l0.4-0.3L10.4,33L10,33.3"/>
<path fill="#A1B1C0" d="M10.5,34.4l0.3-0.2l-0.2-0.3L10.4,34"/>
<path fill="#143B61" d="M11,33.4l0.3-0.2l-0.2-0.3l-0.3,0.2"/>
<path fill="#143B61" d="M9.7,30.8l0.1-0.9l0.9,0.1l-0.1,0.9L9.7,30.8z"/>
<path fill="#A1B1C0" d="M9.7,31.9l0.1-0.7l0.7,0.1L10.4,32L9.7,31.9z"/>
<path fill="#143B61" d="M10.9,30.9l0.1-0.7l0.7,0.1L11.6,31L10.9,30.9z"/>
<path fill="#143B61" d="M10.8,31.9l0.1-0.5l0.5,0.1l-0.1,0.5L10.8,31.9z"/>
<path fill="#143B61" d="M12,31.1l0.1-0.5l0.5,0.1l-0.1,0.5L12,31.1z"/>
<path fill="#143B61" d="M10.8,32.7l0.1-0.5l0.5,0.1l-0.1,0.5L10.8,32.7z"/>
<path fill="#143B61" d="M11.7,31.9l0.1-0.5l0.5,0.1L12.2,32L11.7,31.9z"/>
<path fill="#143B61" d="M11.6,32.6l0.1-0.4l0.4,0.1l-0.1,0.4L11.6,32.6z"/>
<path fill="#A1B1C0" d="M12.5,32.1l0.1-0.4l0.4,0.1l-0.1,0.4L12.5,32.1z"/>
<path fill="#7289A0" d="M16.4,35.6c-0.4-0.3-1.1-0.4-1.7-0.1c-0.3,0.1-0.6,0.3-0.8,0.4c-0.1-0.9-0.1-1.7-0.1-2.2
	c0.3,0.2,0.2,0.7,0.1,0.9c0.4-0.4,0.2-1,0.1-1.1c0,0,0.1,0.1,0.1,0.1c0.3,0.4,0.1,0.7,0.1,0.7c0.2-0.4,0.1-0.8-0.2-1.2h0.1
	c0.3,0.1,0.5,0.4,0.5,0.7c0,0.1,0.2-0.6-0.3-0.9c-0.1-0.1-0.2-0.1-0.3-0.1c-0.1,0,0.3-0.1,0.5,0.1c0.1,0.1,0.1,0.2,0.1,0.1
	c-0.1-0.4-0.5-0.6-0.8-0.4c0,0,0.1-0.2,0.4-0.2c0.1,0,0.1,0,0.1,0c-0.2-0.2-0.6-0.2-0.8,0c-0.1-0.1-0.1-0.3-0.1-0.4
	c0-0.1,0,0.2-0.1,0.4c-0.2-0.3-0.6-0.3-0.8,0c0.1-0.1,0.4-0.1,0.6,0.1c-0.3-0.1-0.8,0.1-0.8,0.4c0,0,0.1-0.1,0.1-0.1
	c0.2-0.2,0.7-0.1,0.6-0.1c-0.1,0-0.4,0.1-0.6,0.4c-0.1,0.2,0,0.6,0,0.5c0-0.3,0.1-0.7,0.6-0.7c-0.6,0.5-0.2,1.2-0.2,1.2
	c0-0.2,0-0.6,0.3-0.9c-0.1,0.1-0.3,0.7,0.1,1.1c-0.1-0.1-0.1-0.7,0.1-0.9c0,0.4,0.1,1.2-0.1,2.2c-0.5-0.4-1-0.7-1.7-0.6
	c-0.3,0-0.7,0.1-0.9,0.2c0.9-0.3,1.7,0.1,2.5,0.7c-0.4,0.4-0.7,0.7-0.9,0.8c-0.1-0.1-0.1-0.1-0.2-0.1c-0.1,0.1-0.2,0.2-0.1,0.4
	c0.4,0.3,0.9-0.3,1.4-0.9c0.6,0.5,1.1,1.2,1.4,0.9l0.1-0.1c-0.1-0.1-0.3-0.2-0.4-0.1c-0.2-0.1-0.5-0.4-0.9-0.8
	C14.8,35.7,15.6,35.3,16.4,35.6C16.5,35.6,16.5,35.6,16.4,35.6z"/>
<path fill="#143B61" d="M13.5,44.6h0.2v-2.2h-0.2V44.6z M7.2,44.3l-0.4-0.9C7.2,43,7.7,43,8,43.3l-0.4,0.9H7.2z M5.9,44.3
	c-0.2,0-0.3,0-0.5-0.1c-0.7-0.2-0.5-1.1,0.3-1.1h0.2V44.3z M12.5,44.3c-0.4,0-0.7,0.1-0.9-0.2c0-0.1,0-0.3,0-1h-0.2v0.8
	c0,0.6-0.7,0.6-0.9,0.2c-0.1-0.1,0-0.2-0.1-1h-0.2v0.9c0,0.3-0.1,0.4-0.4,0.4H9.3v-1.2H9.1v1.2H7.8l0.4-1c-0.2-0.2-0.6-0.4-0.9-0.4
	c-0.3,0-0.7,0.2-0.9,0.4l0.4,1H6.1V43H5.7c-0.6,0-1,0.3-1,0.8c0,0.9,1.2,0.8,1.2,0.8s0,0.2-0.1,0.4C5.6,45,5.4,45,5.2,45
	c-0.1,0-0.1-0.1-0.2-0.1l-0.1,0.2c0.1,0.1,0.3,0.1,0.4,0.1C5.8,45.2,6,45,6,44.6v-0.1c4,0,3.8,0.1,4.1-0.1c0.1-0.1,0.1-0.1,0.2-0.2
	c0.1,0.1,0.1,0.1,0.2,0.2c0.2,0.1,0.5,0.1,0.7,0c0.1-0.1,0.1-0.1,0.2-0.2c0.1,0.1,0.2,0.3,0.5,0.3h0.7v-2.2h-0.2L12.5,44.3
	L12.5,44.3z M34.3,44.2c-0.2,0.5-0.9,0.5-1.2,0c-0.1-0.1-0.1-0.4,0-0.5c0.3-0.7,1.2-0.4,1.2,0.2C34.3,44,34.3,44.1,34.3,44.2z
	 M31.9,44.2c-0.2,0.4-0.7,0.5-1,0.2c-0.2-0.2-0.2-0.7,0-0.9c0.2-0.2,0.5-0.2,0.7-0.1C31.9,43.5,32.1,43.9,31.9,44.2z M26,44.3
	c-0.2,0-0.3,0-0.5-0.1c-0.7-0.2-0.5-1.1,0.3-1.1H26V44.3z M35.3,44.3h-0.8c0.3-0.6-0.1-1.2-0.8-1.2c-0.6,0-1,0.7-0.8,1.2h-0.7
	c0.2-0.6-0.1-1.2-0.8-1.2c-0.6,0-1,0.7-0.8,1.2h-0.8v-2h-0.2v2h-0.8c0-0.2,0.1-0.6-0.1-0.9c-0.1-0.1-0.3-0.2-0.5-0.2h-1.1l0.4-0.9
	h-0.3l-0.5,0.9c0,0.1,0.1,0.1,0.1,0.2c1.2,0,1.3,0,1.4,0c0.1,0.1,0.1,0.1,0.2,0.2c0,0.1,0,0.2,0,0.6h-2.2v-1.4h-0.4
	c-0.7,0-1,0.4-1,0.8c0,0.6,0.4,0.8,1,0.8h4.8c0.4,0.4,0.9,0.4,1.3,0h1.1c0.4,0.4,0.9,0.4,1.3,0h1.2v-2.2h-0.2L35.3,44.3z M36.3,44.6
	h0.2v-2.2h-0.2V44.6z M18.5,45.1h0.2v-0.2h-0.2V45.1z M20.8,44.3l-0.4-0.9c0.4-0.4,0.9-0.3,1.2,0l-0.4,0.9H20.8z M22.5,44.3h-1
	l0.4-1c-0.2-0.2-0.6-0.4-0.9-0.4c-0.4,0-0.7,0.2-0.9,0.4l0.4,1h-0.9v-1.4h-0.2v1.7c0,0.2,0,0.4-0.2,0.4c-0.1,0-0.1,0-0.1,0l-0.1,0.2
	c0.2,0.1,0.4,0.1,0.6-0.1c0.1-0.1,0.1-0.4,0.1-0.5h3.1v-2.2h-0.2L22.5,44.3z M4.1,43.1c-0.3-0.3-0.6-0.2-0.7-0.2v0.2
	c0.1,0,0.3,0,0.4,0.1c0.1,0.1,0.1,0.1,0.2,0.2c0,0.1,0,0.2,0,0.9H2.9v0.2h1.4c0-0.9,0-1-0.1-1.2C4.3,43.2,4.2,43.2,4.1,43.1z
	 M17.5,45.1h0.2v-0.2h-0.2V45.1z M16.1,44.3c-0.2,0-0.3,0-0.5-0.1c-0.7-0.2-0.5-1.1,0.3-1.1h0.2V44.3z M18.7,42.9h-0.2v1.4h-0.9
	v-1.4h-0.2v1.4h-0.9v-1.4c-0.3,0-0.7-0.1-1.1,0.2c-0.5,0.4-0.4,1.4,0.7,1.4h2.8L18.7,42.9L18.7,42.9z M17.1,45.1h0.2v-0.2h-0.2V45.1
	z M0.9,42.4H0.7v0.2h0.2V42.4z M25.9,42.4h-0.2v0.2h0.2V42.4z M16.3,42.4h-0.2v0.2h0.2V42.4z M2.4,45.1h0.2v-0.2H2.4V45.1z
	 M15.9,42.4h-0.2v0.2h0.2V42.4z M1.4,42.4H1.2v0.2h0.2V42.4z M2,45.1h0.2v-0.2H2V45.1z M1.2,44.3c-0.2,0-0.3,0-0.5-0.1
	C0,44,0.1,43.1,0.9,43.1h0.2V44.3z M2.6,42.9H2.4v1.4h-1v-1.4c-0.3,0-0.5,0-0.8,0.1c-0.2,0.1-0.4,0.2-0.5,0.4
	c-0.1,0.2-0.1,0.5,0,0.7c0.1,0.4,0.5,0.4,0.9,0.4h1.6V42.9z M23.5,44.6h0.2v-2.2h-0.2V44.6z M26.3,42.4H26v0.2h0.2L26.3,42.4
	L26.3,42.4z"/>
<path fill="#143B61" d="M0.2,46.1h0.3V47l0.9-0.9h0.4L1,46.9l0.7,1H1.4l-0.6-0.8l-0.3,0.3v0.4H0.2"/>
<path fill="#143B61" d="M2,46.1h0.3v1.7H2V46.1z"/>
<path fill="#143B61" d="M2.8,46.1h0.3l0.9,1.2v-1.2h0.3v1.7H4.1l-0.9-1.2v1.2H2.8"/>
<path fill="#143B61" d="M4.7,47c0-0.5,0.4-0.9,0.9-0.9c0.3,0,0.5,0.1,0.7,0.2L6,46.6c-0.4-0.4-1-0.1-1,0.4c0,0.4,0.2,0.7,0.6,0.7
	c0.1,0,0.3-0.1,0.4-0.1v-0.3H5.6v-0.3h0.7v0.7C5.7,48.1,4.7,47.9,4.7,47z"/>
<path fill="#143B61" d="M7.4,47.6c0.8,0,0.8-1.2,0-1.2H7v1.2H7.4z M6.7,46.1h0.7c1.2,0,1.2,1.7,0,1.7H6.7V46.1z"/>
<path fill="#143B61" d="M10.1,47c0-0.4-0.2-0.7-0.6-0.7c-0.4,0-0.6,0.3-0.6,0.6c0,0.4,0.2,0.6,0.6,0.6C9.8,47.6,10.1,47.3,10.1,47z
	 M8.6,47c0-0.5,0.4-0.9,0.9-0.9c0.5,0,0.9,0.4,0.9,0.9c0,0.5-0.4,0.9-0.9,0.9C9,47.9,8.6,47.5,8.6,47z"/>
<path fill="#143B61" d="M10.8,46.1h0.3l0.5,0.8l0.5-0.8h0.3v1.7h-0.3v-1.2l-0.6,0.8L11,46.6v1.2h-0.2"/>
<path fill="#143B61" d="M15.1,47c0-0.4-0.2-0.7-0.6-0.7c-0.4,0-0.6,0.3-0.6,0.6c0,0.4,0.2,0.6,0.6,0.6C14.8,47.6,15.1,47.3,15.1,47z
	 M13.5,47c0-0.5,0.4-0.9,0.9-0.9c0.5,0,0.9,0.4,0.9,0.9c0,0.5-0.4,0.9-0.9,0.9C14,47.9,13.5,47.5,13.5,47z"/>
<path fill="#143B61" d="M15.8,46.1h1.3v0.2h-1v0.4h0.9v0.3h-0.9v0.7h-0.3"/>
<path fill="#143B61" d="M18,47.6l0.2-0.2c0.1,0.1,0.4,0.2,0.6,0.2c0.2,0,0.3-0.1,0.3-0.2c0-0.4-0.9-0.1-0.9-0.8
	c0-0.5,0.7-0.7,1.2-0.3l-0.1,0.2c-0.4-0.3-0.7-0.1-0.7,0c0,0.4,0.9,0.1,0.9,0.8C19.3,48,18.5,48,18,47.6z"/>
<path fill="#143B61" d="M20.7,47.2l-0.3-0.7l-0.3,0.7H20.7z M20.3,46.1h0.3l0.7,1.7H21l-0.1-0.4h-0.8l-0.2,0.4h-0.4L20.3,46.1z"/>
<path fill="#143B61" d="M21.5,47.1v-1h0.3v1c0,0.3,0.1,0.5,0.4,0.5s0.4-0.1,0.4-0.5v-1H23v1c0,0.5-0.3,0.8-0.7,0.8
	S21.5,47.6,21.5,47.1z"/>
<path fill="#143B61" d="M24,47.6c0.8,0,0.8-1.2,0-1.2h-0.4v1.2H24z M23.4,46.1H24c1.2,0,1.2,1.7,0,1.7h-0.7V46.1z"/>
<path fill="#143B61" d="M25.3,46.1h0.3v1.7h-0.3V46.1z"/>
<path fill="#143B61" d="M27.9,47.2l-0.3-0.7l-0.3,0.7H27.9z M27.4,46.1h0.3l0.7,1.7h-0.3L28,47.4h-0.8L27,47.8h-0.3L27.4,46.1z"/>
<path fill="#143B61" d="M29.5,46.9c0.2,0,0.4-0.1,0.4-0.3c0-0.2-0.1-0.3-0.4-0.3h-0.4v0.6H29.5z M28.8,46.1h0.8
	c0.4,0,0.7,0.2,0.7,0.6c0,0,0,0.4-0.4,0.5l0.4,0.7h-0.4l-0.4-0.6c0,0-0.4,0-0.4,0v0.5h-0.3V46.1z"/>
<path fill="#143B61" d="M31.7,47.2l-0.3-0.7l-0.3,0.7H31.7z M31.3,46.1h0.3l0.7,1.7H32l-0.2-0.4H31l-0.2,0.4h-0.3L31.3,46.1z"/>
<path fill="#143B61" d="M33.4,47.6c0.2,0,0.4-0.1,0.4-0.2c0-0.1-0.1-0.2-0.4-0.2h-0.5v0.5L33.4,47.6L33.4,47.6z M33.3,46.9
	c0.2,0,0.3-0.1,0.3-0.2c0-0.1-0.1-0.2-0.3-0.2h-0.4v0.4H33.3z M32.6,46.1h0.8c0.3,0,0.6,0.1,0.6,0.4c0,0,0,0.2-0.2,0.4
	c0.2,0.1,0.4,0.2,0.4,0.4c0,0.3-0.3,0.5-0.7,0.5h-0.8L32.6,46.1L32.6,46.1z"/>
<path fill="#143B61" d="M34.4,46.1h0.3v1.7h-0.3V46.1z"/>
<path fill="#143B61" d="M36.2,47.2l-0.3-0.7l-0.3,0.7H36.2z M35.8,46.1h0.3l0.7,1.7h-0.3l-0.1-0.4h-0.8l-0.2,0.4h-0.3L35.8,46.1z"/>
<path fill="#A1B1C0" d="M52.7,22.7h-0.7v25.8h0.7V22.7z"/>
<path fill="#143B61" d="M71.2,42.1l-0.9-0.2c-0.4-0.1-0.7-0.1-0.8-0.3c-0.1-0.1-0.2-0.2-0.2-0.4c0-0.1,0-0.2,0.1-0.3
	c0.1-0.1,0.1-0.1,0.2-0.2c0.1-0.1,0.2-0.1,0.4-0.1c0.4-0.1,0.9-0.1,1.3,0c0.2,0.1,0.4,0.1,0.6,0.1c0.1,0.1,0.3,0.1,0.4,0.2
	c0.1,0.1,0.1,0.1,0.2,0.1l0.1,0.1l0.1-0.1c0.1-0.1,0.1-0.1,0.3-0.3c0.1-0.1,0.1-0.3,0.1-0.4s-0.1-0.2-0.1-0.4
	c-0.1-0.1-0.1-0.1-0.3-0.2c-0.1,0-0.1-0.1-0.2-0.1c-0.1-0.1-0.2-0.1-0.4-0.1c-0.1-0.1-0.4-0.1-0.6-0.1c-0.2,0-0.5-0.1-0.8-0.1
	c-0.4,0-0.8,0.1-1.2,0.1c-0.3,0.1-0.6,0.2-0.8,0.4c-0.2,0.1-0.4,0.4-0.4,0.7c-0.1,0.2-0.1,0.5-0.1,0.7c0,0.3,0.1,0.5,0.1,0.7
	c0.1,0.2,0.3,0.4,0.4,0.5c0.2,0.1,0.4,0.2,0.7,0.4c0.2,0.1,0.5,0.1,0.7,0.2l0.9,0.1c0.1,0,0.3,0.1,0.4,0.1c0.1,0.1,0.2,0.1,0.3,0.1
	c0.1,0.1,0.1,0.1,0.1,0.2c0.1,0.1,0.1,0.1,0.1,0.3c0,0.2-0.1,0.4-0.3,0.5c-0.2,0.1-0.5,0.2-1,0.2c-0.3,0-0.5,0-0.7-0.1
	c-0.2-0.1-0.4-0.1-0.7-0.1c-0.2-0.1-0.4-0.1-0.4-0.2C68.5,44,68.4,44,68.3,44l-0.1-0.1l-0.6,1l0.1,0.1c0.1,0.1,0.2,0.1,0.4,0.2
	c0.1,0.1,0.4,0.1,0.6,0.2c0.2,0.1,0.5,0.1,0.8,0.2c0.3,0.1,0.7,0.1,0.9,0.1c0.4,0,0.8-0.1,1.1-0.1c0.4-0.1,0.6-0.2,0.8-0.4
	c0.2-0.1,0.4-0.4,0.5-0.7C73,44.3,73,44,73,43.8c0-0.5-0.1-0.9-0.5-1.2C72.2,42.4,71.8,42.2,71.2,42.1z"/>
<path fill="#143B61" d="M79.7,40.3c-0.3-0.3-0.7-0.5-1-0.7c-0.8-0.4-1.8-0.4-2.6,0c-0.4,0.1-0.7,0.4-1,0.7c-0.3,0.3-0.5,0.7-0.7,1
	c-0.1,0.4-0.2,0.8-0.2,1.3c0,0.4,0.1,0.9,0.2,1.3c0.1,0.4,0.4,0.7,0.7,1c0.3,0.3,0.7,0.5,1,0.7c0.4,0.1,0.8,0.2,1.3,0.2
	c0.5,0,0.9-0.1,1.3-0.2c0.4-0.1,0.7-0.4,1-0.7c0.3-0.3,0.5-0.7,0.7-1c0.1-0.4,0.2-0.8,0.2-1.3s-0.1-0.9-0.2-1.3
	C80.2,41,80,40.6,79.7,40.3z M79.3,42.7c0,0.3-0.1,0.6-0.1,0.8c-0.1,0.2-0.2,0.4-0.4,0.7c-0.1,0.1-0.4,0.3-0.7,0.4
	c-0.5,0.2-1.1,0.2-1.6,0c-0.2-0.1-0.4-0.2-0.7-0.4c-0.1-0.2-0.3-0.4-0.4-0.7c-0.1-0.2-0.1-0.5-0.1-0.8s0.1-0.6,0.1-0.9
	c0.1-0.2,0.2-0.5,0.4-0.7c0.1-0.2,0.4-0.3,0.7-0.4c0.2-0.1,0.5-0.1,0.8-0.1c0.3,0,0.6,0.1,0.8,0.1c0.2,0.1,0.4,0.2,0.7,0.4
	c0.1,0.1,0.3,0.4,0.4,0.7C79.3,42.1,79.3,42.4,79.3,42.7z"/>
<path fill="#143B61" d="M86.4,44.3L86.4,44.3c-0.2,0.1-0.4,0.2-0.7,0.3c-0.2,0.1-0.6,0.1-0.9,0.1c-0.3,0-0.6-0.1-0.8-0.1
	c-0.2-0.1-0.4-0.2-0.7-0.4c-0.2-0.1-0.4-0.4-0.4-0.7c-0.1-0.2-0.1-0.6-0.1-0.9c0-0.4,0.1-0.7,0.1-0.9c0.1-0.3,0.2-0.5,0.4-0.7
	c0.1-0.1,0.4-0.3,0.6-0.4c0.4-0.1,0.9-0.1,1.3-0.1c0.1,0.1,0.3,0.1,0.4,0.1c0.1,0.1,0.2,0.1,0.4,0.2c0.1,0.1,0.1,0.1,0.2,0.2
	l0.1,0.1l0.1-0.1c0.1,0,0.1-0.1,0.1-0.1c0.1-0.1,0.1-0.1,0.1-0.1c0.1-0.1,0.1-0.1,0.1-0.2c0.1-0.1,0.1-0.1,0.1-0.3
	c0-0.1,0-0.2-0.1-0.3c-0.1-0.1-0.2-0.2-0.4-0.4c-0.1-0.1-0.4-0.2-0.7-0.3c-0.3-0.1-0.7-0.1-1-0.1c-0.4,0-0.9,0.1-1.2,0.2
	c-0.4,0.1-0.7,0.4-1,0.7c-0.3,0.3-0.5,0.7-0.7,1c-0.1,0.4-0.3,0.9-0.3,1.4s0.1,1,0.3,1.4c0.1,0.4,0.4,0.7,0.7,1
	c0.3,0.3,0.7,0.5,1,0.6c0.4,0.1,0.8,0.2,1.2,0.2c0.3,0,0.6,0,0.8-0.1c0.2-0.1,0.4-0.1,0.7-0.1c0.1-0.1,0.3-0.1,0.4-0.2
	c0.1-0.1,0.2-0.1,0.3-0.1l0.1-0.1L86.4,44.3z"/>
<path fill="#143B61" d="M88.8,39.6c-0.1,0-0.2-0.1-0.4-0.1c-0.2,0-0.4,0.1-0.5,0.1c-0.1,0.1-0.2,0.2-0.2,0.4v5.6H89v-6L88.8,39.6
	C89,39.7,88.9,39.6,88.8,39.6z"/>
<path fill="#143B61" d="M96.1,44.9c-0.1-0.3-0.2-0.7-0.4-1c-0.1-0.4-0.3-0.8-0.5-1.2c-0.1-0.4-0.4-0.9-0.5-1.2
	c-0.1-0.4-0.4-0.7-0.5-1.1c-0.1-0.3-0.3-0.6-0.4-0.7c0,0,0,0-0.1-0.1c-0.1,0-0.1-0.1-0.1-0.1c-0.1,0-0.1-0.1-0.2-0.1
	c-0.1,0-0.1,0-0.2,0c-0.2,0-0.4,0.1-0.6,0.1c-0.1,0.1-0.3,0.3-0.4,0.5c-0.2,0.4-0.4,0.9-0.7,1.5C91.4,42,91.1,42.4,91,43
	c-0.2,0.4-0.4,0.9-0.6,1.4c-0.1,0.4-0.4,0.9-0.5,1.2l-0.1,0.1h1.3v-0.1c0.1-0.1,0.1-0.4,0.2-0.7c0.1-0.2,0.2-0.5,0.3-0.8h2.8
	c0.1,0.1,0.1,0.2,0.1,0.3c0.1,0.1,0.1,0.3,0.1,0.4l0.1,0.4c0.1,0.1,0.1,0.2,0.1,0.3v0.1h1.4l-0.1-0.1C96.3,45.4,96.2,45.2,96.1,44.9
	z M94,43h-1.8c0.1-0.1,0.1-0.4,0.2-0.5c0.1-0.2,0.2-0.4,0.3-0.7c0.1-0.2,0.2-0.4,0.3-0.7c0.1-0.1,0.1-0.2,0.1-0.3
	c0,0.1,0.1,0.1,0.1,0.2c0.1,0.2,0.2,0.4,0.3,0.7c0.1,0.2,0.2,0.5,0.3,0.7C93.8,42.7,93.9,42.9,94,43z"/>
<path fill="#143B61" d="M98.4,39.7L98.4,39.7c-0.1,0-0.1,0-0.3-0.1c-0.1,0-0.2-0.1-0.4-0.1c-0.2,0-0.4,0.1-0.5,0.1
	c-0.1,0.1-0.2,0.2-0.2,0.4v5.6h4.3v-1.2h-3L98.4,39.7L98.4,39.7z"/>
<path fill="#143B61" d="M109.5,40.3c-0.3-0.3-0.7-0.5-1.2-0.7c-0.4-0.1-0.9-0.2-1.5-0.2c-0.4,0-0.7,0-0.9,0c-0.3,0-0.4,0.1-0.6,0.1
	c-0.1,0.1-0.3,0.1-0.4,0.2c-0.1,0.1-0.1,0.2-0.1,0.4v5.4h0.1c0,0,0.1,0,0.5,0.1c0.3,0,0.7,0.1,1.4,0.1c0.6,0,1.1-0.1,1.6-0.2
	c0.4-0.1,0.9-0.4,1.2-0.7c0.3-0.3,0.6-0.6,0.7-1c0.1-0.4,0.2-0.9,0.2-1.3c0-0.5-0.1-0.9-0.2-1.3C110,40.9,109.8,40.6,109.5,40.3z
	 M109.1,42.7c0,0.7-0.2,1.2-0.6,1.5c-0.4,0.4-0.9,0.5-1.7,0.5c-0.3,0-0.5,0-0.7,0c-0.1,0-0.1,0-0.1,0v-4c0.1,0,0.1,0,0.1,0
	c0.1,0,0.4,0,0.7,0c0.4,0,0.7,0.1,1,0.1c0.3,0.1,0.5,0.2,0.7,0.4c0.2,0.1,0.3,0.4,0.4,0.7C109,42.1,109.1,42.3,109.1,42.7z"/>
<path fill="#143B61" d="M116.1,40.7c0.1-0.1,0.1-0.1,0.1-0.2c0.1-0.1,0.1-0.2,0.1-0.4c0-0.4-0.2-0.6-0.7-0.6h-3.3
	c-0.5,0-0.7,0.2-0.7,0.7v5.4h4.6v-1.2h-3.4v-1.4h3.1v-0.1c0-0.1,0.1-0.1,0.1-0.2c0.1-0.1,0.1-0.2,0.1-0.4c0-0.4-0.2-0.6-0.7-0.6
	h-2.7v-1.2H116.1z"/>
<path fill="#143B61" d="M122.7,39.6c-0.1-0.1-0.3-0.1-0.4-0.1c-0.2,0-0.4,0.1-0.5,0.1c-0.1,0.1-0.2,0.2-0.3,0.5
	c-0.1,0.3-0.3,0.7-0.4,1c-0.1,0.4-0.3,0.8-0.4,1.2c-0.1,0.4-0.3,0.8-0.4,1.2c-0.1,0.3-0.2,0.5-0.3,0.7c-0.1-0.3-0.3-0.6-0.4-0.9
	c-0.1-0.4-0.4-0.9-0.5-1.3c-0.1-0.4-0.4-0.9-0.5-1.2c-0.1-0.4-0.3-0.7-0.4-1v-0.1H118c0,0-0.1,0-0.1-0.1c-0.1-0.1-0.2-0.1-0.4-0.1
	c-0.2,0-0.4,0.1-0.4,0.1c-0.1,0.1-0.1,0.2-0.1,0.4c0,0.1,0,0.3,0.1,0.4c0.1,0.1,0.1,0.3,0.1,0.4c0,0.1,0.1,0.2,0.1,0.4
	c0.1,0.2,0.1,0.4,0.3,0.7c0.1,0.3,0.2,0.5,0.4,0.9c0.1,0.3,0.3,0.6,0.4,0.9c0.1,0.3,0.3,0.7,0.4,0.9c0.1,0.3,0.3,0.7,0.4,0.9v0.1
	h1.3v-0.1c0.1-0.3,0.3-0.6,0.4-0.9c0.1-0.4,0.3-0.7,0.5-1.1s0.4-0.8,0.5-1.2c0.1-0.4,0.3-0.7,0.4-1.1c0.1-0.4,0.3-0.7,0.4-0.9
	c0.1-0.3,0.1-0.4,0.2-0.6V40l-0.1-0.1C122.9,39.8,122.8,39.7,122.7,39.6z"/>
<path fill="#143B61" d="M128.2,40.7c0.1-0.1,0.1-0.1,0.1-0.2c0.1-0.1,0.1-0.2,0.1-0.4c0-0.4-0.2-0.6-0.7-0.6h-3.3
	c-0.5,0-0.7,0.2-0.7,0.7v5.4h4.6v-1.2H125v-1.4h3.1v-0.1c0-0.1,0.1-0.1,0.1-0.2c0.1-0.1,0.1-0.2,0.1-0.4c0-0.4-0.2-0.6-0.7-0.6h-2.7
	v-1.2H128.2z"/>
<path fill="#143B61" d="M130.8,39.7L130.8,39.7c-0.1,0-0.1,0-0.3-0.1c-0.1,0-0.2-0.1-0.4-0.1c-0.2,0-0.4,0.1-0.5,0.1
	c-0.1,0.1-0.2,0.2-0.2,0.4v5.6h4.3v-1.2h-3L130.8,39.7L130.8,39.7z"/>
<path fill="#143B61" d="M139.7,40.3c-0.3-0.3-0.7-0.5-1-0.7c-0.8-0.4-1.8-0.4-2.6,0c-0.4,0.1-0.7,0.4-1,0.7c-0.3,0.3-0.5,0.7-0.7,1
	c-0.1,0.4-0.2,0.8-0.2,1.3c0,0.4,0.1,0.9,0.2,1.3c0.1,0.4,0.4,0.7,0.7,1c0.3,0.3,0.7,0.5,1,0.7c0.4,0.1,0.8,0.2,1.3,0.2
	c0.5,0,0.9-0.1,1.3-0.2c0.4-0.1,0.7-0.4,1-0.7c0.3-0.3,0.5-0.7,0.7-1c0.1-0.4,0.2-0.8,0.2-1.3s-0.1-0.9-0.2-1.3
	C140.2,41,140,40.6,139.7,40.3z M139.4,42.7c0,0.3-0.1,0.6-0.1,0.8c-0.1,0.2-0.2,0.4-0.4,0.7c-0.1,0.1-0.4,0.3-0.7,0.4
	c-0.5,0.2-1.1,0.2-1.6,0c-0.2-0.1-0.4-0.2-0.7-0.4c-0.1-0.2-0.3-0.4-0.4-0.7c-0.1-0.2-0.1-0.5-0.1-0.8s0.1-0.6,0.1-0.9
	c0.1-0.2,0.2-0.5,0.4-0.7c0.1-0.2,0.4-0.3,0.7-0.4c0.2-0.1,0.5-0.1,0.8-0.1c0.3,0,0.6,0.1,0.8,0.1c0.2,0.1,0.4,0.2,0.7,0.4
	c0.1,0.1,0.3,0.4,0.4,0.7C139.3,42.1,139.4,42.4,139.4,42.7z"/>
<path fill="#143B61" d="M146,40.1c-0.4-0.4-1.2-0.6-2.1-0.6c-0.4,0-0.8,0-1,0c-0.3,0-0.4,0.1-0.5,0.1c-0.1,0-0.3,0.1-0.4,0.2
	c-0.1,0.1-0.1,0.3-0.1,0.5v5.5h1.2v-2.1c0.1,0,0.1,0,0.3,0c0.1,0,0.2,0,0.4,0c0.7,0.1,1.2,0,1.6-0.1c0.4-0.1,0.7-0.3,0.9-0.4
	c0.2-0.2,0.4-0.4,0.5-0.7c0.1-0.3,0.1-0.5,0.1-0.9C146.8,40.9,146.5,40.4,146,40.1z M145.5,41.6c0,0.1,0,0.3-0.1,0.4
	c-0.1,0.1-0.1,0.2-0.2,0.3c-0.1,0.1-0.3,0.1-0.4,0.2c-0.2,0.1-0.4,0.1-0.8,0.1c-0.3,0-0.5,0-0.7-0.1H143c0,0,0,0-0.1,0v-1.9
	c0.1,0,0.1,0,0.2,0c0.1,0,0.4,0,0.7,0c0.4,0,0.6,0,0.8,0.1c0.2,0.1,0.4,0.1,0.5,0.2c0.1,0.1,0.2,0.2,0.2,0.3
	C145.5,41.4,145.5,41.4,145.5,41.6z"/>
<path fill="#143B61" d="M154.6,44.9c0-0.3,0-0.7-0.1-1c0-0.4-0.1-0.7-0.1-1.2l-0.1-2.2c0-0.3,0-0.5-0.1-0.7v-0.1
	c0,0-0.1-0.1-0.3-0.1c-0.1-0.1-0.3-0.1-0.4-0.1c-0.2,0-0.4,0.1-0.5,0.1c-0.1,0.1-0.2,0.2-0.4,0.4c-0.1,0.1-0.1,0.4-0.3,0.6l-0.4,0.9
	c-0.1,0.3-0.3,0.6-0.4,0.9c-0.1,0.2-0.2,0.4-0.3,0.5c-0.1-0.1-0.2-0.4-0.3-0.6c-0.1-0.3-0.4-0.7-0.5-1l-0.8-1.6
	c-0.1-0.1-0.1-0.1-0.3-0.1c-0.1-0.1-0.3-0.1-0.5-0.1c-0.2,0-0.4,0.1-0.5,0.1c-0.1,0.1-0.2,0.3-0.3,0.5c0,0.1,0,0.4-0.1,0.7
	c0,0.3,0,0.6-0.1,0.9c0,0.4-0.1,0.7-0.1,1.1c0,0.4-0.1,0.7-0.1,1.1s-0.1,0.7-0.1,0.9c0,0.3,0,0.5,0,0.7v0.1h1.2v-0.1
	c0-0.1,0-0.3,0-0.6l0.1-0.8c0-0.3,0-0.6,0.1-0.9c0-0.3,0-0.6,0.1-0.9c0-0.3,0-0.5,0.1-0.8c0-0.1,0-0.1,0-0.1
	c0.1,0.1,0.1,0.3,0.2,0.4c0.1,0.3,0.3,0.6,0.4,0.9c0.1,0.3,0.3,0.6,0.4,0.9c0.1,0.3,0.2,0.5,0.3,0.7v0.1h1v-0.1
	c0.1-0.1,0.1-0.2,0.2-0.4c0.1-0.1,0.1-0.4,0.3-0.6c0.1-0.2,0.2-0.4,0.3-0.7l0.3-0.7c0.1-0.2,0.2-0.4,0.3-0.6l0.1,0.8
	c0,0.3,0,0.6,0.1,0.9c0,0.4,0,0.7,0.1,0.9c0,0.3,0,0.6,0.1,0.8c0,0.2,0,0.4,0,0.5v0.1h1.2v-0.1C154.6,45.4,154.6,45.2,154.6,44.9z"
	/>
<path fill="#143B61" d="M160.4,40.7c0.1-0.1,0.1-0.1,0.1-0.2c0.1-0.1,0.1-0.2,0.1-0.4c0-0.4-0.2-0.6-0.7-0.6h-3.3
	c-0.5,0-0.7,0.2-0.7,0.7v5.4h4.6v-1.2h-3.4v-1.4h3.1v-0.1c0-0.1,0.1-0.1,0.1-0.2c0.1-0.1,0.1-0.2,0.1-0.4c0-0.4-0.2-0.6-0.7-0.6
	h-2.7v-1.2H160.4z"/>
<path fill="#143B61" d="M166.9,39.6c-0.1,0-0.2-0.1-0.4-0.1c-0.2,0-0.4,0.1-0.4,0.1c-0.1,0.1-0.1,0.2-0.1,0.4v3.4
	c-0.1-0.1-0.1-0.2-0.2-0.4c-0.1-0.3-0.4-0.5-0.5-0.8l-0.6-0.9c-0.2-0.3-0.4-0.5-0.6-0.8c-0.1-0.2-0.3-0.4-0.4-0.7
	c-0.1-0.1-0.2-0.3-0.3-0.4c-0.1,0-0.1-0.1-0.2-0.1c-0.1-0.1-0.3-0.1-0.4-0.1c-0.2,0-0.4,0.1-0.5,0.1c-0.1,0.1-0.2,0.3-0.2,0.5v5.5
	h1.2v-4.2c0.1,0.1,0.2,0.3,0.3,0.4c0.2,0.3,0.4,0.5,0.6,0.8l1.1,1.7c0.1,0.3,0.4,0.5,0.5,0.7l0.4,0.7h1.2v-6h-0.1
	C167,39.7,167,39.6,166.9,39.6z"/>
<path fill="#143B61" d="M173.1,39.5h-5v0.1c0,0-0.1,0.1-0.1,0.2c-0.1,0.1-0.1,0.2-0.1,0.4c0,0.4,0.2,0.6,0.7,0.6h1.6v5h1.2v-5h2.1
	v-0.1c0-0.1,0.1-0.1,0.1-0.2c0-0.1,0.1-0.2,0.1-0.4C173.7,39.8,173.5,39.5,173.1,39.5z"/>
<path fill="#143B61" d="M181.4,42.5L181.4,42.5c0.1-0.1,0.3-0.2,0.4-0.4c0.1-0.1,0.1-0.2,0.2-0.4c0.1-0.1,0.1-0.4,0.1-0.5
	c0-0.2-0.1-0.4-0.1-0.7c-0.1-0.2-0.2-0.4-0.4-0.6c-0.2-0.1-0.5-0.3-0.9-0.4c-0.4-0.1-0.8-0.1-1.3-0.1c-0.5,0-0.9,0-1.1,0
	c-0.3,0-0.4,0.1-0.6,0.1c-0.1,0-0.3,0.1-0.4,0.2c-0.1,0.1-0.1,0.3-0.1,0.5v5.5h0.1c0,0,0.1,0,0.2,0c0.1,0,0.3,0,0.5,0
	c0.2,0,0.4,0,0.7,0c0.2,0,0.5,0,0.8,0c0.6,0,1.1-0.1,1.4-0.1c0.4-0.1,0.7-0.2,0.9-0.4c0.2-0.1,0.4-0.4,0.4-0.6
	c0.1-0.2,0.1-0.4,0.1-0.7c0-0.4-0.1-0.7-0.3-0.9C181.7,42.8,181.6,42.6,181.4,42.5z M180.7,43.4c0.1,0.1,0.1,0.1,0.1,0.2
	c0,0.1,0.1,0.2,0.1,0.3c0,0.1,0,0.3-0.1,0.4c-0.1,0.1-0.1,0.1-0.2,0.2c-0.1,0.1-0.3,0.1-0.4,0.1c-0.2,0.1-0.4,0.1-0.7,0.1
	c-0.4,0-0.7,0-0.9,0c-0.1,0-0.2,0-0.3,0v-1.5h1.6c0.2,0,0.4,0,0.5,0.1C180.5,43.2,180.7,43.3,180.7,43.4z M180.7,41.6
	c0,0.1-0.1,0.1-0.1,0.2c-0.1,0.1-0.1,0.1-0.3,0.1c-0.1,0.1-0.3,0.1-0.5,0.1h-1.5v-1.4c0.1,0,0.1,0,0.3,0c0.2,0,0.5,0,0.8,0
	c0.3,0,0.5,0,0.7,0.1c0.1,0.1,0.3,0.1,0.4,0.1c0.1,0.1,0.1,0.1,0.2,0.2c0.1,0.1,0.1,0.2,0.1,0.3C180.7,41.4,180.7,41.5,180.7,41.6z"
	/>
<path fill="#143B61" d="M189,44.9c-0.1-0.3-0.2-0.7-0.4-1c-0.1-0.4-0.3-0.8-0.5-1.2c-0.1-0.4-0.4-0.9-0.5-1.2s-0.4-0.7-0.5-1.1
	c-0.1-0.3-0.3-0.6-0.4-0.7c0,0,0,0-0.1-0.1c-0.1,0-0.1-0.1-0.1-0.1s-0.1-0.1-0.2-0.1c-0.1,0-0.1,0-0.2,0c-0.2,0-0.4,0.1-0.6,0.1
	c-0.1,0.1-0.3,0.3-0.4,0.5c-0.2,0.4-0.4,0.9-0.7,1.5c-0.2,0.5-0.4,0.9-0.6,1.5c-0.2,0.4-0.4,0.9-0.6,1.4c-0.1,0.4-0.4,0.9-0.5,1.2
	l-0.1,0.1h1.3v-0.1c0.1-0.1,0.1-0.4,0.2-0.7c0.1-0.2,0.2-0.5,0.3-0.8h2.8c0.1,0.1,0.1,0.2,0.1,0.3c0.1,0.1,0.1,0.3,0.1,0.4
	c0,0.1,0.1,0.3,0.1,0.4c0.1,0.1,0.1,0.2,0.1,0.3v0.1h1.4l-0.1-0.1C189.2,45.4,189.1,45.2,189,44.9z M186.9,43H185
	c0.1-0.1,0.1-0.4,0.2-0.5c0.1-0.2,0.2-0.4,0.3-0.7c0.1-0.2,0.2-0.4,0.3-0.7c0.1-0.1,0.1-0.2,0.1-0.3c0,0.1,0.1,0.1,0.1,0.2
	c0.1,0.2,0.2,0.4,0.3,0.7c0.1,0.2,0.2,0.5,0.3,0.7C186.7,42.7,186.8,42.9,186.9,43z"/>
<path fill="#143B61" d="M195.1,39.6c-0.1,0-0.2-0.1-0.4-0.1c-0.2,0-0.4,0.1-0.4,0.1c-0.1,0.1-0.1,0.2-0.1,0.4v3.4
	c-0.1-0.1-0.1-0.2-0.2-0.4c-0.1-0.3-0.4-0.5-0.5-0.8l-0.6-0.9c-0.2-0.3-0.4-0.5-0.6-0.8c-0.1-0.2-0.3-0.4-0.4-0.7
	c-0.1-0.1-0.2-0.3-0.3-0.4c-0.1,0-0.1-0.1-0.2-0.1c-0.1-0.1-0.3-0.1-0.4-0.1c-0.2,0-0.4,0.1-0.5,0.1c-0.1,0.1-0.2,0.3-0.2,0.5v5.5
	h1.2v-4.2c0.1,0.1,0.2,0.3,0.3,0.4c0.1,0.3,0.4,0.5,0.6,0.8l1.1,1.7c0.1,0.3,0.4,0.5,0.5,0.7l0.4,0.7h1.2v-6h-0.1
	C195.2,39.7,195.1,39.6,195.1,39.6z"/>
<path fill="#143B61" d="M202,45.6c-0.4-0.6-0.9-1.1-1.4-1.6c-0.5-0.5-1-0.9-1.5-1.5c0.1-0.1,0.2-0.1,0.3-0.3
	c0.1-0.1,0.4-0.3,0.6-0.5l0.6-0.5c0.2-0.1,0.4-0.4,0.6-0.5c0.1-0.1,0.3-0.3,0.4-0.4c0.1-0.1,0.2-0.1,0.2-0.2l0.1-0.1l-0.1-0.1
	c-0.1-0.1-0.1-0.1-0.2-0.2c-0.1-0.1-0.3-0.1-0.5-0.1s-0.4,0.1-0.5,0.1c-0.1,0.1-0.3,0.1-0.4,0.3c-0.1,0.1-0.3,0.2-0.4,0.4
	c-0.2,0.1-0.4,0.4-0.7,0.6c-0.2,0.2-0.4,0.4-0.7,0.7c-0.1,0.1-0.2,0.2-0.4,0.3v-2.2H198c0,0-0.1,0-0.2-0.1c-0.1,0-0.2-0.1-0.4-0.1
	c-0.2,0-0.4,0.1-0.5,0.1c-0.1,0.1-0.2,0.2-0.2,0.4v5.6h1.2v-2.6c0.2,0.1,0.4,0.3,0.6,0.5c0.3,0.2,0.5,0.5,0.7,0.7
	c0.2,0.2,0.4,0.5,0.7,0.7c0.2,0.2,0.4,0.4,0.5,0.6v0.1h1.6L202,45.6z"/>
<path fill="#143B61" d="M195.4,26.6c0.5,0,0.9-0.4,0.9-0.9s-0.4-0.9-0.9-0.9c-0.5,0-0.9,0.4-0.9,0.9S194.9,26.6,195.4,26.6z"/>
<path fill="#143B61" d="M129.4,25.4v8.9h1.7v-9.7c-0.1,0-0.4-0.1-0.7-0.1C129.6,24.5,129.4,24.7,129.4,25.4z"/>
<path fill="#143B61" d="M125.8,25.4v6.1c0,0.9-0.4,1.3-1.3,1.3h-0.9v-6c-0.1,0-0.4-0.1-0.7-0.1c-0.7,0-0.9,0.3-0.9,0.9v5.2h-1.7
	c-0.6,0-0.9,0.2-0.9,0.8c0,0.3,0.1,0.6,0.1,0.7h5c0.9,0,1.5-0.3,2.1-0.8c0.5-0.5,0.8-1.2,0.8-2v-6.9c-0.1,0-0.4-0.1-0.7-0.1
	C126.1,24.5,125.8,24.7,125.8,25.4z"/>
<path fill="#143B61" d="M86.6,29c0.4,0,0.8,0.1,1.2,0.3c0.4,0.1,0.6,0.1,0.7-0.1c0.1-0.2,0.4-0.7,0.4-0.9c-0.5-0.3-1.5-0.7-2.2-0.7
	c-1.9,0-3.1,1.1-3.1,2.9v2.3H81c-0.7,0-1.3-0.6-1.3-1.3v-3.6c-0.1,0-0.1,0-0.2-0.1c-0.2-0.1-0.4-0.1-0.5-0.1c-0.7,0-0.9,0.3-0.9,0.9
	v2.8c0,0.9-0.4,1.3-1.3,1.3h-1.6c-0.9,0-1.2-0.4-1.3-1.3v-3.4c-0.3-0.1-0.6-0.1-0.9-0.2c-0.3-0.1-0.7-0.1-1-0.1
	c-0.4-0.1-0.7-0.1-1.1-0.1c-0.6,0-1.1,0.1-1.4,0.2c-0.4,0.1-0.7,0.4-0.9,0.7c-0.2,0.3-0.4,0.7-0.5,1c-0.1,0.4-0.1,0.8-0.1,1.2
	c0,0.7,0.1,1.4,0.3,1.8c0.2,0.4,0.4,0.8,0.7,1c0.3,0.2,0.7,0.4,0.9,0.5c0.4,0.1,0.7,0.1,1.1,0.1c0.4,0,0.7-0.1,1.1-0.1
	s0.7-0.2,0.9-0.5c0.1-0.1,0.1-0.1,0.1-0.1l0.1-0.1l0.1,0.1c0.4,0.5,1.1,0.7,2.1,0.7h1.7c0.8,0,1.5-0.2,2-0.7H79h0.1
	c0.5,0.4,1.2,0.7,2,0.7H89c0-0.1,0.1-0.4,0.1-0.7c0-0.6-0.2-0.8-0.8-0.8h-2.8v-2.5C85.2,29.6,85.8,29,86.6,29z M72.2,32.3
	c-0.2,0.1-0.5,0.4-1.4,0.4c-0.4,0-0.8-0.1-1.1-0.4c-0.3-0.3-0.4-0.8-0.4-1.5c0-0.4,0.1-0.7,0.1-0.9c0.1-0.2,0.2-0.4,0.4-0.6
	c0.1-0.1,0.3-0.2,0.5-0.3c0.2-0.1,0.4-0.1,0.7-0.1c0.1,0,0.3,0,0.5,0c0.2,0,0.4,0.1,0.7,0.1h0.1L72.2,32.3L72.2,32.3z"/>
<path fill="#143B61" d="M114.4,27.6c-1,0-2,0.3-3,0.9l0.3,0.9c0.1,0.1,0.1,0.2,0.2,0.2c0.1,0.1,0.4,0.1,0.5,0c0.8-0.4,1.4-0.5,2-0.5
	c0.9,0,1.5,0.4,1.8,1.1c0.2,0.5,0.3,1.1,0.3,2.1v0.4h-7.3c-0.7,0-1.3-0.6-1.3-1.3v-3.6c-0.1,0-0.4-0.1-0.7-0.1
	c-0.7,0-0.9,0.3-0.9,0.9v2.8c0,0.9-0.4,1.3-1.3,1.3h-1.2c-0.9,0-1.4-0.4-1.7-1.3c-0.1-0.9-0.4-1.6-0.9-2c-0.5-0.4-1.2-0.7-2.2-0.7
	c-1.8,0-2.8,0.9-3,2.7c-0.1,0.9-0.6,1.2-1.6,1.2h-1.8c-0.4,0-0.6-0.1-0.6-0.6v-7.6c-0.1,0-0.4-0.1-0.7-0.1c-0.7,0-0.9,0.3-0.9,0.9
	v6.9c0,1.2,0.8,2,2,2h2c0.7,0,1.2-0.2,1.7-0.6l0.1-0.1v0.1c0.5,1,1.5,1.5,2.8,1.5c1.4,0,2.4-0.7,2.8-1.7v-0.1l0.1,0.1
	c0.4,0.4,0.9,0.7,1.5,0.7h0.1h1.4c0.8,0,1.5-0.2,2-0.7h0.1h0.1c0.5,0.4,1.2,0.7,2,0.7h8.3c0.4,0,0.7-0.4,0.7-0.7v-1.2
	c0-1.4-0.1-2.2-0.6-3C117,28.2,115.9,27.6,114.4,27.6z M99.1,33.8c-0.6,0-1.4-0.2-1.4-1.8c0-1.6,0.8-1.7,1.4-1.7
	c0.6,0,1.4,0.2,1.4,1.7C100.4,33.6,99.7,33.8,99.1,33.8z"/>
<path fill="#143B61" d="M200.5,28.7v2.8c0,0.9-0.4,1.3-1.3,1.3h-1.7c-0.9,0-1.3-0.4-1.3-1.3v-3.6c-0.1,0-0.4-0.1-0.7-0.1
	c-0.7,0-0.9,0.3-0.9,0.9v2.8c0,0.9-0.4,1.3-1.3,1.3h-1.4c-1.1,0-1.6-0.6-1.6-1.7v-6.5c-0.1,0-0.4-0.1-0.7-0.1
	c-0.7,0-0.9,0.3-0.9,0.9v6.1c0,0.9-0.4,1.3-1.3,1.3h-4.4c-0.9,0-1.3-0.4-1.3-1.3v-3.6c-0.1,0-0.4-0.1-0.7-0.1
	c-0.7,0-0.9,0.3-0.9,0.9v2.9c0,1.6,1.1,2.6,2.8,2.6h4.7c1,0,1.7-0.3,2.2-0.9l0.1-0.1l0.1,0.1c0.5,0.6,1.2,0.9,2.1,0.9h1.6
	c0.8,0,1.5-0.2,2-0.7h0.1h0.1c0.5,0.4,1.2,0.7,2,0.7h1.9c0.9,0,1.6-0.3,2.1-0.8c0.5-0.5,0.8-1.2,0.8-2v-3.6c-0.1,0-0.4-0.1-0.7-0.1
	C200.8,27.8,200.5,28.1,200.5,28.7z"/>
<path fill="#143B61" d="M175.6,25.4v8.9h1.7v-9.7c-0.1,0-0.4-0.1-0.7-0.1C175.8,24.5,175.6,24.7,175.6,25.4z"/>
<path fill="#143B61" d="M172.1,25.4v6.1c0,0.9-0.4,1.3-1.3,1.3h-1.6c-0.9,0-1.3-0.4-1.3-1.3v-3.6c-0.1,0-0.4-0.1-0.7-0.1
	c-0.7,0-0.9,0.3-0.9,0.9v2.8c0,0.9-0.4,1.3-1.3,1.3h-1.7c-0.9,0-1.3-0.4-1.3-1.3v-3.6c-0.1,0-0.4-0.1-0.7-0.1
	c-0.7,0-0.9,0.3-0.9,0.9v2.8c0,0.9-0.4,1.3-1.3,1.3h-1.4c-0.9,0-1.4-0.4-1.7-1.3c-0.1-0.9-0.4-1.6-0.9-2c-0.5-0.4-1.2-0.7-2.2-0.7
	c-1.8,0-2.8,0.9-3,2.7c-0.1,0.9-0.7,1.3-1.6,1.3H147c-0.9,0-1.3-0.4-1.3-1.3v-3.6c-0.1,0-0.4-0.1-0.7-0.1c-0.7,0-0.9,0.3-0.9,0.9
	v2.8c0,0.9-0.4,1.3-1.3,1.3H141c-0.9,0-1.2-0.4-1.2-1.3v-3.4c-0.3-0.1-0.6-0.1-0.9-0.2c-0.3-0.1-0.7-0.1-1-0.1
	c-0.4-0.1-0.7-0.1-1.1-0.1c-0.6,0-1.1,0.1-1.4,0.2c-0.4,0.1-0.7,0.4-0.9,0.7c-0.2,0.3-0.4,0.7-0.5,1c-0.1,0.4-0.1,0.8-0.1,1.2
	c0,0.7,0.1,1.4,0.3,1.8c0.2,0.4,0.4,0.8,0.7,1c0.3,0.2,0.7,0.4,0.9,0.5c0.4,0.1,0.7,0.1,1.1,0.1s0.7-0.1,1.1-0.1
	c0.4-0.1,0.7-0.2,0.9-0.5c0.1-0.1,0.1-0.1,0.1-0.1l0.1-0.1l0.1,0.1c0.4,0.5,1.1,0.7,2.1,0.7h1.9c0.8,0,1.5-0.2,2-0.7h0.1h0.1
	c0.5,0.4,1.2,0.7,2,0.7h1.4c0.7,0,1.2-0.2,1.7-0.6l0.1-0.1v0.1c0.5,1,1.5,1.5,2.8,1.5c1.4,0,2.4-0.7,2.8-1.7v-0.1l0.1,0.1
	c0.4,0.4,0.9,0.7,1.5,0.7h1.7c0.8,0,1.5-0.2,2-0.7h0.1h0.1c0.5,0.4,1.2,0.7,2,0.7h1.8c0.8,0,1.5-0.2,2-0.7h0.1h0.1
	c0.5,0.4,1.2,0.7,2,0.7h1.7c0.9,0,1.5-0.3,2.1-0.8c0.5-0.5,0.8-1.2,0.8-2v-6.8c-0.1,0-0.4-0.1-0.7-0.1
	C172.3,24.5,172.1,24.7,172.1,25.4z M138.3,32.3c-0.2,0.1-0.5,0.4-1.4,0.4c-0.4,0-0.8-0.1-1.1-0.4c-0.3-0.3-0.4-0.8-0.4-1.5
	c0-0.4,0.1-0.7,0.1-0.9c0.1-0.2,0.2-0.4,0.4-0.6c0.1-0.1,0.3-0.2,0.5-0.3c0.2-0.1,0.4-0.1,0.7-0.1c0.1,0,0.3,0,0.5,0
	c0.2,0,0.4,0.1,0.7,0.1h0.1L138.3,32.3L138.3,32.3z M153.1,33.8c-0.2,0-0.7,0-0.9-0.3c-0.3-0.3-0.4-0.8-0.4-1.5
	c0-1.6,0.8-1.7,1.4-1.7c0.2,0,0.7,0,0.9,0.3c0.3,0.3,0.4,0.8,0.4,1.5C154.4,33.6,153.6,33.8,153.1,33.8z"/>
<path fill="#143B61" d="M186.2,30c0-0.3-0.1-0.4-0.4-0.4h-1.2V29c0-0.4,0.3-0.6,0.6-0.6c0.1,0,0.4,0.1,0.5,0.1
	c0.1,0.1,0.3,0.1,0.4-0.1c0.1-0.1,0.2-0.4,0.2-0.4c-0.2-0.1-0.7-0.4-1-0.4c-0.9,0-1.4,0.6-1.4,1.3v1.2h2.3
	C186.2,30.3,186.2,30.1,186.2,30z"/>
<path fill="#143B61" d="M198.5,37c0.5,0,0.9-0.4,0.9-0.9s-0.4-0.9-0.9-0.9c-0.5,0-0.9,0.4-0.9,0.9S198,37,198.5,37z"/>
<path fill="#143B61" d="M72,26.6c0.5,0,0.9-0.4,0.9-0.9s-0.4-0.9-0.9-0.9c-0.5,0-0.9,0.4-0.9,0.9C71.1,26.3,71.5,26.6,72,26.6z"/>
<path fill="#143B61" d="M69.6,26.6c0.5,0,0.9-0.4,0.9-0.9s-0.4-0.9-0.9-0.9c-0.5,0-0.9,0.4-0.9,0.9C68.7,26.3,69.1,26.6,69.6,26.6z"
	/>
<path fill="#143B61" d="M80,35.3c-0.5,0-0.9,0.4-0.9,0.9c0,0.5,0.4,0.9,0.9,0.9c0.5,0,0.9-0.4,0.9-0.9S80.5,35.3,80,35.3z"/>
<path fill="#143B61" d="M77.7,35.3c-0.5,0-0.9,0.4-0.9,0.9s0.4,0.9,0.9,0.9c0.5,0,0.9-0.4,0.9-0.9C78.5,35.6,78.2,35.3,77.7,35.3z"
	/>
<path fill="#143B61" d="M105.9,26.6c0.5,0,0.9-0.4,0.9-0.9s-0.4-0.9-0.9-0.9c-0.5,0-0.9,0.4-0.9,0.9C105,26.3,105.4,26.6,105.9,26.6
	z"/>
<path fill="#143B61" d="M108.2,26.6c0.5,0,0.9-0.4,0.9-0.9s-0.4-0.9-0.9-0.9c-0.5,0-0.9,0.4-0.9,0.9
	C107.4,26.3,107.7,26.6,108.2,26.6z"/>
<path fill="#143B61" d="M114.8,35.3c-0.5,0-0.9,0.4-0.9,0.9c0,0.5,0.4,0.9,0.9,0.9c0.5,0,0.9-0.4,0.9-0.9S115.3,35.3,114.8,35.3z"/>
<path fill="#143B61" d="M146.3,35.3c-0.5,0-0.9,0.4-0.9,0.9c0,0.5,0.4,0.9,0.9,0.9c0.5,0,0.9-0.4,0.9-0.9
	C147.1,35.6,146.7,35.3,146.3,35.3z"/>
<path fill="#143B61" d="M143.9,35.3c-0.5,0-0.9,0.4-0.9,0.9s0.4,0.9,0.9,0.9c0.5,0,0.9-0.4,0.9-0.9S144.4,35.3,143.9,35.3z"/>
<path fill="#143B61" d="M161.2,26.6c0.5,0,0.9-0.4,0.9-0.9s-0.4-0.9-0.9-0.9s-0.9,0.4-0.9,0.9C160.4,26.3,160.8,26.6,161.2,26.6z"/>
<path fill="#143B61" d="M165.9,26.6c0.5,0,0.9-0.4,0.9-0.9s-0.4-0.9-0.9-0.9c-0.5,0-0.9,0.4-0.9,0.9
	C165.1,26.3,165.5,26.6,165.9,26.6z"/>
<path fill="#143B61" d="M168.3,26.6c0.5,0,0.9-0.4,0.9-0.9s-0.4-0.9-0.9-0.9c-0.5,0-0.9,0.4-0.9,0.9
	C167.4,26.3,167.8,26.6,168.3,26.6z"/>
<path fill="#143B61" d="M138,26.6c0.5,0,0.9-0.4,0.9-0.9s-0.4-0.9-0.9-0.9c-0.5,0-0.9,0.4-0.9,0.9C137.1,26.3,137.6,26.6,138,26.6z"
	/>
<path fill="#143B61" d="M135.7,26.6c0.5,0,0.9-0.4,0.9-0.9s-0.4-0.9-0.9-0.9s-0.9,0.4-0.9,0.9C134.7,26.3,135.2,26.6,135.7,26.6z"/>
<path fill="#143B61" d="M224.8,24.5h5.4c3.1,0,5.6-2.5,5.6-5.6v-5.4c0-0.7,0.6-1.3,1.3-1.3h5.4c3.1,0,5.6-2.5,5.6-5.6V0h-6.6
	c-3.1,0-5.6,2.5-5.6,5.6V11c0,0.7-0.6,1.3-1.3,1.3h-5.4c-3.1,0-5.6,2.5-5.6,5.6v5.3c0,0.7-0.6,1.3-1.3,1.3h-5.4
	c-3.1,0-5.6,2.5-5.6,5.6v6.6c0,10.2,8.2,18.4,18.3,18.4c10.1,0,18.3-8.2,18.3-18.4V24.4h-6.6c-3.1,0-5.6,2.5-5.6,5.6v6.6
	c0,3.4-2.8,6.1-6.1,6.1c-3.3,0-6.1-2.8-6.1-6.1V25.8C223.5,25,224.1,24.5,224.8,24.5z"/>
</svg>
