<?xml version="1.0" encoding="utf-8"?>
<!-- Generator: Adobe Illustrator 26.5.0, SVG Export Plug-In . SVG Version: 6.00 Build 0)  -->
<svg version="1.1" id="Layer_1" xmlns="http://www.w3.org/2000/svg" xmlns:xlink="http://www.w3.org/1999/xlink" x="0px" y="0px"
	 viewBox="0 0 265 90" style="enable-background:new 0 0 265 90;" xml:space="preserve">
<style type="text/css">
	.st0{fill:#1E3557;}
</style>
<g id="XMLID_319_">
	<g id="XMLID_321_">
		<g id="XMLID_355_">
			<g id="XMLID_356_">
				<path id="XMLID_317_" class="st0" d="M12.8,65.1l-1.3-0.3c-0.5-0.1-0.9-0.2-1.1-0.4c-0.2-0.1-0.3-0.3-0.3-0.6
					c0-0.2,0-0.3,0.1-0.4c0.1-0.1,0.1-0.2,0.3-0.3c0.1-0.1,0.3-0.2,0.5-0.2c0.5-0.1,1.2-0.1,1.8,0c0.3,0.1,0.5,0.1,0.8,0.2
					c0.2,0.1,0.4,0.2,0.5,0.3s0.2,0.2,0.3,0.2l0.1,0.1l0.1-0.1c0.1-0.1,0.2-0.2,0.4-0.4c0.1-0.2,0.2-0.4,0.2-0.6
					c0-0.2-0.1-0.3-0.2-0.5c-0.1-0.1-0.2-0.2-0.4-0.3c-0.1,0-0.2-0.1-0.3-0.2c-0.1-0.1-0.3-0.1-0.6-0.2c-0.2-0.1-0.5-0.1-0.8-0.2
					c-0.3,0-0.7-0.1-1.1-0.1c-0.6,0-1.1,0.1-1.6,0.2c-0.4,0.1-0.8,0.3-1.1,0.6c-0.3,0.2-0.5,0.5-0.6,0.9c-0.1,0.3-0.2,0.7-0.2,1
					c0,0.4,0.1,0.7,0.2,1c0.2,0.3,0.4,0.5,0.6,0.7c0.3,0.2,0.5,0.3,0.9,0.5c0.3,0.1,0.7,0.2,1,0.3l1.3,0.2c0.2,0,0.4,0.1,0.6,0.1
					c0.2,0.1,0.3,0.1,0.4,0.2s0.2,0.2,0.2,0.3c0.1,0.1,0.1,0.2,0.1,0.4c0,0.3-0.1,0.6-0.4,0.7c-0.3,0.2-0.7,0.3-1.4,0.3
					c-0.4,0-0.7,0-1-0.1s-0.6-0.1-0.9-0.2S9.4,68,9.3,67.9c-0.2-0.1-0.3-0.2-0.4-0.2l-0.1-0.1L8,69l0.1,0.1c0.1,0.1,0.3,0.2,0.5,0.3
					c0.2,0.1,0.5,0.2,0.8,0.3c0.3,0.1,0.7,0.2,1.1,0.3c0.4,0.1,0.9,0.1,1.3,0.1c0.6,0,1.1-0.1,1.5-0.2c0.5-0.1,0.8-0.3,1.1-0.5
					c0.3-0.2,0.5-0.5,0.7-0.9c0.2-0.3,0.2-0.7,0.2-1.1c0-0.7-0.2-1.3-0.7-1.7C14.3,65.6,13.7,65.3,12.8,65.1z"/>
				<path id="XMLID_389_" class="st0" d="M24.6,62.7c-0.4-0.4-0.9-0.7-1.4-0.9c-1.1-0.5-2.5-0.5-3.6,0c-0.5,0.2-1,0.5-1.4,0.9
					s-0.7,0.9-1,1.4c-0.2,0.5-0.3,1.1-0.3,1.8c0,0.6,0.1,1.2,0.3,1.8c0.2,0.5,0.6,1,1,1.4s0.9,0.7,1.4,0.9c0.5,0.2,1.1,0.3,1.8,0.3
					s1.2-0.1,1.8-0.3c0.5-0.2,1-0.5,1.4-0.9s0.7-0.9,1-1.4c0.2-0.5,0.3-1.1,0.3-1.8s-0.1-1.2-0.3-1.8C25.3,63.6,25,63.1,24.6,62.7z
					 M24.1,65.9c0,0.4-0.1,0.8-0.2,1.1c-0.1,0.3-0.3,0.6-0.6,0.9c-0.2,0.2-0.5,0.4-0.9,0.6c-0.7,0.3-1.5,0.3-2.2,0
					c-0.3-0.1-0.6-0.3-0.9-0.6c-0.2-0.3-0.4-0.6-0.6-0.9c-0.1-0.3-0.2-0.7-0.2-1.1s0.1-0.8,0.2-1.2c0.1-0.3,0.3-0.7,0.6-0.9
					c0.2-0.3,0.5-0.4,0.9-0.6c0.3-0.1,0.7-0.2,1.1-0.2s0.8,0.1,1.1,0.2c0.3,0.1,0.6,0.3,0.9,0.6c0.2,0.2,0.4,0.6,0.6,0.9
					C24,65.1,24.1,65.5,24.1,65.9z"/>
				<path id="XMLID_314_" class="st0" d="M33.9,68.1L33.9,68.1c-0.3,0.2-0.5,0.3-0.9,0.4c-0.3,0.1-0.8,0.2-1.2,0.2
					c-0.4,0-0.8-0.1-1.1-0.2c-0.3-0.1-0.6-0.3-0.9-0.5s-0.5-0.5-0.6-0.9c-0.1-0.3-0.2-0.8-0.2-1.2c0-0.5,0.1-0.9,0.2-1.2
					c0.1-0.4,0.3-0.7,0.6-0.9c0.2-0.2,0.5-0.4,0.8-0.6c0.6-0.2,1.3-0.2,1.8-0.1c0.2,0.1,0.4,0.1,0.6,0.2c0.2,0.1,0.3,0.2,0.5,0.3
					c0.1,0.1,0.2,0.2,0.3,0.3l0.1,0.1l0.1-0.1c0.1,0,0.1-0.1,0.2-0.1c0.1-0.1,0.1-0.1,0.2-0.2c0.1-0.1,0.1-0.2,0.2-0.3
					s0.1-0.2,0.1-0.4c0-0.1,0-0.3-0.1-0.4c-0.1-0.2-0.3-0.3-0.5-0.5c-0.2-0.1-0.5-0.3-0.9-0.4c-0.4-0.1-0.9-0.1-1.4-0.1
					c-0.6,0-1.2,0.1-1.7,0.3s-1,0.5-1.4,0.9s-0.7,0.9-1,1.4c-0.2,0.6-0.4,1.2-0.4,1.9c0,0.7,0.1,1.4,0.4,1.9c0.2,0.6,0.6,1,1,1.4
					s0.9,0.7,1.4,0.8c0.5,0.2,1.1,0.3,1.7,0.3c0.4,0,0.8,0,1.1-0.1c0.3-0.1,0.6-0.1,0.9-0.2c0.2-0.1,0.4-0.2,0.6-0.3
					c0.2-0.1,0.3-0.2,0.4-0.2l0.1-0.1L33.9,68.1z"/>
				<path id="XMLID_313_" class="st0" d="M37.2,61.7c-0.1,0-0.3-0.1-0.5-0.1c-0.3,0-0.5,0.1-0.7,0.2c-0.2,0.1-0.3,0.3-0.3,0.6v7.7
					h1.7v-8.3L37.2,61.7C37.4,61.8,37.3,61.7,37.2,61.7z"/>
				<path id="XMLID_384_" class="st0" d="M47.3,69c-0.2-0.4-0.3-0.9-0.6-1.4c-0.2-0.5-0.4-1.1-0.7-1.7c-0.2-0.6-0.5-1.2-0.7-1.7
					c-0.2-0.5-0.5-1-0.7-1.5c-0.2-0.4-0.4-0.8-0.5-1l0,0c0,0,0,0-0.1-0.1c-0.1,0-0.1-0.1-0.2-0.1c-0.1,0-0.2-0.1-0.3-0.1
					s-0.2,0-0.3,0c-0.3,0-0.6,0.1-0.8,0.2c-0.2,0.1-0.4,0.4-0.5,0.7c-0.3,0.6-0.6,1.3-0.9,2c-0.3,0.7-0.6,1.3-0.8,2
					c-0.3,0.6-0.5,1.3-0.8,1.9c-0.2,0.6-0.5,1.2-0.7,1.7l-0.1,0.2h1.8V70c0.1-0.2,0.2-0.6,0.3-0.9s0.3-0.7,0.4-1.1h3.8
					c0.1,0.1,0.1,0.3,0.2,0.4c0.1,0.2,0.2,0.4,0.2,0.6l0.2,0.6c0.1,0.2,0.1,0.3,0.2,0.4v0.1h1.9l-0.1-0.2
					C47.5,69.7,47.4,69.4,47.3,69z M44.3,66.4h-2.5c0.1-0.2,0.2-0.5,0.3-0.7c0.1-0.3,0.3-0.6,0.4-1c0.1-0.3,0.3-0.6,0.4-0.9
					c0.1-0.2,0.1-0.3,0.2-0.4c0,0.1,0.1,0.2,0.1,0.3c0.1,0.3,0.3,0.6,0.4,0.9c0.1,0.3,0.3,0.7,0.4,1C44.1,65.9,44.2,66.2,44.3,66.4z
					"/>
				<path id="XMLID_310_" class="st0" d="M50.4,61.8h-0.1c0,0-0.1,0-0.3-0.1c-0.1,0-0.3-0.1-0.5-0.1c-0.3,0-0.5,0.1-0.7,0.2
					c-0.2,0.1-0.3,0.3-0.3,0.6v7.7h6v-1.6h-4.2v-6.7H50.4z"/>
				<path id="XMLID_380_" class="st0" d="M65.7,62.7c-0.4-0.4-1-0.7-1.6-0.9s-1.3-0.3-2.1-0.3c-0.5,0-1,0-1.3,0
					c-0.4,0-0.6,0.1-0.8,0.1c-0.2,0.1-0.4,0.2-0.5,0.3s-0.1,0.3-0.1,0.6V70h0.1c0,0,0.1,0,0.7,0.1c0.4,0,1,0.1,1.9,0.1
					c0.8,0,1.5-0.1,2.2-0.3c0.6-0.2,1.2-0.5,1.6-0.9c0.4-0.4,0.8-0.8,1-1.4c0.2-0.5,0.3-1.2,0.3-1.8c0-0.7-0.1-1.3-0.3-1.8
					C66.4,63.5,66.1,63,65.7,62.7z M65.2,65.9c0,0.9-0.3,1.6-0.8,2.1s-1.3,0.7-2.4,0.7c-0.4,0-0.7,0-0.9,0c-0.1,0-0.2,0-0.2,0v-5.5
					c0.1,0,0.1,0,0.2,0c0.2,0,0.5,0,0.9,0c0.6,0,1,0.1,1.4,0.2c0.4,0.1,0.7,0.3,1,0.6c0.3,0.2,0.4,0.5,0.6,0.9
					C65.1,65.1,65.2,65.4,65.2,65.9z"/>
				<path id="XMLID_307_" class="st0" d="M74.8,63.2L74.8,63.2c0.1-0.1,0.1-0.2,0.2-0.3c0.1-0.1,0.1-0.3,0.1-0.5
					c0-0.5-0.3-0.8-0.9-0.8h-4.6c-0.7,0-1,0.3-1,1v7.5H75v-1.6h-4.7v-1.9h4.3v-0.1c0-0.1,0.1-0.1,0.1-0.3c0.1-0.1,0.1-0.3,0.1-0.5
					c0-0.5-0.3-0.8-0.9-0.8h-3.7v-1.7H74.8z"/>
				<path id="XMLID_306_" class="st0" d="M84,61.7c-0.2-0.1-0.4-0.1-0.6-0.1c-0.3,0-0.5,0.1-0.7,0.2c-0.1,0.1-0.3,0.3-0.4,0.7
					c-0.2,0.4-0.4,0.9-0.6,1.4c-0.2,0.5-0.4,1.1-0.6,1.6c-0.2,0.5-0.4,1.1-0.6,1.6c-0.2,0.4-0.3,0.7-0.4,1c-0.2-0.4-0.4-0.8-0.6-1.3
					c-0.2-0.6-0.5-1.2-0.7-1.8c-0.2-0.6-0.5-1.2-0.7-1.7c-0.2-0.6-0.4-1-0.5-1.4v-0.1h-0.1c0,0-0.1,0-0.2-0.1
					c-0.1-0.1-0.3-0.1-0.5-0.1c-0.3,0-0.5,0.1-0.6,0.2c-0.1,0.1-0.2,0.3-0.2,0.6c0,0.2,0,0.4,0.1,0.6c0.1,0.2,0.1,0.4,0.2,0.6
					c0,0.1,0.1,0.3,0.2,0.6c0.1,0.3,0.2,0.6,0.4,0.9c0.1,0.4,0.3,0.7,0.5,1.2c0.2,0.4,0.4,0.8,0.6,1.3c0.2,0.4,0.4,0.9,0.6,1.3
					c0.2,0.4,0.4,0.9,0.6,1.3v0.1H81v-0.1c0.2-0.4,0.4-0.8,0.6-1.3c0.2-0.5,0.4-1,0.7-1.5s0.5-1.1,0.7-1.6s0.4-1,0.6-1.5
					c0.2-0.5,0.4-0.9,0.5-1.2c0.1-0.4,0.2-0.6,0.3-0.8v-0.1l-0.1-0.1C84.2,61.9,84.1,61.8,84,61.7z"/>
				<path id="XMLID_305_" class="st0" d="M91.6,63.2L91.6,63.2c0.1-0.1,0.1-0.2,0.2-0.3c0.1-0.1,0.1-0.3,0.1-0.5
					c0-0.5-0.3-0.8-0.9-0.8h-4.6c-0.7,0-1,0.3-1,1v7.5h6.4v-1.6h-4.7v-1.9h4.3v-0.1c0-0.1,0.1-0.1,0.1-0.3c0.1-0.1,0.1-0.3,0.1-0.5
					c0-0.5-0.3-0.8-0.9-0.8H87v-1.7H91.6z"/>
				<path id="XMLID_304_" class="st0" d="M95.2,61.8h-0.1c0,0-0.1,0-0.3-0.1c-0.1,0-0.3-0.1-0.5-0.1c-0.3,0-0.5,0.1-0.7,0.2
					c-0.2,0.1-0.3,0.3-0.3,0.6v7.7h6v-1.6h-4.2v-6.7H95.2z"/>
				<path id="XMLID_373_" class="st0" d="M107.5,62.7c-0.4-0.4-0.9-0.7-1.4-0.9c-1.1-0.5-2.5-0.5-3.6,0c-0.5,0.2-1,0.5-1.4,0.9
					s-0.7,0.9-1,1.4c-0.2,0.5-0.3,1.1-0.3,1.8c0,0.6,0.1,1.2,0.3,1.8c0.2,0.5,0.6,1,1,1.4s0.9,0.7,1.4,0.9c0.5,0.2,1.1,0.3,1.8,0.3
					s1.2-0.1,1.8-0.3c0.5-0.2,1-0.5,1.4-0.9s0.7-0.9,1-1.4c0.2-0.5,0.3-1.1,0.3-1.8s-0.1-1.2-0.3-1.8
					C108.2,63.6,107.9,63.1,107.5,62.7z M107,65.9c0,0.4-0.1,0.8-0.2,1.1c-0.1,0.3-0.3,0.6-0.6,0.9c-0.2,0.2-0.5,0.4-0.9,0.6
					c-0.7,0.3-1.5,0.3-2.2,0c-0.3-0.1-0.6-0.3-0.9-0.6c-0.2-0.3-0.4-0.6-0.6-0.9c-0.1-0.3-0.2-0.7-0.2-1.1s0.1-0.8,0.2-1.2
					c0.1-0.3,0.3-0.7,0.6-0.9c0.2-0.3,0.5-0.4,0.9-0.6c0.3-0.1,0.7-0.2,1.1-0.2c0.4,0,0.8,0.1,1.1,0.2c0.3,0.1,0.6,0.3,0.9,0.6
					c0.2,0.2,0.4,0.6,0.6,0.9C106.9,65.1,107,65.5,107,65.9z"/>
				<path id="XMLID_370_" class="st0" d="M116.2,62.3c-0.6-0.5-1.6-0.8-2.9-0.8c-0.6,0-1.1,0-1.4,0c-0.4,0-0.6,0.1-0.7,0.1
					c-0.2,0-0.4,0.1-0.5,0.3c-0.2,0.1-0.2,0.4-0.2,0.7v7.6h1.7v-2.9l0,0c0.1,0,0.2,0,0.4,0c0.1,0,0.3,0,0.5,0c0.9,0.1,1.7,0,2.2-0.2
					c0.5-0.1,0.9-0.4,1.2-0.6c0.3-0.3,0.5-0.6,0.7-0.9c0.1-0.4,0.2-0.7,0.2-1.2C117.2,63.5,116.9,62.8,116.2,62.3z M115.4,64.4
					c0,0.2,0,0.4-0.1,0.5c-0.1,0.2-0.2,0.3-0.3,0.4c-0.2,0.1-0.4,0.2-0.6,0.3c-0.3,0.1-0.6,0.1-1.1,0.1c-0.4,0-0.7,0-1-0.1H112
					c0,0,0,0-0.1,0V63c0.1,0,0.2,0,0.3,0c0.2,0,0.5,0,0.9,0c0.5,0,0.8,0,1.1,0.1s0.5,0.2,0.7,0.3s0.3,0.3,0.3,0.4
					C115.4,64.1,115.4,64.2,115.4,64.4z"/>
				<path id="XMLID_299_" class="st0" d="M128,69c0-0.4,0-0.9-0.1-1.4c0-0.5-0.1-1-0.1-1.6l-0.2-3c0-0.4,0-0.7-0.1-1v-0.1l0,0
					c0,0-0.1-0.1-0.4-0.2c-0.2-0.1-0.4-0.1-0.6-0.1c-0.3,0-0.5,0.1-0.7,0.2c-0.2,0.1-0.3,0.3-0.5,0.6c-0.1,0.2-0.2,0.5-0.4,0.8
					l-0.6,1.2c-0.2,0.4-0.4,0.8-0.6,1.2c-0.1,0.3-0.3,0.5-0.4,0.7c-0.1-0.2-0.3-0.5-0.4-0.8c-0.2-0.4-0.5-0.9-0.7-1.4l-1.1-2.2l0,0
					c-0.1-0.1-0.2-0.2-0.4-0.2c-0.2-0.1-0.4-0.1-0.7-0.1s-0.5,0.1-0.7,0.2c-0.2,0.1-0.3,0.4-0.4,0.7c0,0.2,0,0.5-0.1,0.9
					c0,0.4,0,0.8-0.1,1.3c0,0.5-0.1,1-0.1,1.5s-0.1,1-0.1,1.5s-0.1,0.9-0.1,1.3s0,0.7,0,0.9v0.2h1.7v-0.2c0-0.2,0-0.4,0-0.8l0.1-1.1
					c0-0.4,0-0.8,0.1-1.2c0-0.4,0-0.8,0.1-1.2c0-0.4,0-0.7,0.1-1.1c0-0.1,0-0.1,0-0.2c0.1,0.2,0.2,0.4,0.3,0.6
					c0.2,0.4,0.4,0.8,0.6,1.3c0.2,0.4,0.4,0.8,0.6,1.2c0.2,0.4,0.3,0.7,0.4,0.9v0.1h1.4v-0.1c0.1-0.1,0.2-0.3,0.3-0.6
					c0.1-0.2,0.2-0.5,0.4-0.8c0.1-0.3,0.3-0.6,0.4-0.9l0.4-0.9c0.1-0.3,0.3-0.5,0.4-0.8l0,0l0.1,1.1c0,0.4,0,0.8,0.1,1.3
					c0,0.5,0,0.9,0.1,1.3c0,0.4,0,0.8,0.1,1.1c0,0.3,0,0.5,0,0.7V70h1.7v-0.2C128,69.7,128,69.4,128,69z"/>
				<path id="XMLID_298_" class="st0" d="M136.1,63.2L136.1,63.2c0.1-0.1,0.1-0.2,0.2-0.3c0.1-0.1,0.1-0.3,0.1-0.5
					c0-0.5-0.3-0.8-0.9-0.8h-4.6c-0.7,0-1,0.3-1,1v7.5h6.4v-1.6h-4.7v-1.9h4.3v-0.1c0-0.1,0.1-0.1,0.1-0.3c0.1-0.1,0.1-0.3,0.1-0.5
					c0-0.5-0.3-0.8-0.9-0.8h-3.7v-1.7H136.1z"/>
				<path id="XMLID_297_" class="st0" d="M145,61.7c-0.1,0-0.3-0.1-0.5-0.1c-0.3,0-0.5,0.1-0.6,0.2c-0.2,0.1-0.2,0.3-0.2,0.6v4.7
					c-0.1-0.2-0.2-0.3-0.3-0.5c-0.2-0.4-0.5-0.7-0.7-1.1l-0.8-1.2c-0.3-0.4-0.5-0.7-0.8-1.1c-0.2-0.3-0.4-0.6-0.6-0.9
					c-0.2-0.2-0.3-0.4-0.4-0.5l0,0c-0.1,0-0.2-0.1-0.3-0.2c-0.2-0.1-0.4-0.1-0.6-0.1c-0.3,0-0.5,0.1-0.7,0.2
					c-0.2,0.1-0.3,0.4-0.3,0.7V70h1.7v-5.8c0.1,0.2,0.3,0.4,0.4,0.5c0.3,0.4,0.5,0.7,0.8,1.1l1.5,2.3c0.2,0.4,0.5,0.7,0.7,1l0.6,0.9
					h1.7v-8.3h-0.1C145.2,61.8,145.1,61.7,145,61.7z"/>
				<path id="XMLID_296_" class="st0" d="M153.6,61.6h-6.9v0.1c0,0-0.1,0.1-0.1,0.3c-0.1,0.1-0.1,0.3-0.1,0.5c0,0.5,0.3,0.8,0.9,0.8
					h2.2v6.9h1.7v-6.9h2.9v-0.1c0-0.1,0.1-0.1,0.1-0.3c0-0.1,0.1-0.3,0.1-0.5C154.4,61.9,154.1,61.6,153.6,61.6z"/>
				<path id="XMLID_362_" class="st0" d="M165,65.7l0.1-0.1c0.1-0.1,0.3-0.2,0.4-0.4c0.1-0.2,0.2-0.3,0.3-0.5
					c0.1-0.2,0.1-0.5,0.1-0.7c0-0.3-0.1-0.6-0.2-0.9c-0.1-0.3-0.3-0.6-0.6-0.8c-0.3-0.2-0.7-0.4-1.2-0.5s-1.1-0.2-1.8-0.2
					s-1.2,0-1.5,0c-0.4,0-0.6,0.1-0.8,0.1s-0.4,0.1-0.5,0.3c-0.2,0.1-0.2,0.4-0.2,0.7v7.6h0.2c0,0,0.1,0,0.3,0s0.4,0,0.7,0
					s0.6,0,0.9,0c0.3,0,0.7,0,1.1,0c0.8,0,1.5-0.1,2-0.2s0.9-0.3,1.2-0.5c0.3-0.2,0.5-0.5,0.6-0.8s0.2-0.6,0.2-1
					c0-0.5-0.1-1-0.4-1.3C165.5,66.1,165.3,65.8,165,65.7z M164.1,66.9c0.1,0.1,0.2,0.2,0.2,0.3c0,0.1,0.1,0.3,0.1,0.4
					c0,0.2,0,0.4-0.1,0.5s-0.2,0.2-0.3,0.3c-0.2,0.1-0.4,0.2-0.6,0.2c-0.3,0.1-0.6,0.1-1,0.1c-0.5,0-0.9,0-1.2,0c-0.2,0-0.3,0-0.4,0
					v-2.1h2.2c0.3,0,0.5,0,0.7,0.1C163.8,66.7,164,66.8,164.1,66.9z M164,64.4c0,0.1-0.1,0.2-0.2,0.3c-0.1,0.1-0.2,0.2-0.4,0.2
					c-0.2,0.1-0.4,0.1-0.7,0.1h-2.1v-1.9c0.1,0,0.2,0,0.4,0c0.3,0,0.7,0,1.1,0c0.4,0,0.7,0,0.9,0.1s0.4,0.1,0.6,0.2
					c0.1,0.1,0.2,0.2,0.3,0.3c0.1,0.1,0.1,0.3,0.1,0.4C164.1,64.2,164.1,64.3,164,64.4z"/>
				<path id="XMLID_359_" class="st0" d="M175.5,69c-0.2-0.4-0.3-0.9-0.6-1.4c-0.2-0.5-0.4-1.1-0.7-1.7c-0.2-0.6-0.5-1.2-0.7-1.7
					c-0.2-0.5-0.5-1-0.7-1.5c-0.2-0.4-0.4-0.8-0.5-1l0,0c0,0,0,0-0.1-0.1c-0.1,0-0.1-0.1-0.2-0.1s-0.2-0.1-0.3-0.1
					c-0.1,0-0.2,0-0.3,0c-0.3,0-0.6,0.1-0.8,0.2s-0.4,0.4-0.5,0.7c-0.3,0.6-0.6,1.3-0.9,2s-0.6,1.3-0.8,2c-0.3,0.6-0.5,1.3-0.8,1.9
					c-0.2,0.6-0.5,1.2-0.7,1.7l-0.1,0.2h1.8V70c0.1-0.2,0.2-0.6,0.3-0.9c0.1-0.3,0.3-0.7,0.4-1.1h3.8c0.1,0.1,0.1,0.3,0.2,0.4
					c0.1,0.2,0.2,0.4,0.2,0.6s0.1,0.4,0.2,0.6s0.1,0.3,0.2,0.4v0.1h1.9l-0.1-0.2C175.8,69.7,175.7,69.4,175.5,69z M172.6,66.4H170
					c0.1-0.2,0.2-0.5,0.3-0.7c0.1-0.3,0.3-0.6,0.4-1c0.1-0.3,0.3-0.6,0.4-0.9c0.1-0.2,0.1-0.3,0.2-0.4c0,0.1,0.1,0.2,0.1,0.3
					c0.1,0.3,0.3,0.6,0.4,0.9c0.1,0.3,0.3,0.7,0.4,1C172.4,65.9,172.5,66.2,172.6,66.4z"/>
				<path id="XMLID_290_" class="st0" d="M183.9,61.7c-0.1,0-0.3-0.1-0.5-0.1c-0.3,0-0.5,0.1-0.6,0.2c-0.2,0.1-0.2,0.3-0.2,0.6v4.7
					c-0.1-0.2-0.2-0.3-0.3-0.5c-0.2-0.4-0.5-0.7-0.7-1.1l-0.8-1.2c-0.3-0.4-0.5-0.7-0.8-1.1c-0.2-0.3-0.4-0.6-0.6-0.9
					c-0.2-0.2-0.3-0.4-0.4-0.5l0,0c-0.1,0-0.2-0.1-0.3-0.2c-0.2-0.1-0.4-0.1-0.6-0.1c-0.3,0-0.5,0.1-0.7,0.2
					c-0.2,0.1-0.3,0.4-0.3,0.7V70h1.7v-5.8c0.1,0.2,0.3,0.4,0.4,0.5c0.2,0.4,0.5,0.7,0.8,1.1l1.5,2.3c0.2,0.4,0.5,0.7,0.7,1l0.6,0.9
					h1.7v-8.3h-0.1C184.1,61.8,184,61.7,183.9,61.7z"/>
				<path id="XMLID_289_" class="st0" d="M193.5,69.9c-0.6-0.8-1.2-1.5-1.9-2.2c-0.7-0.7-1.4-1.3-2.1-2c0.1-0.1,0.3-0.2,0.4-0.4
					c0.2-0.2,0.5-0.4,0.8-0.7l0.8-0.7c0.3-0.2,0.5-0.5,0.8-0.7c0.2-0.2,0.4-0.4,0.6-0.5c0.2-0.2,0.3-0.2,0.3-0.3l0.1-0.1l-0.1-0.1
					c-0.1-0.1-0.2-0.2-0.3-0.3c-0.2-0.1-0.4-0.2-0.7-0.2c-0.3,0-0.5,0.1-0.7,0.2c-0.2,0.1-0.4,0.2-0.6,0.4c-0.2,0.1-0.4,0.3-0.6,0.6
					c-0.3,0.2-0.6,0.5-0.9,0.8c-0.3,0.3-0.6,0.6-0.9,0.9c-0.2,0.2-0.3,0.3-0.5,0.4v-3.1h-0.1c0,0-0.1,0-0.3-0.1
					c-0.1,0-0.3-0.1-0.5-0.1c-0.3,0-0.5,0.1-0.7,0.2c-0.2,0.1-0.3,0.3-0.3,0.6v7.7h1.7v-3.6c0.3,0.2,0.5,0.4,0.8,0.7
					c0.4,0.3,0.7,0.7,1,1s0.6,0.7,0.9,1s0.5,0.6,0.7,0.8v0.1h2.2L193.5,69.9z"/>
			</g>
		</g>
		<g id="XMLID_322_">
			<circle id="XMLID_288_" class="st0" cx="184.4" cy="42.6" r="1.2"/>
			<g id="XMLID_338_">
				<path id="XMLID_287_" class="st0" d="M93.2,42.1v12.2h2.3V41c-0.2,0-0.6-0.2-1-0.2C93.5,40.8,93.2,41.2,93.2,42.1z"/>
				<path id="XMLID_286_" class="st0" d="M88.3,42.1v8.4c0,1.2-0.6,1.8-1.8,1.8h-1.2V44c-0.2,0-0.6-0.2-1-0.2
					c-0.9,0-1.3,0.4-1.3,1.3v7.2h-2.3c-0.8,0-1.2,0.3-1.2,1.1c0,0.4,0.1,0.8,0.1,0.9h6.9c1.2,0,2.1-0.4,2.9-1.1
					c0.7-0.7,1.1-1.6,1.1-2.7V41c-0.2,0-0.6-0.2-1-0.2C88.7,40.8,88.3,41.2,88.3,42.1z"/>
				<path id="XMLID_349_" class="st0" d="M34.1,47.1c0.6,0,1.1,0.2,1.6,0.4s0.8,0.1,1-0.2s0.5-1,0.6-1.2c-0.7-0.4-2.1-1-3.1-1
					c-2.6,0-4.3,1.5-4.3,4v3.2h-3.5c-1,0-1.8-0.8-1.8-1.8v-4.9c-0.1,0-0.2,0-0.3-0.1c-0.3-0.1-0.5-0.1-0.7-0.1
					c-0.9,0-1.3,0.4-1.3,1.3v3.8c0,1.2-0.6,1.8-1.8,1.8h-2.2c-1.2,0-1.7-0.6-1.8-1.8v-4.7c-0.4-0.1-0.8-0.2-1.3-0.3
					c-0.4-0.1-0.9-0.2-1.4-0.2c-0.5-0.1-1-0.1-1.5-0.1c-0.8,0-1.5,0.1-2,0.3S9.3,46,9,46.4s-0.6,0.9-0.7,1.4
					c-0.2,0.5-0.2,1.1-0.2,1.7c0,1,0.1,1.9,0.4,2.5s0.6,1.1,1,1.4c0.4,0.3,0.9,0.6,1.3,0.7c0.5,0.1,1,0.2,1.5,0.2s1-0.1,1.5-0.2
					c0.5-0.1,0.9-0.3,1.3-0.7c0.1-0.1,0.1-0.1,0.2-0.2l0.1-0.1l0.1,0.1c0.5,0.7,1.5,1,2.9,1h2.4c1.1,0,2.1-0.3,2.8-0.9h0.1h0.1
					c0.7,0.6,1.6,0.9,2.7,0.9h10.9c0-0.1,0.1-0.5,0.1-0.9c0-0.8-0.3-1.1-1.1-1.1h-3.9v-3.4C32.2,47.9,33,47.1,34.1,47.1z M14.3,51.6
					L14.3,51.6c-0.3,0.2-0.7,0.6-1.9,0.6c-0.6,0-1.1-0.2-1.5-0.6c-0.4-0.4-0.5-1.1-0.5-2c0-0.5,0.1-0.9,0.2-1.2s0.3-0.6,0.5-0.8
					s0.4-0.3,0.7-0.4c0.3-0.1,0.6-0.1,0.9-0.1c0.2,0,0.4,0,0.7,0c0.3,0,0.6,0.1,0.9,0.1h0.1L14.3,51.6L14.3,51.6z"/>
				<path id="XMLID_346_" class="st0" d="M72.5,45.1c-1.4,0-2.8,0.4-4.2,1.2l0.4,1.2c0.1,0.2,0.2,0.3,0.3,0.3c0.2,0.1,0.5,0.1,0.7,0
					c1.1-0.5,1.9-0.7,2.8-0.7c1.2,0,2.1,0.5,2.5,1.5c0.3,0.7,0.4,1.5,0.4,2.9v0.6H65.3c-1,0-1.8-0.8-1.8-1.8v-4.9
					c-0.2,0-0.6-0.2-1-0.2c-0.9,0-1.3,0.4-1.3,1.3v3.8c0,1.2-0.6,1.8-1.8,1.8h-1.7c-1.3,0-2-0.6-2.3-1.8c-0.2-1.3-0.6-2.2-1.2-2.7
					c-0.7-0.6-1.7-1-3-1c-2.5,0-3.9,1.2-4.2,3.7c-0.1,1.2-0.8,1.7-2.2,1.7h-2.5c-0.5,0-0.8-0.2-0.8-0.8V40.7c-0.2,0-0.6-0.2-1-0.2
					c-0.9,0-1.3,0.4-1.3,1.3v9.5c0,1.7,1.1,2.8,2.8,2.8h2.8c0.9,0,1.7-0.3,2.3-0.8l0.1-0.1v0.1c0.7,1.4,2.1,2.1,3.8,2.1
					c1.9,0,3.3-0.9,3.9-2.3V53l0.1,0.1c0.6,0.5,1.3,0.9,2.1,0.9h0.1l0,0h2c1.1,0,2.1-0.3,2.8-0.9h0.1h0.1c0.7,0.6,1.6,0.9,2.7,0.9
					h11.5c0.6,0,1-0.5,1-1v-1.6c0-1.9-0.2-3.1-0.8-4.2C76.1,45.9,74.6,45.1,72.5,45.1z M51.4,53.7c-0.8,0-1.9-0.3-1.9-2.5
					s1.1-2.4,1.9-2.4c0.8,0,1.9,0.3,1.9,2.4C53.2,53.4,52.2,53.7,51.4,53.7z"/>
				<path id="XMLID_281_" class="st0" d="M191.4,46.7v3.8c0,1.2-0.6,1.8-1.8,1.8h-2.4c-1.2,0-1.8-0.6-1.8-1.8v-4.9
					c-0.2,0-0.6-0.2-1-0.2c-0.9,0-1.3,0.4-1.3,1.3v3.8c0,1.2-0.6,1.8-1.8,1.8h-1.9c-1.5,0-2.2-0.8-2.2-2.4V41c-0.2,0-0.6-0.2-1-0.2
					c-0.9,0-1.3,0.4-1.3,1.3v8.4c0,1.2-0.6,1.8-1.8,1.8H167c-1.2,0-1.8-0.6-1.8-1.8v-4.9c-0.2,0-0.6-0.2-1-0.2
					c-0.9,0-1.3,0.4-1.3,1.3v4c0,2.2,1.5,3.6,3.8,3.6h6.5c1.4,0,2.4-0.4,3.1-1.2l0.1-0.1l0.1,0.1c0.7,0.8,1.6,1.2,2.9,1.2h2.2
					c1.1,0,2.1-0.3,2.8-0.9h0.1h0.1c0.7,0.6,1.6,0.9,2.7,0.9h2.6c1.2,0,2.2-0.4,2.9-1.1c0.7-0.7,1.1-1.6,1.1-2.7v-5
					c-0.2,0-0.6-0.2-1-0.2C191.8,45.4,191.4,45.8,191.4,46.7z"/>
				<path id="XMLID_280_" class="st0" d="M157,42.1v12.2h2.3V41c-0.2,0-0.6-0.2-1-0.2C157.3,40.8,157,41.2,157,42.1z"/>
				<path id="XMLID_340_" class="st0" d="M152.2,42.1v8.4c0,1.2-0.6,1.8-1.8,1.8h-2.2c-1.2,0-1.8-0.6-1.8-1.8v-4.9
					c-0.2,0-0.6-0.2-1-0.2c-0.9,0-1.3,0.4-1.3,1.3v3.8c0,1.2-0.6,1.8-1.8,1.8H140c-1.2,0-1.8-0.6-1.8-1.8v-4.9c-0.2,0-0.6-0.2-1-0.2
					c-0.9,0-1.3,0.4-1.3,1.3v3.8c0,1.2-0.6,1.8-1.8,1.8h-2c-1.3,0-2-0.6-2.3-1.8c-0.2-1.3-0.6-2.2-1.2-2.7c-0.7-0.6-1.7-1-3-1
					c-2.5,0-3.9,1.2-4.2,3.7c-0.1,1.2-0.9,1.8-2.2,1.8h-1.7c-1.2,0-1.8-0.6-1.8-1.8v-4.9c-0.2,0-0.6-0.2-1-0.2
					c-0.9,0-1.3,0.4-1.3,1.3v3.8c0,1.2-0.6,1.8-1.8,1.8h-2.4c-1.2,0-1.7-0.6-1.7-1.8v-4.7c-0.4-0.1-0.8-0.2-1.3-0.3
					c-0.4-0.1-0.9-0.2-1.4-0.2c-0.5-0.1-1-0.1-1.5-0.1c-0.8,0-1.5,0.1-2,0.3s-1,0.5-1.3,0.9s-0.6,0.9-0.7,1.4
					c-0.2,0.5-0.2,1.1-0.2,1.7c0,1,0.1,1.9,0.4,2.5c0.3,0.6,0.6,1.1,1,1.4c0.4,0.3,0.9,0.6,1.3,0.7c0.5,0.1,1,0.2,1.5,0.2
					s1-0.1,1.5-0.2c0.5-0.1,0.9-0.3,1.3-0.7c0.1-0.1,0.1-0.1,0.2-0.2l0.1-0.1l0.1,0.1c0.5,0.7,1.5,1,2.9,1h2.6
					c1.1,0,2.1-0.3,2.8-0.9h0.1h0.1c0.7,0.6,1.6,0.9,2.7,0.9h1.9c0.9,0,1.7-0.3,2.3-0.8l0.1-0.1v0.1c0.7,1.4,2.1,2.1,3.8,2.1
					c1.9,0,3.3-0.9,3.9-2.3v-0.1l0.1,0.1c0.6,0.5,1.3,1,2.1,1h2.4c1.1,0,2.1-0.3,2.8-0.9h0.1h0.1c0.7,0.6,1.6,0.9,2.7,0.9h2.5
					c1.1,0,2.1-0.3,2.8-0.9h0.1h0.1c0.7,0.6,1.6,0.9,2.7,0.9h2.4c1.2,0,2.1-0.4,2.9-1.1c0.7-0.7,1.1-1.6,1.1-2.7V41
					c-0.2,0-0.6-0.2-1-0.2C152.5,40.8,152.2,41.2,152.2,42.1z M105.5,51.6L105.5,51.6c-0.3,0.2-0.7,0.6-1.9,0.6
					c-0.6,0-1.1-0.2-1.5-0.6c-0.4-0.4-0.5-1.1-0.5-2c0-0.5,0.1-0.9,0.2-1.2c0.1-0.3,0.3-0.6,0.5-0.8s0.4-0.3,0.7-0.4
					c0.3-0.1,0.6-0.1,0.9-0.1c0.2,0,0.4,0,0.7,0s0.6,0.1,0.9,0.1h0.1L105.5,51.6L105.5,51.6z M125.9,53.7c-0.3,0-0.9,0-1.3-0.4
					c-0.4-0.4-0.6-1.1-0.6-2c0-2.2,1.1-2.4,1.9-2.4c0.3,0,0.9,0,1.3,0.4c0.4,0.4,0.6,1.1,0.6,2C127.7,53.4,126.7,53.7,125.9,53.7z"
					/>
				<path id="XMLID_276_" class="st0" d="M171.7,48.4c0-0.4-0.2-0.5-0.5-0.5h-1.7V47c0-0.5,0.4-0.8,0.8-0.8c0.2,0,0.5,0.1,0.7,0.2
					c0.2,0.1,0.4,0.1,0.5-0.1c0.1-0.2,0.3-0.6,0.3-0.6c-0.3-0.2-1-0.5-1.4-0.5c-1.3,0-1.9,0.8-1.9,1.8v1.7h3.2
					C171.7,48.8,171.7,48.6,171.7,48.4z"/>
			</g>
			<circle id="XMLID_275_" class="st0" cx="188.6" cy="56.9" r="1.2"/>
			<path id="XMLID_274_" class="st0" d="M14,43.8c0.7,0,1.3-0.6,1.3-1.3s-0.6-1.2-1.3-1.2c-0.7,0-1.2,0.6-1.2,1.2
				C12.7,43.3,13.3,43.8,14,43.8z"/>
			<path id="XMLID_273_" class="st0" d="M10.7,43.8c0.7,0,1.3-0.6,1.3-1.3s-0.6-1.2-1.3-1.2c-0.7,0-1.3,0.6-1.3,1.2
				C9.4,43.3,10,43.8,10.7,43.8z"/>
			<path id="XMLID_272_" class="st0" d="M25,55.7c-0.7,0-1.2,0.6-1.2,1.2c0,0.7,0.5,1.3,1.2,1.3s1.3-0.6,1.3-1.3S25.7,55.7,25,55.7z
				"/>
			<path id="XMLID_271_" class="st0" d="M21.8,55.7c-0.7,0-1.2,0.5-1.2,1.2s0.5,1.3,1.2,1.3s1.3-0.6,1.3-1.3
				C23,56.2,22.5,55.7,21.8,55.7z"/>
			<path id="XMLID_270_" class="st0" d="M60.8,43.8c0.7,0,1.3-0.6,1.3-1.3s-0.6-1.2-1.3-1.2s-1.2,0.5-1.2,1.2
				C59.5,43.3,60.1,43.8,60.8,43.8z"/>
			<path id="XMLID_269_" class="st0" d="M64,43.8c0.7,0,1.3-0.6,1.3-1.3s-0.6-1.2-1.3-1.2s-1.2,0.6-1.2,1.2
				C62.8,43.3,63.3,43.8,64,43.8z"/>
			<path id="XMLID_268_" class="st0" d="M73,55.7c-0.7,0-1.2,0.6-1.2,1.2c0,0.7,0.6,1.3,1.2,1.3c0.7,0,1.3-0.6,1.3-1.3
				S73.7,55.7,73,55.7z"/>
			<path id="XMLID_267_" class="st0" d="M116.5,55.7c-0.7,0-1.2,0.6-1.2,1.2c0,0.7,0.6,1.3,1.2,1.3c0.7,0,1.3-0.6,1.3-1.3
				C117.7,56.2,117.1,55.7,116.5,55.7z"/>
			<path id="XMLID_266_" class="st0" d="M113.2,55.7c-0.7,0-1.2,0.5-1.2,1.2s0.6,1.3,1.2,1.3c0.7,0,1.3-0.6,1.3-1.3
				S113.9,55.7,113.2,55.7z"/>
			<path id="XMLID_265_" class="st0" d="M137.2,43.8c0.7,0,1.3-0.6,1.3-1.3s-0.6-1.2-1.3-1.2s-1.3,0.6-1.3,1.2
				C136,43.3,136.6,43.8,137.2,43.8z"/>
			<path id="XMLID_264_" class="st0" d="M143.7,43.8c0.7,0,1.3-0.6,1.3-1.3s-0.6-1.2-1.3-1.2s-1.2,0.5-1.2,1.2
				C142.5,43.3,143.1,43.8,143.7,43.8z"/>
			<path id="XMLID_263_" class="st0" d="M147,43.8c0.7,0,1.3-0.6,1.3-1.3s-0.6-1.2-1.3-1.2s-1.2,0.6-1.2,1.2
				C145.7,43.3,146.3,43.8,147,43.8z"/>
			<path id="XMLID_262_" class="st0" d="M105.1,43.8c0.7,0,1.3-0.6,1.3-1.3s-0.6-1.2-1.3-1.2s-1.2,0.6-1.2,1.2
				C103.9,43.3,104.5,43.8,105.1,43.8z"/>
			<path id="XMLID_261_" class="st0" d="M101.9,43.8c0.7,0,1.3-0.6,1.3-1.3s-0.6-1.2-1.3-1.2s-1.3,0.6-1.3,1.2
				C100.6,43.3,101.2,43.8,101.9,43.8z"/>
		</g>
	</g>
	<path id="XMLID_260_" class="st0" d="M225,40.8h7.4c4.3,0,7.7-3.5,7.7-7.7v-7.4c0-1,0.8-1.8,1.8-1.8h7.4c4.3,0,7.7-3.5,7.7-7.7V7.1
		h-9.1c-4.3,0-7.7,3.5-7.7,7.7v7.4c0,1-0.8,1.8-1.8,1.8H231c-4.3,0-7.7,3.5-7.7,7.7V39c0,1-0.8,1.8-1.8,1.8H214
		c-4.3,0-7.7,3.5-7.7,7.7v9.1c0,14,11.3,25.3,25.3,25.3s25.3-11.3,25.3-25.3V40.7h-9.1c-4.3,0-7.7,3.5-7.7,7.7v9.1
		c0,4.7-3.8,8.4-8.4,8.4s-8.4-3.8-8.4-8.4V42.6C223.2,41.6,224,40.8,225,40.8z"/>
</g>
</svg>
