<?xml version="1.0" standalone="no"?>
<!DOCTYPE svg PUBLIC "-//W3C//DTD SVG 1.1//EN" "http://www.w3.org/Graphics/SVG/1.1/DTD/svg11.dtd" >
<svg xmlns="http://www.w3.org/2000/svg" xmlns:xlink="http://www.w3.org/1999/xlink" version="1.1">
<metadata>
Created by FontForge 20190801 at Tue Feb 19 18:54:53 2019
 By root
Copyright (c) 2018 Bold Monday. All rights reserved. Brando Arabic is a trademark of Bold Monday. Unauthorised copying or modification of any of its data is illegal.
</metadata>
<defs>
<font id="BrandoArabicSemiBold" horiz-adv-x="566" >
  <font-face 
    font-family="Brando Arabic SemiBold"
    font-weight="600"
    font-stretch="normal"
    units-per-em="1000"
    panose-1="2 6 7 3 6 0 0 2 0 3"
    ascent="745"
    descent="-255"
    x-height="482"
    cap-height="680"
    bbox="-199 -517 8020 1013"
    underline-thickness="60"
    underline-position="-170"
    unicode-range="U+000D-FEFC"
  />
<missing-glyph horiz-adv-x="300" 
d="M100 718h100v-920h-100v920z" />
    <glyph glyph-name="fi" unicode="fi" horiz-adv-x="625" 
d="M351 60l35 -3q25 0 25 25v307q0 25 -25 25h-167v-332q0 -25 24 -25h50v-60h-258v60h36q25 0 25 25v332h-69v65h46q23 0 23 23v27q0 45 14 87q13 39 41 70t66 47q40 17 88 17q12 0 30 -2q13 -2 24 -3v-81h-10q-9 4 -28 7q-18 3 -37 3q-40 0 -52 -20t-12 -69v-103h290
q25 0 25 -26v-371q0 -25 24 -25h36v-60h-244v60zM398 643l-1 -1q0 35 20 53q19 18 54 18q33 0 53 -18t20 -52t-20 -52t-53 -18q-35 0 -54 18t-19 52z" />
    <glyph glyph-name="fl" unicode="fl" horiz-adv-x="611" 
d="M36 60l35 1q25 0 25 25v332h-69v65h46q23 0 23 23v21q0 106 57 166t169 60q58 0 105 -3q51 -3 72 -7q26 -3 26 -28v-630q0 -25 24 -25h36v-60h-243v60h36q24 0 24 25v551q0 14 -3 25q-3 9 -11 16t-23 8q-20 2 -39 2q-33 0 -54 -6t-33 -18q-11 -11 -16 -31q-4 -17 -4 -48
v-102h113v-65h-113v-332q0 -25 25 -25h37v-60h-245v60z" />
    <glyph glyph-name="uniFC03" unicode="&#xfe8b;&#xfef0;" horiz-adv-x="753" arabic-form="isolated" 
d="M390 -146l-2 1q-174 0 -262 75t-88 228q0 48 6 94q6 49 16 81h69v-8q-7 -31 -12 -69q-4 -33 -4 -72q0 -100 69 -147q70 -47 213 -47q114 0 182 20q66 19 66 53q0 12 -7 20q-8 9 -25 15q-18 6 -51 12q-39 7 -82 11l-77 6v117l4 6l84 -7q65 -5 90 15q26 20 26 60
q0 29 -6 74q-5 34 -17 100l4 5h84q7 -47 12 -92q5 -48 5 -78q0 -47 -12 -81t-39 -55v-4q78 -39 78 -116q0 -50 -22 -90q-23 -41 -64 -69t-102 -43q-60 -15 -136 -15zM540 624q-10 19 -10 41q0 23 9 41t23 32t33 21q21 8 42 8q65 0 65 -68v-27h-42v7q0 26 -33 26
q-22 0 -39 -11q-16 -10 -16 -26q0 -13 10 -23q10 -11 27 -21h108v-61h-208v61h31z" />
    <glyph glyph-name="uniFC04" unicode="&#xfe8b;&#xfef2;" horiz-adv-x="753" arabic-form="isolated" 
d="M390 -146l-2 1q-174 0 -262 75t-88 228q0 48 6 94q6 49 16 81h69v-8q-7 -31 -12 -69q-4 -33 -4 -72q0 -100 69 -147q70 -47 213 -47q114 0 182 20q66 19 66 53q0 12 -7 20q-8 9 -25 15q-18 6 -51 12q-39 7 -82 11l-77 6v117l4 6l84 -7q65 -5 90 15q26 20 26 60
q0 29 -6 74q-5 34 -17 100l4 5h84q7 -47 12 -92q5 -48 5 -78q0 -47 -12 -81t-39 -55v-4q78 -39 78 -116q0 -50 -22 -90q-23 -41 -64 -69t-102 -43q-60 -15 -136 -15zM540 624q-10 19 -10 41q0 23 9 41t23 32t33 21q21 8 42 8q65 0 65 -68v-27h-42v7q0 26 -33 26
q-22 0 -39 -11q-16 -10 -16 -26q0 -13 10 -23q10 -11 27 -21h108v-61h-208v61h31zM462 -361h-10l-56 54l-55 -54h-10l-67 65l67 66h10l55 -55l56 55h10l66 -66z" />
    <glyph glyph-name="uniFC09" unicode="&#xfe91;&#xfef0;" horiz-adv-x="753" arabic-form="isolated" 
d="M390 -146l-2 1q-174 0 -262 75t-88 228q0 48 6 94q6 49 16 81h69v-8q-7 -31 -12 -69q-4 -33 -4 -72q0 -100 69 -147q70 -47 213 -47q114 0 182 20q66 19 66 53q0 12 -7 20q-8 9 -25 15q-18 6 -51 12q-39 7 -82 11l-77 6v117l4 6l84 -7q65 -5 90 15q26 20 26 60
q0 29 -6 74q-5 34 -17 100l4 5h84q7 -47 12 -92q5 -48 5 -78q0 -47 -12 -81t-39 -55v-4q78 -39 78 -116q0 -50 -22 -90q-23 -41 -64 -69t-102 -43q-60 -15 -136 -15zM661 -173l66 -66l-66 -65h-10l-67 65l67 66h10z" />
    <glyph glyph-name="uniFC0A" unicode="&#xfe91;&#xfef2;" horiz-adv-x="753" arabic-form="isolated" 
d="M390 -146l-2 1q-174 0 -262 75t-88 228q0 48 6 94q6 49 16 81h69v-8q-7 -31 -12 -69q-4 -33 -4 -72q0 -100 69 -147q70 -47 213 -47q114 0 182 20q66 19 66 53q0 12 -7 20q-8 9 -25 15q-18 6 -51 12q-39 7 -82 11l-77 6v117l4 6l84 -7q65 -5 90 15q26 20 26 60
q0 29 -6 74q-5 34 -17 100l4 5h84q7 -47 12 -92q5 -48 5 -78q0 -47 -12 -81t-39 -55v-4q78 -39 78 -116q0 -50 -22 -90q-23 -41 -64 -69t-102 -43q-60 -15 -136 -15zM661 -173l66 -66l-66 -65h-10l-67 65l67 66h10zM462 -361h-10l-56 54l-55 -54h-10l-67 65l67 66h10l55 -55
l56 55h10l66 -66z" />
    <glyph glyph-name="uniFC0F" unicode="&#xfe97;&#xfef0;" horiz-adv-x="753" arabic-form="isolated" 
d="M390 -146l-2 1q-174 0 -262 75t-88 228q0 48 6 94q6 49 16 81h69v-8q-7 -31 -12 -69q-4 -33 -4 -72q0 -100 69 -147q70 -47 213 -47q114 0 182 20q66 19 66 53q0 12 -7 20q-8 9 -25 15q-18 6 -51 12q-39 7 -82 11l-77 6v117l4 6l84 -7q65 -5 90 15q26 20 26 60
q0 29 -6 74q-5 34 -17 100l4 5h84q7 -47 12 -92q5 -48 5 -78q0 -47 -12 -81t-39 -55v-4q78 -39 78 -116q0 -50 -22 -90q-23 -41 -64 -69t-102 -43q-60 -15 -136 -15zM679 585h-10l-56 54l-55 -54h-10l-67 65l67 66h10l55 -55l56 55h10l66 -66z" />
    <glyph glyph-name="uniFC10" unicode="&#xfe97;&#xfef2;" horiz-adv-x="753" arabic-form="isolated" 
d="M390 -146l-2 1q-174 0 -262 75t-88 228q0 48 6 94q6 49 16 81h69v-8q-7 -31 -12 -69q-4 -33 -4 -72q0 -100 69 -147q70 -47 213 -47q114 0 182 20q66 19 66 53q0 12 -7 20q-8 9 -25 15q-18 6 -51 12q-39 7 -82 11l-77 6v117l4 6l84 -7q65 -5 90 15q26 20 26 60
q0 29 -6 74q-5 34 -17 100l4 5h84q7 -47 12 -92q5 -48 5 -78q0 -47 -12 -81t-39 -55v-4q78 -39 78 -116q0 -50 -22 -90q-23 -41 -64 -69t-102 -43q-60 -15 -136 -15zM679 585h-10l-56 54l-55 -54h-10l-67 65l67 66h10l55 -55l56 55h10l66 -66zM462 -361h-10l-56 54l-55 -54
h-10l-67 65l67 66h10l55 -55l56 55h10l66 -66z" />
    <glyph glyph-name="uniFC13" unicode="&#xfe9b;&#xfef0;" horiz-adv-x="753" arabic-form="isolated" 
d="M390 -146l-2 1q-174 0 -262 75t-88 228q0 48 6 94q6 49 16 81h69v-8q-7 -31 -12 -69q-4 -33 -4 -72q0 -100 69 -147q70 -47 213 -47q114 0 182 20q66 19 66 53q0 12 -7 20q-8 9 -25 15q-18 6 -51 12q-39 7 -82 11l-77 6v117l4 6l84 -7q65 -5 90 15q26 20 26 60
q0 29 -6 74q-5 34 -17 100l4 5h84q7 -47 12 -92q5 -48 5 -78q0 -47 -12 -81t-39 -55v-4q78 -39 78 -116q0 -50 -22 -90q-23 -41 -64 -69t-102 -43q-60 -15 -136 -15zM544 769l64 62h10l64 -62l-64 -63h-10zM679 585h-10l-56 54l-55 -54h-10l-67 65l67 66h10l55 -55l56 55h10
l66 -66z" />
    <glyph glyph-name="uniFC14" unicode="&#xfe9b;&#xfef2;" horiz-adv-x="753" arabic-form="isolated" 
d="M390 -146l-2 1q-174 0 -262 75t-88 228q0 48 6 94q6 49 16 81h69v-8q-7 -31 -12 -69q-4 -33 -4 -72q0 -100 69 -147q70 -47 213 -47q114 0 182 20q66 19 66 53q0 12 -7 20q-8 9 -25 15q-18 6 -51 12q-39 7 -82 11l-77 6v117l4 6l84 -7q65 -5 90 15q26 20 26 60
q0 29 -6 74q-5 34 -17 100l4 5h84q7 -47 12 -92q5 -48 5 -78q0 -47 -12 -81t-39 -55v-4q78 -39 78 -116q0 -50 -22 -90q-23 -41 -64 -69t-102 -43q-60 -15 -136 -15zM544 769l64 62h10l64 -62l-64 -63h-10zM679 585h-10l-56 54l-55 -54h-10l-67 65l67 66h10l55 -55l56 55h10
l66 -66zM462 -361h-10l-56 54l-55 -54h-10l-67 65l67 66h10l55 -55l56 55h10l66 -66z" />
    <glyph glyph-name="uniFC31" unicode="&#xfed3;&#xfef0;" horiz-adv-x="763" arabic-form="isolated" 
d="M631 91v-4q43 -19 63 -48t20 -68q0 -49 -22 -87q-23 -40 -64 -66q-42 -27 -102 -42t-136 -15q-174 0 -262 75t-88 228q0 48 6 94q6 49 16 81h69v-8q-7 -31 -12 -69q-4 -33 -4 -72q0 -100 69 -147q70 -47 213 -47q114 0 182 20q66 20 66 54q0 12 -7 20q-8 10 -25 17
q-16 7 -51 13q-33 6 -82 9l-85 6v117l5 6l87 -7q42 -3 72 0t48 15t27 33q10 22 11 52l-4 2q-52 -34 -132 -34q-79 0 -122 36q-44 36 -44 110q0 42 15 84q15 43 40 75q26 33 60 54t72 21q40 0 75 -24t59 -65q25 -42 38 -96q14 -58 14 -120q0 -82 -19 -129q-20 -49 -66 -71v-3
zM527 323h-1q59 0 112 13q-8 31 -19 54q-12 26 -30 45t-39 30q-22 11 -45 11q-21 0 -38 -9t-29 -24q-11 -14 -19 -31q-7 -15 -7 -31q0 -31 29 -45q27 -13 86 -13zM522 813l66 -66l-66 -65h-10l-67 65l67 66h10z" />
    <glyph glyph-name="uniFC32" unicode="&#xfed3;&#xfef2;" horiz-adv-x="763" arabic-form="isolated" 
d="M631 91v-4q43 -19 63 -48t20 -68q0 -49 -22 -87q-23 -40 -64 -66q-42 -27 -102 -42t-136 -15q-174 0 -262 75t-88 228q0 48 6 94q6 49 16 81h69v-8q-7 -31 -12 -69q-4 -33 -4 -72q0 -100 69 -147q70 -47 213 -47q114 0 182 20q66 20 66 54q0 12 -7 20q-8 10 -25 17
q-16 7 -51 13q-33 6 -82 9l-85 6v117l5 6l87 -7q42 -3 72 0t48 15t27 33q10 22 11 52l-4 2q-52 -34 -132 -34q-79 0 -122 36q-44 36 -44 110q0 42 15 84q15 43 40 75q26 33 60 54t72 21q40 0 75 -24t59 -65q25 -42 38 -96q14 -58 14 -120q0 -82 -19 -129q-20 -49 -66 -71v-3
zM527 323h-1q59 0 112 13q-8 31 -19 54q-12 26 -30 45t-39 30q-22 11 -45 11q-21 0 -38 -9t-29 -24q-11 -14 -19 -31q-7 -15 -7 -31q0 -31 29 -45q27 -13 86 -13zM522 813l66 -66l-66 -65h-10l-67 65l67 66h10zM465 -455h-10l-56 54l-55 -54h-10l-67 65l67 66h10l55 -55
l56 55h10l66 -66z" />
    <glyph glyph-name="uniFC35" unicode="&#xfed7;&#xfef0;" horiz-adv-x="763" arabic-form="isolated" 
d="M631 91v-4q43 -19 63 -48t20 -68q0 -49 -22 -87q-23 -40 -64 -66q-42 -27 -102 -42t-136 -15q-174 0 -262 75t-88 228q0 48 6 94q6 49 16 81h69v-8q-7 -31 -12 -69q-4 -33 -4 -72q0 -100 69 -147q70 -47 213 -47q114 0 182 20q66 20 66 54q0 12 -7 20q-8 10 -25 17
q-16 7 -51 13q-33 6 -82 9l-85 6v117l5 6l87 -7q42 -3 72 0t48 15t27 33q10 22 11 52l-4 2q-52 -34 -132 -34q-79 0 -122 36q-44 36 -44 110q0 42 15 84q15 43 40 75q26 33 60 54t72 21q40 0 75 -24t59 -65q25 -42 38 -96q14 -58 14 -120q0 -82 -19 -129q-20 -49 -66 -71v-3
zM527 323h-1q59 0 112 13q-8 31 -19 54q-12 26 -30 45t-39 30q-22 11 -45 11q-21 0 -38 -9t-29 -24q-11 -14 -19 -31q-7 -15 -7 -31q0 -31 29 -45q27 -13 86 -13zM583 682h-10l-56 54l-55 -54h-10l-67 65l67 66h10l55 -55l56 55h10l66 -66z" />
    <glyph glyph-name="uniFC36" unicode="&#xfed7;&#xfef2;" horiz-adv-x="763" arabic-form="isolated" 
d="M631 91v-4q43 -19 63 -48t20 -68q0 -49 -22 -87q-23 -40 -64 -66q-42 -27 -102 -42t-136 -15q-174 0 -262 75t-88 228q0 48 6 94q6 49 16 81h69v-8q-7 -31 -12 -69q-4 -33 -4 -72q0 -100 69 -147q70 -47 213 -47q114 0 182 20q66 20 66 54q0 12 -7 20q-8 10 -25 17
q-16 7 -51 13q-33 6 -82 9l-85 6v117l5 6l87 -7q42 -3 72 0t48 15t27 33q10 22 11 52l-4 2q-52 -34 -132 -34q-79 0 -122 36q-44 36 -44 110q0 42 15 84q15 43 40 75q26 33 60 54t72 21q40 0 75 -24t59 -65q25 -42 38 -96q14 -58 14 -120q0 -82 -19 -129q-20 -49 -66 -71v-3
zM527 323h-1q59 0 112 13q-8 31 -19 54q-12 26 -30 45t-39 30q-22 11 -45 11q-21 0 -38 -9t-29 -24q-11 -14 -19 -31q-7 -15 -7 -31q0 -31 29 -45q27 -13 86 -13zM465 -455h-10l-56 54l-55 -54h-10l-67 65l67 66h10l55 -55l56 55h10l66 -66zM583 682h-10l-56 54l-55 -54h-10
l-67 65l67 66h10l55 -55l56 55h10l66 -66z" />
    <glyph glyph-name="uniFC3D" unicode="&#xfedb;&#xfef0;" horiz-adv-x="802" arabic-form="isolated" 
d="M390 -240l-2 -3q-174 0 -262 75t-88 228q0 48 6 94q6 49 16 81h69v-8q-7 -31 -12 -69q-4 -33 -4 -72q0 -100 69 -147q70 -47 213 -47q116 0 182 18t66 51q0 12 -7 20q-7 9 -25 16q-16 7 -51 13q-34 6 -82 12l-77 9v117l4 5l90 -8q74 -8 107 3q33 10 33 39q0 19 -18 42
q-19 24 -66 62l-155 118v122l427 223h9v-108l-333 -173l52 -46q43 -38 73 -67q30 -30 48 -57q19 -29 26 -52q8 -27 8 -52q0 -35 -15 -62t-53 -50v-3q41 -20 59 -48q18 -29 18 -64q0 -102 -84 -157q-83 -55 -241 -55z" />
    <glyph glyph-name="uniFC3E" unicode="&#xfedb;&#xfef2;" horiz-adv-x="802" arabic-form="isolated" 
d="M390 -240l-2 -3q-174 0 -262 75t-88 228q0 48 6 94q6 49 16 81h69v-8q-7 -31 -12 -69q-4 -33 -4 -72q0 -100 69 -147q70 -47 213 -47q116 0 182 18t66 51q0 12 -7 20q-7 9 -25 16q-16 7 -51 13q-34 6 -82 12l-77 9v117l4 5l90 -8q74 -8 107 3q33 10 33 39q0 19 -18 42
q-19 24 -66 62l-155 118v122l427 223h9v-108l-333 -173l52 -46q43 -38 73 -67q30 -30 48 -57q19 -29 26 -52q8 -27 8 -52q0 -35 -15 -62t-53 -50v-3q41 -20 59 -48q18 -29 18 -64q0 -102 -84 -157q-83 -55 -241 -55zM454 -459h-10l-56 54l-55 -54h-10l-67 65l67 66h10
l55 -55l56 55h10l66 -66z" />
    <glyph glyph-name="uniFC42" unicode="&#xfedf;&#xfee2;" horiz-adv-x="448" arabic-form="isolated" 
d="M243 233l-1 -2q-4 19 -6 42q-1 15 -1 49v422h92v-423q0 -42 3 -69q3 -28 12 -47q25 -10 47 -21q26 -13 47 -27l43 -27l-65 -100l-43 27q-39 25 -77 38q-40 14 -74 14q-56 0 -79 -21q-22 -21 -22 -73v-330h-88v330q0 114 45 165t143 51h11q8 0 11 -1z" />
    <glyph glyph-name="uniFC43" unicode="&#xfedf;&#xfef0;" horiz-adv-x="788" arabic-form="isolated" 
d="M623 88l-4 -2q51 -20 72 -48t21 -66q0 -51 -22 -89q-23 -40 -64 -66q-42 -27 -102 -42t-136 -15q-174 0 -262 75t-88 228q0 47 6 94q6 49 16 81h69v-8q-7 -32 -12 -69q-4 -33 -4 -72q0 -101 69 -147q70 -47 213 -47q114 0 182 20q66 19 66 54q0 12 -7 20q-8 9 -25 15
q-18 6 -51 12q-39 7 -82 11l-77 6v117l4 6l82 -7q57 -4 83 17t26 74v505h92v-505q0 -49 -14 -86q-14 -36 -51 -63v-3z" />
    <glyph glyph-name="uniFC44" unicode="&#xfedf;&#xfef2;" horiz-adv-x="788" arabic-form="isolated" 
d="M623 88l-4 -2q51 -20 72 -48t21 -66q0 -51 -22 -89q-23 -40 -64 -66q-42 -27 -102 -42t-136 -15q-174 0 -262 75t-88 228q0 47 6 94q6 49 16 81h69v-8q-7 -32 -12 -69q-4 -33 -4 -72q0 -101 69 -147q70 -47 213 -47q114 0 182 20q66 19 66 54q0 12 -7 20q-8 9 -25 15
q-18 6 -51 12q-39 7 -82 11l-77 6v117l4 6l82 -7q57 -4 83 17t26 74v505h92v-505q0 -49 -14 -86q-14 -36 -51 -63v-3zM452 -458h-10l-56 54l-55 -54h-10l-67 65l67 66h10l55 -55l56 55h10l66 -66z" />
    <glyph glyph-name="uniFC4F" unicode="&#xfee7;&#xfef0;" horiz-adv-x="753" arabic-form="isolated" 
d="M390 -146l-2 1q-174 0 -262 75t-88 228q0 48 6 94q6 49 16 81h69v-8q-7 -31 -12 -69q-4 -33 -4 -72q0 -100 69 -147q70 -47 213 -47q114 0 182 20q66 19 66 53q0 12 -7 20q-8 9 -25 15q-18 6 -51 12q-39 7 -82 11l-77 6v117l4 6l84 -7q65 -5 90 15q26 20 26 60
q0 29 -6 74q-5 34 -17 100l4 5h84q7 -47 12 -92q5 -48 5 -78q0 -47 -12 -81t-39 -55v-4q78 -39 78 -116q0 -50 -22 -90q-23 -41 -64 -69t-102 -43q-60 -15 -136 -15zM618 716l66 -66l-66 -65h-10l-67 65l67 66h10z" />
    <glyph glyph-name="uniFC50" unicode="&#xfee7;&#xfef2;" horiz-adv-x="753" arabic-form="isolated" 
d="M390 -146l-2 1q-174 0 -262 75t-88 228q0 48 6 94q6 49 16 81h69v-8q-7 -31 -12 -69q-4 -33 -4 -72q0 -100 69 -147q70 -47 213 -47q114 0 182 20q66 19 66 53q0 12 -7 20q-8 9 -25 15q-18 6 -51 12q-39 7 -82 11l-77 6v117l4 6l84 -7q65 -5 90 15q26 20 26 60
q0 29 -6 74q-5 34 -17 100l4 5h84q7 -47 12 -92q5 -48 5 -78q0 -47 -12 -81t-39 -55v-4q78 -39 78 -116q0 -50 -22 -90q-23 -41 -64 -69t-102 -43q-60 -15 -136 -15zM618 716l66 -66l-66 -65h-10l-67 65l67 66h10zM462 -361h-10l-56 54l-55 -54h-10l-67 65l67 66h10l55 -55
l56 55h10l66 -66z" />
    <glyph glyph-name="uniFC59" unicode="&#xfef3;&#xfef0;" horiz-adv-x="753" arabic-form="isolated" 
d="M390 -146l-2 1q-174 0 -262 75t-88 228q0 48 6 94q6 49 16 81h69v-8q-7 -31 -12 -69q-4 -33 -4 -72q0 -100 69 -147q70 -47 213 -47q114 0 182 20q66 19 66 53q0 12 -7 20q-8 9 -25 15q-18 6 -51 12q-39 7 -82 11l-77 6v117l4 6l84 -7q65 -5 90 15q26 20 26 60
q0 29 -6 74q-5 34 -17 100l4 5h84q7 -47 12 -92q5 -48 5 -78q0 -47 -12 -81t-39 -55v-4q78 -39 78 -116q0 -50 -22 -90q-23 -41 -64 -69t-102 -43q-60 -15 -136 -15zM722 -304h-10l-56 54l-55 -54h-10l-67 65l67 66h10l55 -55l56 55h10l66 -66z" />
    <glyph glyph-name="uniFC5A" unicode="&#xfef3;&#xfef2;" horiz-adv-x="753" arabic-form="isolated" 
d="M390 -146l-2 1q-174 0 -262 75t-88 228q0 48 6 94q6 49 16 81h69v-8q-7 -31 -12 -69q-4 -33 -4 -72q0 -100 69 -147q70 -47 213 -47q114 0 182 20q66 19 66 53q0 12 -7 20q-8 9 -25 15q-18 6 -51 12q-39 7 -82 11l-77 6v117l4 6l84 -7q65 -5 90 15q26 20 26 60
q0 29 -6 74q-5 34 -17 100l4 5h84q7 -47 12 -92q5 -48 5 -78q0 -47 -12 -81t-39 -55v-4q78 -39 78 -116q0 -50 -22 -90q-23 -41 -64 -69t-102 -43q-60 -15 -136 -15zM341 -361h-10l-56 54l-55 -54h-10l-67 65l67 66h10l55 -55l56 55h10l66 -66zM601 -304h-10l-56 54l-55 -54
h-10l-67 65l67 66h10l55 -55l56 55h10l66 -66z" />
    <glyph glyph-name="uniFC64" unicode="&#xfe8c;&#xfeae;" horiz-adv-x="615" arabic-form="final" 
d="M50 -255l1 -1q-44 0 -81 19q-38 20 -69 52v68l8 7q59 -25 112 -25q38 0 69 16q32 17 54 45t36 69q14 42 14 90q0 42 -12 102q-11 56 -35 126l5 5h83l15 -57l176 27v60h76v-140q0 -50 27 -68t86 -18h1v-100l-22 -23h-1q-75 0 -116 38q-40 37 -45 119l-2 9l-159 -24
q2 -18 2 -25v-23q0 -75 -18 -139t-48 -111t-70 -72q-41 -26 -87 -26zM392 474q-10 19 -10 41q0 23 9 41t23 32t33 21q21 8 42 8q65 0 65 -68v-27h-42v7q0 26 -33 26q-22 0 -39 -11q-16 -10 -16 -26q0 -13 10 -23q10 -11 27 -21h108v-61h-208v61h31z" />
    <glyph glyph-name="uniFC65" unicode="&#xfe8c;&#xfeb0;" horiz-adv-x="615" arabic-form="final" 
d="M50 -255l1 -1q-44 0 -81 19q-38 20 -69 52v68l8 7q59 -25 112 -25q38 0 69 16q32 17 54 45t36 69q14 42 14 90q0 42 -12 102q-11 56 -35 126l5 5h83l15 -57l176 27v60h76v-140q0 -50 27 -68t86 -18h1v-100l-22 -23h-1q-75 0 -116 38q-40 37 -45 119l-2 9l-159 -24
q2 -18 2 -25v-23q0 -75 -18 -139t-48 -111t-70 -72q-41 -26 -87 -26zM392 474q-10 19 -10 41q0 23 9 41t23 32t33 21q21 8 42 8q65 0 65 -68v-27h-42v7q0 26 -33 26q-22 0 -39 -11q-16 -10 -16 -26q0 -13 10 -23q10 -11 27 -21h108v-61h-208v61h31zM180 536l66 -66l-66 -65
h-10l-67 65l67 66h10z" />
    <glyph glyph-name="uniFC67" unicode="&#xfe8c;&#xfee6;" horiz-adv-x="965" arabic-form="final" 
d="M327 -206l-5 -2q-71 0 -124 19q-54 19 -90 54t-54 84t-18 111q0 50 6 90t18 81h70v-9q-17 -65 -17 -120q0 -82 56 -129q55 -46 156 -46q107 0 159 39q53 39 53 111q0 43 -11 109q-10 62 -27 127l5 5h83l13 -57l175 27v60h76v-140q0 -50 26 -68q25 -18 86 -18h1v-100
l-23 -23h-1q-76 0 -117 39t-45 123v5l-161 -26q2 -18 2 -25v-23q0 -69 -20 -126q-19 -55 -57 -94q-36 -38 -92 -58q-55 -20 -123 -20zM737 474q-10 19 -10 41q0 23 9 41t23 32q13 14 33 21q21 8 42 8q65 0 65 -68v-27h-42v7q0 26 -33 26q-22 0 -39 -11q-16 -10 -16 -26
q0 -13 10 -23q11 -11 27 -21h108v-61h-208v61h31zM328 415l66 -66l-66 -65h-10l-67 65l67 66h10z" />
    <glyph glyph-name="uniFC68" unicode="&#xfe8c;&#xfef0;" horiz-adv-x="897" arabic-form="final" 
d="M533 483q-10 19 -10 41q0 23 9 41t23 32q13 13 33 21q21 8 42 8q65 0 65 -68v-27h-42v7q0 26 -33 26q-22 0 -39 -11q-16 -10 -16 -26q0 -13 10 -23q11 -10 27 -21h108v-61h-208v61h31zM375 -295h-1q-162 0 -249 69t-87 212q0 46 6 89q7 47 16 77h69v-9q-8 -29 -12 -61
q-4 -29 -4 -68q0 -89 69 -131t213 -42q53 0 100 6q48 6 79 16q33 11 51 24t18 30t-20 26q-17 8 -71 19l-73 14q-79 15 -117 45q-37 30 -37 90q0 45 23 91q23 45 62 80q40 35 89 56t104 21q49 0 84 -22q37 -23 62 -72l29 -55q15 -28 25 -42q13 -18 24 -26q10 -8 26 -13
q12 -4 33 -4h8v-100l-22 -23h-9q-27 0 -49 6t-42 21q-18 14 -37 39q-15 20 -37 59l-22 41q-20 35 -46 51t-64 16q-35 0 -63 -7q-32 -8 -54 -19q-23 -12 -37 -27q-14 -16 -14 -31q0 -21 21 -32q21 -10 68 -21l73 -16q40 -8 69 -18q28 -10 47 -26q18 -15 27 -37q9 -23 9 -54
q0 -57 -24 -102q-23 -44 -68 -76q-44 -32 -106 -48q-61 -16 -139 -16z" />
    <glyph glyph-name="uniFC69" unicode="&#xfe8c;&#xfef2;" horiz-adv-x="897" arabic-form="final" 
d="M533 483q-10 19 -10 41q0 23 9 41t23 32q13 13 33 21q21 8 42 8q65 0 65 -68v-27h-42v7q0 26 -33 26q-22 0 -39 -11q-16 -10 -16 -26q0 -13 10 -23q11 -10 27 -21h108v-61h-208v61h31zM441 -511h-10l-56 54l-55 -54h-10l-67 65l67 66h10l55 -55l56 55h10l66 -66z
M375 -295h-1q-162 0 -249 69t-87 212q0 46 6 89q7 47 16 77h69v-9q-8 -29 -12 -61q-4 -29 -4 -68q0 -89 69 -131t213 -42q53 0 100 6q48 6 79 16q33 11 51 24t18 30t-20 26q-17 8 -71 19l-73 14q-79 15 -117 45q-37 30 -37 90q0 45 23 91q23 45 62 80q40 35 89 56t104 21
q49 0 84 -22q37 -23 62 -72l29 -55q15 -28 25 -42q13 -18 24 -26q10 -8 26 -13q12 -4 33 -4h8v-100l-22 -23h-9q-27 0 -49 6t-42 21q-18 14 -37 39q-15 20 -37 59l-22 41q-20 35 -46 51t-64 16q-35 0 -63 -7q-32 -8 -54 -19q-23 -12 -37 -27q-14 -16 -14 -31q0 -21 21 -32
q21 -10 68 -21l73 -16q40 -8 69 -18q28 -10 47 -26q18 -15 27 -37q9 -23 9 -54q0 -57 -24 -102q-23 -44 -68 -76q-44 -32 -106 -48q-61 -16 -139 -16z" />
    <glyph glyph-name="uniFC6A" unicode="&#xfe92;&#xfeae;" horiz-adv-x="615" arabic-form="final" 
d="M50 -255l1 -1q-44 0 -81 19q-38 20 -69 52v68l8 7q59 -25 112 -25q38 0 69 16q32 17 54 45t36 69q14 42 14 90q0 42 -12 102q-11 56 -35 126l5 5h83l15 -57l176 27v60h76v-140q0 -50 27 -68t86 -18h1v-100l-22 -23h-1q-75 0 -116 38q-40 37 -45 119l-2 9l-159 -24
q2 -18 2 -25v-23q0 -75 -18 -139t-48 -111t-70 -72q-41 -26 -87 -26zM474 -86l66 -66l-66 -65h-10l-67 65l67 66h10z" />
    <glyph glyph-name="uniFC6B" unicode="&#xfe92;&#xfeb0;" horiz-adv-x="615" arabic-form="final" 
d="M50 -255l1 -1q-44 0 -81 19q-38 20 -69 52v68l8 7q59 -25 112 -25q38 0 69 16q32 17 54 45t36 69q14 42 14 90q0 42 -12 102q-11 56 -35 126l5 5h83l15 -57l176 27v60h76v-140q0 -50 27 -68t86 -18h1v-100l-22 -23h-1q-75 0 -116 38q-40 37 -45 119l-2 9l-159 -24
q2 -18 2 -25v-23q0 -75 -18 -139t-48 -111t-70 -72q-41 -26 -87 -26zM474 -86l66 -66l-66 -65h-10l-67 65l67 66h10zM180 536l66 -66l-66 -65h-10l-67 65l67 66h10z" />
    <glyph glyph-name="uniFC6D" unicode="&#xfe92;&#xfee6;" horiz-adv-x="965" arabic-form="final" 
d="M327 -206l-5 -2q-71 0 -124 19q-54 19 -90 54t-54 84t-18 111q0 50 6 90t18 81h70v-9q-17 -65 -17 -120q0 -82 56 -129q55 -46 156 -46q107 0 159 39q53 39 53 111q0 43 -11 109q-10 62 -27 127l5 5h83l13 -57l175 27v60h76v-140q0 -50 26 -68q25 -18 86 -18h1v-100
l-23 -23h-1q-76 0 -117 39t-45 123v5l-161 -26q2 -18 2 -25v-23q0 -69 -20 -126q-19 -55 -57 -94q-36 -38 -92 -58q-55 -20 -123 -20zM328 415l66 -66l-66 -65h-10l-67 65l67 66h10zM810 -87l66 -66l-66 -65h-10l-67 65l67 66h10z" />
    <glyph glyph-name="uniFC6E" unicode="&#xfe92;&#xfef0;" horiz-adv-x="897" arabic-form="final" 
d="M748 -242l66 -66l-66 -65h-10l-67 65l67 66h10zM375 -295h-1q-162 0 -249 69t-87 212q0 46 6 89q7 47 16 77h69v-9q-8 -29 -12 -61q-4 -29 -4 -68q0 -89 69 -131t213 -42q53 0 100 6q48 6 79 16q33 11 51 24t18 30t-20 26q-17 8 -71 19l-73 14q-79 15 -117 45
q-37 30 -37 90q0 45 23 91q23 45 62 80q40 35 89 56t104 21q49 0 84 -22q37 -23 62 -72l29 -55q15 -28 25 -42q13 -18 24 -26q10 -8 26 -13q12 -4 33 -4h8v-100l-22 -23h-9q-27 0 -49 6t-42 21q-18 14 -37 39q-15 20 -37 59l-22 41q-20 35 -46 51t-64 16q-35 0 -63 -7
q-32 -8 -54 -19q-23 -12 -37 -27q-14 -16 -14 -31q0 -21 21 -32q21 -10 68 -21l73 -16q40 -8 69 -18q28 -10 47 -26q18 -15 27 -37q9 -23 9 -54q0 -57 -24 -102q-23 -44 -68 -76q-44 -32 -106 -48q-61 -16 -139 -16z" />
    <glyph glyph-name="uniFC6F" unicode="&#xfe92;&#xfef2;" horiz-adv-x="897" arabic-form="final" 
d="M748 -242l66 -66l-66 -65h-10l-67 65l67 66h10zM441 -511h-10l-56 54l-55 -54h-10l-67 65l67 66h10l55 -55l56 55h10l66 -66zM375 -295h-1q-162 0 -249 69t-87 212q0 46 6 89q7 47 16 77h69v-9q-8 -29 -12 -61q-4 -29 -4 -68q0 -89 69 -131t213 -42q53 0 100 6
q48 6 79 16q33 11 51 24t18 30t-20 26q-17 8 -71 19l-73 14q-79 15 -117 45q-37 30 -37 90q0 45 23 91q23 45 62 80q40 35 89 56t104 21q49 0 84 -22q37 -23 62 -72l29 -55q15 -28 25 -42q13 -18 24 -26q10 -8 26 -13q12 -4 33 -4h8v-100l-22 -23h-9q-27 0 -49 6t-42 21
q-18 14 -37 39q-15 20 -37 59l-22 41q-20 35 -46 51t-64 16q-35 0 -63 -7q-32 -8 -54 -19q-23 -12 -37 -27q-14 -16 -14 -31q0 -21 21 -32q21 -10 68 -21l73 -16q40 -8 69 -18q28 -10 47 -26q18 -15 27 -37q9 -23 9 -54q0 -57 -24 -102q-23 -44 -68 -76q-44 -32 -106 -48
q-61 -16 -139 -16z" />
    <glyph glyph-name="uniFC70" unicode="&#xfe98;&#xfeae;" horiz-adv-x="615" arabic-form="final" 
d="M50 -255l1 -1q-44 0 -81 19q-38 20 -69 52v68l8 7q59 -25 112 -25q38 0 69 16q32 17 54 45t36 69q14 42 14 90q0 42 -12 102q-11 56 -35 126l5 5h83l15 -57l176 27v60h76v-140q0 -50 27 -68t86 -18h1v-100l-22 -23h-1q-75 0 -116 38q-40 37 -45 119l-2 9l-159 -24
q2 -18 2 -25v-23q0 -75 -18 -139t-48 -111t-70 -72q-41 -26 -87 -26zM531 435h-10l-56 54l-55 -54h-10l-67 65l67 66h10l55 -55l56 55h10l66 -66z" />
    <glyph glyph-name="uniFC71" unicode="&#xfe98;&#xfeb0;" horiz-adv-x="615" arabic-form="final" 
d="M50 -255l1 -1q-44 0 -81 19q-38 20 -69 52v68l8 7q59 -25 112 -25q38 0 69 16q32 17 54 45t36 69q14 42 14 90q0 42 -12 102q-11 56 -35 126l5 5h83l15 -57l176 27v60h76v-140q0 -50 27 -68t86 -18h1v-100l-22 -23h-1q-75 0 -116 38q-40 37 -45 119l-2 9l-159 -24
q2 -18 2 -25v-23q0 -75 -18 -139t-48 -111t-70 -72q-41 -26 -87 -26zM531 435h-10l-56 54l-55 -54h-10l-67 65l67 66h10l55 -55l56 55h10l66 -66zM180 536l66 -66l-66 -65h-10l-67 65l67 66h10z" />
    <glyph glyph-name="uniFC73" unicode="&#xfe98;&#xfee6;" horiz-adv-x="965" arabic-form="final" 
d="M327 -206l-5 -2q-71 0 -124 19q-54 19 -90 54t-54 84t-18 111q0 50 6 90t18 81h70v-9q-17 -65 -17 -120q0 -82 56 -129q55 -46 156 -46q107 0 159 39q53 39 53 111q0 43 -11 109q-10 62 -27 127l5 5h83l13 -57l175 27v60h76v-140q0 -50 26 -68q25 -18 86 -18h1v-100
l-23 -23h-1q-76 0 -117 39t-45 123v5l-161 -26q2 -18 2 -25v-23q0 -69 -20 -126q-19 -55 -57 -94q-36 -38 -92 -58q-55 -20 -123 -20zM328 415l66 -66l-66 -65h-10l-67 65l67 66h10zM876 435h-10l-56 54l-55 -54h-10l-67 65l67 66h10l55 -55l56 55h10l66 -66z" />
    <glyph glyph-name="uniFC74" unicode="&#xfe98;&#xfef0;" horiz-adv-x="897" arabic-form="final" 
d="M672 444h-10l-56 54l-55 -54h-10l-67 65l67 66h10l55 -55l56 55h10l66 -66zM375 -295h-1q-162 0 -249 69t-87 212q0 46 6 89q7 47 16 77h69v-9q-8 -29 -12 -61q-4 -29 -4 -68q0 -89 69 -131t213 -42q53 0 100 6q48 6 79 16q33 11 51 24t18 30t-20 26q-17 8 -71 19l-73 14
q-79 15 -117 45q-37 30 -37 90q0 45 23 91q23 45 62 80q40 35 89 56t104 21q49 0 84 -22q37 -23 62 -72l29 -55q15 -28 25 -42q13 -18 24 -26q10 -8 26 -13q12 -4 33 -4h8v-100l-22 -23h-9q-27 0 -49 6t-42 21q-18 14 -37 39q-15 20 -37 59l-22 41q-20 35 -46 51t-64 16
q-35 0 -63 -7q-32 -8 -54 -19q-23 -12 -37 -27q-14 -16 -14 -31q0 -21 21 -32q21 -10 68 -21l73 -16q40 -8 69 -18q28 -10 47 -26q18 -15 27 -37q9 -23 9 -54q0 -57 -24 -102q-23 -44 -68 -76q-44 -32 -106 -48q-61 -16 -139 -16z" />
    <glyph glyph-name="uniFC75" unicode="&#xfe98;&#xfef2;" horiz-adv-x="897" arabic-form="final" 
d="M672 444h-10l-56 54l-55 -54h-10l-67 65l67 66h10l55 -55l56 55h10l66 -66zM441 -511h-10l-56 54l-55 -54h-10l-67 65l67 66h10l55 -55l56 55h10l66 -66zM375 -295h-1q-162 0 -249 69t-87 212q0 46 6 89q7 47 16 77h69v-9q-8 -29 -12 -61q-4 -29 -4 -68q0 -89 69 -131
t213 -42q53 0 100 6q48 6 79 16q33 11 51 24t18 30t-20 26q-17 8 -71 19l-73 14q-79 15 -117 45q-37 30 -37 90q0 45 23 91q23 45 62 80q40 35 89 56t104 21q49 0 84 -22q37 -23 62 -72l29 -55q15 -28 25 -42q13 -18 24 -26q10 -8 26 -13q12 -4 33 -4h8v-100l-22 -23h-9
q-27 0 -49 6t-42 21q-18 14 -37 39q-15 20 -37 59l-22 41q-20 35 -46 51t-64 16q-35 0 -63 -7q-32 -8 -54 -19q-23 -12 -37 -27q-14 -16 -14 -31q0 -21 21 -32q21 -10 68 -21l73 -16q40 -8 69 -18q28 -10 47 -26q18 -15 27 -37q9 -23 9 -54q0 -57 -24 -102q-23 -44 -68 -76
q-44 -32 -106 -48q-61 -16 -139 -16z" />
    <glyph glyph-name="uniFC76" unicode="&#xfe9c;&#xfeae;" horiz-adv-x="615" arabic-form="final" 
d="M50 -255l1 -1q-44 0 -81 19q-38 20 -69 52v68l8 7q59 -25 112 -25q38 0 69 16q32 17 54 45t36 69q14 42 14 90q0 42 -12 102q-11 56 -35 126l5 5h83l15 -57l176 27v60h76v-140q0 -50 27 -68t86 -18h1v-100l-22 -23h-1q-75 0 -116 38q-40 37 -45 119l-2 9l-159 -24
q2 -18 2 -25v-23q0 -75 -18 -139t-48 -111t-70 -72q-41 -26 -87 -26zM396 619l64 62h10l64 -62l-64 -63h-10zM531 435h-10l-56 54l-55 -54h-10l-67 65l67 66h10l55 -55l56 55h10l66 -66z" />
    <glyph glyph-name="uniFC77" unicode="&#xfe9c;&#xfeb0;" horiz-adv-x="615" arabic-form="final" 
d="M50 -255l1 -1q-44 0 -81 19q-38 20 -69 52v68l8 7q59 -25 112 -25q38 0 69 16q32 17 54 45t36 69q14 42 14 90q0 42 -12 102q-11 56 -35 126l5 5h83l15 -57l176 27v60h76v-140q0 -50 27 -68t86 -18h1v-100l-22 -23h-1q-75 0 -116 38q-40 37 -45 119l-2 9l-159 -24
q2 -18 2 -25v-23q0 -75 -18 -139t-48 -111t-70 -72q-41 -26 -87 -26zM396 619l64 62h10l64 -62l-64 -63h-10zM531 435h-10l-56 54l-55 -54h-10l-67 65l67 66h10l55 -55l56 55h10l66 -66zM180 536l66 -66l-66 -65h-10l-67 65l67 66h10z" />
    <glyph glyph-name="uniFC79" unicode="&#xfe9c;&#xfee6;" horiz-adv-x="965" arabic-form="final" 
d="M327 -206l-5 -2q-71 0 -124 19q-54 19 -90 54t-54 84t-18 111q0 50 6 90t18 81h70v-9q-17 -65 -17 -120q0 -82 56 -129q55 -46 156 -46q107 0 159 39q53 39 53 111q0 43 -11 109q-10 62 -27 127l5 5h83l13 -57l175 27v60h76v-140q0 -50 26 -68q25 -18 86 -18h1v-100
l-23 -23h-1q-76 0 -117 39t-45 123v5l-161 -26q2 -18 2 -25v-23q0 -69 -20 -126q-19 -55 -57 -94q-36 -38 -92 -58q-55 -20 -123 -20zM328 415l66 -66l-66 -65h-10l-67 65l67 66h10zM741 619l64 62h10l64 -62l-64 -63h-10zM876 435h-10l-56 54l-55 -54h-10l-67 65l67 66h10
l55 -55l56 55h10l66 -66z" />
    <glyph glyph-name="uniFC7A" unicode="&#xfe9c;&#xfef0;" horiz-adv-x="897" arabic-form="final" 
d="M537 628l64 62h10l64 -62l-64 -63h-10zM672 444h-10l-56 54l-55 -54h-10l-67 65l67 66h10l55 -55l56 55h10l66 -66zM375 -295h-1q-162 0 -249 69t-87 212q0 46 6 89q7 47 16 77h69v-9q-8 -29 -12 -61q-4 -29 -4 -68q0 -89 69 -131t213 -42q53 0 100 6q48 6 79 16
q33 11 51 24t18 30t-20 26q-17 8 -71 19l-73 14q-79 15 -117 45q-37 30 -37 90q0 45 23 91q23 45 62 80q40 35 89 56t104 21q49 0 84 -22q37 -23 62 -72l29 -55q15 -28 25 -42q13 -18 24 -26q10 -8 26 -13q12 -4 33 -4h8v-100l-22 -23h-9q-27 0 -49 6t-42 21q-18 14 -37 39
q-15 20 -37 59l-22 41q-20 35 -46 51t-64 16q-35 0 -63 -7q-32 -8 -54 -19q-23 -12 -37 -27q-14 -16 -14 -31q0 -21 21 -32q21 -10 68 -21l73 -16q40 -8 69 -18q28 -10 47 -26q18 -15 27 -37q9 -23 9 -54q0 -57 -24 -102q-23 -44 -68 -76q-44 -32 -106 -48q-61 -16 -139 -16
z" />
    <glyph glyph-name="uniFC7B" unicode="&#xfe9c;&#xfef2;" horiz-adv-x="897" arabic-form="final" 
d="M537 628l64 62h10l64 -62l-64 -63h-10zM672 444h-10l-56 54l-55 -54h-10l-67 65l67 66h10l55 -55l56 55h10l66 -66zM441 -511h-10l-56 54l-55 -54h-10l-67 65l67 66h10l55 -55l56 55h10l66 -66zM375 -295h-1q-162 0 -249 69t-87 212q0 46 6 89q7 47 16 77h69v-9
q-8 -29 -12 -61q-4 -29 -4 -68q0 -89 69 -131t213 -42q53 0 100 6q48 6 79 16q33 11 51 24t18 30t-20 26q-17 8 -71 19l-73 14q-79 15 -117 45q-37 30 -37 90q0 45 23 91q23 45 62 80q40 35 89 56t104 21q49 0 84 -22q37 -23 62 -72l29 -55q15 -28 25 -42q13 -18 24 -26
q10 -8 26 -13q12 -4 33 -4h8v-100l-22 -23h-9q-27 0 -49 6t-42 21q-18 14 -37 39q-15 20 -37 59l-22 41q-20 35 -46 51t-64 16q-35 0 -63 -7q-32 -8 -54 -19q-23 -12 -37 -27q-14 -16 -14 -31q0 -21 21 -32q21 -10 68 -21l73 -16q40 -8 69 -18q28 -10 47 -26q18 -15 27 -37
q9 -23 9 -54q0 -57 -24 -102q-23 -44 -68 -76q-44 -32 -106 -48q-61 -16 -139 -16z" />
    <glyph glyph-name="uniFC83" unicode="&#xfedc;&#xfef0;" horiz-adv-x="1025" arabic-form="final" 
d="M675 467l179 -248q21 -29 37 -45q18 -18 36 -30q17 -11 37 -16q22 -5 42 -5h18v-99l-23 -24q-27 0 -55 5q-25 4 -49 18q-24 13 -48 36q-21 19 -52 59q-18 -77 -89 -106q4 -12 4 -33q0 -53 -22 -93q-23 -41 -64 -69t-102 -43q-60 -15 -136 -15q-174 0 -262 75t-88 228
q0 48 6 94q6 49 16 81h69v-8q-7 -31 -12 -69q-4 -33 -4 -72q0 -100 69 -147q70 -47 213 -47q116 0 182 18t66 50q0 13 -7 20q-8 8 -25 14q-18 6 -51 12q-52 9 -82 14l-77 12v117l4 5l74 -11q12 -2 34 -5t31 -5q6 -1 48 -7l36 -4q10 -1 28 -1q83 0 99 58l-163 229v122
l426 223h9v-108z" />
    <glyph glyph-name="uniFC84" unicode="&#xfedc;&#xfef2;" horiz-adv-x="1025" arabic-form="final" 
d="M675 467l179 -248q21 -29 37 -45q18 -18 36 -30q17 -11 37 -16q22 -5 42 -5h18v-99l-23 -24q-27 0 -55 5q-25 4 -49 18q-24 13 -48 36q-21 19 -52 59q-18 -77 -89 -106q4 -12 4 -33q0 -53 -22 -93q-23 -41 -64 -69t-102 -43q-60 -15 -136 -15q-174 0 -262 75t-88 228
q0 48 6 94q6 49 16 81h69v-8q-7 -31 -12 -69q-4 -33 -4 -72q0 -100 69 -147q70 -47 213 -47q116 0 182 18t66 50q0 13 -7 20q-8 8 -25 14q-18 6 -51 12q-52 9 -82 14l-77 12v117l4 5l74 -11q12 -2 34 -5t31 -5q6 -1 48 -7l36 -4q10 -1 28 -1q83 0 99 58l-163 229v122
l426 223h9v-108zM454 -457h-10l-56 54l-55 -54h-10l-67 65l67 66h10l55 -55l56 55h10l66 -66z" />
    <glyph glyph-name="uniFC86" unicode="&#xfee0;&#xfef0;" horiz-adv-x="958" arabic-form="final" 
d="M958 23l-25 -26h-1q-60 0 -98 20q-38 19 -57 63q-24 -48 -69 -69q2 -6 4 -16q1 -6 1 -18q0 -106 -84 -163t-241 -57q-174 0 -262 75t-88 228q0 48 6 94q6 49 16 81h69v-8q-7 -31 -12 -69q-4 -33 -4 -72q0 -100 69 -147q70 -47 213 -47q116 0 182 18t66 50q0 13 -7 20
q-8 8 -25 14q-18 6 -51 12q-52 9 -82 14l-77 12v117l4 5l74 -11q12 -2 32 -5.5t28 -4.5q13 -2 46 -7q12 -2 37 -4q11 -1 32 -1q64 0 108 26q-1 9 -3 29q-1 10 -1 32v536h92v-531q0 -48 25 -69t82 -21h1v-100z" />
    <glyph glyph-name="uniFC87" unicode="&#xfee0;&#xfef2;" horiz-adv-x="958" arabic-form="final" 
d="M958 23l-25 -26h-1q-60 0 -98 20q-38 19 -57 63q-24 -48 -69 -69q2 -6 4 -16q1 -6 1 -18q0 -106 -84 -163t-241 -57q-174 0 -262 75t-88 228q0 48 6 94q6 49 16 81h69v-8q-7 -31 -12 -69q-4 -33 -4 -72q0 -100 69 -147q70 -47 213 -47q116 0 182 18t66 50q0 13 -7 20
q-8 8 -25 14q-18 6 -51 12q-52 9 -82 14l-77 12v117l4 5l74 -11q12 -2 32 -5.5t28 -4.5q13 -2 46 -7q12 -2 37 -4q11 -1 32 -1q64 0 108 26q-1 9 -3 29q-1 10 -1 32v536h92v-531q0 -48 25 -69t82 -21h1v-100zM453 -459h-10l-56 54l-55 -54h-10l-67 65l67 66h10l55 -55l56 55
h10l66 -66z" />
    <glyph glyph-name="uniFC8A" unicode="&#xfee8;&#xfeae;" horiz-adv-x="615" arabic-form="final" 
d="M50 -255l1 -1q-44 0 -81 19q-38 20 -69 52v68l8 7q59 -25 112 -25q38 0 69 16q32 17 54 45t36 69q14 42 14 90q0 42 -12 102q-11 56 -35 126l5 5h83l15 -57l176 27v60h76v-140q0 -50 27 -68t86 -18h1v-100l-22 -23h-1q-75 0 -116 38q-40 37 -45 119l-2 9l-159 -24
q2 -18 2 -25v-23q0 -75 -18 -139t-48 -111t-70 -72q-41 -26 -87 -26zM470 566l66 -66l-66 -65h-10l-67 65l67 66h10z" />
    <glyph glyph-name="uniFC8B" unicode="&#xfee8;&#xfeb0;" horiz-adv-x="615" arabic-form="final" 
d="M50 -255l1 -1q-44 0 -81 19q-38 20 -69 52v68l8 7q59 -25 112 -25q38 0 69 16q32 17 54 45t36 69q14 42 14 90q0 42 -12 102q-11 56 -35 126l5 5h83l15 -57l176 27v60h76v-140q0 -50 27 -68t86 -18h1v-100l-22 -23h-1q-75 0 -116 38q-40 37 -45 119l-2 9l-159 -24
q2 -18 2 -25v-23q0 -75 -18 -139t-48 -111t-70 -72q-41 -26 -87 -26zM119 536l66 -66l-66 -65h-10l-67 65l67 66h10zM409 566l66 -66l-66 -65h-10l-67 65l67 66h10z" />
    <glyph glyph-name="uniFC8D" unicode="&#xfee8;&#xfee6;" horiz-adv-x="965" arabic-form="final" 
d="M327 -206l-5 -2q-71 0 -124 19q-54 19 -90 54t-54 84t-18 111q0 50 6 90t18 81h70v-9q-17 -65 -17 -120q0 -82 56 -129q55 -46 156 -46q107 0 159 39q53 39 53 111q0 43 -11 109q-10 62 -27 127l5 5h83l13 -57l175 27v60h76v-140q0 -50 26 -68q25 -18 86 -18h1v-100
l-23 -23h-1q-76 0 -117 39t-45 123v5l-161 -26q2 -18 2 -25v-23q0 -69 -20 -126q-19 -55 -57 -94q-36 -38 -92 -58q-55 -20 -123 -20zM267 415l66 -66l-66 -65h-10l-67 65l67 66h10zM754 566l66 -66l-66 -65h-10l-67 65l67 66h10z" />
    <glyph glyph-name="uniFC8E" unicode="&#xfee8;&#xfef0;" horiz-adv-x="897" arabic-form="final" 
d="M611 575l66 -66l-66 -65h-10l-67 65l67 66h10zM375 -295h-1q-162 0 -249 69t-87 212q0 46 6 89q7 47 16 77h69v-9q-8 -29 -12 -61q-4 -29 -4 -68q0 -89 69 -131t213 -42q53 0 100 6q48 6 79 16q33 11 51 24t18 30t-20 26q-17 8 -71 19l-73 14q-79 15 -117 45
q-37 30 -37 90q0 45 23 91q23 45 62 80q40 35 89 56t104 21q49 0 84 -22q37 -23 62 -72l29 -55q15 -28 25 -42q13 -18 24 -26q10 -8 26 -13q12 -4 33 -4h8v-100l-22 -23h-9q-27 0 -49 6t-42 21q-18 14 -37 39q-15 20 -37 59l-22 41q-20 35 -46 51t-64 16q-35 0 -63 -7
q-32 -8 -54 -19q-23 -12 -37 -27q-14 -16 -14 -31q0 -21 21 -32q21 -10 68 -21l73 -16q40 -8 69 -18q28 -10 47 -26q18 -15 27 -37q9 -23 9 -54q0 -57 -24 -102q-23 -44 -68 -76q-44 -32 -106 -48q-61 -16 -139 -16z" />
    <glyph glyph-name="uniFC8F" unicode="&#xfee8;&#xfef2;" horiz-adv-x="897" arabic-form="final" 
d="M611 575l66 -66l-66 -65h-10l-67 65l67 66h10zM441 -511h-10l-56 54l-55 -54h-10l-67 65l67 66h10l55 -55l56 55h10l66 -66zM375 -295h-1q-162 0 -249 69t-87 212q0 46 6 89q7 47 16 77h69v-9q-8 -29 -12 -61q-4 -29 -4 -68q0 -89 69 -131t213 -42q53 0 100 6q48 6 79 16
q33 11 51 24t18 30t-20 26q-17 8 -71 19l-73 14q-79 15 -117 45q-37 30 -37 90q0 45 23 91q23 45 62 80q40 35 89 56t104 21q49 0 84 -22q37 -23 62 -72l29 -55q15 -28 25 -42q13 -18 24 -26q10 -8 26 -13q12 -4 33 -4h8v-100l-22 -23h-9q-27 0 -49 6t-42 21q-18 14 -37 39
q-15 20 -37 59l-22 41q-20 35 -46 51t-64 16q-35 0 -63 -7q-32 -8 -54 -19q-23 -12 -37 -27q-14 -16 -14 -31q0 -21 21 -32q21 -10 68 -21l73 -16q40 -8 69 -18q28 -10 47 -26q18 -15 27 -37q9 -23 9 -54q0 -57 -24 -102q-23 -44 -68 -76q-44 -32 -106 -48q-61 -16 -139 -16
z" />
    <glyph glyph-name="uniFC91" unicode="&#xfef4;&#xfeae;" horiz-adv-x="615" arabic-form="final" 
d="M50 -255l1 -1q-44 0 -81 19q-38 20 -69 52v68l8 7q59 -25 112 -25q38 0 69 16q32 17 54 45t36 69q14 42 14 90q0 42 -12 102q-11 56 -35 126l5 5h83l15 -57l176 27v60h76v-140q0 -50 27 -68t86 -18h1v-100l-22 -23h-1q-75 0 -116 38q-40 37 -45 119l-2 9l-159 -24
q2 -18 2 -25v-23q0 -75 -18 -139t-48 -111t-70 -72q-41 -26 -87 -26zM535 -217h-10l-56 54l-55 -54h-10l-67 65l67 66h10l55 -55l56 55h10l66 -66z" />
    <glyph glyph-name="uniFC92" unicode="&#xfef4;&#xfeb0;" horiz-adv-x="615" arabic-form="final" 
d="M50 -255l1 -1q-44 0 -81 19q-38 20 -69 52v68l8 7q59 -25 112 -25q38 0 69 16q32 17 54 45t36 69q14 42 14 90q0 42 -12 102q-11 56 -35 126l5 5h83l15 -57l176 27v60h76v-140q0 -50 27 -68t86 -18h1v-100l-22 -23h-1q-75 0 -116 38q-40 37 -45 119l-2 9l-159 -24
q2 -18 2 -25v-23q0 -75 -18 -139t-48 -111t-70 -72q-41 -26 -87 -26zM535 -217h-10l-56 54l-55 -54h-10l-67 65l67 66h10l55 -55l56 55h10l66 -66zM180 536l66 -66l-66 -65h-10l-67 65l67 66h10z" />
    <glyph glyph-name="uniFC94" unicode="&#xfef4;&#xfee6;" horiz-adv-x="965" arabic-form="final" 
d="M327 -206l-5 -2q-71 0 -124 19q-54 19 -90 54t-54 84t-18 111q0 50 6 90t18 81h70v-9q-17 -65 -17 -120q0 -82 56 -129q55 -46 156 -46q107 0 159 39q53 39 53 111q0 43 -11 109q-10 62 -27 127l5 5h83l13 -57l175 27v60h76v-140q0 -50 26 -68q25 -18 86 -18h1v-100
l-23 -23h-1q-76 0 -117 39t-45 123v5l-161 -26q2 -18 2 -25v-23q0 -69 -20 -126q-19 -55 -57 -94q-36 -38 -92 -58q-55 -20 -123 -20zM328 415l66 -66l-66 -65h-10l-67 65l67 66h10zM871 -218h-10l-56 54l-55 -54h-10l-67 65l67 66h10l55 -55l56 55h10l66 -66z" />
    <glyph glyph-name="uniFC95" unicode="&#xfef4;&#xfef0;" horiz-adv-x="897" arabic-form="final" 
d="M809 -373h-10l-56 54l-55 -54h-10l-67 65l67 66h10l55 -55l56 55h10l66 -66zM375 -295h-1q-162 0 -249 69t-87 212q0 46 6 89q7 47 16 77h69v-9q-8 -29 -12 -61q-4 -29 -4 -68q0 -89 69 -131t213 -42q53 0 100 6q48 6 79 16q33 11 51 24t18 30t-20 26q-17 8 -71 19
l-73 14q-79 15 -117 45q-37 30 -37 90q0 45 23 91q23 45 62 80q40 35 89 56t104 21q49 0 84 -22q37 -23 62 -72l29 -55q15 -28 25 -42q13 -18 24 -26q10 -8 26 -13q12 -4 33 -4h8v-100l-22 -23h-9q-27 0 -49 6t-42 21q-18 14 -37 39q-15 20 -37 59l-22 41q-20 35 -46 51
t-64 16q-35 0 -63 -7q-32 -8 -54 -19q-23 -12 -37 -27q-14 -16 -14 -31q0 -21 21 -32q21 -10 68 -21l73 -16q40 -8 69 -18q28 -10 47 -26q18 -15 27 -37q9 -23 9 -54q0 -57 -24 -102q-23 -44 -68 -76q-44 -32 -106 -48q-61 -16 -139 -16z" />
    <glyph glyph-name="uniFC96" unicode="&#xfef4;&#xfef2;" horiz-adv-x="897" arabic-form="final" 
d="M320 -511h-10l-56 54l-55 -54h-10l-67 65l67 66h10l55 -55l56 55h10l66 -66zM688 -373h-10l-56 54l-55 -54h-10l-67 65l67 66h10l55 -55l56 55h10l66 -66zM375 -295h-1q-162 0 -249 69t-87 212q0 46 6 89q7 47 16 77h69v-9q-8 -29 -12 -61q-4 -29 -4 -68q0 -89 69 -131
t213 -42q53 0 100 6q48 6 79 16q33 11 51 24t18 30t-20 26q-17 8 -71 19l-73 14q-79 15 -117 45q-37 30 -37 90q0 45 23 91q23 45 62 80q40 35 89 56t104 21q49 0 84 -22q37 -23 62 -72l29 -55q15 -28 25 -42q13 -18 24 -26q10 -8 26 -13q12 -4 33 -4h8v-100l-22 -23h-9
q-27 0 -49 6t-42 21q-18 14 -37 39q-15 20 -37 59l-22 41q-20 35 -46 51t-64 16q-35 0 -63 -7q-32 -8 -54 -19q-23 -12 -37 -27q-14 -16 -14 -31q0 -21 21 -32q21 -10 68 -21l73 -16q40 -8 69 -18q28 -10 47 -26q18 -15 27 -37q9 -23 9 -54q0 -57 -24 -102q-23 -44 -68 -76
q-44 -32 -106 -48q-61 -16 -139 -16z" />
    <glyph glyph-name="uniFCCC" unicode="&#xfedf;&#xfee4;" horiz-adv-x="302" arabic-form="initial" 
d="M228 -50l-1 -5q-27 15 -48 24t-42 15t-44 9t-53 3h-63v100l23 23h40q22 0 32 -1q16 -2 32 -6l2 3q-8 23 -9 45q-2 30 -2 51v533h92v-534q0 -41 3 -68q3 -28 12 -47q22 -8 41 -18q21 -11 45 -24l44 -26l-59 -103z" />
    <glyph glyph-name="uniFCFB" unicode="&#xfeb3;&#xfef0;" horiz-adv-x="1276" arabic-form="isolated" 
d="M375 -294l-1 -6q-162 0 -249 69t-87 212q0 45 6 89q7 47 16 77h69v-9q-8 -29 -12 -61q-4 -29 -4 -68q0 -89 69 -131t213 -42q53 0 100 6q48 6 79 16q33 10 51 24t18 30q0 17 -20 26q-17 8 -71 19l-73 14q-79 15 -117 45q-37 30 -37 90q0 45 23 91q23 45 62 80
q40 35 89 56t104 21q49 0 84 -22q37 -23 62 -70l29 -55q13 -24 26 -44q13 -19 25 -30q14 -12 28 -18q15 -6 35 -6q21 0 33 4q13 5 21 15q8 11 11 27q3 17 3 42v58h74v-58q0 -41 -6 -74q34 -14 68 -14q31 0 45 14t14 45q0 18 -1 27q-2 21 -4 30q-5 29 -7 37q-1 5 -4.5 21.5
t-5.5 26.5l5 6h79q1 -4 4 -20.5t4 -24.5q4 -27 5 -36q2 -22 2 -32v-32q0 -85 -36 -133t-102 -48t-106 42q-34 -42 -110 -42q-30 0 -57 8q-25 7 -46 24q-21 16 -39 42q-19 27 -38 62l-22 42q-20 35 -46 51t-64 16q-35 0 -63 -7q-32 -8 -54 -19q-23 -12 -37 -27
q-14 -16 -14 -31q0 -21 21 -33t68 -21l73 -16q44 -10 69 -19q28 -10 47 -26q18 -15 27 -36t9 -52q0 -57 -24 -102q-23 -44 -68 -76q-44 -32 -106 -48q-61 -16 -139 -16z" />
    <glyph glyph-name="uniFCFC" unicode="&#xfeb3;&#xfef2;" horiz-adv-x="1276" arabic-form="isolated" 
d="M375 -294l-1 -6q-162 0 -249 69t-87 212q0 45 6 89q7 47 16 77h69v-9q-8 -29 -12 -61q-4 -29 -4 -68q0 -89 69 -131t213 -42q53 0 100 6q48 6 79 16q33 10 51 24t18 30q0 17 -20 26q-17 8 -71 19l-73 14q-79 15 -117 45q-37 30 -37 90q0 45 23 91q23 45 62 80
q40 35 89 56t104 21q49 0 84 -22q37 -23 62 -70l29 -55q13 -24 26 -44q13 -19 25 -30q14 -12 28 -18q15 -6 35 -6q21 0 33 4q13 5 21 15q8 11 11 27q3 17 3 42v58h74v-58q0 -41 -6 -74q34 -14 68 -14q31 0 45 14t14 45q0 18 -1 27q-2 21 -4 30q-5 29 -7 37q-1 5 -4.5 21.5
t-5.5 26.5l5 6h79q1 -4 4 -20.5t4 -24.5q4 -27 5 -36q2 -22 2 -32v-32q0 -85 -36 -133t-102 -48t-106 42q-34 -42 -110 -42q-30 0 -57 8q-25 7 -46 24q-21 16 -39 42q-19 27 -38 62l-22 42q-20 35 -46 51t-64 16q-35 0 -63 -7q-32 -8 -54 -19q-23 -12 -37 -27
q-14 -16 -14 -31q0 -21 21 -33t68 -21l73 -16q44 -10 69 -19q28 -10 47 -26q18 -15 27 -36t9 -52q0 -57 -24 -102q-23 -44 -68 -76q-44 -32 -106 -48q-61 -16 -139 -16zM440 -517h-10l-56 54l-55 -54h-10l-67 65l67 66h10l55 -55l56 55h10l66 -66z" />
    <glyph glyph-name="uniFCFD" unicode="&#xfeb7;&#xfef0;" horiz-adv-x="1276" arabic-form="isolated" 
d="M375 -294l-1 -6q-162 0 -249 69t-87 212q0 45 6 89q7 47 16 77h69v-9q-8 -29 -12 -61q-4 -29 -4 -68q0 -89 69 -131t213 -42q53 0 100 6q48 6 79 16q33 10 51 24t18 30q0 17 -20 26q-17 8 -71 19l-73 14q-79 15 -117 45q-37 30 -37 90q0 45 23 91q23 45 62 80
q40 35 89 56t104 21q49 0 84 -22q37 -23 62 -70l29 -55q13 -24 26 -44q13 -19 25 -30q14 -12 28 -18q15 -6 35 -6q21 0 33 4q13 5 21 15q8 11 11 27q3 17 3 42v58h74v-58q0 -41 -6 -74q34 -14 68 -14q31 0 45 14t14 45q0 18 -1 27q-2 21 -4 30q-5 29 -7 37q-1 5 -4.5 21.5
t-5.5 26.5l5 6h79q1 -4 4 -20.5t4 -24.5q4 -27 5 -36q2 -22 2 -32v-32q0 -85 -36 -133t-102 -48t-106 42q-34 -42 -110 -42q-30 0 -57 8q-25 7 -46 24q-21 16 -39 42q-19 27 -38 62l-22 42q-20 35 -46 51t-64 16q-35 0 -63 -7q-32 -8 -54 -19q-23 -12 -37 -27
q-14 -16 -14 -31q0 -21 21 -33t68 -21l73 -16q44 -10 69 -19q28 -10 47 -26q18 -15 27 -36t9 -52q0 -57 -24 -102q-23 -44 -68 -76q-44 -32 -106 -48q-61 -16 -139 -16zM926 524l64 62h10l64 -62l-64 -63h-10zM1061 340h-10l-56 54l-55 -54h-10l-67 65l67 66h10l55 -55
l56 55h10l66 -66z" />
    <glyph glyph-name="uniFCFE" unicode="&#xfeb7;&#xfef2;" horiz-adv-x="1276" arabic-form="isolated" 
d="M375 -294l-1 -6q-162 0 -249 69t-87 212q0 45 6 89q7 47 16 77h69v-9q-8 -29 -12 -61q-4 -29 -4 -68q0 -89 69 -131t213 -42q53 0 100 6q48 6 79 16q33 10 51 24t18 30q0 17 -20 26q-17 8 -71 19l-73 14q-79 15 -117 45q-37 30 -37 90q0 45 23 91q23 45 62 80
q40 35 89 56t104 21q49 0 84 -22q37 -23 62 -70l29 -55q13 -24 26 -44q13 -19 25 -30q14 -12 28 -18q15 -6 35 -6q21 0 33 4q13 5 21 15q8 11 11 27q3 17 3 42v58h74v-58q0 -41 -6 -74q34 -14 68 -14q31 0 45 14t14 45q0 18 -1 27q-2 21 -4 30q-5 29 -7 37q-1 5 -4.5 21.5
t-5.5 26.5l5 6h79q1 -4 4 -20.5t4 -24.5q4 -27 5 -36q2 -22 2 -32v-32q0 -85 -36 -133t-102 -48t-106 42q-34 -42 -110 -42q-30 0 -57 8q-25 7 -46 24q-21 16 -39 42q-19 27 -38 62l-22 42q-20 35 -46 51t-64 16q-35 0 -63 -7q-32 -8 -54 -19q-23 -12 -37 -27
q-14 -16 -14 -31q0 -21 21 -33t68 -21l73 -16q44 -10 69 -19q28 -10 47 -26q18 -15 27 -36t9 -52q0 -57 -24 -102q-23 -44 -68 -76q-44 -32 -106 -48q-61 -16 -139 -16zM440 -517h-10l-56 54l-55 -54h-10l-67 65l67 66h10l55 -55l56 55h10l66 -66zM926 524l64 62h10l64 -62
l-64 -63h-10zM1061 340h-10l-56 54l-55 -54h-10l-67 65l67 66h10l55 -55l56 55h10l66 -66z" />
    <glyph glyph-name="uniFD05" unicode="&#xfebb;&#xfef0;" horiz-adv-x="1384" arabic-form="isolated" 
d="M1139 419l-3 -1q46 0 83 -18q38 -18 66 -46t45 -68q16 -38 16 -82q0 -46 -16 -82q-16 -37 -46 -64t-70 -42t-90 -15h-259q-29 0 -51 6t-42 21q-18 14 -37 39q-15 20 -37 59l-22 41q-20 35 -46 51t-64 16q-35 0 -63 -7q-32 -8 -54 -19q-23 -12 -37 -27q-14 -16 -14 -31
q0 -22 21 -32t68 -21l73 -16q40 -7 69 -18q28 -10 47 -26q18 -15 27 -37t9 -54q0 -57 -24 -102q-23 -44 -68 -76q-44 -32 -106 -48q-61 -16 -139 -16q-162 0 -249 69t-87 212q0 46 6 89q7 47 16 77h69v-9q-8 -29 -12 -61q-4 -29 -4 -68q0 -89 69 -131t213 -42q54 0 100 6
q48 6 79 16q33 10 51 24t18 30q0 17 -20 26q-17 8 -71 19l-73 14q-80 15 -117 45t-37 90q0 45 23 91q23 45 62 80q40 35 89 56q50 21 104 21q49 0 84 -22q37 -23 62 -72l29 -55q2 -4 6.5 -12t6.5 -12q6 -11 12 -18l78 93q37 43 66 71q32 31 62 50q31 20 62 29q32 9 67 9z
M1147 122l1 -3q74 0 102 12q29 12 29 41q0 27 -12 49q-12 23 -33 39q-20 16 -49 25t-61 9q-65 0 -117 -28q-53 -28 -108 -90l-40 -48l1 -5q4 -1 12 -1h14h261z" />
    <glyph glyph-name="uniFD06" unicode="&#xfebb;&#xfef2;" horiz-adv-x="1384" arabic-form="isolated" 
d="M1139 419l-3 -1q46 0 83 -18q38 -18 66 -46t45 -68q16 -38 16 -82q0 -46 -16 -82q-16 -37 -46 -64t-70 -42t-90 -15h-259q-29 0 -51 6t-42 21q-18 14 -37 39q-15 20 -37 59l-22 41q-20 35 -46 51t-64 16q-35 0 -63 -7q-32 -8 -54 -19q-23 -12 -37 -27q-14 -16 -14 -31
q0 -22 21 -32t68 -21l73 -16q40 -7 69 -18q28 -10 47 -26q18 -15 27 -37t9 -54q0 -57 -24 -102q-23 -44 -68 -76q-44 -32 -106 -48q-61 -16 -139 -16q-162 0 -249 69t-87 212q0 46 6 89q7 47 16 77h69v-9q-8 -29 -12 -61q-4 -29 -4 -68q0 -89 69 -131t213 -42q54 0 100 6
q48 6 79 16q33 10 51 24t18 30q0 17 -20 26q-17 8 -71 19l-73 14q-80 15 -117 45t-37 90q0 45 23 91q23 45 62 80q40 35 89 56q50 21 104 21q49 0 84 -22q37 -23 62 -72l29 -55q2 -4 6.5 -12t6.5 -12q6 -11 12 -18l78 93q37 43 66 71q32 31 62 50q31 20 62 29q32 9 67 9z
M1147 122l1 -3q74 0 102 12q29 12 29 41q0 27 -12 49q-12 23 -33 39q-20 16 -49 25t-61 9q-65 0 -117 -28q-53 -28 -108 -90l-40 -48l1 -5q4 -1 12 -1h14h261zM439 -515h-10l-56 54l-55 -54h-10l-67 65l67 66h10l55 -55l56 55h10l66 -66z" />
    <glyph glyph-name="uniFD07" unicode="&#xfebf;&#xfef0;" horiz-adv-x="1384" arabic-form="isolated" 
d="M1139 419l-3 -1q46 0 83 -18q38 -18 66 -46t45 -68q16 -38 16 -82q0 -46 -16 -82q-16 -37 -46 -64t-70 -42t-90 -15h-259q-29 0 -51 6t-42 21q-18 14 -37 39q-15 20 -37 59l-22 41q-20 35 -46 51t-64 16q-35 0 -63 -7q-32 -8 -54 -19q-23 -12 -37 -27q-14 -16 -14 -31
q0 -22 21 -32t68 -21l73 -16q40 -7 69 -18q28 -10 47 -26q18 -15 27 -37t9 -54q0 -57 -24 -102q-23 -44 -68 -76q-44 -32 -106 -48q-61 -16 -139 -16q-162 0 -249 69t-87 212q0 46 6 89q7 47 16 77h69v-9q-8 -29 -12 -61q-4 -29 -4 -68q0 -89 69 -131t213 -42q54 0 100 6
q48 6 79 16q33 10 51 24t18 30q0 17 -20 26q-17 8 -71 19l-73 14q-80 15 -117 45t-37 90q0 45 23 91q23 45 62 80q40 35 89 56q50 21 104 21q49 0 84 -22q37 -23 62 -72l29 -55q2 -4 6.5 -12t6.5 -12q6 -11 12 -18l78 93q37 43 66 71q32 31 62 50q31 20 62 29q32 9 67 9z
M1147 122l1 -3q74 0 102 12q29 12 29 41q0 27 -12 49q-12 23 -33 39q-20 16 -49 25t-61 9q-65 0 -117 -28q-53 -28 -108 -90l-40 -48l1 -5q4 -1 12 -1h14h261zM1102 632l66 -66l-66 -65h-10l-67 65l67 66h10z" />
    <glyph glyph-name="uniFD08" unicode="&#xfebf;&#xfef2;" horiz-adv-x="1384" arabic-form="isolated" 
d="M1139 419l-3 -1q46 0 83 -18q38 -18 66 -46t45 -68q16 -38 16 -82q0 -46 -16 -82q-16 -37 -46 -64t-70 -42t-90 -15h-259q-29 0 -51 6t-42 21q-18 14 -37 39q-15 20 -37 59l-22 41q-20 35 -46 51t-64 16q-35 0 -63 -7q-32 -8 -54 -19q-23 -12 -37 -27q-14 -16 -14 -31
q0 -22 21 -32t68 -21l73 -16q40 -7 69 -18q28 -10 47 -26q18 -15 27 -37t9 -54q0 -57 -24 -102q-23 -44 -68 -76q-44 -32 -106 -48q-61 -16 -139 -16q-162 0 -249 69t-87 212q0 46 6 89q7 47 16 77h69v-9q-8 -29 -12 -61q-4 -29 -4 -68q0 -89 69 -131t213 -42q54 0 100 6
q48 6 79 16q33 10 51 24t18 30q0 17 -20 26q-17 8 -71 19l-73 14q-80 15 -117 45t-37 90q0 45 23 91q23 45 62 80q40 35 89 56q50 21 104 21q49 0 84 -22q37 -23 62 -72l29 -55q2 -4 6.5 -12t6.5 -12q6 -11 12 -18l78 93q37 43 66 71q32 31 62 50q31 20 62 29q32 9 67 9z
M1147 122l1 -3q74 0 102 12q29 12 29 41q0 27 -12 49q-12 23 -33 39q-20 16 -49 25t-61 9q-65 0 -117 -28q-53 -28 -108 -90l-40 -48l1 -5q4 -1 12 -1h14h261zM1102 632l66 -66l-66 -65h-10l-67 65l67 66h10zM439 -515h-10l-56 54l-55 -54h-10l-67 65l67 66h10l55 -55l56 55
h10l66 -66z" />
    <glyph glyph-name="uniFD0D" unicode="&#xfeb7;&#xfeae;" horiz-adv-x="942" arabic-form="isolated" 
d="M50 -255l4 -5q-44 0 -81 19q-38 20 -69 52v68l8 7q59 -25 112 -25q38 0 69 16q31 17 54 45t36 69q14 42 14 90q0 28 -7 60q-9 39 -22 77l4 5l276 30v-87q15 -29 42 -44t62 -15q26 0 39 4q15 5 24 15q9 11 12 28q3 18 3 44v58h74v-58q0 -42 -6 -75q27 -13 66 -13
q31 0 45 14t14 45q0 18 -1 27q-2 21 -4 30q-5 29 -7 37q-1 5 -4.5 21.5t-5.5 26.5l4 6h80q1 -4 4 -20.5t4 -24.5q4 -27 5 -36q2 -22 3 -32t1 -32q0 -85 -36 -133t-103 -48q-65 0 -105 42q-36 -43 -109 -43q-63 0 -111 36t-76 103l-92 -12q1 -5 1 -15v-14q0 -73 -18 -136
q-18 -62 -48 -109t-70 -72q-41 -26 -85 -26zM590 525l64 62h10l64 -62l-64 -63h-10zM725 341h-10l-56 54l-55 -54h-10l-67 65l67 66h10l55 -55l56 55h10l66 -66z" />
    <glyph glyph-name="uniFD0E" unicode="&#xfeb3;&#xfeae;" horiz-adv-x="942" arabic-form="isolated" 
d="M50 -255l4 -5q-44 0 -81 19q-38 20 -69 52v68l8 7q59 -25 112 -25q38 0 69 16q31 17 54 45t36 69q14 42 14 90q0 28 -7 60q-9 39 -22 77l4 5l276 30v-87q15 -29 42 -44t62 -15q26 0 39 4q15 5 24 15q9 11 12 28q3 18 3 44v58h74v-58q0 -42 -6 -75q27 -13 66 -13
q31 0 45 14t14 45q0 18 -1 27q-2 21 -4 30q-5 29 -7 37q-1 5 -4.5 21.5t-5.5 26.5l4 6h80q1 -4 4 -20.5t4 -24.5q4 -27 5 -36q2 -22 3 -32t1 -32q0 -85 -36 -133t-103 -48q-65 0 -105 42q-36 -43 -109 -43q-63 0 -111 36t-76 103l-92 -12q1 -5 1 -15v-14q0 -73 -18 -136
q-18 -62 -48 -109t-70 -72q-41 -26 -85 -26z" />
    <glyph glyph-name="uniFD0F" unicode="&#xfebb;&#xfeae;" horiz-adv-x="1066" arabic-form="isolated" 
d="M50 -255l-3 -1q-44 0 -81 19q-38 20 -69 52v68l8 7q59 -25 112 -25q38 0 69 16q32 17 54 45t36 69q14 42 14 90q0 28 -7 60q-9 39 -22 77l4 5l276 30v-84q3 -5 11 -15q4 -5 14 -13l95 113q37 43 66 71q32 31 62 50q31 20 62 29t68 9q44 0 83 -18t67 -46t45 -68
q16 -38 16 -82q0 -46 -16 -82q-16 -37 -46 -64t-70 -42t-90 -15h-257q-71 0 -114 33t-75 96l-92 -12q1 -5 1 -15v-14q0 -73 -18 -136q-18 -62 -48 -109t-70 -72q-41 -26 -85 -26zM829 122l-2 -1q73 0 102 12t29 41q0 28 -12 50q-12 23 -33 38t-50 24t-62 9q-59 0 -111 -28
q-53 -29 -111 -91l-42 -49l1 -3q10 -2 16 -2h17h258z" />
    <glyph glyph-name="uniFD10" unicode="&#xfebf;&#xfeae;" horiz-adv-x="1066" arabic-form="isolated" 
d="M50 -255l-3 -1q-44 0 -81 19q-38 20 -69 52v68l8 7q59 -25 112 -25q38 0 69 16q32 17 54 45t36 69q14 42 14 90q0 28 -7 60q-9 39 -22 77l4 5l276 30v-84q3 -5 11 -15q4 -5 14 -13l95 113q37 43 66 71q32 31 62 50q31 20 62 29t68 9q44 0 83 -18t67 -46t45 -68
q16 -38 16 -82q0 -46 -16 -82q-16 -37 -46 -64t-70 -42t-90 -15h-257q-71 0 -114 33t-75 96l-92 -12q1 -5 1 -15v-14q0 -73 -18 -136q-18 -62 -48 -109t-70 -72q-41 -26 -85 -26zM829 122l-2 -1q73 0 102 12t29 41q0 28 -12 50q-12 23 -33 38t-50 24t-62 9q-59 0 -111 -28
q-53 -29 -111 -91l-42 -49l1 -3q10 -2 16 -2h17h258zM781 635l66 -66l-66 -65h-10l-67 65l67 66h10z" />
    <glyph glyph-name="uniFD17" unicode="&#xfeb4;&#xfef0;" horiz-adv-x="1349" arabic-form="final" 
d="M375 -294l-2 -6q-162 0 -249 69t-87 212q0 45 6 89q6 46 16 75h69v-8q-8 -29 -12 -61q-4 -29 -4 -68q0 -89 69 -131t213 -42q54 0 100 6q48 6 79 16q33 11 51 24t18 30t-20 26q-17 8 -71 19l-73 14q-80 15 -117 45t-37 90q0 45 23 91q23 45 62 80q40 35 89 56
q50 21 104 21q49 0 84 -22q37 -23 62 -70l29 -55q12 -24 26 -45q13 -19 25 -30q13 -11 28 -16q17 -5 35 -5q21 0 33 4q14 4 21 15q8 12 11 28q3 18 3 44v57h74v-57q0 -42 -6 -75q15 -7 33 -10q16 -3 36 -3q36 0 48 18t12 72v87h74v-87q0 -25 -1 -36l-3 -33q32 -6 57 -8
q31 -3 63 -3v-101l-22 -22q-34 0 -69 9t-63 27q-33 -46 -97 -46q-65 0 -107 42q-36 -42 -110 -42q-30 0 -57 8q-25 7 -46 24q-21 16 -39 42q-19 27 -38 62l-22 42q-20 35 -46 51t-64 16q-35 0 -63 -7q-32 -8 -54 -19q-23 -12 -37 -27q-14 -16 -14 -31q0 -21 21 -33t68 -21
l73 -16q44 -10 69 -19q28 -10 47 -26q18 -15 27 -36t9 -52q0 -57 -24 -102q-23 -44 -68 -76q-44 -32 -106 -48q-61 -16 -139 -16z" />
    <glyph glyph-name="uniFD18" unicode="&#xfeb4;&#xfef2;" horiz-adv-x="1349" arabic-form="final" 
d="M375 -294l-2 -6q-162 0 -249 69t-87 212q0 45 6 89q6 46 16 75h69v-8q-8 -29 -12 -61q-4 -29 -4 -68q0 -89 69 -131t213 -42q54 0 100 6q48 6 79 16q33 11 51 24t18 30t-20 26q-17 8 -71 19l-73 14q-80 15 -117 45t-37 90q0 45 23 91q23 45 62 80q40 35 89 56
q50 21 104 21q49 0 84 -22q37 -23 62 -70l29 -55q12 -24 26 -45q13 -19 25 -30q13 -11 28 -16q17 -5 35 -5q21 0 33 4q14 4 21 15q8 12 11 28q3 18 3 44v57h74v-57q0 -42 -6 -75q15 -7 33 -10q16 -3 36 -3q36 0 48 18t12 72v87h74v-87q0 -25 -1 -36l-3 -33q32 -6 57 -8
q31 -3 63 -3v-101l-22 -22q-34 0 -69 9t-63 27q-33 -46 -97 -46q-65 0 -107 42q-36 -42 -110 -42q-30 0 -57 8q-25 7 -46 24q-21 16 -39 42q-19 27 -38 62l-22 42q-20 35 -46 51t-64 16q-35 0 -63 -7q-32 -8 -54 -19q-23 -12 -37 -27q-14 -16 -14 -31q0 -21 21 -33t68 -21
l73 -16q44 -10 69 -19q28 -10 47 -26q18 -15 27 -36t9 -52q0 -57 -24 -102q-23 -44 -68 -76q-44 -32 -106 -48q-61 -16 -139 -16zM439 -516h-10l-56 54l-55 -54h-10l-67 65l67 66h10l55 -55l56 55h10l66 -66z" />
    <glyph glyph-name="uniFD19" unicode="&#xfeb8;&#xfef0;" horiz-adv-x="1349" arabic-form="final" 
d="M375 -294l-2 -6q-162 0 -249 69t-87 212q0 45 6 89q6 46 16 75h69v-8q-8 -29 -12 -61q-4 -29 -4 -68q0 -89 69 -131t213 -42q54 0 100 6q48 6 79 16q33 11 51 24t18 30t-20 26q-17 8 -71 19l-73 14q-80 15 -117 45t-37 90q0 45 23 91q23 45 62 80q40 35 89 56
q50 21 104 21q49 0 84 -22q37 -23 62 -70l29 -55q12 -24 26 -45q13 -19 25 -30q13 -11 28 -16q17 -5 35 -5q21 0 33 4q14 4 21 15q8 12 11 28q3 18 3 44v57h74v-57q0 -42 -6 -75q15 -7 33 -10q16 -3 36 -3q36 0 48 18t12 72v87h74v-87q0 -25 -1 -36l-3 -33q32 -6 57 -8
q31 -3 63 -3v-101l-22 -22q-34 0 -69 9t-63 27q-33 -46 -97 -46q-65 0 -107 42q-36 -42 -110 -42q-30 0 -57 8q-25 7 -46 24q-21 16 -39 42q-19 27 -38 62l-22 42q-20 35 -46 51t-64 16q-35 0 -63 -7q-32 -8 -54 -19q-23 -12 -37 -27q-14 -16 -14 -31q0 -21 21 -33t68 -21
l73 -16q44 -10 69 -19q28 -10 47 -26q18 -15 27 -36t9 -52q0 -57 -24 -102q-23 -44 -68 -76q-44 -32 -106 -48q-61 -16 -139 -16zM927 524l64 62h10l64 -62l-64 -63h-10zM1062 340h-10l-56 54l-55 -54h-10l-67 65l67 66h10l55 -55l56 55h10l66 -66z" />
    <glyph glyph-name="uniFD1A" unicode="&#xfeb8;&#xfef2;" horiz-adv-x="1349" arabic-form="final" 
d="M375 -294l-2 -6q-162 0 -249 69t-87 212q0 45 6 89q6 46 16 75h69v-8q-8 -29 -12 -61q-4 -29 -4 -68q0 -89 69 -131t213 -42q54 0 100 6q48 6 79 16q33 11 51 24t18 30t-20 26q-17 8 -71 19l-73 14q-80 15 -117 45t-37 90q0 45 23 91q23 45 62 80q40 35 89 56
q50 21 104 21q49 0 84 -22q37 -23 62 -70l29 -55q12 -24 26 -45q13 -19 25 -30q13 -11 28 -16q17 -5 35 -5q21 0 33 4q14 4 21 15q8 12 11 28q3 18 3 44v57h74v-57q0 -42 -6 -75q15 -7 33 -10q16 -3 36 -3q36 0 48 18t12 72v87h74v-87q0 -25 -1 -36l-3 -33q32 -6 57 -8
q31 -3 63 -3v-101l-22 -22q-34 0 -69 9t-63 27q-33 -46 -97 -46q-65 0 -107 42q-36 -42 -110 -42q-30 0 -57 8q-25 7 -46 24q-21 16 -39 42q-19 27 -38 62l-22 42q-20 35 -46 51t-64 16q-35 0 -63 -7q-32 -8 -54 -19q-23 -12 -37 -27q-14 -16 -14 -31q0 -21 21 -33t68 -21
l73 -16q44 -10 69 -19q28 -10 47 -26q18 -15 27 -36t9 -52q0 -57 -24 -102q-23 -44 -68 -76q-44 -32 -106 -48q-61 -16 -139 -16zM439 -516h-10l-56 54l-55 -54h-10l-67 65l67 66h10l55 -55l56 55h10l66 -66zM927 524l64 62h10l64 -62l-64 -63h-10zM1062 340h-10l-56 54
l-55 -54h-10l-67 65l67 66h10l55 -55l56 55h10l66 -66z" />
    <glyph glyph-name="uniFD21" unicode="&#xfebc;&#xfef0;" horiz-adv-x="1446" arabic-form="final" 
d="M1340 141l-3 -1q20 -8 50 -13q24 -4 56 -4v-100l-22 -23q-35 0 -72 14t-68 39q-29 -25 -69 -39q-42 -14 -88 -14h-259q-29 0 -51 6t-42 21q-18 14 -37 39q-15 20 -37 59l-22 41q-20 35 -46 51t-64 16q-35 0 -63 -7q-32 -8 -54 -19q-23 -12 -37 -27q-14 -16 -14 -31
q0 -21 21 -32q21 -10 68 -21l73 -16q40 -8 69 -18q28 -10 47 -26q18 -15 27 -37q9 -23 9 -54q0 -57 -24 -102q-23 -44 -68 -76q-44 -32 -106 -48q-61 -16 -139 -16q-162 0 -249 69t-87 212q0 46 6 89q7 47 16 77h69v-9q-8 -29 -12 -61q-4 -29 -4 -68q0 -89 69 -131t213 -42
q54 0 100 6q48 6 79 16q33 11 51 24t18 30t-20 26q-17 8 -71 19l-73 14q-80 15 -117 45t-37 90q0 45 23 91q23 45 62 80q40 35 89 56q50 21 104 21q49 0 84 -22q37 -23 62 -72l29 -55q2 -4 6.5 -12t6.5 -12q6 -10 12 -18l78 93q37 43 66 71q32 31 62 50q31 20 62 29
q32 9 67 9q45 0 83 -18t66 -46t45 -68q16 -38 16 -82q0 -33 -9 -63zM1147 122l1 -3q74 0 102 12q29 12 29 41q0 27 -12 49q-12 23 -33 39q-20 16 -49 25t-61 9q-65 0 -117 -28q-53 -28 -108 -90l-40 -48l1 -5q4 -1 12 -1h14h261z" />
    <glyph glyph-name="uniFD22" unicode="&#xfebc;&#xfef2;" horiz-adv-x="1446" arabic-form="final" 
d="M1340 141l-3 -1q20 -8 50 -13q24 -4 56 -4v-100l-22 -23q-35 0 -72 14t-68 39q-29 -25 -69 -39q-42 -14 -88 -14h-259q-29 0 -51 6t-42 21q-18 14 -37 39q-15 20 -37 59l-22 41q-20 35 -46 51t-64 16q-35 0 -63 -7q-32 -8 -54 -19q-23 -12 -37 -27q-14 -16 -14 -31
q0 -21 21 -32q21 -10 68 -21l73 -16q40 -8 69 -18q28 -10 47 -26q18 -15 27 -37q9 -23 9 -54q0 -57 -24 -102q-23 -44 -68 -76q-44 -32 -106 -48q-61 -16 -139 -16q-162 0 -249 69t-87 212q0 46 6 89q7 47 16 77h69v-9q-8 -29 -12 -61q-4 -29 -4 -68q0 -89 69 -131t213 -42
q54 0 100 6q48 6 79 16q33 11 51 24t18 30t-20 26q-17 8 -71 19l-73 14q-80 15 -117 45t-37 90q0 45 23 91q23 45 62 80q40 35 89 56q50 21 104 21q49 0 84 -22q37 -23 62 -72l29 -55q2 -4 6.5 -12t6.5 -12q6 -10 12 -18l78 93q37 43 66 71q32 31 62 50q31 20 62 29
q32 9 67 9q45 0 83 -18t66 -46t45 -68q16 -38 16 -82q0 -33 -9 -63zM1147 122l1 -3q74 0 102 12q29 12 29 41q0 27 -12 49q-12 23 -33 39q-20 16 -49 25t-61 9q-65 0 -117 -28q-53 -28 -108 -90l-40 -48l1 -5q4 -1 12 -1h14h261zM439 -515h-10l-56 54l-55 -54h-10l-67 65
l67 66h10l55 -55l56 55h10l66 -66z" />
    <glyph glyph-name="uniFD23" unicode="&#xfec0;&#xfef0;" horiz-adv-x="1446" arabic-form="final" 
d="M1340 141l-3 -1q20 -8 50 -13q24 -4 56 -4v-100l-22 -23q-35 0 -72 14t-68 39q-29 -25 -69 -39q-42 -14 -88 -14h-259q-29 0 -51 6t-42 21q-18 14 -37 39q-15 20 -37 59l-22 41q-20 35 -46 51t-64 16q-35 0 -63 -7q-32 -8 -54 -19q-23 -12 -37 -27q-14 -16 -14 -31
q0 -21 21 -32q21 -10 68 -21l73 -16q40 -8 69 -18q28 -10 47 -26q18 -15 27 -37q9 -23 9 -54q0 -57 -24 -102q-23 -44 -68 -76q-44 -32 -106 -48q-61 -16 -139 -16q-162 0 -249 69t-87 212q0 46 6 89q7 47 16 77h69v-9q-8 -29 -12 -61q-4 -29 -4 -68q0 -89 69 -131t213 -42
q54 0 100 6q48 6 79 16q33 11 51 24t18 30t-20 26q-17 8 -71 19l-73 14q-80 15 -117 45t-37 90q0 45 23 91q23 45 62 80q40 35 89 56q50 21 104 21q49 0 84 -22q37 -23 62 -72l29 -55q2 -4 6.5 -12t6.5 -12q6 -10 12 -18l78 93q37 43 66 71q32 31 62 50q31 20 62 29
q32 9 67 9q45 0 83 -18t66 -46t45 -68q16 -38 16 -82q0 -33 -9 -63zM1147 122l1 -3q74 0 102 12q29 12 29 41q0 27 -12 49q-12 23 -33 39q-20 16 -49 25t-61 9q-65 0 -117 -28q-53 -28 -108 -90l-40 -48l1 -5q4 -1 12 -1h14h261zM1102 632l66 -66l-66 -65h-10l-67 65l67 66
h10z" />
    <glyph glyph-name="uniFD24" unicode="&#xfec0;&#xfef2;" horiz-adv-x="1446" arabic-form="final" 
d="M1340 141l-3 -1q20 -8 50 -13q24 -4 56 -4v-100l-22 -23q-35 0 -72 14t-68 39q-29 -25 -69 -39q-42 -14 -88 -14h-259q-29 0 -51 6t-42 21q-18 14 -37 39q-15 20 -37 59l-22 41q-20 35 -46 51t-64 16q-35 0 -63 -7q-32 -8 -54 -19q-23 -12 -37 -27q-14 -16 -14 -31
q0 -21 21 -32q21 -10 68 -21l73 -16q40 -8 69 -18q28 -10 47 -26q18 -15 27 -37q9 -23 9 -54q0 -57 -24 -102q-23 -44 -68 -76q-44 -32 -106 -48q-61 -16 -139 -16q-162 0 -249 69t-87 212q0 46 6 89q7 47 16 77h69v-9q-8 -29 -12 -61q-4 -29 -4 -68q0 -89 69 -131t213 -42
q54 0 100 6q48 6 79 16q33 11 51 24t18 30t-20 26q-17 8 -71 19l-73 14q-80 15 -117 45t-37 90q0 45 23 91q23 45 62 80q40 35 89 56q50 21 104 21q49 0 84 -22q37 -23 62 -72l29 -55q2 -4 6.5 -12t6.5 -12q6 -10 12 -18l78 93q37 43 66 71q32 31 62 50q31 20 62 29
q32 9 67 9q45 0 83 -18t66 -46t45 -68q16 -38 16 -82q0 -33 -9 -63zM1147 122l1 -3q74 0 102 12q29 12 29 41q0 27 -12 49q-12 23 -33 39q-20 16 -49 25t-61 9q-65 0 -117 -28q-53 -28 -108 -90l-40 -48l1 -5q4 -1 12 -1h14h261zM1102 632l66 -66l-66 -65h-10l-67 65l67 66
h10zM439 -515h-10l-56 54l-55 -54h-10l-67 65l67 66h10l55 -55l56 55h10l66 -66z" />
    <glyph glyph-name="uniFD29" unicode="&#xfeb8;&#xfeae;" horiz-adv-x="1015" arabic-form="final" 
d="M50 -255q-44 0 -81 19q-38 20 -69 52v68l8 7q59 -25 112 -25q38 0 69 16t54 45t36 69q14 42 14 90q0 28 -7 60q-9 39 -22 77l4 5l276 30v-87q15 -28 43 -43q29 -15 66 -15q24 0 36 4q14 5 23 15t12 27t3 42v57h74v-57q0 -42 -6 -75q15 -7 33 -10q16 -3 36 -3q36 0 48 18
t12 72v87h74v-87q0 -25 -1 -36l-3 -33q32 -6 57 -8q31 -3 63 -3v-101l-22 -22q-34 0 -69 9t-63 27q-33 -46 -97 -46q-65 0 -107 42q-36 -42 -109 -42q-63 0 -110 36t-75 103l-92 -12q1 -5 1 -15v-14q0 -73 -18 -136q-18 -62 -48 -109t-70 -72q-41 -26 -85 -26zM596 530
l64 62h10l64 -62l-64 -63h-10zM731 346h-10l-56 54l-55 -54h-10l-67 65l67 66h10l55 -55l56 55h10l66 -66z" />
    <glyph glyph-name="uniFD2A" unicode="&#xfeb4;&#xfeae;" horiz-adv-x="1015" arabic-form="final" 
d="M50 -255q-44 0 -81 19q-38 20 -69 52v68l8 7q59 -25 112 -25q38 0 69 16t54 45t36 69q14 42 14 90q0 28 -7 60q-9 39 -22 77l4 5l276 30v-87q15 -28 43 -43q29 -15 66 -15q24 0 36 4q14 5 23 15t12 27t3 42v57h74v-57q0 -42 -6 -75q15 -7 33 -10q16 -3 36 -3q36 0 48 18
t12 72v87h74v-87q0 -25 -1 -36l-3 -33q32 -6 57 -8q31 -3 63 -3v-101l-22 -22q-34 0 -69 9t-63 27q-33 -46 -97 -46q-65 0 -107 42q-36 -42 -109 -42q-63 0 -110 36t-75 103l-92 -12q1 -5 1 -15v-14q0 -73 -18 -136q-18 -62 -48 -109t-70 -72q-41 -26 -85 -26z" />
    <glyph glyph-name="uniFD2B" unicode="&#xfebc;&#xfeae;" horiz-adv-x="1128" arabic-form="final" 
d="M50 -255h-2q-44 0 -81 19q-38 20 -69 52v68l8 7q59 -25 112 -25q38 0 69 16t54 45t36 69q14 42 14 90q0 28 -7 60q-9 39 -22 77l4 5l276 30v-84q3 -5 11 -15q4 -5 14 -13l95 113q37 43 66 71q32 31 62 50q31 20 62 29q32 9 68 9q44 0 83 -18t67 -46t45 -68q16 -38 16 -82
q0 -17 -3 -32q-4 -20 -7 -29q22 -10 50 -15q30 -5 56 -5v-100l-23 -23q-35 0 -72 14t-68 39q-30 -25 -69 -39q-40 -14 -87 -14h-257q-71 0 -114 33t-75 96l-92 -12q1 -5 1 -15v-14q0 -73 -18 -136q-18 -62 -48 -109t-70 -72q-41 -26 -85 -26zM830 123l-2 -1q74 0 102 12
q29 12 29 41q0 27 -12 50t-33 38t-50 24q-28 9 -62 9q-59 0 -111 -28q-53 -29 -111 -91l-42 -49l1 -3q10 -2 16 -2h17h258z" />
    <glyph glyph-name="uniFD2C" unicode="&#xfec0;&#xfeae;" horiz-adv-x="1128" arabic-form="final" 
d="M50 -255h-2q-44 0 -81 19q-38 20 -69 52v68l8 7q59 -25 112 -25q38 0 69 16t54 45t36 69q14 42 14 90q0 28 -7 60q-9 39 -22 77l4 5l276 30v-84q3 -5 11 -15q4 -5 14 -13l95 113q37 43 66 71q32 31 62 50q31 20 62 29q32 9 68 9q44 0 83 -18t67 -46t45 -68q16 -38 16 -82
q0 -17 -3 -32q-4 -20 -7 -29q22 -10 50 -15q30 -5 56 -5v-100l-23 -23q-35 0 -72 14t-68 39q-30 -25 -69 -39q-40 -14 -87 -14h-257q-71 0 -114 33t-75 96l-92 -12q1 -5 1 -15v-14q0 -73 -18 -136q-18 -62 -48 -109t-70 -72q-41 -26 -85 -26zM830 123l-2 -1q74 0 102 12
q29 12 29 41q0 27 -12 50t-33 38t-50 24q-28 9 -62 9q-59 0 -111 -28q-53 -29 -111 -91l-42 -49l1 -3q10 -2 16 -2h17h258zM782 636l66 -66l-66 -65h-10l-67 65l67 66h10z" />
    <glyph glyph-name="uniFDF2" unicode="&#x627;&#xfedf;&#xfee0;&#xfeea;" horiz-adv-x="1314" arabic-form="isolated" 
d="M673 1013v-181h-49v181h49zM589 644l-1 -3q-32 0 -48 18q-16 17 -16 50q0 6 2 26q1 14 6 28h40v-9q-4 -9 -4 -21q0 -11 6 -18t20 -7q20 0 27 13t7 45v42h44v-45q17 -5 27 -5q31 0 31 28q0 8 -3 22q-5 23 -7 30v8h45q8 -37 8 -63q0 -41 -15 -65t-49 -24q-25 0 -45 11
q-16 -61 -75 -61zM1241 742v-745h-92v745h92zM480 -13l-6 -1q-70 2 -108 33q-37 31 -51 98h-1q-26 -44 -61 -63t-84 -19q-32 0 -60 11q-26 10 -46 30q-19 20 -30 45q-11 27 -11 57q0 60 44 109q44 48 120 90l122 67v68h84v-295q0 -53 23 -81q23 -27 84 -27q33 0 60 9
q28 9 50 27q-2 10 -4 32q-1 11 -1 35v381h92v-376q0 -53 26 -81q26 -27 83 -27q55 0 81 27q25 26 25 79v462h92v-465q0 -117 -51 -171t-148 -54q-69 0 -112 22t-64 69q-24 -43 -60 -67t-88 -24zM180 157v1q74 0 126 35v162l-96 -42q-64 -30 -89 -52q-27 -24 -27 -52
q0 -25 23 -39q22 -13 63 -13z" />
    <glyph glyph-name="uniFEF5" unicode="&#xfedf;&#xfe82;" horiz-adv-x="524" arabic-form="isolated" 
d="M412 329v-2q44 -39 60 -75q17 -37 17 -82q0 -82 -45 -127t-127 -45h-282v116l238 185l-238 180v123l6 4l303 -227q10 25 15 66q5 45 5 111v188h92v-188q0 -33 -2 -79q-1 -34 -6 -61q-4 -25 -14 -48t-22 -39zM317 121l-1 -1q106 0 106 41q0 16 -19 36q-19 21 -72 60
l-171 -134v-2h157zM35 684h-2q24 30 71 30q13 0 28 -3q20 -4 31 -6l35 -7q15 -3 29 -3q17 0 30 3q12 3 21 8h10v-52q-12 -9 -28 -15t-34 -6q-16 0 -31 3q-20 4 -31 7q-42 9 -59 9q-18 0 -36 -5q-16 -4 -25 -15h-9v52z" />
    <glyph glyph-name="uniFEF6" unicode="&#xfee0;&#xfe82;" horiz-adv-x="619" arabic-form="final" 
d="M207 -10v2q-37 0 -84 5q-42 5 -93 18v99h151h39l-125 508v9h99l122 -505q61 15 102 50q-3 24 -3 50v520h92v-516q0 -58 24 -82t87 -24v-100l-22 -23q-127 0 -165 104q-37 -54 -92 -85q-54 -30 -132 -30zM8 742h-2q24 30 71 30q13 0 28 -3q20 -4 31 -6l35 -7q15 -3 29 -3
q16 0 30 3q12 3 21 8h10v-52q-12 -9 -28 -15t-34 -6q-16 0 -31 3q-20 4 -31 7q-42 9 -59 9q-18 0 -36 -5q-16 -4 -25 -15h-9v52z" />
    <glyph glyph-name="uniFEF7" unicode="&#xfedf;&#xfe84;" horiz-adv-x="524" arabic-form="isolated" 
d="M412 329v-2q44 -39 60 -75q17 -37 17 -82q0 -82 -45 -127t-127 -45h-282v116l238 185l-238 180v123l6 4l303 -227q10 25 15 66q5 45 5 111v188h92v-188q0 -33 -2 -79q-1 -34 -6 -61q-4 -25 -14 -48t-22 -39zM317 121l-1 -1q106 0 106 41q0 16 -19 36q-19 21 -72 60
l-171 -134v-2h157zM90 700q-10 19 -10 41q0 23 9 41t23 32t33 21q21 8 42 8q65 0 65 -68v-27h-42v7q0 26 -33 26q-22 0 -39 -11q-16 -10 -16 -26q0 -13 10 -23q10 -11 27 -21h108v-61h-208v61h31z" />
    <glyph glyph-name="uniFEF8" unicode="&#xfee0;&#xfe84;" horiz-adv-x="619" arabic-form="final" 
d="M207 -10v2q-37 0 -84 5q-42 5 -93 18v99h151h39l-125 508v9h99l122 -505q61 15 102 50q-3 24 -3 50v520h92v-516q0 -58 24 -82t87 -24v-100l-22 -23q-127 0 -165 104q-37 -54 -92 -85q-54 -30 -132 -30zM62 758q-10 19 -10 41q0 23 9 41t23 32t33 21q21 8 42 8
q65 0 65 -68v-27h-42v7q0 26 -33 26q-22 0 -39 -11q-16 -10 -16 -26q0 -13 10 -23q10 -11 27 -21h108v-61h-208v61h31z" />
    <glyph glyph-name="uniFEF9" unicode="&#xfedf;&#xfe88;" horiz-adv-x="524" arabic-form="isolated" 
d="M412 329v-2q44 -39 60 -75q17 -37 17 -82q0 -82 -45 -127t-127 -45h-282v116l238 185l-238 180v123l6 4l303 -227q10 25 15 66q5 45 5 111v188h92v-188q0 -33 -2 -79q-1 -34 -6 -61q-4 -25 -14 -48t-22 -39zM317 121l-1 -1q106 0 106 41q0 16 -19 36q-19 21 -72 60
l-171 -134v-2h157zM96 -204q-10 19 -10 41q0 23 9 41t23 32t33 21q21 8 42 8q65 0 65 -68v-27h-42v7q0 26 -33 26q-22 0 -39 -11q-16 -10 -16 -26q0 -13 10 -23q10 -11 27 -21h108v-61h-208v61h31z" />
    <glyph glyph-name="uniFEFA" unicode="&#xfee0;&#xfe88;" horiz-adv-x="619" arabic-form="final" 
d="M207 -10v2q-37 0 -84 5q-42 5 -93 18v99h151h39l-125 508v9h99l122 -505q61 15 102 50q-3 24 -3 50v520h92v-516q0 -58 24 -82t87 -24v-100l-22 -23q-127 0 -165 104q-37 -54 -92 -85q-54 -30 -132 -30zM192 -199q-10 19 -10 41q0 23 9 41t23 32q14 13 33 21q21 8 42 8
q65 0 65 -68v-27h-42v7q0 26 -33 26q-22 0 -39 -11q-16 -10 -16 -26q0 -13 10 -23t27 -21h108v-61h-208v61h31z" />
    <glyph glyph-name="uniFEFB" unicode="&#xfedf;&#xfe8e;" horiz-adv-x="524" arabic-form="isolated" 
d="M412 329v-2q44 -39 60 -75q17 -37 17 -82q0 -82 -45 -127t-127 -45h-282v116l238 185l-238 180v123l6 4l303 -227q10 25 15 66q5 45 5 111v188h92v-188q0 -33 -2 -79q-1 -34 -6 -61q-4 -25 -14 -48t-22 -39zM317 121l-1 -1q106 0 106 41q0 16 -19 36q-19 21 -72 60
l-171 -134v-2h157z" />
    <glyph glyph-name="uniFEFC" unicode="&#xfee0;&#xfe8e;" horiz-adv-x="619" arabic-form="final" 
d="M207 -10v2q-37 0 -84 5q-42 5 -93 18v99h151h39l-125 508v9h99l122 -505q61 15 102 50q-3 24 -3 50v520h92v-516q0 -58 24 -82t87 -24v-100l-22 -23q-127 0 -165 104q-37 -54 -92 -85q-54 -30 -132 -30z" />
    <glyph glyph-name="f_b" unicode="fb" horiz-adv-x="901" 
d="M579 65l-6 2q78 0 117 45t39 142q0 95 -37 135q-38 41 -106 41h-17v54q9 4 28 7q18 3 39 3q110 0 168 -60q59 -61 59 -166q0 -62 -18 -111t-53 -84t-86 -53t-118 -18h-184v637q0 31 -16 40t-63 9q-33 0 -54 -6t-33 -18t-16 -31q-4 -17 -4 -48v-102h116v-65h-116v-332
q0 -25 25 -25h51v-60h-259v60h36q25 0 25 25v332h-69v65h46q23 0 23 23v21q0 105 59 166q59 60 171 60q61 0 106 -3q50 -3 71 -7q27 -3 27 -28v-650h49z" />
    <glyph glyph-name="f_f" unicode="ff" horiz-adv-x="654" 
d="M349 60h33q25 0 25 25v332h-191v-332q0 -25 25 -25h47v-60h-255v60h36q25 0 25 25v332h-69v65h46q23 0 23 23v27q0 45 14 87q13 39 41 70q26 29 66 46t88 17q12 0 34 -2q13 -1 28 -5v-81h-10q-24 10 -75 10q-39 0 -51 -20t-12 -69v-103h168q23 0 23 23v27q0 45 14 87
q13 39 41 70q26 29 66 46t88 17q12 0 34 -2q13 -1 28 -5v-81h-10q-21 10 -72 10q-40 0 -52 -20t-12 -69v-103h120v-65h-120v-332q0 -25 24 -25h51v-60h-259v60z" />
    <glyph glyph-name="f_h" unicode="fh" horiz-adv-x="913" 
d="M36 60l34 -1q25 0 25 25v332h-69v65h46q23 0 23 23v21q0 106 57 166t169 60q59 0 105 -3q51 -3 72 -7q27 -3 27 -28v-291h4q21 24 62 46q39 21 93 21q77 0 111 -37q35 -38 35 -112v-258q0 -25 24 -25h36v-60h-242v60h35q24 0 24 25v236q0 47 -19 66q-20 20 -60 20
q-35 0 -60 -13q-26 -13 -42 -30v-277q0 -25 24 -25h36v-60h-244v60h37q24 0 24 25v552q0 14 -3 25q-3 10 -12 16q-10 7 -24 8q-20 2 -38 2q-33 0 -54 -6t-33 -18q-11 -11 -16 -31q-4 -17 -4 -48v-102h113v-65h-113v-332q0 -25 25 -25h37v-60h-245v60z" />
    <glyph glyph-name="f_j" unicode="fj" horiz-adv-x="617" 
d="M36 60l36 -4q25 0 25 25v332h-69v65h46q23 0 23 23v27q0 45 14 87q13 39 41 70q27 30 65 47q39 17 87 17q11 0 29 -2q13 -1 24 -3v-81h-9q-9 4 -28 7q-18 3 -37 3q-39 0 -51 -19q-12 -20 -12 -69v-104h287q24 0 24 -26v-486q0 -95 -55 -144q-56 -50 -168 -50v60
q56 0 78 27q22 26 22 98v432q0 25 -24 25h-164v-332q0 -25 24 -25h50v-60h-258v60zM398 642l-3 -1q0 35 20 53q19 18 53 18t54 -18t20 -52t-19 -52t-54 -18q-33 0 -52 18t-19 52z" />
    <glyph glyph-name="f_k" unicode="fk" horiz-adv-x="893" 
d="M533 251l121 123q2 3 7 8t7 8q8 10 8 17q0 15 -18 15h-32v60h236v-60h-8q-35 0 -62 -12t-52 -37l-91 -88l149 -175q20 -24 39 -35q20 -13 48 -14v-60h-66q-53 0 -84 15q-30 14 -55 47zM34 59l35 1q25 0 25 25v332h-69v65h46q23 0 23 23v21q0 106 57 166t169 60
q58 0 105 -3q51 -3 72 -7q27 -3 27 -28v-630q0 -25 24 -25h36v-60h-243v60h36q24 0 24 25v551q0 15 -3 25t-12 16q-10 7 -24 8q-20 2 -38 2q-33 0 -54 -6t-33 -18q-11 -12 -16 -31q-4 -17 -4 -48v-102h113v-65h-113v-332q0 -25 25 -25h37v-60h-245v60z" />
    <glyph glyph-name="f_f_b" unicode="ffb" horiz-adv-x="1214" 
d="M892 65l-7 2q77 0 118 45q40 44 40 142q0 95 -37 135q-38 41 -106 41h-18v54q9 4 28 7q18 3 39 3q109 0 168 -60q59 -61 59 -166q0 -62 -18 -111t-53 -84t-86 -53t-118 -18h-184v637q0 31 -16 40q-17 9 -63 9q-33 0 -54 -6t-33 -18q-11 -12 -16 -31q-4 -17 -4 -48v-102
h115v-65h-115v-332q0 -25 24 -25h49v-60h-257v60h36q25 0 25 25v332h-191v-332q0 -25 25 -25h47v-60h-255v60h36q25 0 25 25v332h-69v65h46q23 0 23 23v27q0 45 14 87q13 39 41 70q26 29 66 46t88 17q12 0 34 -2q13 -1 28 -5v-81h-10q-24 10 -75 10q-39 0 -51 -20
q-12 -19 -12 -69v-103h168q23 0 23 23v21q0 105 59 166q58 60 171 60q62 0 107 -3q50 -3 71 -7q26 -3 26 -28v-650h49z" />
    <glyph glyph-name="f_f_h" unicode="ffh" horiz-adv-x="1227" 
d="M349 60l35 1q25 0 25 25v332h-191v-332q0 -25 25 -25h47v-60h-255v60h36q25 0 25 25v332h-69v65h46q23 0 23 23v27q0 45 14 87q13 39 41 70q26 29 66 46t88 17q12 0 34 -2q13 -1 28 -5v-81h-10q-24 10 -75 10q-39 0 -51 -20q-12 -19 -12 -69v-103h168q23 0 23 23v21
q0 106 57 166t168 60q59 0 105 -3q51 -3 72 -7q26 -3 26 -28v-290h4q21 24 62 46q39 21 93 21q77 0 111 -37q35 -38 35 -111v-258q0 -25 24 -25h37v-60h-242v60h34q24 0 24 25v236q0 47 -19 66t-60 19q-35 0 -60 -13q-25 -14 -42 -30v-277q0 -25 24 -25h36v-60h-243v60h36
q24 0 24 25v552q0 30 -15 39t-61 9q-33 0 -54 -6t-33 -18q-11 -11 -16 -31q-4 -17 -4 -48v-102h112v-65h-112v-332q0 -25 24 -25h37v-60h-245v60z" />
    <glyph glyph-name="f_f_i" unicode="ffi" horiz-adv-x="939" 
d="M664 60l33 -3q25 0 25 25v307q0 25 -25 25h-167v-332q0 -25 24 -25h50v-60h-258v60h36q25 0 25 25v332h-190v-332q0 -25 24 -25h47v-60h-255v60h36q25 0 25 25v332h-69v65h46q23 0 23 23v27q0 45 14 87q13 39 41 70q26 29 66 46t88 17q12 0 34 -2q13 -1 28 -5v-81h-10
q-21 10 -72 10q-40 0 -52 -20q-12 -19 -12 -69v-103h167q23 0 23 23v27q0 45 14 87q13 39 41 70t66 47q40 17 88 17q12 0 30 -2q14 -2 24 -3v-81h-10q-9 4 -28 7q-18 3 -37 3q-40 0 -52 -20t-12 -69v-103h290q25 0 25 -26v-371q0 -25 24 -25h36v-60h-244v60zM709 643l-1 -1
q0 35 20 53t54 18t53 -18q20 -18 20 -52t-20 -52q-19 -18 -53 -18t-54 18q-19 18 -19 52z" />
    <glyph glyph-name="f_f_j" unicode="ffj" horiz-adv-x="930" 
d="M349 60l34 -4q25 0 25 25v332h-190v-332q0 -25 24 -25h47v-60h-255v60h36q25 0 25 25v332h-69v65h46q23 0 23 23v27q0 45 14 87q13 39 41 70q26 29 66 46t88 17q12 0 34 -2q13 -1 28 -5v-81h-10q-21 10 -72 10q-40 0 -52 -20t-12 -69v-103h167q23 0 23 23v27q0 45 14 87
q13 39 41 70q27 30 65 47q39 17 87 17q11 0 29 -2q14 -1 24 -3v-81h-9q-9 4 -28 7q-18 3 -37 3q-39 0 -51 -19q-12 -20 -12 -69v-104h287q24 0 24 -26v-486q0 -95 -55 -144q-56 -50 -168 -50v60q55 0 78 27q22 26 22 98v432q0 25 -24 25h-164v-332q0 -25 24 -25h50v-60h-258
v60zM709 642l-3 -1q0 35 20 53t53 18q35 0 54 -18q20 -18 20 -52t-19 -52q-20 -18 -54 -18q-32 0 -52 18q-19 18 -19 52z" />
    <glyph glyph-name="f_f_k" unicode="ffk" horiz-adv-x="1207" 
d="M349 60l37 1q25 0 25 25v332h-191v-332q0 -25 25 -25h47v-60h-255v60h36q25 0 25 25v332h-69v65h46q23 0 23 23v27q0 45 14 87q13 39 41 70q26 29 66 46t88 17q12 0 34 -2q13 -1 28 -5v-81h-10q-24 10 -75 10q-39 0 -51 -20q-12 -19 -12 -69v-103h168q23 0 23 23v21
q0 106 57 166t168 60q59 0 105 -3q51 -3 72 -7q26 -3 26 -28v-630q0 -25 24 -25h36v-60h-242v60h35q24 0 24 25v551q0 14 -3 25q-3 10 -12 16q-10 7 -24 8q-20 2 -38 2q-33 0 -54 -6t-33 -18q-11 -11 -16 -31q-4 -17 -4 -48v-102h112v-65h-112v-332q0 -25 24 -25h37v-60
h-245v60zM848 252l122 123q10 10 15 16q7 8 7 17q0 15 -18 15h-32v60h236v-60h-8q-35 0 -62 -12q-28 -12 -51 -37l-91 -88l148 -175q20 -24 39 -35q20 -13 48 -14v-60h-66q-53 0 -84 15t-57 47z" />
    <glyph glyph-name="f_f_l" unicode="ffl" horiz-adv-x="923" 
d="M349 60l37 1q25 0 25 25v332h-191v-332q0 -25 25 -25h47v-60h-255v60h36q25 0 25 25v332h-69v65h46q23 0 23 23v27q0 45 14 87q13 39 41 70q26 29 66 46t88 17q12 0 34 -2q13 -1 28 -5v-81h-10q-24 10 -75 10q-39 0 -51 -20q-12 -19 -12 -69v-103h168q23 0 23 23v21
q0 106 57 166t168 60q59 0 105 -3q51 -3 72 -7q26 -3 26 -28v-630q0 -25 24 -25h36v-60h-243v60h36q24 0 24 25v551q0 14 -3 25q-3 10 -12 16q-10 7 -24 8q-20 2 -38 2q-33 0 -54 -6t-33 -18q-11 -11 -16 -31q-4 -17 -4 -48v-102h112v-65h-112v-332q0 -25 24 -25h37v-60
h-245v60z" />
    <glyph glyph-name="f_y" unicode="fy" horiz-adv-x="808" 
d="M315 -152h5q22 -6 51 -6q51 0 79 19t46 64l17 45l-163 420q-6 14 -15 20t-31 6h-88v-332q0 -25 24 -25h51v-60h-259v60h36q25 0 25 25v332h-69v65h46q23 0 23 23v27q0 45 14 87q13 39 41 70q26 29 66 46t88 17q12 0 34 -2q13 -1 28 -5v-81h-10q-21 10 -72 10
q-40 0 -52 -20q-12 -19 -12 -69v-103h311v-60h-36q-18 0 -18 -15q0 -4 3 -13q2 -6 6 -16l94 -261h4l93 261q1 5 5 17q3 9 3 14q0 15 -19 15h-35v60h182v-60h-11q-20 0 -30 -8q-8 -7 -16 -27l-182 -482q-25 -65 -75 -103q-49 -37 -126 -37h-30q-12 0 -26 2v80z" />
    <glyph glyph-name="f_yacute" unicode="f&#xfd;" horiz-adv-x="808" 
d="M314 -152l6 -1q8 -2 24 -4q9 -1 27 -1q51 0 79 19q29 20 45 64l18 45l-163 420q-6 14 -15 20t-31 6h-89v-332q0 -25 25 -25h51v-60h-259v60h36q25 0 25 25v332h-69v65h46q23 0 23 23v27q0 45 14 87q13 39 41 70q26 29 66 46t88 17q12 0 34 -2q13 -1 28 -5v-81h-10
q-24 10 -75 10q-39 0 -51 -20q-12 -19 -12 -69v-103h311v-60h-35q-19 0 -19 -15q0 -4 3 -13q4 -14 5 -16l95 -262h3l93 262q2 5 6 17q3 9 3 14q0 15 -18 15h-35v60h182v-60h-11q-21 0 -31 -8t-17 -27l-182 -482q-25 -66 -73 -103q-47 -37 -125 -37h-30q-11 0 -27 2v80z
M514 569l-2 1q34 36 63 66q16 17 47 48l30 30q10 6 15 8q8 3 16 3q20 0 33 -16q14 -17 14 -33q0 -20 -18 -32q-8 -7 -37 -25q-38 -24 -58 -36q-35 -21 -78 -45z" />
    <glyph glyph-name="f_ydieresis" unicode="f&#xff;" horiz-adv-x="808" 
d="M314 -152l6 -3q8 -2 24 -4q9 -1 27 -1q51 0 79 19q29 20 45 64l18 45l-163 420q-6 14 -15 20t-31 6h-89v-332q0 -25 25 -25h51v-60h-259v60h36q25 0 25 25v332h-69v65h46q23 0 23 23v27q0 45 14 87q13 39 41 70q26 29 66 46t88 17q12 0 30 -2q14 -1 24 -3v-81h-10
q-9 4 -28 7q-18 3 -39 3q-39 0 -51 -20q-12 -19 -12 -69v-103h311v-60h-35q-19 0 -19 -15q0 -4 3 -13q4 -14 5 -16l95 -262h3l93 262q2 5 6 17q3 9 3 14q0 15 -18 15h-35v60h182v-60h-11q-21 0 -31 -8t-17 -27l-182 -482q-25 -66 -73 -103q-47 -37 -125 -37h-30q-11 0 -27 2
v80zM420 613l-1 -1q0 29 17 44q16 15 45 15q27 0 44 -15t17 -43q0 -29 -17 -44t-44 -15q-29 0 -45 15t-16 44zM599 612v-1q0 29 16 44q17 15 45 15t45 -15t17 -43q0 -29 -17 -44t-45 -15t-45 15q-16 15 -16 44z" />
    <glyph glyph-name="uni06440671" unicode="&#xfedf;&#xfb51;" horiz-adv-x="524" 
d="M412 329v-2q44 -39 60 -75q17 -37 17 -82q0 -82 -45 -127t-127 -45h-282v116l238 185l-238 180v123l6 4l303 -227q10 25 15 66q5 45 5 111v188h92v-188q0 -33 -2 -79q-1 -34 -6 -61q-4 -25 -14 -48t-22 -39zM317 121l-1 -1q106 0 106 41q0 16 -19 36q-19 21 -72 60
l-171 -134v-2h157zM222 815h-1q35 0 56 -25q21 -26 21 -66q0 -42 -24 -66t-61 -24q-29 0 -56 9t-52 9q-18 0 -36 -5q-16 -4 -25 -15h-9v52q24 30 71 30h4q26 53 53 77t59 24zM214 696l-2 1q20 0 30 6q11 6 11 17q0 14 -12 23t-30 9q-19 0 -37 -12t-28 -31l36 -9q16 -4 32 -4
z" />
    <glyph glyph-name="uni06440671.fina" unicode="&#xfee0;&#xfb51;" horiz-adv-x="619" 
d="M207 -10v2q-37 0 -84 5q-42 5 -93 18v99h151h39l-125 508v9h99l122 -505q61 15 102 50q-3 24 -3 50v520h92v-516q0 -58 24 -82t87 -24v-100l-22 -23q-127 0 -165 104q-37 -54 -92 -85q-54 -30 -132 -30zM195 873h-1q35 0 56 -25q21 -26 21 -66q0 -42 -24 -66t-61 -24
q-29 0 -56 9t-52 9q-18 0 -36 -5q-16 -4 -25 -15h-9v52q24 30 71 30h4q26 53 53 77t59 24zM187 754l-2 1q19 0 30 6t11 17q0 14 -12 23t-30 9q-19 0 -37 -12t-28 -31l36 -9q16 -4 32 -4z" />
    <glyph glyph-name="uni06330632" unicode="&#xfeb3;&#xfeb0;" horiz-adv-x="942" 
d="M50 -255l4 -5q-44 0 -81 19q-38 20 -69 52v68l8 7q59 -25 112 -25q38 0 69 16q31 17 54 45t36 69q14 42 14 90q0 28 -7 60q-9 39 -22 77l4 5l276 30v-87q15 -29 42 -44t62 -15q26 0 39 4q15 5 24 15q9 11 12 28q3 18 3 44v58h74v-58q0 -42 -6 -75q27 -13 66 -13
q31 0 45 14t14 45q0 18 -1 27q-2 21 -4 30q-5 29 -7 37q-1 5 -4.5 21.5t-5.5 26.5l4 6h80q1 -4 4 -20.5t4 -24.5q4 -27 5 -36q2 -22 3 -32t1 -32q0 -85 -36 -133t-103 -48q-65 0 -105 42q-36 -43 -109 -43q-63 0 -111 36t-76 103l-92 -12q1 -5 1 -15v-14q0 -73 -18 -136
q-18 -62 -48 -109t-70 -72q-41 -26 -85 -26zM197 442l66 -66l-66 -65h-10l-67 65l67 66h10z" />
    <glyph glyph-name="uni06340632" unicode="&#xfeb7;&#xfeb0;" horiz-adv-x="942" 
d="M50 -255l4 -5q-44 0 -81 19q-38 20 -69 52v68l8 7q59 -25 112 -25q38 0 69 16q31 17 54 45t36 69q14 42 14 90q0 28 -7 60q-9 39 -22 77l4 5l276 30v-87q15 -29 42 -44t62 -15q26 0 39 4q15 5 24 15q9 11 12 28q3 18 3 44v58h74v-58q0 -42 -6 -75q27 -13 66 -13
q31 0 45 14t14 45q0 18 -1 27q-2 21 -4 30q-5 29 -7 37q-1 5 -4.5 21.5t-5.5 26.5l4 6h80q1 -4 4 -20.5t4 -24.5q4 -27 5 -36q2 -22 3 -32t1 -32q0 -85 -36 -133t-103 -48q-65 0 -105 42q-36 -43 -109 -43q-63 0 -111 36t-76 103l-92 -12q1 -5 1 -15v-14q0 -73 -18 -136
q-18 -62 -48 -109t-70 -72q-41 -26 -85 -26zM590 525l64 62h10l64 -62l-64 -63h-10zM725 341h-10l-56 54l-55 -54h-10l-67 65l67 66h10l55 -55l56 55h10l66 -66zM197 442l66 -66l-66 -65h-10l-67 65l67 66h10z" />
    <glyph glyph-name="uni06330632.fina" unicode="&#xfeb4;&#xfeb0;" horiz-adv-x="1015" 
d="M50 -255q-44 0 -81 19q-38 20 -69 52v68l8 7q59 -25 112 -25q38 0 69 16t54 45t36 69q14 42 14 90q0 28 -7 60q-9 39 -22 77l4 5l276 30v-87q15 -28 43 -43q29 -15 66 -15q24 0 36 4q14 5 23 15t12 27t3 42v57h74v-57q0 -42 -6 -75q15 -7 33 -10q16 -3 36 -3q36 0 48 18
t12 72v87h74v-87q0 -25 -1 -36l-3 -33q32 -6 57 -8q31 -3 63 -3v-101l-22 -22q-34 0 -69 9t-63 27q-33 -46 -97 -46q-65 0 -107 42q-36 -42 -109 -42q-63 0 -110 36t-75 103l-92 -12q1 -5 1 -15v-14q0 -73 -18 -136q-18 -62 -48 -109t-70 -72q-41 -26 -85 -26zM193 447
l66 -66l-66 -65h-10l-67 65l67 66h10z" />
    <glyph glyph-name="uni06340632.fina" unicode="&#xfeb8;&#xfeb0;" horiz-adv-x="1015" 
d="M50 -255q-44 0 -81 19q-38 20 -69 52v68l8 7q59 -25 112 -25q38 0 69 16t54 45t36 69q14 42 14 90q0 28 -7 60q-9 39 -22 77l4 5l276 30v-87q15 -28 43 -43q29 -15 66 -15q24 0 36 4q14 5 23 15t12 27t3 42v57h74v-57q0 -42 -6 -75q15 -7 33 -10q16 -3 36 -3q36 0 48 18
t12 72v87h74v-87q0 -25 -1 -36l-3 -33q32 -6 57 -8q31 -3 63 -3v-101l-22 -22q-34 0 -69 9t-63 27q-33 -46 -97 -46q-65 0 -107 42q-36 -42 -109 -42q-63 0 -110 36t-75 103l-92 -12q1 -5 1 -15v-14q0 -73 -18 -136q-18 -62 -48 -109t-70 -72q-41 -26 -85 -26zM596 530
l64 62h10l64 -62l-64 -63h-10zM731 346h-10l-56 54l-55 -54h-10l-67 65l67 66h10l55 -55l56 55h10l66 -66zM193 447l66 -66l-66 -65h-10l-67 65l67 66h10z" />
    <glyph glyph-name="uni06330626" unicode="&#xfeb3;&#xfe8a;" horiz-adv-x="1276" 
d="M375 -294l-1 -6q-162 0 -249 69t-87 212q0 45 6 89q7 47 16 77h69v-9q-8 -29 -12 -61q-4 -29 -4 -68q0 -89 69 -131t213 -42q53 0 100 6q48 6 79 16q33 10 51 24t18 30q0 17 -20 26q-17 8 -71 19l-73 14q-79 15 -117 45q-37 30 -37 90q0 45 23 91q23 45 62 80
q40 35 89 56t104 21q49 0 84 -22q37 -23 62 -70l29 -55q13 -24 26 -44q13 -19 25 -30q14 -12 28 -18q15 -6 35 -6q21 0 33 4q13 5 21 15q8 11 11 27q3 17 3 42v58h74v-58q0 -41 -6 -74q34 -14 68 -14q31 0 45 14t14 45q0 18 -1 27q-2 21 -4 30q-5 29 -7 37q-1 5 -4.5 21.5
t-5.5 26.5l5 6h79q1 -4 4 -20.5t4 -24.5q4 -27 5 -36q2 -22 2 -32v-32q0 -85 -36 -133t-102 -48t-106 42q-34 -42 -110 -42q-30 0 -57 8q-25 7 -46 24q-21 16 -39 42q-19 27 -38 62l-22 42q-20 35 -46 51t-64 16q-35 0 -63 -7q-32 -8 -54 -19q-23 -12 -37 -27
q-14 -16 -14 -31q0 -21 21 -33t68 -21l73 -16q44 -10 69 -19q28 -10 47 -26q18 -15 27 -36t9 -52q0 -57 -24 -102q-23 -44 -68 -76q-44 -32 -106 -48q-61 -16 -139 -16zM23 272q-10 19 -10 41q0 23 9 41t23 32q13 14 33 21q21 8 42 8q65 0 65 -68v-27h-42v7q0 26 -33 26
q-22 0 -39 -11q-16 -10 -16 -26q0 -13 10 -23q11 -11 27 -21h108v-61h-208v61h31z" />
    <glyph glyph-name="uni06340626" unicode="&#xfeb7;&#xfe8a;" horiz-adv-x="1276" 
d="M375 -294l-1 -6q-162 0 -249 69t-87 212q0 45 6 89q7 47 16 77h69v-9q-8 -29 -12 -61q-4 -29 -4 -68q0 -89 69 -131t213 -42q53 0 100 6q48 6 79 16q33 10 51 24t18 30q0 17 -20 26q-17 8 -71 19l-73 14q-79 15 -117 45q-37 30 -37 90q0 45 23 91q23 45 62 80
q40 35 89 56t104 21q49 0 84 -22q37 -23 62 -70l29 -55q13 -24 26 -44q13 -19 25 -30q14 -12 28 -18q15 -6 35 -6q21 0 33 4q13 5 21 15q8 11 11 27q3 17 3 42v58h74v-58q0 -41 -6 -74q34 -14 68 -14q31 0 45 14t14 45q0 18 -1 27q-2 21 -4 30q-5 29 -7 37q-1 5 -4.5 21.5
t-5.5 26.5l5 6h79q1 -4 4 -20.5t4 -24.5q4 -27 5 -36q2 -22 2 -32v-32q0 -85 -36 -133t-102 -48t-106 42q-34 -42 -110 -42q-30 0 -57 8q-25 7 -46 24q-21 16 -39 42q-19 27 -38 62l-22 42q-20 35 -46 51t-64 16q-35 0 -63 -7q-32 -8 -54 -19q-23 -12 -37 -27
q-14 -16 -14 -31q0 -21 21 -33t68 -21l73 -16q44 -10 69 -19q28 -10 47 -26q18 -15 27 -36t9 -52q0 -57 -24 -102q-23 -44 -68 -76q-44 -32 -106 -48q-61 -16 -139 -16zM926 524l64 62h10l64 -62l-64 -63h-10zM1061 340h-10l-56 54l-55 -54h-10l-67 65l67 66h10l55 -55
l56 55h10l66 -66zM23 272q-10 19 -10 41q0 23 9 41t23 32q13 14 33 21q21 8 42 8q65 0 65 -68v-27h-42v7q0 26 -33 26q-22 0 -39 -11q-16 -10 -16 -26q0 -13 10 -23q11 -11 27 -21h108v-61h-208v61h31z" />
    <glyph glyph-name="uni06330626.fina" unicode="&#xfeb4;&#xfe8a;" horiz-adv-x="1349" 
d="M375 -294l-2 -6q-162 0 -249 69t-87 212q0 45 6 89q6 46 16 75h69v-8q-8 -29 -12 -61q-4 -29 -4 -68q0 -89 69 -131t213 -42q54 0 100 6q48 6 79 16q33 11 51 24t18 30t-20 26q-17 8 -71 19l-73 14q-80 15 -117 45t-37 90q0 45 23 91q23 45 62 80q40 35 89 56
q50 21 104 21q49 0 84 -22q37 -23 62 -70l29 -55q12 -24 26 -45q13 -19 25 -30q13 -11 28 -16q17 -5 35 -5q21 0 33 4q14 4 21 15q8 12 11 28q3 18 3 44v57h74v-57q0 -42 -6 -75q15 -7 33 -10q16 -3 36 -3q36 0 48 18t12 72v87h74v-87q0 -25 -1 -36l-3 -33q32 -6 57 -8
q31 -3 63 -3v-101l-22 -22q-34 0 -69 9t-63 27q-33 -46 -97 -46q-65 0 -107 42q-36 -42 -110 -42q-30 0 -57 8q-25 7 -46 24q-21 16 -39 42q-19 27 -38 62l-22 42q-20 35 -46 51t-64 16q-35 0 -63 -7q-32 -8 -54 -19q-23 -12 -37 -27q-14 -16 -14 -31q0 -21 21 -33t68 -21
l73 -16q44 -10 69 -19q28 -10 47 -26q18 -15 27 -36t9 -52q0 -57 -24 -102q-23 -44 -68 -76q-44 -32 -106 -48q-61 -16 -139 -16zM22 272q-10 19 -10 41q0 23 9 41t23 32t33 21q21 8 42 8q65 0 65 -68v-27h-42v7q0 26 -33 26q-22 0 -39 -11q-16 -10 -16 -26q0 -13 10 -23
q10 -11 27 -21h108v-61h-208v61h31z" />
    <glyph glyph-name="uni06340626.fina" unicode="&#xfeb8;&#xfe8a;" horiz-adv-x="1349" 
d="M375 -294l-2 -6q-162 0 -249 69t-87 212q0 45 6 89q6 46 16 75h69v-8q-8 -29 -12 -61q-4 -29 -4 -68q0 -89 69 -131t213 -42q54 0 100 6q48 6 79 16q33 11 51 24t18 30t-20 26q-17 8 -71 19l-73 14q-80 15 -117 45t-37 90q0 45 23 91q23 45 62 80q40 35 89 56
q50 21 104 21q49 0 84 -22q37 -23 62 -70l29 -55q12 -24 26 -45q13 -19 25 -30q13 -11 28 -16q17 -5 35 -5q21 0 33 4q14 4 21 15q8 12 11 28q3 18 3 44v57h74v-57q0 -42 -6 -75q15 -7 33 -10q16 -3 36 -3q36 0 48 18t12 72v87h74v-87q0 -25 -1 -36l-3 -33q32 -6 57 -8
q31 -3 63 -3v-101l-22 -22q-34 0 -69 9t-63 27q-33 -46 -97 -46q-65 0 -107 42q-36 -42 -110 -42q-30 0 -57 8q-25 7 -46 24q-21 16 -39 42q-19 27 -38 62l-22 42q-20 35 -46 51t-64 16q-35 0 -63 -7q-32 -8 -54 -19q-23 -12 -37 -27q-14 -16 -14 -31q0 -21 21 -33t68 -21
l73 -16q44 -10 69 -19q28 -10 47 -26q18 -15 27 -36t9 -52q0 -57 -24 -102q-23 -44 -68 -76q-44 -32 -106 -48q-61 -16 -139 -16zM927 524l64 62h10l64 -62l-64 -63h-10zM1062 340h-10l-56 54l-55 -54h-10l-67 65l67 66h10l55 -55l56 55h10l66 -66zM22 272q-10 19 -10 41
q0 23 9 41t23 32t33 21q21 8 42 8q65 0 65 -68v-27h-42v7q0 26 -33 26q-22 0 -39 -11q-16 -10 -16 -26q0 -13 10 -23q10 -11 27 -21h108v-61h-208v61h31z" />
    <glyph glyph-name="uni06350632" unicode="&#xfebb;&#xfeb0;" horiz-adv-x="1066" 
d="M50 -255l-3 -1q-44 0 -81 19q-38 20 -69 52v68l8 7q59 -25 112 -25q38 0 69 16q32 17 54 45t36 69q14 42 14 90q0 28 -7 60q-9 39 -22 77l4 5l276 30v-84q3 -5 11 -15q4 -5 14 -13l95 113q37 43 66 71q32 31 62 50q31 20 62 29t68 9q44 0 83 -18t67 -46t45 -68
q16 -38 16 -82q0 -46 -16 -82q-16 -37 -46 -64t-70 -42t-90 -15h-257q-71 0 -114 33t-75 96l-92 -12q1 -5 1 -15v-14q0 -73 -18 -136q-18 -62 -48 -109t-70 -72q-41 -26 -85 -26zM829 122l-2 -1q73 0 102 12t29 41q0 28 -12 50q-12 23 -33 38t-50 24t-62 9q-59 0 -111 -28
q-53 -29 -111 -91l-42 -49l1 -3q10 -2 16 -2h17h258zM191 445l66 -66l-66 -65h-10l-67 65l67 66h10z" />
    <glyph glyph-name="uni06360632" unicode="&#xfebf;&#xfeb0;" horiz-adv-x="1066" 
d="M50 -255l-3 -1q-44 0 -81 19q-38 20 -69 52v68l8 7q59 -25 112 -25q38 0 69 16q32 17 54 45t36 69q14 42 14 90q0 28 -7 60q-9 39 -22 77l4 5l276 30v-84q3 -5 11 -15q4 -5 14 -13l95 113q37 43 66 71q32 31 62 50q31 20 62 29t68 9q44 0 83 -18t67 -46t45 -68
q16 -38 16 -82q0 -46 -16 -82q-16 -37 -46 -64t-70 -42t-90 -15h-257q-71 0 -114 33t-75 96l-92 -12q1 -5 1 -15v-14q0 -73 -18 -136q-18 -62 -48 -109t-70 -72q-41 -26 -85 -26zM829 122l-2 -1q73 0 102 12t29 41q0 28 -12 50q-12 23 -33 38t-50 24t-62 9q-59 0 -111 -28
q-53 -29 -111 -91l-42 -49l1 -3q10 -2 16 -2h17h258zM130 445l66 -66l-66 -65h-10l-67 65l67 66h10zM720 635l66 -66l-66 -65h-10l-67 65l67 66h10z" />
    <glyph glyph-name="uni06350632.fina" unicode="&#xfebc;&#xfeb0;" horiz-adv-x="1128" 
d="M50 -255h-2q-44 0 -81 19q-38 20 -69 52v68l8 7q59 -25 112 -25q38 0 69 16t54 45t36 69q14 42 14 90q0 28 -7 60q-9 39 -22 77l4 5l276 30v-84q3 -5 11 -15q4 -5 14 -13l95 113q37 43 66 71q32 31 62 50q31 20 62 29q32 9 68 9q44 0 83 -18t67 -46t45 -68q16 -38 16 -82
q0 -17 -3 -32q-4 -20 -7 -29q22 -10 50 -15q30 -5 56 -5v-100l-23 -23q-35 0 -72 14t-68 39q-30 -25 -69 -39q-40 -14 -87 -14h-257q-71 0 -114 33t-75 96l-92 -12q1 -5 1 -15v-14q0 -73 -18 -136q-18 -62 -48 -109t-70 -72q-41 -26 -85 -26zM830 123l-2 -1q74 0 102 12
q29 12 29 41q0 27 -12 50t-33 38t-50 24q-28 9 -62 9q-59 0 -111 -28q-53 -29 -111 -91l-42 -49l1 -3q10 -2 16 -2h17h258zM192 446l66 -66l-66 -65h-10l-67 65l67 66h10z" />
    <glyph glyph-name="uni06360632.fina" unicode="&#xfec0;&#xfeb0;" horiz-adv-x="1128" 
d="M50 -255h-2q-44 0 -81 19q-38 20 -69 52v68l8 7q59 -25 112 -25q38 0 69 16t54 45t36 69q14 42 14 90q0 28 -7 60q-9 39 -22 77l4 5l276 30v-84q3 -5 11 -15q4 -5 14 -13l95 113q37 43 66 71q32 31 62 50q31 20 62 29q32 9 68 9q44 0 83 -18t67 -46t45 -68q16 -38 16 -82
q0 -17 -3 -32q-4 -20 -7 -29q22 -10 50 -15q30 -5 56 -5v-100l-23 -23q-35 0 -72 14t-68 39q-30 -25 -69 -39q-40 -14 -87 -14h-257q-71 0 -114 33t-75 96l-92 -12q1 -5 1 -15v-14q0 -73 -18 -136q-18 -62 -48 -109t-70 -72q-41 -26 -85 -26zM830 123l-2 -1q74 0 102 12
q29 12 29 41q0 27 -12 50t-33 38t-50 24q-28 9 -62 9q-59 0 -111 -28q-53 -29 -111 -91l-42 -49l1 -3q10 -2 16 -2h17h258zM131 446l66 -66l-66 -65h-10l-67 65l67 66h10zM721 636l66 -66l-66 -65h-10l-67 65l67 66h10z" />
    <glyph glyph-name="uni06350626" unicode="&#xfebb;&#xfe8a;" horiz-adv-x="1384" 
d="M1139 419l-3 -1q46 0 83 -18q38 -18 66 -46t45 -68q16 -38 16 -82q0 -46 -16 -82q-16 -37 -46 -64t-70 -42t-90 -15h-259q-29 0 -51 6t-42 21q-18 14 -37 39q-15 20 -37 59l-22 41q-20 35 -46 51t-64 16q-35 0 -63 -7q-32 -8 -54 -19q-23 -12 -37 -27q-14 -16 -14 -31
q0 -22 21 -32t68 -21l73 -16q40 -7 69 -18q28 -10 47 -26q18 -15 27 -37t9 -54q0 -57 -24 -102q-23 -44 -68 -76q-44 -32 -106 -48q-61 -16 -139 -16q-162 0 -249 69t-87 212q0 46 6 89q7 47 16 77h69v-9q-8 -29 -12 -61q-4 -29 -4 -68q0 -89 69 -131t213 -42q54 0 100 6
q48 6 79 16q33 10 51 24t18 30q0 17 -20 26q-17 8 -71 19l-73 14q-80 15 -117 45t-37 90q0 45 23 91q23 45 62 80q40 35 89 56q50 21 104 21q49 0 84 -22q37 -23 62 -72l29 -55q2 -4 6.5 -12t6.5 -12q6 -11 12 -18l78 93q37 43 66 71q32 31 62 50q31 20 62 29q32 9 67 9z
M1147 122l1 -3q74 0 102 12q29 12 29 41q0 27 -12 49q-12 23 -33 39q-20 16 -49 25t-61 9q-65 0 -117 -28q-53 -28 -108 -90l-40 -48l1 -5q4 -1 12 -1h14h261zM22 274q-10 19 -10 41q0 23 9 41t23 32t33 21q21 8 42 8q65 0 65 -68v-27h-42v7q0 26 -33 26q-22 0 -39 -11
q-16 -10 -16 -26q0 -13 10 -23q10 -11 27 -21h108v-61h-208v61h31z" />
    <glyph glyph-name="uni06360626" unicode="&#xfebf;&#xfe8a;" horiz-adv-x="1384" 
d="M1139 419l-3 -1q46 0 83 -18q38 -18 66 -46t45 -68q16 -38 16 -82q0 -46 -16 -82q-16 -37 -46 -64t-70 -42t-90 -15h-259q-29 0 -51 6t-42 21q-18 14 -37 39q-15 20 -37 59l-22 41q-20 35 -46 51t-64 16q-35 0 -63 -7q-32 -8 -54 -19q-23 -12 -37 -27q-14 -16 -14 -31
q0 -22 21 -32t68 -21l73 -16q40 -7 69 -18q28 -10 47 -26q18 -15 27 -37t9 -54q0 -57 -24 -102q-23 -44 -68 -76q-44 -32 -106 -48q-61 -16 -139 -16q-162 0 -249 69t-87 212q0 46 6 89q7 47 16 77h69v-9q-8 -29 -12 -61q-4 -29 -4 -68q0 -89 69 -131t213 -42q54 0 100 6
q48 6 79 16q33 10 51 24t18 30q0 17 -20 26q-17 8 -71 19l-73 14q-80 15 -117 45t-37 90q0 45 23 91q23 45 62 80q40 35 89 56q50 21 104 21q49 0 84 -22q37 -23 62 -72l29 -55q2 -4 6.5 -12t6.5 -12q6 -11 12 -18l78 93q37 43 66 71q32 31 62 50q31 20 62 29q32 9 67 9z
M1147 122l1 -3q74 0 102 12q29 12 29 41q0 27 -12 49q-12 23 -33 39q-20 16 -49 25t-61 9q-65 0 -117 -28q-53 -28 -108 -90l-40 -48l1 -5q4 -1 12 -1h14h261zM22 274q-10 19 -10 41q0 23 9 41t23 32t33 21q21 8 42 8q65 0 65 -68v-27h-42v7q0 26 -33 26q-22 0 -39 -11
q-16 -10 -16 -26q0 -13 10 -23q10 -11 27 -21h108v-61h-208v61h31zM1102 632l66 -66l-66 -65h-10l-67 65l67 66h10z" />
    <glyph glyph-name="uni06350626.fina" unicode="&#xfebc;&#xfe8a;" horiz-adv-x="1446" 
d="M1340 141l-3 -1q20 -8 50 -13q24 -4 56 -4v-100l-22 -23q-35 0 -72 14t-68 39q-29 -25 -69 -39q-42 -14 -88 -14h-259q-29 0 -51 6t-42 21q-18 14 -37 39q-15 20 -37 59l-22 41q-20 35 -46 51t-64 16q-35 0 -63 -7q-32 -8 -54 -19q-23 -12 -37 -27q-14 -16 -14 -31
q0 -21 21 -32q21 -10 68 -21l73 -16q40 -8 69 -18q28 -10 47 -26q18 -15 27 -37q9 -23 9 -54q0 -57 -24 -102q-23 -44 -68 -76q-44 -32 -106 -48q-61 -16 -139 -16q-162 0 -249 69t-87 212q0 46 6 89q7 47 16 77h69v-9q-8 -29 -12 -61q-4 -29 -4 -68q0 -89 69 -131t213 -42
q54 0 100 6q48 6 79 16q33 11 51 24t18 30t-20 26q-17 8 -71 19l-73 14q-80 15 -117 45t-37 90q0 45 23 91q23 45 62 80q40 35 89 56q50 21 104 21q49 0 84 -22q37 -23 62 -72l29 -55q2 -4 6.5 -12t6.5 -12q6 -10 12 -18l78 93q37 43 66 71q32 31 62 50q31 20 62 29
q32 9 67 9q45 0 83 -18t66 -46t45 -68q16 -38 16 -82q0 -33 -9 -63zM1147 122l1 -3q74 0 102 12q29 12 29 41q0 27 -12 49q-12 23 -33 39q-20 16 -49 25t-61 9q-65 0 -117 -28q-53 -28 -108 -90l-40 -48l1 -5q4 -1 12 -1h14h261zM22 274q-10 19 -10 41q0 23 9 41t23 32
t33 21q21 8 42 8q65 0 65 -68v-27h-42v7q0 26 -33 26q-22 0 -39 -11q-16 -10 -16 -26q0 -13 10 -23q10 -11 27 -21h108v-61h-208v61h31z" />
    <glyph glyph-name="uni06360626.fina" unicode="&#xfec0;&#xfe8a;" horiz-adv-x="1446" 
d="M1340 141l-3 -1q20 -8 50 -13q24 -4 56 -4v-100l-22 -23q-35 0 -72 14t-68 39q-29 -25 -69 -39q-42 -14 -88 -14h-259q-29 0 -51 6t-42 21q-18 14 -37 39q-15 20 -37 59l-22 41q-20 35 -46 51t-64 16q-35 0 -63 -7q-32 -8 -54 -19q-23 -12 -37 -27q-14 -16 -14 -31
q0 -21 21 -32q21 -10 68 -21l73 -16q40 -8 69 -18q28 -10 47 -26q18 -15 27 -37q9 -23 9 -54q0 -57 -24 -102q-23 -44 -68 -76q-44 -32 -106 -48q-61 -16 -139 -16q-162 0 -249 69t-87 212q0 46 6 89q7 47 16 77h69v-9q-8 -29 -12 -61q-4 -29 -4 -68q0 -89 69 -131t213 -42
q54 0 100 6q48 6 79 16q33 11 51 24t18 30t-20 26q-17 8 -71 19l-73 14q-80 15 -117 45t-37 90q0 45 23 91q23 45 62 80q40 35 89 56q50 21 104 21q49 0 84 -22q37 -23 62 -72l29 -55q2 -4 6.5 -12t6.5 -12q6 -10 12 -18l78 93q37 43 66 71q32 31 62 50q31 20 62 29
q32 9 67 9q45 0 83 -18t66 -46t45 -68q16 -38 16 -82q0 -33 -9 -63zM1147 122l1 -3q74 0 102 12q29 12 29 41q0 27 -12 49q-12 23 -33 39q-20 16 -49 25t-61 9q-65 0 -117 -28q-53 -28 -108 -90l-40 -48l1 -5q4 -1 12 -1h14h261zM22 274q-10 19 -10 41q0 23 9 41t23 32
t33 21q21 8 42 8q65 0 65 -68v-27h-42v7q0 26 -33 26q-22 0 -39 -11q-16 -10 -16 -26q0 -13 10 -23q10 -11 27 -21h108v-61h-208v61h31zM1102 632l66 -66l-66 -65h-10l-67 65l67 66h10z" />
    <glyph glyph-name="uni06430626" unicode="&#xfedb;&#xfe8a;" horiz-adv-x="802" 
d="M390 -240l-2 -3q-174 0 -262 75t-88 228q0 48 6 94q6 49 16 81h69v-8q-7 -31 -12 -69q-4 -33 -4 -72q0 -100 69 -147q70 -47 213 -47q116 0 182 18t66 51q0 12 -7 20q-7 9 -25 16q-16 7 -51 13q-34 6 -82 12l-77 9v117l4 5l90 -8q74 -8 107 3q33 10 33 39q0 19 -18 42
q-19 24 -66 62l-155 118v122l427 223h9v-108l-333 -173l52 -46q43 -38 73 -67q30 -30 48 -57q19 -29 26 -52q8 -27 8 -52q0 -35 -15 -62t-53 -50v-3q41 -20 59 -48q18 -29 18 -64q0 -102 -84 -157q-83 -55 -241 -55zM22 360q-10 19 -10 41q0 23 9 41t23 32t33 21q21 8 42 8
q65 0 65 -68v-27h-42v7q0 26 -33 26q-22 0 -39 -11q-16 -10 -16 -26q0 -13 10 -23q10 -11 27 -21h108v-61h-208v61h31z" />
    <glyph glyph-name="uni06A9064A" unicode="&#xfb90;&#xfef2;" horiz-adv-x="802" 
d="M390 -240l-2 -3q-174 0 -262 75t-88 228q0 48 6 94q6 49 16 81h69v-8q-7 -31 -12 -69q-4 -33 -4 -72q0 -100 69 -147q70 -47 213 -47q116 0 182 18t66 51q0 12 -7 20q-7 9 -25 16q-16 7 -51 13q-34 6 -82 12l-77 9v117l4 5l90 -8q74 -8 107 3q33 10 33 39q0 19 -18 42
q-19 24 -66 62l-155 118v122l427 223h9v-108l-333 -173l52 -46q43 -38 73 -67q30 -30 48 -57q19 -29 26 -52q8 -27 8 -52q0 -35 -15 -62t-53 -50v-3q41 -20 59 -48q18 -29 18 -64q0 -102 -84 -157q-83 -55 -241 -55zM454 -459h-10l-56 54l-55 -54h-10l-67 65l67 66h10
l55 -55l56 55h10l66 -66z" />
    <glyph glyph-name="uni06AF0649" unicode="&#xfb94;&#xfef0;" horiz-adv-x="802" 
d="M390 -240l-2 -3q-174 0 -262 75t-88 228q0 48 6 94q6 49 16 81h69v-8q-7 -31 -12 -69q-4 -33 -4 -72q0 -100 69 -147q70 -47 213 -47q116 0 182 18t66 51q0 12 -7 20q-7 9 -25 16q-16 7 -51 13q-34 6 -82 12l-77 9v117l4 5l90 -8q74 -8 107 3q33 10 33 39q0 19 -18 42
q-19 24 -66 62l-155 118v122l427 223h9v-108l-333 -173l52 -46q43 -38 73 -67q30 -30 48 -57q19 -29 26 -52q8 -27 8 -52q0 -35 -15 -62t-53 -50v-3q41 -20 59 -48q18 -29 18 -64q0 -102 -84 -157q-83 -55 -241 -55zM394 637l428 222h8v-55l-428 -223h-8v56z" />
    <glyph glyph-name="uni06AF064A" unicode="&#xfb94;&#xfef2;" horiz-adv-x="802" 
d="M390 -240l-2 -3q-174 0 -262 75t-88 228q0 48 6 94q6 49 16 81h69v-8q-7 -31 -12 -69q-4 -33 -4 -72q0 -100 69 -147q70 -47 213 -47q116 0 182 18t66 51q0 12 -7 20q-7 9 -25 16q-16 7 -51 13q-34 6 -82 12l-77 9v117l4 5l90 -8q74 -8 107 3q33 10 33 39q0 19 -18 42
q-19 24 -66 62l-155 118v122l427 223h9v-108l-333 -173l52 -46q43 -38 73 -67q30 -30 48 -57q19 -29 26 -52q8 -27 8 -52q0 -35 -15 -62t-53 -50v-3q41 -20 59 -48q18 -29 18 -64q0 -102 -84 -157q-83 -55 -241 -55zM454 -459h-10l-56 54l-55 -54h-10l-67 65l67 66h10
l55 -55l56 55h10l66 -66zM394 637l428 222h8v-55l-428 -223h-8v56z" />
    <glyph glyph-name="uni06AF0626" unicode="&#xfb94;&#xfe8a;" horiz-adv-x="802" 
d="M390 -240l-2 -3q-174 0 -262 75t-88 228q0 48 6 94q6 49 16 81h69v-8q-7 -31 -12 -69q-4 -33 -4 -72q0 -100 69 -147q70 -47 213 -47q116 0 182 18t66 51q0 12 -7 20q-7 9 -25 16q-16 7 -51 13q-34 6 -82 12l-77 9v117l4 5l90 -8q74 -8 107 3q33 10 33 39q0 19 -18 42
q-19 24 -66 62l-155 118v122l427 223h9v-108l-333 -173l52 -46q43 -38 73 -67q30 -30 48 -57q19 -29 26 -52q8 -27 8 -52q0 -35 -15 -62t-53 -50v-3q41 -20 59 -48q18 -29 18 -64q0 -102 -84 -157q-83 -55 -241 -55zM22 360q-10 19 -10 41q0 23 9 41t23 32t33 21q21 8 42 8
q65 0 65 -68v-27h-42v7q0 26 -33 26q-22 0 -39 -11q-16 -10 -16 -26q0 -13 10 -23q10 -11 27 -21h108v-61h-208v61h31zM394 637l428 222h8v-55l-428 -223h-8v56z" />
    <glyph glyph-name="uni06430626.fina" unicode="&#xfedc;&#xfe8a;" horiz-adv-x="1025" 
d="M675 467l179 -248q21 -29 37 -45q18 -18 36 -30q17 -11 37 -16q22 -5 42 -5h18v-99l-23 -24q-27 0 -55 5q-25 4 -49 18q-24 13 -48 36q-21 19 -52 59q-18 -77 -89 -106q4 -12 4 -33q0 -53 -22 -93q-23 -41 -64 -69t-102 -43q-60 -15 -136 -15q-174 0 -262 75t-88 228
q0 48 6 94q6 49 16 81h69v-8q-7 -31 -12 -69q-4 -33 -4 -72q0 -100 69 -147q70 -47 213 -47q116 0 182 18t66 50q0 13 -7 20q-8 8 -25 14q-18 6 -51 12q-52 9 -82 14l-77 12v117l4 5l74 -11q12 -2 34 -5t31 -5q6 -1 48 -7l36 -4q10 -1 28 -1q83 0 99 58l-163 229v122
l426 223h9v-108zM22 362q-10 19 -10 41q0 23 9 41t23 32t33 21q21 8 42 8q65 0 65 -68v-27h-42v7q0 26 -33 26q-22 0 -39 -11q-16 -10 -16 -26q0 -13 10 -23q10 -11 27 -21h108v-61h-208v61h31z" />
    <glyph glyph-name="uni06AF0649.fina" unicode="&#xfb95;&#xfef0;" horiz-adv-x="1025" 
d="M675 467l179 -248q21 -29 37 -45q18 -18 36 -30q17 -11 37 -16q22 -5 42 -5h18v-99l-23 -24q-27 0 -55 5q-25 4 -49 18q-24 13 -48 36q-21 19 -52 59q-18 -77 -89 -106q4 -12 4 -33q0 -53 -22 -93q-23 -41 -64 -69t-102 -43q-60 -15 -136 -15q-174 0 -262 75t-88 228
q0 48 6 94q6 49 16 81h69v-8q-7 -31 -12 -69q-4 -33 -4 -72q0 -100 69 -147q70 -47 213 -47q116 0 182 18t66 50q0 13 -7 20q-8 8 -25 14q-18 6 -51 12q-52 9 -82 14l-77 12v117l4 5l74 -11q12 -2 34 -5t31 -5q6 -1 48 -7l36 -4q10 -1 28 -1q83 0 99 58l-163 229v122
l426 223h9v-108zM590 639l428 222h8v-55l-428 -223h-8v56z" />
    <glyph glyph-name="uni06AF064A.fina" unicode="&#xfb95;&#xfef2;" horiz-adv-x="1025" 
d="M675 467l179 -248q21 -29 37 -45q18 -18 36 -30q17 -11 37 -16q22 -5 42 -5h18v-99l-23 -24q-27 0 -55 5q-25 4 -49 18q-24 13 -48 36q-21 19 -52 59q-18 -77 -89 -106q4 -12 4 -33q0 -53 -22 -93q-23 -41 -64 -69t-102 -43q-60 -15 -136 -15q-174 0 -262 75t-88 228
q0 48 6 94q6 49 16 81h69v-8q-7 -31 -12 -69q-4 -33 -4 -72q0 -100 69 -147q70 -47 213 -47q116 0 182 18t66 50q0 13 -7 20q-8 8 -25 14q-18 6 -51 12q-52 9 -82 14l-77 12v117l4 5l74 -11q12 -2 34 -5t31 -5q6 -1 48 -7l36 -4q10 -1 28 -1q83 0 99 58l-163 229v122
l426 223h9v-108zM454 -457h-10l-56 54l-55 -54h-10l-67 65l67 66h10l55 -55l56 55h10l66 -66zM590 639l428 222h8v-55l-428 -223h-8v56z" />
    <glyph glyph-name="uni06AF0626.fina" unicode="&#xfb95;&#xfe8a;" horiz-adv-x="1025" 
d="M675 467l179 -248q21 -29 37 -45q18 -18 36 -30q17 -11 37 -16q22 -5 42 -5h18v-99l-23 -24q-27 0 -55 5q-25 4 -49 18q-24 13 -48 36q-21 19 -52 59q-18 -77 -89 -106q4 -12 4 -33q0 -53 -22 -93q-23 -41 -64 -69t-102 -43q-60 -15 -136 -15q-174 0 -262 75t-88 228
q0 48 6 94q6 49 16 81h69v-8q-7 -31 -12 -69q-4 -33 -4 -72q0 -100 69 -147q70 -47 213 -47q116 0 182 18t66 50q0 13 -7 20q-8 8 -25 14q-18 6 -51 12q-52 9 -82 14l-77 12v117l4 5l74 -11q12 -2 34 -5t31 -5q6 -1 48 -7l36 -4q10 -1 28 -1q83 0 99 58l-163 229v122
l426 223h9v-108zM22 362q-10 19 -10 41q0 23 9 41t23 32t33 21q21 8 42 8q65 0 65 -68v-27h-42v7q0 26 -33 26q-22 0 -39 -11q-16 -10 -16 -26q0 -13 10 -23q10 -11 27 -21h108v-61h-208v61h31zM590 639l428 222h8v-55l-428 -223h-8v56z" />
    <glyph glyph-name="uni06440626" unicode="&#xfedf;&#xfe8a;" horiz-adv-x="788" 
d="M623 88l-4 -2q51 -20 72 -48t21 -66q0 -51 -22 -89q-23 -40 -64 -66q-42 -27 -102 -42t-136 -15q-174 0 -262 75t-88 228q0 47 6 94q6 49 16 81h69v-8q-7 -32 -12 -69q-4 -33 -4 -72q0 -101 69 -147q70 -47 213 -47q114 0 182 20q66 19 66 54q0 12 -7 20q-8 9 -25 15
q-18 6 -51 12q-39 7 -82 11l-77 6v117l4 6l82 -7q57 -4 83 17t26 74v505h92v-505q0 -49 -14 -86q-14 -36 -51 -63v-3zM20 361q-10 19 -10 41q0 23 9 41t23 32q14 13 33 21q21 8 42 8q65 0 65 -68v-27h-42v7q0 26 -33 26q-22 0 -39 -11q-16 -10 -16 -26q0 -13 10 -23t27 -21
h108v-61h-208v61h31z" />
    <glyph glyph-name="uni06440626.fina" unicode="&#xfee0;&#xfe8a;" horiz-adv-x="958" 
d="M958 23l-25 -26h-1q-60 0 -98 20q-38 19 -57 63q-24 -48 -69 -69q2 -6 4 -16q1 -6 1 -18q0 -106 -84 -163t-241 -57q-174 0 -262 75t-88 228q0 48 6 94q6 49 16 81h69v-8q-7 -31 -12 -69q-4 -33 -4 -72q0 -100 69 -147q70 -47 213 -47q116 0 182 18t66 50q0 13 -7 20
q-8 8 -25 14q-18 6 -51 12q-52 9 -82 14l-77 12v117l4 5l74 -11q12 -2 32 -5.5t28 -4.5q13 -2 46 -7q12 -2 37 -4q11 -1 32 -1q64 0 108 26q-1 9 -3 29q-1 10 -1 32v536h92v-531q0 -48 25 -69t82 -21h1v-100zM21 360q-10 19 -10 41q0 23 9 41t23 32q13 14 33 21q21 8 42 8
q65 0 65 -68v-27h-42v7q0 26 -33 26q-22 0 -39 -11q-16 -10 -16 -26q0 -13 10 -23q11 -11 27 -21h108v-61h-208v61h31z" />
    <glyph glyph-name="uni06280626" unicode="&#xfe91;&#xfe8a;" horiz-adv-x="753" 
d="M390 -146l-2 1q-174 0 -262 75t-88 228q0 48 6 94q6 49 16 81h69v-8q-7 -31 -12 -69q-4 -33 -4 -72q0 -100 69 -147q70 -47 213 -47q114 0 182 20q66 19 66 53q0 12 -7 20q-8 9 -25 15q-18 6 -51 12q-39 7 -82 11l-77 6v117l4 6l84 -7q65 -5 90 15q26 20 26 60
q0 29 -6 74q-5 34 -17 100l4 5h84q7 -47 12 -92q5 -48 5 -78q0 -47 -12 -81t-39 -55v-4q78 -39 78 -116q0 -50 -22 -90q-23 -41 -64 -69t-102 -43q-60 -15 -136 -15zM661 -173l66 -66l-66 -65h-10l-67 65l67 66h10zM22 458q-10 19 -10 41q0 23 9 41t23 32t33 21q21 8 42 8
q65 0 65 -68v-27h-42v7q0 26 -33 26q-22 0 -39 -11q-16 -10 -16 -26q0 -13 10 -23q10 -11 27 -21h108v-61h-208v61h31z" />
    <glyph glyph-name="uni067E0649" unicode="&#xfb58;&#xfef0;" horiz-adv-x="753" 
d="M390 -146l-2 1q-174 0 -262 75t-88 228q0 48 6 94q6 49 16 81h69v-8q-7 -31 -12 -69q-4 -33 -4 -72q0 -100 69 -147q70 -47 213 -47q114 0 182 20q66 19 66 53q0 12 -7 20q-8 9 -25 15q-18 6 -51 12q-39 7 -82 11l-77 6v117l4 6l84 -7q65 -5 90 15q26 20 26 60
q0 29 -6 74q-5 34 -17 100l4 5h84q7 -47 12 -92q5 -48 5 -78q0 -47 -12 -81t-39 -55v-4q78 -39 78 -116q0 -50 -22 -90q-23 -41 -64 -69t-102 -43q-60 -15 -136 -15zM526 -198l66 64h10l54 -53l55 53h10l65 -64l-65 -65h-10l-55 54l-54 -54h-10zM724 -315l-63 -61h-10
l-63 61l63 62h10z" />
    <glyph glyph-name="uni067E064A" unicode="&#xfb58;&#xfef2;" horiz-adv-x="753" 
d="M390 -146l-2 1q-174 0 -262 75t-88 228q0 48 6 94q6 49 16 81h69v-8q-7 -31 -12 -69q-4 -33 -4 -72q0 -100 69 -147q70 -47 213 -47q114 0 182 20q66 19 66 53q0 12 -7 20q-8 9 -25 15q-18 6 -51 12q-39 7 -82 11l-77 6v117l4 6l84 -7q65 -5 90 15q26 20 26 60
q0 29 -6 74q-5 34 -17 100l4 5h84q7 -47 12 -92q5 -48 5 -78q0 -47 -12 -81t-39 -55v-4q78 -39 78 -116q0 -50 -22 -90q-23 -41 -64 -69t-102 -43q-60 -15 -136 -15zM526 -198l66 64h10l54 -53l55 53h10l65 -64l-65 -65h-10l-55 54l-54 -54h-10zM724 -315l-63 -61h-10
l-63 61l63 62h10zM462 -361h-10l-56 54l-55 -54h-10l-67 65l67 66h10l55 -55l56 55h10l66 -66z" />
    <glyph glyph-name="uni067E0626" unicode="&#xfb58;&#xfe8a;" horiz-adv-x="753" 
d="M390 -146l-2 1q-174 0 -262 75t-88 228q0 48 6 94q6 49 16 81h69v-8q-7 -31 -12 -69q-4 -33 -4 -72q0 -100 69 -147q70 -47 213 -47q114 0 182 20q66 19 66 53q0 12 -7 20q-8 9 -25 15q-18 6 -51 12q-39 7 -82 11l-77 6v117l4 6l84 -7q65 -5 90 15q26 20 26 60
q0 29 -6 74q-5 34 -17 100l4 5h84q7 -47 12 -92q5 -48 5 -78q0 -47 -12 -81t-39 -55v-4q78 -39 78 -116q0 -50 -22 -90q-23 -41 -64 -69t-102 -43q-60 -15 -136 -15zM526 -198l66 64h10l54 -53l55 53h10l65 -64l-65 -65h-10l-55 54l-54 -54h-10zM724 -315l-63 -61h-10
l-63 61l63 62h10zM22 458q-10 19 -10 41q0 23 9 41t23 32t33 21q21 8 42 8q65 0 65 -68v-27h-42v7q0 26 -33 26q-22 0 -39 -11q-16 -10 -16 -26q0 -13 10 -23q10 -11 27 -21h108v-61h-208v61h31z" />
    <glyph glyph-name="uni062A0626" unicode="&#xfe97;&#xfe8a;" horiz-adv-x="753" 
d="M390 -146l-2 1q-174 0 -262 75t-88 228q0 48 6 94q6 49 16 81h69v-8q-7 -31 -12 -69q-4 -33 -4 -72q0 -100 69 -147q70 -47 213 -47q114 0 182 20q66 19 66 53q0 12 -7 20q-8 9 -25 15q-18 6 -51 12q-39 7 -82 11l-77 6v117l4 6l84 -7q65 -5 90 15q26 20 26 60
q0 29 -6 74q-5 34 -17 100l4 5h84q7 -47 12 -92q5 -48 5 -78q0 -47 -12 -81t-39 -55v-4q78 -39 78 -116q0 -50 -22 -90q-23 -41 -64 -69t-102 -43q-60 -15 -136 -15zM679 585h-10l-56 54l-55 -54h-10l-67 65l67 66h10l55 -55l56 55h10l66 -66zM22 458q-10 19 -10 41
q0 23 9 41t23 32t33 21q21 8 42 8q65 0 65 -68v-27h-42v7q0 26 -33 26q-22 0 -39 -11q-16 -10 -16 -26q0 -13 10 -23q10 -11 27 -21h108v-61h-208v61h31z" />
    <glyph glyph-name="uni062B0626" unicode="&#xfe9b;&#xfe8a;" horiz-adv-x="753" 
d="M390 -146l-2 1q-174 0 -262 75t-88 228q0 48 6 94q6 49 16 81h69v-8q-7 -31 -12 -69q-4 -33 -4 -72q0 -100 69 -147q70 -47 213 -47q114 0 182 20q66 19 66 53q0 12 -7 20q-8 9 -25 15q-18 6 -51 12q-39 7 -82 11l-77 6v117l4 6l84 -7q65 -5 90 15q26 20 26 60
q0 29 -6 74q-5 34 -17 100l4 5h84q7 -47 12 -92q5 -48 5 -78q0 -47 -12 -81t-39 -55v-4q78 -39 78 -116q0 -50 -22 -90q-23 -41 -64 -69t-102 -43q-60 -15 -136 -15zM544 769l64 62h10l64 -62l-64 -63h-10zM679 585h-10l-56 54l-55 -54h-10l-67 65l67 66h10l55 -55l56 55h10
l66 -66zM22 458q-10 19 -10 41q0 23 9 41t23 32t33 21q21 8 42 8q65 0 65 -68v-27h-42v7q0 26 -33 26q-22 0 -39 -11q-16 -10 -16 -26q0 -13 10 -23q10 -11 27 -21h108v-61h-208v61h31z" />
    <glyph glyph-name="uni06460626" unicode="&#xfee7;&#xfe8a;" horiz-adv-x="753" 
d="M390 -146l-2 1q-174 0 -262 75t-88 228q0 48 6 94q6 49 16 81h69v-8q-7 -31 -12 -69q-4 -33 -4 -72q0 -100 69 -147q70 -47 213 -47q114 0 182 20q66 19 66 53q0 12 -7 20q-8 9 -25 15q-18 6 -51 12q-39 7 -82 11l-77 6v117l4 6l84 -7q65 -5 90 15q26 20 26 60
q0 29 -6 74q-5 34 -17 100l4 5h84q7 -47 12 -92q5 -48 5 -78q0 -47 -12 -81t-39 -55v-4q78 -39 78 -116q0 -50 -22 -90q-23 -41 -64 -69t-102 -43q-60 -15 -136 -15zM618 716l66 -66l-66 -65h-10l-67 65l67 66h10zM22 458q-10 19 -10 41q0 23 9 41t23 32t33 21q21 8 42 8
q65 0 65 -68v-27h-42v7q0 26 -33 26q-22 0 -39 -11q-16 -10 -16 -26q0 -13 10 -23q10 -11 27 -21h108v-61h-208v61h31z" />
    <glyph glyph-name="uni064A0626" unicode="&#xfef3;&#xfe8a;" horiz-adv-x="753" 
d="M390 -146l-2 1q-174 0 -262 75t-88 228q0 48 6 94q6 49 16 81h69v-8q-7 -31 -12 -69q-4 -33 -4 -72q0 -100 69 -147q70 -47 213 -47q114 0 182 20q66 19 66 53q0 12 -7 20q-8 9 -25 15q-18 6 -51 12q-39 7 -82 11l-77 6v117l4 6l84 -7q65 -5 90 15q26 20 26 60
q0 29 -6 74q-5 34 -17 100l4 5h84q7 -47 12 -92q5 -48 5 -78q0 -47 -12 -81t-39 -55v-4q78 -39 78 -116q0 -50 -22 -90q-23 -41 -64 -69t-102 -43q-60 -15 -136 -15zM22 458q-10 19 -10 41q0 23 9 41t23 32t33 21q21 8 42 8q65 0 65 -68v-27h-42v7q0 26 -33 26
q-22 0 -39 -11q-16 -10 -16 -26q0 -13 10 -23q10 -11 27 -21h108v-61h-208v61h31zM722 -304h-10l-56 54l-55 -54h-10l-67 65l67 66h10l55 -55l56 55h10l66 -66z" />
    <glyph glyph-name="uni06260626" unicode="&#xfe8b;&#xfe8a;" horiz-adv-x="753" 
d="M390 -146l-2 1q-174 0 -262 75t-88 228q0 48 6 94q6 49 16 81h69v-8q-7 -31 -12 -69q-4 -33 -4 -72q0 -100 69 -147q70 -47 213 -47q114 0 182 20q66 19 66 53q0 12 -7 20q-8 9 -25 15q-18 6 -51 12q-39 7 -82 11l-77 6v117l4 6l84 -7q65 -5 90 15q26 20 26 60
q0 29 -6 74q-5 34 -17 100l4 5h84q7 -47 12 -92q5 -48 5 -78q0 -47 -12 -81t-39 -55v-4q78 -39 78 -116q0 -50 -22 -90q-23 -41 -64 -69t-102 -43q-60 -15 -136 -15zM540 624q-10 19 -10 41q0 23 9 41t23 32t33 21q21 8 42 8q65 0 65 -68v-27h-42v7q0 26 -33 26
q-22 0 -39 -11q-16 -10 -16 -26q0 -13 10 -23q10 -11 27 -21h108v-61h-208v61h31zM462 -361h-10l-56 54l-55 -54h-10l-67 65l67 66h10l55 -55l56 55h10l66 -66z" />
    <glyph glyph-name="uni06CC06CC" unicode="&#xfbfe;&#xfbfd;" horiz-adv-x="753" 
d="M390 -146l-2 1q-174 0 -262 75t-88 228q0 48 6 94q6 49 16 81h69v-8q-7 -31 -12 -69q-4 -33 -4 -72q0 -100 69 -147q70 -47 213 -47q114 0 182 20q66 19 66 53q0 12 -7 20q-8 9 -25 15q-18 6 -51 12q-39 7 -82 11l-77 6v117l4 6l84 -7q65 -5 90 15q26 20 26 60
q0 29 -6 74q-5 34 -17 100l4 5h84q7 -47 12 -92q5 -48 5 -78q0 -47 -12 -81t-39 -55v-4q78 -39 78 -116q0 -50 -22 -90q-23 -41 -64 -69t-102 -43q-60 -15 -136 -15zM722 -304h-10l-56 54l-55 -54h-10l-67 65l67 66h10l55 -55l56 55h10l66 -66z" />
    <glyph glyph-name="uni06280626.fina" unicode="&#xfe92;&#xfe8a;" horiz-adv-x="897" 
d="M748 -242l66 -66l-66 -65h-10l-67 65l67 66h10zM24 278q-10 19 -10 41q0 23 9 41t23 32t33 21q21 8 42 8q65 0 65 -68v-27h-42v7q0 26 -33 26q-22 0 -39 -11q-16 -10 -16 -26q0 -13 10 -23q10 -11 27 -21h108v-61h-208v61h31zM375 -295h-1q-162 0 -249 69t-87 212
q0 46 6 89q7 47 16 77h69v-9q-8 -29 -12 -61q-4 -29 -4 -68q0 -89 69 -131t213 -42q53 0 100 6q48 6 79 16q33 11 51 24t18 30t-20 26q-17 8 -71 19l-73 14q-79 15 -117 45q-37 30 -37 90q0 45 23 91q23 45 62 80q40 35 89 56t104 21q49 0 84 -22q37 -23 62 -72l29 -55
q15 -28 25 -42q13 -18 24 -26q10 -8 26 -13q12 -4 33 -4h8v-100l-22 -23h-9q-27 0 -49 6t-42 21q-18 14 -37 39q-15 20 -37 59l-22 41q-20 35 -46 51t-64 16q-35 0 -63 -7q-32 -8 -54 -19q-23 -12 -37 -27q-14 -16 -14 -31q0 -21 21 -32q21 -10 68 -21l73 -16q40 -8 69 -18
q28 -10 47 -26q18 -15 27 -37q9 -23 9 -54q0 -57 -24 -102q-23 -44 -68 -76q-44 -32 -106 -48q-61 -16 -139 -16z" />
    <glyph glyph-name="uni067E0649.fina" unicode="&#xfb59;&#xfef0;" horiz-adv-x="897" 
d="M613 -267l66 64h10l54 -53l55 53h10l65 -64l-65 -65h-10l-55 54l-54 -54h-10zM811 -384l-63 -61h-10l-63 61l63 62h10zM375 -295h-1q-162 0 -249 69t-87 212q0 46 6 89q7 47 16 77h69v-9q-8 -29 -12 -61q-4 -29 -4 -68q0 -89 69 -131t213 -42q53 0 100 6q48 6 79 16
q33 11 51 24t18 30t-20 26q-17 8 -71 19l-73 14q-79 15 -117 45q-37 30 -37 90q0 45 23 91q23 45 62 80q40 35 89 56t104 21q49 0 84 -22q37 -23 62 -72l29 -55q15 -28 25 -42q13 -18 24 -26q10 -8 26 -13q12 -4 33 -4h8v-100l-22 -23h-9q-27 0 -49 6t-42 21q-18 14 -37 39
q-15 20 -37 59l-22 41q-20 35 -46 51t-64 16q-35 0 -63 -7q-32 -8 -54 -19q-23 -12 -37 -27q-14 -16 -14 -31q0 -21 21 -32q21 -10 68 -21l73 -16q40 -8 69 -18q28 -10 47 -26q18 -15 27 -37q9 -23 9 -54q0 -57 -24 -102q-23 -44 -68 -76q-44 -32 -106 -48q-61 -16 -139 -16
z" />
    <glyph glyph-name="uni067E064A.fina" unicode="&#xfb59;&#xfef2;" horiz-adv-x="897" 
d="M613 -267l66 64h10l54 -53l55 53h10l65 -64l-65 -65h-10l-55 54l-54 -54h-10zM811 -384l-63 -61h-10l-63 61l63 62h10zM441 -511h-10l-56 54l-55 -54h-10l-67 65l67 66h10l55 -55l56 55h10l66 -66zM375 -295h-1q-162 0 -249 69t-87 212q0 46 6 89q7 47 16 77h69v-9
q-8 -29 -12 -61q-4 -29 -4 -68q0 -89 69 -131t213 -42q53 0 100 6q48 6 79 16q33 11 51 24t18 30t-20 26q-17 8 -71 19l-73 14q-79 15 -117 45q-37 30 -37 90q0 45 23 91q23 45 62 80q40 35 89 56t104 21q49 0 84 -22q37 -23 62 -72l29 -55q15 -28 25 -42q13 -18 24 -26
q10 -8 26 -13q12 -4 33 -4h8v-100l-22 -23h-9q-27 0 -49 6t-42 21q-18 14 -37 39q-15 20 -37 59l-22 41q-20 35 -46 51t-64 16q-35 0 -63 -7q-32 -8 -54 -19q-23 -12 -37 -27q-14 -16 -14 -31q0 -21 21 -32q21 -10 68 -21l73 -16q40 -8 69 -18q28 -10 47 -26q18 -15 27 -37
q9 -23 9 -54q0 -57 -24 -102q-23 -44 -68 -76q-44 -32 -106 -48q-61 -16 -139 -16z" />
    <glyph glyph-name="uni067E0626.fina" unicode="&#xfb59;&#xfe8a;" horiz-adv-x="897" 
d="M613 -267l66 64h10l54 -53l55 53h10l65 -64l-65 -65h-10l-55 54l-54 -54h-10zM811 -384l-63 -61h-10l-63 61l63 62h10zM24 278q-10 19 -10 41q0 23 9 41t23 32t33 21q21 8 42 8q65 0 65 -68v-27h-42v7q0 26 -33 26q-22 0 -39 -11q-16 -10 -16 -26q0 -13 10 -23
q10 -11 27 -21h108v-61h-208v61h31zM375 -295h-1q-162 0 -249 69t-87 212q0 46 6 89q7 47 16 77h69v-9q-8 -29 -12 -61q-4 -29 -4 -68q0 -89 69 -131t213 -42q53 0 100 6q48 6 79 16q33 11 51 24t18 30t-20 26q-17 8 -71 19l-73 14q-79 15 -117 45q-37 30 -37 90q0 45 23 91
q23 45 62 80q40 35 89 56t104 21q49 0 84 -22q37 -23 62 -72l29 -55q15 -28 25 -42q13 -18 24 -26q10 -8 26 -13q12 -4 33 -4h8v-100l-22 -23h-9q-27 0 -49 6t-42 21q-18 14 -37 39q-15 20 -37 59l-22 41q-20 35 -46 51t-64 16q-35 0 -63 -7q-32 -8 -54 -19q-23 -12 -37 -27
q-14 -16 -14 -31q0 -21 21 -32q21 -10 68 -21l73 -16q40 -8 69 -18q28 -10 47 -26q18 -15 27 -37q9 -23 9 -54q0 -57 -24 -102q-23 -44 -68 -76q-44 -32 -106 -48q-61 -16 -139 -16z" />
    <glyph glyph-name="uni062A0626.fina" unicode="&#xfe98;&#xfe8a;" horiz-adv-x="897" 
d="M672 444h-10l-56 54l-55 -54h-10l-67 65l67 66h10l55 -55l56 55h10l66 -66zM24 278q-10 19 -10 41q0 23 9 41t23 32t33 21q21 8 42 8q65 0 65 -68v-27h-42v7q0 26 -33 26q-22 0 -39 -11q-16 -10 -16 -26q0 -13 10 -23q10 -11 27 -21h108v-61h-208v61h31zM375 -295h-1
q-162 0 -249 69t-87 212q0 46 6 89q7 47 16 77h69v-9q-8 -29 -12 -61q-4 -29 -4 -68q0 -89 69 -131t213 -42q53 0 100 6q48 6 79 16q33 11 51 24t18 30t-20 26q-17 8 -71 19l-73 14q-79 15 -117 45q-37 30 -37 90q0 45 23 91q23 45 62 80q40 35 89 56t104 21q49 0 84 -22
q37 -23 62 -72l29 -55q15 -28 25 -42q13 -18 24 -26q10 -8 26 -13q12 -4 33 -4h8v-100l-22 -23h-9q-27 0 -49 6t-42 21q-18 14 -37 39q-15 20 -37 59l-22 41q-20 35 -46 51t-64 16q-35 0 -63 -7q-32 -8 -54 -19q-23 -12 -37 -27q-14 -16 -14 -31q0 -21 21 -32q21 -10 68 -21
l73 -16q40 -8 69 -18q28 -10 47 -26q18 -15 27 -37q9 -23 9 -54q0 -57 -24 -102q-23 -44 -68 -76q-44 -32 -106 -48q-61 -16 -139 -16z" />
    <glyph glyph-name="uni062B0626.fina" unicode="&#xfe9c;&#xfe8a;" horiz-adv-x="897" 
d="M537 628l64 62h10l64 -62l-64 -63h-10zM672 444h-10l-56 54l-55 -54h-10l-67 65l67 66h10l55 -55l56 55h10l66 -66zM24 278q-10 19 -10 41q0 23 9 41t23 32t33 21q21 8 42 8q65 0 65 -68v-27h-42v7q0 26 -33 26q-22 0 -39 -11q-16 -10 -16 -26q0 -13 10 -23
q10 -11 27 -21h108v-61h-208v61h31zM375 -295h-1q-162 0 -249 69t-87 212q0 46 6 89q7 47 16 77h69v-9q-8 -29 -12 -61q-4 -29 -4 -68q0 -89 69 -131t213 -42q53 0 100 6q48 6 79 16q33 11 51 24t18 30t-20 26q-17 8 -71 19l-73 14q-79 15 -117 45q-37 30 -37 90q0 45 23 91
q23 45 62 80q40 35 89 56t104 21q49 0 84 -22q37 -23 62 -72l29 -55q15 -28 25 -42q13 -18 24 -26q10 -8 26 -13q12 -4 33 -4h8v-100l-22 -23h-9q-27 0 -49 6t-42 21q-18 14 -37 39q-15 20 -37 59l-22 41q-20 35 -46 51t-64 16q-35 0 -63 -7q-32 -8 -54 -19q-23 -12 -37 -27
q-14 -16 -14 -31q0 -21 21 -32q21 -10 68 -21l73 -16q40 -8 69 -18q28 -10 47 -26q18 -15 27 -37q9 -23 9 -54q0 -57 -24 -102q-23 -44 -68 -76q-44 -32 -106 -48q-61 -16 -139 -16z" />
    <glyph glyph-name="uni06460626.fina" unicode="&#xfee8;&#xfe8a;" horiz-adv-x="897" 
d="M24 278q-10 19 -10 41q0 23 9 41t23 32t33 21q21 8 42 8q65 0 65 -68v-27h-42v7q0 26 -33 26q-22 0 -39 -11q-16 -10 -16 -26q0 -13 10 -23q10 -11 27 -21h108v-61h-208v61h31zM611 575l66 -66l-66 -65h-10l-67 65l67 66h10zM375 -295h-1q-162 0 -249 69t-87 212
q0 46 6 89q7 47 16 77h69v-9q-8 -29 -12 -61q-4 -29 -4 -68q0 -89 69 -131t213 -42q53 0 100 6q48 6 79 16q33 11 51 24t18 30t-20 26q-17 8 -71 19l-73 14q-79 15 -117 45q-37 30 -37 90q0 45 23 91q23 45 62 80q40 35 89 56t104 21q49 0 84 -22q37 -23 62 -72l29 -55
q15 -28 25 -42q13 -18 24 -26q10 -8 26 -13q12 -4 33 -4h8v-100l-22 -23h-9q-27 0 -49 6t-42 21q-18 14 -37 39q-15 20 -37 59l-22 41q-20 35 -46 51t-64 16q-35 0 -63 -7q-32 -8 -54 -19q-23 -12 -37 -27q-14 -16 -14 -31q0 -21 21 -32q21 -10 68 -21l73 -16q40 -8 69 -18
q28 -10 47 -26q18 -15 27 -37q9 -23 9 -54q0 -57 -24 -102q-23 -44 -68 -76q-44 -32 -106 -48q-61 -16 -139 -16z" />
    <glyph glyph-name="uni064A0626.fina" unicode="&#xfef4;&#xfe8a;" horiz-adv-x="897" 
d="M24 278q-10 19 -10 41q0 23 9 41t23 32t33 21q21 8 42 8q65 0 65 -68v-27h-42v7q0 26 -33 26q-22 0 -39 -11q-16 -10 -16 -26q0 -13 10 -23q10 -11 27 -21h108v-61h-208v61h31zM809 -373h-10l-56 54l-55 -54h-10l-67 65l67 66h10l55 -55l56 55h10l66 -66zM375 -295h-1
q-162 0 -249 69t-87 212q0 46 6 89q7 47 16 77h69v-9q-8 -29 -12 -61q-4 -29 -4 -68q0 -89 69 -131t213 -42q53 0 100 6q48 6 79 16q33 11 51 24t18 30t-20 26q-17 8 -71 19l-73 14q-79 15 -117 45q-37 30 -37 90q0 45 23 91q23 45 62 80q40 35 89 56t104 21q49 0 84 -22
q37 -23 62 -72l29 -55q15 -28 25 -42q13 -18 24 -26q10 -8 26 -13q12 -4 33 -4h8v-100l-22 -23h-9q-27 0 -49 6t-42 21q-18 14 -37 39q-15 20 -37 59l-22 41q-20 35 -46 51t-64 16q-35 0 -63 -7q-32 -8 -54 -19q-23 -12 -37 -27q-14 -16 -14 -31q0 -21 21 -32q21 -10 68 -21
l73 -16q40 -8 69 -18q28 -10 47 -26q18 -15 27 -37q9 -23 9 -54q0 -57 -24 -102q-23 -44 -68 -76q-44 -32 -106 -48q-61 -16 -139 -16z" />
    <glyph glyph-name="uni06260626.fina" unicode="&#xfe8c;&#xfe8a;" horiz-adv-x="897" 
d="M-100 278q-10 19 -10 41q0 23 9 41t23 32t33 21q21 8 42 8q65 0 65 -68v-27h-42v7q0 26 -33 26q-22 0 -39 -11q-16 -10 -16 -26q0 -13 10 -23q10 -11 27 -21h108v-61h-208v61h31zM409 483q-10 19 -10 41q0 23 9 41t23 32q13 13 33 21q21 8 42 8q65 0 65 -68v-27h-42v7
q0 26 -33 26q-22 0 -39 -11q-16 -10 -16 -26q0 -13 10 -23q11 -10 27 -21h108v-61h-208v61h31zM375 -295h-1q-162 0 -249 69t-87 212q0 46 6 89q7 47 16 77h69v-9q-8 -29 -12 -61q-4 -29 -4 -68q0 -89 69 -131t213 -42q53 0 100 6q48 6 79 16q33 11 51 24t18 30t-20 26
q-17 8 -71 19l-73 14q-79 15 -117 45q-37 30 -37 90q0 45 23 91q23 45 62 80q40 35 89 56t104 21q49 0 84 -22q37 -23 62 -72l29 -55q15 -28 25 -42q13 -18 24 -26q10 -8 26 -13q12 -4 33 -4h8v-100l-22 -23h-9q-27 0 -49 6t-42 21q-18 14 -37 39q-15 20 -37 59l-22 41
q-20 35 -46 51t-64 16q-35 0 -63 -7q-32 -8 -54 -19q-23 -12 -37 -27q-14 -16 -14 -31q0 -21 21 -32q21 -10 68 -21l73 -16q40 -8 69 -18q28 -10 47 -26q18 -15 27 -37q9 -23 9 -54q0 -57 -24 -102q-23 -44 -68 -76q-44 -32 -106 -48q-61 -16 -139 -16z" />
    <glyph glyph-name="uni06CC06CC.fina" unicode="&#xfbff;&#xfbfd;" horiz-adv-x="897" 
d="M809 -373h-10l-56 54l-55 -54h-10l-67 65l67 66h10l55 -55l56 55h10l66 -66zM375 -295h-1q-162 0 -249 69t-87 212q0 46 6 89q7 47 16 77h69v-9q-8 -29 -12 -61q-4 -29 -4 -68q0 -89 69 -131t213 -42q53 0 100 6q48 6 79 16q33 11 51 24t18 30t-20 26q-17 8 -71 19
l-73 14q-79 15 -117 45q-37 30 -37 90q0 45 23 91q23 45 62 80q40 35 89 56t104 21q49 0 84 -22q37 -23 62 -72l29 -55q15 -28 25 -42q13 -18 24 -26q10 -8 26 -13q12 -4 33 -4h8v-100l-22 -23h-9q-27 0 -49 6t-42 21q-18 14 -37 39q-15 20 -37 59l-22 41q-20 35 -46 51
t-64 16q-35 0 -63 -7q-32 -8 -54 -19q-23 -12 -37 -27q-14 -16 -14 -31q0 -21 21 -32q21 -10 68 -21l73 -16q40 -8 69 -18q28 -10 47 -26q18 -15 27 -37q9 -23 9 -54q0 -57 -24 -102q-23 -44 -68 -76q-44 -32 -106 -48q-61 -16 -139 -16z" />
    <glyph glyph-name="uni06410626" unicode="&#xfed3;&#xfe8a;" horiz-adv-x="763" 
d="M631 91v-4q43 -19 63 -48t20 -68q0 -49 -22 -87q-23 -40 -64 -66q-42 -27 -102 -42t-136 -15q-174 0 -262 75t-88 228q0 48 6 94q6 49 16 81h69v-8q-7 -31 -12 -69q-4 -33 -4 -72q0 -100 69 -147q70 -47 213 -47q114 0 182 20q66 20 66 54q0 12 -7 20q-8 10 -25 17
q-16 7 -51 13q-33 6 -82 9l-85 6v117l5 6l87 -7q42 -3 72 0t48 15t27 33q10 22 11 52l-4 2q-52 -34 -132 -34q-79 0 -122 36q-44 36 -44 110q0 42 15 84q15 43 40 75q26 33 60 54t72 21q40 0 75 -24t59 -65q25 -42 38 -96q14 -58 14 -120q0 -82 -19 -129q-20 -49 -66 -71v-3
zM527 323h-1q59 0 112 13q-8 31 -19 54q-12 26 -30 45t-39 30q-22 11 -45 11q-21 0 -38 -9t-29 -24q-11 -14 -19 -31q-7 -15 -7 -31q0 -31 29 -45q27 -13 86 -13zM23 364q-10 19 -10 41q0 23 9 41t23 32q13 14 33 21q21 8 42 8q65 0 65 -68v-27h-42v7q0 26 -33 26
q-22 0 -39 -11q-16 -10 -16 -26q0 -13 10 -23q11 -11 27 -21h108v-61h-208v61h31zM522 813l66 -66l-66 -65h-10l-67 65l67 66h10z" />
    <glyph glyph-name="uni06A40649" unicode="&#xfb6c;&#xfef0;" horiz-adv-x="763" 
d="M631 91v-4q43 -19 63 -48t20 -68q0 -49 -22 -87q-23 -40 -64 -66q-42 -27 -102 -42t-136 -15q-174 0 -262 75t-88 228q0 48 6 94q6 49 16 81h69v-8q-7 -31 -12 -69q-4 -33 -4 -72q0 -100 69 -147q70 -47 213 -47q114 0 182 20q66 20 66 54q0 12 -7 20q-8 10 -25 17
q-16 7 -51 13q-33 6 -82 9l-85 6v117l5 6l87 -7q42 -3 72 0t48 15t27 33q10 22 11 52l-4 2q-52 -34 -132 -34q-79 0 -122 36q-44 36 -44 110q0 42 15 84q15 43 40 75q26 33 60 54t72 21q40 0 75 -24t59 -65q25 -42 38 -96q14 -58 14 -120q0 -82 -19 -129q-20 -49 -66 -71v-3
zM527 323h-1q59 0 112 13q-8 31 -19 54q-12 26 -30 45t-39 30q-22 11 -45 11q-21 0 -38 -9t-29 -24q-11 -14 -19 -31q-7 -15 -7 -31q0 -31 29 -45q27 -13 86 -13zM448 866l64 62h10l64 -62l-64 -63h-10zM583 682h-10l-56 54l-55 -54h-10l-67 65l67 66h10l55 -55l56 55h10
l66 -66z" />
    <glyph glyph-name="uni06A4064A" unicode="&#xfb6c;&#xfef2;" horiz-adv-x="763" 
d="M631 91v-4q43 -19 63 -48t20 -68q0 -49 -22 -87q-23 -40 -64 -66q-42 -27 -102 -42t-136 -15q-174 0 -262 75t-88 228q0 48 6 94q6 49 16 81h69v-8q-7 -31 -12 -69q-4 -33 -4 -72q0 -100 69 -147q70 -47 213 -47q114 0 182 20q66 20 66 54q0 12 -7 20q-8 10 -25 17
q-16 7 -51 13q-33 6 -82 9l-85 6v117l5 6l87 -7q42 -3 72 0t48 15t27 33q10 22 11 52l-4 2q-52 -34 -132 -34q-79 0 -122 36q-44 36 -44 110q0 42 15 84q15 43 40 75q26 33 60 54t72 21q40 0 75 -24t59 -65q25 -42 38 -96q14 -58 14 -120q0 -82 -19 -129q-20 -49 -66 -71v-3
zM527 323h-1q59 0 112 13q-8 31 -19 54q-12 26 -30 45t-39 30q-22 11 -45 11q-21 0 -38 -9t-29 -24q-11 -14 -19 -31q-7 -15 -7 -31q0 -31 29 -45q27 -13 86 -13zM465 -455h-10l-56 54l-55 -54h-10l-67 65l67 66h10l55 -55l56 55h10l66 -66zM448 866l64 62h10l64 -62
l-64 -63h-10zM583 682h-10l-56 54l-55 -54h-10l-67 65l67 66h10l55 -55l56 55h10l66 -66z" />
    <glyph glyph-name="uni06A40626" unicode="&#xfb6c;&#xfe8a;" horiz-adv-x="763" 
d="M631 91v-4q43 -19 63 -48t20 -68q0 -49 -22 -87q-23 -40 -64 -66q-42 -27 -102 -42t-136 -15q-174 0 -262 75t-88 228q0 48 6 94q6 49 16 81h69v-8q-7 -31 -12 -69q-4 -33 -4 -72q0 -100 69 -147q70 -47 213 -47q114 0 182 20q66 20 66 54q0 12 -7 20q-8 10 -25 17
q-16 7 -51 13q-33 6 -82 9l-85 6v117l5 6l87 -7q42 -3 72 0t48 15t27 33q10 22 11 52l-4 2q-52 -34 -132 -34q-79 0 -122 36q-44 36 -44 110q0 42 15 84q15 43 40 75q26 33 60 54t72 21q40 0 75 -24t59 -65q25 -42 38 -96q14 -58 14 -120q0 -82 -19 -129q-20 -49 -66 -71v-3
zM527 323h-1q59 0 112 13q-8 31 -19 54q-12 26 -30 45t-39 30q-22 11 -45 11q-21 0 -38 -9t-29 -24q-11 -14 -19 -31q-7 -15 -7 -31q0 -31 29 -45q27 -13 86 -13zM23 364q-10 19 -10 41q0 23 9 41t23 32q13 14 33 21q21 8 42 8q65 0 65 -68v-27h-42v7q0 26 -33 26
q-22 0 -39 -11q-16 -10 -16 -26q0 -13 10 -23q11 -11 27 -21h108v-61h-208v61h31zM448 866l64 62h10l64 -62l-64 -63h-10zM583 682h-10l-56 54l-55 -54h-10l-67 65l67 66h10l55 -55l56 55h10l66 -66z" />
    <glyph glyph-name="uni06420626" unicode="&#xfed7;&#xfe8a;" horiz-adv-x="763" 
d="M631 91v-4q43 -19 63 -48t20 -68q0 -49 -22 -87q-23 -40 -64 -66q-42 -27 -102 -42t-136 -15q-174 0 -262 75t-88 228q0 48 6 94q6 49 16 81h69v-8q-7 -31 -12 -69q-4 -33 -4 -72q0 -100 69 -147q70 -47 213 -47q114 0 182 20q66 20 66 54q0 12 -7 20q-8 10 -25 17
q-16 7 -51 13q-33 6 -82 9l-85 6v117l5 6l87 -7q42 -3 72 0t48 15t27 33q10 22 11 52l-4 2q-52 -34 -132 -34q-79 0 -122 36q-44 36 -44 110q0 42 15 84q15 43 40 75q26 33 60 54t72 21q40 0 75 -24t59 -65q25 -42 38 -96q14 -58 14 -120q0 -82 -19 -129q-20 -49 -66 -71v-3
zM527 323h-1q59 0 112 13q-8 31 -19 54q-12 26 -30 45t-39 30q-22 11 -45 11q-21 0 -38 -9t-29 -24q-11 -14 -19 -31q-7 -15 -7 -31q0 -31 29 -45q27 -13 86 -13zM583 682h-10l-56 54l-55 -54h-10l-67 65l67 66h10l55 -55l56 55h10l66 -66zM23 364q-10 19 -10 41q0 23 9 41
t23 32q13 14 33 21q21 8 42 8q65 0 65 -68v-27h-42v7q0 26 -33 26q-22 0 -39 -11q-16 -10 -16 -26q0 -13 10 -23q11 -11 27 -21h108v-61h-208v61h31z" />
    <glyph glyph-name="uni06490631.fina" unicode="&#x649;&#xfeae;" horiz-adv-x="615" 
d="M50 -255l1 -1q-44 0 -81 19q-38 20 -69 52v68l8 7q59 -25 112 -25q38 0 69 16q32 17 54 45t36 69q14 42 14 90q0 42 -12 102q-11 56 -35 126l5 5h83l15 -57l176 27v60h76v-140q0 -50 27 -68t86 -18h1v-100l-22 -23h-1q-75 0 -116 38q-40 37 -45 119l-2 9l-159 -24
q2 -18 2 -25v-23q0 -75 -18 -139t-48 -111t-70 -72q-41 -26 -87 -26z" />
    <glyph glyph-name="uni06490632.fina" unicode="&#x649;&#xfeb0;" horiz-adv-x="615" 
d="M50 -255l1 -1q-44 0 -81 19q-38 20 -69 52v68l8 7q59 -25 112 -25q38 0 69 16q32 17 54 45t36 69q14 42 14 90q0 42 -12 102q-11 56 -35 126l5 5h83l15 -57l176 27v60h76v-140q0 -50 27 -68t86 -18h1v-100l-22 -23h-1q-75 0 -116 38q-40 37 -45 119l-2 9l-159 -24
q2 -18 2 -25v-23q0 -75 -18 -139t-48 -111t-70 -72q-41 -26 -87 -26zM180 536l66 -66l-66 -65h-10l-67 65l67 66h10z" />
    <glyph glyph-name="uni067E0631.fina" unicode="&#xfb59;&#xfeae;" horiz-adv-x="615" 
d="M50 -255l1 -1q-44 0 -81 19q-38 20 -69 52v68l8 7q59 -25 112 -25q38 0 69 16q32 17 54 45t36 69q14 42 14 90q0 42 -12 102q-11 56 -35 126l5 5h83l15 -57l176 27v60h76v-140q0 -50 27 -68t86 -18h1v-100l-22 -23h-1q-75 0 -116 38q-40 37 -45 119l-2 9l-159 -24
q2 -18 2 -25v-23q0 -75 -18 -139t-48 -111t-70 -72q-41 -26 -87 -26zM339 -111l66 64h10l54 -53l55 53h10l65 -64l-65 -65h-10l-55 54l-54 -54h-10zM537 -228l-63 -61h-10l-63 61l63 62h10z" />
    <glyph glyph-name="uni067E0632.fina" unicode="&#xfb59;&#xfeb0;" horiz-adv-x="615" 
d="M50 -255l1 -1q-44 0 -81 19q-38 20 -69 52v68l8 7q59 -25 112 -25q38 0 69 16q32 17 54 45t36 69q14 42 14 90q0 42 -12 102q-11 56 -35 126l5 5h83l15 -57l176 27v60h76v-140q0 -50 27 -68t86 -18h1v-100l-22 -23h-1q-75 0 -116 38q-40 37 -45 119l-2 9l-159 -24
q2 -18 2 -25v-23q0 -75 -18 -139t-48 -111t-70 -72q-41 -26 -87 -26zM339 -111l66 64h10l54 -53l55 53h10l65 -64l-65 -65h-10l-55 54l-54 -54h-10zM537 -228l-63 -61h-10l-63 61l63 62h10zM180 536l66 -66l-66 -65h-10l-67 65l67 66h10z" />
    <glyph glyph-name="uni064906BA" unicode="&#x649;&#xfb9f;" horiz-adv-x="965" 
d="M327 -206l-5 -2q-71 0 -124 19q-54 19 -90 54t-54 84t-18 111q0 50 6 90t18 81h70v-9q-17 -65 -17 -120q0 -82 56 -129q55 -46 156 -46q107 0 159 39q53 39 53 111q0 43 -11 109q-10 62 -27 127l5 5h83l13 -57l175 27v60h76v-140q0 -50 26 -68q25 -18 86 -18h1v-100
l-23 -23h-1q-76 0 -117 39t-45 123v5l-161 -26q2 -18 2 -25v-23q0 -69 -20 -126q-19 -55 -57 -94q-36 -38 -92 -58q-55 -20 -123 -20z" />
    <glyph glyph-name="uni06490646.fina" unicode="&#x649;&#xfee6;" horiz-adv-x="965" 
d="M327 -206l-5 -2q-71 0 -124 19q-54 19 -90 54t-54 84t-18 111q0 50 6 90t18 81h70v-9q-17 -65 -17 -120q0 -82 56 -129q55 -46 156 -46q107 0 159 39q53 39 53 111q0 43 -11 109q-10 62 -27 127l5 5h83l13 -57l175 27v60h76v-140q0 -50 26 -68q25 -18 86 -18h1v-100
l-23 -23h-1q-76 0 -117 39t-45 123v5l-161 -26q2 -18 2 -25v-23q0 -69 -20 -126q-19 -55 -57 -94q-36 -38 -92 -58q-55 -20 -123 -20zM328 415l66 -66l-66 -65h-10l-67 65l67 66h10z" />
    <glyph glyph-name="uni067E0646.fina" unicode="&#xfb59;&#xfee6;" horiz-adv-x="965" 
d="M327 -206l-5 -2q-71 0 -124 19q-54 19 -90 54t-54 84t-18 111q0 50 6 90t18 81h70v-9q-17 -65 -17 -120q0 -82 56 -129q55 -46 156 -46q107 0 159 39q53 39 53 111q0 43 -11 109q-10 62 -27 127l5 5h83l13 -57l175 27v60h76v-140q0 -50 26 -68q25 -18 86 -18h1v-100
l-23 -23h-1q-76 0 -117 39t-45 123v5l-161 -26q2 -18 2 -25v-23q0 -69 -20 -126q-19 -55 -57 -94q-36 -38 -92 -58q-55 -20 -123 -20zM328 415l66 -66l-66 -65h-10l-67 65l67 66h10zM675 -112l66 64h10l54 -53l55 53h10l65 -64l-65 -65h-10l-55 54l-54 -54h-10zM873 -229
l-63 -61h-10l-63 61l63 62h10z" />
    <glyph glyph-name="uni066E.init" unicode="&#x66e;" horiz-adv-x="237" 
d="M-3 123l21 1q50 0 72 18q23 18 23 59q0 29 -6 74q-5 37 -17 99l4 5h84q7 -47 12 -92q5 -48 5 -78q0 -107 -42 -158t-133 -51h-43v100z" />
    <glyph glyph-name="uni066E.medi" unicode="&#x66e;" horiz-adv-x="294" 
d="M0 123v-2q32 0 59 6q25 6 49 20q-3 25 -3 57v115h76v-110q0 -50 26 -68q25 -18 86 -18h1v-100l-23 -23h-1q-110 0 -144 79q-48 -79 -149 -79v100z" />
    <glyph glyph-name="uni066E.fina" unicode="&#x66e;" horiz-adv-x="906" 
d="M780 141l-3 4q28 -10 59 -15q27 -4 67 -4v-99l-22 -24q-55 0 -104 17q-48 16 -96 57q-78 -43 -165 -66q-85 -22 -178 -22q-81 0 -138 12t-93 39q-37 28 -53 69q-17 43 -17 102q0 31 6 65q7 39 16 72h71v-9q-14 -58 -14 -93q0 -66 57 -95q58 -29 189 -29q122 0 233 36
t200 101h9v-98l-12 -10z" />
    <glyph glyph-name="uni066F.fina" unicode="&#x66f;" horiz-adv-x="697" 
d="M354 -240l-2 -3q-148 0 -231 72t-83 200q0 39 6 81q6 39 20 87h73v-8q-10 -39 -14 -67q-5 -37 -5 -63q0 -81 62 -126t176 -45q54 0 93 6t66 18q26 12 43 33q16 21 24 51h-121q-83 0 -129 40q-47 41 -47 117q0 45 15 88q15 45 40 78q26 35 59 56t72 21q38 0 71 -21
q32 -20 58 -57q25 -35 40 -87q14 -49 19 -109h39v-99l-22 -24h-21q-18 -121 -93 -180q-76 -59 -208 -59zM581 120l1 -3q-6 31 -18 60q-12 28 -30 49t-40 33t-48 12q-21 0 -39 -9t-30 -24q-11 -14 -19 -31q-7 -15 -7 -32q0 -31 29 -43q28 -12 89 -12h112z" />
    <glyph glyph-name="uni06A1.init" unicode="&#x6a1;" horiz-adv-x="454" 
d="M0 123l196 1q39 0 66 3q26 3 45 14q18 10 27 29q10 19 11 48l-3 2q-56 -35 -132 -35q-80 0 -123 37t-43 112q0 40 15 81q16 43 40 74q26 33 59 53q34 20 71 20q41 0 75 -24t60 -66t39 -97q14 -58 14 -120q0 -69 -12 -117q-12 -47 -39 -79q-27 -31 -69 -45
q-44 -14 -100 -14h-220v100zM226 290l-4 -3q28 0 55 3q23 3 55 11q-8 31 -19 54q-11 24 -29 45q-16 19 -37 31t-45 12q-20 0 -36 -9q-17 -9 -29 -24q-11 -14 -19 -31q-7 -15 -7 -31q0 -31 29 -45q27 -13 86 -13z" />
    <glyph glyph-name="uni06A1.medi" unicode="&#x6a1;" horiz-adv-x="447" 
d="M447 23l-20 -26h-46q-41 0 -84 8q-40 7 -76 21q-76 -29 -168 -29h-75v100l23 23h87q-18 24 -31 56q-12 30 -12 62q0 44 16 83q17 41 42 72t60 51t70 20q38 0 69 -16q32 -16 54 -45q23 -29 36 -64q14 -37 14 -75q0 -79 -50 -141h91v-100zM214 337l-3 1q-42 0 -71 -24
t-29 -57q0 -21 11 -41q9 -17 29 -37q17 -17 42 -31q24 -14 51 -21q40 10 67 36q27 25 27 54q0 25 -10 45q-11 22 -27 38q-17 16 -39 27q-21 10 -48 10z" />
    <glyph glyph-name="uni06A1.fina" unicode="&#x6a1;" horiz-adv-x="930" 
d="M930 23l-21 -25h-33q-49 0 -94 9q-46 9 -82 25q-114 -43 -282 -43q-103 0 -175 12t-117 39t-66 69t-21 102q0 31 6 65q7 39 16 72h71v-9q-14 -58 -14 -93q0 -34 16 -57q17 -24 52 -39q34 -14 93 -22q53 -7 138 -7h155q-21 25 -33 56q-12 30 -12 62q0 43 15 83t42 72
t60 51q34 20 69 20q38 0 69 -16q32 -17 56 -45q23 -28 37 -64q13 -35 13 -75q0 -81 -52 -142h94v-100zM696 338l-2 1q-42 0 -71 -24t-29 -57q0 -20 11 -42q10 -19 29 -37q18 -17 42 -30t51 -21q41 11 68 36q27 26 27 54q0 25 -10 45q-11 22 -27 38q-17 17 -39 27
q-21 10 -50 10z" />
    <glyph glyph-name="uni06C2.fina" unicode="&#x6c2;" horiz-adv-x="583" 
d="M563 0l-3 -1q-32 0 -56 6q-25 6 -42 22q-19 17 -33 43q-14 25 -28 69l-16 52q-8 29 -21 41q-14 12 -39 12q-36 0 -108 -32q-67 -30 -186 -101h-8v112q125 77 202 110q82 35 131 35q43 0 65 -25q23 -25 36 -75l15 -52q7 -25 17 -46q8 -16 20 -28q11 -10 24 -15
q12 -4 30 -4h20v-103zM284 493q-10 19 -10 41q0 23 9 41t23 32q14 13 33 21q21 8 42 8q65 0 65 -68v-27h-42v7q0 26 -33 26q-22 0 -39 -11q-16 -10 -16 -26q0 -13 10 -23t27 -21h108v-61h-208v61h31z" />
    <glyph glyph-name="uni06C3.fina" unicode="&#x6c3;" horiz-adv-x="583" 
d="M563 0l-3 -1q-32 0 -56 6q-25 6 -42 22q-19 17 -33 43q-14 25 -28 69l-16 52q-8 29 -21 41q-14 12 -39 12q-36 0 -108 -32q-67 -30 -186 -101h-8v112q125 77 202 110q82 35 131 35q43 0 65 -25q23 -25 36 -75l15 -52q7 -25 17 -46q8 -16 20 -28q11 -10 24 -15
q12 -4 30 -4h20v-103zM423 454h-10l-56 54l-55 -54h-10l-67 65l67 66h10l55 -55l56 55h10l66 -66z" />
    <glyph glyph-name="uniFB51" unicode="&#x671;" horiz-adv-x="273" arabic-form="final" 
d="M249 0h1q-93 0 -135 50q-42 49 -42 158v424h92v-419q0 -48 25 -69t82 -21h1v-100l-23 -23h-1zM180 872h-1q35 0 56 -25t21 -66q0 -42 -24 -66t-61 -24q-29 0 -56 9t-52 9q-18 0 -36 -5q-16 -4 -25 -15h-9v52q24 30 71 30h4q26 53 53 77t59 24zM172 753l-2 1q20 0 30 6
q11 6 11 17q0 14 -12 23t-30 9q-19 0 -37 -12t-28 -31l36 -9q16 -4 32 -4z" />
    <glyph glyph-name="uniFB57" unicode="&#x67e;" horiz-adv-x="906" arabic-form="final" 
d="M780 141l-3 4q28 -10 59 -15q27 -4 67 -4v-99l-22 -24q-55 0 -104 17q-48 16 -96 57q-78 -43 -165 -66q-85 -22 -178 -22q-81 0 -138 12t-93 39q-37 28 -53 69q-17 43 -17 102q0 31 6 65q7 39 16 72h71v-9q-14 -58 -14 -93q0 -66 57 -95q58 -29 189 -29q122 0 233 36
t200 101h9v-98l-12 -10zM274 -106l66 64h10l54 -53l55 53h10l65 -64l-65 -65h-10l-55 54l-54 -54h-10zM472 -223l-63 -61h-10l-63 61l63 62h10z" />
    <glyph glyph-name="uniFB58" unicode="&#x67e;" horiz-adv-x="237" arabic-form="initial" 
d="M-3 123l21 1q50 0 72 18q23 18 23 59q0 29 -6 74q-5 37 -17 99l4 5h84q7 -47 12 -92q5 -48 5 -78q0 -107 -42 -158t-133 -51h-43v100zM-44 -109l66 64h10l54 -53l55 53h10l65 -64l-65 -65h-10l-55 54l-54 -54h-10zM154 -226l-63 -61h-10l-63 61l63 62h10z" />
    <glyph glyph-name="uniFB59" unicode="&#x67e;" horiz-adv-x="294" arabic-form="medial" 
d="M0 123v-2q32 0 59 6q25 6 49 20q-3 25 -3 57v115h76v-110q0 -50 26 -68q25 -18 86 -18h1v-100l-23 -23h-1q-110 0 -144 79q-48 -79 -149 -79v100zM6 -112l66 64h10l54 -53l55 53h10l65 -64l-65 -65h-10l-55 54l-54 -54h-10zM204 -229l-63 -61h-10l-63 61l63 62h10z" />
    <glyph glyph-name="uniFB67" unicode="&#x679;" horiz-adv-x="906" arabic-form="final" 
d="M780 141l-3 4q28 -10 59 -15q27 -4 67 -4v-99l-22 -24q-55 0 -104 17q-48 16 -96 57q-78 -43 -165 -66q-85 -22 -178 -22q-81 0 -138 12t-93 39q-37 28 -53 69q-17 43 -17 102q0 31 6 65q7 39 16 72h71v-9q-14 -58 -14 -93q0 -66 57 -95q58 -29 189 -29q122 0 233 36
t200 101h9v-98l-12 -10zM315 389l11 20v180h47v-115q35 35 75 35q35 0 57 -25t22 -66q0 -42 -27 -66t-69 -24h-153v61h37zM442 390h-2q18 0 30 6t12 17q0 14 -12 23t-31 9q-25 0 -46 -15t-34 -40h83z" />
    <glyph glyph-name="uniFB68" unicode="&#x679;" horiz-adv-x="237" arabic-form="initial" 
d="M-3 123l21 1q50 0 72 18q23 18 23 59q0 29 -6 74q-5 37 -17 99l4 5h84q7 -47 12 -92q5 -48 5 -78q0 -107 -42 -158t-133 -51h-43v100zM33 506l11 20v180h47v-115q35 35 75 35q35 0 57 -25t22 -66q0 -42 -27 -66t-69 -24h-153v61h37zM160 507h-2q18 0 30 6t12 17
q0 14 -12 23t-31 9q-25 0 -46 -15t-34 -40h83z" />
    <glyph glyph-name="uniFB69" unicode="&#x679;" horiz-adv-x="294" arabic-form="medial" 
d="M0 123v-2q32 0 59 6q25 6 49 20q-3 25 -3 57v115h76v-110q0 -50 26 -68q25 -18 86 -18h1v-100l-23 -23h-1q-110 0 -144 79q-48 -79 -149 -79v100zM55 443l11 20v180h47v-115q35 35 75 35q35 0 57 -25t22 -66q0 -42 -27 -66t-69 -24h-153v61h37zM182 444h-2q18 0 30 6
t12 17q0 14 -12 23t-31 9q-25 0 -46 -15t-34 -40h83z" />
    <glyph glyph-name="uniFB6B" unicode="&#x6a4;" horiz-adv-x="930" arabic-form="final" 
d="M930 23l-21 -25h-33q-49 0 -94 9q-46 9 -82 25q-114 -43 -282 -43q-103 0 -175 12t-117 39t-66 69t-21 102q0 31 6 65q7 39 16 72h71v-9q-14 -58 -14 -93q0 -34 16 -57q17 -24 52 -39q34 -14 93 -22q53 -7 138 -7h155q-21 25 -33 56q-12 30 -12 62q0 43 15 83t42 72
t60 51q34 20 69 20q38 0 69 -16q32 -17 56 -45q23 -28 37 -64q13 -35 13 -75q0 -81 -52 -142h94v-100zM696 338l-2 1q-42 0 -71 -24t-29 -57q0 -20 11 -42q10 -19 29 -37q18 -17 42 -30t51 -21q41 11 68 36q27 26 27 54q0 25 -10 45q-11 22 -27 38q-17 17 -39 27
q-21 10 -50 10zM644 735l64 62h10l64 -62l-64 -63h-10zM779 551h-10l-56 54l-55 -54h-10l-67 65l67 66h10l55 -55l56 55h10l66 -66z" />
    <glyph glyph-name="uniFB6C" unicode="&#x6a4;" horiz-adv-x="454" arabic-form="initial" 
d="M0 123l196 1q39 0 66 3q26 3 45 14q18 10 27 29q10 19 11 48l-3 2q-56 -35 -132 -35q-80 0 -123 37t-43 112q0 40 15 81q16 43 40 74q26 33 59 53q34 20 71 20q41 0 75 -24t60 -66t39 -97q14 -58 14 -120q0 -69 -12 -117q-12 -47 -39 -79q-27 -31 -69 -45
q-44 -14 -100 -14h-220v100zM226 290l-4 -3q28 0 55 3q23 3 55 11q-8 31 -19 54q-11 24 -29 45q-16 19 -37 31t-45 12q-20 0 -36 -9q-17 -9 -29 -24q-11 -14 -19 -31q-7 -15 -7 -31q0 -31 29 -45q27 -13 86 -13zM144 830l64 62h10l64 -62l-64 -63h-10zM279 646h-10l-56 54
l-55 -54h-10l-67 65l67 66h10l55 -55l56 55h10l66 -66z" />
    <glyph glyph-name="uniFB6D" unicode="&#x6a4;" horiz-adv-x="447" arabic-form="medial" 
d="M447 23l-20 -26h-46q-41 0 -84 8q-40 7 -76 21q-76 -29 -168 -29h-75v100l23 23h87q-18 24 -31 56q-12 30 -12 62q0 44 16 83q17 41 42 72t60 51t70 20q38 0 69 -16q32 -16 54 -45q23 -29 36 -64q14 -37 14 -75q0 -79 -50 -141h91v-100zM214 337l-3 1q-42 0 -71 -24
t-29 -57q0 -21 11 -41q9 -17 29 -37q17 -17 42 -31q24 -14 51 -21q40 10 67 36q27 25 27 54q0 25 -10 45q-11 22 -27 38q-17 16 -39 27q-21 10 -48 10zM156 734l64 62h10l64 -62l-64 -63h-10zM291 550h-10l-56 54l-55 -54h-10l-67 65l67 66h10l55 -55l56 55h10l66 -66z" />
    <glyph glyph-name="uniFB7B" unicode="&#x686;" horiz-adv-x="683" arabic-form="final" 
d="M683 23l-23 -28h-33q-87 0 -126 49q-39 50 -39 156v69l-50 -18q-141 -47 -220 -113q-78 -64 -78 -153q0 -40 18 -73q18 -32 53 -57q33 -23 84 -37q48 -13 113 -13q68 0 126 13q59 13 112 36h9v-99q-47 -39 -117 -60t-150 -21q-74 0 -136 20q-59 19 -102 56t-65 87
q-23 52 -23 114q0 120 87 210q86 89 261 163l22 9v4l-225 10q-25 1 -37 -6t-12 -39v-17h-64v104q0 46 23 66q23 19 84 15l278 -26q24 -1 43 -3q24 -2 34 -2l32 -1h36h13v-117l-75 -25v-87q0 -50 27 -68t88 -18h32v-100zM184 53l65 63h10l54 -53l55 53h10l64 -63l-64 -64h-10
l-55 54l-54 -54h-10zM380 -63l-62 -60h-10l-62 60l62 61h10z" />
    <glyph glyph-name="uniFB7C" unicode="&#x686;" horiz-adv-x="633" arabic-form="initial" 
d="M533 219l-129 -99q-44 -37 -80 -59q-37 -23 -70 -36q-34 -13 -72 -18q-42 -5 -84 -5h-124v100l23 23h103q51 0 90 3q40 3 74 12q32 8 66 23q32 13 69 36l57 34v3l-208 47q-25 6 -40 9q-3 1 -13 2.5t-14 2.5q-14 2 -18 2h-13q-43 0 -43 -44v-19h-63v94q0 47 21 68t63 21
q25 0 54 -7q32 -8 90 -21l164 -39q4 -1 43 -10q19 -4 36 -6l33 -3q11 -1 36 -1h21v-113h-72zM158 -109l66 64h10l54 -53l55 53h10l65 -64l-65 -65h-10l-55 54l-54 -54h-10zM356 -226l-63 -61h-10l-63 61l63 62h10z" />
    <glyph glyph-name="uniFB7D" unicode="&#x686;" horiz-adv-x="651" arabic-form="medial" 
d="M651 23l-29 -22h-1q-85 0 -123 37q-39 38 -39 117v11l-60 -47q-43 -35 -78 -57t-69 -36t-72 -18q-42 -5 -84 -5h-124v100l23 23h103q51 0 90 3q40 3 74 12q32 8 66 23q32 14 69 36l57 34v3l-208 47q-25 6 -40 9q-3 1 -13 2.5t-14 2.5q-14 2 -18 2h-13q-43 0 -43 -44v-19
h-63v94q0 47 21 68t63 21q25 0 54 -7q32 -7 90 -21l164 -39q4 -1 43 -10q19 -5 36 -6l33 -3q11 -1 36 -1h21v-113h-69v-29q0 -19 5 -34q5 -13 18 -21q12 -7 36 -10q23 -3 57 -3h1v-100zM155 -109l66 64h10l54 -53l55 53h10l65 -64l-65 -65h-10l-55 54l-54 -54h-10zM353 -226
l-63 -61h-10l-63 61l63 62h10z" />
    <glyph glyph-name="uniFB89" unicode="&#x688;" horiz-adv-x="548" arabic-form="final" 
d="M431 206l-2 1q13 -46 39 -64q25 -18 77 -18v-100l-22 -23q-51 0 -85 18t-60 62q-27 -46 -74 -69q-45 -22 -120 -22q-86 0 -123 31q-38 32 -38 108v49h65v-16q0 -29 27 -39q26 -10 93 -10q48 0 83 6q34 6 62 20q-3 7 -7 21t-7 22l-92 291v8h97zM197 609l11 20v180h47v-115
q35 35 75 35q35 0 57 -25t22 -66q0 -42 -27 -66t-69 -24h-153v61h37zM324 610h-2q18 0 30 6t12 17q0 14 -12 23t-31 9q-25 0 -46 -15t-34 -40h83z" />
    <glyph glyph-name="uniFB8B" unicode="&#x698;" horiz-adv-x="394" arabic-form="final" 
d="M50 -255l2 -1q-44 0 -81 19q-38 20 -69 52v68l8 7q59 -25 112 -25q38 0 69 16q31 17 54 45t36 69q14 42 14 90q0 31 -10 78q-11 54 -31 121l5 5h83l20 -80q10 -47 41 -67q29 -19 92 -19v-99l-23 -24q-70 0 -108 35l-2 -1q-6 -66 -25 -117t-48 -91t-64 -60
q-36 -21 -75 -21zM110 559l64 62h10l64 -62l-64 -63h-10zM245 375h-10l-56 54l-55 -54h-10l-67 65l67 66h10l55 -55l56 55h10l66 -66z" />
    <glyph glyph-name="uniFB8D" unicode="&#x691;" horiz-adv-x="394" arabic-form="final" 
d="M50 -255l2 -1q-44 0 -81 19q-38 20 -69 52v68l8 7q59 -25 112 -25q38 0 69 16q31 17 54 45t36 69q14 42 14 90q0 31 -10 78q-11 54 -31 121l5 5h83l20 -80q10 -47 41 -67q29 -19 92 -19v-99l-23 -24q-70 0 -108 35l-2 -1q-6 -66 -25 -117t-48 -91t-64 -60
q-36 -21 -75 -21zM91 414l11 20v180h47v-115q35 35 75 35q35 0 57 -25t22 -66q0 -42 -27 -66t-69 -24h-153v61h37zM218 415h-2q18 0 30 6t12 17q0 14 -12 23t-31 9q-25 0 -46 -15t-34 -40h83z" />
    <glyph glyph-name="uniFB8F" unicode="&#x6a9;" horiz-adv-x="935" arabic-form="final" 
d="M333 -10l-2 -2q-79 0 -135 12q-55 12 -91 39q-35 26 -52 69q-16 41 -16 101q0 31 6 65q7 39 16 72h71v-9q-14 -58 -14 -93q0 -66 56 -95t183 -29q83 0 161 15q79 15 146 45l-162 228v122l419 223h9v-108l-343 -180l179 -247q21 -29 37 -45q18 -18 36 -30q17 -11 37 -16
q22 -5 42 -5h18v-99l-23 -24q-27 0 -54 5q-25 5 -47 18q-22 14 -45 36q-25 25 -50 57h-4q-76 -65 -174 -95q-99 -30 -204 -30z" />
    <glyph glyph-name="uniFB90" unicode="&#x6a9;" horiz-adv-x="442" arabic-form="initial" 
d="M137 473l54 -45q42 -38 72 -69t48 -60q19 -30 26 -57q8 -30 8 -60q0 -85 -48 -133t-136 -48h-184v100l23 23h166q55 0 82 13q28 13 28 42q0 14 -4 23q-6 13 -13 23q-8 11 -26 27q-17 15 -42 36l-155 122v122l427 223h9v-108z" />
    <glyph glyph-name="uniFB91" unicode="&#x6a9;" horiz-adv-x="472" arabic-form="medial" 
d="M0 123h82q57 0 83 13q27 14 36 45l-163 229v122l426 223h9v-108l-350 -180l179 -247q21 -29 37 -45q18 -18 36 -30q17 -11 37 -16q22 -5 42 -5h18v-99l-23 -24q-27 0 -55 5q-26 4 -48 18q-21 13 -46 36q-24 22 -51 57l-3 -1q-14 -57 -55 -86q-42 -30 -108 -30h-106v100z
" />
    <glyph glyph-name="uniFB93" unicode="&#x6af;" horiz-adv-x="935" arabic-form="final" 
d="M333 -10l-2 -2q-79 0 -135 12q-55 12 -91 39q-35 26 -52 69q-16 41 -16 101q0 31 6 65q7 39 16 72h71v-9q-14 -58 -14 -93q0 -66 56 -95t183 -29q83 0 161 15q79 15 146 45l-162 228v122l419 223h9v-108l-343 -180l179 -247q21 -29 37 -45q18 -18 36 -30q17 -11 37 -16
q22 -5 42 -5h18v-99l-23 -24q-27 0 -54 5q-25 5 -47 18q-22 14 -45 36q-25 25 -50 57h-4q-76 -65 -174 -95q-99 -30 -204 -30zM500 638l428 222h8v-55l-428 -223h-8v56z" />
    <glyph glyph-name="uniFB94" unicode="&#x6af;" horiz-adv-x="442" arabic-form="initial" 
d="M137 473l54 -45q42 -38 72 -69t48 -60q19 -30 26 -57q8 -30 8 -60q0 -85 -48 -133t-136 -48h-184v100l23 23h166q55 0 82 13q28 13 28 42q0 14 -4 23q-6 13 -13 23q-8 11 -26 27q-17 15 -42 36l-155 122v122l427 223h9v-108zM36 643l428 222h8v-55l-428 -223h-8v56z" />
    <glyph glyph-name="uniFB95" unicode="&#x6af;" horiz-adv-x="472" arabic-form="medial" 
d="M0 123h82q57 0 83 13q27 14 36 45l-163 229v122l426 223h9v-108l-350 -180l179 -247q21 -29 37 -45q18 -18 36 -30q17 -11 37 -16q22 -5 42 -5h18v-99l-23 -24q-27 0 -55 5q-26 4 -48 18q-21 13 -46 36q-24 22 -51 57l-3 -1q-14 -57 -55 -86q-42 -30 -108 -30h-106v100z
M38 640l428 222h8v-55l-428 -223h-8v56z" />
    <glyph glyph-name="uniFB9F" unicode="&#x6ba;" horiz-adv-x="743" arabic-form="final" 
d="M330 -240l-3 -1q-67 0 -121 18t-91 52t-58 85t-21 117q0 40 6 85q6 43 17 83h70v-9q-17 -65 -17 -121q0 -87 59 -132t158 -45q108 0 160 41q51 41 51 128q0 10 -2 36q-2 19 -6 45t-12 60q-10 47 -19 81l5 5h83l19 -80q10 -47 41 -67q29 -19 92 -19h1v-99l-23 -24h-1
q-70 0 -108 38l-3 -1q-6 -132 -78 -204t-199 -72z" />
    <glyph glyph-name="uniFBA7" unicode="&#x6c1;" horiz-adv-x="583" arabic-form="final" 
d="M563 0l-3 -1q-32 0 -56 6q-25 6 -42 22q-19 17 -33 43q-14 25 -28 69l-16 52q-8 29 -21 41q-14 12 -39 12q-36 0 -108 -32q-67 -30 -186 -101h-8v112q125 77 202 110q82 35 131 35q43 0 65 -25q23 -25 36 -75l15 -52q7 -25 17 -46q8 -16 20 -28q11 -10 24 -15
q12 -4 30 -4h20v-103z" />
    <glyph glyph-name="uniFBA8" unicode="&#x6c1;" horiz-adv-x="502" arabic-form="initial" 
d="M449 319v-4q6 -42 8 -58q3 -29 3 -51q0 -113 -43 -165q-44 -53 -135 -53q-120 0 -157 88q-26 -42 -61 -59q-36 -18 -88 -18v100l23 23q32 0 59 6q25 6 49 20q-3 26 -3 57v55h76v-50q0 -50 24 -73q23 -22 80 -22q50 0 72 21q23 21 23 67q0 17 -3 45q-2 23 -11 66l5 5h79z
M60 -194h-1q0 15 3 30t12 33q11 21 22 39q5 7 15 24t16 26h55v-8q-30 -53 -41 -74q-12 -24 -12 -38q0 -13 12 -19t41 -6v-84q-20 -3 -36 -3q-48 0 -67 24q-19 23 -19 56z" />
    <glyph glyph-name="uniFBA9" unicode="&#x6c1;" horiz-adv-x="480" arabic-form="medial" 
d="M480 22l-21 -23h-41q-42 0 -59 -15t-17 -52v-118l-92 -76l-59 66q-94 103 -94 195q0 30 7 52l-2 2q-29 -29 -58 -42t-67 -13v100l23 23q43 0 76 18q34 19 71 63l32 38l51 -41l-22 -30q-37 -52 -37 -102q0 -78 99 -177l7 -8v70q0 45 8 80q8 34 25 53q19 20 45 29
q27 9 68 9h57v-101z" />
    <glyph glyph-name="uniFBAB" unicode="&#x6be;" horiz-adv-x="581" arabic-form="final" 
d="M371 -238l-5 -1q-52 0 -92 17q-38 16 -67 48q-28 31 -43 75q-16 45 -20 98q-29 2 -56 6q-26 4 -61 15v99h125q11 53 34 103q23 48 56 91q32 41 69 65t75 24q25 0 45 -10q21 -10 36 -27q15 -16 24 -41q9 -24 9 -52q0 -48 -18 -86q-18 -37 -53 -63v-3h152v-100l-20 -23h-45
l-2 -2q19 -28 19 -69q0 -36 -12 -66t-34 -52t-52 -34t-64 -12zM238 122v1q86 0 132 27q47 27 47 76q0 25 -16 41q-17 17 -39 17t-45 -12t-42 -33t-36 -51q-16 -28 -25 -66h24zM367 -119v-1q41 0 66 16q26 17 26 45q0 31 -33 51q-34 20 -93 20q-29 0 -60 -3q-39 -4 -61 -7
q11 -57 50 -89q40 -32 105 -32z" />
    <glyph glyph-name="uniFBAC" unicode="&#x6be;" horiz-adv-x="615" arabic-form="initial" 
d="M352 414v-6q67 -30 108 -55q45 -28 69 -55q25 -28 36 -60q11 -33 11 -70q0 -42 -13 -74q-13 -33 -39 -57q-27 -25 -61 -38q-35 -13 -81 -13q-48 0 -97 11q-47 11 -87 30q-34 -13 -74 -21q-42 -8 -82 -8h-65v100l23 23h84q-40 53 -40 117q0 28 9 57t24 54q13 23 35 46
q21 22 42 35v62l5 4zM205 333q-19 0 -36 -6q-15 -6 -30 -17q-14 -11 -21 -25t-7 -31q0 -37 36 -70q37 -34 98 -53q70 25 70 90q0 22 -9 43t-24 36t-35 24q-19 9 -42 9zM400 107q54 0 80 14t26 39q0 14 -6 27q-6 14 -19 27q-13 14 -36 27q-21 13 -59 30l-2 -1v-7
q0 -43 -15 -82t-43 -70l36 -3q12 -1 38 -1z" />
    <glyph glyph-name="uniFBAD" unicode="&#x6be;" horiz-adv-x="480" arabic-form="medial" 
d="M270 -238l-5 -1q-52 0 -92 17q-38 16 -67 48q-28 31 -43 75q-16 45 -20 96h-69v100l23 23h52q10 50 35 103q23 48 56 91q32 41 69 65t75 24q25 0 45 -10q21 -11 36 -27t24 -41q9 -24 9 -52q0 -49 -18 -86t-54 -63v-3h153v-100l-21 -23h-44l-2 -2q18 -27 18 -70
q0 -36 -12 -66t-34 -52t-51 -34t-63 -12zM137 122v1q85 0 132 27t47 76q0 25 -16 41q-17 17 -40 17q-20 0 -43 -12q-21 -11 -43 -33q-20 -20 -37 -51q-16 -28 -25 -66h25zM266 -119l1 -1q41 0 66 16q26 17 26 45q0 31 -33 51q-34 20 -93 20q-29 0 -60 -3q-42 -4 -63 -7
q12 -58 51 -89q40 -32 105 -32z" />
    <glyph glyph-name="uniFBAF" unicode="&#x6d2;" horiz-adv-x="845" arabic-form="final" 
d="M423 -230v-1q-115 0 -185 7q-77 8 -121 22q-46 15 -67 39t-21 59q0 48 23 91q22 42 63 72q41 31 95 47q56 17 119 17h515v-100l-22 -23h-493q-66 0 -111 -6q-47 -6 -72 -16q-28 -11 -39 -22q-12 -12 -12 -22t18 -18q16 -7 57 -13q39 -6 101 -9q61 -3 150 -3q68 0 105 1
q72 2 108 4q58 3 101 6q46 3 82 6h7v-102q-34 -8 -77 -14q-57 -7 -101 -11q-70 -6 -112 -8q-58 -3 -111 -3z" />
    <glyph glyph-name="uniFBB1" unicode="&#x6d3;" horiz-adv-x="845" arabic-form="final" 
d="M423 -230v-1q-115 0 -185 7q-77 8 -121 22q-46 15 -67 39t-21 59q0 48 23 91q22 42 63 72q41 31 95 47q56 17 119 17h515v-100l-22 -23h-493q-66 0 -111 -6q-47 -6 -72 -16q-28 -11 -39 -22q-12 -12 -12 -22t18 -18q16 -7 57 -13q39 -6 101 -9q61 -3 150 -3q68 0 105 1
q72 2 108 4q58 3 101 6q46 3 82 6h7v-102q-34 -8 -77 -14q-57 -7 -101 -11q-70 -6 -112 -8q-58 -3 -111 -3zM257 248q-10 19 -10 41q0 23 9 41t23 32q13 14 33 21q21 8 42 8q65 0 65 -68v-27h-42v7q0 26 -33 26q-22 0 -39 -11q-16 -10 -16 -26q0 -13 10 -23q11 -11 27 -21
h108v-61h-208v61h31z" />
    <glyph glyph-name="uniFBFD" unicode="&#x6cc;" horiz-adv-x="742" arabic-form="final" 
d="M390 -240l2 -3q-174 0 -262 75t-88 228q0 48 6 94q6 49 16 81h69v-8q-7 -31 -12 -69q-4 -33 -4 -72q0 -100 69 -147q70 -47 215 -47q52 0 102 5q43 4 77 14q32 9 48 21q17 12 17 27q0 13 -7 20q-8 9 -25 14q-18 6 -51 12q-52 9 -82 14l-77 12v117l4 5l74 -11
q67 -10 135 -15q75 -5 125 -5v-99l-20 -21h-9q2 -8 2 -11v-11q0 -53 -22 -93q-23 -41 -64 -69t-102 -43q-60 -15 -136 -15z" />
    <glyph glyph-name="uniFBFE" unicode="&#x6cc;" horiz-adv-x="237" arabic-form="initial" 
d="M-3 123l21 1q50 0 72 18q23 18 23 59q0 29 -6 74q-5 37 -17 99l4 5h84q7 -47 12 -92q5 -48 5 -78q0 -107 -42 -158t-133 -51h-43v100zM152 -215h-10l-56 54l-55 -54h-10l-67 65l67 66h10l55 -55l56 55h10l66 -66z" />
    <glyph glyph-name="uniFBFF" unicode="&#x6cc;" horiz-adv-x="294" arabic-form="medial" 
d="M0 123v-2q32 0 59 6q25 6 49 20q-3 25 -3 57v115h76v-110q0 -50 26 -68q25 -18 86 -18h1v-100l-23 -23h-1q-110 0 -144 79q-48 -79 -149 -79v100zM202 -218h-10l-56 54l-55 -54h-10l-67 65l67 66h10l55 -55l56 55h10l66 -66z" />
    <glyph glyph-name="uniFDF4" unicode="&#xfdf4;" horiz-adv-x="966" arabic-form="isolated" 
d="M186 -6l-3 -7q-86 0 -123 31q-38 32 -38 108v49h65v-16q0 -29 27 -39q26 -10 93 -10q49 0 83 6t62 20l-106 335v8h97l112 -352q14 -40 25 -61t29 -39l2 2q-1 1 -1 5v4q0 47 42 83q43 37 119 71l12 5v3h-199v82q0 59 45 110q46 52 141 86v47q0 14 6 26t17 20q12 8 24 11
q15 3 29 -1l79 -20q23 -6 30 -16q8 -11 8 -33v-89l-103 -22q-78 -17 -126 -36q-48 -20 -76 -46h378v-128l-106 -27q-122 -32 -186 -60q-65 -29 -65 -51q0 -21 24 -31t77 -18l42 -6l-15 -122l-152 21q-65 9 -108 50q-41 40 -73 126q-29 -41 -73 -60t-115 -19z" />
    <glyph glyph-name="uniFDFA" unicode="&#xfdfa;" horiz-adv-x="1077" arabic-form="isolated" 
d="M699 259l-11 -5q-50 0 -67 29q-17 -29 -57 -29h-39v-149q0 -16 5 -24q4 -7 26 -7q25 0 31 6t6 19v24h45v-22v-14q0 -8 -1 -13q13 -3 28 -3q20 0 24 7q5 8 5 21v24h45v-22v-14v-12q12 -3 24 -3q13 0 18 3q4 3 4 14q0 15 -1 26q-2 18 -3 29l2 4h47q4 -22 5 -33q2 -22 2 -24
q0 -53 -18 -75t-56 -22q-24 0 -44 16q-15 -16 -42 -16q-37 0 -61 21q-20 -18 -57 -18q-31 0 -48 7q-18 8 -27 21q-22 -30 -64 -30q-28 0 -43 12t-28 40l-6 -51l-60 9q-17 2 -32 6q-16 5 -26 12q-20 -26 -57 -26h-125v79h134h10q3 0 9 2v9q0 23 10 42q11 20 27 35t41 24
q24 9 51 9q16 0 21 -11l25 -65q11 -27 22 -35q12 -9 41 -9q16 0 38 5v14v161h-227q-32 0 -49 16q-19 17 -26 39h-2q-7 -20 -24 -31q-16 -10 -36 -10q-32 0 -50 19q-18 20 -18 48q0 29 21 53t59 41l46 20v38h59v-119q0 -13 6 -24q6 -10 31 -10h215v152h58v-152h52q10 0 15 1
l15 3v20v78h50v-67q0 -22 9 -28t41 -6q12 0 30 5v14v227h57v-215q0 -17 6 -24t30 -7h21q-1 3 -3 12q-2 12 -2 17q0 19 8 38t21 32q15 15 30 23q17 9 35 9q44 0 66 -21v-75h-5q-14 8 -31 12q-20 5 -39 5q-23 0 -38 -6t-15 -19q0 -8 11 -16q10 -7 29 -12q30 1 56 5q9 1 47 8h4
v-70q-23 -8 -78 -15q-52 -7 -135 -7q-24 0 -40 8q-14 7 -22 21q-10 -16 -25 -22t-36 -6zM676 606v-3q-47 0 -63 25q-9 -13 -23 -18q4 -5 4 -14q0 -46 -30 -66q-31 -20 -102 -20h-422v79l440 -1q45 0 63 3t18 8q0 4 -7 7q-6 2 -27 4l-27 2v76l2 2l22 -2q19 -3 32 -3h23h11
q5 0 11 2v17v218h58v-206q0 -18 6 -25t29 -7q8 0 14 1q12 2 17 4v2v41h52v-29q0 -10 8 -15l39 47q32 41 60 60q29 20 63 20q16 0 32 -8q15 -7 27 -21q11 -13 19 -31q7 -17 7 -39q0 -48 -28 -79t-73 -31h-106q-31 0 -54 6q-21 6 -34 23q-20 -29 -61 -29zM242 619l-2 -3
q-35 -2 -53 17q-19 19 -26 42h-1q-8 -19 -24 -30q-16 -10 -39 -10q-32 0 -50 19q-18 20 -18 48q0 30 21 54t59 39l46 20v39h59v-123q0 -8 1 -12q1 -6 6 -12t12 -9t21 -3q9 0 18 3q14 4 16 5q-1 3 -1 13v119h58v-107q0 -14 6 -23t32 -9q18 0 24 8t6 15v199h57v-204
q0 -44 -21 -69q-21 -26 -67 -26q-33 0 -53 7t-31 27q-4 -15 -17 -24q-11 -8 -39 -10zM913 -74l-5 -6q-23 0 -44 8q-19 7 -36 23v48l4 3q20 -5 40 -6q28 -2 38 -2q32 0 53 12q20 12 28 33l-1 1q-26 -14 -60 -14q-38 0 -60 21t-22 58q0 25 7 45q8 23 19 38q12 16 27 27
q14 10 33 10q18 2 35 -9t30 -31q14 -21 21 -49q8 -30 8 -63q0 -31 -9 -58q-9 -26 -24 -46q-14 -19 -36 -31q-21 -12 -46 -12zM501 910h58v-205h-58v205zM677 754l300 134h5v-27l-300 -135h-5v28zM814 672h12h129q13 0 24 6t11 17q0 14 -16 21q-18 8 -42 8q-37 0 -60 -10
q-24 -10 -48 -30l-10 -8v-4zM624 449l-1 -1q-19 0 -31 12t-12 29q0 23 12 39t31 16q20 0 32 -16t12 -36q0 -19 -12 -31t-31 -12zM53 135l197 88h5v-27l-197 -88h-5v27zM551 149l167 74h5v-27l-167 -75h-5v28zM805 462l162 73h5v-28l-162 -72h-5v27zM697 791q-28 0 -28 37v20
h18v-14q0 -10 11 -10q12 0 12 18v23h20v-22q10 -2 12 -2q11 0 11 14q0 6 -5 24h19q1 -5 3 -12q2 -10 2 -14q0 -24 -7 -34t-21 -10q-10 0 -18 5q-6 -23 -29 -23zM342 338v-1q-28 0 -28 37v20h18v-14q0 -10 11 -10q12 0 12 18v23h21v-22q8 -2 11 -2q12 0 12 14q0 10 -6 25h19
q2 -4 3 -12q2 -10 2 -14q0 -24 -7 -34t-21 -10q-10 0 -18 5q-6 -23 -29 -23zM274 844v1q-28 0 -28 37v20h18v-14q0 -10 11 -10q12 0 12 18v22h20v-21q10 -2 12 -2q11 0 11 14q0 6 -5 24h19q5 -15 5 -27q0 -24 -7 -34t-21 -10q-10 0 -18 5q-6 -23 -29 -23zM249 414l148 65h5
v-27l-148 -66h-5v28zM382 123v3l30 30l-30 31v3l32 32l31 -32v-3l-30 -31l30 -30v-3l-32 -32zM217 88h-2q0 -8 10 -12q9 -4 30 -7l67 -9l-13 32q-4 10 -12 13q-7 3 -21 3q-26 0 -42 -6q-17 -6 -17 -14zM97 707h-1q10 0 24 3q11 2 24 8v42l-36 -7q-21 -3 -33 -10
q-13 -7 -13 -18q0 -18 35 -18zM96 333v-1q8 0 21 3q9 2 27 8v41l-36 -6q-22 -3 -34 -10q-13 -7 -13 -18q0 -8 9 -13q8 -4 26 -4zM931 101v2q14 0 21 1l21 3q-9 17 -24 27q-16 11 -35 11t-30 -7q-12 -8 -12 -18t14 -15q12 -4 45 -4zM620 480h-2q26 0 26 14q0 8 -7 12
q-8 5 -18 5t-18 -5q-7 -4 -7 -12q0 -14 26 -14z" />
    <glyph glyph-name="uniFDFB" unicode="&#xfdfb;" horiz-adv-x="2780" arabic-form="isolated" 
d="M862 -10l-6 5q-37 0 -84 5q-42 4 -93 18v99h177h12l-124 508v9h99l122 -506q29 7 57 20q24 11 45 29q-1 7 -1 21v21v529h92v-516q0 -58 24 -82t87 -24h66q51 0 90 3q40 3 74 12q32 8 66 23q31 14 69 36l57 34v3l-208 47q-25 6 -40 9q-3 1 -13 2.5t-14 2.5q-14 2 -18 2
h-13q-42 0 -42 -44v-19h-64v94q0 47 21 68t63 21q25 0 54 -7q31 -7 90 -21l163 -39q4 -1 43 -10q19 -5 36 -6l33 -3q11 -1 36 -1h20v-113h-72l-125 -100l-49 -38v-11q0 -83 51 -129q50 -46 144 -46q105 0 152 48q47 49 47 153v650h92v-510q0 -32 6 -53t19 -34t36 -19t54 -6
h63q51 0 90 3q40 3 74 12q32 8 66 23q32 13 69 36l57 34v3l-208 47q-25 6 -40 9q-3 1 -13 2.5t-14 2.5q-14 2 -18 2h-13q-42 0 -42 -44v-19h-64v94q0 47 21 68t63 21q25 0 54 -7q32 -8 90 -21l163 -39q4 -1 43 -10q20 -4 36 -6l33 -3q11 -1 36 -1h20v-113h-72l-125 -100
q-44 -37 -80 -59q-37 -23 -70 -36q-34 -14 -72 -18q-42 -5 -84 -5h-83q-76 0 -114 44l-1 -1q-10 -135 -80 -209q-69 -74 -190 -74q-64 0 -115 18q-50 18 -87 53q-36 34 -54 86t-17 116q-41 -20 -81 -27q-38 -7 -96 -7h-86q-128 0 -165 103q-37 -55 -93 -84t-132 -29zM462 5
h-3q-62 0 -102 29q-38 28 -52 90h-3q-24 -41 -60 -61q-35 -19 -82 -19q-32 0 -60 11t-47 30t-30 45q-11 27 -11 57q0 60 44 109q44 48 120 90l121 67v68h85v-295q0 -53 20 -76q19 -22 68 -22q42 0 65 20t23 62v541h92v-544q0 -103 -48 -153q-48 -49 -140 -49zM1267 525
l601 262h9v-61l-601 -262h-9v61zM47 521l110 43v3q-23 8 -33 22t-10 36q0 20 6 38q6 19 18 32q13 15 27 23q15 9 32 9q33 0 56 -29t23 -72q0 -42 -32 -72q-30 -29 -107 -61l-81 -33h-9v61zM2188 524l451 197h9v-61l-451 -197h-9v61zM173 167l1 1q33 0 67 8q30 7 58 26v14
v149l-95 -42q-64 -29 -90 -52q-27 -24 -27 -52q0 -25 23 -39q22 -13 63 -13zM1829 501v-1q-26 0 -45 11q-16 -61 -75 -61q-31 0 -48 18q-16 17 -16 50q0 6 2 26q1 15 6 27h40v-8q-4 -9 -4 -21q0 -26 25 -26q20 0 27 13t7 45v42h44v-37v-9q9 -4 27 -4q31 0 31 28q0 8 -3 21
q-5 22 -7 29v9h45q8 -37 8 -64q0 -40 -15 -64t-49 -24zM1322 -110l67 65h10l67 -65l-67 -66h-10zM2241 -110l67 65h10l67 -65l-67 -66h-10zM221 595l1 -2q16 15 16 31q0 17 -12 29t-28 12q-17 0 -29 -12t-12 -25q0 -26 64 -33z" />
    <glyph glyph-name="uniFE82" unicode="&#x622;" horiz-adv-x="273" arabic-form="final" 
d="M249 0h1q-93 0 -135 50q-42 49 -42 158v424h92v-419q0 -48 25 -69t82 -21h1v-100l-23 -23h-1zM-7 741h-2q24 30 71 30q13 0 28 -3q20 -4 31 -6l35 -7q15 -3 29 -3q17 0 30 3q12 3 21 8h10v-52q-12 -9 -28 -15q-17 -6 -34 -6q-16 0 -31 3q-20 4 -31 7q-42 9 -59 9
q-18 0 -36 -5q-16 -4 -25 -15h-9v52z" />
    <glyph glyph-name="uniFE84" unicode="&#x623;" horiz-adv-x="273" arabic-form="final" 
d="M249 0h1q-93 0 -135 50q-42 49 -42 158v424h92v-419q0 -48 25 -69t82 -21h1v-100l-23 -23h-1zM48 757q-10 19 -10 41q0 23 9 41t23 32q14 13 33 21q21 8 42 8q65 0 65 -68v-27h-42v7q0 26 -33 26q-22 0 -39 -11q-16 -10 -16 -26q0 -13 10 -23t27 -21h108v-61h-208v61h31z
" />
    <glyph glyph-name="uniFE86" unicode="&#x624;" horiz-adv-x="450" arabic-form="final" 
d="M158 -255l2 -4q-50 0 -91 19q-42 20 -79 52v68l8 7q74 -25 138 -25q71 0 124 35q52 34 70 99h-113q-89 0 -135 39t-46 117q0 44 15 88q15 45 40 78q26 35 59 56t72 21q38 0 71 -21t57 -57t39 -87q16 -53 20 -109h43v-99l-23 -24h-27q-10 -56 -33 -102t-54 -81
q-31 -34 -72 -52t-85 -18zM333 119l-2 -3q-6 32 -18 60t-30 49t-40 33q-23 12 -48 12q-21 0 -38 -9t-29 -24t-18 -32t-6 -32q0 -30 29 -42t89 -12h111zM137 517q-10 19 -10 41q0 23 9 41t23 32q13 13 33 21q21 8 42 8q65 0 65 -68v-27h-42v7q0 26 -33 26q-22 0 -39 -11
q-16 -10 -16 -26q0 -13 10 -23q11 -10 27 -21h108v-61h-208v61h31z" />
    <glyph glyph-name="uniFE88" unicode="&#x625;" horiz-adv-x="273" arabic-form="final" 
d="M249 0l1 -1q-93 0 -135 50q-42 49 -42 159v536h92v-531q0 -48 25 -69t82 -21h1v-100l-23 -23h-1zM45 -202q-10 19 -10 41q0 23 9 41t23 32q13 14 33 21q21 8 42 8q65 0 65 -68v-27h-42v7q0 26 -33 26q-22 0 -39 -11q-16 -10 -16 -26q0 -13 10 -23q11 -11 27 -21h108v-61
h-208v61h31z" />
    <glyph glyph-name="uniFE8A" unicode="&#x626;" horiz-adv-x="742" arabic-form="final" 
d="M390 -240l2 -3q-174 0 -262 75t-88 228q0 48 6 94q6 49 16 81h69v-8q-7 -31 -12 -69q-4 -33 -4 -72q0 -100 69 -147q70 -47 215 -47q52 0 102 5q43 4 77 14q32 9 48 21q17 12 17 27q0 13 -7 20q-8 9 -25 14q-18 6 -51 12q-52 9 -82 14l-77 12v117l4 5l74 -11
q67 -10 135 -15q75 -5 125 -5v-99l-20 -21h-9q2 -8 2 -11v-11q0 -53 -22 -93q-23 -41 -64 -69t-102 -43q-60 -15 -136 -15zM26 360q-10 19 -10 41q0 23 9 41t23 32t33 21q21 8 42 8q65 0 65 -68v-27h-42v7q0 26 -33 26q-22 0 -39 -11q-16 -10 -16 -26q0 -13 10 -23
q10 -11 27 -21h108v-61h-208v61h31z" />
    <glyph glyph-name="uniFE8B" unicode="&#x626;" horiz-adv-x="237" arabic-form="initial" 
d="M-3 123l21 1q50 0 72 18q23 18 23 59q0 29 -6 74q-5 37 -17 99l4 5h84q7 -47 12 -92q5 -48 5 -78q0 -107 -42 -158t-133 -51h-43v100zM48 506q-10 19 -10 41q0 23 9 41t23 32t33 21q21 8 42 8q65 0 65 -68v-27h-42v7q0 26 -33 26q-22 0 -39 -11q-16 -10 -16 -26
q0 -13 10 -23q10 -11 27 -21h108v-61h-208v61h31z" />
    <glyph glyph-name="uniFE8C" unicode="&#x626;" horiz-adv-x="294" arabic-form="medial" 
d="M0 123v-2q32 0 59 6q25 6 49 20q-3 25 -3 57v115h76v-110q0 -50 26 -68q25 -18 86 -18h1v-100l-23 -23h-1q-110 0 -144 79q-48 -79 -149 -79v100zM70 443q-10 19 -10 41q0 23 9 41t23 32q14 13 33 21q21 8 42 8q65 0 65 -68v-27h-42v7q0 26 -33 26q-22 0 -39 -11
q-16 -10 -16 -26q0 -13 10 -23t27 -21h108v-61h-208v61h31z" />
    <glyph glyph-name="uniFE8E" unicode="&#x627;" horiz-adv-x="273" arabic-form="final" 
d="M249 0l1 -1q-93 0 -135 50q-42 49 -42 159v536h92v-531q0 -48 25 -69t82 -21h1v-100l-23 -23h-1z" />
    <glyph glyph-name="uniFE90" unicode="&#x628;" horiz-adv-x="906" arabic-form="final" 
d="M780 141l-3 4q28 -10 59 -15q27 -4 67 -4v-99l-22 -24q-55 0 -104 17q-48 16 -96 57q-78 -43 -165 -66q-85 -22 -178 -22q-81 0 -138 12t-93 39q-37 28 -53 69q-17 43 -17 102q0 31 6 65q7 39 16 72h71v-9q-14 -58 -14 -93q0 -66 57 -95q58 -29 189 -29q122 0 233 36
t200 101h9v-98l-12 -10zM409 -81l66 -66l-66 -65h-10l-67 65l67 66h10z" />
    <glyph glyph-name="uniFE91" unicode="&#x628;" horiz-adv-x="237" arabic-form="initial" 
d="M-3 123l21 1q50 0 72 18q23 18 23 59q0 29 -6 74q-5 37 -17 99l4 5h84q7 -47 12 -92q5 -48 5 -78q0 -107 -42 -158t-133 -51h-43v100zM90 -84l66 -66l-66 -65h-10l-67 65l67 66h10z" />
    <glyph glyph-name="uniFE92" unicode="&#x628;" horiz-adv-x="294" arabic-form="medial" 
d="M0 123v-2q32 0 59 6q25 6 49 20q-3 25 -3 57v115h76v-110q0 -50 26 -68q25 -18 86 -18h1v-100l-23 -23h-1q-110 0 -144 79q-48 -79 -149 -79v100zM141 -87l66 -66l-66 -65h-10l-67 65l67 66h10z" />
    <glyph glyph-name="uniFE94" unicode="&#x629;" horiz-adv-x="503" arabic-form="final" 
d="M481 0l-2 1q-70 1 -108 29q-37 27 -51 89h-3q-24 -41 -60 -61q-35 -19 -84 -19q-32 0 -60 11q-26 10 -46 30q-19 20 -30 45q-11 27 -11 57q0 60 44 109q44 48 120 90l122 67v68h84v-295q0 -53 23 -76q22 -22 84 -22v-100zM185 162v1q74 0 126 35v162l-96 -42
q-64 -30 -89 -52q-27 -24 -27 -52q0 -25 23 -39q22 -13 63 -13zM310 576h-10l-56 54l-55 -54h-10l-67 65l67 66h10l55 -55l56 55h10l66 -66z" />
    <glyph glyph-name="uniFE96" unicode="&#x62a;" horiz-adv-x="906" arabic-form="final" 
d="M780 141l-3 4q28 -10 59 -15q27 -4 67 -4v-99l-22 -24q-55 0 -104 17q-48 16 -96 57q-78 -43 -165 -66q-85 -22 -178 -22q-81 0 -138 12t-93 39q-37 28 -53 69q-17 43 -17 102q0 31 6 65q7 39 16 72h71v-9q-14 -58 -14 -93q0 -66 57 -95q58 -29 189 -29q122 0 233 36
t200 101h9v-98l-12 -10zM469 350h-10l-56 54l-55 -54h-10l-67 65l67 66h10l55 -55l56 55h10l66 -66z" />
    <glyph glyph-name="uniFE97" unicode="&#x62a;" horiz-adv-x="237" arabic-form="initial" 
d="M-3 123l21 1q50 0 72 18q23 18 23 59q0 29 -6 74q-5 37 -17 99l4 5h84q7 -47 12 -92q5 -48 5 -78q0 -107 -42 -158t-133 -51h-43v100zM186 467h-10l-56 54l-55 -54h-10l-67 65l67 66h10l55 -55l56 55h10l66 -66z" />
    <glyph glyph-name="uniFE98" unicode="&#x62a;" horiz-adv-x="294" arabic-form="medial" 
d="M0 123v-2q32 0 59 6q25 6 49 20q-3 25 -3 57v115h76v-110q0 -50 26 -68q25 -18 86 -18h1v-100l-23 -23h-1q-110 0 -144 79q-48 -79 -149 -79v100zM209 404h-10l-56 54l-55 -54h-10l-67 65l67 66h10l55 -55l56 55h10l66 -66z" />
    <glyph glyph-name="uniFE9A" unicode="&#x62b;" horiz-adv-x="906" arabic-form="final" 
d="M780 141l-3 4q28 -10 59 -15q27 -4 67 -4v-99l-22 -24q-55 0 -104 17q-48 16 -96 57q-78 -43 -165 -66q-85 -22 -178 -22q-81 0 -138 12t-93 39q-37 28 -53 69q-17 43 -17 102q0 31 6 65q7 39 16 72h71v-9q-14 -58 -14 -93q0 -66 57 -95q58 -29 189 -29q122 0 233 36
t200 101h9v-98l-12 -10zM334 534l64 62h10l64 -62l-64 -63h-10zM469 350h-10l-56 54l-55 -54h-10l-67 65l67 66h10l55 -55l56 55h10l66 -66z" />
    <glyph glyph-name="uniFE9B" unicode="&#x62b;" horiz-adv-x="237" arabic-form="initial" 
d="M-3 123l21 1q50 0 72 18q23 18 23 59q0 29 -6 74q-5 37 -17 99l4 5h84q7 -47 12 -92q5 -48 5 -78q0 -107 -42 -158t-133 -51h-43v100zM51 651l64 62h10l64 -62l-64 -63h-10zM186 467h-10l-56 54l-55 -54h-10l-67 65l67 66h10l55 -55l56 55h10l66 -66z" />
    <glyph glyph-name="uniFE9C" unicode="&#x62b;" horiz-adv-x="294" arabic-form="medial" 
d="M0 123v-2q32 0 59 6q25 6 49 20q-3 25 -3 57v115h76v-110q0 -50 26 -68q25 -18 86 -18h1v-100l-23 -23h-1q-110 0 -144 79q-48 -79 -149 -79v100zM74 588l64 62h10l64 -62l-64 -63h-10zM209 404h-10l-56 54l-55 -54h-10l-67 65l67 66h10l55 -55l56 55h10l66 -66z" />
    <glyph glyph-name="uniFE9E" unicode="&#x62c;" horiz-adv-x="683" arabic-form="final" 
d="M683 23l-23 -28h-33q-87 0 -126 49q-39 50 -39 156v69l-50 -18q-141 -47 -220 -113q-78 -64 -78 -153q0 -40 18 -73q18 -32 53 -57q33 -23 84 -37q48 -13 113 -13q68 0 126 13q59 13 112 36h9v-99q-47 -39 -117 -60t-150 -21q-74 0 -136 20q-59 19 -102 56t-65 87
q-23 52 -23 114q0 120 87 210q86 89 261 163l22 9v4l-225 10q-25 1 -37 -6t-12 -39v-17h-64v104q0 46 23 66q23 19 84 15l278 -26q24 -1 43 -3q24 -2 34 -2l32 -1h36h13v-117l-75 -25v-87q0 -50 27 -68t88 -18h32v-100zM326 72l66 -66l-66 -65h-10l-67 65l67 66h10z" />
    <glyph glyph-name="uniFE9F" unicode="&#x62c;" horiz-adv-x="633" arabic-form="initial" 
d="M533 219l-129 -99q-44 -37 -80 -59q-37 -23 -70 -36q-34 -13 -72 -18q-42 -5 -84 -5h-124v100l23 23h103q51 0 90 3q40 3 74 12q32 8 66 23q32 13 69 36l57 34v3l-208 47q-25 6 -40 9q-3 1 -13 2.5t-14 2.5q-14 2 -18 2h-13q-43 0 -43 -44v-19h-63v94q0 47 21 68t63 21
q25 0 54 -7q32 -8 90 -21l164 -39q4 -1 43 -10q19 -4 36 -6l33 -3q11 -1 36 -1h21v-113h-72zM293 -84l66 -66l-66 -65h-10l-67 65l67 66h10z" />
    <glyph glyph-name="uniFEA0" unicode="&#x62c;" horiz-adv-x="651" arabic-form="medial" 
d="M651 23l-29 -22h-1q-85 0 -123 37q-39 38 -39 117v11l-60 -47q-43 -35 -78 -57t-69 -36t-72 -18q-42 -5 -84 -5h-124v100l23 23h103q51 0 90 3q40 3 74 12q32 8 66 23q32 14 69 36l57 34v3l-208 47q-25 6 -40 9q-3 1 -13 2.5t-14 2.5q-14 2 -18 2h-13q-43 0 -43 -44v-19
h-63v94q0 47 21 68t63 21q25 0 54 -7q32 -7 90 -21l164 -39q4 -1 43 -10q19 -5 36 -6l33 -3q11 -1 36 -1h21v-113h-69v-29q0 -19 5 -34q5 -13 18 -21q12 -7 36 -10q23 -3 57 -3h1v-100zM290 -84l66 -66l-66 -65h-10l-67 65l67 66h10z" />
    <glyph glyph-name="uniFEA2" unicode="&#x62d;" horiz-adv-x="683" arabic-form="final" 
d="M683 23l-23 -28h-33q-87 0 -126 49q-39 50 -39 156v69l-50 -18q-141 -47 -220 -113q-78 -64 -78 -153q0 -40 18 -73q18 -32 53 -57q33 -23 84 -37q48 -13 113 -13q68 0 126 13q59 13 112 36h9v-99q-47 -39 -117 -60t-150 -21q-74 0 -136 20q-59 19 -102 56t-65 87
q-23 52 -23 114q0 120 87 210q86 89 261 163l22 9v4l-225 10q-25 1 -37 -6t-12 -39v-17h-64v104q0 46 23 66q23 19 84 15l278 -26q24 -1 43 -3q24 -2 34 -2l32 -1h36h13v-117l-75 -25v-87q0 -50 27 -68t88 -18h32v-100z" />
    <glyph glyph-name="uniFEA3" unicode="&#x62d;" horiz-adv-x="633" arabic-form="initial" 
d="M533 219l-129 -99q-44 -37 -80 -59q-37 -23 -70 -36q-34 -13 -72 -18q-42 -5 -84 -5h-124v100l23 23h103q51 0 90 3q40 3 74 12q32 8 66 23q32 13 69 36l57 34v3l-208 47q-25 6 -40 9q-3 1 -13 2.5t-14 2.5q-14 2 -18 2h-13q-43 0 -43 -44v-19h-63v94q0 47 21 68t63 21
q25 0 54 -7q32 -8 90 -21l164 -39q4 -1 43 -10q19 -4 36 -6l33 -3q11 -1 36 -1h21v-113h-72z" />
    <glyph glyph-name="uniFEA4" unicode="&#x62d;" horiz-adv-x="651" arabic-form="medial" 
d="M651 23l-29 -22h-1q-85 0 -123 37q-39 38 -39 117v11l-60 -47q-43 -35 -78 -57t-69 -36t-72 -18q-42 -5 -84 -5h-124v100l23 23h103q51 0 90 3q40 3 74 12q32 8 66 23q32 14 69 36l57 34v3l-208 47q-25 6 -40 9q-3 1 -13 2.5t-14 2.5q-14 2 -18 2h-13q-43 0 -43 -44v-19
h-63v94q0 47 21 68t63 21q25 0 54 -7q32 -7 90 -21l164 -39q4 -1 43 -10q19 -5 36 -6l33 -3q11 -1 36 -1h21v-113h-69v-29q0 -19 5 -34q5 -13 18 -21q12 -7 36 -10q23 -3 57 -3h1v-100z" />
    <glyph glyph-name="uniFEA6" unicode="&#x62e;" horiz-adv-x="683" arabic-form="final" 
d="M683 23l-23 -28h-33q-87 0 -126 49q-39 50 -39 156v69l-50 -18q-141 -47 -220 -113q-78 -64 -78 -153q0 -40 18 -73q18 -32 53 -57q33 -23 84 -37q48 -13 113 -13q68 0 126 13q59 13 112 36h9v-99q-47 -39 -117 -60t-150 -21q-74 0 -136 20q-59 19 -102 56t-65 87
q-23 52 -23 114q0 120 87 210q86 89 261 163l22 9v4l-225 10q-25 1 -37 -6t-12 -39v-17h-64v104q0 46 23 66q23 19 84 15l278 -26q24 -1 43 -3q24 -2 34 -2l32 -1h36h13v-117l-75 -25v-87q0 -50 27 -68t88 -18h32v-100zM329 684l66 -66l-66 -65h-10l-67 65l67 66h10z" />
    <glyph glyph-name="uniFEA7" unicode="&#x62e;" horiz-adv-x="633" arabic-form="initial" 
d="M533 219l-129 -99q-44 -37 -80 -59q-37 -23 -70 -36q-34 -13 -72 -18q-42 -5 -84 -5h-124v100l23 23h103q51 0 90 3q40 3 74 12q32 8 66 23q32 13 69 36l57 34v3l-208 47q-25 6 -40 9q-3 1 -13 2.5t-14 2.5q-14 2 -18 2h-13q-43 0 -43 -44v-19h-63v94q0 47 21 68t63 21
q25 0 54 -7q32 -8 90 -21l164 -39q4 -1 43 -10q19 -4 36 -6l33 -3q11 -1 36 -1h21v-113h-72zM271 638l66 -66l-66 -65h-10l-67 65l67 66h10z" />
    <glyph glyph-name="uniFEA8" unicode="&#x62e;" horiz-adv-x="651" arabic-form="medial" 
d="M651 23l-29 -22h-1q-85 0 -123 37q-39 38 -39 117v11l-60 -47q-43 -35 -78 -57t-69 -36t-72 -18q-42 -5 -84 -5h-124v100l23 23h103q51 0 90 3q40 3 74 12q32 8 66 23q32 14 69 36l57 34v3l-208 47q-25 6 -40 9q-3 1 -13 2.5t-14 2.5q-14 2 -18 2h-13q-43 0 -43 -44v-19
h-63v94q0 47 21 68t63 21q25 0 54 -7q32 -7 90 -21l164 -39q4 -1 43 -10q19 -5 36 -6l33 -3q11 -1 36 -1h21v-113h-69v-29q0 -19 5 -34q5 -13 18 -21q12 -7 36 -10q23 -3 57 -3h1v-100zM268 638l66 -66l-66 -65h-10l-67 65l67 66h10z" />
    <glyph glyph-name="uniFEAA" unicode="&#x62f;" horiz-adv-x="548" arabic-form="final" 
d="M431 206l-2 1q13 -46 39 -64q25 -18 77 -18v-100l-22 -23q-51 0 -85 18t-60 62q-27 -46 -74 -69q-45 -22 -120 -22q-86 0 -123 31q-38 32 -38 108v49h65v-16q0 -29 27 -39q26 -10 93 -10q48 0 83 6q34 6 62 20q-3 7 -7 21t-7 22l-92 291v8h97z" />
    <glyph glyph-name="uniFEAC" unicode="&#x630;" horiz-adv-x="548" arabic-form="final" 
d="M431 206l-2 1q13 -46 39 -64q25 -18 77 -18v-100l-22 -23q-51 0 -85 18t-60 62q-27 -46 -74 -69q-45 -22 -120 -22q-86 0 -123 31q-38 32 -38 108v49h65v-16q0 -29 27 -39q26 -10 93 -10q48 0 83 6q34 6 62 20q-3 7 -7 21t-7 22l-92 291v8h97zM290 701l66 -66l-66 -65
h-10l-67 65l67 66h10z" />
    <glyph glyph-name="uniFEAE" unicode="&#x631;" horiz-adv-x="394" arabic-form="final" 
d="M50 -255l2 -1q-44 0 -81 19q-38 20 -69 52v68l8 7q59 -25 112 -25q38 0 69 16q31 17 54 45t36 69q14 42 14 90q0 31 -10 78q-11 54 -31 121l5 5h83l20 -80q10 -47 41 -67q29 -19 92 -19v-99l-23 -24q-70 0 -108 35l-2 -1q-6 -66 -25 -117t-48 -91t-64 -60
q-36 -21 -75 -21z" />
    <glyph glyph-name="uniFEB0" unicode="&#x632;" horiz-adv-x="394" arabic-form="final" 
d="M50 -255l2 -1q-44 0 -81 19q-38 20 -69 52v68l8 7q59 -25 112 -25q38 0 69 16q31 17 54 45t36 69q14 42 14 90q0 31 -10 78q-11 54 -31 121l5 5h83l20 -80q10 -47 41 -67q29 -19 92 -19v-99l-23 -24q-70 0 -108 35l-2 -1q-6 -66 -25 -117t-48 -91t-64 -60
q-36 -21 -75 -21zM184 506l66 -66l-66 -65h-10l-67 65l67 66h10z" />
    <glyph glyph-name="uniFEB2" unicode="&#x633;" horiz-adv-x="1195" arabic-form="final" 
d="M330 -240l-2 -2q-67 0 -121 18t-91 52t-58 85t-21 117q0 40 6 85q6 43 17 83h70v-9q-17 -65 -17 -121q0 -87 58 -132q59 -45 156 -45q109 0 161 41q51 40 51 128q0 37 -7 78q-9 50 -25 114l4 5h84l12 -50q12 -53 41 -74q28 -21 86 -21q23 0 35 4q13 4 21 15q8 12 11 28
q3 18 3 44v57h74v-57q0 -42 -6 -75q33 -14 69 -14q19 0 30 4t19 14q7 8 10 27q3 18 3 45v87h74v-87q0 -25 -1 -36l-3 -33q32 -6 57 -8q32 -3 63 -3v-101l-23 -22q-34 0 -69 9t-63 27q-30 -46 -97 -46q-64 0 -106 42q-36 -42 -105 -42q-40 0 -69 9q-28 9 -53 29l-3 -1
q-8 -128 -79 -198t-196 -70z" />
    <glyph glyph-name="uniFEB3" unicode="&#x633;" horiz-adv-x="686" arabic-form="initial" 
d="M293 -10l2 -4q-91 0 -153 53q-43 -43 -129 -43h-34v99l23 24h11q30 0 51 3t33 12q13 9 17 24q5 17 5 39v57h74v-57q0 -14 -2 -36q-1 -11 -5 -33q20 -6 54 -13q29 -6 55 -6t39 4q15 5 24 15q9 11 12 28q3 18 3 44v57h74v-57q0 -42 -6 -75q33 -14 67 -14q31 0 45 14t14 45
q0 18 -1 27q-2 21 -4 30q-5 29 -7 37q-1 5 -4.5 21.5t-5.5 26.5l4 5h80q1 -4 4 -20.5t4 -24.5q4 -27 5 -36q2 -22 3 -32t1 -33q0 -85 -36 -133t-103 -48q-63 0 -105 42q-36 -42 -109 -42z" />
    <glyph glyph-name="uniFEB4" unicode="&#x633;" horiz-adv-x="760" arabic-form="medial" 
d="M289 -10l-1 -3q-87 0 -149 53q-43 -43 -129 -43h-34v99l23 24h11q30 0 51 3t33 12q13 9 17 24q5 17 5 39v57h74v-57q0 -14 -2 -36q-1 -11 -5 -33q20 -6 54 -13q29 -6 60 -6q23 0 36 4q15 4 24 15t12 28q3 18 3 44v57h74v-57q0 -42 -6 -75q33 -14 69 -14q35 0 47 18t12 72
v87h74v-87q0 -25 -1 -36l-3 -33q32 -6 57 -8q31 -3 64 -3v-101l-23 -22q-34 0 -69 9t-63 27q-31 -46 -96 -46t-107 42q-19 -21 -46 -31q-26 -10 -66 -10z" />
    <glyph glyph-name="uniFEB6" unicode="&#x634;" horiz-adv-x="1195" arabic-form="final" 
d="M330 -240l-2 -2q-67 0 -121 18t-91 52t-58 85t-21 117q0 40 6 85q6 43 17 83h70v-9q-17 -65 -17 -121q0 -87 58 -132q59 -45 156 -45q109 0 161 41q51 40 51 128q0 37 -7 78q-9 50 -25 114l4 5h84l12 -50q12 -53 41 -74q28 -21 86 -21q23 0 35 4q13 4 21 15q8 12 11 28
q3 18 3 44v57h74v-57q0 -42 -6 -75q33 -14 69 -14q19 0 30 4t19 14q7 8 10 27q3 18 3 45v87h74v-87q0 -25 -1 -36l-3 -33q32 -6 57 -8q32 -3 63 -3v-101l-23 -22q-34 0 -69 9t-63 27q-30 -46 -97 -46q-64 0 -106 42q-36 -42 -105 -42q-40 0 -69 9q-28 9 -53 29l-3 -1
q-8 -128 -79 -198t-196 -70zM771 528l64 62h10l64 -62l-64 -63h-10zM906 344h-10l-56 54l-55 -54h-10l-67 65l67 66h10l55 -55l56 55h10l66 -66z" />
    <glyph glyph-name="uniFEB7" unicode="&#x634;" horiz-adv-x="686" arabic-form="initial" 
d="M293 -10l2 -4q-91 0 -153 53q-43 -43 -129 -43h-34v99l23 24h11q30 0 51 3t33 12q13 9 17 24q5 17 5 39v57h74v-57q0 -14 -2 -36q-1 -11 -5 -33q20 -6 54 -13q29 -6 55 -6t39 4q15 5 24 15q9 11 12 28q3 18 3 44v57h74v-57q0 -42 -6 -75q33 -14 67 -14q31 0 45 14t14 45
q0 18 -1 27q-2 21 -4 30q-5 29 -7 37q-1 5 -4.5 21.5t-5.5 26.5l4 5h80q1 -4 4 -20.5t4 -24.5q4 -27 5 -36q2 -22 3 -32t1 -33q0 -85 -36 -133t-103 -48q-63 0 -105 42q-36 -42 -109 -42zM339 526l64 62h10l64 -62l-64 -63h-10zM474 342h-10l-56 54l-55 -54h-10l-67 65
l67 66h10l55 -55l56 55h10l66 -66z" />
    <glyph glyph-name="uniFEB8" unicode="&#x634;" horiz-adv-x="760" arabic-form="medial" 
d="M289 -10l-1 -3q-87 0 -149 53q-43 -43 -129 -43h-34v99l23 24h11q30 0 51 3t33 12q13 9 17 24q5 17 5 39v57h74v-57q0 -14 -2 -36q-1 -11 -5 -33q20 -6 54 -13q29 -6 60 -6q23 0 36 4q15 4 24 15t12 28q3 18 3 44v57h74v-57q0 -42 -6 -75q33 -14 69 -14q35 0 47 18t12 72
v87h74v-87q0 -25 -1 -36l-3 -33q32 -6 57 -8q31 -3 64 -3v-101l-23 -22q-34 0 -69 9t-63 27q-31 -46 -96 -46t-107 42q-19 -21 -46 -31q-26 -10 -66 -10zM339 527l64 62h10l64 -62l-64 -63h-10zM474 343h-10l-56 54l-55 -54h-10l-67 65l67 66h10l55 -55l56 55h10l66 -66z
" />
    <glyph glyph-name="uniFEBA" unicode="&#x635;" horiz-adv-x="1300" arabic-form="final" 
d="M330 -240l-3 -2q-67 0 -121 18t-91 52t-58 85t-21 117q0 40 6 85q6 43 17 83h70v-9q-17 -65 -17 -121q0 -87 58 -132t156 -45q109 0 161 41q51 40 51 128q0 37 -7 78q-9 50 -25 114l4 5h84l12 -50q9 -42 34 -61l94 112q37 43 66 71q32 31 62 50q31 20 62 29t67 9
q45 0 83 -18t66 -46t45 -68q16 -38 16 -82q0 -17 -3 -32q-4 -20 -7 -29q49 -20 106 -20v-100l-23 -23q-34 0 -71 14t-68 39q-29 -26 -69 -39q-42 -14 -88 -14h-261q-70 0 -108 38l-2 -1q-6 -132 -78 -204t-199 -72zM1001 121l-1 -2q74 0 102 12q29 12 29 41q0 27 -12 49
q-12 23 -33 39q-20 16 -49 25t-61 9q-65 0 -117 -28t-106 -90l-44 -50l1 -4q5 -1 15 -1h15h261z" />
    <glyph glyph-name="uniFEBB" unicode="&#x635;" horiz-adv-x="790" arabic-form="initial" 
d="M0 123l-1 -3q32 0 59 6q25 6 49 20q-3 25 -3 55v63h76v-58q0 -37 16 -57l92 109q37 43 66 71q32 31 62 50q31 20 62 29q32 9 67 9q45 0 83 -18t66 -46t45 -68q16 -38 16 -82q0 -46 -16 -82q-16 -37 -46 -64t-70 -42q-41 -15 -90 -15h-257q-113 0 -150 79
q-46 -79 -149 -79v100zM555 120l-2 -3q73 0 102 12t29 41q0 26 -12 49t-33 39q-20 16 -49 25q-28 9 -61 9q-65 0 -115 -28q-52 -29 -105 -88l-45 -51l1 -4q5 -1 15 -1h17h258z" />
    <glyph glyph-name="uniFEBC" unicode="&#x635;" horiz-adv-x="852" arabic-form="medial" 
d="M0 123l-1 -2q32 0 59 6q25 6 49 20q-3 25 -3 55v63h76v-58q0 -37 16 -57l92 109q37 43 66 71q32 31 62 50q31 20 62 29q32 9 67 9q45 0 83 -18t66 -46t45 -68q16 -38 16 -82q0 -32 -9 -61q49 -20 106 -20v-100l-22 -23q-35 0 -72 14t-68 39q-28 -25 -69 -39
q-42 -14 -88 -14h-257q-113 0 -150 79q-46 -79 -149 -79v100zM555 121l-2 -3q73 0 102 12t29 41q0 27 -12 49t-33 39q-20 16 -49 25q-28 9 -61 9q-65 0 -115 -28q-52 -29 -105 -88l-45 -51l1 -4q5 -1 15 -1h17h258z" />
    <glyph glyph-name="uniFEBE" unicode="&#x636;" horiz-adv-x="1300" arabic-form="final" 
d="M330 -240l-3 -2q-67 0 -121 18t-91 52t-58 85t-21 117q0 40 6 85q6 43 17 83h70v-9q-17 -65 -17 -121q0 -87 58 -132t156 -45q109 0 161 41q51 40 51 128q0 37 -7 78q-9 50 -25 114l4 5h84l12 -50q9 -42 34 -61l94 112q37 43 66 71q32 31 62 50q31 20 62 29t67 9
q45 0 83 -18t66 -46t45 -68q16 -38 16 -82q0 -17 -3 -32q-4 -20 -7 -29q49 -20 106 -20v-100l-23 -23q-34 0 -71 14t-68 39q-29 -26 -69 -39q-42 -14 -88 -14h-261q-70 0 -108 38l-2 -1q-6 -132 -78 -204t-199 -72zM1001 121l-1 -2q74 0 102 12q29 12 29 41q0 27 -12 49
q-12 23 -33 39q-20 16 -49 25t-61 9q-65 0 -117 -28t-106 -90l-44 -50l1 -4q5 -1 15 -1h15h261zM954 633l66 -66l-66 -65h-10l-67 65l67 66h10z" />
    <glyph glyph-name="uniFEBF" unicode="&#x636;" horiz-adv-x="790" arabic-form="initial" 
d="M0 123l-1 -3q32 0 59 6q25 6 49 20q-3 25 -3 55v63h76v-58q0 -37 16 -57l92 109q37 43 66 71q32 31 62 50q31 20 62 29q32 9 67 9q45 0 83 -18t66 -46t45 -68q16 -38 16 -82q0 -46 -16 -82q-16 -37 -46 -64t-70 -42q-41 -15 -90 -15h-257q-113 0 -150 79
q-46 -79 -149 -79v100zM555 120l-2 -3q73 0 102 12t29 41q0 26 -12 49t-33 39q-20 16 -49 25q-28 9 -61 9q-65 0 -115 -28q-52 -29 -105 -88l-45 -51l1 -4q5 -1 15 -1h17h258zM507 631l66 -66l-66 -65h-10l-67 65l67 66h10z" />
    <glyph glyph-name="uniFEC0" unicode="&#x636;" horiz-adv-x="852" arabic-form="medial" 
d="M0 123l-1 -2q32 0 59 6q25 6 49 20q-3 25 -3 55v63h76v-58q0 -37 16 -57l92 109q37 43 66 71q32 31 62 50q31 20 62 29q32 9 67 9q45 0 83 -18t66 -46t45 -68q16 -38 16 -82q0 -32 -9 -61q49 -20 106 -20v-100l-22 -23q-35 0 -72 14t-68 39q-28 -25 -69 -39
q-42 -14 -88 -14h-257q-113 0 -150 79q-46 -79 -149 -79v100zM555 121l-2 -3q73 0 102 12t29 41q0 27 -12 49t-33 39q-20 16 -49 25q-28 9 -61 9q-65 0 -115 -28q-52 -29 -105 -88l-45 -51l1 -4q5 -1 15 -1h17h258zM507 632l66 -66l-66 -65h-10l-67 65l67 66h10z" />
    <glyph glyph-name="uniFEC2" unicode="&#x637;" horiz-adv-x="784" arabic-form="final" 
d="M106 123l30 36v585h92v-479l6 7q32 38 62 65q31 28 58 45q28 18 59 27q30 9 63 9q46 0 83 -18q38 -18 66 -46t45 -68q16 -38 16 -82q0 -32 -9 -61q49 -20 106 -20v-100l-22 -23q-35 0 -72 14t-68 39q-29 -25 -69 -39q-42 -14 -88 -14h-444v123h86zM486 122v-2
q74 0 102 12q29 12 29 41q0 27 -12 49t-33 39q-20 16 -49 25q-28 9 -61 9q-65 0 -117 -28q-53 -29 -108 -90l-43 -50l2 -5h290z" />
    <glyph glyph-name="uniFEC3" unicode="&#x637;" horiz-adv-x="682" arabic-form="initial" 
d="M437 419l-2 -2q45 0 83 -18t66 -46t45 -68q16 -38 16 -82q0 -46 -16 -82q-16 -37 -46 -64t-70 -42q-41 -15 -90 -15h-447v100l23 23h66l32 37v585h92v-479l6 7q32 38 62 65q31 28 58 45q28 18 59 27q30 9 63 9zM446 121v-2q74 0 102 12q29 12 29 41q0 27 -12 49
q-12 23 -33 39q-20 16 -49 25t-61 9q-65 0 -117 -28q-53 -28 -108 -90l-43 -50l2 -5h290z" />
    <glyph glyph-name="uniFEC4" unicode="&#x637;" horiz-adv-x="744" arabic-form="medial" 
d="M638 143l-2 -1q49 -20 106 -20v-100l-22 -23q-35 0 -72 14t-68 39q-28 -26 -69 -39q-42 -14 -88 -14h-447v100l23 23h66l32 37v585h92v-479l6 7q32 38 62 65q31 28 58 45q28 18 59 27q30 9 63 9q45 0 83 -18t66 -46t45 -68q16 -38 16 -82q0 -32 -9 -61zM446 122v-2
q74 0 102 12q29 12 29 41q0 27 -12 49t-33 39q-20 16 -49 25t-61 9q-65 0 -117 -28q-53 -29 -108 -90l-43 -50l2 -5h290z" />
    <glyph glyph-name="uniFEC6" unicode="&#x638;" horiz-adv-x="784" arabic-form="final" 
d="M106 123l30 36v585h92v-479l6 7q32 38 62 65q31 28 58 45q28 18 59 27q30 9 63 9q46 0 83 -18q38 -18 66 -46t45 -68q16 -38 16 -82q0 -32 -9 -61q49 -20 106 -20v-100l-22 -23q-35 0 -72 14t-68 39q-29 -25 -69 -39q-42 -14 -88 -14h-444v123h86zM486 122v-2
q74 0 102 12q29 12 29 41q0 27 -12 49t-33 39q-20 16 -49 25q-28 9 -61 9q-65 0 -117 -28q-53 -29 -108 -90l-43 -50l2 -5h290zM440 633l66 -66l-66 -65h-10l-67 65l67 66h10z" />
    <glyph glyph-name="uniFEC7" unicode="&#x638;" horiz-adv-x="682" arabic-form="initial" 
d="M437 419l-2 -2q45 0 83 -18t66 -46t45 -68q16 -38 16 -82q0 -46 -16 -82q-16 -37 -46 -64t-70 -42q-41 -15 -90 -15h-447v100l23 23h66l32 37v585h92v-479l6 7q32 38 62 65q31 28 58 45q28 18 59 27q30 9 63 9zM446 121v-2q74 0 102 12q29 12 29 41q0 27 -12 49
q-12 23 -33 39q-20 16 -49 25t-61 9q-65 0 -117 -28q-53 -28 -108 -90l-43 -50l2 -5h290zM400 632l66 -66l-66 -65h-10l-67 65l67 66h10z" />
    <glyph glyph-name="uniFEC8" unicode="&#x638;" horiz-adv-x="744" arabic-form="medial" 
d="M638 143l-2 -1q49 -20 106 -20v-100l-22 -23q-35 0 -72 14t-68 39q-28 -26 -69 -39q-42 -14 -88 -14h-447v100l23 23h66l32 37v585h92v-479l6 7q32 38 62 65q31 28 58 45q28 18 59 27q30 9 63 9q45 0 83 -18t66 -46t45 -68q16 -38 16 -82q0 -32 -9 -61zM446 122v-2
q74 0 102 12q29 12 29 41q0 27 -12 49t-33 39q-20 16 -49 25t-61 9q-65 0 -117 -28q-53 -29 -108 -90l-43 -50l2 -5h290zM400 633l66 -66l-66 -65h-10l-67 65l67 66h10z" />
    <glyph glyph-name="uniFECA" unicode="&#x639;" horiz-adv-x="602" arabic-form="final" 
d="M332 -325l-1 -1q-145 0 -221 59q-75 59 -75 165q0 73 47 138t141 116l32 17l-24 30l-104 133l-35 -10h-9v107q68 30 133 41q68 12 123 12q103 0 151 -33t48 -102q0 -50 -29 -96q-28 -44 -99 -88l-9 -6q30 -20 65 -28q31 -7 81 -7h56v-100l-23 -23h-33q-34 0 -67 5
q-27 4 -58 17q-27 12 -55 33q-25 19 -58 54l-77 -44q-36 -21 -60 -39q-25 -19 -39 -34q-15 -17 -21 -33t-6 -34q0 -54 59 -86t173 -32q62 0 123 13q63 13 114 36h9v-99q-50 -39 -114 -60t-138 -21zM402 242l1 3q35 17 53 35t18 35q0 26 -31 38t-102 12q-52 0 -120 -11l-2 -3
l87 -106q17 -22 31 -36z" />
    <glyph glyph-name="uniFECB" unicode="&#x639;" horiz-adv-x="471" arabic-form="initial" 
d="M431 56l2 -4q-63 -28 -144 -42q-78 -13 -192 -13h-119v101l23 22h69l2 2q-16 28 -24 56q-7 25 -7 53q0 43 18 84t48 71t71 48q40 18 84 18q38 0 69 -12t54 -33v-113h-9q-27 17 -60 26q-34 9 -71 9q-65 0 -100 -22q-36 -23 -36 -57q0 -35 33 -68q34 -33 86 -56q52 4 97 15
q51 12 98 28h8v-113z" />
    <glyph glyph-name="uniFECC" unicode="&#x639;" horiz-adv-x="522" arabic-form="medial" 
d="M0 123l133 4h36l-24 30l-90 115l-34 -11h-9v107q67 27 134 39q66 12 123 12q101 0 150 -32q48 -31 48 -101q0 -44 -24 -81q-23 -36 -74 -81h14h139v-100l-22 -23h-119q-41 0 -73 8q-29 7 -55 27q-25 -18 -54 -27t-67 -9h-155v100zM275 144l-4 2q34 22 62 41q20 13 39 29
q15 12 21 21t6 17q0 26 -30 38t-100 12q-29 0 -59 -3t-60 -9l-2 -3l90 -110q7 -8 20 -21q10 -9 17 -14z" />
    <glyph glyph-name="uniFECE" unicode="&#x63a;" horiz-adv-x="602" arabic-form="final" 
d="M332 -325l-1 -1q-145 0 -221 59q-75 59 -75 165q0 73 47 138t141 116l32 17l-24 30l-104 133l-35 -10h-9v107q68 30 133 41q68 12 123 12q103 0 151 -33t48 -102q0 -50 -29 -96q-28 -44 -99 -88l-9 -6q30 -20 65 -28q31 -7 81 -7h56v-100l-23 -23h-33q-34 0 -67 5
q-27 4 -58 17q-27 12 -55 33q-25 19 -58 54l-77 -44q-36 -21 -60 -39q-25 -19 -39 -34q-15 -17 -21 -33t-6 -34q0 -54 59 -86t173 -32q62 0 123 13q63 13 114 36h9v-99q-50 -39 -114 -60t-138 -21zM402 242l1 3q35 17 53 35t18 35q0 26 -31 38t-102 12q-52 0 -120 -11l-2 -3
l87 -106q17 -22 31 -36zM335 702l66 -66l-66 -65h-10l-67 65l67 66h10z" />
    <glyph glyph-name="uniFECF" unicode="&#x63a;" horiz-adv-x="471" arabic-form="initial" 
d="M431 56l2 -4q-63 -28 -144 -42q-78 -13 -192 -13h-119v101l23 22h69l2 2q-16 28 -24 56q-7 25 -7 53q0 43 18 84t48 71t71 48q40 18 84 18q38 0 69 -12t54 -33v-113h-9q-27 17 -60 26q-34 9 -71 9q-65 0 -100 -22q-36 -23 -36 -57q0 -35 33 -68q34 -33 86 -56q52 4 97 15
q51 12 98 28h8v-113zM252 669l66 -66l-66 -65h-10l-67 65l67 66h10z" />
    <glyph glyph-name="uniFED0" unicode="&#x63a;" horiz-adv-x="522" arabic-form="medial" 
d="M0 123l133 4h36l-24 30l-90 115l-34 -11h-9v107q67 27 134 39q66 12 123 12q101 0 150 -32q48 -31 48 -101q0 -44 -24 -81q-23 -36 -74 -81h14h139v-100l-22 -23h-119q-41 0 -73 8q-29 7 -55 27q-25 -18 -54 -27t-67 -9h-155v100zM275 144l-4 2q34 22 62 41q20 13 39 29
q15 12 21 21t6 17q0 26 -30 38t-100 12q-29 0 -59 -3t-60 -9l-2 -3l90 -110q7 -8 20 -21q10 -9 17 -14zM260 640l66 -66l-66 -65h-10l-67 65l67 66h10z" />
    <glyph glyph-name="uniFED2" unicode="&#x641;" horiz-adv-x="930" arabic-form="final" 
d="M930 23l-21 -25h-33q-49 0 -94 9q-46 9 -82 25q-114 -43 -282 -43q-103 0 -175 12t-117 39t-66 69t-21 102q0 31 6 65q7 39 16 72h71v-9q-14 -58 -14 -93q0 -34 16 -57q17 -24 52 -39q34 -14 93 -22q53 -7 138 -7h155q-21 25 -33 56q-12 30 -12 62q0 43 15 83t42 72
t60 51q34 20 69 20q38 0 69 -16q32 -17 56 -45q23 -28 37 -64q13 -35 13 -75q0 -81 -52 -142h94v-100zM696 338l-2 1q-42 0 -71 -24t-29 -57q0 -20 11 -42q10 -19 29 -37q18 -17 42 -30t51 -21q41 11 68 36q27 26 27 54q0 25 -10 45q-11 22 -27 38q-17 17 -39 27
q-21 10 -50 10zM718 682l66 -66l-66 -65h-10l-67 65l67 66h10z" />
    <glyph glyph-name="uniFED3" unicode="&#x641;" horiz-adv-x="454" arabic-form="initial" 
d="M0 123l196 1q39 0 66 3q26 3 45 14q18 10 27 29q10 19 11 48l-3 2q-56 -35 -132 -35q-80 0 -123 37t-43 112q0 40 15 81q16 43 40 74q26 33 59 53q34 20 71 20q41 0 75 -24t60 -66t39 -97q14 -58 14 -120q0 -69 -12 -117q-12 -47 -39 -79q-27 -31 -69 -45
q-44 -14 -100 -14h-220v100zM226 290l-4 -3q28 0 55 3q23 3 55 11q-8 31 -19 54q-11 24 -29 45q-16 19 -37 31t-45 12q-20 0 -36 -9q-17 -9 -29 -24q-11 -14 -19 -31q-7 -15 -7 -31q0 -31 29 -45q27 -13 86 -13zM218 777l66 -66l-66 -65h-10l-67 65l67 66h10z" />
    <glyph glyph-name="uniFED4" unicode="&#x641;" horiz-adv-x="447" arabic-form="medial" 
d="M447 23l-20 -26h-46q-41 0 -84 8q-40 7 -76 21q-76 -29 -168 -29h-75v100l23 23h87q-18 24 -31 56q-12 30 -12 62q0 44 16 83q17 41 42 72t60 51t70 20q38 0 69 -16q32 -16 54 -45q23 -29 36 -64q14 -37 14 -75q0 -79 -50 -141h91v-100zM214 337l-3 1q-42 0 -71 -24
t-29 -57q0 -21 11 -41q9 -17 29 -37q17 -17 42 -31q24 -14 51 -21q40 10 67 36q27 25 27 54q0 25 -10 45q-11 22 -27 38q-17 16 -39 27q-21 10 -48 10zM230 681l66 -66l-66 -65h-10l-67 65l67 66h10z" />
    <glyph glyph-name="uniFED6" unicode="&#x642;" horiz-adv-x="697" arabic-form="final" 
d="M354 -240l-2 -3q-148 0 -231 72t-83 200q0 39 6 81q6 39 20 87h73v-8q-10 -39 -14 -67q-5 -37 -5 -63q0 -81 62 -126t176 -45q54 0 93 6t66 18q26 12 43 33q16 21 24 51h-121q-83 0 -129 40q-47 41 -47 117q0 45 15 88q15 45 40 78q26 35 59 56t72 21q38 0 71 -21
q32 -20 58 -57q25 -35 40 -87q14 -49 19 -109h39v-99l-22 -24h-21q-18 -121 -93 -180q-76 -59 -208 -59zM581 120l1 -3q-6 31 -18 60q-12 28 -30 49t-40 33t-48 12q-21 0 -39 -9t-30 -24q-11 -14 -19 -31q-7 -15 -7 -32q0 -31 29 -43q28 -12 89 -12h112zM535 479h-10l-56 54
l-55 -54h-10l-67 65l67 66h10l55 -55l56 55h10l66 -66z" />
    <glyph glyph-name="uniFED7" unicode="&#x642;" horiz-adv-x="454" arabic-form="initial" 
d="M0 123l196 1q39 0 66 3q26 3 45 14q18 10 27 29q10 19 11 48l-3 2q-56 -35 -132 -35q-80 0 -123 37t-43 112q0 40 15 81q16 43 40 74q26 33 59 53q34 20 71 20q41 0 75 -24t60 -66t39 -97q14 -58 14 -120q0 -69 -12 -117q-12 -47 -39 -79q-27 -31 -69 -45
q-44 -14 -100 -14h-220v100zM226 290l-4 -3q28 0 55 3q23 3 55 11q-8 31 -19 54q-11 24 -29 45q-16 19 -37 31t-45 12q-20 0 -36 -9q-17 -9 -29 -24q-11 -14 -19 -31q-7 -15 -7 -31q0 -31 29 -45q27 -13 86 -13zM279 646h-10l-56 54l-55 -54h-10l-67 65l67 66h10l55 -55
l56 55h10l66 -66z" />
    <glyph glyph-name="uniFED8" unicode="&#x642;" horiz-adv-x="447" arabic-form="medial" 
d="M447 23l-20 -26h-46q-41 0 -84 8q-40 7 -76 21q-76 -29 -168 -29h-75v100l23 23h87q-18 24 -31 56q-12 30 -12 62q0 44 16 83q17 41 42 72t60 51t70 20q38 0 69 -16q32 -16 54 -45q23 -29 36 -64q14 -37 14 -75q0 -79 -50 -141h91v-100zM214 337l-3 1q-42 0 -71 -24
t-29 -57q0 -21 11 -41q9 -17 29 -37q17 -17 42 -31q24 -14 51 -21q40 10 67 36q27 25 27 54q0 25 -10 45q-11 22 -27 38q-17 16 -39 27q-21 10 -48 10zM291 550h-10l-56 54l-55 -54h-10l-67 65l67 66h10l55 -55l56 55h10l66 -66z" />
    <glyph glyph-name="uniFEDA" unicode="&#x643;" horiz-adv-x="878" arabic-form="final" 
d="M878 23l-23 -22h-1q-128 0 -162 100q-75 -57 -168 -84t-193 -27q-79 0 -135 12q-55 12 -91 39q-35 26 -52 69q-16 41 -16 101q0 31 6 65q7 39 16 72h71v-9q-14 -58 -14 -93q0 -66 56 -95t183 -29q91 0 171 16q82 16 153 51q-1 3 -1 11v13v531h92v-531q0 -48 25 -69
t82 -21h1v-100zM500 381v-1q0 -96 -172 -96h-33v62h33q113 0 113 22q0 5 -4 8q-6 4 -18 8l-29 7q-30 7 -42 24t-12 39q0 26 15 48q14 22 51 43l67 38h9v-64l-65 -35q-19 -10 -19 -18t21 -14l32 -8q29 -8 41 -24t12 -39z" />
    <glyph glyph-name="uniFEDB" unicode="&#x643;" horiz-adv-x="442" arabic-form="initial" 
d="M137 473l54 -45q42 -38 72 -69t48 -60q19 -30 26 -57q8 -30 8 -60q0 -85 -48 -133t-136 -48h-184v100l23 23h166q55 0 82 13q28 13 28 42q0 14 -4 23q-6 13 -13 23q-8 11 -26 27q-17 15 -42 36l-155 122v122l427 223h9v-108z" />
    <glyph glyph-name="uniFEDC" unicode="&#x643;" horiz-adv-x="472" arabic-form="medial" 
d="M0 123h82q57 0 83 13q27 14 36 45l-163 229v122l426 223h9v-108l-350 -180l179 -247q21 -29 37 -45q18 -18 36 -30q17 -11 37 -16q22 -5 42 -5h18v-99l-23 -24q-27 0 -55 5q-26 4 -48 18q-21 13 -46 36q-24 22 -51 57l-3 -1q-14 -57 -55 -86q-42 -30 -108 -30h-106v100z
" />
    <glyph glyph-name="uniFEDE" unicode="&#x644;" horiz-adv-x="718" arabic-form="final" 
d="M603 235l-1 -4q0 -32 6 -53t19 -34t36 -19q22 -6 55 -6v-100l-23 -23q-76 0 -114 44l-1 -1q-10 -135 -80 -209q-69 -74 -190 -74q-65 0 -115 19q-51 19 -85 55q-34 35 -52 87q-18 51 -18 113q0 46 6 87t18 81h70v-9q-17 -65 -17 -120q0 -83 51 -129q50 -46 144 -46
q105 0 152 48q47 49 47 153v650h92v-510z" />
    <glyph glyph-name="uniFEDF" unicode="&#x644;" horiz-adv-x="269" arabic-form="initial" 
d="M0 123h-1q55 0 81 21q25 21 25 67v534h92v-536q0 -101 -48 -155t-139 -54h-33v100z" />
    <glyph glyph-name="uniFEE0" unicode="&#x644;" horiz-adv-x="305" arabic-form="medial" 
d="M305 23l-23 -24h-1q-115 0 -153 81q-46 -81 -150 -81v100l23 23q65 0 108 25q-1 9 -3 29q-1 10 -1 32v536h92v-531q0 -48 25 -69q26 -21 82 -21h1v-100z" />
    <glyph glyph-name="uniFEE2" unicode="&#x645;" horiz-adv-x="644" arabic-form="final" 
d="M536 200l2 -2q15 -44 39 -60q23 -16 69 -16v-101l-23 -22q-45 0 -74 17q-29 16 -51 51l-10 -79l-143 18q-88 11 -125 48q-38 38 -38 103q0 14 3 29q3 14 11 29l-2 2q-20 -9 -32 -21q-11 -11 -19 -29q-7 -15 -10 -41q-3 -24 -3 -56v-385h-92v383q0 67 12 115q12 47 44 82
q30 33 86 58t138 44l122 30q26 6 33 -18zM474 113l-2 2q-1 7 -5 14q-2 4 -6 14l-39 106q-7 19 -27 16q-77 -16 -112 -33q-34 -16 -34 -44q0 -26 24 -39t78 -21z" />
    <glyph glyph-name="uniFEE3" unicode="&#x645;" horiz-adv-x="509" arabic-form="initial" 
d="M119 60q-25 -33 -58 -46q-32 -13 -83 -13v99l23 24q43 0 66 15q22 15 39 50l23 46q24 47 43 75q21 32 42 51q22 20 45 29q24 9 52 9q73 0 117 -54q43 -53 43 -151q0 -35 -9 -77q-10 -45 -22 -82l-6 -19q-9 -32 -42 -24zM371 122l-1 1q22 -5 27 12q4 13 4 40q0 48 -27 75
t-73 27q-39 0 -68 -24q-29 -25 -53 -75l-4 -9z" />
    <glyph glyph-name="uniFEE4" unicode="&#x645;" horiz-adv-x="550" arabic-form="medial" 
d="M442 200l-3 -2q17 -44 40 -60t68 -16v-101l-22 -22q-45 0 -74 18q-28 18 -51 53l-10 -80l-142 18q-100 12 -138 62q-14 -38 -45 -54t-89 -16v100l23 23q29 0 50 3q20 3 38 11q-2 10 -2 14v15q0 76 59 135q58 59 171 87l31 9q24 6 34 -18zM366 141l-39 108q-7 19 -27 16
q-77 -13 -113 -32q-35 -18 -35 -45q0 -26 24 -39t78 -21l124 -16z" />
    <glyph glyph-name="uniFEE6" unicode="&#x646;" horiz-adv-x="743" arabic-form="final" 
d="M330 -240l-3 -1q-67 0 -121 18t-91 52t-58 85t-21 117q0 40 6 85q6 43 17 83h70v-9q-17 -65 -17 -121q0 -87 59 -132t158 -45q108 0 160 41q51 41 51 128q0 10 -2 36q-2 19 -6 45t-12 60q-10 47 -19 81l5 5h83l19 -80q10 -47 41 -67q29 -19 92 -19h1v-99l-23 -24h-1
q-70 0 -108 38l-3 -1q-6 -132 -78 -204t-199 -72zM334 289l66 -66l-66 -65h-10l-67 65l67 66h10z" />
    <glyph glyph-name="uniFEE7" unicode="&#x646;" horiz-adv-x="237" arabic-form="initial" 
d="M-3 123l21 1q50 0 72 18q23 18 23 59q0 29 -6 74q-5 37 -17 99l4 5h84q7 -47 12 -92q5 -48 5 -78q0 -107 -42 -158t-133 -51h-43v100zM125 598l66 -66l-66 -65h-10l-67 65l67 66h10z" />
    <glyph glyph-name="uniFEE8" unicode="&#x646;" horiz-adv-x="294" arabic-form="medial" 
d="M0 123v-2q32 0 59 6q25 6 49 20q-3 25 -3 57v115h76v-110q0 -50 26 -68q25 -18 86 -18h1v-100l-23 -23h-1q-110 0 -144 79q-48 -79 -149 -79v100zM148 535l66 -66l-66 -65h-10l-67 65l67 66h10z" />
    <glyph glyph-name="uniFEEA" unicode="&#x647;" horiz-adv-x="503" arabic-form="final" 
d="M481 0l-2 1q-70 1 -108 29q-37 27 -51 89h-3q-24 -41 -60 -61q-35 -19 -84 -19q-32 0 -60 11q-26 10 -46 30q-19 20 -30 45q-11 27 -11 57q0 60 44 109q44 48 120 90l122 67v68h84v-295q0 -53 23 -76q22 -22 84 -22v-100zM185 162v1q74 0 126 35v162l-96 -42
q-64 -30 -89 -52q-27 -24 -27 -52q0 -25 23 -39q22 -13 63 -13z" />
    <glyph glyph-name="uniFEEB" unicode="&#x647;" horiz-adv-x="615" arabic-form="initial" 
d="M352 414v-6q67 -30 108 -55q45 -28 69 -55q25 -28 36 -60q11 -33 11 -70q0 -42 -13 -74q-13 -33 -39 -57q-27 -25 -61 -38q-35 -13 -81 -13q-48 0 -97 11q-47 11 -87 30q-34 -13 -74 -21q-42 -8 -82 -8h-65v100l23 23h84q-40 53 -40 117q0 28 9 57t24 54q13 23 35 46
q21 22 42 35v62l5 4zM205 333q-19 0 -36 -6q-15 -6 -30 -17q-14 -11 -21 -25t-7 -31q0 -37 36 -70q37 -34 98 -53q70 25 70 90q0 22 -9 43t-24 36t-35 24q-19 9 -42 9zM400 107q54 0 80 14t26 39q0 14 -6 27q-6 14 -19 27q-13 14 -36 27q-21 13 -59 30l-2 -1v-7
q0 -43 -15 -82t-43 -70l36 -3q12 -1 38 -1z" />
    <glyph glyph-name="uniFEEC" unicode="&#x647;" horiz-adv-x="480" arabic-form="medial" 
d="M257 -238l-1 -3q-50 0 -87 18t-63 50q-26 31 -39 75t-15 96h-75v100l23 23h68l135 326q11 27 36 15l17 -8q67 -32 101 -79q35 -49 35 -105q0 -46 -18 -83q-18 -38 -55 -63v-3h161v-100l-21 -23h-44l-2 -3q18 -25 18 -69q0 -37 -13 -66q-13 -30 -37 -52q-23 -22 -55 -34
t-69 -12zM148 120l-2 -2q77 0 120 28q44 29 44 82q0 28 -18 54t-55 42q-11 5 -17 2t-11 -14l-76 -192h15zM258 -124v-1q45 0 73 16t28 45q0 32 -33 51q-34 20 -93 20q-28 0 -58 -3q-40 -4 -60 -7q6 -55 42 -88t101 -33z" />
    <glyph glyph-name="uniFEEE" unicode="&#x648;" horiz-adv-x="450" arabic-form="final" 
d="M158 -255l2 -4q-50 0 -91 19q-42 20 -79 52v68l8 7q74 -25 138 -25q71 0 124 35q52 34 70 99h-113q-89 0 -135 39t-46 117q0 44 15 88q15 45 40 78q26 35 59 56t72 21q38 0 71 -21t57 -57t39 -87q16 -53 20 -109h43v-99l-23 -24h-27q-10 -56 -33 -102t-54 -81
q-31 -34 -72 -52t-85 -18zM333 119l-2 -3q-6 32 -18 60t-30 49t-40 33q-23 12 -48 12q-21 0 -38 -9t-29 -24t-18 -32t-6 -32q0 -30 29 -42t89 -12h111z" />
    <glyph glyph-name="uniFEF0" unicode="&#x649;" horiz-adv-x="742" arabic-form="final" 
d="M390 -240l2 -3q-174 0 -262 75t-88 228q0 48 6 94q6 49 16 81h69v-8q-7 -31 -12 -69q-4 -33 -4 -72q0 -100 69 -147q70 -47 215 -47q52 0 102 5q43 4 77 14q32 9 48 21q17 12 17 27q0 13 -7 20q-8 9 -25 14q-18 6 -51 12q-52 9 -82 14l-77 12v117l4 5l74 -11
q67 -10 135 -15q75 -5 125 -5v-99l-20 -21h-9q2 -8 2 -11v-11q0 -53 -22 -93q-23 -41 -64 -69t-102 -43q-60 -15 -136 -15z" />
    <glyph glyph-name="uniFEF2" unicode="&#x64a;" horiz-adv-x="742" arabic-form="final" 
d="M390 -240l2 -3q-174 0 -262 75t-88 228q0 48 6 94q6 49 16 81h69v-8q-7 -31 -12 -69q-4 -33 -4 -72q0 -100 69 -147q70 -47 215 -47q52 0 102 5q43 4 77 14q32 9 48 21q17 12 17 27q0 13 -7 20q-8 9 -25 14q-18 6 -51 12q-52 9 -82 14l-77 12v117l4 5l74 -11
q67 -10 135 -15q75 -5 125 -5v-99l-20 -21h-9q2 -8 2 -11v-11q0 -53 -22 -93q-23 -41 -64 -69t-102 -43q-60 -15 -136 -15zM466 -459h-10l-56 54l-55 -54h-10l-67 65l67 66h10l55 -55l56 55h10l66 -66z" />
    <glyph glyph-name="uniFEF3" unicode="&#x64a;" horiz-adv-x="237" arabic-form="initial" 
d="M-3 123l21 1q50 0 72 18q23 18 23 59q0 29 -6 74q-5 37 -17 99l4 5h84q7 -47 12 -92q5 -48 5 -78q0 -107 -42 -158t-133 -51h-43v100zM152 -215h-10l-56 54l-55 -54h-10l-67 65l67 66h10l55 -55l56 55h10l66 -66z" />
    <glyph glyph-name="uniFEF4" unicode="&#x64a;" horiz-adv-x="294" arabic-form="medial" 
d="M0 123v-2q32 0 59 6q25 6 49 20q-3 25 -3 57v115h76v-110q0 -50 26 -68q25 -18 86 -18h1v-100l-23 -23h-1q-110 0 -144 79q-48 -79 -149 -79v100zM202 -218h-10l-56 54l-55 -54h-10l-67 65l67 66h10l55 -55l56 55h10l66 -66z" />
    <glyph glyph-name=".notdef" horiz-adv-x="300" 
d="M100 718h100v-920h-100v920z" />
    <glyph glyph-name=".null" horiz-adv-x="0" 
 />
    <glyph glyph-name=".null" horiz-adv-x="0" 
 />
    <glyph glyph-name="uni000D" unicode="&#xd;" horiz-adv-x="226" 
 />
    <glyph glyph-name="space" unicode=" " horiz-adv-x="226" 
 />
    <glyph glyph-name="exclam" unicode="!" horiz-adv-x="296" 
d="M73 61q0 35 20 53q19 18 54 18t54 -18q20 -18 20 -53t-20 -53q-19 -18 -54 -18t-54 18q-20 18 -20 53zM121 211l-1 -1q-4 32 -12 72q-5 27 -13 83q-4 28 -10 84q-4 37 -4 78v125q0 27 25 27h85q24 0 24 -27v-125q0 -41 -4 -78q-6 -56 -10 -84q-7 -52 -13 -82
q-8 -41 -12 -72h-55z" />
    <glyph glyph-name="quotedbl" unicode="&#x22;" horiz-adv-x="387" 
d="M84 470h-1q-16 87 -24 142q-9 58 -9 85q0 25 14 41q13 15 41 15q25 0 39 -15q14 -16 14 -41q0 -27 -9 -85q-8 -55 -24 -142h-41zM260 470h-1q-16 87 -24 142q-9 58 -9 85q0 25 14 41q14 15 41 15q25 0 39 -15q14 -16 14 -41q0 -27 -9 -85q-8 -55 -24 -142h-41z" />
    <glyph glyph-name="numbersign" unicode="#" horiz-adv-x="593" 
d="M52 482h125l35 198h69l-35 -198h148l35 198h69l-35 -198h125l-11 -64h-125l-25 -139h125l-11 -64h-125l-37 -215h-69l37 215h-148l-37 -215h-69l37 215h-125l11 64h125l25 139h-125zM210 279h148l25 139h-148z" />
    <glyph glyph-name="dollar" unicode="$" horiz-adv-x="541" 
d="M41 181l63 -2v-25q0 -27 6 -45t21 -30q28 -22 99 -22q70 0 108 26t38 80q0 29 -10 48q-11 20 -30 35q-20 15 -48 27q-12 5 -63 25q-36 13 -75 32q-35 17 -58 40q-25 25 -38 57t-13 80q0 76 50 123q49 46 144 57v116h71v-112q42 -2 75 -7q37 -6 60 -12q15 -4 24 -12t9 -24
v-126h-69v23q0 21 -5 39q-4 16 -18 27q-25 22 -92 22q-64 0 -96 -24t-32 -67q0 -26 10 -43t27 -31q16 -13 41 -24q24 -10 51 -21q43 -15 85 -33q40 -17 66 -40q27 -24 42 -57t15 -83q0 -83 -50 -136q-49 -52 -138 -66v-127h-71v121q-46 0 -96 5q-45 5 -78 15q-25 7 -25 33
v138z" />
    <glyph glyph-name="percent" unicode="%" horiz-adv-x="861" 
d="M215 385h-1q38 0 57 30q20 31 20 96t-20 96q-19 30 -57 30q-37 0 -58 -30t-21 -96t21 -96t59 -30zM214 336l-3 -2q-78 0 -127 44q-48 44 -48 129q0 81 48 129t128 48q81 0 128 -43q48 -44 48 -130q0 -40 -12 -73q-11 -31 -35 -55t-55 -35q-33 -12 -72 -12zM591 678h74
l-407 -680h-74zM642 41h-1q37 0 57 30q20 31 20 96q0 64 -20 95q-20 30 -57 30t-58 -30t-21 -95q0 -66 21 -96t59 -30zM641 -8l-3 -2q-78 0 -127 44q-48 44 -48 129q0 81 48 129t128 48q81 0 128 -43q48 -44 48 -130q0 -40 -12 -73q-11 -31 -35 -55t-55 -35q-33 -12 -72 -12
z" />
    <glyph glyph-name="ampersand" unicode="&#x26;" horiz-adv-x="769" 
d="M293 -10l-2 -1q-58 0 -106 12q-47 12 -82 36q-34 24 -52 58q-18 35 -18 80q0 35 12 63t33 52t48 42t57 30l-7 7q-39 39 -59 75q-21 38 -21 90q0 74 63 116t172 42q43 0 84 -6t60 -12q15 -4 24 -12t9 -24v-122h-69v20q0 44 -23 67q-14 11 -33 15q-22 5 -50 5
q-47 0 -75 -21t-28 -61q0 -31 17 -57q16 -24 45 -52l245 -237q16 27 25 60q9 31 9 63q0 29 -29 29h-43v60h223v-60h-42q-16 0 -24 -8q-7 -7 -9 -23q-5 -45 -19 -85q-15 -42 -39 -81l34 -32q28 -28 59 -42q30 -13 65 -15v-60h-96q-45 0 -81 14q-34 13 -66 42q-39 -31 -93 -49
q-53 -18 -118 -18zM327 56v-1q35 0 68 12q30 11 61 32l-230 221q-61 -49 -61 -127q0 -33 12 -58t33 -43t51 -27t66 -9z" />
    <glyph glyph-name="quotesingle" unicode="'" horiz-adv-x="209" 
d="M84 470h-1q-16 87 -24 142q-9 58 -9 85q0 25 14 41q13 15 41 15q25 0 39 -15q14 -16 14 -41q0 -27 -9 -85q-8 -55 -24 -142h-41z" />
    <glyph glyph-name="parenleft" unicode="(" horiz-adv-x="417" 
d="M351 -214l-1 1q-64 33 -117 84t-90 114t-57 135q-20 74 -20 149t20 150q20 74 57 137t90 114t117 84l30 -47q-93 -57 -147 -165t-54 -273t55 -272q56 -108 147 -165z" />
    <glyph glyph-name="parenright" unicode=")" horiz-adv-x="417" 
d="M37 -168l-2 -2q91 57 147 165q55 107 55 272t-54 273t-147 165l29 47q67 -34 119 -84q52 -51 90 -114t57 -136q20 -75 20 -150t-20 -149q-19 -72 -57 -135t-90 -114q-53 -52 -118 -84z" />
    <glyph glyph-name="asterisk" unicode="*" horiz-adv-x="470" 
d="M193 617l-5 -5q-1 5 -4 18q-1 5 -1 12q0 24 15 36t34 12q18 0 32 -11t14 -32q0 -9 -5 -34l-26 -103l98 61q5 3 17 9q8 4 19 4q18 0 32 -14t14 -33q0 -22 -15 -34q-14 -11 -38 -13l-116 -8l83 -65q11 -9 21 -21q11 -13 11 -29q0 -19 -15 -33q-14 -13 -34 -13t-30 15
q-10 14 -18 32l-40 95l-41 -95q-7 -20 -18 -33q-10 -13 -30 -13q-19 0 -36 14q-16 13 -16 33q0 17 10 28q12 14 24 23l84 65l-119 8q-24 1 -40 14q-15 12 -15 32q0 21 14 35t32 14q11 0 19 -4l18 -9l98 -61z" />
    <glyph glyph-name="plus" unicode="+" horiz-adv-x="584" 
d="M55 303h199v191h76v-191h198v-74h-198v-201h-76v201h-199v74z" />
    <glyph glyph-name="comma" unicode="," horiz-adv-x="254" 
d="M42 -117v-4q34 16 57 44t23 62h-2q-34 0 -53 21q-20 22 -20 56q0 35 21 56t57 21q41 0 62 -25q21 -26 21 -70t-12 -77q-12 -32 -32 -57t-45 -41q-24 -15 -51 -25z" />
    <glyph glyph-name="hyphen" unicode="-" horiz-adv-x="419" 
d="M56 325h307v-93h-307v93z" />
    <glyph glyph-name="period" unicode="." horiz-adv-x="254" 
d="M126 -11v-2q-36 0 -57 21t-21 56t21 56t57 21q39 0 60 -21t21 -55t-21 -55t-60 -21z" />
    <glyph glyph-name="slash" unicode="/" horiz-adv-x="398" 
d="M317 745h85l-327 -950h-85z" />
    <glyph glyph-name="zero" unicode="0" horiz-adv-x="602" 
d="M38 239v-4q0 57 20 105t55 80q36 33 84 51t105 18t105 -15q50 -15 83 -46q34 -32 54 -78q20 -48 20 -108q0 -56 -20 -104t-55 -80q-36 -33 -84 -51t-104 -18q-58 0 -105 16q-48 17 -84 48q-35 31 -55 78q-19 45 -19 108zM301 50h-1q61 0 97 43t36 142t-36 144t-97 45
q-60 0 -96 -45t-36 -144t36 -142t97 -43z" />
    <glyph glyph-name="one" unicode="1" horiz-adv-x="416" 
d="M53 60l87 -2q25 0 25 25v293q0 25 -25 25q-12 0 -20 -1l-24 -3l-24 -3q-11 -1 -19 -3v60q30 7 63 15q51 12 63 14q8 2 25.5 5t25.5 5q19 4 29 4q30 0 30 -29v-380q0 -25 24 -25h81v-60h-341v60z" />
    <glyph glyph-name="two" unicode="2" horiz-adv-x="498" 
d="M29 65l-5 -4q62 38 93 58q47 30 84 63q36 32 61 69q24 36 24 76q0 37 -27 60q-28 23 -76 23q-41 0 -69 -6q-30 -6 -48 -16h-9v73q22 12 65 22q40 9 93 9q108 0 155 -40q48 -40 48 -106q0 -48 -25 -88q-26 -41 -61 -72q-34 -30 -78 -55q-45 -26 -77 -41h288v-90h-436v65z
" />
    <glyph glyph-name="three" unicode="3" horiz-adv-x="469" 
d="M24 -129l7 2q13 -4 39 -7q22 -3 48 -3q36 0 68 8q31 8 53 24t34 42q12 25 12 62q0 60 -45 93t-122 33h-18v73h16q65 0 108 32q42 32 42 84q0 99 -118 99q-65 0 -108 -22h-9v73q25 13 68 21q45 8 88 8q110 0 161 -42t51 -115q0 -36 -15 -63t-37 -46q-21 -18 -48 -31
q-25 -12 -48 -18v-3q33 -5 63 -18q31 -14 53 -36q23 -23 36 -51q14 -30 14 -63q0 -50 -21 -91t-58 -69t-88 -43t-109 -15h-31q-11 0 -33 2q-17 1 -30 3q-15 2 -23 3v74z" />
    <glyph glyph-name="four" unicode="4" horiz-adv-x="582" 
d="M15 63l351 431h82v-406h114v-88h-114v-207h-120v207h-313v63zM328 88v261l-210 -261h210z" />
    <glyph glyph-name="five" unicode="5" horiz-adv-x="483" 
d="M138 389l-4 -151h26q126 0 198 -57t72 -160q0 -53 -21 -97t-60 -74q-40 -31 -91 -47q-54 -17 -116 -17q-14 0 -50 2q-28 2 -44 6v75h9q15 -5 39 -6q32 -2 38 -2q75 0 122 35t47 105q0 69 -45 103q-44 34 -123 34h-37q-17 0 -33 -2v346h266q24 0 24 25v32h66v-125
q0 -25 -24 -25h-259z" />
    <glyph glyph-name="six" unicode="6" horiz-adv-x="574" 
d="M237 403l-1 -5q18 6 37 8q23 3 45 3q98 0 150 -49q53 -50 53 -147q0 -51 -15 -93q-15 -41 -44 -72q-28 -29 -72 -46q-42 -16 -99 -16q-55 0 -99 18t-75 55t-48 96q-17 60 -17 138q0 91 23 166q22 73 66 124t103 78q60 27 135 27q53 0 90 -8v-75h-10q-11 4 -34 7
q-21 3 -40 3q-104 0 -153 -76t-49 -246q0 -74 7 -117q8 -47 21 -74q14 -27 35 -38q22 -11 50 -11q94 0 94 148q0 74 -28 111t-99 37h-26v54z" />
    <glyph glyph-name="seven" unicode="7" horiz-adv-x="501" 
d="M143 387q-49 0 -49 -51v-38h-66v158q0 26 23 26h423v-56l-315 -669l-96 37l310 593h-230z" />
    <glyph glyph-name="eight" unicode="8" horiz-adv-x="552" 
d="M46 157l1 -1q0 33 12 60t32 50q18 21 45 40q28 20 54 32q-51 28 -87 72t-36 102q0 39 15 72q15 32 44 57q28 24 69 36q40 12 92 12q99 0 150 -39t51 -107q0 -28 -12 -52q-13 -25 -31 -45q-19 -21 -45 -39q-24 -17 -52 -31h1q77 -45 116 -88q41 -46 41 -105q0 -44 -18 -80
t-49 -61q-31 -26 -75 -39q-42 -13 -98 -13t-95 13q-41 13 -69 36q-28 22 -42 53t-14 65zM245 308q-41 -25 -64 -60q-22 -34 -22 -81q0 -51 32 -85q31 -33 86 -33q50 0 80 30t30 77t-31 78q-32 32 -96 66zM189 537l1 -3q0 -40 26 -69q26 -30 72 -56l9 -6q43 26 62 58
q20 34 20 71q0 44 -26 70q-25 25 -68 25q-42 0 -69 -24t-27 -66z" />
    <glyph glyph-name="nine" unicode="9" horiz-adv-x="574" 
d="M337 79l-1 1q-18 -6 -37 -8q-23 -3 -45 -3q-97 0 -150 50t-53 147q0 51 15 93q15 41 44 72q28 29 72 46q45 17 99 17q55 0 99 -18t75 -55t48 -96q17 -60 17 -138q0 -91 -23 -166q-22 -73 -66 -124t-103 -78q-60 -27 -135 -27q-53 0 -90 8v74h10q11 -4 34 -7q21 -3 40 -3
q103 0 153 77t50 246q0 74 -7 117q-8 47 -21 74q-14 27 -35 38q-22 11 -49 11q-50 0 -72 -37t-22 -112q0 -74 28 -109q28 -36 99 -36h26v-54z" />
    <glyph glyph-name="colon" unicode=":" horiz-adv-x="264" 
d="M131 -11v-2q-36 0 -57 21t-21 56t21 56t57 21q39 0 60 -21t21 -55t-21 -55t-60 -21zM131 337v-2q-36 0 -57 21t-21 56t21 56t57 21q39 0 60 -21t21 -55t-21 -55t-60 -21z" />
    <glyph glyph-name="semicolon" unicode=";" horiz-adv-x="268" 
d="M131 339v-2q-36 0 -57 21t-21 56t21 56t57 21q39 0 60 -21t21 -55t-21 -55t-60 -21zM47 -119v-4q34 16 57 44t23 62h-2q-33 0 -53 21q-20 22 -20 56q0 35 21 56t57 21q41 0 62 -25q21 -26 21 -70t-12 -77q-12 -32 -32 -57t-45 -41q-24 -15 -51 -25z" />
    <glyph glyph-name="less" unicode="&#x3c;" horiz-adv-x="494" 
d="M60 260l313 204l41 -61l-252 -163l252 -163l-41 -61l-313 204v40z" />
    <glyph glyph-name="equal" unicode="=" horiz-adv-x="564" 
d="M65 217h433v-74h-433v74zM65 389h433v-74h-433v74z" />
    <glyph glyph-name="greater" unicode="&#x3e;" horiz-adv-x="494" 
d="M80 77l252 163l-252 163l41 61l313 -204v-40l-313 -204z" />
    <glyph glyph-name="question" unicode="?" horiz-adv-x="436" 
d="M125 211l5 -3q-7 20 -11 36q-5 22 -5 42q2 55 27 86q25 32 66 57q33 20 50 39q18 20 18 57q0 79 -112 79q-36 0 -66 -6q-31 -6 -49 -16h-10v77q29 14 67 21q42 8 89 8q106 0 159 -42q52 -42 52 -116q0 -34 -12 -60t-33 -45t-48 -36q-22 -14 -57 -31q-33 -16 -52 -38
q-18 -21 -18 -54q0 -12 3 -24t6 -21v-10h-69zM93 58q0 35 20 53q19 18 54 18t54 -18q20 -18 20 -53t-20 -53q-19 -18 -54 -18t-54 18q-20 18 -20 53z" />
    <glyph glyph-name="at" unicode="@" horiz-adv-x="950" 
d="M565 417l-32 1q-40 0 -74 -17q-33 -17 -57 -48q-23 -30 -37 -77q-13 -43 -13 -102q0 -50 17 -75q17 -24 45 -24q31 0 60 23q28 22 48 51zM664 -166l-5 -9q-48 -21 -111 -37q-60 -15 -130 -15q-82 0 -153 24q-69 23 -121 74q-50 48 -79 125q-28 74 -28 179q0 112 35 203
t96 152q62 62 147 95q86 33 187 33q98 0 173 -30q76 -30 126 -82t76 -123q26 -72 26 -153q0 -51 -12 -102q-12 -52 -40 -93t-78 -67q-49 -25 -128 -25q-66 0 -96 21q-29 21 -34 66h-4q-12 -15 -30 -31q-17 -15 -36 -27q-18 -11 -42 -19q-21 -7 -48 -7q-57 0 -90 42t-33 130
q0 69 23 129t64 101q42 42 100 66q59 24 129 24h140l-57 -352q-1 -5 -1 -15v-12q0 -23 12 -33q11 -10 41 -10q44 0 72 19t45 50q16 30 24 69q7 36 7 78q0 70 -21 130t-61 103q-41 44 -102 68t-142 24q-85 0 -157 -27q-71 -27 -123 -80q-52 -54 -80 -130q-28 -77 -28 -178
q0 -88 22 -150t63 -103t97 -60t128 -19q65 0 119 14q50 13 93 32z" />
    <glyph glyph-name="A" unicode="A" horiz-adv-x="689" 
d="M2 60l19 -1q19 0 26 7q7 8 12 21l227 598h120l223 -598q5 -13 12 -21q7 -7 26 -7h18v-60h-269v60h48q25 0 25 20q0 3 -2 11q-1 4 -3 14l-44 123h-247l-44 -123q-1 -5 -3 -13t-2 -11q0 -20 25 -20h48v-60h-215v60zM317 565l-99 -273h199l-97 273h-3z" />
    <glyph glyph-name="B" unicode="B" horiz-adv-x="636" 
d="M40 60l50 -2q25 0 25 25v510q0 25 -25 25h-47v60h302q122 0 177 -43t55 -117q0 -33 -15 -60q-16 -29 -37 -47q-24 -20 -51 -32q-26 -11 -54 -16v-3q32 -3 65 -15t60 -33q28 -21 45 -49q18 -29 18 -66q0 -44 -15 -80q-16 -37 -46 -62q-31 -25 -81 -40t-120 -15h-306v60z
M316 63h-1q78 0 117 30t39 100q0 129 -158 129h-67v-259h70zM245 385h68q63 0 97 29q33 28 33 92q0 50 -33 79q-32 28 -94 28h-71v-228z" />
    <glyph glyph-name="C" unicode="C" horiz-adv-x="673" 
d="M562 189l60 -2v-144q0 -16 -8 -24q-7 -7 -23 -12q-36 -9 -85 -14q-54 -6 -109 -6q-85 0 -153 24q-67 24 -114 68t-71 107t-24 143q0 83 27 149t77 113t118 72q70 26 152 26q56 0 100 -6q38 -5 73 -14q15 -4 23 -11q8 -6 8 -23v-134h-69v29q0 24 -4 39q-4 17 -18 27
q-16 14 -42 20q-27 6 -72 6q-50 0 -93 -17q-42 -17 -72 -51q-31 -36 -47 -88q-17 -56 -17 -127q0 -69 17 -123q16 -52 47 -87q30 -34 74 -51q45 -17 96 -17q53 0 83 6t47 23q19 19 19 60v39z" />
    <glyph glyph-name="D" unicode="D" horiz-adv-x="748" 
d="M40 60l48 1q25 0 25 25v510q0 25 -25 25h-47v60h294q77 0 144 -18q68 -18 119 -57t81 -100t30 -148q0 -90 -30 -157t-82 -112q-52 -44 -123 -67q-69 -22 -151 -22h-283v60zM306 66v-1q59 0 107 15q49 15 83 48t54 87q19 53 19 131q0 74 -18 125q-18 52 -51 83
q-32 31 -82 46t-111 15h-63v-549h62z" />
    <glyph glyph-name="E" unicode="E" horiz-adv-x="595" 
d="M432 67q50 0 50 52v43h68v-137q0 -25 -24 -25h-486v60h47q25 0 25 25v510q0 25 -25 25h-47v60h470q24 0 24 -25v-132h-69v38q0 52 -49 52h-173v-232h122q25 0 25 25v41h68v-200h-68v41q0 25 -25 25h-122v-246h189z" />
    </font>
</defs>
</svg>
