<?xml version="1.0" encoding="utf-8"?>
<!-- Generator: Adobe Illustrator 26.5.0, SVG Export Plug-In . SVG Version: 6.00 Build 0)  -->
<svg version="1.0" id="Layer_1" xmlns="http://www.w3.org/2000/svg" xmlns:xlink="http://www.w3.org/1999/xlink" x="0px" y="0px"
	 viewBox="0 0 32 32" enable-background="new 0 0 32 32" xml:space="preserve">
<g>
	<defs>
		<rect id="SVGID_1_" y="0.8" width="32" height="29.3"/>
	</defs>
	<clipPath id="SVGID_00000003086885965519990070000002532754214406273460_">
		<use xlink:href="#SVGID_1_"  overflow="visible"/>
	</clipPath>
	<g clip-path="url(#SVGID_00000003086885965519990070000002532754214406273460_)">
		<path fill="#143B61" d="M24.5,30.2c0.2,0,0.4-0.1,0.4-0.2c0-0.1-0.2-0.2-0.4-0.2c-0.2,0-0.4,0.1-0.4,0.2
			C24.1,30.1,24.3,30.2,24.5,30.2z"/>
		<path fill="#143B61" d="M26.2,29C26.2,29,26.3,29,26.2,29c0.1,0.1,0.1,0.1,0.1,0.2c0,0,0,0.1,0,0.1c0,0,0,0-0.1,0.1
			c-0.1,0-0.2,0.1-0.3,0.1c-0.1,0-0.2,0-0.3-0.1c-0.2-0.1-0.2-0.2,0-0.3c0.1,0,0.2-0.1,0.3-0.1C26,28.9,26.1,28.9,26.2,29z"/>
		<path fill="#143B61" d="M27.6,28.2C27.7,28.2,27.7,28.2,27.6,28.2c0.1,0.1,0.1,0.1,0.1,0.2c0,0,0,0.1,0,0.1c0,0,0,0-0.1,0.1
			c-0.1,0-0.2,0.1-0.3,0.1c-0.1,0-0.2,0-0.3-0.1c-0.2-0.1-0.2-0.2,0-0.3c0.1,0,0.2-0.1,0.3-0.1C27.4,28.1,27.5,28.1,27.6,28.2z"/>
		<path fill="#143B61" d="M22,29.8c0.2,0.1,0.2,0.2,0,0.3c-0.1,0-0.2,0.1-0.3,0.1c-0.1,0-0.2,0-0.3-0.1c0,0-0.1,0-0.1-0.1
			c0,0,0-0.1,0-0.1c0,0,0-0.1,0-0.1c0,0,0,0,0.1-0.1c0.1,0,0.2-0.1,0.3-0.1C21.8,29.7,21.9,29.7,22,29.8z"/>
		<path fill="#143B61" d="M23.4,29c0.2,0.1,0.2,0.2,0,0.3c-0.1,0-0.2,0.1-0.3,0.1c-0.1,0-0.2,0-0.3-0.1c-0.2-0.1-0.2-0.2,0-0.3
			c0.1,0,0.2-0.1,0.3-0.1C23.2,28.9,23.3,28.9,23.4,29z"/>
		<path fill="#143B61" d="M24.8,28.2C24.8,28.2,24.9,28.2,24.8,28.2c0.1,0.1,0.1,0.1,0.1,0.2c0,0,0,0.1,0,0.1c0,0,0,0-0.1,0.1
			c-0.1,0-0.2,0.1-0.3,0.1s-0.2,0-0.3-0.1c-0.2-0.1-0.2-0.2,0-0.3c0.1,0,0.2-0.1,0.3-0.1C24.6,28.1,24.7,28.1,24.8,28.2z"/>
		<path fill="#143B61" d="M26.2,27.3C26.2,27.3,26.3,27.4,26.2,27.3c0.1,0.1,0.1,0.1,0.1,0.2c0,0,0,0.1,0,0.1c0,0,0,0-0.1,0.1
			c-0.1,0-0.2,0.1-0.3,0.1c-0.1,0-0.2,0-0.3-0.1c-0.2-0.1-0.2-0.2,0-0.3c0.1,0,0.2-0.1,0.3-0.1C26,27.3,26.1,27.3,26.2,27.3z"/>
		<path fill="#143B61" d="M18.9,30.2c0.2,0,0.4-0.1,0.4-0.2c0-0.1-0.2-0.2-0.4-0.2c-0.2,0-0.4,0.1-0.4,0.2
			C18.5,30.1,18.6,30.2,18.9,30.2z"/>
		<path fill="#143B61" d="M20.3,29.4c0.2,0,0.4-0.1,0.4-0.2c0-0.1-0.2-0.2-0.4-0.2s-0.4,0.1-0.4,0.2C19.9,29.3,20.1,29.4,20.3,29.4z
			"/>
		<path fill="#143B61" d="M21.7,28.5c0.2,0,0.4-0.1,0.4-0.2c0-0.1-0.2-0.2-0.4-0.2c-0.2,0-0.4,0.1-0.4,0.2
			C21.3,28.4,21.5,28.5,21.7,28.5z"/>
		<path fill="#143B61" d="M23.4,27.3c0.2,0.1,0.2,0.2,0,0.3c-0.1,0-0.2,0.1-0.3,0.1c-0.1,0-0.2,0-0.3-0.1c-0.2-0.1-0.2-0.2,0-0.3
			c0.1,0,0.2-0.1,0.3-0.1C23.2,27.3,23.3,27.3,23.4,27.3z"/>
		<path fill="#143B61" d="M24.8,26.5C24.8,26.5,24.9,26.5,24.8,26.5c0.1,0.1,0.1,0.1,0.1,0.2c0,0,0,0.1,0,0.1c0,0,0,0-0.1,0.1
			c-0.1,0-0.2,0.1-0.3,0.1c-0.1,0-0.2,0-0.3-0.1c-0.2-0.1-0.2-0.2,0-0.3c0.1,0,0.2-0.1,0.3-0.1S24.7,26.5,24.8,26.5z"/>
		<path fill="#143B61" d="M17.7,29c0.2,0.1,0.2,0.2,0,0.3c-0.1,0-0.2,0.1-0.3,0.1c-0.1,0-0.2,0-0.3-0.1c-0.2-0.1-0.2-0.2,0-0.3
			c0.1,0,0.2-0.1,0.3-0.1S17.6,28.9,17.7,29z"/>
		<path fill="#143B61" d="M19.1,28.2c0.2,0.1,0.2,0.2,0,0.3c-0.1,0-0.2,0.1-0.3,0.1c-0.1,0-0.2,0-0.3-0.1c0,0-0.1,0-0.1-0.1
			c0,0,0-0.1,0-0.1c0,0,0-0.1,0-0.1s0,0,0.1-0.1c0.1,0,0.2-0.1,0.3-0.1C18.9,28.1,19,28.1,19.1,28.2z"/>
		<path fill="#143B61" d="M20.5,27.3c0.2,0.1,0.2,0.2,0,0.3c-0.1,0-0.2,0.1-0.3,0.1c-0.1,0-0.2,0-0.3-0.1c0,0-0.1,0-0.1-0.1
			c0,0,0-0.1,0-0.1c0,0,0-0.1,0-0.1c0,0,0,0,0.1-0.1c0.1,0,0.2-0.1,0.3-0.1C20.4,27.3,20.5,27.3,20.5,27.3z"/>
		<path fill="#143B61" d="M22,26.5c0.2,0.1,0.2,0.2,0,0.3c-0.1,0-0.2,0.1-0.3,0.1c-0.1,0-0.2,0-0.3-0.1c0,0-0.1,0-0.1-0.1
			c0,0,0-0.1,0-0.1c0,0,0-0.1,0-0.1c0,0,0,0,0.1-0.1c0.1,0,0.2-0.1,0.3-0.1C21.8,26.4,21.9,26.5,22,26.5z"/>
		<path fill="#143B61" d="M23.4,25.7c0.2,0.1,0.2,0.2,0,0.3c-0.1,0-0.2,0.1-0.3,0.1c-0.1,0-0.2,0-0.3-0.1c-0.2-0.1-0.2-0.2,0-0.3
			c0.1,0,0.2-0.1,0.3-0.1C23.2,25.6,23.3,25.6,23.4,25.7z"/>
		<path fill="#143B61" d="M16,28.5c0.2,0,0.4-0.1,0.4-0.2c0-0.1-0.2-0.2-0.4-0.2c-0.2,0-0.4,0.1-0.4,0.2
			C15.6,28.4,15.8,28.5,16,28.5z"/>
		<path fill="#143B61" d="M17.7,27.3c0.2,0.1,0.2,0.2,0,0.3c-0.1,0-0.2,0.1-0.3,0.1s-0.2,0-0.3-0.1c-0.2-0.1-0.2-0.2,0-0.3
			c0.1,0,0.2-0.1,0.3-0.1S17.6,27.3,17.7,27.3z"/>
		<path fill="#143B61" d="M19.1,26.5c0.2,0.1,0.2,0.2,0,0.3c-0.1,0-0.2,0.1-0.3,0.1c-0.1,0-0.2,0-0.3-0.1c0,0-0.1,0-0.1-0.1
			c0,0,0-0.1,0-0.1c0,0,0-0.1,0-0.1c0,0,0,0,0.1-0.1c0.1,0,0.2-0.1,0.3-0.1C18.9,26.4,19,26.5,19.1,26.5z"/>
		<path fill="#143B61" d="M20.3,26.1c0.2,0,0.4-0.1,0.4-0.2c0-0.1-0.2-0.2-0.4-0.2s-0.4,0.1-0.4,0.2C19.9,26,20.1,26.1,20.3,26.1z"
			/>
		<path fill="#143B61" d="M21.7,25.3c0.2,0,0.4-0.1,0.4-0.2c0-0.1-0.2-0.2-0.4-0.2c-0.2,0-0.4,0.1-0.4,0.2
			C21.3,25.2,21.5,25.3,21.7,25.3z"/>
		<path fill="#143B61" d="M14.6,27.7c0.2,0,0.4-0.1,0.4-0.2c0-0.1-0.2-0.2-0.4-0.2s-0.4,0.1-0.4,0.2C14.2,27.6,14.4,27.7,14.6,27.7z
			"/>
		<path fill="#143B61" d="M16.3,26.5C16.3,26.5,16.3,26.5,16.3,26.5c0.1,0.1,0.1,0.1,0.1,0.2s0,0.1,0,0.1c0,0,0,0-0.1,0.1
			c-0.1,0-0.2,0.1-0.3,0.1c-0.1,0-0.2,0-0.3-0.1c-0.2-0.1-0.2-0.2,0-0.3c0.1,0,0.2-0.1,0.3-0.1C16.1,26.4,16.2,26.5,16.3,26.5z"/>
		<path fill="#143B61" d="M17.7,25.7C17.7,25.7,17.8,25.7,17.7,25.7c0.1,0.1,0.1,0.1,0.1,0.2s0,0.1,0,0.1c0,0,0,0-0.1,0.1
			c-0.1,0-0.2,0.1-0.3,0.1c-0.1,0-0.2,0-0.3-0.1c-0.2-0.1-0.2-0.2,0-0.3c0.1,0,0.2-0.1,0.3-0.1C17.5,25.6,17.6,25.6,17.7,25.7z"/>
		<path fill="#143B61" d="M18.8,25.3c0.2,0,0.4-0.1,0.4-0.2c0-0.1-0.2-0.2-0.4-0.2c-0.2,0-0.4,0.1-0.4,0.2
			C18.5,25.2,18.6,25.3,18.8,25.3z"/>
		<path fill="#143B61" d="M20.5,24c0.2,0.1,0.2,0.2,0,0.3c-0.1,0-0.2,0.1-0.3,0.1c-0.1,0-0.2,0-0.3-0.1c-0.2-0.1-0.2-0.2,0-0.3
			c0.1,0,0.2-0.1,0.3-0.1C20.3,24,20.4,24,20.5,24z"/>
		<path fill="#143B61" d="M14.9,25.7C14.9,25.7,14.9,25.7,14.9,25.7c0.1,0.1,0.1,0.1,0.1,0.2s0,0.1,0,0.1c0,0,0,0-0.1,0.1
			c-0.1,0-0.2,0.1-0.3,0.1c-0.1,0-0.2,0-0.3-0.1c-0.2-0.1-0.2-0.2,0-0.3c0.1,0,0.2-0.1,0.3-0.1C14.7,25.6,14.8,25.6,14.9,25.7z"/>
		<path fill="#143B61" d="M16.3,24.9C16.3,24.9,16.3,24.9,16.3,24.9c0.1,0.1,0.1,0.1,0.1,0.2s0,0.1,0,0.1c0,0,0,0-0.1,0.1
			c-0.1,0-0.2,0.1-0.3,0.1c-0.1,0-0.2,0-0.3-0.1c-0.2-0.1-0.2-0.2,0-0.3c0.1,0,0.2-0.1,0.3-0.1C16.1,24.8,16.2,24.8,16.3,24.9z"/>
		<path fill="#143B61" d="M17.4,24.4c0.2,0,0.4-0.1,0.4-0.2c0-0.1-0.2-0.2-0.4-0.2c-0.2,0-0.4,0.1-0.4,0.2
			C17,24.3,17.2,24.4,17.4,24.4z"/>
		<path fill="#143B61" d="M18.8,23.6c0.2,0,0.4-0.1,0.4-0.2c0-0.1-0.2-0.2-0.4-0.2c-0.2,0-0.4,0.1-0.4,0.2
			C18.5,23.5,18.6,23.6,18.8,23.6z"/>
		<path fill="#143B61" d="M11.8,26.1c0.2,0,0.4-0.1,0.4-0.2c0-0.1-0.2-0.2-0.4-0.2c-0.2,0-0.4,0.1-0.4,0.2
			C11.4,26,11.5,26.1,11.8,26.1z"/>
		<path fill="#143B61" d="M13.4,24.9c0.2,0.1,0.2,0.2,0,0.3c-0.1,0-0.2,0.1-0.3,0.1c-0.1,0-0.2,0-0.3-0.1c-0.2-0.1-0.2-0.2,0-0.3
			c0.1,0,0.2-0.1,0.3-0.1C13.3,24.8,13.4,24.8,13.4,24.9z"/>
		<path fill="#143B61" d="M14.6,24.4c0.2,0,0.4-0.1,0.4-0.2c0-0.1-0.2-0.2-0.4-0.2s-0.4,0.1-0.4,0.2C14.2,24.3,14.4,24.4,14.6,24.4z
			"/>
		<path fill="#143B61" d="M16.3,23.3C16.3,23.3,16.3,23.3,16.3,23.3c0.1,0.1,0.1,0.1,0.1,0.2c0,0,0,0.1,0,0.1c0,0,0,0-0.1,0.1
			c-0.1,0-0.2,0.1-0.3,0.1c-0.1,0-0.2,0-0.3-0.1c-0.2-0.1-0.2-0.2,0-0.3c0.1,0,0.2-0.1,0.3-0.1C16.1,23.2,16.2,23.2,16.3,23.3z"/>
		<path fill="#143B61" d="M17.7,22.4C17.7,22.4,17.8,22.4,17.7,22.4c0.1,0.1,0.1,0.1,0.1,0.2s0,0.1,0,0.1c0,0,0,0-0.1,0.1
			c-0.1,0-0.2,0.1-0.3,0.1c-0.1,0-0.2,0-0.3-0.1c-0.2-0.1-0.2-0.2,0-0.3c0.1,0,0.2-0.1,0.3-0.1C17.5,22.3,17.6,22.4,17.7,22.4z"/>
		<path fill="#143B61" d="M9.2,25.7c0.2,0.1,0.2,0.2,0,0.3c-0.1,0-0.2,0.1-0.3,0.1c-0.1,0-0.2,0-0.3-0.1c0,0-0.1,0-0.1-0.1
			c0,0,0-0.1,0-0.1s0-0.1,0-0.1c0,0,0,0,0.1-0.1c0.1,0,0.2-0.1,0.3-0.1S9.1,25.6,9.2,25.7z"/>
		<path fill="#143B61" d="M10.6,24.9c0.2,0.1,0.2,0.2,0,0.3c-0.1,0-0.2,0.1-0.3,0.1c-0.1,0-0.2,0-0.3-0.1c0,0-0.1,0-0.1-0.1
			c0,0,0-0.1,0-0.1s0-0.1,0-0.1c0,0,0,0,0.1-0.1c0.1,0,0.2-0.1,0.3-0.1C10.4,24.8,10.5,24.8,10.6,24.9z"/>
		<path fill="#143B61" d="M12,24.1c0.2,0.1,0.2,0.2,0,0.3c-0.1,0-0.2,0.1-0.3,0.1c-0.1,0-0.2,0-0.3-0.1c0,0-0.1,0-0.1-0.1
			c0,0,0-0.1,0-0.1c0,0,0-0.1,0-0.1c0,0,0,0,0.1-0.1c0.1,0,0.2-0.1,0.3-0.1C11.8,24,11.9,24,12,24.1z"/>
		<path fill="#143B61" d="M13.4,23.3c0.2,0.1,0.2,0.2,0,0.3c-0.1,0-0.2,0.1-0.3,0.1c-0.1,0-0.2,0-0.3-0.1c-0.2-0.1-0.2-0.2,0-0.3
			c0.1,0,0.2-0.1,0.3-0.1C13.3,23.2,13.4,23.2,13.4,23.3z"/>
		<path fill="#143B61" d="M14.6,22.8c0.2,0,0.4-0.1,0.4-0.2c0-0.1-0.2-0.2-0.4-0.2s-0.4,0.1-0.4,0.2C14.2,22.7,14.4,22.8,14.6,22.8z
			"/>
		<path fill="#143B61" d="M16.3,21.6C16.3,21.6,16.3,21.6,16.3,21.6c0.1,0.1,0.1,0.1,0.1,0.2s0,0.1,0,0.1c0,0,0,0-0.1,0.1
			c-0.1,0-0.2,0.1-0.3,0.1c-0.1,0-0.2,0-0.3-0.1c-0.2-0.1-0.2-0.2,0-0.3c0.1,0,0.2-0.1,0.3-0.1C16.1,21.5,16.2,21.5,16.3,21.6z"/>
		<path fill="#143B61" d="M6.1,26.1c0.2,0,0.4-0.1,0.4-0.2c0-0.1-0.2-0.2-0.4-0.2c-0.2,0-0.4,0.1-0.4,0.2C5.7,26,5.9,26.1,6.1,26.1z
			"/>
		<path fill="#143B61" d="M7.8,24.9c0.2,0.1,0.2,0.2,0,0.3c-0.1,0-0.2,0.1-0.3,0.1c-0.1,0-0.2,0-0.3-0.1c-0.2-0.1-0.2-0.2,0-0.3
			c0.1,0,0.2-0.1,0.3-0.1C7.6,24.8,7.7,24.8,7.8,24.9z"/>
		<path fill="#143B61" d="M9.2,24.1c0.2,0.1,0.2,0.2,0,0.3c-0.1,0-0.2,0.1-0.3,0.1c-0.1,0-0.2,0-0.3-0.1c0,0-0.1,0-0.1-0.1
			s0-0.1,0-0.1c0,0,0-0.1,0-0.1c0,0,0,0,0.1-0.1C8.7,24,8.8,24,8.9,24C9,24,9.1,24,9.2,24.1z"/>
		<path fill="#143B61" d="M10.6,23.3c0.2,0.1,0.2,0.2,0,0.3c-0.1,0-0.2,0.1-0.3,0.1c-0.1,0-0.2,0-0.3-0.1c0,0-0.1,0-0.1-0.1
			c0,0,0-0.1,0-0.1c0,0,0-0.1,0-0.1c0,0,0.1,0,0.1-0.1c0.1,0,0.2-0.1,0.3-0.1C10.4,23.2,10.5,23.2,10.6,23.3z"/>
		<path fill="#143B61" d="M11.8,22.8c0.2,0,0.4-0.1,0.4-0.2c0-0.1-0.2-0.2-0.4-0.2c-0.2,0-0.4,0.1-0.4,0.2
			C11.4,22.7,11.5,22.8,11.8,22.8z"/>
		<path fill="#143B61" d="M13.4,21.6c0.2,0.1,0.2,0.2,0,0.3c-0.1,0-0.2,0.1-0.3,0.1c-0.1,0-0.2,0-0.3-0.1c-0.2-0.1-0.2-0.2,0-0.3
			c0.1,0,0.2-0.1,0.3-0.1C13.3,21.5,13.4,21.5,13.4,21.6z"/>
		<path fill="#143B61" d="M14.9,20.8C14.9,20.8,14.9,20.8,14.9,20.8c0.1,0.1,0.1,0.1,0.1,0.2s0,0.1,0,0.1c0,0,0,0-0.1,0.1
			c-0.1,0-0.2,0.1-0.3,0.1c-0.1,0-0.2,0-0.3-0.1c-0.2-0.1-0.2-0.2,0-0.3c0.1,0,0.2-0.1,0.3-0.1C14.7,20.7,14.8,20.7,14.9,20.8z"/>
		<path fill="#143B61" d="M4.9,24.9C5,24.9,5,24.9,4.9,24.9C5,25,5,25,5,25s0,0.1,0,0.1c0,0,0,0-0.1,0.1c-0.1,0-0.2,0.1-0.3,0.1
			c-0.1,0-0.2,0-0.3-0.1c-0.2-0.1-0.2-0.2,0-0.3c0.1,0,0.2-0.1,0.3-0.1C4.8,24.8,4.9,24.8,4.9,24.9z"/>
		<path fill="#143B61" d="M6.4,24.1c0.2,0.1,0.2,0.2,0,0.3c-0.1,0-0.2,0.1-0.3,0.1c-0.1,0-0.2,0-0.3-0.1c-0.2-0.1-0.2-0.2,0-0.3
			C5.9,24,6,24,6.1,24C6.2,24,6.3,24,6.4,24.1z"/>
		<path fill="#143B61" d="M7.8,23.3c0.2,0.1,0.2,0.2,0,0.3c-0.1,0-0.2,0.1-0.3,0.1c-0.1,0-0.2,0-0.3-0.1c-0.2-0.1-0.2-0.2,0-0.3
			c0.1,0,0.2-0.1,0.3-0.1C7.6,23.2,7.7,23.2,7.8,23.3z"/>
		<path fill="#143B61" d="M9.2,22.4c0.2,0.1,0.2,0.2,0,0.3c-0.1,0-0.2,0.1-0.3,0.1s-0.2,0-0.3-0.1c0,0-0.1,0-0.1-0.1
			c0,0,0-0.1,0-0.1s0-0.1,0-0.1c0,0,0,0,0.1-0.1c0.1,0,0.2-0.1,0.3-0.1C9,22.3,9.1,22.4,9.2,22.4z"/>
		<path fill="#143B61" d="M10.3,22c0.2,0,0.4-0.1,0.4-0.2c0-0.1-0.2-0.2-0.4-0.2S10,21.6,10,21.7C10,21.9,10.1,22,10.3,22z"/>
		<path fill="#143B61" d="M11.8,21.2c0.2,0,0.4-0.1,0.4-0.2c0-0.1-0.2-0.2-0.4-0.2c-0.2,0-0.4,0.1-0.4,0.2
			C11.4,21.1,11.5,21.2,11.8,21.2z"/>
		<path fill="#143B61" d="M13.4,20c0.2,0.1,0.2,0.2,0,0.3c-0.1,0-0.2,0.1-0.3,0.1c-0.1,0-0.2,0-0.3-0.1c-0.2-0.1-0.2-0.2,0-0.3
			c0.1,0,0.2-0.1,0.3-0.1C13.3,19.9,13.4,19.9,13.4,20z"/>
		<path fill="#143B61" d="M3.2,24.4c0.2,0,0.4-0.1,0.4-0.2c0-0.1-0.2-0.2-0.4-0.2c-0.2,0-0.4,0.1-0.4,0.2C2.9,24.3,3,24.4,3.2,24.4z
			"/>
		<path fill="#143B61" d="M4.9,23.3C5,23.3,5,23.3,4.9,23.3C5,23.3,5,23.4,5,23.4c0,0,0,0.1,0,0.1c0,0,0,0-0.1,0.1
			c-0.1,0-0.2,0.1-0.3,0.1c-0.1,0-0.2,0-0.3-0.1c-0.2-0.1-0.2-0.2,0-0.3c0.1,0,0.2-0.1,0.3-0.1C4.8,23.2,4.9,23.2,4.9,23.3z"/>
		<path fill="#143B61" d="M6.1,22.8c0.2,0,0.4-0.1,0.4-0.2c0-0.1-0.2-0.2-0.4-0.2c-0.2,0-0.4,0.1-0.4,0.2
			C5.7,22.7,5.9,22.8,6.1,22.8z"/>
		<path fill="#143B61" d="M7.8,21.6c0.2,0.1,0.2,0.2,0,0.3c-0.1,0-0.2,0.1-0.3,0.1c-0.1,0-0.2,0-0.3-0.1c-0.2-0.1-0.2-0.2,0-0.3
			c0.1,0,0.2-0.1,0.3-0.1C7.6,21.5,7.7,21.5,7.8,21.6z"/>
		<path fill="#143B61" d="M9.2,20.8c0.2,0.1,0.2,0.2,0,0.3c-0.1,0-0.2,0.1-0.3,0.1c-0.1,0-0.2,0-0.3-0.1c0,0-0.1,0-0.1-0.1
			c0,0,0-0.1,0-0.1s0-0.1,0-0.1c0,0,0,0,0.1-0.1c0.1,0,0.2-0.1,0.3-0.1C9,20.7,9.1,20.7,9.2,20.8z"/>
		<path fill="#143B61" d="M10.3,20.3c0.2,0,0.4-0.1,0.4-0.2c0-0.1-0.2-0.2-0.4-0.2S10,20,10,20.1C10,20.2,10.1,20.3,10.3,20.3z"/>
		<path fill="#143B61" d="M12,19.1c0.2,0.1,0.2,0.2,0,0.3c-0.1,0-0.2,0.1-0.3,0.1c-0.1,0-0.2,0-0.3-0.1c0,0-0.1,0-0.1-0.1
			c0,0,0-0.1,0-0.1c0,0,0-0.1,0-0.1c0,0,0,0,0.1-0.1c0.1,0,0.2-0.1,0.3-0.1C11.8,19.1,11.9,19.1,12,19.1z"/>
		<path fill="#143B61" d="M1.8,23.6c0.2,0,0.4-0.1,0.4-0.2c0-0.1-0.2-0.2-0.4-0.2c-0.2,0-0.4,0.1-0.4,0.2
			C1.5,23.5,1.6,23.6,1.8,23.6z"/>
		<path fill="#143B61" d="M3.5,22.4C3.6,22.4,3.6,22.4,3.5,22.4c0.1,0.1,0.1,0.1,0.1,0.2s0,0.1,0,0.1c0,0,0,0-0.1,0.1
			c-0.1,0-0.2,0.1-0.3,0.1c-0.1,0-0.2,0-0.3-0.1c-0.2-0.1-0.2-0.2,0-0.3c0.1,0,0.2-0.1,0.3-0.1C3.3,22.3,3.4,22.4,3.5,22.4z"/>
		<path fill="#143B61" d="M4.9,21.6C5,21.6,5,21.6,4.9,21.6C5,21.7,5,21.7,5,21.7s0,0.1,0,0.1c0,0,0,0-0.1,0.1
			c-0.1,0-0.2,0.1-0.3,0.1c-0.1,0-0.2,0-0.3-0.1c-0.2-0.1-0.2-0.2,0-0.3c0.1,0,0.2-0.1,0.3-0.1C4.8,21.5,4.9,21.5,4.9,21.6z"/>
		<path fill="#143B61" d="M6.4,20.8c0.2,0.1,0.2,0.2,0,0.3c-0.1,0-0.2,0.1-0.3,0.1c-0.1,0-0.2,0-0.3-0.1c-0.2-0.1-0.2-0.2,0-0.3
			c0.1,0,0.2-0.1,0.3-0.1C6.2,20.7,6.3,20.7,6.4,20.8z"/>
		<path fill="#143B61" d="M7.8,20c0.2,0.1,0.2,0.2,0,0.3c-0.1,0-0.2,0.1-0.3,0.1c-0.1,0-0.2,0-0.3-0.1c-0.2-0.1-0.2-0.2,0-0.3
			c0.1,0,0.2-0.1,0.3-0.1C7.6,19.9,7.7,19.9,7.8,20z"/>
		<path fill="#143B61" d="M9.2,19.1c0.2,0.1,0.2,0.2,0,0.3c-0.1,0-0.2,0.1-0.3,0.1c-0.1,0-0.2,0-0.3-0.1c0,0-0.1,0-0.1-0.1
			s0-0.1,0-0.1c0,0,0-0.1,0-0.1c0,0,0,0,0.1-0.1c0.1,0,0.2-0.1,0.3-0.1S9.1,19.1,9.2,19.1z"/>
		<path fill="#143B61" d="M10.6,18.3c0.2,0.1,0.2,0.2,0,0.3c-0.1,0-0.2,0.1-0.3,0.1c-0.1,0-0.2,0-0.3-0.1c0,0-0.1,0-0.1-0.1
			c0,0,0-0.1,0-0.1c0,0,0-0.1,0-0.1c0,0,0,0,0.1-0.1c0.1,0,0.2-0.1,0.3-0.1C10.4,18.2,10.5,18.3,10.6,18.3z"/>
		<path fill="#143B61" d="M2.1,21.6c0.2,0.1,0.2,0.2,0,0.3C2,21.9,1.9,22,1.8,22c-0.1,0-0.2,0-0.3-0.1c0,0-0.1,0-0.1-0.1
			c0,0,0-0.1,0-0.1c0,0,0-0.1,0-0.1c0,0,0,0,0.1-0.1c0.1,0,0.2-0.1,0.3-0.1C1.9,21.5,2,21.5,2.1,21.6z"/>
		<path fill="#143B61" d="M3.5,20.8c0.2,0.1,0.2,0.2,0,0.3c-0.1,0-0.2,0.1-0.3,0.1c-0.1,0-0.2,0-0.3-0.1c-0.2-0.1-0.2-0.2,0-0.3
			c0.1,0,0.2-0.1,0.3-0.1C3.3,20.7,3.4,20.7,3.5,20.8z"/>
		<path fill="#143B61" d="M4.9,19.9C5,20,5,20,4.9,19.9C5,20,5,20.1,5,20.1c0,0,0,0.1,0,0.1c0,0,0,0-0.1,0.1c-0.1,0-0.2,0.1-0.3,0.1
			c-0.1,0-0.2,0-0.3-0.1c-0.2-0.1-0.2-0.2,0-0.3c0.1,0,0.2-0.1,0.3-0.1C4.7,19.9,4.8,19.9,4.9,19.9z"/>
		<path fill="#143B61" d="M6.3,19.1C6.4,19.1,6.4,19.2,6.3,19.1c0.1,0.1,0.1,0.1,0.1,0.2c0,0,0,0.1,0,0.1c0,0,0,0-0.1,0.1
			c-0.1,0-0.2,0.1-0.3,0.1c-0.1,0-0.2,0-0.3-0.1c-0.2-0.1-0.2-0.2,0-0.3c0.1,0,0.2-0.1,0.3-0.1C6.2,19.1,6.3,19.1,6.3,19.1z"/>
		<path fill="#143B61" d="M7.5,18.7c0.2,0,0.4-0.1,0.4-0.2c0-0.1-0.2-0.2-0.4-0.2s-0.4,0.1-0.4,0.2C7.1,18.6,7.3,18.7,7.5,18.7z"/>
		<path fill="#143B61" d="M9.2,17.5c0.2,0.1,0.2,0.2,0,0.3c-0.1,0-0.2,0.1-0.3,0.1c-0.1,0-0.2,0-0.3-0.1c-0.2-0.1-0.2-0.2,0-0.3
			c0.1,0,0.2-0.1,0.3-0.1C9,17.4,9.1,17.4,9.2,17.5z"/>
		<path fill="#143B61" d="M1.8,20.3c0.2,0,0.4-0.1,0.4-0.2c0-0.1-0.2-0.2-0.4-0.2S1.4,20,1.4,20.1C1.4,20.2,1.6,20.3,1.8,20.3z"/>
		<path fill="#143B61" d="M3.5,19.1c0.2,0.1,0.2,0.2,0,0.3c-0.1,0-0.2,0.1-0.3,0.1c-0.1,0-0.2,0-0.3-0.1c-0.2-0.1-0.2-0.2,0-0.3
			c0.1,0,0.2-0.1,0.3-0.1C3.3,19.1,3.4,19.1,3.5,19.1z"/>
		<path fill="#143B61" d="M4.7,18.7c0.2,0,0.4-0.1,0.4-0.2c0-0.1-0.2-0.2-0.4-0.2c-0.2,0-0.4,0.1-0.4,0.2
			C4.3,18.6,4.4,18.7,4.7,18.7z"/>
		<path fill="#143B61" d="M5.8,17.5c0.1,0,0.2-0.1,0.3-0.1c0.1,0,0.2,0,0.3,0.1c0,0,0.1,0,0.1,0.1c0,0,0,0.1,0,0.1s0,0.1,0,0.1
			c0,0,0,0-0.1,0.1c-0.1,0-0.2,0.1-0.3,0.1c-0.1,0-0.2,0-0.3-0.1C5.7,17.7,5.7,17.6,5.8,17.5z"/>
		<path fill="#143B61" d="M7.2,16.7c0.1,0,0.2-0.1,0.3-0.1s0.2,0,0.3,0.1c0,0,0.1,0,0.1,0.1c0,0,0,0.1,0,0.1s0,0.1,0,0.1
			c0,0,0,0-0.1,0.1c-0.1,0-0.2,0.1-0.3,0.1c-0.1,0-0.2,0-0.3-0.1C7.1,16.9,7.1,16.8,7.2,16.7C7.4,16.6,7.1,16.8,7.2,16.7z"/>
		<path fill="#143B61" d="M28.8,27.7c0.2,0,0.4-0.1,0.4-0.2s-0.2-0.2-0.4-0.2c-0.2,0-0.4,0.1-0.4,0.2S28.6,27.7,28.8,27.7z"/>
		<path fill="#143B61" d="M30.5,26.5c0.2,0.1,0.2,0.2,0,0.3c-0.1,0-0.2,0.1-0.3,0.1c-0.1,0-0.2,0-0.3-0.1c-0.2-0.1-0.2-0.2,0-0.3
			c0.1,0,0.2-0.1,0.3-0.1C30.3,26.5,30.4,26.5,30.5,26.5z"/>
		<path fill="#143B61" d="M31.9,25.7c0.2,0.1,0.2,0.2,0,0.3c-0.1,0-0.2,0.1-0.3,0.1c-0.1,0-0.2,0-0.3-0.1c-0.2-0.1-0.2-0.2,0-0.3
			c0.1,0,0.2-0.1,0.3-0.1C31.7,25.6,31.8,25.7,31.9,25.7z"/>
		<path fill="#143B61" d="M27.1,26.5c0.1,0,0.2-0.1,0.3-0.1c0.1,0,0.2,0,0.3,0.1c0.2,0.1,0.2,0.2,0,0.3c-0.1,0-0.2,0.1-0.3,0.1
			c-0.1,0-0.2,0-0.3-0.1C26.9,26.8,26.9,26.6,27.1,26.5z"/>
		<path fill="#143B61" d="M29.1,25.7C29.1,25.7,29.1,25.7,29.1,25.7c0.1,0.1,0.1,0.1,0.1,0.2c0,0,0,0.1,0,0.1c0,0,0,0-0.1,0.1
			c-0.1,0-0.2,0.1-0.3,0.1c-0.1,0-0.2,0-0.3-0.1c-0.2-0.1-0.2-0.2,0-0.3c0.1,0,0.2-0.1,0.3-0.1C28.9,25.6,29,25.7,29.1,25.7z"/>
		<path fill="#143B61" d="M30.5,24.9C30.5,24.9,30.5,24.9,30.5,24.9c0.1,0.1,0.1,0.1,0.1,0.2c0,0,0,0.1,0,0.1c0,0-0.1,0-0.1,0.1
			c-0.1,0-0.2,0.1-0.3,0.1c-0.1,0-0.2,0-0.3-0.1c0,0-0.1,0-0.1-0.1c0,0,0-0.1,0-0.1c0,0,0-0.1,0-0.1c0,0,0.1,0,0.1-0.1
			c0.1,0,0.2-0.1,0.3-0.1C30.3,24.8,30.4,24.8,30.5,24.9z"/>
		<path fill="#143B61" d="M31.9,24.1c0.2,0.1,0.2,0.2,0,0.3c-0.1,0-0.2,0.1-0.3,0.1c-0.1,0-0.2,0-0.3-0.1c-0.2-0.1-0.2-0.2,0-0.3
			c0.1,0,0.2-0.1,0.3-0.1C31.7,24,31.8,24,31.9,24.1z"/>
		<path fill="#143B61" d="M25.7,25.7c0.1,0,0.2-0.1,0.3-0.1c0.1,0,0.2,0,0.3,0.1c0.2,0.1,0.2,0.2,0,0.3c-0.1,0-0.2,0.1-0.3,0.1
			c-0.1,0-0.2,0-0.3-0.1c0,0-0.1,0-0.1-0.1c0,0,0-0.1,0-0.1C25.6,25.8,25.6,25.8,25.7,25.7C25.6,25.7,25.6,25.7,25.7,25.7z"/>
		<path fill="#143B61" d="M27.6,24.9C27.7,24.9,27.7,24.9,27.6,24.9c0.1,0.1,0.1,0.1,0.1,0.2c0,0,0,0.1,0,0.1c0,0,0,0-0.1,0.1
			c-0.1,0-0.2,0.1-0.3,0.1c-0.1,0-0.2,0-0.3-0.1c0,0-0.1,0-0.1-0.1c0,0,0-0.1,0-0.1c0,0,0-0.1,0-0.1c0,0,0.1,0,0.1-0.1
			c0.1,0,0.2-0.1,0.3-0.1C27.5,24.8,27.6,24.8,27.6,24.9z"/>
		<path fill="#143B61" d="M28.8,24.5c0.2,0,0.4-0.1,0.4-0.2S29,24,28.8,24c-0.2,0-0.4,0.1-0.4,0.2S28.6,24.5,28.8,24.5z"/>
		<path fill="#143B61" d="M30.5,23.3c0.2,0.1,0.2,0.2,0,0.3c-0.1,0-0.2,0.1-0.3,0.1c-0.1,0-0.2,0-0.3-0.1c-0.2-0.1-0.2-0.2,0-0.3
			c0.1,0,0.2-0.1,0.3-0.1C30.3,23.2,30.4,23.2,30.5,23.3z"/>
		<path fill="#143B61" d="M24.3,24.9c0.1,0,0.2-0.1,0.3-0.1c0.1,0,0.2,0,0.3,0.1c0.2,0.1,0.2,0.2,0,0.3c-0.1,0-0.2,0.1-0.3,0.1
			c-0.1,0-0.2,0-0.3-0.1c0,0-0.1,0-0.1-0.1c0,0,0-0.1,0-0.1C24.1,25,24.2,25,24.3,24.9C24.2,24.9,24.2,24.9,24.3,24.9z"/>
		<path fill="#143B61" d="M26.2,24.1c0.2,0.1,0.2,0.2,0,0.3c-0.1,0-0.2,0.1-0.3,0.1c-0.1,0-0.2,0-0.3-0.1c-0.2-0.1-0.2-0.2,0-0.3
			c0.1,0,0.2-0.1,0.3-0.1C26,24,26.1,24,26.2,24.1z"/>
		<path fill="#143B61" d="M27.6,23.3C27.7,23.3,27.7,23.3,27.6,23.3c0.1,0.1,0.1,0.1,0.1,0.2c0,0,0,0.1,0,0.1c0,0,0,0-0.1,0.1
			c-0.1,0-0.2,0.1-0.3,0.1c-0.1,0-0.2,0-0.3-0.1c-0.2-0.1-0.2-0.2,0-0.3c0.1,0,0.2-0.1,0.3-0.1C27.5,23.2,27.6,23.2,27.6,23.3z"/>
		<path fill="#143B61" d="M28.8,22.8c0.2,0,0.4-0.1,0.4-0.2s-0.2-0.2-0.4-0.2c-0.2,0-0.4,0.1-0.4,0.2S28.6,22.8,28.8,22.8z"/>
		<path fill="#143B61" d="M30.5,21.9c-0.1,0-0.2,0.1-0.3,0.1c-0.1,0-0.2,0-0.3-0.1c-0.2-0.1-0.2-0.2,0-0.3c0.1,0,0.2-0.1,0.3-0.1
			c0.1,0,0.2,0,0.3,0.1C30.6,21.7,30.6,21.8,30.5,21.9z"/>
		<path fill="#143B61" d="M22.8,24.1c0.1,0,0.2-0.1,0.3-0.1c0.1,0,0.2,0,0.3,0.1c0.2,0.1,0.2,0.2,0,0.3c-0.1,0-0.2,0.1-0.3,0.1
			c-0.1,0-0.2,0-0.3-0.1C22.7,24.3,22.7,24.2,22.8,24.1z"/>
		<path fill="#143B61" d="M24.8,23.3c0.2,0.1,0.2,0.2,0,0.3c-0.1,0-0.2,0.1-0.3,0.1c-0.1,0-0.2,0-0.3-0.1c0,0-0.1,0-0.1-0.1
			c0,0,0-0.1,0-0.1c0,0,0-0.1,0-0.1c0,0,0,0,0.1-0.1c0.1,0,0.2-0.1,0.3-0.1C24.6,23.2,24.7,23.2,24.8,23.3z"/>
		<path fill="#143B61" d="M25.9,22.8c0.2,0,0.4-0.1,0.4-0.2s-0.2-0.2-0.4-0.2c-0.2,0-0.4,0.1-0.4,0.2S25.7,22.8,25.9,22.8z"/>
		<path fill="#143B61" d="M27.6,21.6C27.7,21.6,27.7,21.6,27.6,21.6c0.1,0.1,0.1,0.1,0.1,0.2c0,0,0,0.1,0,0.1c0,0,0,0-0.1,0.1
			c-0.1,0-0.2,0.1-0.3,0.1c-0.1,0-0.2,0-0.3-0.1c-0.2-0.1-0.2-0.2,0-0.3c0.1,0,0.2-0.1,0.3-0.1C27.5,21.5,27.6,21.6,27.6,21.6z"/>
		<path fill="#143B61" d="M28.8,21.2c0.2,0,0.4-0.1,0.4-0.2c0-0.1-0.2-0.2-0.4-0.2c-0.2,0-0.4,0.1-0.4,0.2
			C28.4,21.1,28.6,21.2,28.8,21.2z"/>
		<path fill="#143B61" d="M21.4,23.3c0.1,0,0.2-0.1,0.3-0.1c0.1,0,0.2,0,0.3,0.1c0,0,0.1,0,0.1,0.1c0,0,0,0.1,0,0.1c0,0,0,0.1,0,0.1
			c0,0,0,0-0.1,0.1c-0.1,0-0.2,0.1-0.3,0.1c-0.1,0-0.2,0-0.3-0.1C21.3,23.5,21.3,23.3,21.4,23.3z"/>
		<path fill="#143B61" d="M23.4,22.4c0.2,0.1,0.2,0.2,0,0.3c-0.1,0-0.2,0.1-0.3,0.1c-0.1,0-0.2,0-0.3-0.1c-0.2-0.1-0.2-0.2,0-0.3
			c0.1,0,0.2-0.1,0.3-0.1C23.2,22.4,23.3,22.4,23.4,22.4z"/>
		<path fill="#143B61" d="M24.5,22c0.2,0,0.4-0.1,0.4-0.2c0-0.1-0.2-0.2-0.4-0.2c-0.2,0-0.4,0.1-0.4,0.2C24.1,21.9,24.3,22,24.5,22z
			"/>
		<path fill="#143B61" d="M26.2,20.8c0.2,0.1,0.2,0.2,0,0.3c-0.1,0-0.2,0.1-0.3,0.1c-0.1,0-0.2,0-0.3-0.1c0,0-0.1,0-0.1-0.1
			c0,0,0-0.1,0-0.1s0-0.1,0-0.1c0,0,0,0,0.1-0.1c0.1,0,0.2-0.1,0.3-0.1C26,20.7,26.1,20.7,26.2,20.8z"/>
		<path fill="#143B61" d="M27.4,20.3c0.2,0,0.4-0.1,0.4-0.2c0-0.1-0.2-0.2-0.4-0.2c-0.2,0-0.4,0.1-0.4,0.2
			C27,20.2,27.1,20.3,27.4,20.3z"/>
		<path fill="#143B61" d="M20,22.4c0.1,0,0.2-0.1,0.3-0.1c0.1,0,0.2,0,0.3,0.1c0.2,0.1,0.2,0.2,0,0.3c-0.1,0-0.2,0.1-0.3,0.1
			c-0.1,0-0.2,0-0.3-0.1C19.8,22.7,19.8,22.5,20,22.4z"/>
		<path fill="#143B61" d="M22,21.6c0.2,0.1,0.2,0.2,0,0.3c-0.1,0-0.2,0.1-0.3,0.1c-0.1,0-0.2,0-0.3-0.1c-0.2-0.1-0.2-0.2,0-0.3
			c0.1,0,0.2-0.1,0.3-0.1C21.8,21.5,21.9,21.6,22,21.6z"/>
		<path fill="#143B61" d="M23.4,20.8c0.2,0.1,0.2,0.2,0,0.3c-0.1,0-0.2,0.1-0.3,0.1c-0.1,0-0.2,0-0.3-0.1c-0.2-0.1-0.2-0.2,0-0.3
			c0.1,0,0.2-0.1,0.3-0.1C23.2,20.7,23.3,20.7,23.4,20.8z"/>
		<path fill="#143B61" d="M24.5,20.3c0.2,0,0.4-0.1,0.4-0.2c0-0.1-0.2-0.2-0.4-0.2c-0.2,0-0.4,0.1-0.4,0.2
			C24.1,20.2,24.3,20.3,24.5,20.3z"/>
		<path fill="#143B61" d="M26.2,19.1c0.2,0.1,0.2,0.2,0,0.3c-0.1,0-0.2,0.1-0.3,0.1c-0.1,0-0.2,0-0.3-0.1c0,0-0.1,0-0.1-0.1
			c0,0,0-0.1,0-0.1c0,0,0-0.1,0-0.1c0,0,0,0,0.1-0.1c0.1,0,0.2-0.1,0.3-0.1C26,19.1,26.1,19.1,26.2,19.1z"/>
		<path fill="#143B61" d="M27.6,18.3c0.2,0.1,0.2,0.2,0,0.3c-0.1,0-0.2,0.1-0.3,0.1c-0.1,0-0.2,0-0.3-0.1c-0.2-0.1-0.2-0.2,0-0.3
			c0.1,0,0.2-0.1,0.3-0.1C27.4,18.3,27.5,18.3,27.6,18.3z"/>
		<path fill="#143B61" d="M18.6,21.6c0.1,0,0.2-0.1,0.3-0.1c0.1,0,0.2,0,0.3,0.1c0,0,0.1,0,0.1,0.1c0,0,0,0.1,0,0.1c0,0,0,0.1,0,0.1
			c0,0,0,0-0.1,0.1C19,22,19,22,18.9,22c-0.1,0-0.2,0-0.3-0.1C18.4,21.8,18.4,21.7,18.6,21.6z"/>
		<path fill="#143B61" d="M20.5,20.8c0.2,0.1,0.2,0.2,0,0.3c-0.1,0-0.2,0.1-0.3,0.1c-0.1,0-0.2,0-0.3-0.1c-0.2-0.1-0.2-0.2,0-0.3
			c0.1,0,0.2-0.1,0.3-0.1C20.4,20.7,20.5,20.7,20.5,20.8z"/>
		<path fill="#143B61" d="M22,20c0.2,0.1,0.2,0.2,0,0.3c-0.1,0-0.2,0.1-0.3,0.1c-0.1,0-0.2,0-0.3-0.1c-0.2-0.1-0.2-0.2,0-0.3
			c0.1,0,0.2-0.1,0.3-0.1C21.8,19.9,21.9,19.9,22,20z"/>
		<path fill="#143B61" d="M23.4,19.1c0.2,0.1,0.2,0.2,0,0.3c-0.1,0-0.2,0.1-0.3,0.1c-0.1,0-0.2,0-0.3-0.1c-0.2-0.1-0.2-0.2,0-0.3
			c0.1,0,0.2-0.1,0.3-0.1C23.2,19.1,23.3,19.1,23.4,19.1z"/>
		<path fill="#143B61" d="M24.8,18.3c0.2,0.1,0.2,0.2,0,0.3c-0.1,0-0.2,0.1-0.3,0.1c-0.1,0-0.2,0-0.3-0.1c0,0-0.1,0-0.1-0.1
			c0,0,0-0.1,0-0.1c0,0,0-0.1,0-0.1c0,0,0,0,0.1-0.1c0.1,0,0.2-0.1,0.3-0.1C24.6,18.3,24.7,18.3,24.8,18.3z"/>
		<path fill="#143B61" d="M26.2,17.5c0.2,0.1,0.2,0.2,0,0.3c-0.1,0-0.2,0.1-0.3,0.1c-0.1,0-0.2,0-0.3-0.1c0,0-0.1,0-0.1-0.1
			c0,0,0-0.1,0-0.1c0,0,0-0.1,0-0.1c0,0,0,0,0.1-0.1c0.1,0,0.2-0.1,0.3-0.1C26,17.4,26.1,17.5,26.2,17.5z"/>
		<path fill="#143B61" d="M27.6,17c-0.1,0-0.2,0.1-0.3,0.1c-0.1,0-0.2,0-0.3-0.1c-0.2-0.1-0.2-0.2,0-0.3c0.1,0,0.2-0.1,0.3-0.1
			c0.1,0,0.2,0,0.3,0.1C27.8,16.8,27.8,16.9,27.6,17z"/>
		<path fill="#143B61" d="M17.2,20.8c0.1,0,0.2-0.1,0.3-0.1c0.1,0,0.2,0,0.3,0.1c0.2,0.1,0.2,0.2,0,0.3c-0.1,0-0.2,0.1-0.3,0.1
			c-0.1,0-0.2,0-0.3-0.1c0,0-0.1,0-0.1-0.1c0,0,0-0.1,0-0.1C17,20.9,17.1,20.9,17.2,20.8C17.1,20.8,17.1,20.8,17.2,20.8z"/>
		<path fill="#143B61" d="M18.8,20.3c0.2,0,0.4-0.1,0.4-0.2c0-0.1-0.2-0.2-0.4-0.2c-0.2,0-0.4,0.1-0.4,0.2
			C18.5,20.2,18.6,20.3,18.8,20.3z"/>
		<path fill="#143B61" d="M20.3,19.5c0.2,0,0.4-0.1,0.4-0.2c0-0.1-0.2-0.2-0.4-0.2c-0.2,0-0.4,0.1-0.4,0.2
			C19.9,19.4,20.1,19.5,20.3,19.5z"/>
		<path fill="#143B61" d="M22,18.3c0.2,0.1,0.2,0.2,0,0.3c-0.1,0-0.2,0.1-0.3,0.1c-0.1,0-0.2,0-0.3-0.1c-0.2-0.1-0.2-0.2,0-0.3
			c0.1,0,0.2-0.1,0.3-0.1C21.8,18.3,21.9,18.3,22,18.3z"/>
		<path fill="#143B61" d="M23.4,17.5c0.2,0.1,0.2,0.2,0,0.3c-0.1,0-0.2,0.1-0.3,0.1c-0.1,0-0.2,0-0.3-0.1c-0.2-0.1-0.2-0.2,0-0.3
			c0.1,0,0.2-0.1,0.3-0.1C23.2,17.4,23.3,17.5,23.4,17.5z"/>
		<path fill="#143B61" d="M24.5,17.1c0.2,0,0.4-0.1,0.4-0.2s-0.2-0.2-0.4-0.2c-0.2,0-0.4,0.1-0.4,0.2S24.3,17.1,24.5,17.1z"/>
		<path fill="#143B61" d="M26.2,15.9c0.2,0.1,0.2,0.2,0,0.3c-0.1,0-0.2,0.1-0.3,0.1c-0.1,0-0.2,0-0.3-0.1c0,0-0.1,0-0.1-0.1
			c0,0,0-0.1,0-0.1c0,0,0-0.1,0-0.1c0,0,0,0,0.1-0.1c0.1,0,0.2-0.1,0.3-0.1C26,15.8,26.1,15.8,26.2,15.9z"/>
		<path fill="#143B61" d="M27.4,15.4c0.2,0,0.4-0.1,0.4-0.2c0-0.1-0.2-0.2-0.4-0.2c-0.2,0-0.4,0.1-0.4,0.2
			C27,15.3,27.1,15.4,27.4,15.4z"/>
		<path fill="#143B61" d="M28.8,14.6c0.2,0,0.4-0.1,0.4-0.2c0-0.1-0.2-0.2-0.4-0.2c-0.2,0-0.4,0.1-0.4,0.2
			C28.4,14.5,28.6,14.6,28.8,14.6z"/>
		<path fill="#143B61" d="M15.7,20c0.1,0,0.2-0.1,0.3-0.1c0.1,0,0.2,0,0.3,0.1c0.2,0.1,0.2,0.2,0,0.3c-0.1,0-0.2,0.1-0.3,0.1
			c-0.1,0-0.2,0-0.3-0.1c0,0-0.1,0-0.1-0.1c0,0,0-0.1,0-0.1S15.6,20.1,15.7,20C15.7,20,15.7,20,15.7,20z"/>
		<path fill="#143B61" d="M17.7,19.1C17.7,19.2,17.8,19.2,17.7,19.1c0.1,0.1,0.1,0.1,0.1,0.2c0,0,0,0.1,0,0.1c0,0,0,0-0.1,0.1
			c-0.1,0-0.2,0.1-0.3,0.1c-0.1,0-0.2,0-0.3-0.1c-0.2-0.1-0.2-0.2,0-0.3c0.1,0,0.2-0.1,0.3-0.1C17.5,19.1,17.6,19.1,17.7,19.1z"/>
		<path fill="#143B61" d="M18.8,18.7c0.2,0,0.4-0.1,0.4-0.2c0-0.1-0.2-0.2-0.4-0.2c-0.2,0-0.4,0.1-0.4,0.2
			C18.5,18.6,18.6,18.7,18.8,18.7z"/>
		<path fill="#143B61" d="M20.5,17.5c0.2,0.1,0.2,0.2,0,0.3c-0.1,0-0.2,0.1-0.3,0.1c-0.1,0-0.2,0-0.3-0.1c-0.2-0.1-0.2-0.2,0-0.3
			c0.1,0,0.2-0.1,0.3-0.1C20.4,17.4,20.4,17.5,20.5,17.5z"/>
		<path fill="#143B61" d="M22,16.7c0.2,0.1,0.2,0.2,0,0.3c-0.1,0-0.2,0.1-0.3,0.1c-0.1,0-0.2,0-0.3-0.1c-0.2-0.1-0.2-0.2,0-0.3
			c0.1,0,0.2-0.1,0.3-0.1C21.8,16.6,21.9,16.6,22,16.7z"/>
		<path fill="#143B61" d="M23.4,15.9c0.2,0.1,0.2,0.2,0,0.3c-0.1,0-0.2,0.1-0.3,0.1c-0.1,0-0.2,0-0.3-0.1c-0.2-0.1-0.2-0.2,0-0.3
			c0.1,0,0.2-0.1,0.3-0.1C23.2,15.8,23.3,15.8,23.4,15.9z"/>
		<path fill="#143B61" d="M24.8,15.1c0.2,0.1,0.2,0.2,0,0.3c-0.1,0-0.2,0.1-0.3,0.1c-0.1,0-0.2,0-0.3-0.1c0,0-0.1,0-0.1-0.1
			c0,0,0-0.1,0-0.1c0,0,0-0.1,0-0.1c0,0,0,0,0.1-0.1c0.1,0,0.2-0.1,0.3-0.1C24.6,15,24.7,15,24.8,15.1z"/>
		<path fill="#143B61" d="M26.2,14.2c0.2,0.1,0.2,0.2,0,0.3c-0.1,0-0.2,0.1-0.3,0.1c-0.1,0-0.2,0-0.3-0.1c0,0-0.1,0-0.1-0.1
			c0,0,0-0.1,0-0.1c0,0,0-0.1,0-0.1c0,0,0,0,0.1-0.1c0.1,0,0.2-0.1,0.3-0.1C26,14.2,26.1,14.2,26.2,14.2z"/>
		<path fill="#143B61" d="M27.4,13.8c0.2,0,0.4-0.1,0.4-0.2c0-0.1-0.2-0.2-0.4-0.2c-0.2,0-0.4,0.1-0.4,0.2
			C27,13.7,27.1,13.8,27.4,13.8z"/>
		<path fill="#143B61" d="M28.8,13c0.2,0,0.4-0.1,0.4-0.2c0-0.1-0.2-0.2-0.4-0.2c-0.2,0-0.4,0.1-0.4,0.2C28.4,12.9,28.6,13,28.8,13z
			"/>
		<path fill="#143B61" d="M14.3,19.1c0.1,0,0.2-0.1,0.3-0.1c0.1,0,0.2,0,0.3,0.1c0.2,0.1,0.2,0.2,0,0.3c-0.1,0-0.2,0.1-0.3,0.1
			c-0.1,0-0.2,0-0.3-0.1C14.2,19.4,14.2,19.2,14.3,19.1z"/>
		<path fill="#143B61" d="M16.3,18.3c0.2,0.1,0.2,0.2,0,0.3c-0.1,0-0.2,0.1-0.3,0.1c-0.1,0-0.2,0-0.3-0.1c-0.2-0.1-0.2-0.2,0-0.3
			c0.1,0,0.2-0.1,0.3-0.1C16.1,18.3,16.2,18.3,16.3,18.3z"/>
		<path fill="#143B61" d="M17.7,17.5C17.7,17.5,17.8,17.5,17.7,17.5c0.1,0.1,0.1,0.1,0.1,0.2c0,0,0,0.1,0,0.1c0,0,0,0-0.1,0.1
			c-0.1,0-0.2,0.1-0.3,0.1c-0.1,0-0.2,0-0.3-0.1c-0.2-0.1-0.2-0.2,0-0.3c0.1,0,0.2-0.1,0.3-0.1C17.5,17.4,17.6,17.5,17.7,17.5z"/>
		<path fill="#143B61" d="M19.1,16.7C19.2,16.7,19.2,16.7,19.1,16.7c0.1,0.1,0.1,0.1,0.1,0.2c0,0,0,0.1,0,0.1c0,0,0,0-0.1,0.1
			c-0.1,0-0.2,0.1-0.3,0.1c-0.1,0-0.2,0-0.3-0.1c-0.2-0.1-0.2-0.2,0-0.3c0.1,0,0.2-0.1,0.3-0.1C18.9,16.6,19,16.6,19.1,16.7z"/>
		<path fill="#143B61" d="M20.3,16.3c0.2,0,0.4-0.1,0.4-0.2c0-0.1-0.2-0.2-0.4-0.2c-0.2,0-0.4,0.1-0.4,0.2
			C19.9,16.2,20.1,16.3,20.3,16.3z"/>
		<path fill="#143B61" d="M21.7,15.4c0.2,0,0.4-0.1,0.4-0.2c0-0.1-0.2-0.2-0.4-0.2c-0.2,0-0.4,0.1-0.4,0.2
			C21.3,15.3,21.5,15.4,21.7,15.4z"/>
		<path fill="#143B61" d="M23.4,14.2c0.2,0.1,0.2,0.2,0,0.3c-0.1,0-0.2,0.1-0.3,0.1c-0.1,0-0.2,0-0.3-0.1c-0.2-0.1-0.2-0.2,0-0.3
			c0.1,0,0.2-0.1,0.3-0.1C23.2,14.2,23.3,14.2,23.4,14.2z"/>
		<path fill="#143B61" d="M24.8,13.4c0.2,0.1,0.2,0.2,0,0.3c-0.1,0-0.2,0.1-0.3,0.1c-0.1,0-0.2,0-0.3-0.1c0,0-0.1,0-0.1-0.1
			c0,0,0-0.1,0-0.1c0,0,0-0.1,0-0.1c0,0,0,0,0.1-0.1c0.1,0,0.2-0.1,0.3-0.1C24.6,13.3,24.7,13.4,24.8,13.4z"/>
		<path fill="#143B61" d="M26.2,12.6c0.2,0.1,0.2,0.2,0,0.3C26.1,13,26,13,25.9,13c-0.1,0-0.2,0-0.3-0.1c0,0-0.1,0-0.1-0.1
			c0,0,0-0.1,0-0.1c0,0,0-0.1,0-0.1c0,0,0,0,0.1-0.1c0.1,0,0.2-0.1,0.3-0.1C26,12.5,26.1,12.6,26.2,12.6z"/>
		<path fill="#143B61" d="M27.6,11.8c0.2,0.1,0.2,0.2,0,0.3c-0.1,0-0.2,0.1-0.3,0.1c-0.1,0-0.2,0-0.3-0.1c-0.2-0.1-0.2-0.2,0-0.3
			c0.1,0,0.2-0.1,0.3-0.1C27.4,11.7,27.5,11.7,27.6,11.8z"/>
		<path fill="#143B61" d="M29,11c0.2,0.1,0.2,0.2,0,0.3c-0.1,0-0.2,0.1-0.3,0.1c-0.1,0-0.2,0-0.3-0.1c-0.2-0.1-0.2-0.2,0-0.3
			c0.1,0,0.2-0.1,0.3-0.1C28.9,10.9,29,10.9,29,11z"/>
		<path fill="#143B61" d="M12.9,18.3c0.1,0,0.2-0.1,0.3-0.1c0.1,0,0.2,0,0.3,0.1c0.2,0.1,0.2,0.2,0,0.3c-0.1,0-0.2,0.1-0.3,0.1
			c-0.1,0-0.2,0-0.3-0.1C12.8,18.6,12.8,18.4,12.9,18.3z"/>
		<path fill="#143B61" d="M14.9,17.5c0.2,0.1,0.2,0.2,0,0.3c-0.1,0-0.2,0.1-0.3,0.1c-0.1,0-0.2,0-0.3-0.1c0,0-0.1,0-0.1-0.1
			c0,0,0-0.1,0-0.1c0,0,0-0.1,0-0.1c0,0,0,0,0.1-0.1c0.1,0,0.2-0.1,0.3-0.1C14.7,17.4,14.8,17.5,14.9,17.5z"/>
		<path fill="#143B61" d="M16,17.1c0.2,0,0.4-0.1,0.4-0.2s-0.2-0.2-0.4-0.2c-0.2,0-0.4,0.1-0.4,0.2S15.8,17.1,16,17.1z"/>
		<path fill="#143B61" d="M17.7,15.9C17.7,15.9,17.8,15.9,17.7,15.9c0.1,0.1,0.1,0.1,0.1,0.2c0,0,0,0.1,0,0.1c0,0,0,0-0.1,0.1
			c-0.1,0-0.2,0.1-0.3,0.1c-0.1,0-0.2,0-0.3-0.1c-0.2-0.1-0.2-0.2,0-0.3c0.1,0,0.2-0.1,0.3-0.1C17.5,15.8,17.6,15.8,17.7,15.9z"/>
		<path fill="#143B61" d="M18.8,15.4c0.2,0,0.4-0.1,0.4-0.2c0-0.1-0.2-0.2-0.4-0.2c-0.2,0-0.4,0.1-0.4,0.2
			C18.5,15.3,18.6,15.4,18.8,15.4z"/>
		<path fill="#143B61" d="M20.5,14.2c0.2,0.1,0.2,0.2,0,0.3c-0.1,0-0.2,0.1-0.3,0.1c-0.1,0-0.2,0-0.3-0.1c-0.2-0.1-0.2-0.2,0-0.3
			c0.1,0,0.2-0.1,0.3-0.1C20.4,14.2,20.5,14.2,20.5,14.2z"/>
		<path fill="#143B61" d="M22,13.4c0.2,0.1,0.2,0.2,0,0.3c-0.1,0-0.2,0.1-0.3,0.1c-0.1,0-0.2,0-0.3-0.1c-0.2-0.1-0.2-0.2,0-0.3
			c0.1,0,0.2-0.1,0.3-0.1C21.8,13.3,21.9,13.4,22,13.4z"/>
		<path fill="#143B61" d="M23.4,12.6c0.2,0.1,0.2,0.2,0,0.3c-0.1,0-0.2,0.1-0.3,0.1c-0.1,0-0.2,0-0.3-0.1c-0.2-0.1-0.2-0.2,0-0.3
			c0.1,0,0.2-0.1,0.3-0.1C23.2,12.5,23.3,12.6,23.4,12.6z"/>
		<path fill="#143B61" d="M24.8,11.8c0.2,0.1,0.2,0.2,0,0.3c-0.1,0-0.2,0.1-0.3,0.1c-0.1,0-0.2,0-0.3-0.1c0,0-0.1,0-0.1-0.1
			c0,0,0-0.1,0-0.1c0,0,0-0.1,0-0.1s0,0,0.1-0.1c0.1,0,0.2-0.1,0.3-0.1C24.6,11.7,24.7,11.7,24.8,11.8z"/>
		<path fill="#143B61" d="M26.2,11c0.2,0.1,0.2,0.2,0,0.3c-0.1,0-0.2,0.1-0.3,0.1c-0.1,0-0.2,0-0.3-0.1c0,0-0.1,0-0.1-0.1
			c0,0,0-0.1,0-0.1c0,0,0-0.1,0-0.1c0,0,0,0,0.1-0.1c0.1,0,0.2-0.1,0.3-0.1C26,10.9,26.1,10.9,26.2,11z"/>
		<path fill="#143B61" d="M27.4,10.5c0.2,0,0.4-0.1,0.4-0.2c0-0.1-0.2-0.2-0.4-0.2c-0.2,0-0.4,0.1-0.4,0.2
			C27,10.4,27.1,10.5,27.4,10.5z"/>
		<path fill="#143B61" d="M11.5,17.5c0.1,0,0.2-0.1,0.3-0.1c0.1,0,0.2,0,0.3,0.1c0.2,0.1,0.2,0.2,0,0.3c-0.1,0-0.2,0.1-0.3,0.1
			c-0.1,0-0.2,0-0.3-0.1C11.3,17.7,11.3,17.6,11.5,17.5z"/>
		<path fill="#143B61" d="M13.4,16.7c0.2,0.1,0.2,0.2,0,0.3c-0.1,0-0.2,0.1-0.3,0.1c-0.1,0-0.2,0-0.3-0.1c0,0-0.1,0-0.1-0.1
			c0,0,0-0.1,0-0.1c0,0,0-0.1,0-0.1c0,0,0,0,0.1-0.1c0.1,0,0.2-0.1,0.3-0.1C13.3,16.6,13.4,16.6,13.4,16.7z"/>
		<path fill="#143B61" d="M14.9,15.9c0.2,0.1,0.2,0.2,0,0.3c-0.1,0-0.2,0.1-0.3,0.1c-0.1,0-0.2,0-0.3-0.1c-0.2-0.1-0.2-0.2,0-0.3
			c0.1,0,0.2-0.1,0.3-0.1C14.7,15.8,14.8,15.8,14.9,15.9z"/>
		<path fill="#143B61" d="M16.3,15.1c0.2,0.1,0.2,0.2,0,0.3c-0.1,0-0.2,0.1-0.3,0.1c-0.1,0-0.2,0-0.3-0.1c-0.2-0.1-0.2-0.2,0-0.3
			c0.1,0,0.2-0.1,0.3-0.1C16.1,15,16.2,15,16.3,15.1z"/>
		<path fill="#143B61" d="M17.7,14.2C17.7,14.2,17.8,14.3,17.7,14.2c0.1,0.1,0.1,0.1,0.1,0.2c0,0,0,0.1,0,0.1c0,0,0,0-0.1,0.1
			c-0.1,0-0.2,0.1-0.3,0.1c-0.1,0-0.2,0-0.3-0.1c-0.2-0.1-0.2-0.2,0-0.3c0.1,0,0.2-0.1,0.3-0.1C17.5,14.2,17.6,14.2,17.7,14.2z"/>
		<path fill="#143B61" d="M18.8,13.8c0.2,0,0.4-0.1,0.4-0.2c0-0.1-0.2-0.2-0.4-0.2c-0.2,0-0.4,0.1-0.4,0.2
			C18.5,13.7,18.6,13.8,18.8,13.8z"/>
		<path fill="#143B61" d="M20.3,13c0.2,0,0.4-0.1,0.4-0.2c0-0.1-0.2-0.2-0.4-0.2c-0.2,0-0.4,0.1-0.4,0.2C19.9,12.9,20.1,13,20.3,13z
			"/>
		<path fill="#143B61" d="M22,11.8c0.2,0.1,0.2,0.2,0,0.3c-0.1,0-0.2,0.1-0.3,0.1c-0.1,0-0.2,0-0.3-0.1c-0.2-0.1-0.2-0.2,0-0.3
			c0.1,0,0.2-0.1,0.3-0.1C21.8,11.7,21.9,11.7,22,11.8z"/>
		<path fill="#143B61" d="M23.4,11c0.2,0.1,0.2,0.2,0,0.3c-0.1,0-0.2,0.1-0.3,0.1c-0.1,0-0.2,0-0.3-0.1c-0.2-0.1-0.2-0.2,0-0.3
			c0.1,0,0.2-0.1,0.3-0.1C23.2,10.9,23.3,10.9,23.4,11z"/>
		<path fill="#143B61" d="M24.8,10.1C24.8,10.1,24.9,10.2,24.8,10.1c0.1,0.1,0.1,0.1,0.1,0.2c0,0,0,0.1,0,0.1c0,0-0.1,0-0.1,0.1
			c-0.1,0-0.2,0.1-0.3,0.1c-0.1,0-0.2,0-0.3-0.1c0,0-0.1,0-0.1-0.1c0,0,0-0.1,0-0.1c0,0,0-0.1,0-0.1c0,0,0,0,0.1-0.1
			c0.1,0,0.2-0.1,0.3-0.1C24.6,10.1,24.7,10.1,24.8,10.1z"/>
		<path fill="#143B61" d="M10.1,16.7c0.1,0,0.2-0.1,0.3-0.1s0.2,0,0.3,0.1c0,0,0.1,0,0.1,0.1c0,0,0,0.1,0,0.1s0,0.1,0,0.1
			c0,0,0,0-0.1,0.1c-0.1,0-0.2,0.1-0.3,0.1c-0.1,0-0.2,0-0.3-0.1C9.9,16.9,9.9,16.8,10.1,16.7z"/>
		<path fill="#143B61" d="M11.7,16.2c0.2,0,0.4-0.1,0.4-0.2c0-0.1-0.2-0.2-0.4-0.2c-0.2,0-0.4,0.1-0.4,0.2
			C11.4,16.1,11.5,16.2,11.7,16.2z"/>
		<path fill="#143B61" d="M13.4,15c0.2,0.1,0.2,0.2,0,0.3c-0.1,0-0.2,0.1-0.3,0.1c-0.1,0-0.2,0-0.3-0.1c-0.2-0.1-0.2-0.2,0-0.3
			c0.1,0,0.2-0.1,0.3-0.1C13.3,15,13.4,15,13.4,15z"/>
		<path fill="#143B61" d="M14.9,14.2c0.2,0.1,0.2,0.2,0,0.3c-0.1,0-0.2,0.1-0.3,0.1c-0.1,0-0.2,0-0.3-0.1c0,0-0.1,0-0.1-0.1
			s0-0.1,0-0.1c0,0,0-0.1,0-0.1c0,0,0,0,0.1-0.1c0.1,0,0.2-0.1,0.3-0.1C14.7,14.2,14.8,14.2,14.9,14.2z"/>
		<path fill="#143B61" d="M16.3,13.4c0.2,0.1,0.2,0.2,0,0.3c-0.1,0-0.2,0.1-0.3,0.1c-0.1,0-0.2,0-0.3-0.1c0,0-0.1,0-0.1-0.1
			c0,0,0-0.1,0-0.1c0,0,0-0.1,0-0.1c0,0,0,0,0.1-0.1c0.1,0,0.2-0.1,0.3-0.1C16.1,13.3,16.2,13.4,16.3,13.4z"/>
		<path fill="#143B61" d="M17.4,13c0.2,0,0.4-0.1,0.4-0.2c0-0.1-0.2-0.2-0.4-0.2S17,12.6,17,12.7C17,12.9,17.2,13,17.4,13z"/>
		<path fill="#143B61" d="M18.8,12.1c0.2,0,0.4-0.1,0.4-0.2c0-0.1-0.2-0.2-0.4-0.2c-0.2,0-0.4,0.1-0.4,0.2
			C18.5,12,18.6,12.1,18.8,12.1z"/>
		<path fill="#143B61" d="M20.3,11.3c0.2,0,0.4-0.1,0.4-0.2c0-0.1-0.2-0.2-0.4-0.2c-0.2,0-0.4,0.1-0.4,0.2
			C19.9,11.2,20,11.3,20.3,11.3z"/>
		<path fill="#143B61" d="M21.9,10.1C22,10.1,22,10.2,21.9,10.1c0.1,0.1,0.1,0.1,0.1,0.2c0,0,0,0.1,0,0.1c0,0,0,0-0.1,0.1
			c-0.1,0-0.2,0.1-0.3,0.1c-0.1,0-0.2,0-0.3-0.1c-0.2-0.1-0.2-0.2,0-0.3c0.1,0,0.2-0.1,0.3-0.1C21.8,10.1,21.9,10.1,21.9,10.1z"/>
		<path fill="#143B61" d="M8.6,15.9c0.1,0,0.2-0.1,0.3-0.1c0.1,0,0.2,0,0.3,0.1c0.2,0.1,0.2,0.2,0,0.3c-0.1,0-0.2,0.1-0.3,0.1
			c-0.1,0-0.2,0-0.3-0.1C8.5,16.1,8.5,15.9,8.6,15.9C8.8,15.8,8.5,16,8.6,15.9z"/>
		<path fill="#143B61" d="M10.3,15.4c0.2,0,0.4-0.1,0.4-0.2c0-0.1-0.2-0.2-0.4-0.2s-0.4,0.1-0.4,0.2C9.9,15.3,10.1,15.4,10.3,15.4z"
			/>
		<path fill="#143B61" d="M11.7,14.6c0.2,0,0.4-0.1,0.4-0.2c0-0.1-0.2-0.2-0.4-0.2c-0.2,0-0.4,0.1-0.4,0.2
			C11.4,14.5,11.5,14.6,11.7,14.6z"/>
		<path fill="#143B61" d="M13.4,13.4c0.2,0.1,0.2,0.2,0,0.3c-0.1,0-0.2,0.1-0.3,0.1c-0.1,0-0.2,0-0.3-0.1c-0.2-0.1-0.2-0.2,0-0.3
			c0.1,0,0.2-0.1,0.3-0.1C13.3,13.3,13.4,13.4,13.4,13.4z"/>
		<path fill="#143B61" d="M14.9,12.6c0.2,0.1,0.2,0.2,0,0.3c-0.1,0-0.2,0.1-0.3,0.1c-0.1,0-0.2,0-0.3-0.1c0,0-0.1,0-0.1-0.1
			c0,0,0-0.1,0-0.1c0,0,0-0.1,0-0.1c0,0,0,0,0.1-0.1c0.1,0,0.2-0.1,0.3-0.1C14.7,12.5,14.8,12.6,14.9,12.6z"/>
		<path fill="#143B61" d="M16.3,11.8c0.2,0.1,0.2,0.2,0,0.3c-0.1,0-0.2,0.1-0.3,0.1c-0.1,0-0.2,0-0.3-0.1c0,0-0.1,0-0.1-0.1
			c0,0,0-0.1,0-0.1c0,0,0-0.1,0-0.1c0,0,0,0,0.1-0.1c0.1,0,0.2-0.1,0.3-0.1C16.1,11.7,16.2,11.7,16.3,11.8z"/>
		<path fill="#143B61" d="M17.4,11.3c0.2,0,0.4-0.1,0.4-0.2c0-0.1-0.2-0.2-0.4-0.2S17,11,17,11.1C17,11.2,17.2,11.3,17.4,11.3z"/>
		<path fill="#143B61" d="M19.1,10.1c0.2,0.1,0.2,0.2,0,0.3c-0.1,0-0.2,0.1-0.3,0.1c-0.1,0-0.2,0-0.3-0.1c-0.2-0.1-0.2-0.2,0-0.3
			c0.1,0,0.2-0.1,0.3-0.1C18.9,10.1,19,10.1,19.1,10.1z"/>
		<path fill="#FFFFFF" d="M28.9,18.8c-1.2-2.1-4.4-3.6-8.2-3.5c-3.8,0-7,1.5-8.2,3.6h-0.5v1.8c0,3,3.9,5.4,8.7,5.4
			c4.8,0,8.7-2.4,8.7-5.4v-1.8H28.9z"/>
		<path fill="#143B61" d="M20.8,26.1c-4.9,0-8.8-2.5-8.8-5.5v-1.9h0.6c1.3-2.1,4.6-3.6,8.2-3.6c3.7,0,6.9,1.4,8.2,3.5h0.6v1.9
			C29.6,23.7,25.6,26.1,20.8,26.1z M12.2,19v1.7c0,2.9,3.8,5.2,8.5,5.2c4.7,0,8.5-2.4,8.5-5.2v-1.7h-0.5l0-0.1
			c-1.2-2.1-4.4-3.5-8-3.5c-3.6,0-6.8,1.4-8,3.5l0,0.1H12.2z"/>
		<path fill="#FFFFFF" d="M29.4,18.8c0,3-3.9,5.4-8.7,5.4c-4.8,0-8.7-2.4-8.7-5.4c0-3,3.9-5.4,8.7-5.4
			C25.5,13.4,29.4,15.9,29.4,18.8z"/>
		<path fill="#E6F1F7" d="M29.4,19.2c0,3-3.9,5.4-8.7,5.4c-4.8,0-8.7-2.4-8.7-5.4c0-3,3.9-5.4,8.7-5.4
			C25.5,13.9,29.4,16.3,29.4,19.2z"/>
		<path fill="#143B61" d="M20.8,24.3c-4.9,0-8.8-2.5-8.8-5.5c0-3,3.9-5.5,8.8-5.5c4.9,0,8.8,2.5,8.8,5.5
			C29.6,21.8,25.6,24.3,20.8,24.3z M20.8,13.6c-4.7,0-8.5,2.3-8.5,5.2c0,2.9,3.8,5.2,8.5,5.2c4.7,0,8.5-2.3,8.5-5.2
			C29.3,15.9,25.5,13.6,20.8,13.6L20.8,13.6z"/>
		<path fill="#FFFFFF" d="M27.7,18.6c0,2.2-3.1,4-6.9,4c-3.8,0-6.9-1.8-6.9-4c0-2.2,3.1-4,6.9-4C24.6,14.5,27.7,16.3,27.7,18.6z"/>
		<path fill="#143B61" d="M20.8,22.7c-3.9,0-7.1-1.9-7.1-4.2c0-2.3,3.2-4.2,7.1-4.2c3.9,0,7.1,1.9,7.1,4.2
			C27.8,20.9,24.6,22.7,20.8,22.7z M20.8,14.7c-3.7,0-6.8,1.7-6.8,3.9c0,2.2,3,3.9,6.8,3.9c3.7,0,6.8-1.8,6.8-3.9
			C27.5,16.4,24.5,14.7,20.8,14.7z"/>
		<path fill="#FFFFFF" d="M20.8,14.5c-3.8,0-6.9,1.8-6.9,4c0,0.2,0,0.4,0.1,0.6c0.5-1.9,3.4-3.4,6.8-3.4c3.5,0,6.4,1.5,6.8,3.5
			c0-0.2,0.1-0.4,0.1-0.6C27.7,16.3,24.6,14.5,20.8,14.5z"/>
		<path fill="#143B61" d="M27.5,19.4l-0.1-0.3c-0.5-1.9-3.4-3.4-6.7-3.4c-3.4,0-6.2,1.4-6.7,3.4l-0.1,0.3l-0.2-0.3
			c-0.1-0.2-0.1-0.4-0.1-0.6c0-2.3,3.2-4.2,7.1-4.2c3.9,0,7.1,1.9,7.1,4.2c0,0.2,0,0.4-0.1,0.6L27.5,19.4z M20.8,14.7
			c-3.7,0-6.8,1.7-6.8,3.9c0.8-1.8,3.6-3,6.8-3c3.2,0,5.9,1.2,6.8,3C27.5,16.4,24.5,14.7,20.8,14.7z"/>
		<path fill="#143B61" d="M19.6,14.6l0,1.1l-1.9,0.4L15.8,17l-1.4,1.2l-0.5,1l-0.1-1l0.6-1.2l1-1l1.7-0.9l2.1-0.5H19.6z"/>
		<path fill="#FFFFFF" d="M24.5,20.6c0.2-0.2,0.4-0.5,0.4-0.8V19l-0.6-0.2c-0.1-0.1-0.2-0.2-0.4-0.2c-0.5-0.3-1-0.4-1.5-0.4
			c-0.8,0-1.5,0.2-2.2,0.4l-1.7-1c0.4-0.1,0.8-0.1,1.2,0.1l1-0.8v-0.7l-1.2,0.4c-0.1,0-0.3,0-0.4,0c-0.6,0-1.1,0.2-1.6,0.4l-0.2-0.1
			l0.1-0.1v-0.3l-0.9-0.1v1.1l0.3-0.2l0.1,0.1c-0.1,0.1-0.2,0.2-0.4,0.3l-0.3-0.1v0.8c0,0.2,0.1,0.4,0.3,0.6
			c0.1,0.2,0.3,0.3,0.5,0.4c0.5,0.3,1.1,0.4,1.6,0.4c0.7,0,1.4-0.1,2-0.3l1.9,1c-0.3,0.1-0.5,0.1-0.8,0.1c-0.2,0-0.4,0-0.6-0.1
			l0-0.2l-1.4,0.1v0.7c0.6,0.3,1.3,0.4,2,0.4c0.6,0,1.3-0.1,1.8-0.4l0.8,0.5l0.6-0.4v-0.7L24.5,20.6z M18.6,18.9
			c-0.2,0-0.4-0.1-0.6-0.2c-0.1,0-0.1-0.1-0.2-0.1c-0.1-0.1-0.1-0.1-0.1-0.2c0-0.1,0-0.2,0-0.2c0-0.1,0.1-0.1,0.1-0.2l1.6,0.9
			C19.1,18.9,18.9,18.9,18.6,18.9L18.6,18.9z M23.2,20.3l-1.8-1c0.3-0.1,0.6-0.2,0.9-0.2c0.2,0,0.5,0.1,0.7,0.2
			c0.1,0,0.2,0.1,0.2,0.2c0.1,0.1,0.1,0.2,0.1,0.3c0,0.1,0,0.2-0.1,0.3C23.4,20.1,23.3,20.2,23.2,20.3L23.2,20.3z"/>
		<path fill="#143B61" d="M24.4,21.8l-0.8-0.5c-0.6,0.3-1.2,0.4-1.8,0.4c-0.7,0-1.4-0.1-2-0.4l-0.1,0v-0.9l1.7-0.1l-0.1,0.2
			c0.1,0,0.3,0,0.4,0.1c0.1,0,0.2,0,0.4,0l-1.5-0.8c-0.6,0.2-1.3,0.3-2,0.3c-0.6,0-1.2-0.2-1.7-0.5c-0.2-0.1-0.4-0.2-0.6-0.4
			c-0.1-0.2-0.2-0.4-0.3-0.6v-0.8l0.2-0.1v-1.2l1.2,0.1v0.5c0.5-0.2,1-0.3,1.6-0.4h0.3l1.4-0.5v1l-1.1,0.8l-0.1,0
			c-0.2-0.1-0.5-0.1-0.8-0.1l1.3,0.8c0.7-0.3,1.4-0.4,2.2-0.4c0.6,0,1.1,0.2,1.6,0.5c0.1,0.1,0.3,0.2,0.4,0.2l0.6,0.2v0.9l0,0.2
			c0,0.2-0.1,0.3-0.2,0.4l0.5,0v0.9L24.4,21.8z M23.6,21.1l0.8,0.5l0.5-0.3v-0.5l-0.8,0l0.3-0.3c0.2-0.2,0.3-0.4,0.4-0.7v-0.2v-0.5
			l-0.5-0.2c-0.1-0.1-0.2-0.2-0.3-0.2c-0.5-0.3-1-0.4-1.5-0.4c-0.7,0-1.5,0.2-2.1,0.4h-0.1l-2.1-1.2l0.3-0.1
			c0.4-0.1,0.9-0.1,1.3,0.1l0.9-0.7v-0.5l-0.9,0.3l0,0.1h-0.2c-0.1,0-0.2,0-0.4,0c-0.5,0-1.1,0.1-1.5,0.4l-0.1,0L17,17l0.2-0.2v-0.1
			l-0.6,0.1l-0.1,0.6l0.2-0.1l0.4,0.2l-0.2,0.1c-0.1,0.1-0.2,0.2-0.3,0.3l-0.1,0.1l-0.2-0.1v0.6c0,0.2,0.1,0.4,0.3,0.5
			c0.1,0.1,0.3,0.3,0.5,0.3c0.5,0.3,1,0.4,1.6,0.4c0.7,0,1.3-0.1,2-0.3h0.1l2.2,1.3l-0.4,0.1c-0.3,0.1-0.6,0.1-0.8,0.1
			c-0.2,0-0.4-0.1-0.6-0.1l-0.1,0v-0.1l-1.1,0.1v0.5c0.6,0.2,1.2,0.4,1.8,0.4C22.4,21.5,23,21.4,23.6,21.1L23.6,21.1z M23.2,20.4
			l-2.1-1.2l0.3-0.1c0.3-0.1,0.6-0.2,1-0.2c0.3,0,0.5,0.1,0.8,0.2c0.1,0.1,0.2,0.1,0.3,0.2c0.1,0.1,0.1,0.2,0.2,0.3
			c0,0.1,0,0.2,0,0.3C23.5,20.2,23.4,20.3,23.2,20.4L23.2,20.4z M21.8,19.3l1.4,0.8c0,0,0.1-0.1,0.1-0.1c0-0.1,0-0.1,0-0.2
			c0-0.1-0.1-0.2-0.1-0.2c-0.1-0.1-0.1-0.1-0.2-0.1c-0.2-0.1-0.4-0.2-0.6-0.2C22.2,19.3,22,19.3,21.8,19.3z M18.8,19.1h-0.2
			c-0.2,0-0.5-0.1-0.7-0.2c-0.1,0-0.2-0.1-0.2-0.2c-0.1-0.1-0.1-0.2-0.1-0.3c0-0.1,0-0.2,0-0.3c0-0.1,0.1-0.2,0.1-0.3l0.1-0.1l2,1.1
			L19.4,19C19.2,19,19,19.1,18.8,19.1L18.8,19.1z M18.6,18.8c0.1,0,0.2,0,0.3,0l-1.1-0.6c0,0.1,0,0.1,0,0.2c0,0.1,0.1,0.2,0.3,0.3
			C18.2,18.7,18.4,18.8,18.6,18.8L18.6,18.8z"/>
		<path fill="#FFFFFF" d="M22.5,19.9l-1.9-1c-0.7,0.2-1.3,0.3-2,0.3c-0.6,0-1.1-0.2-1.6-0.4c-0.2-0.1-0.4-0.2-0.5-0.4
			c-0.1-0.2-0.2-0.4-0.3-0.6c0-0.2,0.1-0.4,0.2-0.6c0.1-0.2,0.3-0.3,0.4-0.4l-0.4-0.2l0.6-0.4l0.4,0.2c0.5-0.2,1-0.4,1.6-0.4
			c0.6,0,1.1,0.1,1.6,0.3l-1,0.7c-0.4-0.2-0.8-0.2-1.2-0.1l1.8,1c0.7-0.3,1.4-0.4,2.2-0.4c0.6,0,1.1,0.2,1.6,0.4
			c0.2,0.1,0.4,0.2,0.6,0.4c0.2,0.2,0.3,0.4,0.3,0.6c0,0.2-0.1,0.5-0.2,0.7c-0.1,0.2-0.3,0.4-0.5,0.5l0.8,0.5L24.4,21l-0.8-0.5
			c-0.6,0.3-1.2,0.4-1.8,0.4c-0.7,0-1.4-0.1-2-0.4l1-0.8c0.3,0.1,0.6,0.2,0.9,0.2C22,20,22.3,19.9,22.5,19.9z M17.8,17.3
			c-0.1,0.1-0.1,0.1-0.1,0.2c0,0.1,0,0.2,0,0.2c0.1,0.2,0.2,0.3,0.3,0.4c0.2,0.1,0.4,0.1,0.6,0.2c0.3,0,0.5,0,0.8-0.1L17.8,17.3z
			 M23.2,19.5c0.1-0.1,0.1-0.1,0.2-0.2c0-0.1,0.1-0.2,0.1-0.3c0-0.1-0.1-0.2-0.1-0.3c-0.1-0.1-0.1-0.1-0.2-0.2
			c-0.2-0.1-0.4-0.2-0.7-0.2c-0.3,0-0.6,0-0.9,0.2L23.2,19.5z"/>
		<path fill="#E6F1F7" d="M22.5,20.2l-1.9-1.1c-0.6,0.2-1.3,0.4-2,0.3c-0.6,0-1.1-0.2-1.6-0.5c-0.2-0.1-0.4-0.2-0.5-0.4
			c-0.1-0.2-0.2-0.4-0.2-0.6c0-0.2,0-0.4,0.1-0.6c0.1-0.2,0.3-0.3,0.4-0.4l-0.2-0.3l0.4-0.3l0.4,0.2c0.5-0.2,1-0.4,1.6-0.4
			c0.5,0,1,0.1,1.5,0.4l-0.9,0.7c-0.4-0.2-0.8-0.2-1.2-0.1l1.8,1c0.7-0.3,1.4-0.4,2.2-0.4c0.6,0,1.1,0.2,1.6,0.4
			c0.2,0.1,0.4,0.2,0.6,0.4c0.2,0.2,0.3,0.4,0.3,0.6c0,0.2-0.1,0.5-0.2,0.7c-0.1,0.2-0.3,0.4-0.5,0.5l0.7,0.5l-0.6,0.3l-0.8-0.5
			c-0.6,0.3-1.2,0.4-1.8,0.4c-0.6,0-1.2-0.1-1.8-0.4l0.8-0.8c0.3,0.1,0.6,0.2,0.9,0.2C21.9,20.3,22.2,20.3,22.5,20.2z M17.8,17.6
			c-0.1,0.1-0.1,0.1-0.1,0.2c0,0.1,0,0.1,0,0.2c0,0.1,0.1,0.2,0.1,0.2c0.1,0.1,0.1,0.1,0.2,0.1c0.2,0.1,0.4,0.1,0.6,0.2
			c0.3,0,0.5,0,0.8-0.1L17.8,17.6z M23.2,19.9c0.1-0.1,0.1-0.1,0.2-0.2c0-0.1,0.1-0.2,0-0.3c0-0.1-0.1-0.2-0.1-0.3
			C23.2,19,23.1,19,23,18.9c-0.2-0.1-0.5-0.2-0.7-0.2c-0.3,0-0.6,0-0.9,0.2L23.2,19.9z"/>
		<path fill="#143B61" d="M24.4,21.1l-0.8-0.5c-0.6,0.3-1.2,0.4-1.8,0.4c-0.7,0-1.4-0.1-2-0.4l-0.1,0v-0.2l0.4-0.2l0.8-0.6h0.1
			c0.3,0.1,0.6,0.2,0.8,0.2c0.1,0,0.2,0,0.4,0L20.6,19c-0.6,0.2-1.3,0.3-2,0.3c-0.6,0-1.2-0.2-1.7-0.5c-0.2-0.1-0.4-0.2-0.6-0.4
			s-0.2-0.4-0.3-0.6c0-0.2,0-0.4,0.1-0.6c0.1-0.2,0.2-0.3,0.4-0.5l-0.5-0.3l0.9-0.6l0.5,0.3c0.5-0.2,1-0.3,1.6-0.3
			c0.6,0,1.2,0,1.7,0.2v0.3l-1.1,0.8h-0.1C19.4,17,19.1,17,18.9,17l1.3,0.7c0.7-0.3,1.4-0.4,2.2-0.4c0.6,0,1.1,0.2,1.6,0.5
			c0.2,0.1,0.5,0.3,0.6,0.5c0.2,0.2,0.3,0.4,0.3,0.7c0,0.2,0,0.5-0.1,0.7c-0.1,0.2-0.2,0.4-0.4,0.5l0.8,0.4v0.2L24.4,21.1z
			 M23.6,20.3l0.8,0.5l0.4-0.3L24,20.1l0.2-0.1c0.4-0.4,0.7-0.7,0.6-1.1c-0.1-0.2-0.2-0.4-0.3-0.6c-0.1-0.2-0.3-0.3-0.5-0.4
			c-0.5-0.3-1-0.4-1.5-0.4c-0.7,0-1.5,0.2-2.1,0.4h-0.1l-2.1-1.2l0.3-0.1c0.4-0.1,0.9-0.1,1.3,0.1l0.8-0.6C20,16.1,19.5,16,19,16.1
			c-0.5,0-1.1,0.1-1.5,0.4l-0.1,0L17,16.2l-0.4,0.2l0.4,0.2l-0.2,0.1c-0.4,0.3-0.6,0.6-0.6,0.9c0,0.3,0.3,0.6,0.7,0.9
			c0.5,0.3,1,0.4,1.6,0.4c0.7,0,1.3-0.1,2-0.3h0.1l2.2,1.3l-0.4,0.1c-0.3,0.1-0.6,0.1-0.8,0.1c-0.3,0-0.6-0.1-0.9-0.2l-0.8,0.6
			c0.5,0.2,1.1,0.3,1.7,0.3C22.4,20.8,23,20.6,23.6,20.3L23.6,20.3z M23.2,19.7l-2.1-1.2l0.3-0.1c0.3-0.1,0.6-0.2,1-0.2
			c0.3,0,0.5,0.1,0.8,0.2c0.1,0.1,0.2,0.1,0.3,0.2c0.1,0.1,0.1,0.2,0.2,0.3c0,0.1,0,0.2,0,0.3C23.5,19.5,23.4,19.6,23.2,19.7
			L23.2,19.7z M21.8,18.6l1.4,0.8c0,0,0.1-0.1,0.1-0.1c0-0.1,0-0.1,0-0.2c0-0.1-0.1-0.2-0.1-0.2c-0.1-0.1-0.1-0.1-0.2-0.1
			c-0.2-0.1-0.4-0.2-0.6-0.2C22.2,18.5,22,18.6,21.8,18.6L21.8,18.6z M18.8,18.3h-0.2c-0.2,0-0.5-0.1-0.7-0.2
			c-0.1,0-0.2-0.1-0.2-0.2c-0.1-0.1-0.1-0.2-0.1-0.3c0-0.1,0-0.2,0-0.3c0-0.1,0.1-0.2,0.1-0.3l0.1-0.1l2,1.1l-0.3,0.1
			C19.2,18.3,19,18.4,18.8,18.3L18.8,18.3z M17.8,17.4c0,0.1,0,0.1,0,0.2c0,0.1,0.1,0.2,0.3,0.3c0.2,0.1,0.3,0.1,0.5,0.1
			c0.1,0,0.2,0,0.3,0L17.8,17.4z"/>
		<path fill="#143B61" d="M21.7,24.1l0,1.8l2.1-0.3l2-0.6l2-1.3l1.3-1.6l0.3-1.1l0-1.4l-1,1.8l-1.9,1.3l-2.9,1.1L21.7,24.1z"/>
		<path fill="#143B61" d="M20.4,24.2l0,1.8l-0.8-0.1l0-1.9L20.4,24.2z"/>
		<path fill="#FFFFFF" d="M26.1,8.6c-0.7-2.3-3.4-4.5-7-5.4c-3.6-0.9-7.1-0.3-8.8,1.5L9.7,4.5L9.3,6.2c-0.7,2.9,2.5,6.2,7.1,7.3
			c4.6,1.1,9-0.2,9.7-3.1l0.4-1.8L26.1,8.6z"/>
		<path fill="#143B61" d="M16.4,13.7c-4.7-1.2-7.9-4.5-7.2-7.5l0.5-1.9l0.6,0.1C12,2.7,15.5,2.1,19,3c3.5,0.9,6.4,3.1,7.1,5.5
			l0.6,0.1l-0.5,1.9C25.5,13.4,21.1,14.8,16.4,13.7z M9.8,4.6L9.4,6.3c-0.7,2.8,2.4,6,7,7.1c4.6,1.1,8.8-0.2,9.5-3l0.4-1.6l-0.4-0.1
			V8.6c-0.7-2.3-3.5-4.5-6.9-5.3c-3.5-0.9-7-0.3-8.6,1.4l-0.1,0.1L9.8,4.6z"/>
		<path fill="#FFFFFF" d="M26.6,8.7c-0.7,2.9-5.1,4.3-9.7,3.1C12.2,10.6,9,7.3,9.7,4.5c0.7-2.8,5.1-4.3,9.7-3.1
			C24.1,2.6,27.3,5.8,26.6,8.7z"/>
		<path fill="#E6F1F7" d="M26.5,9.1c-0.7,2.9-5,4.3-9.7,3.1C12.1,11,8.9,7.8,9.6,4.9c0.7-2.8,5.1-4.3,9.7-3.1
			C24,3,27.2,6.2,26.5,9.1z"/>
		<path fill="#143B61" d="M16.8,11.9c-4.7-1.2-7.9-4.5-7.2-7.5c0.7-2.9,5.2-4.4,9.9-3.2c4.7,1.2,8,4.5,7.2,7.5
			C25.9,11.7,21.5,13.1,16.8,11.9z M19.4,1.5c-4.6-1.1-8.8,0.2-9.5,3c-0.7,2.8,2.4,6,7,7.1c4.6,1.1,8.8-0.2,9.5-3
			C27.1,5.9,24,2.7,19.4,1.5z"/>
		<path fill="#FFFFFF" d="M24.9,8c-0.6,2.2-4,3.2-7.7,2.2c-3.7-0.9-6.3-3.4-5.7-5.6c0.5-2.2,4-3.2,7.7-2.2C22.9,3.3,25.5,5.9,24.9,8
			z"/>
		<path fill="#143B61" d="M17.2,10.4c-3.8-0.9-6.4-3.5-5.8-5.8c0.6-2.2,4.1-3.3,7.8-2.3c3.8,0.9,6.4,3.5,5.9,5.8
			C24.5,10.3,21,11.3,17.2,10.4z M19.2,2.5c-3.6-0.9-7,0-7.5,2.1c-0.5,2.1,2,4.6,5.6,5.5c3.6,0.9,7,0,7.5-2.1
			C25.3,5.9,22.8,3.5,19.2,2.5L19.2,2.5z"/>
		<path fill="#FFFFFF" d="M19.2,2.4c-3.7-0.9-7.2,0.1-7.7,2.2c0,0.2-0.1,0.4-0.1,0.6c1-1.8,4.1-2.5,7.5-1.7c3.4,0.8,5.8,3,5.8,5
			c0.1-0.2,0.2-0.4,0.2-0.6C25.5,5.9,22.9,3.4,19.2,2.4z"/>
		<path fill="#143B61" d="M24.5,8.8V8.6c0-2-2.4-4.1-5.7-4.9c-3.2-0.8-6.4-0.1-7.3,1.6l-0.1,0.3l-0.1-0.3c0-0.2,0-0.4,0.1-0.6
			c0.6-2.2,4.1-3.3,7.8-2.3c3.8,0.9,6.4,3.5,5.9,5.8c-0.1,0.2-0.1,0.4-0.2,0.6L24.5,8.8z M19.2,2.6c-3.6-0.9-7,0-7.5,2.1v0
			c1.3-1.5,4.2-2.1,7.3-1.3c3.1,0.8,5.5,2.7,5.8,4.6C25.3,5.9,22.8,3.5,19.2,2.6z"/>
		<path fill="#143B61" d="M18,2.2l-0.3,1.1l-2-0.1l-2,0.3l-1.6,0.8l-0.7,0.9l0.2-1l0.9-1l1.2-0.7l1.9-0.4l2.2,0L18,2.2z"/>
		<path fill="#FFFFFF" d="M21.3,9.2c0.3-0.1,0.5-0.4,0.6-0.7l0.2-0.8l-0.5-0.3c-0.1-0.1-0.2-0.2-0.3-0.3c-0.4-0.4-0.9-0.7-1.4-0.8
			c-0.7-0.2-1.5-0.2-2.2-0.1l-1.4-1.4c0.4,0,0.8,0.1,1.2,0.4l1.1-0.5l0.2-0.7l-1.3,0.1v0c-0.1,0-0.2-0.1-0.4-0.1
			c-0.5-0.1-1.1-0.1-1.7,0l-0.2-0.2l0.1,0l0.1-0.3l-0.9-0.3l-0.3,1.1l0.4-0.2l0.1,0.1c-0.1,0.1-0.3,0.1-0.4,0.2L14,4.3l-0.2,0.8
			c0,0.2,0,0.4,0.1,0.6C14,6,14.2,6.1,14.3,6.3c0.4,0.4,0.9,0.7,1.5,0.8c0.7,0.2,1.4,0.2,2,0.2l1.6,1.5c-0.3,0-0.5-0.1-0.8-0.2
			c-0.2-0.1-0.4-0.1-0.5-0.2l0.1-0.1L16.8,8l-0.2,0.7c0.5,0.4,1.2,0.7,1.8,0.9c0.6,0.1,1.2,0.2,1.9,0l0.7,0.6l0.7-0.2l0.2-0.7
			L21.3,9.2z M16,6.2c-0.2-0.1-0.4-0.2-0.5-0.3c-0.1-0.1-0.1-0.1-0.2-0.2c0-0.1-0.1-0.2-0.1-0.2c0-0.1,0-0.2,0.1-0.2
			c0-0.1,0.1-0.1,0.2-0.2l1.3,1.2C16.5,6.3,16.3,6.2,16,6.2L16,6.2z M20.2,8.6l-1.5-1.4c0.3,0,0.6,0,0.9,0.1
			c0.2,0.1,0.4,0.2,0.6,0.4c0.1,0.1,0.1,0.1,0.2,0.2s0.1,0.2,0.1,0.3c0,0.1-0.1,0.2-0.1,0.3C20.3,8.5,20.2,8.6,20.2,8.6z"/>
		<path fill="#143B61" d="M21,10.4l-0.7-0.6c-0.6,0.1-1.2,0.1-1.9-0.1c-0.7-0.2-1.3-0.5-1.9-0.9l-0.1-0.1l0.2-0.9l1.7,0.3l-0.1,0.2
			c0.1,0.1,0.2,0.1,0.4,0.2c0.1,0,0.2,0.1,0.4,0.1l-1.2-1.1c-0.7,0.1-1.4,0-2-0.2c-0.6-0.2-1.1-0.5-1.5-0.9C14,6.2,13.9,6,13.8,5.8
			c-0.1-0.2-0.1-0.5-0.1-0.7l0.2-0.8l0.2-0.1l0.3-1.2l1.2,0.4l-0.1,0.5c0.5-0.1,1.1-0.1,1.6,0L17.4,4l1.5-0.1l-0.2,0.9l-1.3,0.6
			l-0.1,0c-0.2-0.2-0.5-0.3-0.7-0.3l1.1,1.1C18.5,6,19.2,6,19.9,6.2C20.5,6.4,21,6.6,21.4,7c0.1,0.1,0.2,0.2,0.3,0.3l0.5,0.4L22,8.6
			l-0.1,0.2c-0.1,0.1-0.2,0.3-0.3,0.4L22,9.2l-0.2,0.9L21,10.4z M20.4,9.5l0.7,0.6l0.6-0.2l0.1-0.5l-0.8-0.2l0.3-0.2
			c0.3-0.1,0.5-0.3,0.6-0.6l0.1-0.2L22,7.9l-0.4-0.3c-0.1-0.1-0.2-0.2-0.3-0.3c-0.4-0.4-0.9-0.6-1.4-0.8c-0.7-0.2-1.5-0.2-2.2-0.1
			h-0.1l-1.8-1.7h0.4c0.4,0,0.8,0.1,1.2,0.4l1-0.4l0.1-0.4l-1,0.1v0.1l-0.2-0.1L17,4.2c-0.5-0.1-1.1-0.1-1.6,0h-0.1l-0.4-0.4
			l0.2-0.1l0-0.1l-0.6-0.1l-0.2,0.6L14.6,4l0.3,0.3l-0.2,0.1c-0.1,0.1-0.3,0.1-0.4,0.2l-0.1,0.1l-0.2-0.1l-0.2,0.6
			c0,0.2,0,0.4,0.1,0.6c0.1,0.2,0.2,0.3,0.4,0.4c0.4,0.4,0.9,0.7,1.4,0.8c0.7,0.2,1.3,0.2,2,0.2h0.1l1.9,1.8h-0.4
			c-0.5,0-1-0.2-1.4-0.4l-0.1-0.1L18,8.3l-1.1-0.2l-0.1,0.5c0.5,0.4,1.1,0.6,1.7,0.8C19.1,9.6,19.7,9.6,20.4,9.5L20.4,9.5z
			 M20.2,8.8l-1.8-1.7h0.3c0.3,0,0.7,0,1,0.1c0.3,0.1,0.5,0.2,0.7,0.4c0.1,0.1,0.2,0.2,0.2,0.3c0.1,0.1,0.1,0.2,0.1,0.4
			c0,0.1-0.1,0.2-0.1,0.3C20.5,8.6,20.4,8.7,20.2,8.8L20.2,8.8z M19,7.3l1.1,1.1c0,0,0.1-0.1,0.1-0.1c0,0,0.1-0.1,0.1-0.2
			c0-0.1,0-0.2-0.1-0.2c0-0.1-0.1-0.1-0.2-0.2c-0.2-0.2-0.4-0.3-0.6-0.3C19.4,7.4,19.2,7.3,19,7.3z M16.1,6.3L16,6.3
			c-0.2-0.1-0.4-0.2-0.6-0.3c-0.1-0.1-0.2-0.1-0.2-0.2c-0.1-0.1-0.1-0.2-0.1-0.3c0-0.1,0-0.2,0.1-0.3c0-0.1,0.1-0.2,0.2-0.2l0.1-0.1
			l1.7,1.6h-0.3C16.6,6.4,16.4,6.4,16.1,6.3z M16.1,6c0.1,0,0.2,0.1,0.3,0.1l-0.9-0.9c0,0.1-0.1,0.1-0.1,0.2c0,0.1,0.1,0.2,0.2,0.3
			C15.7,5.9,15.9,6,16.1,6z"/>
		<path fill="#FFFFFF" d="M19.6,8.1L18,6.6c-0.7,0.1-1.4,0-2.1-0.1c-0.6-0.2-1.1-0.4-1.5-0.8c-0.2-0.1-0.3-0.3-0.4-0.5
			C14,4.9,14,4.7,14,4.5c0.1-0.4,0.4-0.7,0.9-0.9l-0.4-0.3l0.7-0.2l0.4,0.3c0.5-0.1,1.1-0.1,1.7,0c0.5,0.1,1,0.3,1.5,0.7l-1.1,0.5
			c-0.3-0.2-0.8-0.4-1.2-0.4l1.5,1.4c0.7-0.1,1.5-0.1,2.2,0.1c0.5,0.1,1,0.4,1.4,0.8C21.7,6.6,21.9,6.8,22,7
			c0.1,0.2,0.2,0.5,0.2,0.7c-0.1,0.4-0.4,0.7-0.9,1l0.7,0.7l-0.7,0.2l-0.7-0.6c-0.6,0.1-1.3,0.1-1.9,0C18,8.7,17.3,8.4,16.8,8
			L18,7.5c0.2,0.2,0.5,0.3,0.8,0.4C19.1,8,19.3,8.1,19.6,8.1z M15.7,4.4c-0.1,0-0.1,0.1-0.2,0.2c0,0.1-0.1,0.1-0.1,0.2
			c0,0.1,0,0.2,0.1,0.2c0,0.1,0.1,0.1,0.2,0.2c0.2,0.1,0.3,0.2,0.5,0.3c0.2,0.1,0.5,0.1,0.8,0.1L15.7,4.4z M20.4,7.9
			c0.1,0,0.2-0.1,0.2-0.2c0.1-0.1,0.1-0.2,0.1-0.3c0-0.1,0-0.2-0.1-0.3c0-0.1-0.1-0.2-0.2-0.2c-0.2-0.2-0.4-0.3-0.6-0.3
			c-0.3-0.1-0.6-0.1-0.9-0.1L20.4,7.9z"/>
		<path fill="#E6F1F7" d="M19.5,8.4l-1.6-1.5c-0.7,0.1-1.4,0-2-0.2c-0.6-0.2-1.1-0.4-1.5-0.8c-0.2-0.1-0.3-0.3-0.4-0.5
			C13.9,5.2,13.9,5,14,4.8c0-0.2,0.1-0.4,0.3-0.6c0.1-0.2,0.3-0.3,0.5-0.3l-0.1-0.4l0.5-0.2l0.4,0.3c0.5-0.1,1.1-0.1,1.7,0
			c0.5,0.1,1,0.4,1.4,0.7l-1,0.5c-0.4-0.2-0.8-0.4-1.2-0.4l1.5,1.4C18.5,5.8,19.2,5.8,20,6c0.5,0.2,1,0.4,1.4,0.8
			c0.2,0.1,0.3,0.3,0.5,0.5C21.9,7.6,22,7.8,22,8c-0.1,0.4-0.4,0.7-0.9,1l0.6,0.7l-0.6,0.2l-0.7-0.7c-0.6,0.1-1.3,0.1-1.9,0
			c-0.6-0.1-1.2-0.4-1.7-0.8l1-0.6c0.2,0.2,0.5,0.3,0.8,0.4C18.9,8.3,19.2,8.4,19.5,8.4z M15.6,4.7c-0.1,0-0.1,0.1-0.2,0.2
			c0,0.1-0.1,0.1-0.1,0.2c0,0.1,0,0.2,0.1,0.2c0,0.1,0.1,0.1,0.2,0.2c0.2,0.1,0.3,0.2,0.5,0.3c0.2,0.1,0.5,0.1,0.7,0.1L15.6,4.7z
			 M20.3,8.2c0.1,0,0.2-0.1,0.2-0.2c0.1-0.1,0.1-0.2,0.1-0.3c0-0.1,0-0.2-0.1-0.3c0-0.1-0.1-0.2-0.2-0.2c-0.2-0.2-0.4-0.3-0.6-0.3
			c-0.3-0.1-0.6-0.1-0.9-0.1L20.3,8.2z"/>
		<path fill="#143B61" d="M21.1,9.7l-0.7-0.7c-0.6,0.1-1.2,0.1-1.9-0.1c-0.7-0.2-1.3-0.5-1.9-0.9l-0.1-0.1l0.1-0.2l0.4-0.1L18,7.4
			l0.1,0c0.2,0.2,0.5,0.3,0.8,0.4c0.1,0,0.2,0.1,0.4,0.1L18,6.8c-0.7,0.1-1.4,0-2-0.2c-0.6-0.2-1.1-0.5-1.5-0.9
			c-0.2-0.1-0.3-0.3-0.4-0.6c-0.1-0.2-0.1-0.5-0.1-0.7c0-0.2,0.1-0.4,0.3-0.5c0.1-0.2,0.3-0.3,0.5-0.3l-0.4-0.4l1-0.3l0.4,0.4
			c0.5-0.1,1.1-0.1,1.6,0c0.6,0.1,1.1,0.3,1.6,0.7l-0.1,0.3l-1.3,0.6l-0.1,0c-0.2-0.2-0.4-0.3-0.7-0.3l1.1,1.1
			c0.7-0.1,1.5-0.1,2.2,0.1c0.6,0.2,1.1,0.4,1.5,0.8C21.8,6.5,22,6.7,22.1,7c0.1,0.2,0.2,0.5,0.2,0.8c0,0.2-0.1,0.4-0.3,0.6
			s-0.3,0.3-0.5,0.4l0.6,0.5L22,9.5L21.1,9.7z M20.5,8.8l0.7,0.6l0.5-0.1l-0.7-0.6l0.2-0.1C21.7,8.3,21.9,8,22,7.7
			c0-0.2,0-0.4-0.1-0.6c-0.1-0.2-0.2-0.4-0.4-0.5C21,6.2,20.6,5.9,20,5.8c-0.7-0.2-1.5-0.2-2.2-0.1h-0.1L16,4h0.4
			c0.4,0,0.8,0.1,1.2,0.4L18.5,4c-0.4-0.2-0.8-0.4-1.3-0.5c-0.5-0.1-1.1-0.1-1.6,0h-0.1l-0.4-0.3l-0.4,0.1l0.4,0.3l-0.2,0.1
			c-0.5,0.2-0.7,0.4-0.8,0.8c0,0.2,0,0.4,0.1,0.6c0.1,0.2,0.2,0.3,0.3,0.4C15,5.8,15.5,6.1,16,6.3c0.7,0.2,1.3,0.2,2,0.2H18l1.9,1.8
			h-0.4c-0.3,0-0.6-0.1-0.8-0.2c-0.3-0.1-0.5-0.2-0.8-0.4L17.1,8c0.5,0.3,1,0.6,1.6,0.7C19.2,8.9,19.8,8.9,20.5,8.8L20.5,8.8z
			 M20.3,8.1l-1.8-1.7h0.3c0.3,0,0.7,0,1,0.1c0.3,0.1,0.5,0.2,0.7,0.4c0.1,0.1,0.2,0.2,0.2,0.3c0.1,0.1,0.1,0.2,0.1,0.4
			c0,0.1-0.1,0.2-0.1,0.3C20.6,7.9,20.5,8,20.3,8.1L20.3,8.1z M19.2,6.7l1.1,1.1c0,0,0.1-0.1,0.1-0.1c0,0,0.1-0.1,0.1-0.2
			c0-0.1,0-0.2-0.1-0.2c0-0.1-0.1-0.1-0.2-0.2c-0.2-0.1-0.4-0.3-0.6-0.3C19.6,6.7,19.4,6.7,19.2,6.7L19.2,6.7z M16.3,5.6
			c-0.1,0-0.1,0-0.2-0.1c-0.2-0.1-0.4-0.2-0.6-0.3c-0.2-0.1-0.2-0.3-0.3-0.5c0-0.1,0-0.2,0.1-0.3c0-0.1,0.1-0.2,0.2-0.2l0.1-0.1
			l1.6,1.5H17C16.7,5.7,16.5,5.7,16.3,5.6L16.3,5.6z M15.7,4.5c0,0.1-0.1,0.1-0.1,0.2c0,0.1,0,0.1,0.1,0.2c0,0.1,0.1,0.1,0.1,0.1
			c0.1,0.1,0.3,0.2,0.4,0.3c0.1,0,0.2,0.1,0.3,0.1L15.7,4.5z"/>
		<path fill="#143B61" d="M17.8,12l-0.4,1.8l2.1,0.2l2.1-0.1l2.3-0.8l1.6-1.2l0.6-0.9l0.3-1.4l-1.4,1.5l-2.2,0.8l-3.1,0.3L17.8,12z"
			/>
		<path fill="#143B61" d="M16.5,11.7l-0.4,1.8l-0.8-0.3l0.5-1.8L16.5,11.7z"/>
		<path fill="#FFFFFF" d="M15.1,10C13,8.8,9.5,9.1,6.3,11c-3.2,1.9-5.2,4.8-5.2,7.2l-0.4,0.3L1.5,20c1.5,2.6,6.1,2.7,10.2,0.3
			c4.1-2.4,6.3-6.4,4.8-9l-0.9-1.6L15.1,10z"/>
		<path fill="#143B61" d="M11.8,20.4c-4.2,2.4-8.8,2.3-10.4-0.3l-1-1.7l0.5-0.3c0-2.5,2.2-5.4,5.3-7.2c3.2-1.8,6.7-2.3,8.9-1.1
			l0.5-0.3l1,1.7C18.1,13.8,16,17.9,11.8,20.4z M0.8,18.5l0.8,1.4c1.5,2.5,5.9,2.6,10,0.2c4.1-2.4,6.2-6.3,4.7-8.8l-0.8-1.4
			l-0.4,0.2l-0.1,0c-2.1-1.2-5.6-0.8-8.7,1c-3.1,1.8-5.2,4.7-5.2,7.1v0.1L0.8,18.5z"/>
		<path fill="#FFFFFF" d="M10.8,18.7c4.1-2.4,6.3-6.4,4.8-9C14.1,7.1,9.5,7,5.4,9.4s-6.3,6.4-4.8,9C2.1,21,6.7,21.1,10.8,18.7z"/>
		<path fill="#E6F1F7" d="M15.8,10.1c1.5,2.5-0.7,6.6-4.8,9c-4.1,2.4-8.7,2.3-10.2-0.3c-1.5-2.6,0.6-6.6,4.8-9
			C9.7,7.4,14.3,7.5,15.8,10.1z"/>
		<path fill="#143B61" d="M10.9,18.8C6.7,21.3,2,21.1,0.5,18.5c-1.5-2.6,0.6-6.7,4.8-9.2C9.5,6.9,14.2,7,15.7,9.6
			C17.2,12.2,15.1,16.4,10.9,18.8z M5.5,9.6c-4.1,2.4-6.2,6.3-4.7,8.8c1.5,2.5,5.9,2.6,10,0.2c4.1-2.4,6.2-6.3,4.7-8.8
			S9.5,7.2,5.5,9.6z"/>
		<path fill="#FFFFFF" d="M14,10.4c1.1,1.9-0.6,5-3.9,7c-3.3,1.9-6.9,1.9-8,0c-1.1-1.9,0.6-5,3.9-7S12.8,8.4,14,10.4z"/>
		<path fill="#143B61" d="M10.1,17.5c-3.4,2-7,2-8.2,0c-1.2-2,0.6-5.2,4-7.2c3.4-2,7-2,8.2,0C15.2,12.3,13.4,15.5,10.1,17.5z
			 M6,10.5c-3.2,1.9-5,4.9-3.9,6.8c1.1,1.9,4.6,1.8,7.8-0.1c3.3-1.9,5-4.9,3.9-6.8C12.8,8.6,9.2,8.6,6,10.5z"/>
		<path fill="#FFFFFF" d="M5.9,10.4c-3.3,1.9-5,5-3.9,7c0.1,0.2,0.2,0.3,0.4,0.5c-0.6-1.9,1.2-4.7,4.2-6.4c3-1.8,6.2-1.9,7.6-0.5
			c-0.1-0.2-0.1-0.4-0.2-0.6C12.8,8.4,9.2,8.4,5.9,10.4z"/>
		<path fill="#143B61" d="M14.3,11.2L14.1,11c-1.4-1.4-4.6-1.2-7.5,0.5c-2.9,1.7-4.7,4.4-4.1,6.3l0.1,0.3l-0.3-0.2
			c-0.2-0.1-0.3-0.3-0.4-0.5c-1.2-2,0.6-5.2,4-7.2c3.4-2,7-2,8.2,0c0.1,0.2,0.2,0.4,0.2,0.6L14.3,11.2z M6,10.5
			c-3.2,1.9-5,4.9-3.9,6.8c-0.2-2,1.6-4.4,4.3-6c2.8-1.6,5.8-1.9,7.4-0.8C12.8,8.6,9.2,8.6,6,10.5z"/>
		<path fill="#143B61" d="M5,11l0.6,1l-1.5,1.3L2.9,15l-0.6,1.7l0.1,1.1L1.8,17l-0.1-1.3l0.4-1.4l1.1-1.6l1.6-1.5L5,11z"/>
		<path fill="#FFFFFF" d="M12.2,13.7c0.1-0.3,0.1-0.6,0-0.9l-0.4-0.7l-0.6,0.1c-0.1,0-0.3,0-0.4,0c-0.6,0-1.1,0.2-1.6,0.4
			c-0.6,0.4-1.2,0.9-1.7,1.5l-2,0c0.3-0.3,0.7-0.5,1.1-0.6l0.5-1.1l-0.3-0.7l-0.9,1C5.8,12.9,5.6,13,5.5,13
			c-0.5,0.3-0.9,0.7-1.2,1.1H4.1l0-0.1L4,13.8l-0.8,0.4l0.6,1l0.2-0.4H4c-0.1,0.1-0.1,0.3-0.1,0.5l-0.3,0.1L4,16.1
			c0.1,0.2,0.3,0.3,0.5,0.4c0.2,0.1,0.4,0.1,0.6,0.1c0.6,0,1.1-0.2,1.6-0.4c0.6-0.3,1.1-0.8,1.6-1.3l2.2,0c-0.2,0.2-0.4,0.3-0.7,0.4
			c-0.2,0.1-0.3,0.2-0.5,0.2l0-0.2L8.1,16l0.4,0.6c0.7-0.1,1.3-0.3,1.9-0.7c0.5-0.3,1-0.7,1.4-1.3h0.9l0.4-0.7l-0.4-0.6L12.2,13.7z
			 M6.3,15.2c-0.2,0.1-0.4,0.1-0.6,0.2c-0.1,0-0.2,0-0.2,0c-0.1,0-0.2-0.1-0.2-0.1c-0.1-0.1-0.1-0.1-0.1-0.2c0-0.1,0-0.1,0-0.2
			l1.8,0C6.7,15,6.5,15.1,6.3,15.2z M11,14.1l-2,0c0.2-0.2,0.4-0.4,0.7-0.6c0.2-0.1,0.4-0.2,0.7-0.2c0.1,0,0.2,0,0.3,0
			c0.1,0,0.2,0.1,0.3,0.2c0.1,0.1,0.1,0.2,0.1,0.3C11,13.9,11,14,11,14.1z"/>
		<path fill="#143B61" d="M12.8,14.8h-0.9c-0.4,0.5-0.8,0.9-1.4,1.3c-0.6,0.4-1.3,0.6-2,0.7H8.4L7.9,16l1.4-1l0.1,0.2
			c0.1,0,0.3-0.1,0.4-0.2c0.1-0.1,0.2-0.1,0.3-0.2l-1.7,0c-0.4,0.5-1,1-1.6,1.3c-0.5,0.3-1.1,0.4-1.7,0.5c-0.2,0-0.5,0-0.7-0.1
			c-0.2-0.1-0.4-0.2-0.6-0.4l-0.4-0.7l0.1-0.2l-0.6-1L4,13.6l0.3,0.4c0.3-0.4,0.7-0.8,1.2-1.1c0.1-0.1,0.2-0.1,0.3-0.2l1-1.1
			l0.5,0.8l-0.5,1.2H6.6c-0.3,0-0.5,0.1-0.7,0.3l1.5,0c0.5-0.6,1-1.1,1.7-1.5c0.5-0.3,1.1-0.4,1.6-0.4c0.1,0,0.3,0,0.4,0l0.6,0
			l0.4,0.7l0.1,0.2c0,0.2,0.1,0.3,0,0.5l0.4-0.2l0.5,0.8L12.8,14.8z M11.7,14.6h0.9l0.3-0.5l-0.2-0.4L12,14.1l0.1-0.3
			c0.1-0.3,0.1-0.5,0-0.8l-0.1-0.2l-0.2-0.4l-0.5,0.1c-0.1,0-0.3,0-0.4,0c-0.5,0-1.1,0.1-1.5,0.4c-0.6,0.4-1.2,0.9-1.6,1.5l0,0.1
			l-2.4,0l0.3-0.2c0.3-0.3,0.7-0.5,1.1-0.6l0.4-1l-0.2-0.4l-0.6,0.7l0.1,0l-0.2,0.1c-0.1,0-0.2,0.1-0.3,0.1
			c-0.4,0.3-0.8,0.7-1.1,1.1l0,0.1H3.9L4,14.1L3.9,14l-0.5,0.4l0.2,0.5l0.1-0.2h0.5l-0.1,0.2C4.1,15,4,15.2,4,15.3v0.1l-0.2,0
			L4.1,16c0.1,0.1,0.3,0.2,0.5,0.3c0.2,0.1,0.4,0.1,0.6,0.1c0.5,0,1.1-0.2,1.6-0.4c0.6-0.3,1.1-0.8,1.5-1.3l0,0l2.6-0.1l-0.3,0.3
			c-0.2,0.2-0.4,0.3-0.7,0.5c-0.2,0.1-0.4,0.2-0.6,0.2l-0.1,0l0-0.1l-0.9,0.6l0.2,0.4c0.6-0.1,1.2-0.3,1.8-0.6
			C10.9,15.6,11.3,15.1,11.7,14.6L11.7,14.6z M11.1,14.2l-2.4,0.1L8.8,14c0.2-0.3,0.5-0.5,0.7-0.6c0.2-0.1,0.5-0.2,0.8-0.2
			c0.1,0,0.2,0,0.4,0c0.1,0,0.2,0.1,0.3,0.2c0.1,0.1,0.1,0.2,0.1,0.3C11.2,13.9,11.1,14,11.1,14.2L11.1,14.2z M9.3,14l1.6,0
			c0-0.1,0-0.1,0-0.2c0-0.1,0-0.1-0.1-0.2c-0.1-0.1-0.1-0.1-0.2-0.1c-0.1,0-0.2,0-0.2,0c-0.2,0-0.4,0.1-0.6,0.2
			C9.6,13.7,9.4,13.8,9.3,14L9.3,14z M6.5,15.3l-0.2,0.1c-0.2,0.1-0.4,0.2-0.6,0.2c-0.2,0-0.4-0.1-0.6-0.2C5,15.3,5,15.2,5,15.1
			c0-0.1,0-0.2,0-0.3v-0.1l2.2,0L7,14.9C6.8,15,6.7,15.2,6.5,15.3L6.5,15.3z M6.2,15.1c0.1,0,0.2-0.1,0.3-0.2H5.2c0,0,0,0.1,0,0.1
			c0,0,0,0.1,0.1,0.1c0.1,0.1,0.2,0.1,0.4,0.1C5.9,15.2,6,15.2,6.2,15.1L6.2,15.1z"/>
		<path fill="#FFFFFF" d="M10.2,14.1l-2.2,0c-0.4,0.5-1,1-1.6,1.3c-0.5,0.3-1.1,0.4-1.6,0.4c-0.2,0-0.4,0-0.6-0.1
			c-0.2-0.1-0.4-0.2-0.5-0.4c-0.1-0.2-0.2-0.4-0.2-0.6c0-0.2,0.1-0.4,0.2-0.6H3.1l0.4-0.7H4c0.3-0.5,0.7-0.9,1.2-1.1
			c0.5-0.3,1-0.5,1.5-0.6L6.3,13c-0.4,0.1-0.8,0.3-1.1,0.6l2,0c0.5-0.6,1-1.1,1.7-1.5c0.5-0.3,1-0.4,1.6-0.4c0.2,0,0.5,0,0.7,0.1
			c0.2,0.1,0.4,0.2,0.6,0.4c0.1,0.2,0.2,0.4,0.2,0.7c0,0.2,0,0.5-0.2,0.7h1l-0.4,0.6h-0.9c-0.4,0.5-0.8,1-1.4,1.3
			c-0.6,0.3-1.2,0.6-1.9,0.7l0.5-1.2c0.3-0.1,0.6-0.2,0.9-0.3C9.7,14.4,10,14.3,10.2,14.1z M4.8,14.2c0,0.1,0,0.2,0,0.2
			c0,0.1,0.1,0.1,0.1,0.2c0.1,0.1,0.1,0.1,0.2,0.1c0.1,0,0.2,0,0.2,0c0.2,0,0.4-0.1,0.6-0.2c0.2-0.1,0.4-0.3,0.6-0.4L4.8,14.2z
			 M10.6,13.5c0-0.1,0.1-0.2,0.1-0.3c0-0.1,0-0.2-0.1-0.3c-0.1-0.1-0.2-0.1-0.3-0.2c-0.1,0-0.2,0-0.3,0c-0.2,0-0.5,0.1-0.7,0.2
			C9,13,8.8,13.2,8.6,13.5L10.6,13.5z"/>
		<path fill="#E6F1F7" d="M10.3,14.4l-2.2,0c-0.4,0.5-1,1-1.6,1.3C6,16,5.5,16.2,4.9,16.2c-0.2,0-0.4,0-0.6-0.1
			C4.1,16,4,15.9,3.9,15.7c-0.1-0.2-0.2-0.4-0.2-0.6c0-0.2,0-0.4,0.1-0.6l-0.3-0.2l0.2-0.5h0.5c0.3-0.5,0.7-0.8,1.2-1.1
			c0.5-0.3,1-0.4,1.5-0.4l-0.4,1c-0.4,0.1-0.8,0.3-1.1,0.6l2,0c0.5-0.6,1-1.1,1.7-1.5c0.5-0.3,1-0.4,1.6-0.4c0.2,0,0.5,0,0.7,0.1
			c0.2,0.1,0.4,0.2,0.6,0.4c0.1,0.2,0.2,0.4,0.2,0.7c0,0.2-0.1,0.5-0.2,0.7l0.9,0.1l-0.3,0.6h-0.9c-0.4,0.5-0.8,1-1.4,1.3
			c-0.5,0.3-1.1,0.5-1.7,0.6l0.3-1.1c0.3,0,0.6-0.1,0.9-0.2C9.9,14.7,10.1,14.6,10.3,14.4z M4.9,14.5c0,0.1,0,0.1,0,0.2
			c0,0.1,0.1,0.1,0.1,0.2C5.1,15,5.1,15,5.2,15.1c0.1,0,0.2,0,0.2,0c0.2,0,0.4-0.1,0.6-0.2c0.2-0.1,0.4-0.3,0.6-0.4L4.9,14.5z
			 M10.7,13.8c0-0.1,0.1-0.2,0-0.3c0-0.1,0-0.2-0.1-0.3c-0.1-0.1-0.2-0.1-0.3-0.2c-0.1,0-0.2,0-0.3,0c-0.2,0-0.5,0.1-0.7,0.2
			c-0.3,0.2-0.5,0.4-0.7,0.6L10.7,13.8z"/>
		<path fill="#143B61" d="M12.4,14.2h-0.9c-0.4,0.5-0.8,0.9-1.4,1.3c-0.6,0.3-1.3,0.6-2,0.7H8.1l-0.1-0.2l0.2-0.4l0.4-0.9h0.1
			c0.3,0,0.6-0.1,0.8-0.3c0.1,0,0.2-0.1,0.3-0.1l-1.7,0c-0.4,0.5-1,1-1.6,1.3C6,15.9,5.4,16,4.8,16.1c-0.2,0-0.5,0-0.7-0.1
			c-0.2-0.1-0.4-0.2-0.6-0.4c-0.1-0.2-0.2-0.4-0.2-0.6c0-0.2,0-0.4,0.1-0.6H2.9l0.5-0.9h0.5c0.3-0.4,0.7-0.8,1.2-1.1
			c0.5-0.3,1-0.6,1.6-0.7l0.1,0.2l-0.5,1.3H6.3c-0.3,0-0.5,0.1-0.7,0.3l1.5,0c0.5-0.6,1-1.1,1.7-1.5c0.5-0.3,1.1-0.4,1.7-0.4
			c0.3,0,0.5,0,0.8,0.1c0.2,0.1,0.5,0.2,0.6,0.4c0.1,0.2,0.2,0.4,0.2,0.6c0,0.2,0,0.5-0.1,0.7l0.8-0.1l0.1,0.2L12.4,14.2z
			 M11.3,13.9h0.9l0.2-0.4l-1,0.1l0.1-0.2c0.1-0.2,0.2-0.4,0.2-0.6c0-0.2-0.1-0.4-0.2-0.6c-0.2-0.2-0.3-0.3-0.5-0.3
			c-0.2-0.1-0.4-0.1-0.6-0.1c-0.5,0-1.1,0.1-1.5,0.4c-0.6,0.4-1.1,0.9-1.6,1.4l0,0.1l-2.5,0.1L5,13.5c0.3-0.3,0.7-0.5,1.1-0.6
			L6.5,12c-0.4,0.1-0.9,0.3-1.3,0.6c-0.5,0.3-0.8,0.7-1.1,1.1l0,0.1H3.6l-0.2,0.4h0.5l-0.1,0.2c-0.1,0.2-0.2,0.4-0.2,0.6
			c0,0.2,0,0.4,0.1,0.6c0.1,0.1,0.3,0.3,0.5,0.3c0.2,0.1,0.4,0.1,0.6,0.1c0.6,0,1.1-0.2,1.6-0.4c0.6-0.3,1.1-0.8,1.5-1.3l0,0
			l2.6-0.1l-0.3,0.2c-0.2,0.2-0.5,0.3-0.7,0.5C9.3,14.8,9,14.9,8.7,15l-0.4,0.9c0.6-0.1,1.1-0.3,1.6-0.6
			C10.5,15,10.9,14.5,11.3,13.9L11.3,13.9z M10.7,13.6l-2.4,0l0.2-0.2c0.2-0.3,0.5-0.5,0.7-0.6c0.2-0.1,0.5-0.2,0.8-0.2
			c0.1,0,0.2,0,0.4,0c0.1,0,0.2,0.1,0.3,0.2c0.1,0.1,0.1,0.2,0.1,0.3C10.8,13.3,10.8,13.4,10.7,13.6L10.7,13.6z M8.9,13.3h1.6
			c0-0.1,0-0.1,0-0.2c0-0.1,0-0.1-0.1-0.2c-0.1-0.1-0.1-0.1-0.2-0.1c-0.1,0-0.2,0-0.2,0c-0.2,0-0.4,0.1-0.6,0.2
			C9.2,13.1,9,13.2,8.9,13.3L8.9,13.3z M6.1,14.7c0,0-0.1,0.1-0.2,0.1c-0.2,0.1-0.4,0.2-0.6,0.2c-0.2,0-0.4-0.1-0.6-0.2
			c-0.1-0.1-0.1-0.2-0.2-0.3c0-0.1,0-0.2,0-0.3v-0.1l2.2,0l-0.3,0.2C6.4,14.4,6.3,14.5,6.1,14.7L6.1,14.7z M4.9,14.4
			C4.9,14.4,4.9,14.4,4.9,14.4c0,0.1,0.1,0.2,0.1,0.2c0,0,0.1,0.1,0.2,0.1c0.1,0,0.1,0,0.2,0c0.2,0,0.4-0.1,0.6-0.1
			c0.1,0,0.2-0.1,0.3-0.2L4.9,14.4z"/>
		<path fill="#143B61" d="M11.6,18.2l0.9,1.6l1.6-1.3l1.4-1.5l1.1-2.2l0.3-2l-0.2-1.1L16,10.5l0.1,2.1l-1,2.1l-2,2.4L11.6,18.2z"/>
		<path fill="#143B61" d="M10.5,18.9l0.9,1.6l-0.8,0.4l-1-1.6L10.5,18.9z"/>
	</g>
</g>
</svg>
