<?xml version="1.0" standalone="no"?>
<!DOCTYPE svg PUBLIC "-//W3C//DTD SVG 1.1//EN" "http://www.w3.org/Graphics/SVG/1.1/DTD/svg11.dtd" >
<svg xmlns="http://www.w3.org/2000/svg" xmlns:xlink="http://www.w3.org/1999/xlink" version="1.1">
<metadata>
Created by FontForge 20190801 at Tue Feb 19 18:54:26 2019
 By root
Copyright (c) 2018 Bold Monday. All rights reserved. Brando Arabic is a trademark of Bold Monday. Unauthorised copying or modification of any of its data is illegal.
</metadata>
<defs>
<font id="BrandoArabicRegular" horiz-adv-x="540" >
  <font-face 
    font-family="Brando Arabic Regular"
    font-weight="400"
    font-stretch="normal"
    units-per-em="1000"
    panose-1="2 6 5 3 6 0 0 2 0 3"
    ascent="745"
    descent="-255"
    x-height="477"
    cap-height="680"
    bbox="-199 -493 7682 996"
    underline-thickness="44"
    underline-position="-154"
    unicode-range="U+000D-FEFC"
  />
<missing-glyph horiz-adv-x="292" 
d="M100 718h92v-920h-92v920z" />
    <glyph glyph-name="fi" unicode="fi" horiz-adv-x="589" 
d="M339 44l45 -1q21 0 21 23v341q0 23 -21 23h-198v-364q0 -23 21 -23h61v-44h-228v44h47q21 0 21 23v364h-78v47h57q21 0 21 23v51q0 45 12 81q12 37 34 63q22 27 54 42t72 15q12 0 34 -2q14 -1 27 -5v-63h-7q-9 4 -30 7q-20 3 -43 3q-43 0 -58 -22t-15 -76v-116h276
q21 0 21 -22v-389q0 -23 21 -23h47v-44h-214v44zM390 635v-2q0 25 14 39t38 14q25 0 39 -13q15 -13 15 -39t-15 -39q-14 -13 -39 -13q-24 0 -38 14t-14 39z" />
    <glyph glyph-name="fl" unicode="fl" horiz-adv-x="571" 
d="M42 44l46 -1q21 0 21 23v364h-78v47h57q21 0 21 23v44q0 102 48 155t146 53q47 0 83 -3q42 -3 64 -7q24 -3 24 -26v-649q0 -23 20 -23h48v-44h-214v44h47q21 0 21 23v589q0 15 -3 24t-12 15q-8 5 -26 7q-22 2 -44 2q-37 0 -61 -6t-37 -19t-19 -34t-6 -52v-115h119v-47
h-119v-364q0 -23 20 -23h50v-44h-216v44z" />
    <glyph glyph-name="uniFC03" unicode="&#xfe8b;&#xfef0;" horiz-adv-x="731" arabic-form="isolated" 
d="M380 -144v-1q-170 0 -252 69q-83 69 -83 218q0 44 6 84q5 35 14 72h46v-8q-7 -32 -12 -69q-4 -33 -4 -72q0 -107 71 -158q70 -51 213 -51q62 0 107 7q46 7 81 20q33 12 51 30t18 40q0 14 -8 27q-8 12 -28 21q-21 9 -55 15q-41 7 -85 11l-61 5v76l4 5l72 -6q71 -6 101 19
q30 26 30 79q0 29 -6 72q-7 49 -16 94l3 5h57q8 -47 12 -88q5 -47 5 -74q0 -106 -59 -144v-3q85 -31 85 -107q0 -44 -21 -78q-22 -36 -61 -59q-42 -25 -97 -38t-128 -13zM544 579q-14 23 -14 45q0 18 8 36q8 17 21 29q15 13 31 20q19 8 38 8q59 0 59 -61v-22h-35v8
q0 29 -32 29q-23 0 -39 -13t-16 -30q0 -25 32 -49h104v-46h-191v46h34z" />
    <glyph glyph-name="uniFC04" unicode="&#xfe8b;&#xfef2;" horiz-adv-x="731" arabic-form="isolated" 
d="M380 -144v-1q-170 0 -252 69q-83 69 -83 218q0 44 6 84q5 35 14 72h46v-8q-7 -32 -12 -69q-4 -33 -4 -72q0 -107 71 -158q70 -51 213 -51q62 0 107 7q46 7 81 20q33 12 51 30t18 40q0 14 -8 27q-8 12 -28 21q-21 9 -55 15q-41 7 -85 11l-61 5v76l4 5l72 -6q71 -6 101 19
q30 26 30 79q0 29 -6 72q-7 49 -16 94l3 5h57q8 -47 12 -88q5 -47 5 -74q0 -106 -59 -144v-3q85 -31 85 -107q0 -44 -21 -78q-22 -36 -61 -59q-42 -25 -97 -38t-128 -13zM544 579q-14 23 -14 45q0 18 8 36q8 17 21 29q15 13 31 20q19 8 38 8q59 0 59 -61v-22h-35v8
q0 29 -32 29q-23 0 -39 -13t-16 -30q0 -25 32 -49h104v-46h-191v46h34zM445 -341h-9l-48 48l-49 -48h-8l-53 51l53 51h8l49 -48l48 48h9l52 -51z" />
    <glyph glyph-name="uniFC09" unicode="&#xfe91;&#xfef0;" horiz-adv-x="731" arabic-form="isolated" 
d="M380 -144v-1q-170 0 -252 69q-83 69 -83 218q0 44 6 84q5 35 14 72h46v-8q-7 -32 -12 -69q-4 -33 -4 -72q0 -107 71 -158q70 -51 213 -51q62 0 107 7q46 7 81 20q33 12 51 30t18 40q0 14 -8 27q-8 12 -28 21q-21 9 -55 15q-41 7 -85 11l-61 5v76l4 5l72 -6q71 -6 101 19
q30 26 30 79q0 29 -6 72q-7 49 -16 94l3 5h57q8 -47 12 -88q5 -47 5 -74q0 -106 -59 -144v-3q85 -31 85 -107q0 -44 -21 -78q-22 -36 -61 -59q-42 -25 -97 -38t-128 -13zM629 -194l52 -51l-52 -51h-8l-53 51l53 51h8z" />
    <glyph glyph-name="uniFC0A" unicode="&#xfe91;&#xfef2;" horiz-adv-x="731" arabic-form="isolated" 
d="M380 -144v-1q-170 0 -252 69q-83 69 -83 218q0 44 6 84q5 35 14 72h46v-8q-7 -32 -12 -69q-4 -33 -4 -72q0 -107 71 -158q70 -51 213 -51q62 0 107 7q46 7 81 20q33 12 51 30t18 40q0 14 -8 27q-8 12 -28 21q-21 9 -55 15q-41 7 -85 11l-61 5v76l4 5l72 -6q71 -6 101 19
q30 26 30 79q0 29 -6 72q-7 49 -16 94l3 5h57q8 -47 12 -88q5 -47 5 -74q0 -106 -59 -144v-3q85 -31 85 -107q0 -44 -21 -78q-22 -36 -61 -59q-42 -25 -97 -38t-128 -13zM629 -194l52 -51l-52 -51h-8l-53 51l53 51h8zM445 -341h-9l-48 48l-49 -48h-8l-53 51l53 51h8l49 -48
l48 48h9l52 -51z" />
    <glyph glyph-name="uniFC0F" unicode="&#xfe97;&#xfef0;" horiz-adv-x="731" arabic-form="isolated" 
d="M380 -144v-1q-170 0 -252 69q-83 69 -83 218q0 44 6 84q5 35 14 72h46v-8q-7 -32 -12 -69q-4 -33 -4 -72q0 -107 71 -158q70 -51 213 -51q62 0 107 7q46 7 81 20q33 12 51 30t18 40q0 14 -8 27q-8 12 -28 21q-21 9 -55 15q-41 7 -85 11l-61 5v76l4 5l72 -6q71 -6 101 19
q30 26 30 79q0 29 -6 72q-7 49 -16 94l3 5h57q8 -47 12 -88q5 -47 5 -74q0 -106 -59 -144v-3q85 -31 85 -107q0 -44 -21 -78q-22 -36 -61 -59q-42 -25 -97 -38t-128 -13zM663 562h-9l-48 48l-49 -48h-8l-53 51l53 51h8l49 -48l48 48h9l52 -51z" />
    <glyph glyph-name="uniFC10" unicode="&#xfe97;&#xfef2;" horiz-adv-x="731" arabic-form="isolated" 
d="M380 -144v-1q-170 0 -252 69q-83 69 -83 218q0 44 6 84q5 35 14 72h46v-8q-7 -32 -12 -69q-4 -33 -4 -72q0 -107 71 -158q70 -51 213 -51q62 0 107 7q46 7 81 20q33 12 51 30t18 40q0 14 -8 27q-8 12 -28 21q-21 9 -55 15q-41 7 -85 11l-61 5v76l4 5l72 -6q71 -6 101 19
q30 26 30 79q0 29 -6 72q-7 49 -16 94l3 5h57q8 -47 12 -88q5 -47 5 -74q0 -106 -59 -144v-3q85 -31 85 -107q0 -44 -21 -78q-22 -36 -61 -59q-42 -25 -97 -38t-128 -13zM663 562h-9l-48 48l-49 -48h-8l-53 51l53 51h8l49 -48l48 48h9l52 -51zM445 -341h-9l-48 48l-49 -48
h-8l-53 51l53 51h8l49 -48l48 48h9l52 -51z" />
    <glyph glyph-name="uniFC13" unicode="&#xfe9b;&#xfef0;" horiz-adv-x="731" arabic-form="isolated" 
d="M380 -144v-1q-170 0 -252 69q-83 69 -83 218q0 44 6 84q5 35 14 72h46v-8q-7 -32 -12 -69q-4 -33 -4 -72q0 -107 71 -158q70 -51 213 -51q62 0 107 7q46 7 81 20q33 12 51 30t18 40q0 14 -8 27q-8 12 -28 21q-21 9 -55 15q-41 7 -85 11l-61 5v76l4 5l72 -6q71 -6 101 19
q30 26 30 79q0 29 -6 72q-7 49 -16 94l3 5h57q8 -47 12 -88q5 -47 5 -74q0 -106 -59 -144v-3q85 -31 85 -107q0 -44 -21 -78q-22 -36 -61 -59q-42 -25 -97 -38t-128 -13zM552 717l49 49h9l50 -49l-50 -49h-9zM663 562h-9l-48 48l-49 -48h-8l-53 51l53 51h8l49 -48l48 48h9
l52 -51z" />
    <glyph glyph-name="uniFC14" unicode="&#xfe9b;&#xfef2;" horiz-adv-x="731" arabic-form="isolated" 
d="M380 -144v-1q-170 0 -252 69q-83 69 -83 218q0 44 6 84q5 35 14 72h46v-8q-7 -32 -12 -69q-4 -33 -4 -72q0 -107 71 -158q70 -51 213 -51q62 0 107 7q46 7 81 20q33 12 51 30t18 40q0 14 -8 27q-8 12 -28 21q-21 9 -55 15q-41 7 -85 11l-61 5v76l4 5l72 -6q71 -6 101 19
q30 26 30 79q0 29 -6 72q-7 49 -16 94l3 5h57q8 -47 12 -88q5 -47 5 -74q0 -106 -59 -144v-3q85 -31 85 -107q0 -44 -21 -78q-22 -36 -61 -59q-42 -25 -97 -38t-128 -13zM552 717l49 49h9l50 -49l-50 -49h-9zM663 562h-9l-48 48l-49 -48h-8l-53 51l53 51h8l49 -48l48 48h9
l52 -51zM445 -341h-9l-48 48l-49 -48h-8l-53 51l53 51h8l49 -48l48 48h9l52 -51z" />
    <glyph glyph-name="uniFC31" unicode="&#xfed3;&#xfef0;" horiz-adv-x="737" arabic-form="isolated" 
d="M598 66l2 -3q91 -31 91 -109q0 -40 -21 -75q-21 -34 -61 -58q-39 -23 -97 -37q-55 -13 -128 -13q-170 0 -252 69q-83 69 -83 218q0 44 6 84q5 35 14 72h46v-8q-7 -32 -12 -69q-4 -33 -4 -72q0 -107 71 -158q70 -51 213 -51q62 0 107 7q46 7 81 20q33 12 51 30t18 40
q0 30 -42 48q-44 19 -142 26l-53 4v76l4 5l79 -7q37 -3 66 2q27 5 45 18t27 36q10 24 11 57l-3 3q-27 -17 -60 -24q-31 -7 -70 -7q-73 0 -116 38q-42 38 -42 110q0 40 14 80t36 71t54 51q31 19 66 19q40 0 71 -22t54 -62q23 -41 35 -94q12 -55 12 -120q0 -79 -21 -126
t-67 -66v-3zM515 265h-1q28 0 61 5q30 4 60 15q-5 43 -16 75q-12 34 -30 60q-19 27 -40 41q-23 15 -48 15q-23 0 -43 -12t-33 -31t-21 -42q-8 -24 -8 -44q0 -43 31 -62q32 -20 88 -20zM508 760l52 -51l-52 -51h-8l-53 51l53 51h8z" />
    <glyph glyph-name="uniFC32" unicode="&#xfed3;&#xfef2;" horiz-adv-x="737" arabic-form="isolated" 
d="M598 66l2 -3q91 -31 91 -109q0 -40 -21 -75q-21 -34 -61 -58q-39 -23 -97 -37q-55 -13 -128 -13q-170 0 -252 69q-83 69 -83 218q0 44 6 84q5 35 14 72h46v-8q-7 -32 -12 -69q-4 -33 -4 -72q0 -107 71 -158q70 -51 213 -51q62 0 107 7q46 7 81 20q33 12 51 30t18 40
q0 30 -42 48q-44 19 -142 26l-53 4v76l4 5l79 -7q37 -3 66 2q27 5 45 18t27 36q10 24 11 57l-3 3q-27 -17 -60 -24q-31 -7 -70 -7q-73 0 -116 38q-42 38 -42 110q0 40 14 80t36 71t54 51q31 19 66 19q40 0 71 -22t54 -62q23 -41 35 -94q12 -55 12 -120q0 -79 -21 -126
t-67 -66v-3zM515 265h-1q28 0 61 5q30 4 60 15q-5 43 -16 75q-12 34 -30 60q-19 27 -40 41q-23 15 -48 15q-23 0 -43 -12t-33 -31t-21 -42q-8 -24 -8 -44q0 -43 31 -62q32 -20 88 -20zM508 760l52 -51l-52 -51h-8l-53 51l53 51h8zM446 -426h-9l-48 48l-49 -48h-8l-53 51
l53 51h8l49 -48l48 48h9l52 -51z" />
    <glyph glyph-name="uniFC35" unicode="&#xfed7;&#xfef0;" horiz-adv-x="737" arabic-form="isolated" 
d="M598 66l2 -3q91 -31 91 -109q0 -40 -21 -75q-21 -34 -61 -58q-39 -23 -97 -37q-55 -13 -128 -13q-170 0 -252 69q-83 69 -83 218q0 44 6 84q5 35 14 72h46v-8q-7 -32 -12 -69q-4 -33 -4 -72q0 -107 71 -158q70 -51 213 -51q62 0 107 7q46 7 81 20q33 12 51 30t18 40
q0 30 -42 48q-44 19 -142 26l-53 4v76l4 5l79 -7q37 -3 66 2q27 5 45 18t27 36q10 24 11 57l-3 3q-27 -17 -60 -24q-31 -7 -70 -7q-73 0 -116 38q-42 38 -42 110q0 40 14 80t36 71t54 51q31 19 66 19q40 0 71 -22t54 -62q23 -41 35 -94q12 -55 12 -120q0 -79 -21 -126
t-67 -66v-3zM515 265h-1q28 0 61 5q30 4 60 15q-5 43 -16 75q-12 34 -30 60q-19 27 -40 41q-23 15 -48 15q-23 0 -43 -12t-33 -31t-21 -42q-8 -24 -8 -44q0 -43 31 -62q32 -20 88 -20zM561 658h-9l-48 48l-49 -48h-8l-53 51l53 51h8l49 -48l48 48h9l52 -51z" />
    <glyph glyph-name="uniFC36" unicode="&#xfed7;&#xfef2;" horiz-adv-x="737" arabic-form="isolated" 
d="M598 66l2 -3q91 -31 91 -109q0 -40 -21 -75q-21 -34 -61 -58q-39 -23 -97 -37q-55 -13 -128 -13q-170 0 -252 69q-83 69 -83 218q0 44 6 84q5 35 14 72h46v-8q-7 -32 -12 -69q-4 -33 -4 -72q0 -107 71 -158q70 -51 213 -51q62 0 107 7q46 7 81 20q33 12 51 30t18 40
q0 30 -42 48q-44 19 -142 26l-53 4v76l4 5l79 -7q37 -3 66 2q27 5 45 18t27 36q10 24 11 57l-3 3q-27 -17 -60 -24q-31 -7 -70 -7q-73 0 -116 38q-42 38 -42 110q0 40 14 80t36 71t54 51q31 19 66 19q40 0 71 -22t54 -62q23 -41 35 -94q12 -55 12 -120q0 -79 -21 -126
t-67 -66v-3zM515 265h-1q28 0 61 5q30 4 60 15q-5 43 -16 75q-12 34 -30 60q-19 27 -40 41q-23 15 -48 15q-23 0 -43 -12t-33 -31t-21 -42q-8 -24 -8 -44q0 -43 31 -62q32 -20 88 -20zM446 -426h-9l-48 48l-49 -48h-8l-53 51l53 51h8l49 -48l48 48h9l52 -51zM561 658h-9
l-48 48l-49 -48h-8l-53 51l53 51h8l49 -48l48 48h9l52 -51z" />
    <glyph glyph-name="uniFC3D" unicode="&#xfedb;&#xfef0;" horiz-adv-x="771" arabic-form="isolated" 
d="M380 -235l-4 1q-170 0 -252 69t-82 218q0 45 6 86q5 35 14 72h46v-7q-8 -32 -12 -69q-4 -33 -4 -72q0 -108 71 -159t213 -51q59 0 107 6t81 18t51 30t18 40q0 14 -8 27q-8 12 -28 21q-21 9 -55 15q-41 7 -85 11l-61 6v76l4 4l72 -6q72 -7 109 11q36 18 36 55q0 12 -5 27
q-5 14 -15 29q-11 15 -27 33q-19 21 -42 41l-138 131v79l418 246h7v-73l-361 -210l77 -78q36 -34 66 -68q25 -28 43 -57q16 -27 24 -51q7 -22 7 -49q0 -71 -70 -105v-2q86 -32 86 -108q0 -44 -21 -78q-22 -36 -61 -59t-97 -37q-55 -13 -128 -13z" />
    <glyph glyph-name="uniFC3E" unicode="&#xfedb;&#xfef2;" horiz-adv-x="771" arabic-form="isolated" 
d="M380 -235l-4 1q-170 0 -252 69t-82 218q0 45 6 86q5 35 14 72h46v-7q-8 -32 -12 -69q-4 -33 -4 -72q0 -108 71 -159t213 -51q59 0 107 6t81 18t51 30t18 40q0 14 -8 27q-8 12 -28 21q-21 9 -55 15q-41 7 -85 11l-61 6v76l4 4l72 -6q72 -7 109 11q36 18 36 55q0 12 -5 27
q-5 14 -15 29q-11 15 -27 33q-19 21 -42 41l-138 131v79l418 246h7v-73l-361 -210l77 -78q36 -34 66 -68q25 -28 43 -57q16 -27 24 -51q7 -22 7 -49q0 -71 -70 -105v-2q86 -32 86 -108q0 -44 -21 -78q-22 -36 -61 -59t-97 -37q-55 -13 -128 -13zM433 -430h-9l-48 48l-49 -48
h-8l-53 51l53 51h8l49 -48l48 48h9l52 -51z" />
    <glyph glyph-name="uniFC42" unicode="&#xfedf;&#xfee2;" horiz-adv-x="400" arabic-form="isolated" 
d="M228 206l1 -1q-10 33 -10 87v452h61v-452q0 -38 3 -62q3 -23 14 -44q45 -16 90 -44l42 -25l-42 -63l-43 25q-35 21 -74 33q-38 12 -74 12q-60 0 -84 -21t-24 -74v-345h-57v345q0 93 39 135t125 42h16q5 0 15 -2z" />
    <glyph glyph-name="uniFC43" unicode="&#xfedf;&#xfef0;" horiz-adv-x="771" arabic-form="isolated" 
d="M593 60l-2 -4q53 -16 75 -42q22 -25 22 -62q0 -44 -21 -78q-21 -35 -61 -60q-41 -26 -97 -39q-55 -13 -128 -13q-169 0 -252 69q-82 69 -82 218q0 45 6 86q5 35 14 72h46v-7q-7 -32 -12 -69q-4 -33 -4 -72q0 -108 71 -159q70 -51 213 -51q62 0 107 7q46 7 81 20
q33 12 51 30t18 40q0 14 -8 27q-8 12 -28 21q-21 9 -55 15q-41 7 -85 11l-61 6v76l4 4l72 -6q63 -5 94 22t31 93v529h61v-529q0 -57 -16 -93q-17 -38 -54 -60v-2z" />
    <glyph glyph-name="uniFC44" unicode="&#xfedf;&#xfef2;" horiz-adv-x="771" arabic-form="isolated" 
d="M593 60l-2 -4q53 -16 75 -42q22 -25 22 -62q0 -44 -21 -78q-21 -35 -61 -60q-41 -26 -97 -39q-55 -13 -128 -13q-169 0 -252 69q-82 69 -82 218q0 45 6 86q5 35 14 72h46v-7q-7 -32 -12 -69q-4 -33 -4 -72q0 -108 71 -159q70 -51 213 -51q62 0 107 7q46 7 81 20
q33 12 51 30t18 40q0 14 -8 27q-8 12 -28 21q-21 9 -55 15q-41 7 -85 11l-61 6v76l4 4l72 -6q63 -5 94 22t31 93v529h61v-529q0 -57 -16 -93q-17 -38 -54 -60v-2zM435 -435h-9l-48 48l-49 -48h-8l-53 51l53 51h8l49 -48l48 48h9l52 -51z" />
    <glyph glyph-name="uniFC4F" unicode="&#xfee7;&#xfef0;" horiz-adv-x="731" arabic-form="isolated" 
d="M380 -144v-1q-170 0 -252 69q-83 69 -83 218q0 44 6 84q5 35 14 72h46v-8q-7 -32 -12 -69q-4 -33 -4 -72q0 -107 71 -158q70 -51 213 -51q62 0 107 7q46 7 81 20q33 12 51 30t18 40q0 14 -8 27q-8 12 -28 21q-21 9 -55 15q-41 7 -85 11l-61 5v76l4 5l72 -6q71 -6 101 19
q30 26 30 79q0 29 -6 72q-7 49 -16 94l3 5h57q8 -47 12 -88q5 -47 5 -74q0 -106 -59 -144v-3q85 -31 85 -107q0 -44 -21 -78q-22 -36 -61 -59q-42 -25 -97 -38t-128 -13zM610 664l52 -51l-52 -51h-8l-53 51l53 51h8z" />
    <glyph glyph-name="uniFC50" unicode="&#xfee7;&#xfef2;" horiz-adv-x="731" arabic-form="isolated" 
d="M380 -144v-1q-170 0 -252 69q-83 69 -83 218q0 44 6 84q5 35 14 72h46v-8q-7 -32 -12 -69q-4 -33 -4 -72q0 -107 71 -158q70 -51 213 -51q62 0 107 7q46 7 81 20q33 12 51 30t18 40q0 14 -8 27q-8 12 -28 21q-21 9 -55 15q-41 7 -85 11l-61 5v76l4 5l72 -6q71 -6 101 19
q30 26 30 79q0 29 -6 72q-7 49 -16 94l3 5h57q8 -47 12 -88q5 -47 5 -74q0 -106 -59 -144v-3q85 -31 85 -107q0 -44 -21 -78q-22 -36 -61 -59q-42 -25 -97 -38t-128 -13zM610 664l52 -51l-52 -51h-8l-53 51l53 51h8zM445 -341h-9l-48 48l-49 -48h-8l-53 51l53 51h8l49 -48
l48 48h9l52 -51z" />
    <glyph glyph-name="uniFC59" unicode="&#xfef3;&#xfef0;" horiz-adv-x="731" arabic-form="isolated" 
d="M380 -144v-1q-170 0 -252 69q-83 69 -83 218q0 44 6 84q5 35 14 72h46v-8q-7 -32 -12 -69q-4 -33 -4 -72q0 -107 71 -158q70 -51 213 -51q62 0 107 7q46 7 81 20q33 12 51 30t18 40q0 14 -8 27q-8 12 -28 21q-21 9 -55 15q-41 7 -85 11l-61 5v76l4 5l72 -6q71 -6 101 19
q30 26 30 79q0 29 -6 72q-7 49 -16 94l3 5h57q8 -47 12 -88q5 -47 5 -74q0 -106 -59 -144v-3q85 -31 85 -107q0 -44 -21 -78q-22 -36 -61 -59q-42 -25 -97 -38t-128 -13zM682 -296h-9l-48 48l-49 -48h-8l-53 51l53 51h8l49 -48l48 48h9l52 -51z" />
    <glyph glyph-name="uniFC5A" unicode="&#xfef3;&#xfef2;" horiz-adv-x="731" arabic-form="isolated" 
d="M380 -144v-1q-170 0 -252 69q-83 69 -83 218q0 44 6 84q5 35 14 72h46v-8q-7 -32 -12 -69q-4 -33 -4 -72q0 -107 71 -158q70 -51 213 -51q62 0 107 7q46 7 81 20q33 12 51 30t18 40q0 14 -8 27q-8 12 -28 21q-21 9 -55 15q-41 7 -85 11l-61 5v76l4 5l72 -6q71 -6 101 19
q30 26 30 79q0 29 -6 72q-7 49 -16 94l3 5h57q8 -47 12 -88q5 -47 5 -74q0 -106 -59 -144v-3q85 -31 85 -107q0 -44 -21 -78q-22 -36 -61 -59q-42 -25 -97 -38t-128 -13zM339 -341h-9l-48 48l-49 -48h-8l-53 51l53 51h8l49 -48l48 48h9l52 -51zM576 -296h-9l-48 48l-49 -48
h-8l-53 51l53 51h8l49 -48l48 48h9l52 -51z" />
    <glyph glyph-name="uniFC64" unicode="&#xfe8c;&#xfeae;" horiz-adv-x="577" arabic-form="final" 
d="M39 -255l-2 -5q-37 0 -72 15q-33 14 -66 41v44l7 5q29 -12 57 -19q25 -6 51 -6q38 0 71 18q32 18 57 50t38 77q14 47 14 98q0 46 -12 104q-12 60 -33 122l3 5h58l15 -59l183 29v60h51v-146q0 -56 27 -79q26 -22 84 -22h4v-62l-18 -18h-1q-71 0 -109 39q-37 38 -37 123v25
l-170 -26q4 -22 6 -44q2 -28 2 -41q0 -74 -16 -132q-17 -61 -45 -104q-29 -44 -66 -68q-38 -24 -81 -24zM373 441q-14 23 -14 45q0 18 8 36q8 17 21 29q15 13 31 20q19 8 38 8q59 0 59 -61v-22h-35v8q0 29 -32 29q-23 0 -39 -13t-16 -30q0 -25 32 -49h104v-46h-191v46h34z
" />
    <glyph glyph-name="uniFC65" unicode="&#xfe8c;&#xfeb0;" horiz-adv-x="577" arabic-form="final" 
d="M39 -255l-2 -5q-37 0 -72 15q-33 14 -66 41v44l7 5q29 -12 57 -19q25 -6 51 -6q38 0 71 18q32 18 57 50t38 77q14 47 14 98q0 46 -12 104q-12 60 -33 122l3 5h58l15 -59l183 29v60h51v-146q0 -56 27 -79q26 -22 84 -22h4v-62l-18 -18h-1q-71 0 -109 39q-37 38 -37 123v25
l-170 -26q4 -22 6 -44q2 -28 2 -41q0 -74 -16 -132q-17 -61 -45 -104q-29 -44 -66 -68q-38 -24 -81 -24zM373 441q-14 23 -14 45q0 18 8 36q8 17 21 29q15 13 31 20q19 8 38 8q59 0 59 -61v-22h-35v8q0 29 -32 29q-23 0 -39 -13t-16 -30q0 -25 32 -49h104v-46h-191v46h34z
M165 496l52 -51l-52 -51h-8l-53 51l53 51h8z" />
    <glyph glyph-name="uniFC67" unicode="&#xfe8c;&#xfee6;" horiz-adv-x="916" arabic-form="final" 
d="M314 -204l-3 -2q-130 0 -200 68q-69 68 -69 192q0 40 6 77q5 32 17 78h46v-8q-10 -40 -14 -69q-5 -37 -5 -63q0 -89 57 -138q58 -50 161 -50q106 0 161 47q54 46 54 135q0 45 -9 107q-10 65 -25 120l3 5h58l12 -59l185 29v60h51v-146q0 -57 27 -79q26 -22 84 -22h4v-62
l-18 -18h-1q-72 0 -109 39q-37 38 -37 123v25l-173 -27q4 -22 6 -44q2 -28 2 -38q0 -137 -70 -208q-71 -72 -201 -72zM712 444q-14 23 -14 45q0 18 8 36q8 17 21 29q15 13 31 20q19 8 38 8q59 0 59 -61v-22h-35v8q0 29 -32 29q-23 0 -39 -13t-16 -30q0 -25 32 -49h104v-46
h-191v46h34zM321 381l52 -51l-52 -51h-8l-53 51l53 51h8z" />
    <glyph glyph-name="uniFC68" unicode="&#xfe8c;&#xfef0;" horiz-adv-x="873" arabic-form="final" 
d="M521 446q-14 23 -14 45q0 18 8 36q8 17 21 29q15 13 31 20q19 8 38 8q59 0 59 -61v-22h-35v8q0 29 -32 29q-23 0 -39 -13t-16 -30q0 -25 32 -49h104v-46h-191v46h34zM358 -285l-11 -7q-154 0 -233 64q-80 65 -80 201q0 42 6 81q5 34 14 71h46v-8q-8 -32 -12 -64
q-4 -29 -4 -68q0 -96 70 -141t208 -45q55 0 108 8q50 8 86 21q36 14 57 33t21 42t-19 36q-21 14 -69 26l-74 18q-39 9 -65 21q-27 12 -45 27t-27 35t-9 47q0 39 21 77t56 68q34 30 80 48q45 18 92 18t78 -22q33 -23 56 -70l31 -62q11 -24 26 -46q11 -16 26 -28
q14 -11 28 -15q13 -4 35 -4h11v-62l-18 -18h-8q-26 0 -47 6t-39 21q-19 16 -35 39q-13 19 -34 59l-24 49q-19 39 -45 57t-60 18q-32 0 -64 -9t-56 -24q-25 -15 -39 -34q-15 -19 -15 -39q0 -27 23 -42q24 -16 75 -29l73 -19q36 -10 64 -21q26 -10 43 -24q16 -13 24 -33
q8 -21 8 -46q0 -50 -25 -88q-26 -39 -70 -66q-45 -27 -106 -42t-133 -15z" />
    <glyph glyph-name="uniFC69" unicode="&#xfe8c;&#xfef2;" horiz-adv-x="873" arabic-form="final" 
d="M521 446q-14 23 -14 45q0 18 8 36q8 17 21 29q15 13 31 20q19 8 38 8q59 0 59 -61v-22h-35v8q0 29 -32 29q-23 0 -39 -13t-16 -30q0 -25 32 -49h104v-46h-191v46h34zM415 -481h-9l-48 48l-49 -48h-8l-53 51l53 51h8l49 -48l48 48h9l52 -51zM358 -285l-11 -7
q-154 0 -233 64q-80 65 -80 201q0 42 6 81q5 34 14 71h46v-8q-8 -32 -12 -64q-4 -29 -4 -68q0 -96 70 -141t208 -45q55 0 108 8q50 8 86 21q36 14 57 33t21 42t-19 36q-21 14 -69 26l-74 18q-39 9 -65 21q-27 12 -45 27t-27 35t-9 47q0 39 21 77t56 68q34 30 80 48
q45 18 92 18t78 -22q33 -23 56 -70l31 -62q11 -24 26 -46q11 -16 26 -28q14 -11 28 -15q13 -4 35 -4h11v-62l-18 -18h-8q-26 0 -47 6t-39 21q-19 16 -35 39q-13 19 -34 59l-24 49q-19 39 -45 57t-60 18q-32 0 -64 -9t-56 -24q-25 -15 -39 -34q-15 -19 -15 -39q0 -27 23 -42
q24 -16 75 -29l73 -19q36 -10 64 -21q26 -10 43 -24q16 -13 24 -33q8 -21 8 -46q0 -50 -25 -88q-26 -39 -70 -66q-45 -27 -106 -42t-133 -15z" />
    <glyph glyph-name="uniFC6A" unicode="&#xfe92;&#xfeae;" horiz-adv-x="577" arabic-form="final" 
d="M39 -255l-2 -5q-37 0 -72 15q-33 14 -66 41v44l7 5q29 -12 57 -19q25 -6 51 -6q38 0 71 18q32 18 57 50t38 77q14 47 14 98q0 46 -12 104q-12 60 -33 122l3 5h58l15 -59l183 29v60h51v-146q0 -56 27 -79q26 -22 84 -22h4v-62l-18 -18h-1q-71 0 -109 39q-37 38 -37 123v25
l-170 -26q4 -22 6 -44q2 -28 2 -41q0 -74 -16 -132q-17 -61 -45 -104q-29 -44 -66 -68q-38 -24 -81 -24zM443 -99l52 -51l-52 -51h-8l-53 51l53 51h8z" />
    <glyph glyph-name="uniFC6B" unicode="&#xfe92;&#xfeb0;" horiz-adv-x="577" arabic-form="final" 
d="M39 -255l-2 -5q-37 0 -72 15q-33 14 -66 41v44l7 5q29 -12 57 -19q25 -6 51 -6q38 0 71 18q32 18 57 50t38 77q14 47 14 98q0 46 -12 104q-12 60 -33 122l3 5h58l15 -59l183 29v60h51v-146q0 -56 27 -79q26 -22 84 -22h4v-62l-18 -18h-1q-71 0 -109 39q-37 38 -37 123v25
l-170 -26q4 -22 6 -44q2 -28 2 -41q0 -74 -16 -132q-17 -61 -45 -104q-29 -44 -66 -68q-38 -24 -81 -24zM443 -99l52 -51l-52 -51h-8l-53 51l53 51h8zM165 496l52 -51l-52 -51h-8l-53 51l53 51h8z" />
    <glyph glyph-name="uniFC6D" unicode="&#xfe92;&#xfee6;" horiz-adv-x="916" arabic-form="final" 
d="M314 -204l-3 -2q-130 0 -200 68q-69 68 -69 192q0 40 6 77q5 32 17 78h46v-8q-10 -40 -14 -69q-5 -37 -5 -63q0 -89 57 -138q58 -50 161 -50q106 0 161 47q54 46 54 135q0 45 -9 107q-10 65 -25 120l3 5h58l12 -59l185 29v60h51v-146q0 -57 27 -79q26 -22 84 -22h4v-62
l-18 -18h-1q-72 0 -109 39q-37 38 -37 123v25l-173 -27q4 -22 6 -44q2 -28 2 -38q0 -137 -70 -208q-71 -72 -201 -72zM321 381l52 -51l-52 -51h-8l-53 51l53 51h8zM780 -96l52 -51l-52 -51h-8l-53 51l53 51h8z" />
    <glyph glyph-name="uniFC6E" unicode="&#xfe92;&#xfef0;" horiz-adv-x="873" arabic-form="final" 
d="M691 -271l52 -51l-52 -51h-8l-53 51l53 51h8zM358 -285l-11 -7q-154 0 -233 64q-80 65 -80 201q0 42 6 81q5 34 14 71h46v-8q-8 -32 -12 -64q-4 -29 -4 -68q0 -96 70 -141t208 -45q55 0 108 8q50 8 86 21q36 14 57 33t21 42t-19 36q-21 14 -69 26l-74 18q-39 9 -65 21
q-27 12 -45 27t-27 35t-9 47q0 39 21 77t56 68q34 30 80 48q45 18 92 18t78 -22q33 -23 56 -70l31 -62q11 -24 26 -46q11 -16 26 -28q14 -11 28 -15q13 -4 35 -4h11v-62l-18 -18h-8q-26 0 -47 6t-39 21q-19 16 -35 39q-13 19 -34 59l-24 49q-19 39 -45 57t-60 18
q-32 0 -64 -9t-56 -24q-25 -15 -39 -34q-15 -19 -15 -39q0 -27 23 -42q24 -16 75 -29l73 -19q36 -10 64 -21q26 -10 43 -24q16 -13 24 -33q8 -21 8 -46q0 -50 -25 -88q-26 -39 -70 -66q-45 -27 -106 -42t-133 -15z" />
    <glyph glyph-name="uniFC6F" unicode="&#xfe92;&#xfef2;" horiz-adv-x="873" arabic-form="final" 
d="M691 -271l52 -51l-52 -51h-8l-53 51l53 51h8zM415 -481h-9l-48 48l-49 -48h-8l-53 51l53 51h8l49 -48l48 48h9l52 -51zM358 -285l-11 -7q-154 0 -233 64q-80 65 -80 201q0 42 6 81q5 34 14 71h46v-8q-8 -32 -12 -64q-4 -29 -4 -68q0 -96 70 -141t208 -45q55 0 108 8
q50 8 86 21q36 14 57 33t21 42t-19 36q-21 14 -69 26l-74 18q-39 9 -65 21q-27 12 -45 27t-27 35t-9 47q0 39 21 77t56 68q34 30 80 48q45 18 92 18t78 -22q33 -23 56 -70l31 -62q11 -24 26 -46q11 -16 26 -28q14 -11 28 -15q13 -4 35 -4h11v-62l-18 -18h-8q-26 0 -47 6
t-39 21q-19 16 -35 39q-13 19 -34 59l-24 49q-19 39 -45 57t-60 18q-32 0 -64 -9t-56 -24q-25 -15 -39 -34q-15 -19 -15 -39q0 -27 23 -42q24 -16 75 -29l73 -19q36 -10 64 -21q26 -10 43 -24q16 -13 24 -33q8 -21 8 -46q0 -50 -25 -88q-26 -39 -70 -66q-45 -27 -106 -42
t-133 -15z" />
    <glyph glyph-name="uniFC70" unicode="&#xfe98;&#xfeae;" horiz-adv-x="577" arabic-form="final" 
d="M39 -255l-2 -5q-37 0 -72 15q-33 14 -66 41v44l7 5q29 -12 57 -19q25 -6 51 -6q38 0 71 18q32 18 57 50t38 77q14 47 14 98q0 46 -12 104q-12 60 -33 122l3 5h58l15 -59l183 29v60h51v-146q0 -56 27 -79q26 -22 84 -22h4v-62l-18 -18h-1q-71 0 -109 39q-37 38 -37 123v25
l-170 -26q4 -22 6 -44q2 -28 2 -41q0 -74 -16 -132q-17 -61 -45 -104q-29 -44 -66 -68q-38 -24 -81 -24zM492 424h-9l-48 48l-49 -48h-8l-53 51l53 51h8l49 -48l48 48h9l52 -51z" />
    <glyph glyph-name="uniFC71" unicode="&#xfe98;&#xfeb0;" horiz-adv-x="577" arabic-form="final" 
d="M39 -255l-2 -5q-37 0 -72 15q-33 14 -66 41v44l7 5q29 -12 57 -19q25 -6 51 -6q38 0 71 18q32 18 57 50t38 77q14 47 14 98q0 46 -12 104q-12 60 -33 122l3 5h58l15 -59l183 29v60h51v-146q0 -56 27 -79q26 -22 84 -22h4v-62l-18 -18h-1q-71 0 -109 39q-37 38 -37 123v25
l-170 -26q4 -22 6 -44q2 -28 2 -41q0 -74 -16 -132q-17 -61 -45 -104q-29 -44 -66 -68q-38 -24 -81 -24zM492 424h-9l-48 48l-49 -48h-8l-53 51l53 51h8l49 -48l48 48h9l52 -51zM165 496l52 -51l-52 -51h-8l-53 51l53 51h8z" />
    <glyph glyph-name="uniFC73" unicode="&#xfe98;&#xfee6;" horiz-adv-x="916" arabic-form="final" 
d="M314 -204l-3 -2q-130 0 -200 68q-69 68 -69 192q0 40 6 77q5 32 17 78h46v-8q-10 -40 -14 -69q-5 -37 -5 -63q0 -89 57 -138q58 -50 161 -50q106 0 161 47q54 46 54 135q0 45 -9 107q-10 65 -25 120l3 5h58l12 -59l185 29v60h51v-146q0 -57 27 -79q26 -22 84 -22h4v-62
l-18 -18h-1q-72 0 -109 39q-37 38 -37 123v25l-173 -27q4 -22 6 -44q2 -28 2 -38q0 -137 -70 -208q-71 -72 -201 -72zM321 381l52 -51l-52 -51h-8l-53 51l53 51h8zM831 427h-9l-48 48l-49 -48h-8l-53 51l53 51h8l49 -48l48 48h9l52 -51z" />
    <glyph glyph-name="uniFC74" unicode="&#xfe98;&#xfef0;" horiz-adv-x="873" arabic-form="final" 
d="M640 429h-9l-48 48l-49 -48h-8l-53 51l53 51h8l49 -48l48 48h9l52 -51zM358 -285l-11 -7q-154 0 -233 64q-80 65 -80 201q0 42 6 81q5 34 14 71h46v-8q-8 -32 -12 -64q-4 -29 -4 -68q0 -96 70 -141t208 -45q55 0 108 8q50 8 86 21q36 14 57 33t21 42t-19 36
q-21 14 -69 26l-74 18q-39 9 -65 21q-27 12 -45 27t-27 35t-9 47q0 39 21 77t56 68q34 30 80 48q45 18 92 18t78 -22q33 -23 56 -70l31 -62q11 -24 26 -46q11 -16 26 -28q14 -11 28 -15q13 -4 35 -4h11v-62l-18 -18h-8q-26 0 -47 6t-39 21q-19 16 -35 39q-13 19 -34 59
l-24 49q-19 39 -45 57t-60 18q-32 0 -64 -9t-56 -24q-25 -15 -39 -34q-15 -19 -15 -39q0 -27 23 -42q24 -16 75 -29l73 -19q36 -10 64 -21q26 -10 43 -24q16 -13 24 -33q8 -21 8 -46q0 -50 -25 -88q-26 -39 -70 -66q-45 -27 -106 -42t-133 -15z" />
    <glyph glyph-name="uniFC75" unicode="&#xfe98;&#xfef2;" horiz-adv-x="873" arabic-form="final" 
d="M640 429h-9l-48 48l-49 -48h-8l-53 51l53 51h8l49 -48l48 48h9l52 -51zM415 -481h-9l-48 48l-49 -48h-8l-53 51l53 51h8l49 -48l48 48h9l52 -51zM358 -285l-11 -7q-154 0 -233 64q-80 65 -80 201q0 42 6 81q5 34 14 71h46v-8q-8 -32 -12 -64q-4 -29 -4 -68q0 -96 70 -141
t208 -45q55 0 108 8q50 8 86 21q36 14 57 33t21 42t-19 36q-21 14 -69 26l-74 18q-39 9 -65 21q-27 12 -45 27t-27 35t-9 47q0 39 21 77t56 68q34 30 80 48q45 18 92 18t78 -22q33 -23 56 -70l31 -62q11 -24 26 -46q11 -16 26 -28q14 -11 28 -15q13 -4 35 -4h11v-62l-18 -18
h-8q-26 0 -47 6t-39 21q-19 16 -35 39q-13 19 -34 59l-24 49q-19 39 -45 57t-60 18q-32 0 -64 -9t-56 -24q-25 -15 -39 -34q-15 -19 -15 -39q0 -27 23 -42q24 -16 75 -29l73 -19q36 -10 64 -21q26 -10 43 -24q16 -13 24 -33q8 -21 8 -46q0 -50 -25 -88q-26 -39 -70 -66
q-45 -27 -106 -42t-133 -15z" />
    <glyph glyph-name="uniFC76" unicode="&#xfe9c;&#xfeae;" horiz-adv-x="577" arabic-form="final" 
d="M39 -255l-2 -5q-37 0 -72 15q-33 14 -66 41v44l7 5q29 -12 57 -19q25 -6 51 -6q38 0 71 18q32 18 57 50t38 77q14 47 14 98q0 46 -12 104q-12 60 -33 122l3 5h58l15 -59l183 29v60h51v-146q0 -56 27 -79q26 -22 84 -22h4v-62l-18 -18h-1q-71 0 -109 39q-37 38 -37 123v25
l-170 -26q4 -22 6 -44q2 -28 2 -41q0 -74 -16 -132q-17 -61 -45 -104q-29 -44 -66 -68q-38 -24 -81 -24zM381 579l49 49h9l50 -49l-50 -49h-9zM492 424h-9l-48 48l-49 -48h-8l-53 51l53 51h8l49 -48l48 48h9l52 -51z" />
    <glyph glyph-name="uniFC77" unicode="&#xfe9c;&#xfeb0;" horiz-adv-x="577" arabic-form="final" 
d="M39 -255l-2 -5q-37 0 -72 15q-33 14 -66 41v44l7 5q29 -12 57 -19q25 -6 51 -6q38 0 71 18q32 18 57 50t38 77q14 47 14 98q0 46 -12 104q-12 60 -33 122l3 5h58l15 -59l183 29v60h51v-146q0 -56 27 -79q26 -22 84 -22h4v-62l-18 -18h-1q-71 0 -109 39q-37 38 -37 123v25
l-170 -26q4 -22 6 -44q2 -28 2 -41q0 -74 -16 -132q-17 -61 -45 -104q-29 -44 -66 -68q-38 -24 -81 -24zM381 579l49 49h9l50 -49l-50 -49h-9zM492 424h-9l-48 48l-49 -48h-8l-53 51l53 51h8l49 -48l48 48h9l52 -51zM165 496l52 -51l-52 -51h-8l-53 51l53 51h8z" />
    <glyph glyph-name="uniFC79" unicode="&#xfe9c;&#xfee6;" horiz-adv-x="916" arabic-form="final" 
d="M314 -204l-3 -2q-130 0 -200 68q-69 68 -69 192q0 40 6 77q5 32 17 78h46v-8q-10 -40 -14 -69q-5 -37 -5 -63q0 -89 57 -138q58 -50 161 -50q106 0 161 47q54 46 54 135q0 45 -9 107q-10 65 -25 120l3 5h58l12 -59l185 29v60h51v-146q0 -57 27 -79q26 -22 84 -22h4v-62
l-18 -18h-1q-72 0 -109 39q-37 38 -37 123v25l-173 -27q4 -22 6 -44q2 -28 2 -38q0 -137 -70 -208q-71 -72 -201 -72zM321 381l52 -51l-52 -51h-8l-53 51l53 51h8zM720 582l49 49h9l50 -49l-50 -49h-9zM831 427h-9l-48 48l-49 -48h-8l-53 51l53 51h8l49 -48l48 48h9l52 -51z
" />
    <glyph glyph-name="uniFC7A" unicode="&#xfe9c;&#xfef0;" horiz-adv-x="873" arabic-form="final" 
d="M529 584l49 49h9l50 -49l-50 -49h-9zM640 429h-9l-48 48l-49 -48h-8l-53 51l53 51h8l49 -48l48 48h9l52 -51zM358 -285l-11 -7q-154 0 -233 64q-80 65 -80 201q0 42 6 81q5 34 14 71h46v-8q-8 -32 -12 -64q-4 -29 -4 -68q0 -96 70 -141t208 -45q55 0 108 8q50 8 86 21
q36 14 57 33t21 42t-19 36q-21 14 -69 26l-74 18q-39 9 -65 21q-27 12 -45 27t-27 35t-9 47q0 39 21 77t56 68q34 30 80 48q45 18 92 18t78 -22q33 -23 56 -70l31 -62q11 -24 26 -46q11 -16 26 -28q14 -11 28 -15q13 -4 35 -4h11v-62l-18 -18h-8q-26 0 -47 6t-39 21
q-19 16 -35 39q-13 19 -34 59l-24 49q-19 39 -45 57t-60 18q-32 0 -64 -9t-56 -24q-25 -15 -39 -34q-15 -19 -15 -39q0 -27 23 -42q24 -16 75 -29l73 -19q36 -10 64 -21q26 -10 43 -24q16 -13 24 -33q8 -21 8 -46q0 -50 -25 -88q-26 -39 -70 -66q-45 -27 -106 -42t-133 -15z
" />
    <glyph glyph-name="uniFC7B" unicode="&#xfe9c;&#xfef2;" horiz-adv-x="873" arabic-form="final" 
d="M529 584l49 49h9l50 -49l-50 -49h-9zM640 429h-9l-48 48l-49 -48h-8l-53 51l53 51h8l49 -48l48 48h9l52 -51zM415 -481h-9l-48 48l-49 -48h-8l-53 51l53 51h8l49 -48l48 48h9l52 -51zM358 -285l-11 -7q-154 0 -233 64q-80 65 -80 201q0 42 6 81q5 34 14 71h46v-8
q-8 -32 -12 -64q-4 -29 -4 -68q0 -96 70 -141t208 -45q55 0 108 8q50 8 86 21q36 14 57 33t21 42t-19 36q-21 14 -69 26l-74 18q-39 9 -65 21q-27 12 -45 27t-27 35t-9 47q0 39 21 77t56 68q34 30 80 48q45 18 92 18t78 -22q33 -23 56 -70l31 -62q11 -24 26 -46
q11 -16 26 -28q14 -11 28 -15q13 -4 35 -4h11v-62l-18 -18h-8q-26 0 -47 6t-39 21q-19 16 -35 39q-13 19 -34 59l-24 49q-19 39 -45 57t-60 18q-32 0 -64 -9t-56 -24q-25 -15 -39 -34q-15 -19 -15 -39q0 -27 23 -42q24 -16 75 -29l73 -19q36 -10 64 -21q26 -10 43 -24
q16 -13 24 -33q8 -21 8 -46q0 -50 -25 -88q-26 -39 -70 -66q-45 -27 -106 -42t-133 -15z" />
    <glyph glyph-name="uniFC83" unicode="&#xfedc;&#xfef0;" horiz-adv-x="980" arabic-form="final" 
d="M613 466l189 -281q18 -28 38 -51q18 -21 36 -33t38 -18t44 -6h20v-61l-18 -19q-28 0 -55 5q-25 5 -47 18q-24 14 -44 36q-19 20 -46 57q-17 -79 -90 -104q11 -24 11 -48q0 -46 -21 -82q-22 -37 -61 -62q-41 -26 -97 -39q-55 -13 -128 -13q-170 0 -252 69t-82 218
q0 46 6 86q5 35 14 72h46v-7q-8 -31 -12 -69q-4 -33 -4 -72q0 -108 71 -159t213 -51q62 0 107 7q50 8 81 19q33 12 51 30t18 39q0 16 -8 27q-7 10 -27 18q-22 8 -53 14q-47 9 -84 14l-64 9v77l4 4l60 -9q36 -5 59 -9q7 -1 14.5 -2.5t15.5 -2.5t12 -2l32 -4q9 -1 27 -1
q97 0 109 80l-181 268v79l417 246h8v-73z" />
    <glyph glyph-name="uniFC84" unicode="&#xfedc;&#xfef2;" horiz-adv-x="980" arabic-form="final" 
d="M613 466l189 -281q18 -28 38 -51q18 -21 36 -33t38 -18t44 -6h20v-61l-18 -19q-28 0 -55 5q-25 5 -47 18q-24 14 -44 36q-19 20 -46 57q-17 -79 -90 -104q11 -24 11 -48q0 -46 -21 -82q-22 -37 -61 -62q-41 -26 -97 -39q-55 -13 -128 -13q-170 0 -252 69t-82 218
q0 46 6 86q5 35 14 72h46v-7q-8 -31 -12 -69q-4 -33 -4 -72q0 -108 71 -159t213 -51q62 0 107 7q50 8 81 19q33 12 51 30t18 39q0 16 -8 27q-7 10 -27 18q-22 8 -53 14q-47 9 -84 14l-64 9v77l4 4l60 -9q36 -5 59 -9q7 -1 14.5 -2.5t15.5 -2.5t12 -2l32 -4q9 -1 27 -1
q97 0 109 80l-181 268v79l417 246h8v-73zM435 -432h-9l-48 48l-49 -48h-8l-53 51l53 51h8l49 -48l48 48h9l52 -51z" />
    <glyph glyph-name="uniFC86" unicode="&#xfee0;&#xfef0;" horiz-adv-x="909" arabic-form="final" 
d="M909 18l-16 -23h-1q-104 0 -138 72q-30 -45 -82 -61q17 -20 17 -48q0 -46 -21 -82q-22 -37 -61 -62q-41 -26 -97 -39q-55 -13 -128 -13q-170 0 -252 69t-82 218q0 45 6 86q5 35 14 72h46v-7q-8 -32 -12 -69q-4 -33 -4 -72q0 -108 71 -159t213 -51q62 0 107 7q50 8 81 19
q33 12 51 30t18 39q0 16 -8 27q-7 11 -27 18q-22 8 -53 14q-47 9 -84 14l-64 9v77l4 4l60 -9q33 -6 59 -9q24 -3 42 -6l32 -4q9 -1 27 -1q70 0 113 34q-7 27 -7 69v563h61v-563q0 -53 27 -77t85 -24h3v-62z" />
    <glyph glyph-name="uniFC87" unicode="&#xfee0;&#xfef2;" horiz-adv-x="909" arabic-form="final" 
d="M909 18l-16 -23h-1q-104 0 -138 72q-30 -45 -82 -61q17 -20 17 -48q0 -46 -21 -82q-22 -37 -61 -62q-41 -26 -97 -39q-55 -13 -128 -13q-170 0 -252 69t-82 218q0 45 6 86q5 35 14 72h46v-7q-8 -32 -12 -69q-4 -33 -4 -72q0 -108 71 -159t213 -51q62 0 107 7q50 8 81 19
q33 12 51 30t18 39q0 16 -8 27q-7 11 -27 18q-22 8 -53 14q-47 9 -84 14l-64 9v77l4 4l60 -9q33 -6 59 -9q24 -3 42 -6l32 -4q9 -1 27 -1q70 0 113 34q-7 27 -7 69v563h61v-563q0 -53 27 -77t85 -24h3v-62zM438 -436h-9l-48 48l-49 -48h-8l-53 51l53 51h8l49 -48l48 48h9
l52 -51z" />
    <glyph glyph-name="uniFC8A" unicode="&#xfee8;&#xfeae;" horiz-adv-x="577" arabic-form="final" 
d="M39 -255l-2 -5q-37 0 -72 15q-33 14 -66 41v44l7 5q29 -12 57 -19q25 -6 51 -6q38 0 71 18q32 18 57 50t38 77q14 47 14 98q0 46 -12 104q-12 60 -33 122l3 5h58l15 -59l183 29v60h51v-146q0 -56 27 -79q26 -22 84 -22h4v-62l-18 -18h-1q-71 0 -109 39q-37 38 -37 123v25
l-170 -26q4 -22 6 -44q2 -28 2 -41q0 -74 -16 -132q-17 -61 -45 -104q-29 -44 -66 -68q-38 -24 -81 -24zM439 526l52 -51l-52 -51h-8l-53 51l53 51h8z" />
    <glyph glyph-name="uniFC8B" unicode="&#xfee8;&#xfeb0;" horiz-adv-x="577" arabic-form="final" 
d="M39 -255l-2 -5q-37 0 -72 15q-33 14 -66 41v44l7 5q29 -12 57 -19q25 -6 51 -6q38 0 71 18q32 18 57 50t38 77q14 47 14 98q0 46 -12 104q-12 60 -33 122l3 5h58l15 -59l183 29v60h51v-146q0 -56 27 -79q26 -22 84 -22h4v-62l-18 -18h-1q-71 0 -109 39q-37 38 -37 123v25
l-170 -26q4 -22 6 -44q2 -28 2 -41q0 -74 -16 -132q-17 -61 -45 -104q-29 -44 -66 -68q-38 -24 -81 -24zM112 496l52 -51l-52 -51h-8l-53 51l53 51h8zM386 526l52 -51l-52 -51h-8l-53 51l53 51h8z" />
    <glyph glyph-name="uniFC8D" unicode="&#xfee8;&#xfee6;" horiz-adv-x="916" arabic-form="final" 
d="M314 -204l-3 -2q-130 0 -200 68q-69 68 -69 192q0 40 6 77q5 32 17 78h46v-8q-10 -40 -14 -69q-5 -37 -5 -63q0 -89 57 -138q58 -50 161 -50q106 0 161 47q54 46 54 135q0 45 -9 107q-10 65 -25 120l3 5h58l12 -59l185 29v60h51v-146q0 -57 27 -79q26 -22 84 -22h4v-62
l-18 -18h-1q-72 0 -109 39q-37 38 -37 123v25l-173 -27q4 -22 6 -44q2 -28 2 -38q0 -137 -70 -208q-71 -72 -201 -72zM268 381l52 -51l-52 -51h-8l-53 51l53 51h8zM725 529l52 -51l-52 -51h-8l-53 51l53 51h8z" />
    <glyph glyph-name="uniFC8E" unicode="&#xfee8;&#xfef0;" horiz-adv-x="873" arabic-form="final" 
d="M587 531l52 -51l-52 -51h-8l-53 51l53 51h8zM358 -285l-11 -7q-154 0 -233 64q-80 65 -80 201q0 42 6 81q5 34 14 71h46v-8q-8 -32 -12 -64q-4 -29 -4 -68q0 -96 70 -141t208 -45q55 0 108 8q50 8 86 21q36 14 57 33t21 42t-19 36q-21 14 -69 26l-74 18q-39 9 -65 21
q-27 12 -45 27t-27 35t-9 47q0 39 21 77t56 68q34 30 80 48q45 18 92 18t78 -22q33 -23 56 -70l31 -62q11 -24 26 -46q11 -16 26 -28q14 -11 28 -15q13 -4 35 -4h11v-62l-18 -18h-8q-26 0 -47 6t-39 21q-19 16 -35 39q-13 19 -34 59l-24 49q-19 39 -45 57t-60 18
q-32 0 -64 -9t-56 -24q-25 -15 -39 -34q-15 -19 -15 -39q0 -27 23 -42q24 -16 75 -29l73 -19q36 -10 64 -21q26 -10 43 -24q16 -13 24 -33q8 -21 8 -46q0 -50 -25 -88q-26 -39 -70 -66q-45 -27 -106 -42t-133 -15z" />
    <glyph glyph-name="uniFC8F" unicode="&#xfee8;&#xfef2;" horiz-adv-x="873" arabic-form="final" 
d="M587 531l52 -51l-52 -51h-8l-53 51l53 51h8zM415 -481h-9l-48 48l-49 -48h-8l-53 51l53 51h8l49 -48l48 48h9l52 -51zM358 -285l-11 -7q-154 0 -233 64q-80 65 -80 201q0 42 6 81q5 34 14 71h46v-8q-8 -32 -12 -64q-4 -29 -4 -68q0 -96 70 -141t208 -45q55 0 108 8
q50 8 86 21q36 14 57 33t21 42t-19 36q-21 14 -69 26l-74 18q-39 9 -65 21q-27 12 -45 27t-27 35t-9 47q0 39 21 77t56 68q34 30 80 48q45 18 92 18t78 -22q33 -23 56 -70l31 -62q11 -24 26 -46q11 -16 26 -28q14 -11 28 -15q13 -4 35 -4h11v-62l-18 -18h-8q-26 0 -47 6
t-39 21q-19 16 -35 39q-13 19 -34 59l-24 49q-19 39 -45 57t-60 18q-32 0 -64 -9t-56 -24q-25 -15 -39 -34q-15 -19 -15 -39q0 -27 23 -42q24 -16 75 -29l73 -19q36 -10 64 -21q26 -10 43 -24q16 -13 24 -33q8 -21 8 -46q0 -50 -25 -88q-26 -39 -70 -66q-45 -27 -106 -42
t-133 -15z" />
    <glyph glyph-name="uniFC91" unicode="&#xfef4;&#xfeae;" horiz-adv-x="577" arabic-form="final" 
d="M39 -255l-2 -5q-37 0 -72 15q-33 14 -66 41v44l7 5q29 -12 57 -19q25 -6 51 -6q38 0 71 18q32 18 57 50t38 77q14 47 14 98q0 46 -12 104q-12 60 -33 122l3 5h58l15 -59l183 29v60h51v-146q0 -56 27 -79q26 -22 84 -22h4v-62l-18 -18h-1q-71 0 -109 39q-37 38 -37 123v25
l-170 -26q4 -22 6 -44q2 -28 2 -41q0 -74 -16 -132q-17 -61 -45 -104q-29 -44 -66 -68q-38 -24 -81 -24zM496 -201h-9l-48 48l-49 -48h-8l-53 51l53 51h8l49 -48l48 48h9l52 -51z" />
    <glyph glyph-name="uniFC92" unicode="&#xfef4;&#xfeb0;" horiz-adv-x="577" arabic-form="final" 
d="M39 -255l-2 -5q-37 0 -72 15q-33 14 -66 41v44l7 5q29 -12 57 -19q25 -6 51 -6q38 0 71 18q32 18 57 50t38 77q14 47 14 98q0 46 -12 104q-12 60 -33 122l3 5h58l15 -59l183 29v60h51v-146q0 -56 27 -79q26 -22 84 -22h4v-62l-18 -18h-1q-71 0 -109 39q-37 38 -37 123v25
l-170 -26q4 -22 6 -44q2 -28 2 -41q0 -74 -16 -132q-17 -61 -45 -104q-29 -44 -66 -68q-38 -24 -81 -24zM496 -201h-9l-48 48l-49 -48h-8l-53 51l53 51h8l49 -48l48 48h9l52 -51zM165 496l52 -51l-52 -51h-8l-53 51l53 51h8z" />
    <glyph glyph-name="uniFC94" unicode="&#xfef4;&#xfee6;" horiz-adv-x="916" arabic-form="final" 
d="M314 -204l-3 -2q-130 0 -200 68q-69 68 -69 192q0 40 6 77q5 32 17 78h46v-8q-10 -40 -14 -69q-5 -37 -5 -63q0 -89 57 -138q58 -50 161 -50q106 0 161 47q54 46 54 135q0 45 -9 107q-10 65 -25 120l3 5h58l12 -59l185 29v60h51v-146q0 -57 27 -79q26 -22 84 -22h4v-62
l-18 -18h-1q-72 0 -109 39q-37 38 -37 123v25l-173 -27q4 -22 6 -44q2 -28 2 -38q0 -137 -70 -208q-71 -72 -201 -72zM321 381l52 -51l-52 -51h-8l-53 51l53 51h8zM833 -198h-9l-48 48l-49 -48h-8l-53 51l53 51h8l49 -48l48 48h9l52 -51z" />
    <glyph glyph-name="uniFC95" unicode="&#xfef4;&#xfef0;" horiz-adv-x="873" arabic-form="final" 
d="M744 -373h-9l-48 48l-49 -48h-8l-53 51l53 51h8l49 -48l48 48h9l52 -51zM358 -285l-11 -7q-154 0 -233 64q-80 65 -80 201q0 42 6 81q5 34 14 71h46v-8q-8 -32 -12 -64q-4 -29 -4 -68q0 -96 70 -141t208 -45q55 0 108 8q50 8 86 21q36 14 57 33t21 42t-19 36
q-21 14 -69 26l-74 18q-39 9 -65 21q-27 12 -45 27t-27 35t-9 47q0 39 21 77t56 68q34 30 80 48q45 18 92 18t78 -22q33 -23 56 -70l31 -62q11 -24 26 -46q11 -16 26 -28q14 -11 28 -15q13 -4 35 -4h11v-62l-18 -18h-8q-26 0 -47 6t-39 21q-19 16 -35 39q-13 19 -34 59
l-24 49q-19 39 -45 57t-60 18q-32 0 -64 -9t-56 -24q-25 -15 -39 -34q-15 -19 -15 -39q0 -27 23 -42q24 -16 75 -29l73 -19q36 -10 64 -21q26 -10 43 -24q16 -13 24 -33q8 -21 8 -46q0 -50 -25 -88q-26 -39 -70 -66q-45 -27 -106 -42t-133 -15z" />
    <glyph glyph-name="uniFC96" unicode="&#xfef4;&#xfef2;" horiz-adv-x="873" arabic-form="final" 
d="M309 -481h-9l-48 48l-49 -48h-8l-53 51l53 51h8l49 -48l48 48h9l52 -51zM638 -373h-9l-48 48l-49 -48h-8l-53 51l53 51h8l49 -48l48 48h9l52 -51zM358 -285l-11 -7q-154 0 -233 64q-80 65 -80 201q0 42 6 81q5 34 14 71h46v-8q-8 -32 -12 -64q-4 -29 -4 -68
q0 -96 70 -141t208 -45q55 0 108 8q50 8 86 21q36 14 57 33t21 42t-19 36q-21 14 -69 26l-74 18q-39 9 -65 21q-27 12 -45 27t-27 35t-9 47q0 39 21 77t56 68q34 30 80 48q45 18 92 18t78 -22q33 -23 56 -70l31 -62q11 -24 26 -46q11 -16 26 -28q14 -11 28 -15q13 -4 35 -4
h11v-62l-18 -18h-8q-26 0 -47 6t-39 21q-19 16 -35 39q-13 19 -34 59l-24 49q-19 39 -45 57t-60 18q-32 0 -64 -9t-56 -24q-25 -15 -39 -34q-15 -19 -15 -39q0 -27 23 -42q24 -16 75 -29l73 -19q36 -10 64 -21q26 -10 43 -24q16 -13 24 -33q8 -21 8 -46q0 -50 -25 -88
q-26 -39 -70 -66q-45 -27 -106 -42t-133 -15z" />
    <glyph glyph-name="uniFCCC" unicode="&#xfedf;&#xfee4;" horiz-adv-x="290" arabic-form="initial" 
d="M237 -48l-2 1q-44 21 -49 23q-21 9 -42 15q-23 7 -43 8q-30 2 -51 2h-69v63l18 17h51q23 0 34 -1q16 -2 33 -6l2 2q-7 19 -9 41q-2 28 -2 51v577h61v-577q0 -44 4 -65q5 -25 15 -44q3 -1 40 -17q13 -6 46 -23l43 -23l-35 -67z" />
    <glyph glyph-name="uniFCFB" unicode="&#xfeb3;&#xfef0;" horiz-adv-x="1235" arabic-form="isolated" 
d="M358 -285l-11 -6q-154 0 -233 64q-80 65 -80 201q0 42 6 81q5 34 14 71h46v-8q-8 -32 -12 -64q-4 -29 -4 -68q0 -96 70 -141t208 -45q55 0 108 8q50 8 86 21t57 33t21 42q0 23 -19 36q-21 14 -69 26l-74 18q-76 18 -111 47q-34 28 -34 83q0 40 21 77q21 38 56 68
q34 30 80 48q45 18 92 18t78 -22q33 -23 56 -70l31 -62q12 -25 26 -48q11 -17 26 -31q13 -12 30 -18t39 -6q20 0 37 5q15 5 24 15q10 11 14 30q4 17 4 48v67h51v-65q0 -27 -1 -40q-1 -20 -6 -36q29 -26 75 -26q68 0 68 77q0 20 -1 30q-2 22 -4 32q-3 17 -6 36q-3 21 -9 47
l3 5h54q1 -4 4 -20.5t4 -24.5q4 -27 5 -36l3 -33q1 -11 1 -34q0 -74 -31 -115q-31 -42 -90 -42q-61 0 -99 44q-32 -44 -108 -44q-29 0 -55 8q-23 7 -43 24q-20 16 -36 42q-19 29 -35 60l-24 49q-19 39 -45 57t-60 18q-32 0 -64 -9t-56 -24q-25 -15 -39 -34q-15 -19 -15 -39
q0 -27 23 -42q24 -16 75 -29l73 -19q36 -10 64 -21q26 -10 43 -24q16 -13 24 -33q8 -21 8 -46q0 -50 -25 -88q-26 -39 -70 -66q-45 -27 -106 -42t-133 -15z" />
    <glyph glyph-name="uniFCFC" unicode="&#xfeb3;&#xfef2;" horiz-adv-x="1235" arabic-form="isolated" 
d="M358 -285l-11 -6q-154 0 -233 64q-80 65 -80 201q0 42 6 81q5 34 14 71h46v-8q-8 -32 -12 -64q-4 -29 -4 -68q0 -96 70 -141t208 -45q55 0 108 8q50 8 86 21t57 33t21 42q0 23 -19 36q-21 14 -69 26l-74 18q-76 18 -111 47q-34 28 -34 83q0 40 21 77q21 38 56 68
q34 30 80 48q45 18 92 18t78 -22q33 -23 56 -70l31 -62q12 -25 26 -48q11 -17 26 -31q13 -12 30 -18t39 -6q20 0 37 5q15 5 24 15q10 11 14 30q4 17 4 48v67h51v-65q0 -27 -1 -40q-1 -20 -6 -36q29 -26 75 -26q68 0 68 77q0 20 -1 30q-2 22 -4 32q-3 17 -6 36q-3 21 -9 47
l3 5h54q1 -4 4 -20.5t4 -24.5q4 -27 5 -36l3 -33q1 -11 1 -34q0 -74 -31 -115q-31 -42 -90 -42q-61 0 -99 44q-32 -44 -108 -44q-29 0 -55 8q-23 7 -43 24q-20 16 -36 42q-19 29 -35 60l-24 49q-19 39 -45 57t-60 18q-32 0 -64 -9t-56 -24q-25 -15 -39 -34q-15 -19 -15 -39
q0 -27 23 -42q24 -16 75 -29l73 -19q36 -10 64 -21q26 -10 43 -24q16 -13 24 -33q8 -21 8 -46q0 -50 -25 -88q-26 -39 -70 -66q-45 -27 -106 -42t-133 -15zM404 -487h-9l-48 48l-49 -48h-8l-53 51l53 51h8l49 -48l48 48h9l52 -51z" />
    <glyph glyph-name="uniFCFD" unicode="&#xfeb7;&#xfef0;" horiz-adv-x="1235" arabic-form="isolated" 
d="M358 -285l-11 -6q-154 0 -233 64q-80 65 -80 201q0 42 6 81q5 34 14 71h46v-8q-8 -32 -12 -64q-4 -29 -4 -68q0 -96 70 -141t208 -45q55 0 108 8q50 8 86 21t57 33t21 42q0 23 -19 36q-21 14 -69 26l-74 18q-76 18 -111 47q-34 28 -34 83q0 40 21 77q21 38 56 68
q34 30 80 48q45 18 92 18t78 -22q33 -23 56 -70l31 -62q12 -25 26 -48q11 -17 26 -31q13 -12 30 -18t39 -6q20 0 37 5q15 5 24 15q10 11 14 30q4 17 4 48v67h51v-65q0 -27 -1 -40q-1 -20 -6 -36q29 -26 75 -26q68 0 68 77q0 20 -1 30q-2 22 -4 32q-3 17 -6 36q-3 21 -9 47
l3 5h54q1 -4 4 -20.5t4 -24.5q4 -27 5 -36l3 -33q1 -11 1 -34q0 -74 -31 -115q-31 -42 -90 -42q-61 0 -99 44q-32 -44 -108 -44q-29 0 -55 8q-23 7 -43 24q-20 16 -36 42q-19 29 -35 60l-24 49q-19 39 -45 57t-60 18q-32 0 -64 -9t-56 -24q-25 -15 -39 -34q-15 -19 -15 -39
q0 -27 23 -42q24 -16 75 -29l73 -19q36 -10 64 -21q26 -10 43 -24q16 -13 24 -33q8 -21 8 -46q0 -50 -25 -88q-26 -39 -70 -66q-45 -27 -106 -42t-133 -15zM909 488l49 49h9l50 -49l-50 -49h-9zM1020 333h-9l-48 48l-49 -48h-8l-53 51l53 51h8l49 -48l48 48h9l52 -51z" />
    <glyph glyph-name="uniFCFE" unicode="&#xfeb7;&#xfef2;" horiz-adv-x="1235" arabic-form="isolated" 
d="M358 -285l-11 -6q-154 0 -233 64q-80 65 -80 201q0 42 6 81q5 34 14 71h46v-8q-8 -32 -12 -64q-4 -29 -4 -68q0 -96 70 -141t208 -45q55 0 108 8q50 8 86 21t57 33t21 42q0 23 -19 36q-21 14 -69 26l-74 18q-76 18 -111 47q-34 28 -34 83q0 40 21 77q21 38 56 68
q34 30 80 48q45 18 92 18t78 -22q33 -23 56 -70l31 -62q12 -25 26 -48q11 -17 26 -31q13 -12 30 -18t39 -6q20 0 37 5q15 5 24 15q10 11 14 30q4 17 4 48v67h51v-65q0 -27 -1 -40q-1 -20 -6 -36q29 -26 75 -26q68 0 68 77q0 20 -1 30q-2 22 -4 32q-3 17 -6 36q-3 21 -9 47
l3 5h54q1 -4 4 -20.5t4 -24.5q4 -27 5 -36l3 -33q1 -11 1 -34q0 -74 -31 -115q-31 -42 -90 -42q-61 0 -99 44q-32 -44 -108 -44q-29 0 -55 8q-23 7 -43 24q-20 16 -36 42q-19 29 -35 60l-24 49q-19 39 -45 57t-60 18q-32 0 -64 -9t-56 -24q-25 -15 -39 -34q-15 -19 -15 -39
q0 -27 23 -42q24 -16 75 -29l73 -19q36 -10 64 -21q26 -10 43 -24q16 -13 24 -33q8 -21 8 -46q0 -50 -25 -88q-26 -39 -70 -66q-45 -27 -106 -42t-133 -15zM404 -487h-9l-48 48l-49 -48h-8l-53 51l53 51h8l49 -48l48 48h9l52 -51zM909 488l49 49h9l50 -49l-50 -49h-9z
M1020 333h-9l-48 48l-49 -48h-8l-53 51l53 51h8l49 -48l48 48h9l52 -51z" />
    <glyph glyph-name="uniFD05" unicode="&#xfebb;&#xfef0;" horiz-adv-x="1356" arabic-form="isolated" 
d="M1119 381l-13 -9q43 0 79 -15q37 -15 62 -42q26 -28 41 -63q15 -36 15 -78q0 -41 -15 -74q-15 -34 -43 -57t-67 -37q-38 -13 -87 -13h-256q-26 0 -47 6t-39 21q-19 16 -35 39q-13 19 -34 59l-24 49q-20 39 -45 57t-60 18q-33 0 -64 -9q-32 -9 -56 -24q-25 -15 -39 -34
q-15 -19 -15 -39q0 -27 23 -42q24 -16 75 -29l73 -19q36 -10 64 -21q26 -10 43 -24q17 -13 24 -33q8 -21 8 -46q0 -50 -25 -88q-26 -39 -70 -66q-45 -27 -106 -42q-62 -15 -133 -15q-154 0 -233 64q-80 65 -80 201q0 42 6 81q5 34 14 71h46v-8q-8 -32 -12 -64q-4 -29 -4 -68
q0 -96 70 -141t208 -45q55 0 108 8q50 8 86 21t57 33t21 42q0 23 -19 36q-21 14 -69 26l-74 18q-76 18 -111 47q-34 28 -34 83q0 40 21 77q21 38 56 68q34 30 80 48q45 18 92 18t78 -22q33 -23 56 -70l31 -62q9 -19 18 -33q10 -15 19 -24l77 96q33 42 68 78q32 33 62 53
q31 20 62 29t66 9zM1102 71l-1 -2q82 0 116 19q35 20 35 60q0 32 -12 59t-33 45q-22 19 -50 29q-30 11 -63 11q-58 0 -111 -33q-53 -34 -114 -109l-56 -70l1 -4q15 -5 35 -5h253z" />
    <glyph glyph-name="uniFD06" unicode="&#xfebb;&#xfef2;" horiz-adv-x="1356" arabic-form="isolated" 
d="M1119 381l-13 -9q43 0 79 -15q37 -15 62 -42q26 -28 41 -63q15 -36 15 -78q0 -41 -15 -74q-15 -34 -43 -57t-67 -37q-38 -13 -87 -13h-256q-26 0 -47 6t-39 21q-19 16 -35 39q-13 19 -34 59l-24 49q-20 39 -45 57t-60 18q-33 0 -64 -9q-32 -9 -56 -24q-25 -15 -39 -34
q-15 -19 -15 -39q0 -27 23 -42q24 -16 75 -29l73 -19q36 -10 64 -21q26 -10 43 -24q17 -13 24 -33q8 -21 8 -46q0 -50 -25 -88q-26 -39 -70 -66q-45 -27 -106 -42q-62 -15 -133 -15q-154 0 -233 64q-80 65 -80 201q0 42 6 81q5 34 14 71h46v-8q-8 -32 -12 -64q-4 -29 -4 -68
q0 -96 70 -141t208 -45q55 0 108 8q50 8 86 21t57 33t21 42q0 23 -19 36q-21 14 -69 26l-74 18q-76 18 -111 47q-34 28 -34 83q0 40 21 77q21 38 56 68q34 30 80 48q45 18 92 18t78 -22q33 -23 56 -70l31 -62q9 -19 18 -33q10 -15 19 -24l77 96q33 42 68 78q32 33 62 53
q31 20 62 29t66 9zM1102 71l-1 -2q82 0 116 19q35 20 35 60q0 32 -12 59t-33 45q-22 19 -50 29q-30 11 -63 11q-58 0 -111 -33q-53 -34 -114 -109l-56 -70l1 -4q15 -5 35 -5h253zM401 -492h-9l-48 48l-49 -48h-8l-53 51l53 51h8l49 -48l48 48h9l52 -51z" />
    <glyph glyph-name="uniFD07" unicode="&#xfebf;&#xfef0;" horiz-adv-x="1356" arabic-form="isolated" 
d="M1119 381l-13 -9q43 0 79 -15q37 -15 62 -42q26 -28 41 -63q15 -36 15 -78q0 -41 -15 -74q-15 -34 -43 -57t-67 -37q-38 -13 -87 -13h-256q-26 0 -47 6t-39 21q-19 16 -35 39q-13 19 -34 59l-24 49q-20 39 -45 57t-60 18q-33 0 -64 -9q-32 -9 -56 -24q-25 -15 -39 -34
q-15 -19 -15 -39q0 -27 23 -42q24 -16 75 -29l73 -19q36 -10 64 -21q26 -10 43 -24q17 -13 24 -33q8 -21 8 -46q0 -50 -25 -88q-26 -39 -70 -66q-45 -27 -106 -42q-62 -15 -133 -15q-154 0 -233 64q-80 65 -80 201q0 42 6 81q5 34 14 71h46v-8q-8 -32 -12 -64q-4 -29 -4 -68
q0 -96 70 -141t208 -45q55 0 108 8q50 8 86 21t57 33t21 42q0 23 -19 36q-21 14 -69 26l-74 18q-76 18 -111 47q-34 28 -34 83q0 40 21 77q21 38 56 68q34 30 80 48q45 18 92 18t78 -22q33 -23 56 -70l31 -62q9 -19 18 -33q10 -15 19 -24l77 96q33 42 68 78q32 33 62 53
q31 20 62 29t66 9zM1102 71l-1 -2q82 0 116 19q35 20 35 60q0 32 -12 59t-33 45q-22 19 -50 29q-30 11 -63 11q-58 0 -111 -33q-53 -34 -114 -109l-56 -70l1 -4q15 -5 35 -5h253zM1069 572l52 -51l-52 -51h-8l-53 51l53 51h8z" />
    <glyph glyph-name="uniFD08" unicode="&#xfebf;&#xfef2;" horiz-adv-x="1356" arabic-form="isolated" 
d="M1119 381l-13 -9q43 0 79 -15q37 -15 62 -42q26 -28 41 -63q15 -36 15 -78q0 -41 -15 -74q-15 -34 -43 -57t-67 -37q-38 -13 -87 -13h-256q-26 0 -47 6t-39 21q-19 16 -35 39q-13 19 -34 59l-24 49q-20 39 -45 57t-60 18q-33 0 -64 -9q-32 -9 -56 -24q-25 -15 -39 -34
q-15 -19 -15 -39q0 -27 23 -42q24 -16 75 -29l73 -19q36 -10 64 -21q26 -10 43 -24q17 -13 24 -33q8 -21 8 -46q0 -50 -25 -88q-26 -39 -70 -66q-45 -27 -106 -42q-62 -15 -133 -15q-154 0 -233 64q-80 65 -80 201q0 42 6 81q5 34 14 71h46v-8q-8 -32 -12 -64q-4 -29 -4 -68
q0 -96 70 -141t208 -45q55 0 108 8q50 8 86 21t57 33t21 42q0 23 -19 36q-21 14 -69 26l-74 18q-76 18 -111 47q-34 28 -34 83q0 40 21 77q21 38 56 68q34 30 80 48q45 18 92 18t78 -22q33 -23 56 -70l31 -62q9 -19 18 -33q10 -15 19 -24l77 96q33 42 68 78q32 33 62 53
q31 20 62 29t66 9zM1102 71l-1 -2q82 0 116 19q35 20 35 60q0 32 -12 59t-33 45q-22 19 -50 29q-30 11 -63 11q-58 0 -111 -33q-53 -34 -114 -109l-56 -70l1 -4q15 -5 35 -5h253zM1069 572l52 -51l-52 -51h-8l-53 51l53 51h8zM401 -492h-9l-48 48l-49 -48h-8l-53 51l53 51h8
l49 -48l48 48h9l52 -51z" />
    <glyph glyph-name="uniFD0D" unicode="&#xfeb7;&#xfeae;" horiz-adv-x="915" arabic-form="isolated" 
d="M39 -255l-4 -1q-37 0 -72 15q-33 14 -66 41v44l7 5q29 -12 57 -19q25 -6 51 -6q38 0 71 18q32 18 57 50q25 33 38 75q14 45 14 96q0 31 -7 65q-9 42 -19 74l3 5l247 30v-67q31 -100 122 -100q24 0 42 5q16 5 27 15t15 30q4 17 4 48v67h51v-65q0 -47 -7 -76q29 -26 75 -26
q68 0 68 77q0 20 -1 30q-2 22 -4 32q-3 17 -6 36q-3 21 -9 47l3 5h54q1 -4 4 -20.5t4 -24.5q4 -27 5 -36l3 -33q1 -11 1 -34q0 -72 -32 -115q-31 -42 -89 -42q-64 0 -100 44q-32 -44 -105 -44q-62 0 -109 41q-46 41 -72 120l-118 -16l3 -33q2 -22 2 -30q0 -73 -16 -131
q-17 -61 -45 -104q-29 -44 -66 -68q-38 -24 -81 -24zM589 493l49 49h9l50 -49l-50 -49h-9zM700 338h-9l-48 48l-49 -48h-8l-53 51l53 51h8l49 -48l48 48h9l52 -51z" />
    <glyph glyph-name="uniFD0E" unicode="&#xfeb3;&#xfeae;" horiz-adv-x="915" arabic-form="isolated" 
d="M39 -255l-4 -1q-37 0 -72 15q-33 14 -66 41v44l7 5q29 -12 57 -19q25 -6 51 -6q38 0 71 18q32 18 57 50q25 33 38 75q14 45 14 96q0 31 -7 65q-9 42 -19 74l3 5l247 30v-67q31 -100 122 -100q24 0 42 5q16 5 27 15t15 30q4 17 4 48v67h51v-65q0 -47 -7 -76q29 -26 75 -26
q68 0 68 77q0 20 -1 30q-2 22 -4 32q-3 17 -6 36q-3 21 -9 47l3 5h54q1 -4 4 -20.5t4 -24.5q4 -27 5 -36l3 -33q1 -11 1 -34q0 -72 -32 -115q-31 -42 -89 -42q-64 0 -100 44q-32 -44 -105 -44q-62 0 -109 41q-46 41 -72 120l-118 -16l3 -33q2 -22 2 -30q0 -73 -16 -131
q-17 -61 -45 -104q-29 -44 -66 -68q-38 -24 -81 -24z" />
    <glyph glyph-name="uniFD0F" unicode="&#xfebb;&#xfeae;" horiz-adv-x="1039" arabic-form="isolated" 
d="M39 -255l-2 -4q-37 0 -72 15q-33 14 -66 41v44l7 5q29 -12 57 -19q25 -6 51 -6q38 0 71 18q32 18 57 50q25 33 38 75q14 45 14 96q0 31 -7 65q-9 42 -19 74l3 5l247 30v-67q4 -25 14 -41q9 -14 23 -24l86 107q33 42 68 78q32 33 62 53q31 20 62 29t66 9q43 0 79 -15
q37 -15 62 -42q26 -28 41 -63q15 -36 15 -78q0 -41 -15 -74q-15 -34 -43 -57t-67 -37q-38 -13 -87 -13h-253q-67 0 -108 38q-41 37 -63 114l-118 -16l3 -33q2 -22 2 -30q0 -73 -16 -131q-17 -61 -45 -104q-29 -44 -66 -68q-38 -24 -81 -24zM796 76l-1 -2q82 0 116 19
q35 20 35 60q0 32 -12 59t-33 45q-22 19 -50 29q-30 11 -63 11q-58 0 -111 -33q-53 -34 -114 -109l-58 -72l1 -3q15 -4 40 -4h250z" />
    <glyph glyph-name="uniFD10" unicode="&#xfebf;&#xfeae;" horiz-adv-x="1039" arabic-form="isolated" 
d="M39 -255l-2 -4q-37 0 -72 15q-33 14 -66 41v44l7 5q29 -12 57 -19q25 -6 51 -6q38 0 71 18q32 18 57 50q25 33 38 75q14 45 14 96q0 31 -7 65q-9 42 -19 74l3 5l247 30v-67q4 -25 14 -41q9 -14 23 -24l86 107q33 42 68 78q32 33 62 53q31 20 62 29t66 9q43 0 79 -15
q37 -15 62 -42q26 -28 41 -63q15 -36 15 -78q0 -41 -15 -74q-15 -34 -43 -57t-67 -37q-38 -13 -87 -13h-253q-67 0 -108 38q-41 37 -63 114l-118 -16l3 -33q2 -22 2 -30q0 -73 -16 -131q-17 -61 -45 -104q-29 -44 -66 -68q-38 -24 -81 -24zM796 76l-1 -2q82 0 116 19
q35 20 35 60q0 32 -12 59t-33 45q-22 19 -50 29q-30 11 -63 11q-58 0 -111 -33q-53 -34 -114 -109l-58 -72l1 -3q15 -4 40 -4h250zM763 578l52 -51l-52 -51h-8l-53 51l53 51h8z" />
    <glyph glyph-name="uniFD17" unicode="&#xfeb4;&#xfef0;" horiz-adv-x="1312" arabic-form="final" 
d="M358 -285l-9 -3q-150 0 -232 65q-81 65 -81 201q0 42 6 81q5 32 14 70h46v-7q-8 -32 -12 -66q-4 -31 -4 -69q0 -95 70 -141t208 -46q55 0 108 8q50 8 86 21t57 33t21 42q0 23 -19 36q-21 14 -69 26l-74 18q-76 18 -111 47q-34 28 -34 83q0 40 21 77q21 38 56 68
q34 30 80 48q45 18 92 18q46 0 78 -21q33 -22 56 -70l31 -62q12 -25 26 -48q11 -17 26 -31q13 -12 30 -18t39 -6q20 0 37 5q15 5 24 16q10 13 14 31q4 17 4 48v66h51v-65q0 -27 -1 -40q-1 -20 -6 -36q29 -26 75 -26q40 0 55 21t15 80v97h51v-95q0 -25 -1 -36l-3 -33
q28 -12 58 -17q33 -6 70 -6v-61l-17 -19q-36 0 -70 9q-33 9 -63 29q-28 -49 -93 -49q-64 0 -102 44q-32 -44 -108 -44q-29 0 -55 8q-23 7 -43 24q-20 16 -36 42q-19 29 -35 60l-24 49q-19 39 -45 57t-60 18q-32 0 -64 -9t-56 -24q-25 -15 -39 -34q-15 -19 -15 -39
q0 -27 23 -42q24 -16 75 -29l73 -19q36 -10 64 -21q26 -10 43 -24q16 -13 24 -33q8 -21 8 -46q0 -50 -25 -88q-26 -39 -70 -66q-45 -27 -106 -42t-133 -15z" />
    <glyph glyph-name="uniFD18" unicode="&#xfeb4;&#xfef2;" horiz-adv-x="1312" arabic-form="final" 
d="M358 -285l-9 -3q-150 0 -232 65q-81 65 -81 201q0 42 6 81q5 32 14 70h46v-7q-8 -32 -12 -66q-4 -31 -4 -69q0 -95 70 -141t208 -46q55 0 108 8q50 8 86 21t57 33t21 42q0 23 -19 36q-21 14 -69 26l-74 18q-76 18 -111 47q-34 28 -34 83q0 40 21 77q21 38 56 68
q34 30 80 48q45 18 92 18q46 0 78 -21q33 -22 56 -70l31 -62q12 -25 26 -48q11 -17 26 -31q13 -12 30 -18t39 -6q20 0 37 5q15 5 24 16q10 13 14 31q4 17 4 48v66h51v-65q0 -27 -1 -40q-1 -20 -6 -36q29 -26 75 -26q40 0 55 21t15 80v97h51v-95q0 -25 -1 -36l-3 -33
q28 -12 58 -17q33 -6 70 -6v-61l-17 -19q-36 0 -70 9q-33 9 -63 29q-28 -49 -93 -49q-64 0 -102 44q-32 -44 -108 -44q-29 0 -55 8q-23 7 -43 24q-20 16 -36 42q-19 29 -35 60l-24 49q-19 39 -45 57t-60 18q-32 0 -64 -9t-56 -24q-25 -15 -39 -34q-15 -19 -15 -39
q0 -27 23 -42q24 -16 75 -29l73 -19q36 -10 64 -21q26 -10 43 -24q16 -13 24 -33q8 -21 8 -46q0 -50 -25 -88q-26 -39 -70 -66q-45 -27 -106 -42t-133 -15zM406 -483h-9l-48 48l-49 -48h-8l-53 51l53 51h8l49 -48l48 48h9l52 -51z" />
    <glyph glyph-name="uniFD19" unicode="&#xfeb8;&#xfef0;" horiz-adv-x="1312" arabic-form="final" 
d="M358 -285l-9 -3q-150 0 -232 65q-81 65 -81 201q0 42 6 81q5 32 14 70h46v-7q-8 -32 -12 -66q-4 -31 -4 -69q0 -95 70 -141t208 -46q55 0 108 8q50 8 86 21t57 33t21 42q0 23 -19 36q-21 14 -69 26l-74 18q-76 18 -111 47q-34 28 -34 83q0 40 21 77q21 38 56 68
q34 30 80 48q45 18 92 18q46 0 78 -21q33 -22 56 -70l31 -62q12 -25 26 -48q11 -17 26 -31q13 -12 30 -18t39 -6q20 0 37 5q15 5 24 16q10 13 14 31q4 17 4 48v66h51v-65q0 -27 -1 -40q-1 -20 -6 -36q29 -26 75 -26q40 0 55 21t15 80v97h51v-95q0 -25 -1 -36l-3 -33
q28 -12 58 -17q33 -6 70 -6v-61l-17 -19q-36 0 -70 9q-33 9 -63 29q-28 -49 -93 -49q-64 0 -102 44q-32 -44 -108 -44q-29 0 -55 8q-23 7 -43 24q-20 16 -36 42q-19 29 -35 60l-24 49q-19 39 -45 57t-60 18q-32 0 -64 -9t-56 -24q-25 -15 -39 -34q-15 -19 -15 -39
q0 -27 23 -42q24 -16 75 -29l73 -19q36 -10 64 -21q26 -10 43 -24q16 -13 24 -33q8 -21 8 -46q0 -50 -25 -88q-26 -39 -70 -66q-45 -27 -106 -42t-133 -15zM911 491l49 49h9l50 -49l-50 -49h-9zM1022 336h-9l-48 48l-49 -48h-8l-53 51l53 51h8l49 -48l48 48h9l52 -51z" />
    <glyph glyph-name="uniFD1A" unicode="&#xfeb8;&#xfef2;" horiz-adv-x="1312" arabic-form="final" 
d="M358 -285l-9 -3q-150 0 -232 65q-81 65 -81 201q0 42 6 81q5 32 14 70h46v-7q-8 -32 -12 -66q-4 -31 -4 -69q0 -95 70 -141t208 -46q55 0 108 8q50 8 86 21t57 33t21 42q0 23 -19 36q-21 14 -69 26l-74 18q-76 18 -111 47q-34 28 -34 83q0 40 21 77q21 38 56 68
q34 30 80 48q45 18 92 18q46 0 78 -21q33 -22 56 -70l31 -62q12 -25 26 -48q11 -17 26 -31q13 -12 30 -18t39 -6q20 0 37 5q15 5 24 16q10 13 14 31q4 17 4 48v66h51v-65q0 -27 -1 -40q-1 -20 -6 -36q29 -26 75 -26q40 0 55 21t15 80v97h51v-95q0 -25 -1 -36l-3 -33
q28 -12 58 -17q33 -6 70 -6v-61l-17 -19q-36 0 -70 9q-33 9 -63 29q-28 -49 -93 -49q-64 0 -102 44q-32 -44 -108 -44q-29 0 -55 8q-23 7 -43 24q-20 16 -36 42q-19 29 -35 60l-24 49q-19 39 -45 57t-60 18q-32 0 -64 -9t-56 -24q-25 -15 -39 -34q-15 -19 -15 -39
q0 -27 23 -42q24 -16 75 -29l73 -19q36 -10 64 -21q26 -10 43 -24q16 -13 24 -33q8 -21 8 -46q0 -50 -25 -88q-26 -39 -70 -66q-45 -27 -106 -42t-133 -15zM406 -483h-9l-48 48l-49 -48h-8l-53 51l53 51h8l49 -48l48 48h9l52 -51zM911 491l49 49h9l50 -49l-50 -49h-9z
M1022 336h-9l-48 48l-49 -48h-8l-53 51l53 51h8l49 -48l48 48h9l52 -51z" />
    <glyph glyph-name="uniFD21" unicode="&#xfebc;&#xfef0;" horiz-adv-x="1421" arabic-form="final" 
d="M1302 109l-12 -10q25 -14 57 -22q28 -7 62 -7v-64l-17 -16q-34 0 -71 14q-35 13 -70 42q-28 -25 -69 -40q-40 -15 -90 -15h-256q-26 0 -47 6t-39 21q-19 16 -35 39q-13 19 -34 59l-24 49q-19 39 -45 57t-60 18q-32 0 -64 -9t-56 -24q-25 -15 -39 -34q-15 -19 -15 -39
q0 -27 23 -42q24 -16 75 -29l73 -19q36 -10 64 -21q26 -10 43 -24q16 -13 24 -33q8 -21 8 -46q0 -50 -25 -88q-26 -39 -70 -66q-45 -27 -106 -42t-133 -15q-154 0 -233 64q-80 65 -80 201q0 42 6 81q5 34 14 71h46v-8q-8 -32 -12 -64q-4 -29 -4 -68q0 -96 70 -141
q71 -45 208 -45q55 0 108 8q50 8 86 21t57 33t21 42q0 23 -19 36q-21 14 -69 26l-74 18q-39 9 -65 21q-27 12 -45 27t-27 35q-9 19 -9 47q0 40 21 77q21 38 56 68q34 30 80 48q45 18 92 18t78 -22q33 -23 56 -70l31 -62q9 -19 18 -33q10 -15 19 -24l77 96q33 42 68 78
q32 33 62 53q31 20 62 29t66 9q43 0 79 -15q37 -15 62 -42q26 -28 41 -63q15 -36 15 -78q0 -36 -14 -72zM1103 70l-1 -2q82 0 116 19q35 20 35 60q0 32 -12 59t-33 45q-22 19 -50 29q-30 11 -63 11q-59 0 -111 -33q-53 -34 -114 -109l-56 -70l1 -4q15 -5 35 -5h253z" />
    <glyph glyph-name="uniFD22" unicode="&#xfebc;&#xfef2;" horiz-adv-x="1421" arabic-form="final" 
d="M1302 109l-12 -10q25 -14 57 -22q28 -7 62 -7v-64l-17 -16q-34 0 -71 14q-35 13 -70 42q-28 -25 -69 -40q-40 -15 -90 -15h-256q-26 0 -47 6t-39 21q-19 16 -35 39q-13 19 -34 59l-24 49q-19 39 -45 57t-60 18q-32 0 -64 -9t-56 -24q-25 -15 -39 -34q-15 -19 -15 -39
q0 -27 23 -42q24 -16 75 -29l73 -19q36 -10 64 -21q26 -10 43 -24q16 -13 24 -33q8 -21 8 -46q0 -50 -25 -88q-26 -39 -70 -66q-45 -27 -106 -42t-133 -15q-154 0 -233 64q-80 65 -80 201q0 42 6 81q5 34 14 71h46v-8q-8 -32 -12 -64q-4 -29 -4 -68q0 -96 70 -141
q71 -45 208 -45q55 0 108 8q50 8 86 21t57 33t21 42q0 23 -19 36q-21 14 -69 26l-74 18q-39 9 -65 21q-27 12 -45 27t-27 35q-9 19 -9 47q0 40 21 77q21 38 56 68q34 30 80 48q45 18 92 18t78 -22q33 -23 56 -70l31 -62q9 -19 18 -33q10 -15 19 -24l77 96q33 42 68 78
q32 33 62 53q31 20 62 29t66 9q43 0 79 -15q37 -15 62 -42q26 -28 41 -63q15 -36 15 -78q0 -36 -14 -72zM1103 70l-1 -2q82 0 116 19q35 20 35 60q0 32 -12 59t-33 45q-22 19 -50 29q-30 11 -63 11q-59 0 -111 -33q-53 -34 -114 -109l-56 -70l1 -4q15 -5 35 -5h253z
M402 -493h-9l-48 48l-49 -48h-8l-53 51l53 51h8l49 -48l48 48h9l52 -51z" />
    <glyph glyph-name="uniFD23" unicode="&#xfec0;&#xfef0;" horiz-adv-x="1421" arabic-form="final" 
d="M1302 109l-12 -10q25 -14 57 -22q28 -7 62 -7v-64l-17 -16q-34 0 -71 14q-35 13 -70 42q-28 -25 -69 -40q-40 -15 -90 -15h-256q-26 0 -47 6t-39 21q-19 16 -35 39q-13 19 -34 59l-24 49q-19 39 -45 57t-60 18q-32 0 -64 -9t-56 -24q-25 -15 -39 -34q-15 -19 -15 -39
q0 -27 23 -42q24 -16 75 -29l73 -19q36 -10 64 -21q26 -10 43 -24q16 -13 24 -33q8 -21 8 -46q0 -50 -25 -88q-26 -39 -70 -66q-45 -27 -106 -42t-133 -15q-154 0 -233 64q-80 65 -80 201q0 42 6 81q5 34 14 71h46v-8q-8 -32 -12 -64q-4 -29 -4 -68q0 -96 70 -141
q71 -45 208 -45q55 0 108 8q50 8 86 21t57 33t21 42q0 23 -19 36q-21 14 -69 26l-74 18q-39 9 -65 21q-27 12 -45 27t-27 35q-9 19 -9 47q0 40 21 77q21 38 56 68q34 30 80 48q45 18 92 18t78 -22q33 -23 56 -70l31 -62q9 -19 18 -33q10 -15 19 -24l77 96q33 42 68 78
q32 33 62 53q31 20 62 29t66 9q43 0 79 -15q37 -15 62 -42q26 -28 41 -63q15 -36 15 -78q0 -36 -14 -72zM1103 70l-1 -2q82 0 116 19q35 20 35 60q0 32 -12 59t-33 45q-22 19 -50 29q-30 11 -63 11q-59 0 -111 -33q-53 -34 -114 -109l-56 -70l1 -4q15 -5 35 -5h253z
M1070 571l52 -51l-52 -51h-8l-53 51l53 51h8z" />
    <glyph glyph-name="uniFD24" unicode="&#xfec0;&#xfef2;" horiz-adv-x="1421" arabic-form="final" 
d="M1302 109l-12 -10q25 -14 57 -22q28 -7 62 -7v-64l-17 -16q-34 0 -71 14q-35 13 -70 42q-28 -25 -69 -40q-40 -15 -90 -15h-256q-26 0 -47 6t-39 21q-19 16 -35 39q-13 19 -34 59l-24 49q-19 39 -45 57t-60 18q-32 0 -64 -9t-56 -24q-25 -15 -39 -34q-15 -19 -15 -39
q0 -27 23 -42q24 -16 75 -29l73 -19q36 -10 64 -21q26 -10 43 -24q16 -13 24 -33q8 -21 8 -46q0 -50 -25 -88q-26 -39 -70 -66q-45 -27 -106 -42t-133 -15q-154 0 -233 64q-80 65 -80 201q0 42 6 81q5 34 14 71h46v-8q-8 -32 -12 -64q-4 -29 -4 -68q0 -96 70 -141
q71 -45 208 -45q55 0 108 8q50 8 86 21t57 33t21 42q0 23 -19 36q-21 14 -69 26l-74 18q-39 9 -65 21q-27 12 -45 27t-27 35q-9 19 -9 47q0 40 21 77q21 38 56 68q34 30 80 48q45 18 92 18t78 -22q33 -23 56 -70l31 -62q9 -19 18 -33q10 -15 19 -24l77 96q33 42 68 78
q32 33 62 53q31 20 62 29t66 9q43 0 79 -15q37 -15 62 -42q26 -28 41 -63q15 -36 15 -78q0 -36 -14 -72zM1103 70l-1 -2q82 0 116 19q35 20 35 60q0 32 -12 59t-33 45q-22 19 -50 29q-30 11 -63 11q-59 0 -111 -33q-53 -34 -114 -109l-56 -70l1 -4q15 -5 35 -5h253z
M1070 571l52 -51l-52 -51h-8l-53 51l53 51h8zM402 -493h-9l-48 48l-49 -48h-8l-53 51l53 51h8l49 -48l48 48h9l52 -51z" />
    <glyph glyph-name="uniFD29" unicode="&#xfeb8;&#xfeae;" horiz-adv-x="990" arabic-form="final" 
d="M39 -255l-4 -1q-37 0 -72 15q-33 14 -66 41v44l7 5q29 -12 57 -19q25 -6 51 -6q38 0 71 18q32 18 57 50q25 33 38 75q14 45 14 96q0 31 -7 65q-9 42 -19 74l3 5l247 30v-66q32 -101 123 -101q23 0 41 5t26 16q10 13 14 31q4 17 4 48v67h51v-65q0 -47 -7 -76
q29 -26 75 -26q18 0 33 5q14 5 21 16q8 13 11 31q3 20 3 48v97h51v-95q0 -25 -1 -36l-3 -33q28 -12 58 -17q33 -6 70 -6v-61l-17 -19q-35 0 -70 9q-33 9 -63 29q-26 -48 -90 -48q-65 0 -101 44q-32 -44 -105 -44q-61 0 -108 41q-46 41 -72 120l-118 -16l3 -33q2 -22 2 -30
q0 -73 -16 -131q-17 -61 -45 -104q-29 -44 -66 -68q-38 -24 -81 -24zM596 493l49 49h9l50 -49l-50 -49h-9zM707 338h-9l-48 48l-49 -48h-8l-53 51l53 51h8l49 -48l48 48h9l52 -51z" />
    <glyph glyph-name="uniFD2A" unicode="&#xfeb4;&#xfeae;" horiz-adv-x="990" arabic-form="final" 
d="M39 -255l-4 -1q-37 0 -72 15q-33 14 -66 41v44l7 5q29 -12 57 -19q25 -6 51 -6q38 0 71 18q32 18 57 50q25 33 38 75q14 45 14 96q0 31 -7 65q-9 42 -19 74l3 5l247 30v-66q32 -101 123 -101q23 0 41 5t26 16q10 13 14 31q4 17 4 48v67h51v-65q0 -47 -7 -76
q29 -26 75 -26q18 0 33 5q14 5 21 16q8 13 11 31q3 20 3 48v97h51v-95q0 -25 -1 -36l-3 -33q28 -12 58 -17q33 -6 70 -6v-61l-17 -19q-35 0 -70 9q-33 9 -63 29q-26 -48 -90 -48q-65 0 -101 44q-32 -44 -105 -44q-61 0 -108 41q-46 41 -72 120l-118 -16l3 -33q2 -22 2 -30
q0 -73 -16 -131q-17 -61 -45 -104q-29 -44 -66 -68q-38 -24 -81 -24z" />
    <glyph glyph-name="uniFD2B" unicode="&#xfebc;&#xfeae;" horiz-adv-x="1104" arabic-form="final" 
d="M39 -255l-3 -4q-38 0 -72 15q-33 14 -66 41v44l7 5q29 -12 57 -19q26 -6 51 -6q38 0 71 18q32 18 57 50q25 33 38 75q14 45 14 96q0 31 -7 65q-9 42 -19 74l3 5l247 30v-67q4 -25 14 -41q9 -14 23 -24l86 107q33 42 68 78q32 33 62 53q31 20 62 29q32 9 66 9q43 0 79 -15
q37 -15 62 -42q26 -28 41 -63q15 -36 15 -78q0 -36 -14 -70q28 -16 59 -24q28 -7 61 -7v-64l-17 -16q-34 0 -70 12q-34 11 -70 41q-28 -26 -69 -39q-42 -14 -91 -14h-253q-67 0 -108 38q-41 37 -63 114l-118 -16l3 -33q2 -22 2 -30q0 -73 -16 -131q-17 -61 -45 -104
q-29 -44 -66 -68q-38 -24 -81 -24zM795 76l-1 -2q82 0 116 19q35 20 35 60q0 32 -12 59t-33 45q-22 19 -50 29q-30 11 -63 11q-59 0 -111 -33q-53 -34 -114 -109l-58 -72l1 -3q15 -4 40 -4h250z" />
    <glyph glyph-name="uniFD2C" unicode="&#xfec0;&#xfeae;" horiz-adv-x="1104" arabic-form="final" 
d="M39 -255l-3 -4q-38 0 -72 15q-33 14 -66 41v44l7 5q29 -12 57 -19q26 -6 51 -6q38 0 71 18q32 18 57 50q25 33 38 75q14 45 14 96q0 31 -7 65q-9 42 -19 74l3 5l247 30v-67q4 -25 14 -41q9 -14 23 -24l86 107q33 42 68 78q32 33 62 53q31 20 62 29q32 9 66 9q43 0 79 -15
q37 -15 62 -42q26 -28 41 -63q15 -36 15 -78q0 -36 -14 -70q28 -16 59 -24q28 -7 61 -7v-64l-17 -16q-34 0 -70 12q-34 11 -70 41q-28 -26 -69 -39q-42 -14 -91 -14h-253q-67 0 -108 38q-41 37 -63 114l-118 -16l3 -33q2 -22 2 -30q0 -73 -16 -131q-17 -61 -45 -104
q-29 -44 -66 -68q-38 -24 -81 -24zM795 76l-1 -2q82 0 116 19q35 20 35 60q0 32 -12 59t-33 45q-22 19 -50 29q-30 11 -63 11q-59 0 -111 -33q-53 -34 -114 -109l-58 -72l1 -3q15 -4 40 -4h250zM762 578l52 -51l-52 -51h-8l-53 51l53 51h8z" />
    <glyph glyph-name="uniFDF2" unicode="&#x627;&#xfedf;&#xfee0;&#xfeea;" horiz-adv-x="1251" arabic-form="isolated" 
d="M636 996v-181h-38v181h38zM558 633l-3 -2q-28 0 -43 17q-15 16 -15 45q0 5 2 23q2 14 6 26h32v-7q-1 -5 -3 -13q-1 -4 -1 -12q0 -14 6 -21q6 -8 21 -8q20 0 29 15t9 50v39h35v-47q14 -8 30 -8q33 0 33 31q0 9 -3 23q-5 23 -7 30v7h36q3 -11 7 -33q3 -16 3 -30
q0 -32 -14 -54q-14 -21 -45 -21q-26 0 -44 12q-14 -62 -71 -62zM1165 743v-745h-61v745h61zM456 -12l-6 -2q-67 1 -101 32q-33 30 -42 92h-1q-28 -37 -63 -53q-37 -17 -78 -17q-33 0 -57 10q-27 11 -44 28t-28 42q-10 23 -10 51q0 56 40 99q40 44 114 87l122 70v68h55v-312
q0 -58 25 -87q26 -30 87 -30q35 0 65 12t56 35q-8 37 -8 72v395h61v-395q0 -58 29 -89q28 -30 90 -30q58 0 85 30t27 88v489h61v-489q0 -103 -44 -150t-129 -47q-62 0 -99 21t-57 63q-25 -38 -63 -61q-37 -22 -87 -22zM170 121v-2q76 0 129 42v198l-100 -52q-38 -20 -59 -33
q-22 -14 -39 -29q-15 -14 -21 -28q-6 -15 -6 -31q0 -32 27 -48q28 -17 69 -17z" />
    <glyph glyph-name="uniFEF5" unicode="&#xfedf;&#xfe82;" horiz-adv-x="513" arabic-form="isolated" 
d="M389 307l-2 -3q23 -22 39 -42q16 -18 27 -38q11 -18 15 -37q5 -22 5 -40q0 -71 -45 -110t-123 -39h-265v76l256 216l-256 223v84l5 3l301 -258q19 31 27 80q8 51 8 128v193h61v-193q0 -35 -2 -83q-1 -33 -8 -66q-6 -31 -16 -52q-10 -23 -27 -42zM303 77h1q56 0 86 18
t30 48q0 22 -19 45q-21 26 -66 65l-205 -174l1 -2h172zM39 670l-2 -1q11 14 28 21t38 7q14 0 29 -3q20 -4 31 -6q9 -2 29 -6q15 -3 29 -3t26 3q11 3 20 8h8v-39q-23 -18 -57 -18q-14 0 -29 3q-20 4 -29 6q-20 4 -29 6q-13 3 -27 3q-15 0 -33 -5q-16 -4 -25 -15h-7v39z" />
    <glyph glyph-name="uniFEF6" unicode="&#xfee0;&#xfe82;" horiz-adv-x="583" arabic-form="final" 
d="M189 -9l-2 2q-44 0 -79 4q-44 5 -81 13v64h147h27q9 0 25 2l-128 540v8h65l128 -541q69 17 114 60q-3 23 -3 49v555h61v-548q0 -64 27 -91t93 -27v-62l-18 -18q-117 0 -149 96q-40 -55 -95 -81q-53 -25 -132 -25zM2 725l-2 -1q11 14 28 21t38 7q14 0 29 -3q20 -4 31 -6
q9 -2 29 -6q15 -3 29 -3t26 3q11 3 20 8h8v-39q-22 -18 -57 -18q-14 0 -29 3q-20 4 -29 6q-20 4 -29 6q-14 3 -27 3q-15 0 -33 -5q-16 -4 -25 -15h-7v39z" />
    <glyph glyph-name="uniFEF7" unicode="&#xfedf;&#xfe84;" horiz-adv-x="513" arabic-form="isolated" 
d="M389 307l-2 -3q23 -22 39 -42q16 -18 27 -38q11 -18 15 -37q5 -22 5 -40q0 -71 -45 -110t-123 -39h-265v76l256 216l-256 223v84l5 3l301 -258q19 31 27 80q8 51 8 128v193h61v-193q0 -35 -2 -83q-1 -33 -8 -66q-6 -31 -16 -52q-10 -23 -27 -42zM303 77h1q56 0 86 18
t30 48q0 22 -19 45q-21 26 -66 65l-205 -174l1 -2h172zM96 687q-14 23 -14 45q0 18 8 36q8 17 21 29q15 13 31 20q19 8 38 8q59 0 59 -61v-22h-35v8q0 29 -32 29q-23 0 -39 -13t-16 -30q0 -25 32 -49h104v-46h-191v46h34z" />
    <glyph glyph-name="uniFEF8" unicode="&#xfee0;&#xfe84;" horiz-adv-x="583" arabic-form="final" 
d="M189 -9l-2 2q-44 0 -79 4q-44 5 -81 13v64h147h27q9 0 25 2l-128 540v8h65l128 -541q69 17 114 60q-3 23 -3 49v555h61v-548q0 -64 27 -91t93 -27v-62l-18 -18q-117 0 -149 96q-40 -55 -95 -81q-53 -25 -132 -25zM58 742q-14 23 -14 45q0 18 8 36q8 17 21 29q15 13 31 20
q19 8 38 8q59 0 59 -61v-22h-35v8q0 29 -32 29q-23 0 -39 -13t-16 -30q0 -25 32 -49h104v-46h-191v46h34z" />
    <glyph glyph-name="uniFEF9" unicode="&#xfedf;&#xfe88;" horiz-adv-x="513" arabic-form="isolated" 
d="M389 307l-2 -3q23 -22 39 -42q16 -18 27 -38q11 -18 15 -37q5 -22 5 -40q0 -71 -45 -110t-123 -39h-265v76l256 216l-256 223v84l5 3l301 -258q19 31 27 80q8 51 8 128v193h61v-193q0 -35 -2 -83q-1 -33 -8 -66q-6 -31 -16 -52q-10 -23 -27 -42zM303 77h1q56 0 86 18
t30 48q0 22 -19 45q-21 26 -66 65l-205 -174l1 -2h172zM106 -207q-14 23 -14 45q0 18 8 36q8 17 21 29q15 13 31 20q19 8 38 8q59 0 59 -61v-22h-35v8q0 29 -32 29q-23 0 -39 -13t-16 -30q0 -25 32 -49h104v-46h-191v46h34z" />
    <glyph glyph-name="uniFEFA" unicode="&#xfee0;&#xfe88;" horiz-adv-x="583" arabic-form="final" 
d="M189 -9l-2 2q-44 0 -79 4q-44 5 -81 13v64h147h27q9 0 25 2l-128 540v8h65l128 -541q69 17 114 60q-3 23 -3 49v555h61v-548q0 -64 27 -91t93 -27v-62l-18 -18q-117 0 -149 96q-40 -55 -95 -81q-53 -25 -132 -25zM188 -202q-14 23 -14 45q0 18 8 36q8 17 21 29
q15 13 31 20q19 8 38 8q59 0 59 -61v-22h-35v8q0 29 -32 29q-23 0 -39 -13t-16 -30q0 -25 32 -49h104v-46h-191v46h34z" />
    <glyph glyph-name="uniFEFB" unicode="&#xfedf;&#xfe8e;" horiz-adv-x="513" arabic-form="isolated" 
d="M389 307l-2 -3q23 -22 39 -42q16 -18 27 -38q11 -18 15 -37q5 -22 5 -40q0 -71 -45 -110t-123 -39h-265v76l256 216l-256 223v84l5 3l301 -258q19 31 27 80q8 51 8 128v193h61v-193q0 -35 -2 -83q-1 -33 -8 -66q-6 -31 -16 -52q-10 -23 -27 -42zM303 77h1q56 0 86 18
t30 48q0 22 -19 45q-21 26 -66 65l-205 -174l1 -2h172z" />
    <glyph glyph-name="uniFEFC" unicode="&#xfee0;&#xfe8e;" horiz-adv-x="583" arabic-form="final" 
d="M189 -9l-2 2q-44 0 -79 4q-44 5 -81 13v64h147h27q9 0 25 2l-128 540v8h65l128 -541q69 17 114 60q-3 23 -3 49v555h61v-548q0 -64 27 -91t93 -27v-62l-18 -18q-117 0 -149 96q-40 -55 -95 -81q-53 -25 -132 -25z" />
    <glyph glyph-name="f_b" unicode="fb" horiz-adv-x="849" 
d="M539 47l-2 -1q185 0 185 203q0 100 -45 145t-128 45h-27v38q7 4 29 7q19 3 42 3q51 0 89 -16q40 -17 66 -46q27 -30 42 -72t15 -94q0 -124 -68 -192t-192 -68h-153v656q0 15 -3 24t-12 15q-8 5 -26 7q-22 2 -43 2q-37 0 -61 -6t-37 -19q-14 -14 -18 -34q-5 -23 -5 -52
v-115h119v-47h-119v-364q0 -23 20 -23h62v-44h-228v44h47q21 0 21 23v364h-78v47h57q21 0 21 23v44q0 102 48 155t145 53q46 0 82 -3q44 -4 65 -7q23 -3 23 -26v-669h67z" />
    <glyph glyph-name="f_f" unicode="ff" horiz-adv-x="620" 
d="M339 44l43 -6q21 0 21 23v364h-219v-364q0 -23 20 -23h62v-44h-228v44h47q21 0 21 23v364h-78v47h57q21 0 21 23v51q0 45 12 81q12 37 34 63q22 27 54 42t72 15q12 0 34 -2q14 -1 27 -5v-62h-7q-9 4 -30 7q-19 3 -43 3q-43 0 -58 -21t-15 -75v-117h198q21 0 21 23v51
q0 45 12 81q12 37 34 63q23 27 54 42t72 15q12 0 34 -2q14 -1 27 -5v-62h-7q-9 4 -30 7q-19 3 -43 3q-43 0 -58 -21t-15 -75v-117h119v-47h-119v-364q0 -23 21 -23h61v-44h-228v44z" />
    <glyph glyph-name="f_h" unicode="fh" horiz-adv-x="865" 
d="M42 44l44 1q21 0 21 23v364h-78v47h57q21 0 21 23v44q0 102 48 155t145 53q46 0 82 -3q44 -4 65 -7q23 -3 23 -26v-294h4q26 26 63 45q38 20 89 20q72 0 106 -36q34 -35 34 -105v-281q0 -23 21 -23h47v-44h-214v44h48q20 0 20 23v263q0 53 -22 75q-23 23 -70 23
q-41 0 -72 -16q-32 -17 -53 -39v-307q0 -23 21 -23h47v-44h-214v44h48q20 0 20 23v590q0 15 -3 24t-12 15q-8 5 -26 7q-22 2 -43 2q-37 0 -61 -6t-37 -19q-14 -14 -18 -34q-5 -23 -5 -52v-115h119v-47h-119v-364q0 -23 20 -23h50v-44h-216v44z" />
    <glyph glyph-name="f_j" unicode="fj" horiz-adv-x="581" 
d="M42 44l43 -2q21 0 21 23v364h-78v47h57q21 0 21 23v51q0 45 12 81q12 37 34 63q22 27 54 42t72 15q12 0 34 -2q14 -1 27 -5v-62h-7q-9 4 -30 7q-19 3 -43 3q-43 0 -58 -21t-15 -75v-117h275q21 0 21 -22v-514q0 -79 -45 -123q-46 -44 -130 -44v44q51 0 75 27t24 90v471
q0 23 -21 23h-197v-364q0 -23 20 -23h62v-44h-228v44zM387 634q0 25 14 39q13 13 38 13t38 -13q14 -14 14 -39t-14 -39q-13 -13 -38 -13t-38 13q-14 14 -14 39z" />
    <glyph glyph-name="f_k" unicode="fk" horiz-adv-x="827" 
d="M482 249l147 146q7 7 11 12q6 7 6 14q0 13 -16 13h-41v44h212v-44h-13q-27 0 -51 -11q-21 -10 -45 -32l-129 -123l171 -185q19 -19 39 -28q21 -10 45 -11v-44h-44q-40 0 -66 12t-48 37zM44 44l45 -1q21 0 21 23v364h-78v47h57q21 0 21 23v44q0 102 48 155t145 53
q46 0 82 -3q44 -4 65 -7q23 -3 23 -26v-649q0 -23 21 -23h47v-44h-214v44h48q20 0 20 23v589q0 15 -3 24t-12 15q-8 5 -26 7q-22 2 -43 2q-37 0 -61 -6t-37 -19q-14 -14 -18 -34q-5 -23 -5 -52v-115h119v-47h-119v-364q0 -23 20 -23h50v-44h-216v44z" />
    <glyph glyph-name="f_f_b" unicode="ffb" horiz-adv-x="1146" 
d="M837 47l-6 -4q185 0 185 203q0 100 -45 145t-128 45h-27v38q9 4 30 7q20 3 42 3q51 0 90 -16q42 -17 68 -46q27 -30 42 -72t15 -94q0 -124 -69 -192q-70 -68 -193 -68h-152v656q0 15 -3 24t-12 15q-8 5 -26 7q-22 2 -44 2q-37 0 -61 -6t-37 -19q-14 -14 -18 -34
q-5 -23 -5 -52v-115h119v-47h-119v-364q0 -23 21 -23h58v-44h-225v44h47q21 0 21 23v364h-219v-364q0 -23 20 -23h62v-44h-228v44h47q21 0 21 23v364h-78v47h57q21 0 21 23v51q0 45 12 81q12 37 34 63q22 27 54 42t72 15q12 0 34 -2q14 -1 27 -5v-62h-7q-9 4 -30 7
q-20 3 -43 3q-43 0 -58 -21t-15 -75v-117h198q21 0 21 23v44q0 102 48 155t145 53q46 0 82 -3q42 -3 64 -7q23 -3 23 -26v-669h68z" />
    <glyph glyph-name="f_f_h" unicode="ffh" horiz-adv-x="1162" 
d="M339 44l44 -1q21 0 21 23v364h-219v-364q0 -23 20 -23h62v-44h-228v44h47q21 0 21 23v364h-78v47h57q21 0 21 23v51q0 45 12 81q12 37 34 63q23 27 54 42t72 15q12 0 34 -2q14 -1 27 -5v-62h-7q-9 4 -30 7q-20 3 -43 3q-43 0 -58 -21t-15 -75v-117h198q21 0 21 23v44
q0 103 48 155q48 53 145 53q46 0 82 -3q42 -3 64 -7q23 -3 23 -25v-294h4q26 26 64 45q40 20 90 20q72 0 105 -36t33 -105v-281q0 -23 21 -23h47v-44h-213v44h47q21 0 21 23v263q0 52 -23 75t-71 23q-41 0 -72 -16q-32 -17 -53 -39v-307q0 -23 21 -23h47v-44h-213v44h47
q21 0 21 23v590q0 15 -3 24q-3 10 -12 14t-26 6q-22 2 -44 2q-37 0 -61 -6t-37 -19q-14 -14 -18 -34q-5 -23 -5 -52v-115h119v-47h-119v-364q0 -23 21 -23h49v-44h-216v44z" />
    <glyph glyph-name="f_f_i" unicode="ffi" horiz-adv-x="886" 
d="M636 44l44 -6q20 0 20 23v341q0 23 -20 23h-199v-364q0 -23 21 -23h61v-44h-228v44h47q21 0 21 23v364h-219v-364q0 -23 20 -23h62v-44h-228v44h47q21 0 21 23v364h-78v47h57q21 0 21 23v51q0 45 12 81q12 37 34 63q22 27 54 42t72 15q12 0 34 -2q14 -1 27 -5v-62h-7
q-9 4 -30 7q-19 3 -43 3q-43 0 -58 -21t-15 -75v-117h198q21 0 21 23v51q0 45 12 81q12 37 34 63q23 27 54 42t72 15q12 0 34 -2q14 -1 27 -5v-62h-7q-9 4 -30 7q-19 3 -43 3q-43 0 -58 -21t-15 -75v-117h276q21 0 21 -22v-389q0 -23 21 -23h47v-44h-214v44zM685 630
q0 25 14 39q13 13 38 13t39 -13q15 -13 15 -39t-15 -39q-14 -13 -39 -13t-38 13q-14 14 -14 39z" />
    <glyph glyph-name="f_f_j" unicode="ffj" horiz-adv-x="878" 
d="M339 44l41 -5q21 0 21 23v364h-219v-364q0 -23 20 -23h62v-44h-228v44h47q21 0 21 23v364h-78v47h57q21 0 21 23v51q0 45 12 81q12 37 34 63q22 27 54 42t72 15q12 0 34 -2q14 -1 27 -5v-62h-7q-9 4 -30 7q-19 3 -43 3q-43 0 -58 -21t-15 -75v-117h198q21 0 21 23v51
q0 45 12 81q12 37 34 63q23 27 54 42t72 15q12 0 34 -2q14 -1 27 -5v-62h-7q-9 4 -30 7q-19 3 -43 3q-43 0 -58 -21t-15 -75v-117h275q21 0 21 -22v-514q0 -79 -45 -123q-46 -44 -130 -44v44q51 0 75 27t24 90v471q0 23 -21 23h-197v-364q0 -23 21 -23h61v-44h-228v44z
M682 631q0 25 14 39q13 13 38 13t39 -13q15 -14 15 -39t-15 -39q-14 -13 -39 -13t-38 13q-14 14 -14 39z" />
    <glyph glyph-name="f_f_k" unicode="ffk" horiz-adv-x="1124" 
d="M339 44l44 -4q21 0 21 23v364h-219v-364q0 -23 20 -23h62v-44h-228v44h47q21 0 21 23v364h-78v47h57q21 0 21 23v51q0 45 12 81q12 37 34 63q23 27 54 42t72 15q12 0 34 -2q14 -1 27 -5v-62h-7q-9 4 -30 7q-20 3 -43 3q-43 0 -58 -21t-15 -75v-117h198q21 0 21 23v44
q0 102 48 155t145 53q46 0 82 -3q42 -3 64 -7q23 -3 23 -26v-649q0 -23 21 -23h47v-44h-213v44h47q21 0 21 23v589q0 15 -3 24t-12 15q-8 5 -26 7q-22 2 -44 2q-37 0 -61 -6t-37 -19q-14 -14 -18 -34q-5 -23 -5 -52v-115h119v-47h-119v-364q0 -23 21 -23h49v-44h-216v44z
M776 245l148 146q7 7 11 12q6 8 6 14q0 13 -17 13h-41v44h212v-44h-13q-27 0 -51 -11q-21 -10 -45 -32l-128 -123l171 -185q35 -36 84 -39v-44h-45q-40 0 -66 12t-48 37z" />
    <glyph glyph-name="f_f_l" unicode="ffl" horiz-adv-x="867" 
d="M339 44l44 -4q21 0 21 23v364h-219v-364q0 -23 20 -23h62v-44h-228v44h47q21 0 21 23v364h-78v47h57q21 0 21 23v51q0 45 12 81q12 37 34 63q23 27 54 42t72 15q12 0 34 -2q14 -1 27 -5v-62h-7q-9 4 -30 7q-20 3 -43 3q-43 0 -58 -21t-15 -75v-117h198q21 0 21 23v44
q0 102 48 155t145 53q46 0 82 -3q42 -3 64 -7q23 -3 23 -26v-649q0 -23 21 -23h47v-44h-213v44h47q21 0 21 23v589q0 15 -3 24t-12 15q-8 5 -26 7q-22 2 -44 2q-37 0 -61 -6t-37 -19q-14 -14 -18 -34q-5 -23 -5 -52v-115h119v-47h-119v-364q0 -23 21 -23h49v-44h-216v44z
" />
    <glyph glyph-name="f_y" unicode="fy" horiz-adv-x="778" 
d="M295 -172h4q14 -2 22 -3t23 -1q53 0 85 23q31 22 51 77l23 59l-157 424q-5 11 -12 17q-8 6 -29 6h-119v-364q0 -23 21 -23h61v-44h-228v44h47q21 0 21 23v364h-78v47h57q21 0 21 23v51q0 45 12 81q12 37 34 63q22 27 54 42t72 15q12 0 34 -2q14 -1 27 -5v-63h-7
q-9 4 -30 7q-20 3 -43 3q-43 0 -58 -22t-15 -76v-116h298v-44h-41q-18 0 -18 -14q0 -4 3 -12l6 -15l110 -309h3l110 309l6 15q3 8 3 12q0 14 -18 14h-41v44h172v-44h-17q-22 0 -30 -7q-9 -7 -15 -24l-183 -492q-11 -28 -29 -58q-15 -25 -41 -46q-24 -20 -55 -30
q-33 -11 -70 -11h-24q-8 0 -22 2v60z" />
    <glyph glyph-name="f_yacute" unicode="f&#xfd;" horiz-adv-x="778" 
d="M295 -172l2 -3q14 -2 22 -3t23 -1q53 0 84 23q30 22 51 77l23 59l-157 424q-5 11 -12 17t-29 6h-119v-364q0 -23 20 -23h62v-44h-228v44h47q21 0 21 23v364h-78v47h57q21 0 21 23v51q0 45 12 81q12 37 34 63q23 27 54 42t72 15q12 0 34 -2q14 -1 27 -5v-62h-7q-9 4 -30 7
q-20 3 -43 3q-43 0 -58 -21t-15 -75v-117h297v-44h-41q-7 0 -12 -3t-5 -11q0 -5 3 -12l6 -16l111 -310h2l111 310l6 17q3 8 3 12q0 14 -18 14h-41v44h172v-44h-18q-20 0 -28 -7q-9 -7 -15 -24l-183 -492q-11 -28 -29 -58q-15 -25 -41 -46q-24 -20 -55 -30q-33 -11 -70 -11
h-24q-7 0 -21 2v60zM494 569l57 57l44 44q23 23 28 26q5 4 9 6q6 2 12 2q14 0 23 -12t9 -22q0 -14 -12 -23q-6 -5 -31 -22q-24 -17 -51 -33q-32 -20 -69 -45z" />
    <glyph glyph-name="f_ydieresis" unicode="f&#xff;" horiz-adv-x="778" 
d="M295 -172l2 -3q14 -2 22 -3t23 -1q53 0 84 23q30 22 51 77l23 59l-157 424q-5 11 -12 17t-29 6h-119v-364q0 -23 20 -23h62v-44h-228v44h47q21 0 21 23v364h-78v47h57q21 0 21 23v51q0 45 12 81q12 37 34 63q23 27 54 42t72 15q12 0 34 -2q14 -1 27 -5v-62h-7q-9 4 -30 7
q-20 3 -43 3q-43 0 -58 -21t-15 -75v-117h297v-44h-41q-7 0 -12 -3t-5 -11q0 -5 3 -12l6 -16l111 -310h2l111 310l6 17q3 8 3 12q0 14 -18 14h-41v44h172v-44h-18q-20 0 -28 -7q-9 -7 -15 -24l-183 -492q-11 -28 -29 -58q-15 -25 -41 -46q-24 -20 -55 -30q-33 -11 -70 -11
h-24q-7 0 -21 2v60zM421 613v-1q0 22 12 32q13 11 32 11q18 0 31 -11q12 -10 12 -32q0 -19 -12 -31t-31 -12q-20 0 -32 12t-12 32zM574 612v-1q0 21 12 32q13 11 32 11t32 -11q12 -11 12 -32q0 -19 -12 -31t-32 -12t-32 12t-12 32z" />
    <glyph glyph-name="uni06440671" unicode="&#xfedf;&#xfb51;" horiz-adv-x="513" 
d="M389 307l-2 -3q23 -22 39 -42q16 -18 27 -38q11 -18 15 -37q5 -22 5 -40q0 -71 -45 -110t-123 -39h-265v76l256 216l-256 223v84l5 3l301 -258q19 31 27 80q8 51 8 128v193h61v-193q0 -35 -2 -83q-1 -33 -8 -66q-6 -31 -16 -52q-10 -23 -27 -42zM303 77h1q56 0 86 18
t30 48q0 22 -19 45q-21 26 -66 65l-205 -174l1 -2h172zM217 794v-3q33 0 53 -24q20 -25 20 -58q0 -35 -22 -56t-57 -21q-28 0 -55 9t-51 9q-15 0 -33 -5q-16 -4 -25 -15h-7v39q11 14 28 21t38 7h9q23 52 48 74q26 23 54 23zM209 677v-2q44 0 44 28q0 15 -12 26
q-13 11 -32 11q-18 0 -37 -14q-17 -13 -28 -39q11 -3 33 -7q17 -3 32 -3z" />
    <glyph glyph-name="uni06440671.fina" unicode="&#xfee0;&#xfb51;" horiz-adv-x="583" 
d="M189 -9l-2 2q-44 0 -79 4q-44 5 -81 13v64h147h27q9 0 25 2l-128 540v8h65l128 -541q69 17 114 60q-3 23 -3 49v555h61v-548q0 -64 27 -91t93 -27v-62l-18 -18q-117 0 -149 96q-40 -55 -95 -81q-53 -25 -132 -25zM180 849v-3q34 0 53 -24q20 -25 20 -58q0 -35 -22 -56
q-23 -21 -57 -21q-28 0 -55 9t-51 9q-15 0 -33 -5q-16 -4 -25 -15h-7v39q11 14 28 21t38 7h9q23 52 48 74q26 23 54 23zM172 732v-2q44 0 44 28q0 16 -12 26q-13 11 -32 11q-18 0 -37 -14q-17 -13 -28 -39q11 -3 33 -7q16 -3 32 -3z" />
    <glyph glyph-name="uni06330632" unicode="&#xfeb3;&#xfeb0;" horiz-adv-x="915" 
d="M39 -255l-4 -1q-37 0 -72 15q-33 14 -66 41v44l7 5q29 -12 57 -19q25 -6 51 -6q38 0 71 18q32 18 57 50q25 33 38 75q14 45 14 96q0 31 -7 65q-9 42 -19 74l3 5l247 30v-67q31 -100 122 -100q24 0 42 5q16 5 27 15t15 30q4 17 4 48v67h51v-65q0 -47 -7 -76q29 -26 75 -26
q68 0 68 77q0 20 -1 30q-2 22 -4 32q-3 17 -6 36q-3 21 -9 47l3 5h54q1 -4 4 -20.5t4 -24.5q4 -27 5 -36l3 -33q1 -11 1 -34q0 -72 -32 -115q-31 -42 -89 -42q-64 0 -100 44q-32 -44 -105 -44q-62 0 -109 41q-46 41 -72 120l-118 -16l3 -33q2 -22 2 -30q0 -73 -16 -131
q-17 -61 -45 -104q-29 -44 -66 -68q-38 -24 -81 -24zM179 410l52 -51l-52 -51h-8l-53 51l53 51h8z" />
    <glyph glyph-name="uni06340632" unicode="&#xfeb7;&#xfeb0;" horiz-adv-x="915" 
d="M39 -255l-4 -1q-37 0 -72 15q-33 14 -66 41v44l7 5q29 -12 57 -19q25 -6 51 -6q38 0 71 18q32 18 57 50q25 33 38 75q14 45 14 96q0 31 -7 65q-9 42 -19 74l3 5l247 30v-67q31 -100 122 -100q24 0 42 5q16 5 27 15t15 30q4 17 4 48v67h51v-65q0 -47 -7 -76q29 -26 75 -26
q68 0 68 77q0 20 -1 30q-2 22 -4 32q-3 17 -6 36q-3 21 -9 47l3 5h54q1 -4 4 -20.5t4 -24.5q4 -27 5 -36l3 -33q1 -11 1 -34q0 -72 -32 -115q-31 -42 -89 -42q-64 0 -100 44q-32 -44 -105 -44q-62 0 -109 41q-46 41 -72 120l-118 -16l3 -33q2 -22 2 -30q0 -73 -16 -131
q-17 -61 -45 -104q-29 -44 -66 -68q-38 -24 -81 -24zM589 493l49 49h9l50 -49l-50 -49h-9zM700 338h-9l-48 48l-49 -48h-8l-53 51l53 51h8l49 -48l48 48h9l52 -51zM179 410l52 -51l-52 -51h-8l-53 51l53 51h8z" />
    <glyph glyph-name="uni06330632.fina" unicode="&#xfeb4;&#xfeb0;" horiz-adv-x="990" 
d="M39 -255l-4 -1q-37 0 -72 15q-33 14 -66 41v44l7 5q29 -12 57 -19q25 -6 51 -6q38 0 71 18q32 18 57 50q25 33 38 75q14 45 14 96q0 31 -7 65q-9 42 -19 74l3 5l247 30v-66q32 -101 123 -101q23 0 41 5t26 16q10 13 14 31q4 17 4 48v67h51v-65q0 -47 -7 -76
q29 -26 75 -26q18 0 33 5q14 5 21 16q8 13 11 31q3 20 3 48v97h51v-95q0 -25 -1 -36l-3 -33q28 -12 58 -17q33 -6 70 -6v-61l-17 -19q-35 0 -70 9q-33 9 -63 29q-26 -48 -90 -48q-65 0 -101 44q-32 -44 -105 -44q-61 0 -108 41q-46 41 -72 120l-118 -16l3 -33q2 -22 2 -30
q0 -73 -16 -131q-17 -61 -45 -104q-29 -44 -66 -68q-38 -24 -81 -24zM179 410l52 -51l-52 -51h-8l-53 51l53 51h8z" />
    <glyph glyph-name="uni06340632.fina" unicode="&#xfeb8;&#xfeb0;" horiz-adv-x="990" 
d="M39 -255l-4 -1q-37 0 -72 15q-33 14 -66 41v44l7 5q29 -12 57 -19q25 -6 51 -6q38 0 71 18q32 18 57 50q25 33 38 75q14 45 14 96q0 31 -7 65q-9 42 -19 74l3 5l247 30v-66q32 -101 123 -101q23 0 41 5t26 16q10 13 14 31q4 17 4 48v67h51v-65q0 -47 -7 -76
q29 -26 75 -26q18 0 33 5q14 5 21 16q8 13 11 31q3 20 3 48v97h51v-95q0 -25 -1 -36l-3 -33q28 -12 58 -17q33 -6 70 -6v-61l-17 -19q-35 0 -70 9q-33 9 -63 29q-26 -48 -90 -48q-65 0 -101 44q-32 -44 -105 -44q-61 0 -108 41q-46 41 -72 120l-118 -16l3 -33q2 -22 2 -30
q0 -73 -16 -131q-17 -61 -45 -104q-29 -44 -66 -68q-38 -24 -81 -24zM596 493l49 49h9l50 -49l-50 -49h-9zM707 338h-9l-48 48l-49 -48h-8l-53 51l53 51h8l49 -48l48 48h9l52 -51zM179 410l52 -51l-52 -51h-8l-53 51l53 51h8z" />
    <glyph glyph-name="uni06330626" unicode="&#xfeb3;&#xfe8a;" horiz-adv-x="1235" 
d="M358 -285l-11 -6q-154 0 -233 64q-80 65 -80 201q0 42 6 81q5 34 14 71h46v-8q-8 -32 -12 -64q-4 -29 -4 -68q0 -96 70 -141t208 -45q55 0 108 8q50 8 86 21t57 33t21 42q0 23 -19 36q-21 14 -69 26l-74 18q-76 18 -111 47q-34 28 -34 83q0 40 21 77q21 38 56 68
q34 30 80 48q45 18 92 18t78 -22q33 -23 56 -70l31 -62q12 -25 26 -48q11 -17 26 -31q13 -12 30 -18t39 -6q20 0 37 5q15 5 24 15q10 11 14 30q4 17 4 48v67h51v-65q0 -27 -1 -40q-1 -20 -6 -36q29 -26 75 -26q68 0 68 77q0 20 -1 30q-2 22 -4 32q-3 17 -6 36q-3 21 -9 47
l3 5h54q1 -4 4 -20.5t4 -24.5q4 -27 5 -36l3 -33q1 -11 1 -34q0 -74 -31 -115q-31 -42 -90 -42q-61 0 -99 44q-32 -44 -108 -44q-29 0 -55 8q-23 7 -43 24q-20 16 -36 42q-19 29 -35 60l-24 49q-19 39 -45 57t-60 18q-32 0 -64 -9t-56 -24q-25 -15 -39 -34q-15 -19 -15 -39
q0 -27 23 -42q24 -16 75 -29l73 -19q36 -10 64 -21q26 -10 43 -24q16 -13 24 -33q8 -21 8 -46q0 -50 -25 -88q-26 -39 -70 -66q-45 -27 -106 -42t-133 -15zM15 242q-14 23 -14 45q0 18 8 36q8 17 21 29q15 13 31 20q19 8 38 8q59 0 59 -61v-22h-35v8q0 29 -32 29
q-23 0 -39 -13t-16 -30q0 -25 32 -49h104v-46h-191v46h34z" />
    <glyph glyph-name="uni06340626" unicode="&#xfeb7;&#xfe8a;" horiz-adv-x="1235" 
d="M358 -285l-11 -6q-154 0 -233 64q-80 65 -80 201q0 42 6 81q5 34 14 71h46v-8q-8 -32 -12 -64q-4 -29 -4 -68q0 -96 70 -141t208 -45q55 0 108 8q50 8 86 21t57 33t21 42q0 23 -19 36q-21 14 -69 26l-74 18q-76 18 -111 47q-34 28 -34 83q0 40 21 77q21 38 56 68
q34 30 80 48q45 18 92 18t78 -22q33 -23 56 -70l31 -62q12 -25 26 -48q11 -17 26 -31q13 -12 30 -18t39 -6q20 0 37 5q15 5 24 15q10 11 14 30q4 17 4 48v67h51v-65q0 -27 -1 -40q-1 -20 -6 -36q29 -26 75 -26q68 0 68 77q0 20 -1 30q-2 22 -4 32q-3 17 -6 36q-3 21 -9 47
l3 5h54q1 -4 4 -20.5t4 -24.5q4 -27 5 -36l3 -33q1 -11 1 -34q0 -74 -31 -115q-31 -42 -90 -42q-61 0 -99 44q-32 -44 -108 -44q-29 0 -55 8q-23 7 -43 24q-20 16 -36 42q-19 29 -35 60l-24 49q-19 39 -45 57t-60 18q-32 0 -64 -9t-56 -24q-25 -15 -39 -34q-15 -19 -15 -39
q0 -27 23 -42q24 -16 75 -29l73 -19q36 -10 64 -21q26 -10 43 -24q16 -13 24 -33q8 -21 8 -46q0 -50 -25 -88q-26 -39 -70 -66q-45 -27 -106 -42t-133 -15zM909 488l49 49h9l50 -49l-50 -49h-9zM1020 333h-9l-48 48l-49 -48h-8l-53 51l53 51h8l49 -48l48 48h9l52 -51z
M15 242q-14 23 -14 45q0 18 8 36q8 17 21 29q15 13 31 20q19 8 38 8q59 0 59 -61v-22h-35v8q0 29 -32 29q-23 0 -39 -13t-16 -30q0 -25 32 -49h104v-46h-191v46h34z" />
    <glyph glyph-name="uni06330626.fina" unicode="&#xfeb4;&#xfe8a;" horiz-adv-x="1312" 
d="M358 -285l-9 -3q-150 0 -232 65q-81 65 -81 201q0 42 6 81q5 32 14 70h46v-7q-8 -32 -12 -66q-4 -31 -4 -69q0 -95 70 -141t208 -46q55 0 108 8q50 8 86 21t57 33t21 42q0 23 -19 36q-21 14 -69 26l-74 18q-76 18 -111 47q-34 28 -34 83q0 40 21 77q21 38 56 68
q34 30 80 48q45 18 92 18q46 0 78 -21q33 -22 56 -70l31 -62q12 -25 26 -48q11 -17 26 -31q13 -12 30 -18t39 -6q20 0 37 5q15 5 24 16q10 13 14 31q4 17 4 48v66h51v-65q0 -27 -1 -40q-1 -20 -6 -36q29 -26 75 -26q40 0 55 21t15 80v97h51v-95q0 -25 -1 -36l-3 -33
q28 -12 58 -17q33 -6 70 -6v-61l-17 -19q-36 0 -70 9q-33 9 -63 29q-28 -49 -93 -49q-64 0 -102 44q-32 -44 -108 -44q-29 0 -55 8q-23 7 -43 24q-20 16 -36 42q-19 29 -35 60l-24 49q-19 39 -45 57t-60 18q-32 0 -64 -9t-56 -24q-25 -15 -39 -34q-15 -19 -15 -39
q0 -27 23 -42q24 -16 75 -29l73 -19q36 -10 64 -21q26 -10 43 -24q16 -13 24 -33q8 -21 8 -46q0 -50 -25 -88q-26 -39 -70 -66q-45 -27 -106 -42t-133 -15zM17 245q-14 23 -14 45q0 18 8 36q8 17 21 29q15 13 31 20q19 8 38 8q59 0 59 -61v-22h-35v8q0 29 -32 29
q-23 0 -39 -13t-16 -30q0 -25 32 -49h104v-46h-191v46h34z" />
    <glyph glyph-name="uni06340626.fina" unicode="&#xfeb8;&#xfe8a;" horiz-adv-x="1312" 
d="M358 -285l-9 -3q-150 0 -232 65q-81 65 -81 201q0 42 6 81q5 32 14 70h46v-7q-8 -32 -12 -66q-4 -31 -4 -69q0 -95 70 -141t208 -46q55 0 108 8q50 8 86 21t57 33t21 42q0 23 -19 36q-21 14 -69 26l-74 18q-76 18 -111 47q-34 28 -34 83q0 40 21 77q21 38 56 68
q34 30 80 48q45 18 92 18q46 0 78 -21q33 -22 56 -70l31 -62q12 -25 26 -48q11 -17 26 -31q13 -12 30 -18t39 -6q20 0 37 5q15 5 24 16q10 13 14 31q4 17 4 48v66h51v-65q0 -27 -1 -40q-1 -20 -6 -36q29 -26 75 -26q40 0 55 21t15 80v97h51v-95q0 -25 -1 -36l-3 -33
q28 -12 58 -17q33 -6 70 -6v-61l-17 -19q-36 0 -70 9q-33 9 -63 29q-28 -49 -93 -49q-64 0 -102 44q-32 -44 -108 -44q-29 0 -55 8q-23 7 -43 24q-20 16 -36 42q-19 29 -35 60l-24 49q-19 39 -45 57t-60 18q-32 0 -64 -9t-56 -24q-25 -15 -39 -34q-15 -19 -15 -39
q0 -27 23 -42q24 -16 75 -29l73 -19q36 -10 64 -21q26 -10 43 -24q16 -13 24 -33q8 -21 8 -46q0 -50 -25 -88q-26 -39 -70 -66q-45 -27 -106 -42t-133 -15zM911 491l49 49h9l50 -49l-50 -49h-9zM1022 336h-9l-48 48l-49 -48h-8l-53 51l53 51h8l49 -48l48 48h9l52 -51z
M17 245q-14 23 -14 45q0 18 8 36q8 17 21 29q15 13 31 20q19 8 38 8q59 0 59 -61v-22h-35v8q0 29 -32 29q-23 0 -39 -13t-16 -30q0 -25 32 -49h104v-46h-191v46h34z" />
    <glyph glyph-name="uni06350632" unicode="&#xfebb;&#xfeb0;" horiz-adv-x="1039" 
d="M39 -255l-2 -4q-37 0 -72 15q-33 14 -66 41v44l7 5q29 -12 57 -19q25 -6 51 -6q38 0 71 18q32 18 57 50q25 33 38 75q14 45 14 96q0 31 -7 65q-9 42 -19 74l3 5l247 30v-67q4 -25 14 -41q9 -14 23 -24l86 107q33 42 68 78q32 33 62 53q31 20 62 29t66 9q43 0 79 -15
q37 -15 62 -42q26 -28 41 -63q15 -36 15 -78q0 -41 -15 -74q-15 -34 -43 -57t-67 -37q-38 -13 -87 -13h-253q-67 0 -108 38q-41 37 -63 114l-118 -16l3 -33q2 -22 2 -30q0 -73 -16 -131q-17 -61 -45 -104q-29 -44 -66 -68q-38 -24 -81 -24zM796 76l-1 -2q82 0 116 19
q35 20 35 60q0 32 -12 59t-33 45q-22 19 -50 29q-30 11 -63 11q-58 0 -111 -33q-53 -34 -114 -109l-58 -72l1 -3q15 -4 40 -4h250zM183 405l52 -51l-52 -51h-8l-53 51l53 51h8z" />
    <glyph glyph-name="uni06360632" unicode="&#xfebf;&#xfeb0;" horiz-adv-x="1039" 
d="M39 -255l-2 -4q-37 0 -72 15q-33 14 -66 41v44l7 5q29 -12 57 -19q25 -6 51 -6q38 0 71 18q32 18 57 50q25 33 38 75q14 45 14 96q0 31 -7 65q-9 42 -19 74l3 5l247 30v-67q4 -25 14 -41q9 -14 23 -24l86 107q33 42 68 78q32 33 62 53q31 20 62 29t66 9q43 0 79 -15
q37 -15 62 -42q26 -28 41 -63q15 -36 15 -78q0 -41 -15 -74q-15 -34 -43 -57t-67 -37q-38 -13 -87 -13h-253q-67 0 -108 38q-41 37 -63 114l-118 -16l3 -33q2 -22 2 -30q0 -73 -16 -131q-17 -61 -45 -104q-29 -44 -66 -68q-38 -24 -81 -24zM796 76l-1 -2q82 0 116 19
q35 20 35 60q0 32 -12 59t-33 45q-22 19 -50 29q-30 11 -63 11q-58 0 -111 -33q-53 -34 -114 -109l-58 -72l1 -3q15 -4 40 -4h250zM130 405l52 -51l-52 -51h-8l-53 51l53 51h8zM710 578l52 -51l-52 -51h-8l-53 51l53 51h8z" />
    <glyph glyph-name="uni06350632.fina" unicode="&#xfebc;&#xfeb0;" horiz-adv-x="1104" 
d="M39 -255l-3 -4q-38 0 -72 15q-33 14 -66 41v44l7 5q29 -12 57 -19q26 -6 51 -6q38 0 71 18q32 18 57 50q25 33 38 75q14 45 14 96q0 31 -7 65q-9 42 -19 74l3 5l247 30v-67q4 -25 14 -41q9 -14 23 -24l86 107q33 42 68 78q32 33 62 53q31 20 62 29q32 9 66 9q43 0 79 -15
q37 -15 62 -42q26 -28 41 -63q15 -36 15 -78q0 -36 -14 -70q28 -16 59 -24q28 -7 61 -7v-64l-17 -16q-34 0 -70 12q-34 11 -70 41q-28 -26 -69 -39q-42 -14 -91 -14h-253q-67 0 -108 38q-41 37 -63 114l-118 -16l3 -33q2 -22 2 -30q0 -73 -16 -131q-17 -61 -45 -104
q-29 -44 -66 -68q-38 -24 -81 -24zM795 76l-1 -2q82 0 116 19q35 20 35 60q0 32 -12 59t-33 45q-22 19 -50 29q-30 11 -63 11q-59 0 -111 -33q-53 -34 -114 -109l-58 -72l1 -3q15 -4 40 -4h250zM182 405l52 -51l-52 -51h-8l-53 51l53 51h8z" />
    <glyph glyph-name="uni06360632.fina" unicode="&#xfec0;&#xfeb0;" horiz-adv-x="1104" 
d="M39 -255l-3 -4q-38 0 -72 15q-33 14 -66 41v44l7 5q29 -12 57 -19q26 -6 51 -6q38 0 71 18q32 18 57 50q25 33 38 75q14 45 14 96q0 31 -7 65q-9 42 -19 74l3 5l247 30v-67q4 -25 14 -41q9 -14 23 -24l86 107q33 42 68 78q32 33 62 53q31 20 62 29q32 9 66 9q43 0 79 -15
q37 -15 62 -42q26 -28 41 -63q15 -36 15 -78q0 -36 -14 -70q28 -16 59 -24q28 -7 61 -7v-64l-17 -16q-34 0 -70 12q-34 11 -70 41q-28 -26 -69 -39q-42 -14 -91 -14h-253q-67 0 -108 38q-41 37 -63 114l-118 -16l3 -33q2 -22 2 -30q0 -73 -16 -131q-17 -61 -45 -104
q-29 -44 -66 -68q-38 -24 -81 -24zM795 76l-1 -2q82 0 116 19q35 20 35 60q0 32 -12 59t-33 45q-22 19 -50 29q-30 11 -63 11q-59 0 -111 -33q-53 -34 -114 -109l-58 -72l1 -3q15 -4 40 -4h250zM129 405l52 -51l-52 -51h-8l-53 51l53 51h8zM709 578l52 -51l-52 -51h-8
l-53 51l53 51h8z" />
    <glyph glyph-name="uni06350626" unicode="&#xfebb;&#xfe8a;" horiz-adv-x="1356" 
d="M1119 381l-13 -9q43 0 79 -15q37 -15 62 -42q26 -28 41 -63q15 -36 15 -78q0 -41 -15 -74q-15 -34 -43 -57t-67 -37q-38 -13 -87 -13h-256q-26 0 -47 6t-39 21q-19 16 -35 39q-13 19 -34 59l-24 49q-20 39 -45 57t-60 18q-33 0 -64 -9q-32 -9 -56 -24q-25 -15 -39 -34
q-15 -19 -15 -39q0 -27 23 -42q24 -16 75 -29l73 -19q36 -10 64 -21q26 -10 43 -24q17 -13 24 -33q8 -21 8 -46q0 -50 -25 -88q-26 -39 -70 -66q-45 -27 -106 -42q-62 -15 -133 -15q-154 0 -233 64q-80 65 -80 201q0 42 6 81q5 34 14 71h46v-8q-8 -32 -12 -64q-4 -29 -4 -68
q0 -96 70 -141t208 -45q55 0 108 8q50 8 86 21t57 33t21 42q0 23 -19 36q-21 14 -69 26l-74 18q-76 18 -111 47q-34 28 -34 83q0 40 21 77q21 38 56 68q34 30 80 48q45 18 92 18t78 -22q33 -23 56 -70l31 -62q9 -19 18 -33q10 -15 19 -24l77 96q33 42 68 78q32 33 62 53
q31 20 62 29t66 9zM1102 71l-1 -2q82 0 116 19q35 20 35 60q0 32 -12 59t-33 45q-22 19 -50 29q-30 11 -63 11q-58 0 -111 -33q-53 -34 -114 -109l-56 -70l1 -4q15 -5 35 -5h253zM12 237q-14 23 -14 45q0 18 8 36q8 17 21 29q15 13 31 20q19 8 38 8q59 0 59 -61v-22h-35v8
q0 29 -32 29q-23 0 -39 -13t-16 -30q0 -25 32 -49h104v-46h-191v46h34z" />
    <glyph glyph-name="uni06360626" unicode="&#xfebf;&#xfe8a;" horiz-adv-x="1356" 
d="M1119 381l-13 -9q43 0 79 -15q37 -15 62 -42q26 -28 41 -63q15 -36 15 -78q0 -41 -15 -74q-15 -34 -43 -57t-67 -37q-38 -13 -87 -13h-256q-26 0 -47 6t-39 21q-19 16 -35 39q-13 19 -34 59l-24 49q-20 39 -45 57t-60 18q-33 0 -64 -9q-32 -9 -56 -24q-25 -15 -39 -34
q-15 -19 -15 -39q0 -27 23 -42q24 -16 75 -29l73 -19q36 -10 64 -21q26 -10 43 -24q17 -13 24 -33q8 -21 8 -46q0 -50 -25 -88q-26 -39 -70 -66q-45 -27 -106 -42q-62 -15 -133 -15q-154 0 -233 64q-80 65 -80 201q0 42 6 81q5 34 14 71h46v-8q-8 -32 -12 -64q-4 -29 -4 -68
q0 -96 70 -141t208 -45q55 0 108 8q50 8 86 21t57 33t21 42q0 23 -19 36q-21 14 -69 26l-74 18q-76 18 -111 47q-34 28 -34 83q0 40 21 77q21 38 56 68q34 30 80 48q45 18 92 18t78 -22q33 -23 56 -70l31 -62q9 -19 18 -33q10 -15 19 -24l77 96q33 42 68 78q32 33 62 53
q31 20 62 29t66 9zM1102 71l-1 -2q82 0 116 19q35 20 35 60q0 32 -12 59t-33 45q-22 19 -50 29q-30 11 -63 11q-58 0 -111 -33q-53 -34 -114 -109l-56 -70l1 -4q15 -5 35 -5h253zM12 237q-14 23 -14 45q0 18 8 36q8 17 21 29q15 13 31 20q19 8 38 8q59 0 59 -61v-22h-35v8
q0 29 -32 29q-23 0 -39 -13t-16 -30q0 -25 32 -49h104v-46h-191v46h34zM1069 572l52 -51l-52 -51h-8l-53 51l53 51h8z" />
    <glyph glyph-name="uni06350626.fina" unicode="&#xfebc;&#xfe8a;" horiz-adv-x="1421" 
d="M1302 109l-12 -10q25 -14 57 -22q28 -7 62 -7v-64l-17 -16q-34 0 -71 14q-35 13 -70 42q-28 -25 -69 -40q-40 -15 -90 -15h-256q-26 0 -47 6t-39 21q-19 16 -35 39q-13 19 -34 59l-24 49q-19 39 -45 57t-60 18q-32 0 -64 -9t-56 -24q-25 -15 -39 -34q-15 -19 -15 -39
q0 -27 23 -42q24 -16 75 -29l73 -19q36 -10 64 -21q26 -10 43 -24q16 -13 24 -33q8 -21 8 -46q0 -50 -25 -88q-26 -39 -70 -66q-45 -27 -106 -42t-133 -15q-154 0 -233 64q-80 65 -80 201q0 42 6 81q5 34 14 71h46v-8q-8 -32 -12 -64q-4 -29 -4 -68q0 -96 70 -141
q71 -45 208 -45q55 0 108 8q50 8 86 21t57 33t21 42q0 23 -19 36q-21 14 -69 26l-74 18q-39 9 -65 21q-27 12 -45 27t-27 35q-9 19 -9 47q0 40 21 77q21 38 56 68q34 30 80 48q45 18 92 18t78 -22q33 -23 56 -70l31 -62q9 -19 18 -33q10 -15 19 -24l77 96q33 42 68 78
q32 33 62 53q31 20 62 29t66 9q43 0 79 -15q37 -15 62 -42q26 -28 41 -63q15 -36 15 -78q0 -36 -14 -72zM1103 70l-1 -2q82 0 116 19q35 20 35 60q0 32 -12 59t-33 45q-22 19 -50 29q-30 11 -63 11q-59 0 -111 -33q-53 -34 -114 -109l-56 -70l1 -4q15 -5 35 -5h253zM13 236
q-14 23 -14 45q0 18 8 36q8 17 21 29q15 13 31 20q19 8 38 8q59 0 59 -61v-22h-35v8q0 29 -32 29q-23 0 -39 -13t-16 -30q0 -25 32 -49h104v-46h-191v46h34z" />
    <glyph glyph-name="uni06360626.fina" unicode="&#xfec0;&#xfe8a;" horiz-adv-x="1421" 
d="M1302 109l-12 -10q25 -14 57 -22q28 -7 62 -7v-64l-17 -16q-34 0 -71 14q-35 13 -70 42q-28 -25 -69 -40q-40 -15 -90 -15h-256q-26 0 -47 6t-39 21q-19 16 -35 39q-13 19 -34 59l-24 49q-19 39 -45 57t-60 18q-32 0 -64 -9t-56 -24q-25 -15 -39 -34q-15 -19 -15 -39
q0 -27 23 -42q24 -16 75 -29l73 -19q36 -10 64 -21q26 -10 43 -24q16 -13 24 -33q8 -21 8 -46q0 -50 -25 -88q-26 -39 -70 -66q-45 -27 -106 -42t-133 -15q-154 0 -233 64q-80 65 -80 201q0 42 6 81q5 34 14 71h46v-8q-8 -32 -12 -64q-4 -29 -4 -68q0 -96 70 -141
q71 -45 208 -45q55 0 108 8q50 8 86 21t57 33t21 42q0 23 -19 36q-21 14 -69 26l-74 18q-39 9 -65 21q-27 12 -45 27t-27 35q-9 19 -9 47q0 40 21 77q21 38 56 68q34 30 80 48q45 18 92 18t78 -22q33 -23 56 -70l31 -62q9 -19 18 -33q10 -15 19 -24l77 96q33 42 68 78
q32 33 62 53q31 20 62 29t66 9q43 0 79 -15q37 -15 62 -42q26 -28 41 -63q15 -36 15 -78q0 -36 -14 -72zM1103 70l-1 -2q82 0 116 19q35 20 35 60q0 32 -12 59t-33 45q-22 19 -50 29q-30 11 -63 11q-59 0 -111 -33q-53 -34 -114 -109l-56 -70l1 -4q15 -5 35 -5h253zM13 236
q-14 23 -14 45q0 18 8 36q8 17 21 29q15 13 31 20q19 8 38 8q59 0 59 -61v-22h-35v8q0 29 -32 29q-23 0 -39 -13t-16 -30q0 -25 32 -49h104v-46h-191v46h34zM1070 571l52 -51l-52 -51h-8l-53 51l53 51h8z" />
    <glyph glyph-name="uni06430626" unicode="&#xfedb;&#xfe8a;" horiz-adv-x="771" 
d="M380 -235l-4 1q-170 0 -252 69t-82 218q0 45 6 86q5 35 14 72h46v-7q-8 -32 -12 -69q-4 -33 -4 -72q0 -108 71 -159t213 -51q59 0 107 6t81 18t51 30t18 40q0 14 -8 27q-8 12 -28 21q-21 9 -55 15q-41 7 -85 11l-61 6v76l4 4l72 -6q72 -7 109 11q36 18 36 55q0 12 -5 27
q-5 14 -15 29q-11 15 -27 33q-19 21 -42 41l-138 131v79l418 246h7v-73l-361 -210l77 -78q36 -34 66 -68q25 -28 43 -57q16 -27 24 -51q7 -22 7 -49q0 -71 -70 -105v-2q86 -32 86 -108q0 -44 -21 -78q-22 -36 -61 -59t-97 -37q-55 -13 -128 -13zM23 329q-14 23 -14 45
q0 18 8 36q8 17 21 29q15 13 31 20q19 8 38 8q59 0 59 -61v-22h-35v8q0 29 -32 29q-23 0 -39 -13t-16 -30q0 -25 32 -49h104v-46h-191v46h34z" />
    <glyph glyph-name="uni06A9064A" unicode="&#xfb90;&#xfef2;" horiz-adv-x="771" 
d="M380 -235l-4 1q-170 0 -252 69t-82 218q0 45 6 86q5 35 14 72h46v-7q-8 -32 -12 -69q-4 -33 -4 -72q0 -108 71 -159t213 -51q59 0 107 6t81 18t51 30t18 40q0 14 -8 27q-8 12 -28 21q-21 9 -55 15q-41 7 -85 11l-61 6v76l4 4l72 -6q72 -7 109 11q36 18 36 55q0 12 -5 27
q-5 14 -15 29q-11 15 -27 33q-19 21 -42 41l-138 131v79l418 246h7v-73l-361 -210l77 -78q36 -34 66 -68q25 -28 43 -57q16 -27 24 -51q7 -22 7 -49q0 -71 -70 -105v-2q86 -32 86 -108q0 -44 -21 -78q-22 -36 -61 -59t-97 -37q-55 -13 -128 -13zM433 -430h-9l-48 48l-49 -48
h-8l-53 51l53 51h8l49 -48l48 48h9l52 -51z" />
    <glyph glyph-name="uni06AF0649" unicode="&#xfb94;&#xfef0;" horiz-adv-x="771" 
d="M380 -235l-4 1q-170 0 -252 69t-82 218q0 45 6 86q5 35 14 72h46v-7q-8 -32 -12 -69q-4 -33 -4 -72q0 -108 71 -159t213 -51q59 0 107 6t81 18t51 30t18 40q0 14 -8 27q-8 12 -28 21q-21 9 -55 15q-41 7 -85 11l-61 6v76l4 4l72 -6q72 -7 109 11q36 18 36 55q0 12 -5 27
q-5 14 -15 29q-11 15 -27 33q-19 21 -42 41l-138 131v79l418 246h7v-73l-361 -210l77 -78q36 -34 66 -68q25 -28 43 -57q16 -27 24 -51q7 -22 7 -49q0 -71 -70 -105v-2q86 -32 86 -108q0 -44 -21 -78q-22 -36 -61 -59t-97 -37q-55 -13 -128 -13zM389 605l418 246h7v-46
l-418 -245h-7v45z" />
    <glyph glyph-name="uni06AF064A" unicode="&#xfb94;&#xfef2;" horiz-adv-x="771" 
d="M380 -235l-4 1q-170 0 -252 69t-82 218q0 45 6 86q5 35 14 72h46v-7q-8 -32 -12 -69q-4 -33 -4 -72q0 -108 71 -159t213 -51q59 0 107 6t81 18t51 30t18 40q0 14 -8 27q-8 12 -28 21q-21 9 -55 15q-41 7 -85 11l-61 6v76l4 4l72 -6q72 -7 109 11q36 18 36 55q0 12 -5 27
q-5 14 -15 29q-11 15 -27 33q-19 21 -42 41l-138 131v79l418 246h7v-73l-361 -210l77 -78q36 -34 66 -68q25 -28 43 -57q16 -27 24 -51q7 -22 7 -49q0 -71 -70 -105v-2q86 -32 86 -108q0 -44 -21 -78q-22 -36 -61 -59t-97 -37q-55 -13 -128 -13zM433 -430h-9l-48 48l-49 -48
h-8l-53 51l53 51h8l49 -48l48 48h9l52 -51zM389 605l418 246h7v-46l-418 -245h-7v45z" />
    <glyph glyph-name="uni06AF0626" unicode="&#xfb94;&#xfe8a;" horiz-adv-x="771" 
d="M380 -235l-4 1q-170 0 -252 69t-82 218q0 45 6 86q5 35 14 72h46v-7q-8 -32 -12 -69q-4 -33 -4 -72q0 -108 71 -159t213 -51q59 0 107 6t81 18t51 30t18 40q0 14 -8 27q-8 12 -28 21q-21 9 -55 15q-41 7 -85 11l-61 6v76l4 4l72 -6q72 -7 109 11q36 18 36 55q0 12 -5 27
q-5 14 -15 29q-11 15 -27 33q-19 21 -42 41l-138 131v79l418 246h7v-73l-361 -210l77 -78q36 -34 66 -68q25 -28 43 -57q16 -27 24 -51q7 -22 7 -49q0 -71 -70 -105v-2q86 -32 86 -108q0 -44 -21 -78q-22 -36 -61 -59t-97 -37q-55 -13 -128 -13zM23 329q-14 23 -14 45
q0 18 8 36q8 17 21 29q15 13 31 20q19 8 38 8q59 0 59 -61v-22h-35v8q0 29 -32 29q-23 0 -39 -13t-16 -30q0 -25 32 -49h104v-46h-191v46h34zM389 605l418 246h7v-46l-418 -245h-7v45z" />
    <glyph glyph-name="uni06430626.fina" unicode="&#xfedc;&#xfe8a;" horiz-adv-x="980" 
d="M613 466l189 -281q18 -28 38 -51q18 -21 36 -33t38 -18t44 -6h20v-61l-18 -19q-28 0 -55 5q-25 5 -47 18q-24 14 -44 36q-19 20 -46 57q-17 -79 -90 -104q11 -24 11 -48q0 -46 -21 -82q-22 -37 -61 -62q-41 -26 -97 -39q-55 -13 -128 -13q-170 0 -252 69t-82 218
q0 46 6 86q5 35 14 72h46v-7q-8 -31 -12 -69q-4 -33 -4 -72q0 -108 71 -159t213 -51q62 0 107 7q50 8 81 19q33 12 51 30t18 39q0 16 -8 27q-7 10 -27 18q-22 8 -53 14q-47 9 -84 14l-64 9v77l4 4l60 -9q36 -5 59 -9q7 -1 14.5 -2.5t15.5 -2.5t12 -2l32 -4q9 -1 27 -1
q97 0 109 80l-181 268v79l417 246h8v-73zM25 327q-14 23 -14 45q0 18 8 36q8 17 21 29q15 13 31 20q19 8 38 8q59 0 59 -61v-22h-35v8q0 29 -32 29q-23 0 -39 -13t-16 -30q0 -25 32 -49h104v-46h-191v46h34z" />
    <glyph glyph-name="uni06AF0649.fina" unicode="&#xfb95;&#xfef0;" horiz-adv-x="980" 
d="M613 466l189 -281q18 -28 38 -51q18 -21 36 -33t38 -18t44 -6h20v-61l-18 -19q-28 0 -55 5q-25 5 -47 18q-24 14 -44 36q-19 20 -46 57q-17 -79 -90 -104q11 -24 11 -48q0 -46 -21 -82q-22 -37 -61 -62q-41 -26 -97 -39q-55 -13 -128 -13q-170 0 -252 69t-82 218
q0 46 6 86q5 35 14 72h46v-7q-8 -31 -12 -69q-4 -33 -4 -72q0 -108 71 -159t213 -51q62 0 107 7q50 8 81 19q33 12 51 30t18 39q0 16 -8 27q-7 10 -27 18q-22 8 -53 14q-47 9 -84 14l-64 9v77l4 4l60 -9q36 -5 59 -9q7 -1 14.5 -2.5t15.5 -2.5t12 -2l32 -4q9 -1 27 -1
q97 0 109 80l-181 268v79l417 246h8v-73zM553 603l418 246h7v-46l-418 -245h-7v45z" />
    <glyph glyph-name="uni06AF064A.fina" unicode="&#xfb95;&#xfef2;" horiz-adv-x="980" 
d="M613 466l189 -281q18 -28 38 -51q18 -21 36 -33t38 -18t44 -6h20v-61l-18 -19q-28 0 -55 5q-25 5 -47 18q-24 14 -44 36q-19 20 -46 57q-17 -79 -90 -104q11 -24 11 -48q0 -46 -21 -82q-22 -37 -61 -62q-41 -26 -97 -39q-55 -13 -128 -13q-170 0 -252 69t-82 218
q0 46 6 86q5 35 14 72h46v-7q-8 -31 -12 -69q-4 -33 -4 -72q0 -108 71 -159t213 -51q62 0 107 7q50 8 81 19q33 12 51 30t18 39q0 16 -8 27q-7 10 -27 18q-22 8 -53 14q-47 9 -84 14l-64 9v77l4 4l60 -9q36 -5 59 -9q7 -1 14.5 -2.5t15.5 -2.5t12 -2l32 -4q9 -1 27 -1
q97 0 109 80l-181 268v79l417 246h8v-73zM435 -432h-9l-48 48l-49 -48h-8l-53 51l53 51h8l49 -48l48 48h9l52 -51zM553 603l418 246h7v-46l-418 -245h-7v45z" />
    <glyph glyph-name="uni06AF0626.fina" unicode="&#xfb95;&#xfe8a;" horiz-adv-x="980" 
d="M613 466l189 -281q18 -28 38 -51q18 -21 36 -33t38 -18t44 -6h20v-61l-18 -19q-28 0 -55 5q-25 5 -47 18q-24 14 -44 36q-19 20 -46 57q-17 -79 -90 -104q11 -24 11 -48q0 -46 -21 -82q-22 -37 -61 -62q-41 -26 -97 -39q-55 -13 -128 -13q-170 0 -252 69t-82 218
q0 46 6 86q5 35 14 72h46v-7q-8 -31 -12 -69q-4 -33 -4 -72q0 -108 71 -159t213 -51q62 0 107 7q50 8 81 19q33 12 51 30t18 39q0 16 -8 27q-7 10 -27 18q-22 8 -53 14q-47 9 -84 14l-64 9v77l4 4l60 -9q36 -5 59 -9q7 -1 14.5 -2.5t15.5 -2.5t12 -2l32 -4q9 -1 27 -1
q97 0 109 80l-181 268v79l417 246h8v-73zM25 327q-14 23 -14 45q0 18 8 36q8 17 21 29q15 13 31 20q19 8 38 8q59 0 59 -61v-22h-35v8q0 29 -32 29q-23 0 -39 -13t-16 -30q0 -25 32 -49h104v-46h-191v46h34zM553 603l418 246h7v-46l-418 -245h-7v45z" />
    <glyph glyph-name="uni06440626" unicode="&#xfedf;&#xfe8a;" horiz-adv-x="771" 
d="M593 60l-2 -4q53 -16 75 -42q22 -25 22 -62q0 -44 -21 -78q-21 -35 -61 -60q-41 -26 -97 -39q-55 -13 -128 -13q-169 0 -252 69q-82 69 -82 218q0 45 6 86q5 35 14 72h46v-7q-7 -32 -12 -69q-4 -33 -4 -72q0 -108 71 -159q70 -51 213 -51q62 0 107 7q46 7 81 20
q33 12 51 30t18 40q0 14 -8 27q-8 12 -28 21q-21 9 -55 15q-41 7 -85 11l-61 6v76l4 4l72 -6q63 -5 94 22t31 93v529h61v-529q0 -57 -16 -93q-17 -38 -54 -60v-2zM25 324q-14 23 -14 45q0 18 8 36q8 17 21 29q15 13 31 20q19 8 38 8q59 0 59 -61v-22h-35v8q0 29 -32 29
q-23 0 -39 -13t-16 -30q0 -25 32 -49h104v-46h-191v46h34z" />
    <glyph glyph-name="uni06440626.fina" unicode="&#xfee0;&#xfe8a;" horiz-adv-x="909" 
d="M909 18l-16 -23h-1q-104 0 -138 72q-30 -45 -82 -61q17 -20 17 -48q0 -46 -21 -82q-22 -37 -61 -62q-41 -26 -97 -39q-55 -13 -128 -13q-170 0 -252 69t-82 218q0 45 6 86q5 35 14 72h46v-7q-8 -32 -12 -69q-4 -33 -4 -72q0 -108 71 -159t213 -51q62 0 107 7q50 8 81 19
q33 12 51 30t18 39q0 16 -8 27q-7 11 -27 18q-22 8 -53 14q-47 9 -84 14l-64 9v77l4 4l60 -9q33 -6 59 -9q24 -3 42 -6l32 -4q9 -1 27 -1q70 0 113 34q-7 27 -7 69v563h61v-563q0 -53 27 -77t85 -24h3v-62zM28 323q-14 23 -14 45q0 18 8 36q8 17 21 29q15 13 31 20
q19 8 38 8q59 0 59 -61v-22h-35v8q0 29 -32 29q-23 0 -39 -13t-16 -30q0 -25 32 -49h104v-46h-191v46h34z" />
    <glyph glyph-name="uni06280626" unicode="&#xfe91;&#xfe8a;" horiz-adv-x="731" 
d="M380 -144v-1q-170 0 -252 69q-83 69 -83 218q0 44 6 84q5 35 14 72h46v-8q-7 -32 -12 -69q-4 -33 -4 -72q0 -107 71 -158q70 -51 213 -51q62 0 107 7q46 7 81 20q33 12 51 30t18 40q0 14 -8 27q-8 12 -28 21q-21 9 -55 15q-41 7 -85 11l-61 5v76l4 5l72 -6q71 -6 101 19
q30 26 30 79q0 29 -6 72q-7 49 -16 94l3 5h57q8 -47 12 -88q5 -47 5 -74q0 -106 -59 -144v-3q85 -31 85 -107q0 -44 -21 -78q-22 -36 -61 -59q-42 -25 -97 -38t-128 -13zM629 -194l52 -51l-52 -51h-8l-53 51l53 51h8zM27 418q-14 23 -14 45q0 18 8 36q8 17 21 29
q15 13 31 20q19 8 38 8q59 0 59 -61v-22h-35v8q0 29 -32 29q-23 0 -39 -13t-16 -30q0 -25 32 -49h104v-46h-191v46h34z" />
    <glyph glyph-name="uni067E0649" unicode="&#xfb58;&#xfef0;" horiz-adv-x="731" 
d="M380 -144v-1q-170 0 -252 69q-83 69 -83 218q0 44 6 84q5 35 14 72h46v-8q-7 -32 -12 -69q-4 -33 -4 -72q0 -107 71 -158q70 -51 213 -51q62 0 107 7q46 7 81 20q33 12 51 30t18 40q0 14 -8 27q-8 12 -28 21q-21 9 -55 15q-41 7 -85 11l-61 5v76l4 5l72 -6q71 -6 101 19
q30 26 30 79q0 29 -6 72q-7 49 -16 94l3 5h57q8 -47 12 -88q5 -47 5 -74q0 -106 -59 -144v-3q85 -31 85 -107q0 -44 -21 -78q-22 -36 -61 -59q-42 -25 -97 -38t-128 -13zM681 -268h-9l-48 48l-48 -48h-8l-52 51l52 51h8l48 -48l48 48h9l52 -51zM678 -319l-49 -49h-9l-49 49
l49 49h9z" />
    <glyph glyph-name="uni067E064A" unicode="&#xfb58;&#xfef2;" horiz-adv-x="731" 
d="M380 -144v-1q-170 0 -252 69q-83 69 -83 218q0 44 6 84q5 35 14 72h46v-8q-7 -32 -12 -69q-4 -33 -4 -72q0 -107 71 -158q70 -51 213 -51q62 0 107 7q46 7 81 20q33 12 51 30t18 40q0 14 -8 27q-8 12 -28 21q-21 9 -55 15q-41 7 -85 11l-61 5v76l4 5l72 -6q71 -6 101 19
q30 26 30 79q0 29 -6 72q-7 49 -16 94l3 5h57q8 -47 12 -88q5 -47 5 -74q0 -106 -59 -144v-3q85 -31 85 -107q0 -44 -21 -78q-22 -36 -61 -59q-42 -25 -97 -38t-128 -13zM681 -268h-9l-48 48l-48 -48h-8l-52 51l52 51h8l48 -48l48 48h9l52 -51zM678 -319l-49 -49h-9l-49 49
l49 49h9zM445 -341h-9l-48 48l-49 -48h-8l-53 51l53 51h8l49 -48l48 48h9l52 -51z" />
    <glyph glyph-name="uni067E0626" unicode="&#xfb58;&#xfe8a;" horiz-adv-x="731" 
d="M380 -144v-1q-170 0 -252 69q-83 69 -83 218q0 44 6 84q5 35 14 72h46v-8q-7 -32 -12 -69q-4 -33 -4 -72q0 -107 71 -158q70 -51 213 -51q62 0 107 7q46 7 81 20q33 12 51 30t18 40q0 14 -8 27q-8 12 -28 21q-21 9 -55 15q-41 7 -85 11l-61 5v76l4 5l72 -6q71 -6 101 19
q30 26 30 79q0 29 -6 72q-7 49 -16 94l3 5h57q8 -47 12 -88q5 -47 5 -74q0 -106 -59 -144v-3q85 -31 85 -107q0 -44 -21 -78q-22 -36 -61 -59q-42 -25 -97 -38t-128 -13zM681 -268h-9l-48 48l-48 -48h-8l-52 51l52 51h8l48 -48l48 48h9l52 -51zM678 -319l-49 -49h-9l-49 49
l49 49h9zM27 418q-14 23 -14 45q0 18 8 36q8 17 21 29q15 13 31 20q19 8 38 8q59 0 59 -61v-22h-35v8q0 29 -32 29q-23 0 -39 -13t-16 -30q0 -25 32 -49h104v-46h-191v46h34z" />
    <glyph glyph-name="uni062A0626" unicode="&#xfe97;&#xfe8a;" horiz-adv-x="731" 
d="M380 -144v-1q-170 0 -252 69q-83 69 -83 218q0 44 6 84q5 35 14 72h46v-8q-7 -32 -12 -69q-4 -33 -4 -72q0 -107 71 -158q70 -51 213 -51q62 0 107 7q46 7 81 20q33 12 51 30t18 40q0 14 -8 27q-8 12 -28 21q-21 9 -55 15q-41 7 -85 11l-61 5v76l4 5l72 -6q71 -6 101 19
q30 26 30 79q0 29 -6 72q-7 49 -16 94l3 5h57q8 -47 12 -88q5 -47 5 -74q0 -106 -59 -144v-3q85 -31 85 -107q0 -44 -21 -78q-22 -36 -61 -59q-42 -25 -97 -38t-128 -13zM663 562h-9l-48 48l-49 -48h-8l-53 51l53 51h8l49 -48l48 48h9l52 -51zM27 418q-14 23 -14 45
q0 18 8 36q8 17 21 29q15 13 31 20q19 8 38 8q59 0 59 -61v-22h-35v8q0 29 -32 29q-23 0 -39 -13t-16 -30q0 -25 32 -49h104v-46h-191v46h34z" />
    <glyph glyph-name="uni062B0626" unicode="&#xfe9b;&#xfe8a;" horiz-adv-x="731" 
d="M380 -144v-1q-170 0 -252 69q-83 69 -83 218q0 44 6 84q5 35 14 72h46v-8q-7 -32 -12 -69q-4 -33 -4 -72q0 -107 71 -158q70 -51 213 -51q62 0 107 7q46 7 81 20q33 12 51 30t18 40q0 14 -8 27q-8 12 -28 21q-21 9 -55 15q-41 7 -85 11l-61 5v76l4 5l72 -6q71 -6 101 19
q30 26 30 79q0 29 -6 72q-7 49 -16 94l3 5h57q8 -47 12 -88q5 -47 5 -74q0 -106 -59 -144v-3q85 -31 85 -107q0 -44 -21 -78q-22 -36 -61 -59q-42 -25 -97 -38t-128 -13zM552 717l49 49h9l50 -49l-50 -49h-9zM663 562h-9l-48 48l-49 -48h-8l-53 51l53 51h8l49 -48l48 48h9
l52 -51zM27 418q-14 23 -14 45q0 18 8 36q8 17 21 29q15 13 31 20q19 8 38 8q59 0 59 -61v-22h-35v8q0 29 -32 29q-23 0 -39 -13t-16 -30q0 -25 32 -49h104v-46h-191v46h34z" />
    <glyph glyph-name="uni06460626" unicode="&#xfee7;&#xfe8a;" horiz-adv-x="731" 
d="M380 -144v-1q-170 0 -252 69q-83 69 -83 218q0 44 6 84q5 35 14 72h46v-8q-7 -32 -12 -69q-4 -33 -4 -72q0 -107 71 -158q70 -51 213 -51q62 0 107 7q46 7 81 20q33 12 51 30t18 40q0 14 -8 27q-8 12 -28 21q-21 9 -55 15q-41 7 -85 11l-61 5v76l4 5l72 -6q71 -6 101 19
q30 26 30 79q0 29 -6 72q-7 49 -16 94l3 5h57q8 -47 12 -88q5 -47 5 -74q0 -106 -59 -144v-3q85 -31 85 -107q0 -44 -21 -78q-22 -36 -61 -59q-42 -25 -97 -38t-128 -13zM610 664l52 -51l-52 -51h-8l-53 51l53 51h8zM27 418q-14 23 -14 45q0 18 8 36q8 17 21 29q15 13 31 20
q19 8 38 8q59 0 59 -61v-22h-35v8q0 29 -32 29q-23 0 -39 -13t-16 -30q0 -25 32 -49h104v-46h-191v46h34z" />
    <glyph glyph-name="uni064A0626" unicode="&#xfef3;&#xfe8a;" horiz-adv-x="731" 
d="M380 -144v-1q-170 0 -252 69q-83 69 -83 218q0 44 6 84q5 35 14 72h46v-8q-7 -32 -12 -69q-4 -33 -4 -72q0 -107 71 -158q70 -51 213 -51q62 0 107 7q46 7 81 20q33 12 51 30t18 40q0 14 -8 27q-8 12 -28 21q-21 9 -55 15q-41 7 -85 11l-61 5v76l4 5l72 -6q71 -6 101 19
q30 26 30 79q0 29 -6 72q-7 49 -16 94l3 5h57q8 -47 12 -88q5 -47 5 -74q0 -106 -59 -144v-3q85 -31 85 -107q0 -44 -21 -78q-22 -36 -61 -59q-42 -25 -97 -38t-128 -13zM27 418q-14 23 -14 45q0 18 8 36q8 17 21 29q15 13 31 20q19 8 38 8q59 0 59 -61v-22h-35v8
q0 29 -32 29q-23 0 -39 -13t-16 -30q0 -25 32 -49h104v-46h-191v46h34zM682 -296h-9l-48 48l-49 -48h-8l-53 51l53 51h8l49 -48l48 48h9l52 -51z" />
    <glyph glyph-name="uni06260626" unicode="&#xfe8b;&#xfe8a;" horiz-adv-x="731" 
d="M380 -144v-1q-170 0 -252 69q-83 69 -83 218q0 44 6 84q5 35 14 72h46v-8q-7 -32 -12 -69q-4 -33 -4 -72q0 -107 71 -158q70 -51 213 -51q62 0 107 7q46 7 81 20q33 12 51 30t18 40q0 14 -8 27q-8 12 -28 21q-21 9 -55 15q-41 7 -85 11l-61 5v76l4 5l72 -6q71 -6 101 19
q30 26 30 79q0 29 -6 72q-7 49 -16 94l3 5h57q8 -47 12 -88q5 -47 5 -74q0 -106 -59 -144v-3q85 -31 85 -107q0 -44 -21 -78q-22 -36 -61 -59q-42 -25 -97 -38t-128 -13zM544 579q-14 23 -14 45q0 18 8 36q8 17 21 29q15 13 31 20q19 8 38 8q59 0 59 -61v-22h-35v8
q0 29 -32 29q-23 0 -39 -13t-16 -30q0 -25 32 -49h104v-46h-191v46h34zM445 -341h-9l-48 48l-49 -48h-8l-53 51l53 51h8l49 -48l48 48h9l52 -51z" />
    <glyph glyph-name="uni06CC06CC" unicode="&#xfbfe;&#xfbfd;" horiz-adv-x="731" 
d="M380 -144v-1q-170 0 -252 69q-83 69 -83 218q0 44 6 84q5 35 14 72h46v-8q-7 -32 -12 -69q-4 -33 -4 -72q0 -107 71 -158q70 -51 213 -51q62 0 107 7q46 7 81 20q33 12 51 30t18 40q0 14 -8 27q-8 12 -28 21q-21 9 -55 15q-41 7 -85 11l-61 5v76l4 5l72 -6q71 -6 101 19
q30 26 30 79q0 29 -6 72q-7 49 -16 94l3 5h57q8 -47 12 -88q5 -47 5 -74q0 -106 -59 -144v-3q85 -31 85 -107q0 -44 -21 -78q-22 -36 -61 -59q-42 -25 -97 -38t-128 -13zM682 -296h-9l-48 48l-49 -48h-8l-53 51l53 51h8l49 -48l48 48h9l52 -51z" />
    <glyph glyph-name="uni06280626.fina" unicode="&#xfe92;&#xfe8a;" horiz-adv-x="873" 
d="M691 -271l52 -51l-52 -51h-8l-53 51l53 51h8zM26 248q-14 23 -14 45q0 18 8 36q8 17 21 29q15 13 31 20q19 8 38 8q59 0 59 -61v-22h-35v8q0 29 -32 29q-23 0 -39 -13t-16 -30q0 -25 32 -49h104v-46h-191v46h34zM358 -285l-11 -7q-154 0 -233 64q-80 65 -80 201
q0 42 6 81q5 34 14 71h46v-8q-8 -32 -12 -64q-4 -29 -4 -68q0 -96 70 -141t208 -45q55 0 108 8q50 8 86 21q36 14 57 33t21 42t-19 36q-21 14 -69 26l-74 18q-39 9 -65 21q-27 12 -45 27t-27 35t-9 47q0 39 21 77t56 68q34 30 80 48q45 18 92 18t78 -22q33 -23 56 -70
l31 -62q11 -24 26 -46q11 -16 26 -28q14 -11 28 -15q13 -4 35 -4h11v-62l-18 -18h-8q-26 0 -47 6t-39 21q-19 16 -35 39q-13 19 -34 59l-24 49q-19 39 -45 57t-60 18q-32 0 -64 -9t-56 -24q-25 -15 -39 -34q-15 -19 -15 -39q0 -27 23 -42q24 -16 75 -29l73 -19
q36 -10 64 -21q26 -10 43 -24q16 -13 24 -33q8 -21 8 -46q0 -50 -25 -88q-26 -39 -70 -66q-45 -27 -106 -42t-133 -15z" />
    <glyph glyph-name="uni067E0649.fina" unicode="&#xfb59;&#xfef0;" horiz-adv-x="873" 
d="M743 -345h-9l-48 48l-48 -48h-8l-52 51l52 51h8l48 -48l48 48h9l52 -51zM740 -396l-49 -49h-9l-49 49l49 49h9zM358 -285l-11 -7q-154 0 -233 64q-80 65 -80 201q0 42 6 81q5 34 14 71h46v-8q-8 -32 -12 -64q-4 -29 -4 -68q0 -96 70 -141t208 -45q55 0 108 8q50 8 86 21
q36 14 57 33t21 42t-19 36q-21 14 -69 26l-74 18q-39 9 -65 21q-27 12 -45 27t-27 35t-9 47q0 39 21 77t56 68q34 30 80 48q45 18 92 18t78 -22q33 -23 56 -70l31 -62q11 -24 26 -46q11 -16 26 -28q14 -11 28 -15q13 -4 35 -4h11v-62l-18 -18h-8q-26 0 -47 6t-39 21
q-19 16 -35 39q-13 19 -34 59l-24 49q-19 39 -45 57t-60 18q-32 0 -64 -9t-56 -24q-25 -15 -39 -34q-15 -19 -15 -39q0 -27 23 -42q24 -16 75 -29l73 -19q36 -10 64 -21q26 -10 43 -24q16 -13 24 -33q8 -21 8 -46q0 -50 -25 -88q-26 -39 -70 -66q-45 -27 -106 -42t-133 -15z
" />
    <glyph glyph-name="uni067E064A.fina" unicode="&#xfb59;&#xfef2;" horiz-adv-x="873" 
d="M743 -345h-9l-48 48l-48 -48h-8l-52 51l52 51h8l48 -48l48 48h9l52 -51zM740 -396l-49 -49h-9l-49 49l49 49h9zM415 -481h-9l-48 48l-49 -48h-8l-53 51l53 51h8l49 -48l48 48h9l52 -51zM358 -285l-11 -7q-154 0 -233 64q-80 65 -80 201q0 42 6 81q5 34 14 71h46v-8
q-8 -32 -12 -64q-4 -29 -4 -68q0 -96 70 -141t208 -45q55 0 108 8q50 8 86 21q36 14 57 33t21 42t-19 36q-21 14 -69 26l-74 18q-39 9 -65 21q-27 12 -45 27t-27 35t-9 47q0 39 21 77t56 68q34 30 80 48q45 18 92 18t78 -22q33 -23 56 -70l31 -62q11 -24 26 -46
q11 -16 26 -28q14 -11 28 -15q13 -4 35 -4h11v-62l-18 -18h-8q-26 0 -47 6t-39 21q-19 16 -35 39q-13 19 -34 59l-24 49q-19 39 -45 57t-60 18q-32 0 -64 -9t-56 -24q-25 -15 -39 -34q-15 -19 -15 -39q0 -27 23 -42q24 -16 75 -29l73 -19q36 -10 64 -21q26 -10 43 -24
q16 -13 24 -33q8 -21 8 -46q0 -50 -25 -88q-26 -39 -70 -66q-45 -27 -106 -42t-133 -15z" />
    <glyph glyph-name="uni067E0626.fina" unicode="&#xfb59;&#xfe8a;" horiz-adv-x="873" 
d="M743 -345h-9l-48 48l-48 -48h-8l-52 51l52 51h8l48 -48l48 48h9l52 -51zM740 -396l-49 -49h-9l-49 49l49 49h9zM26 248q-14 23 -14 45q0 18 8 36q8 17 21 29q15 13 31 20q19 8 38 8q59 0 59 -61v-22h-35v8q0 29 -32 29q-23 0 -39 -13t-16 -30q0 -25 32 -49h104v-46h-191
v46h34zM358 -285l-11 -7q-154 0 -233 64q-80 65 -80 201q0 42 6 81q5 34 14 71h46v-8q-8 -32 -12 -64q-4 -29 -4 -68q0 -96 70 -141t208 -45q55 0 108 8q50 8 86 21q36 14 57 33t21 42t-19 36q-21 14 -69 26l-74 18q-39 9 -65 21q-27 12 -45 27t-27 35t-9 47q0 39 21 77
t56 68q34 30 80 48q45 18 92 18t78 -22q33 -23 56 -70l31 -62q11 -24 26 -46q11 -16 26 -28q14 -11 28 -15q13 -4 35 -4h11v-62l-18 -18h-8q-26 0 -47 6t-39 21q-19 16 -35 39q-13 19 -34 59l-24 49q-19 39 -45 57t-60 18q-32 0 -64 -9t-56 -24q-25 -15 -39 -34
q-15 -19 -15 -39q0 -27 23 -42q24 -16 75 -29l73 -19q36 -10 64 -21q26 -10 43 -24q16 -13 24 -33q8 -21 8 -46q0 -50 -25 -88q-26 -39 -70 -66q-45 -27 -106 -42t-133 -15z" />
    <glyph glyph-name="uni062A0626.fina" unicode="&#xfe98;&#xfe8a;" horiz-adv-x="873" 
d="M640 429h-9l-48 48l-49 -48h-8l-53 51l53 51h8l49 -48l48 48h9l52 -51zM26 248q-14 23 -14 45q0 18 8 36q8 17 21 29q15 13 31 20q19 8 38 8q59 0 59 -61v-22h-35v8q0 29 -32 29q-23 0 -39 -13t-16 -30q0 -25 32 -49h104v-46h-191v46h34zM358 -285l-11 -7q-154 0 -233 64
q-80 65 -80 201q0 42 6 81q5 34 14 71h46v-8q-8 -32 -12 -64q-4 -29 -4 -68q0 -96 70 -141t208 -45q55 0 108 8q50 8 86 21q36 14 57 33t21 42t-19 36q-21 14 -69 26l-74 18q-39 9 -65 21q-27 12 -45 27t-27 35t-9 47q0 39 21 77t56 68q34 30 80 48q45 18 92 18t78 -22
q33 -23 56 -70l31 -62q11 -24 26 -46q11 -16 26 -28q14 -11 28 -15q13 -4 35 -4h11v-62l-18 -18h-8q-26 0 -47 6t-39 21q-19 16 -35 39q-13 19 -34 59l-24 49q-19 39 -45 57t-60 18q-32 0 -64 -9t-56 -24q-25 -15 -39 -34q-15 -19 -15 -39q0 -27 23 -42q24 -16 75 -29
l73 -19q36 -10 64 -21q26 -10 43 -24q16 -13 24 -33q8 -21 8 -46q0 -50 -25 -88q-26 -39 -70 -66q-45 -27 -106 -42t-133 -15z" />
    <glyph glyph-name="uni062B0626.fina" unicode="&#xfe9c;&#xfe8a;" horiz-adv-x="873" 
d="M529 584l49 49h9l50 -49l-50 -49h-9zM640 429h-9l-48 48l-49 -48h-8l-53 51l53 51h8l49 -48l48 48h9l52 -51zM26 248q-14 23 -14 45q0 18 8 36q8 17 21 29q15 13 31 20q19 8 38 8q59 0 59 -61v-22h-35v8q0 29 -32 29q-23 0 -39 -13t-16 -30q0 -25 32 -49h104v-46h-191v46
h34zM358 -285l-11 -7q-154 0 -233 64q-80 65 -80 201q0 42 6 81q5 34 14 71h46v-8q-8 -32 -12 -64q-4 -29 -4 -68q0 -96 70 -141t208 -45q55 0 108 8q50 8 86 21q36 14 57 33t21 42t-19 36q-21 14 -69 26l-74 18q-39 9 -65 21q-27 12 -45 27t-27 35t-9 47q0 39 21 77t56 68
q34 30 80 48q45 18 92 18t78 -22q33 -23 56 -70l31 -62q11 -24 26 -46q11 -16 26 -28q14 -11 28 -15q13 -4 35 -4h11v-62l-18 -18h-8q-26 0 -47 6t-39 21q-19 16 -35 39q-13 19 -34 59l-24 49q-19 39 -45 57t-60 18q-32 0 -64 -9t-56 -24q-25 -15 -39 -34q-15 -19 -15 -39
q0 -27 23 -42q24 -16 75 -29l73 -19q36 -10 64 -21q26 -10 43 -24q16 -13 24 -33q8 -21 8 -46q0 -50 -25 -88q-26 -39 -70 -66q-45 -27 -106 -42t-133 -15z" />
    <glyph glyph-name="uni06460626.fina" unicode="&#xfee8;&#xfe8a;" horiz-adv-x="873" 
d="M26 248q-14 23 -14 45q0 18 8 36q8 17 21 29q15 13 31 20q19 8 38 8q59 0 59 -61v-22h-35v8q0 29 -32 29q-23 0 -39 -13t-16 -30q0 -25 32 -49h104v-46h-191v46h34zM587 531l52 -51l-52 -51h-8l-53 51l53 51h8zM358 -285l-11 -7q-154 0 -233 64q-80 65 -80 201q0 42 6 81
q5 34 14 71h46v-8q-8 -32 -12 -64q-4 -29 -4 -68q0 -96 70 -141t208 -45q55 0 108 8q50 8 86 21q36 14 57 33t21 42t-19 36q-21 14 -69 26l-74 18q-39 9 -65 21q-27 12 -45 27t-27 35t-9 47q0 39 21 77t56 68q34 30 80 48q45 18 92 18t78 -22q33 -23 56 -70l31 -62
q11 -24 26 -46q11 -16 26 -28q14 -11 28 -15q13 -4 35 -4h11v-62l-18 -18h-8q-26 0 -47 6t-39 21q-19 16 -35 39q-13 19 -34 59l-24 49q-19 39 -45 57t-60 18q-32 0 -64 -9t-56 -24q-25 -15 -39 -34q-15 -19 -15 -39q0 -27 23 -42q24 -16 75 -29l73 -19q36 -10 64 -21
q26 -10 43 -24q16 -13 24 -33q8 -21 8 -46q0 -50 -25 -88q-26 -39 -70 -66q-45 -27 -106 -42t-133 -15z" />
    <glyph glyph-name="uni064A0626.fina" unicode="&#xfef4;&#xfe8a;" horiz-adv-x="873" 
d="M26 248q-14 23 -14 45q0 18 8 36q8 17 21 29q15 13 31 20q19 8 38 8q59 0 59 -61v-22h-35v8q0 29 -32 29q-23 0 -39 -13t-16 -30q0 -25 32 -49h104v-46h-191v46h34zM744 -373h-9l-48 48l-49 -48h-8l-53 51l53 51h8l49 -48l48 48h9l52 -51zM358 -285l-11 -7
q-154 0 -233 64q-80 65 -80 201q0 42 6 81q5 34 14 71h46v-8q-8 -32 -12 -64q-4 -29 -4 -68q0 -96 70 -141t208 -45q55 0 108 8q50 8 86 21q36 14 57 33t21 42t-19 36q-21 14 -69 26l-74 18q-39 9 -65 21q-27 12 -45 27t-27 35t-9 47q0 39 21 77t56 68q34 30 80 48
q45 18 92 18t78 -22q33 -23 56 -70l31 -62q11 -24 26 -46q11 -16 26 -28q14 -11 28 -15q13 -4 35 -4h11v-62l-18 -18h-8q-26 0 -47 6t-39 21q-19 16 -35 39q-13 19 -34 59l-24 49q-19 39 -45 57t-60 18q-32 0 -64 -9t-56 -24q-25 -15 -39 -34q-15 -19 -15 -39q0 -27 23 -42
q24 -16 75 -29l73 -19q36 -10 64 -21q26 -10 43 -24q16 -13 24 -33q8 -21 8 -46q0 -50 -25 -88q-26 -39 -70 -66q-45 -27 -106 -42t-133 -15z" />
    <glyph glyph-name="uni06260626.fina" unicode="&#xfe8c;&#xfe8a;" horiz-adv-x="873" 
d="M-90 248q-14 23 -14 45q0 18 8 36q8 17 21 29q15 13 31 20q19 8 38 8q59 0 59 -61v-22h-35v8q0 29 -32 29q-23 0 -39 -13t-16 -30q0 -25 32 -49h104v-46h-191v46h34zM405 446q-14 23 -14 45q0 18 8 36q8 17 21 29q15 13 31 20q19 8 38 8q59 0 59 -61v-22h-35v8
q0 29 -32 29q-23 0 -39 -13t-16 -30q0 -25 32 -49h104v-46h-191v46h34zM358 -285l-11 -7q-154 0 -233 64q-80 65 -80 201q0 42 6 81q5 34 14 71h46v-8q-8 -32 -12 -64q-4 -29 -4 -68q0 -96 70 -141t208 -45q55 0 108 8q50 8 86 21q36 14 57 33t21 42t-19 36q-21 14 -69 26
l-74 18q-39 9 -65 21q-27 12 -45 27t-27 35t-9 47q0 39 21 77t56 68q34 30 80 48q45 18 92 18t78 -22q33 -23 56 -70l31 -62q11 -24 26 -46q11 -16 26 -28q14 -11 28 -15q13 -4 35 -4h11v-62l-18 -18h-8q-26 0 -47 6t-39 21q-19 16 -35 39q-13 19 -34 59l-24 49
q-19 39 -45 57t-60 18q-32 0 -64 -9t-56 -24q-25 -15 -39 -34q-15 -19 -15 -39q0 -27 23 -42q24 -16 75 -29l73 -19q36 -10 64 -21q26 -10 43 -24q16 -13 24 -33q8 -21 8 -46q0 -50 -25 -88q-26 -39 -70 -66q-45 -27 -106 -42t-133 -15z" />
    <glyph glyph-name="uni06CC06CC.fina" unicode="&#xfbff;&#xfbfd;" horiz-adv-x="873" 
d="M744 -373h-9l-48 48l-49 -48h-8l-53 51l53 51h8l49 -48l48 48h9l52 -51zM358 -285l-11 -7q-154 0 -233 64q-80 65 -80 201q0 42 6 81q5 34 14 71h46v-8q-8 -32 -12 -64q-4 -29 -4 -68q0 -96 70 -141t208 -45q55 0 108 8q50 8 86 21q36 14 57 33t21 42t-19 36
q-21 14 -69 26l-74 18q-39 9 -65 21q-27 12 -45 27t-27 35t-9 47q0 39 21 77t56 68q34 30 80 48q45 18 92 18t78 -22q33 -23 56 -70l31 -62q11 -24 26 -46q11 -16 26 -28q14 -11 28 -15q13 -4 35 -4h11v-62l-18 -18h-8q-26 0 -47 6t-39 21q-19 16 -35 39q-13 19 -34 59
l-24 49q-19 39 -45 57t-60 18q-32 0 -64 -9t-56 -24q-25 -15 -39 -34q-15 -19 -15 -39q0 -27 23 -42q24 -16 75 -29l73 -19q36 -10 64 -21q26 -10 43 -24q16 -13 24 -33q8 -21 8 -46q0 -50 -25 -88q-26 -39 -70 -66q-45 -27 -106 -42t-133 -15z" />
    <glyph glyph-name="uni06410626" unicode="&#xfed3;&#xfe8a;" horiz-adv-x="737" 
d="M598 66l2 -3q91 -31 91 -109q0 -40 -21 -75q-21 -34 -61 -58q-39 -23 -97 -37q-55 -13 -128 -13q-170 0 -252 69q-83 69 -83 218q0 44 6 84q5 35 14 72h46v-8q-7 -32 -12 -69q-4 -33 -4 -72q0 -107 71 -158q70 -51 213 -51q62 0 107 7q46 7 81 20q33 12 51 30t18 40
q0 30 -42 48q-44 19 -142 26l-53 4v76l4 5l79 -7q37 -3 66 2q27 5 45 18t27 36q10 24 11 57l-3 3q-27 -17 -60 -24q-31 -7 -70 -7q-73 0 -116 38q-42 38 -42 110q0 40 14 80t36 71t54 51q31 19 66 19q40 0 71 -22t54 -62q23 -41 35 -94q12 -55 12 -120q0 -79 -21 -126
t-67 -66v-3zM515 265h-1q28 0 61 5q30 4 60 15q-5 43 -16 75q-12 34 -30 60q-19 27 -40 41q-23 15 -48 15q-23 0 -43 -12t-33 -31t-21 -42q-8 -24 -8 -44q0 -43 31 -62q32 -20 88 -20zM28 333q-14 23 -14 45q0 18 8 36q8 17 21 29q15 13 31 20q19 8 38 8q59 0 59 -61v-22
h-35v8q0 29 -32 29q-23 0 -39 -13t-16 -30q0 -25 32 -49h104v-46h-191v46h34zM508 760l52 -51l-52 -51h-8l-53 51l53 51h8z" />
    <glyph glyph-name="uni06A40649" unicode="&#xfb6c;&#xfef0;" horiz-adv-x="737" 
d="M598 66l2 -3q91 -31 91 -109q0 -40 -21 -75q-21 -34 -61 -58q-39 -23 -97 -37q-55 -13 -128 -13q-170 0 -252 69q-83 69 -83 218q0 44 6 84q5 35 14 72h46v-8q-7 -32 -12 -69q-4 -33 -4 -72q0 -107 71 -158q70 -51 213 -51q62 0 107 7q46 7 81 20q33 12 51 30t18 40
q0 30 -42 48q-44 19 -142 26l-53 4v76l4 5l79 -7q37 -3 66 2q27 5 45 18t27 36q10 24 11 57l-3 3q-27 -17 -60 -24q-31 -7 -70 -7q-73 0 -116 38q-42 38 -42 110q0 40 14 80t36 71t54 51q31 19 66 19q40 0 71 -22t54 -62q23 -41 35 -94q12 -55 12 -120q0 -79 -21 -126
t-67 -66v-3zM515 265h-1q28 0 61 5q30 4 60 15q-5 43 -16 75q-12 34 -30 60q-19 27 -40 41q-23 15 -48 15q-23 0 -43 -12t-33 -31t-21 -42q-8 -24 -8 -44q0 -43 31 -62q32 -20 88 -20zM450 813l49 49h9l50 -49l-50 -49h-9zM561 658h-9l-48 48l-49 -48h-8l-53 51l53 51h8
l49 -48l48 48h9l52 -51z" />
    <glyph glyph-name="uni06A4064A" unicode="&#xfb6c;&#xfef2;" horiz-adv-x="737" 
d="M598 66l2 -3q91 -31 91 -109q0 -40 -21 -75q-21 -34 -61 -58q-39 -23 -97 -37q-55 -13 -128 -13q-170 0 -252 69q-83 69 -83 218q0 44 6 84q5 35 14 72h46v-8q-7 -32 -12 -69q-4 -33 -4 -72q0 -107 71 -158q70 -51 213 -51q62 0 107 7q46 7 81 20q33 12 51 30t18 40
q0 30 -42 48q-44 19 -142 26l-53 4v76l4 5l79 -7q37 -3 66 2q27 5 45 18t27 36q10 24 11 57l-3 3q-27 -17 -60 -24q-31 -7 -70 -7q-73 0 -116 38q-42 38 -42 110q0 40 14 80t36 71t54 51q31 19 66 19q40 0 71 -22t54 -62q23 -41 35 -94q12 -55 12 -120q0 -79 -21 -126
t-67 -66v-3zM515 265h-1q28 0 61 5q30 4 60 15q-5 43 -16 75q-12 34 -30 60q-19 27 -40 41q-23 15 -48 15q-23 0 -43 -12t-33 -31t-21 -42q-8 -24 -8 -44q0 -43 31 -62q32 -20 88 -20zM446 -426h-9l-48 48l-49 -48h-8l-53 51l53 51h8l49 -48l48 48h9l52 -51zM450 813l49 49
h9l50 -49l-50 -49h-9zM561 658h-9l-48 48l-49 -48h-8l-53 51l53 51h8l49 -48l48 48h9l52 -51z" />
    <glyph glyph-name="uni06A40626" unicode="&#xfb6c;&#xfe8a;" horiz-adv-x="737" 
d="M598 66l2 -3q91 -31 91 -109q0 -40 -21 -75q-21 -34 -61 -58q-39 -23 -97 -37q-55 -13 -128 -13q-170 0 -252 69q-83 69 -83 218q0 44 6 84q5 35 14 72h46v-8q-7 -32 -12 -69q-4 -33 -4 -72q0 -107 71 -158q70 -51 213 -51q62 0 107 7q46 7 81 20q33 12 51 30t18 40
q0 30 -42 48q-44 19 -142 26l-53 4v76l4 5l79 -7q37 -3 66 2q27 5 45 18t27 36q10 24 11 57l-3 3q-27 -17 -60 -24q-31 -7 -70 -7q-73 0 -116 38q-42 38 -42 110q0 40 14 80t36 71t54 51q31 19 66 19q40 0 71 -22t54 -62q23 -41 35 -94q12 -55 12 -120q0 -79 -21 -126
t-67 -66v-3zM515 265h-1q28 0 61 5q30 4 60 15q-5 43 -16 75q-12 34 -30 60q-19 27 -40 41q-23 15 -48 15q-23 0 -43 -12t-33 -31t-21 -42q-8 -24 -8 -44q0 -43 31 -62q32 -20 88 -20zM28 333q-14 23 -14 45q0 18 8 36q8 17 21 29q15 13 31 20q19 8 38 8q59 0 59 -61v-22
h-35v8q0 29 -32 29q-23 0 -39 -13t-16 -30q0 -25 32 -49h104v-46h-191v46h34zM450 813l49 49h9l50 -49l-50 -49h-9zM561 658h-9l-48 48l-49 -48h-8l-53 51l53 51h8l49 -48l48 48h9l52 -51z" />
    <glyph glyph-name="uni06420626" unicode="&#xfed7;&#xfe8a;" horiz-adv-x="737" 
d="M598 66l2 -3q91 -31 91 -109q0 -40 -21 -75q-21 -34 -61 -58q-39 -23 -97 -37q-55 -13 -128 -13q-170 0 -252 69q-83 69 -83 218q0 44 6 84q5 35 14 72h46v-8q-7 -32 -12 -69q-4 -33 -4 -72q0 -107 71 -158q70 -51 213 -51q62 0 107 7q46 7 81 20q33 12 51 30t18 40
q0 30 -42 48q-44 19 -142 26l-53 4v76l4 5l79 -7q37 -3 66 2q27 5 45 18t27 36q10 24 11 57l-3 3q-27 -17 -60 -24q-31 -7 -70 -7q-73 0 -116 38q-42 38 -42 110q0 40 14 80t36 71t54 51q31 19 66 19q40 0 71 -22t54 -62q23 -41 35 -94q12 -55 12 -120q0 -79 -21 -126
t-67 -66v-3zM515 265h-1q28 0 61 5q30 4 60 15q-5 43 -16 75q-12 34 -30 60q-19 27 -40 41q-23 15 -48 15q-23 0 -43 -12t-33 -31t-21 -42q-8 -24 -8 -44q0 -43 31 -62q32 -20 88 -20zM561 658h-9l-48 48l-49 -48h-8l-53 51l53 51h8l49 -48l48 48h9l52 -51zM28 333
q-14 23 -14 45q0 18 8 36q8 17 21 29q15 13 31 20q19 8 38 8q59 0 59 -61v-22h-35v8q0 29 -32 29q-23 0 -39 -13t-16 -30q0 -25 32 -49h104v-46h-191v46h34z" />
    <glyph glyph-name="uni06490631.fina" unicode="&#x649;&#xfeae;" horiz-adv-x="577" 
d="M39 -255l-2 -5q-37 0 -72 15q-33 14 -66 41v44l7 5q29 -12 57 -19q25 -6 51 -6q38 0 71 18q32 18 57 50t38 77q14 47 14 98q0 46 -12 104q-12 60 -33 122l3 5h58l15 -59l183 29v60h51v-146q0 -56 27 -79q26 -22 84 -22h4v-62l-18 -18h-1q-71 0 -109 39q-37 38 -37 123v25
l-170 -26q4 -22 6 -44q2 -28 2 -41q0 -74 -16 -132q-17 -61 -45 -104q-29 -44 -66 -68q-38 -24 -81 -24z" />
    <glyph glyph-name="uni06490632.fina" unicode="&#x649;&#xfeb0;" horiz-adv-x="577" 
d="M39 -255l-2 -5q-37 0 -72 15q-33 14 -66 41v44l7 5q29 -12 57 -19q25 -6 51 -6q38 0 71 18q32 18 57 50t38 77q14 47 14 98q0 46 -12 104q-12 60 -33 122l3 5h58l15 -59l183 29v60h51v-146q0 -56 27 -79q26 -22 84 -22h4v-62l-18 -18h-1q-71 0 -109 39q-37 38 -37 123v25
l-170 -26q4 -22 6 -44q2 -28 2 -41q0 -74 -16 -132q-17 -61 -45 -104q-29 -44 -66 -68q-38 -24 -81 -24zM165 496l52 -51l-52 -51h-8l-53 51l53 51h8z" />
    <glyph glyph-name="uni067E0631.fina" unicode="&#xfb59;&#xfeae;" horiz-adv-x="577" 
d="M39 -255l-2 -5q-37 0 -72 15q-33 14 -66 41v44l7 5q29 -12 57 -19q25 -6 51 -6q38 0 71 18q32 18 57 50t38 77q14 47 14 98q0 46 -12 104q-12 60 -33 122l3 5h58l15 -59l183 29v60h51v-146q0 -56 27 -79q26 -22 84 -22h4v-62l-18 -18h-1q-71 0 -109 39q-37 38 -37 123v25
l-170 -26q4 -22 6 -44q2 -28 2 -41q0 -74 -16 -132q-17 -61 -45 -104q-29 -44 -66 -68q-38 -24 -81 -24zM495 -173h-9l-48 48l-48 -48h-8l-52 51l52 51h8l48 -48l48 48h9l52 -51zM492 -224l-49 -49h-9l-49 49l49 49h9z" />
    <glyph glyph-name="uni067E0632.fina" unicode="&#xfb59;&#xfeb0;" horiz-adv-x="577" 
d="M39 -255l-2 -5q-37 0 -72 15q-33 14 -66 41v44l7 5q29 -12 57 -19q25 -6 51 -6q38 0 71 18q32 18 57 50t38 77q14 47 14 98q0 46 -12 104q-12 60 -33 122l3 5h58l15 -59l183 29v60h51v-146q0 -56 27 -79q26 -22 84 -22h4v-62l-18 -18h-1q-71 0 -109 39q-37 38 -37 123v25
l-170 -26q4 -22 6 -44q2 -28 2 -41q0 -74 -16 -132q-17 -61 -45 -104q-29 -44 -66 -68q-38 -24 -81 -24zM495 -173h-9l-48 48l-48 -48h-8l-52 51l52 51h8l48 -48l48 48h9l52 -51zM492 -224l-49 -49h-9l-49 49l49 49h9zM165 496l52 -51l-52 -51h-8l-53 51l53 51h8z" />
    <glyph glyph-name="uni064906BA" unicode="&#x649;&#xfb9f;" horiz-adv-x="916" 
d="M314 -204l-3 -2q-130 0 -200 68q-69 68 -69 192q0 40 6 77q5 32 17 78h46v-8q-10 -40 -14 -69q-5 -37 -5 -63q0 -89 57 -138q58 -50 161 -50q106 0 161 47q54 46 54 135q0 45 -9 107q-10 65 -25 120l3 5h58l12 -59l185 29v60h51v-146q0 -57 27 -79q26 -22 84 -22h4v-62
l-18 -18h-1q-72 0 -109 39q-37 38 -37 123v25l-173 -27q4 -22 6 -44q2 -28 2 -38q0 -137 -70 -208q-71 -72 -201 -72z" />
    <glyph glyph-name="uni06490646.fina" unicode="&#x649;&#xfee6;" horiz-adv-x="916" 
d="M314 -204l-3 -2q-130 0 -200 68q-69 68 -69 192q0 40 6 77q5 32 17 78h46v-8q-10 -40 -14 -69q-5 -37 -5 -63q0 -89 57 -138q58 -50 161 -50q106 0 161 47q54 46 54 135q0 45 -9 107q-10 65 -25 120l3 5h58l12 -59l185 29v60h51v-146q0 -57 27 -79q26 -22 84 -22h4v-62
l-18 -18h-1q-72 0 -109 39q-37 38 -37 123v25l-173 -27q4 -22 6 -44q2 -28 2 -38q0 -137 -70 -208q-71 -72 -201 -72zM321 381l52 -51l-52 -51h-8l-53 51l53 51h8z" />
    <glyph glyph-name="uni067E0646.fina" unicode="&#xfb59;&#xfee6;" horiz-adv-x="916" 
d="M314 -204l-3 -2q-130 0 -200 68q-69 68 -69 192q0 40 6 77q5 32 17 78h46v-8q-10 -40 -14 -69q-5 -37 -5 -63q0 -89 57 -138q58 -50 161 -50q106 0 161 47q54 46 54 135q0 45 -9 107q-10 65 -25 120l3 5h58l12 -59l185 29v60h51v-146q0 -57 27 -79q26 -22 84 -22h4v-62
l-18 -18h-1q-72 0 -109 39q-37 38 -37 123v25l-173 -27q4 -22 6 -44q2 -28 2 -38q0 -137 -70 -208q-71 -72 -201 -72zM321 381l52 -51l-52 -51h-8l-53 51l53 51h8zM832 -170h-9l-48 48l-48 -48h-8l-52 51l52 51h8l48 -48l48 48h9l52 -51zM829 -221l-49 -49h-9l-49 49l49 49
h9z" />
    <glyph glyph-name="uni066E.init" unicode="&#x66e;" horiz-adv-x="222" 
d="M0 80l19 1q54 0 78 24t24 77q0 30 -6 74q-7 54 -16 98l3 5h57q8 -43 13 -91q4 -39 4 -78q0 -98 -39 -144t-121 -46h-34v63z" />
    <glyph glyph-name="uni066E.medi" unicode="&#x66e;" horiz-adv-x="279" 
d="M0 80l-1 -2q71 0 120 35q-4 19 -5 32q-2 22 -2 36v116h51v-116q0 -57 27 -79q26 -22 84 -22h4v-62l-18 -18h-1q-95 0 -127 71q-53 -71 -150 -71v63z" />
    <glyph glyph-name="uni066E.fina" unicode="&#x66e;" horiz-adv-x="868" 
d="M722 113l-1 -4q30 -17 68 -25q34 -7 78 -7v-61l-18 -19q-48 0 -96 17q-47 16 -90 57q-71 -42 -153 -63t-171 -21q-79 0 -134 12q-56 12 -91 37q-36 25 -52 64q-17 40 -17 93q0 58 21 133h47v-8q-7 -28 -12 -54q-4 -23 -4 -45q0 -76 60 -109t197 -33q120 0 228 39t188 110
h7v-65q-28 -28 -55 -48z" />
    <glyph glyph-name="uni066F.fina" unicode="&#x66f;" horiz-adv-x="683" 
d="M350 -235l1 -5q-145 0 -225 67q-81 67 -81 187q0 71 26 161h49v-7q-21 -75 -21 -138q0 -86 66 -134t185 -48q114 0 168 33t66 113h-123q-78 0 -122 38t-44 110q0 39 14 81q13 41 36 72t54 51q32 20 66 20q37 0 69 -21q31 -21 54 -59q22 -38 36 -90q13 -52 15 -116h44v-61
l-18 -19h-30q-28 -235 -285 -235zM587 75l-4 -2q-3 43 -15 81q-13 39 -28 66q-16 28 -39 45q-22 16 -48 16q-23 0 -43 -12q-19 -12 -33 -32q-13 -19 -21 -42q-8 -24 -8 -45q0 -39 31 -57t88 -18h120z" />
    <glyph glyph-name="uni06A1.init" unicode="&#x6a1;" horiz-adv-x="434" 
d="M0 80l194 -5q34 0 64 5q27 4 45 18q18 13 27 35q10 22 11 54l-3 2q-56 -33 -129 -33q-74 0 -117 38q-42 38 -42 110q0 40 14 80t36 71t54 51q31 19 66 19q38 0 69 -22t54 -62q23 -41 35 -94q12 -55 12 -120q0 -59 -11 -105q-10 -43 -35 -71q-24 -27 -61 -39t-90 -12h-211
v63zM218 232l1 -2q63 0 120 20q-5 43 -16 75q-12 35 -30 60q-19 27 -40 41q-23 15 -48 15q-23 0 -42 -12q-20 -12 -33 -31q-14 -20 -21 -42q-8 -24 -8 -44q0 -42 30 -61q29 -19 87 -19z" />
    <glyph glyph-name="uni06A1.medi" unicode="&#x6a1;" horiz-adv-x="428" 
d="M428 18l-19 -22h-42q-41 0 -83 8q-40 8 -74 21q-38 -14 -79 -21q-45 -8 -88 -8h-63v63l18 17h126q-37 31 -58 70t-21 82q0 38 15 76t39 66t55 46q32 18 63 18q34 0 64 -15q28 -14 52 -41q23 -26 35 -60t12 -72q0 -50 -21 -92q-21 -43 -60 -74h129v-62zM94 243l-2 1
q0 -23 9 -46q8 -20 26 -43q16 -20 39 -37q22 -16 50 -27q47 16 79 50q31 32 31 70q0 29 -9 54q-9 24 -26 45q-16 19 -39 31q-22 12 -48 12q-22 0 -42 -9t-35 -24t-24 -35q-9 -19 -9 -42z" />
    <glyph glyph-name="uni06A1.fina" unicode="&#x6a1;" horiz-adv-x="901" 
d="M901 18l-18 -22h-41q-90 0 -162 31q-111 -41 -276 -41q-97 0 -166 12q-68 12 -112 36t-63 63q-20 40 -20 94q0 58 21 133h47v-8q-7 -28 -12 -54q-4 -23 -4 -45q0 -38 17 -66t54 -44q38 -17 96 -24q62 -8 143 -8h186h9q-37 31 -60 71q-22 38 -22 83q0 39 15 76t39 66
q24 28 55 46t64 18q34 0 64 -15q28 -14 52 -41q23 -26 35 -60q12 -35 12 -72q0 -101 -84 -167h1h130v-62zM569 243l-2 4q0 -23 9 -46q8 -20 26 -43q16 -20 39 -37q22 -16 50 -27q50 17 80 48q30 32 30 69q0 29 -9 54q-9 24 -26 45q-16 19 -39 31t-48 12q-23 0 -42 -9
q-20 -9 -35 -24t-24 -35q-9 -19 -9 -42z" />
    <glyph glyph-name="uni06C2.fina" unicode="&#x6c2;" horiz-adv-x="565" 
d="M547 0l1 -3q-28 0 -51 6t-39 21q-17 15 -30 40q-14 26 -24 64l-17 58q-9 33 -22 44q-13 12 -39 12q-39 0 -108 -31q-74 -33 -183 -100h-7v71q116 74 192 108q75 34 124 34q38 0 59 -24q22 -25 35 -73l17 -58q15 -53 36 -71t56 -18h18v-62zM282 440q-14 23 -14 45
q0 18 8 36q8 17 21 29q15 13 31 20q19 8 38 8q59 0 59 -61v-22h-35v8q0 29 -32 29q-23 0 -39 -13t-16 -30q0 -25 32 -49h104v-46h-191v46h34z" />
    <glyph glyph-name="uni06C3.fina" unicode="&#x6c3;" horiz-adv-x="565" 
d="M547 0l1 -3q-28 0 -51 6t-39 21q-17 15 -30 40q-14 26 -24 64l-17 58q-9 33 -22 44q-13 12 -39 12q-39 0 -108 -31q-74 -33 -183 -100h-7v71q116 74 192 108q75 34 124 34q38 0 59 -24q22 -25 35 -73l17 -58q15 -53 36 -71t56 -18h18v-62zM401 423h-9l-48 48l-49 -48h-8
l-53 51l53 51h8l49 -48l48 48h9l52 -51z" />
    <glyph glyph-name="uniFB51" unicode="&#x671;" horiz-adv-x="259" arabic-form="final" 
d="M241 0v-1q-82 0 -120 44t-38 138v439h61v-439q0 -53 27 -77t85 -24h3v-62l-17 -18h-1zM173 845v-3q34 0 53 -24q20 -25 20 -58q0 -35 -22 -56t-57 -21q-28 0 -55 9t-51 9q-15 0 -33 -5q-16 -4 -25 -15h-7v39q11 14 28 21t38 7h9q23 52 48 74q26 23 54 23zM165 728v-2
q44 0 44 28q0 16 -12 26q-13 11 -32 11q-18 0 -37 -14q-17 -13 -28 -39q11 -3 33 -7q17 -3 32 -3z" />
    <glyph glyph-name="uniFB57" unicode="&#x67e;" horiz-adv-x="868" arabic-form="final" 
d="M722 113l-1 -4q30 -17 68 -25q34 -7 78 -7v-61l-18 -19q-48 0 -96 17q-47 16 -90 57q-71 -42 -153 -63t-171 -21q-79 0 -134 12q-56 12 -91 37q-36 25 -52 64q-17 40 -17 93q0 58 21 133h47v-8q-7 -28 -12 -54q-4 -23 -4 -45q0 -76 60 -109t197 -33q120 0 228 39t188 110
h7v-65q-28 -28 -55 -48zM449 -172h-9l-48 48l-48 -48h-8l-52 51l52 51h8l48 -48l48 48h9l52 -51zM446 -223l-49 -49h-9l-49 49l49 49h9z" />
    <glyph glyph-name="uniFB58" unicode="&#x67e;" horiz-adv-x="222" arabic-form="initial" 
d="M0 80l19 1q54 0 78 24t24 77q0 30 -6 74q-7 54 -16 98l3 5h57q8 -43 13 -91q4 -39 4 -78q0 -98 -39 -144t-121 -46h-34v63zM141 -167h-9l-48 48l-48 -48h-8l-52 51l52 51h8l48 -48l48 48h9l52 -51zM138 -218l-49 -49h-9l-49 49l49 49h9z" />
    <glyph glyph-name="uniFB59" unicode="&#x67e;" horiz-adv-x="279" arabic-form="medial" 
d="M0 80l-1 -2q71 0 120 35q-4 19 -5 32q-2 22 -2 36v116h51v-116q0 -57 27 -79q26 -22 84 -22h4v-62l-18 -18h-1q-95 0 -127 71q-53 -71 -150 -71v63zM188 -170h-9l-48 48l-48 -48h-8l-52 51l52 51h8l48 -48l48 48h9l52 -51zM185 -221l-49 -49h-9l-49 49l49 49h9z" />
    <glyph glyph-name="uniFB67" unicode="&#x679;" horiz-adv-x="868" arabic-form="final" 
d="M722 113l-1 -4q30 -17 68 -25q34 -7 78 -7v-61l-18 -19q-48 0 -96 17q-47 16 -90 57q-71 -42 -153 -63t-171 -21q-79 0 -134 12q-56 12 -91 37q-36 25 -52 64q-17 40 -17 93q0 58 21 133h47v-8q-7 -28 -12 -54q-4 -23 -4 -45q0 -76 60 -109t197 -33q120 0 228 39t188 110
h7v-65q-28 -28 -55 -48zM314 362l8 18v178h38v-123q17 22 36 31q18 9 38 9q34 0 53 -24q20 -25 20 -58q0 -35 -24 -56t-61 -21h-145v46h37zM427 362l-1 -3q20 0 33 8q12 7 12 20q0 15 -12 27t-32 12q-24 0 -44 -16q-21 -16 -36 -48h80z" />
    <glyph glyph-name="uniFB68" unicode="&#x679;" horiz-adv-x="222" arabic-form="initial" 
d="M0 80l19 1q54 0 78 24t24 77q0 30 -6 74q-7 54 -16 98l3 5h57q8 -43 13 -91q4 -39 4 -78q0 -98 -39 -144t-121 -46h-34v63zM42 477l8 18v178h38v-123q17 22 36 31q18 9 38 9q34 0 53 -24q20 -25 20 -58q0 -35 -24 -56t-61 -21h-145v46h37zM155 477l-1 -3q20 0 33 8
q12 8 12 20q0 15 -12 27t-32 12q-24 0 -44 -16q-21 -17 -36 -48h80z" />
    <glyph glyph-name="uniFB69" unicode="&#x679;" horiz-adv-x="279" arabic-form="medial" 
d="M0 80l-1 -2q71 0 120 35q-4 19 -5 32q-2 22 -2 36v116h51v-116q0 -57 27 -79q26 -22 84 -22h4v-62l-18 -18h-1q-95 0 -127 71q-53 -71 -150 -71v63zM59 414l8 18v178h38v-123q17 22 36 31q18 9 38 9q34 0 53 -24q20 -25 20 -58q0 -35 -24 -56t-61 -21h-145v46h37z
M172 414l-1 -3q20 0 33 8q12 7 12 20q0 15 -12 27t-32 12q-24 0 -44 -16q-21 -16 -36 -48h80z" />
    <glyph glyph-name="uniFB6B" unicode="&#x6a4;" horiz-adv-x="901" arabic-form="final" 
d="M901 18l-18 -22h-41q-90 0 -162 31q-111 -41 -276 -41q-97 0 -166 12q-68 12 -112 36t-63 63q-20 40 -20 94q0 58 21 133h47v-8q-7 -28 -12 -54q-4 -23 -4 -45q0 -38 17 -66t54 -44q38 -17 96 -24q62 -8 143 -8h186h9q-37 31 -60 71q-22 38 -22 83q0 39 15 76t39 66
q24 28 55 46t64 18q34 0 64 -15q28 -14 52 -41q23 -26 35 -60q12 -35 12 -72q0 -101 -84 -167h1h130v-62zM569 243l-2 4q0 -23 9 -46q8 -20 26 -43q16 -20 39 -37q22 -16 50 -27q50 17 80 48q30 32 30 69q0 29 -9 54q-9 24 -26 45q-16 19 -39 31t-48 12q-23 0 -42 -9
q-20 -9 -35 -24t-24 -35q-9 -19 -9 -42zM636 693l49 49h9l50 -49l-50 -49h-9zM747 538h-9l-48 48l-49 -48h-8l-53 51l53 51h8l49 -48l48 48h9l52 -51z" />
    <glyph glyph-name="uniFB6C" unicode="&#x6a4;" horiz-adv-x="434" arabic-form="initial" 
d="M0 80l194 -5q34 0 64 5q27 4 45 18q18 13 27 35q10 22 11 54l-3 2q-56 -33 -129 -33q-74 0 -117 38q-42 38 -42 110q0 40 14 80t36 71t54 51q31 19 66 19q38 0 69 -22t54 -62q23 -41 35 -94q12 -55 12 -120q0 -59 -11 -105q-10 -43 -35 -71q-24 -27 -61 -39t-90 -12h-211
v63zM218 232l1 -2q63 0 120 20q-5 43 -16 75q-12 35 -30 60q-19 27 -40 41q-23 15 -48 15q-23 0 -42 -12q-20 -12 -33 -31q-14 -20 -21 -42q-8 -24 -8 -44q0 -42 30 -61q29 -19 87 -19zM156 777l49 49h9l50 -49l-50 -49h-9zM267 622h-9l-48 48l-49 -48h-8l-53 51l53 51h8
l49 -48l48 48h9l52 -51z" />
    <glyph glyph-name="uniFB6D" unicode="&#x6a4;" horiz-adv-x="428" arabic-form="medial" 
d="M428 18l-19 -22h-42q-41 0 -83 8q-40 8 -74 21q-38 -14 -79 -21q-45 -8 -88 -8h-63v63l18 17h126q-37 31 -58 70t-21 82q0 38 15 76t39 66t55 46q32 18 63 18q34 0 64 -15q28 -14 52 -41q23 -26 35 -60t12 -72q0 -50 -21 -92q-21 -43 -60 -74h129v-62zM94 243l-2 1
q0 -23 9 -46q8 -20 26 -43q16 -20 39 -37q22 -16 50 -27q47 16 79 50q31 32 31 70q0 29 -9 54q-9 24 -26 45q-16 19 -39 31q-22 12 -48 12q-22 0 -42 -9t-35 -24t-24 -35q-9 -19 -9 -42zM156 690l49 49h9l50 -49l-50 -49h-9zM267 535h-9l-48 48l-49 -48h-8l-53 51l53 51h8
l49 -48l48 48h9l52 -51z" />
    <glyph glyph-name="uniFB7B" unicode="&#x686;" horiz-adv-x="661" arabic-form="final" 
d="M661 18l-24 -20h-35q-78 0 -113 45q-35 46 -35 139v96l-63 -23q-145 -54 -222 -123t-77 -167q0 -45 18 -82t54 -64t87 -42t116 -15q64 0 122 14q57 14 107 36h7v-64q-43 -34 -110 -54q-64 -19 -140 -19q-72 0 -132 20q-59 20 -99 55q-40 36 -63 86q-22 48 -22 111
q0 61 23 113q23 53 67 95q46 45 111 83q64 38 154 76l51 20v3l-269 21q-26 2 -39 -6q-13 -7 -13 -42v-24h-47v81q0 41 20 58q19 16 78 10l270 -27q27 -2 44 -3q18 -1 33 -3q10 -1 28 -1h32h10v-74l-79 -30v-114q0 -59 27 -81q26 -22 85 -22h38v-62zM366 -25h-9l-48 48
l-49 -48h-8l-53 51l53 52h8l49 -48l48 48h9l52 -52zM363 -77l-50 -49h-9l-49 49l49 49h9z" />
    <glyph glyph-name="uniFB7C" unicode="&#x686;" horiz-adv-x="612" arabic-form="initial" 
d="M521 215l-140 -110q-35 -27 -74 -52q-33 -21 -66 -33q-35 -13 -69 -17q-40 -5 -82 -5h-106v63l18 17h88q45 0 81 3q34 3 69 14q33 11 66 27q35 18 74 42l88 58v2l-221 56q-27 8 -45 12t-30 6q-11 1 -19 3q-5 1 -15 1q-39 0 -39 -41v-30h-47v71q0 42 18 60t56 18
q14 0 22 -1q2 0 28 -5q15 -3 37 -9q5 -1 49 -13l170 -45q20 -6 38 -9q22 -4 32 -5l30 -3q10 -1 35 -1h20v-74h-66zM339 -171h-9l-48 48l-48 -48h-8l-52 51l52 51h8l48 -48l48 48h9l52 -51zM336 -222l-49 -49h-9l-49 49l49 49h9z" />
    <glyph glyph-name="uniFB7D" unicode="&#x686;" horiz-adv-x="635" arabic-form="medial" 
d="M635 18l-16 -23h-1q-76 0 -112 37t-36 115v24l-89 -68q-35 -27 -74 -52q-33 -21 -66 -33q-35 -13 -69 -17q-40 -5 -82 -5h-106v63l18 17h88q45 0 81 3q34 3 69 14q33 11 66 27q35 18 74 42l88 58v2l-221 56q-27 8 -45 12t-30 6q-11 1 -19 3q-5 1 -15 1q-39 0 -39 -41v-30
h-47v71q0 42 18 60t56 18q14 0 22 -1q2 0 28 -5q15 -3 37 -9q5 -1 49 -13l170 -45q20 -6 38 -9q22 -4 32 -5l30 -3q10 -1 35 -1h20v-74h-66v-48q0 -24 5 -42q5 -17 18 -26q12 -8 35 -13q19 -4 53 -4h3v-62zM340 -173h-9l-48 48l-48 -48h-8l-52 51l52 51h8l48 -48l48 48h9
l52 -51zM337 -224l-49 -49h-9l-49 49l49 49h9z" />
    <glyph glyph-name="uniFB89" unicode="&#x688;" horiz-adv-x="533" arabic-form="final" 
d="M407 178l1 2q14 -50 42 -74t84 -24v-62l-17 -18q-46 0 -78 17q-31 17 -54 54q-58 -82 -195 -82q-86 0 -123 27t-37 95v35h48v-19q0 -31 30 -45q29 -13 104 -13q97 0 153 41l-9 24q-3 8 -9 26l-87 293v8h62zM204 583l8 18v178h38v-123q17 22 36 31q18 9 38 9q34 0 53 -24
q20 -25 20 -58q0 -35 -24 -56t-61 -21h-145v46h37zM317 583l-1 -3q20 0 33 8q12 8 12 20q0 15 -12 27t-32 12q-24 0 -44 -16q-21 -17 -36 -48h80z" />
    <glyph glyph-name="uniFB8B" unicode="&#x698;" horiz-adv-x="375" arabic-form="final" 
d="M39 -255l-1 -1q-38 0 -72 15q-33 14 -66 41v44l7 5q29 -12 57 -19q26 -6 51 -6q38 0 71 18q32 18 57 50t38 77q14 47 14 98q0 29 -9 81q-10 57 -25 115l3 5h58l20 -97q10 -49 42 -70t91 -21v-61l-18 -19q-37 0 -64 9q-26 9 -43 29l-3 -1q-5 -66 -22 -118q-18 -55 -46 -93
q-29 -40 -64 -60q-36 -21 -76 -21zM116 523l49 49h9l50 -49l-50 -49h-9zM227 368h-9l-48 48l-49 -48h-8l-53 51l53 51h8l49 -48l48 48h9l52 -51z" />
    <glyph glyph-name="uniFB8D" unicode="&#x691;" horiz-adv-x="375" arabic-form="final" 
d="M39 -255l-1 -1q-38 0 -72 15q-33 14 -66 41v44l7 5q29 -12 57 -19q26 -6 51 -6q38 0 71 18q32 18 57 50t38 77q14 47 14 98q0 29 -9 81q-10 57 -25 115l3 5h58l20 -97q10 -49 42 -70t91 -21v-61l-18 -19q-37 0 -64 9q-26 9 -43 29l-3 -1q-5 -66 -22 -118q-18 -55 -46 -93
q-29 -40 -64 -60q-36 -21 -76 -21zM91 385l8 18v178h38v-123q17 22 36 31q18 9 38 9q33 0 53 -24q20 -25 20 -58q0 -35 -24 -56t-61 -21h-145v46h37zM204 385l-1 -3q20 0 33 8q12 8 12 20q0 15 -12 27t-32 12q-24 0 -44 -16q-21 -17 -36 -48h80z" />
    <glyph glyph-name="uniFB8F" unicode="&#x6a9;" horiz-adv-x="917" arabic-form="final" 
d="M331 -10l-4 -2q-76 0 -130 12q-56 12 -89 37q-35 26 -51 64t-16 93q0 58 21 133h47v-8q-7 -29 -12 -54q-4 -23 -4 -45q0 -76 59 -109q58 -33 192 -33q92 0 177 21t153 60l-183 270v79l417 246h7v-73l-367 -214l192 -280q18 -28 38 -51q18 -21 36 -33t38 -18t44 -6h19v-61
l-17 -19q-28 0 -55 5q-22 4 -46 17q-21 11 -43 35q-20 22 -46 55h-3q-71 -60 -170 -91q-97 -30 -204 -30z" />
    <glyph glyph-name="uniFB90" unicode="&#x6a9;" horiz-adv-x="413" arabic-form="initial" 
d="M99 470l77 -82q47 -47 65 -67q25 -28 43 -57q16 -27 24 -53q8 -27 8 -53q0 -75 -47 -117t-131 -42h-156v63l18 17h138q59 0 93 20q33 19 33 60q0 17 -4 29q-5 14 -15 29q-14 19 -28 35q-24 26 -43 45l-138 131v79l418 246h7v-73z" />
    <glyph glyph-name="uniFB91" unicode="&#x6a9;" horiz-adv-x="466" arabic-form="medial" 
d="M0 80l94 1q116 0 126 81l-181 267v79l417 246h8v-73l-367 -214l191 -280q18 -28 38 -51q18 -21 36 -33t38 -18t44 -6h20v-61l-18 -19q-27 0 -54 5q-23 4 -47 17q-23 12 -44 35q-19 20 -46 57l-3 -1q-10 -52 -51 -82t-105 -30h-114v63z" />
    <glyph glyph-name="uniFB93" unicode="&#x6af;" horiz-adv-x="917" arabic-form="final" 
d="M331 -10l-4 -2q-76 0 -130 12q-56 12 -89 37q-35 26 -51 64t-16 93q0 58 21 133h47v-8q-7 -29 -12 -54q-4 -23 -4 -45q0 -76 59 -109q58 -33 192 -33q92 0 177 21t153 60l-183 270v79l417 246h7v-73l-367 -214l192 -280q18 -28 38 -51q18 -21 36 -33t38 -18t44 -6h19v-61
l-17 -19q-28 0 -55 5q-22 4 -46 17q-21 11 -43 35q-20 22 -46 55h-3q-71 -60 -170 -91q-97 -30 -204 -30zM489 602l418 246h7v-46l-418 -245h-7v45z" />
    <glyph glyph-name="uniFB94" unicode="&#x6af;" horiz-adv-x="413" arabic-form="initial" 
d="M99 470l77 -82q47 -47 65 -67q25 -28 43 -57q16 -27 24 -53q8 -27 8 -53q0 -75 -47 -117t-131 -42h-156v63l18 17h138q59 0 93 20q33 19 33 60q0 17 -4 29q-5 14 -15 29q-14 19 -28 35q-24 26 -43 45l-138 131v79l418 246h7v-73zM35 601l418 246h7v-46l-418 -245h-7v45z
" />
    <glyph glyph-name="uniFB95" unicode="&#x6af;" horiz-adv-x="466" arabic-form="medial" 
d="M0 80l94 1q116 0 126 81l-181 267v79l417 246h8v-73l-367 -214l191 -280q18 -28 38 -51q18 -21 36 -33t38 -18t44 -6h20v-61l-18 -19q-27 0 -54 5q-23 4 -47 17q-23 12 -44 35q-19 20 -46 57l-3 -1q-10 -52 -51 -82t-105 -30h-114v63zM39 605l418 246h7v-46l-418 -245h-7
v45z" />
    <glyph glyph-name="uniFB9F" unicode="&#x6ba;" horiz-adv-x="711" arabic-form="final" 
d="M317 -235v2q-62 0 -113 17q-50 17 -85 49t-55 80q-19 45 -19 108q0 38 6 80q6 39 17 80h46v-7q-10 -40 -14 -69q-5 -37 -5 -62q0 -95 60 -143t161 -48q113 0 164 48t51 152q0 23 -1 35q-2 18 -6 42q-1 3 -4.5 22.5t-5.5 31.5q-8 41 -16 71l4 5h57l19 -89q11 -52 42 -71
q32 -20 90 -20h1v-61l-18 -19h-1q-76 0 -110 42l-2 -1q-3 -135 -70 -205t-193 -70z" />
    <glyph glyph-name="uniFBA7" unicode="&#x6c1;" horiz-adv-x="565" arabic-form="final" 
d="M547 0l1 -3q-28 0 -51 6t-39 21q-17 15 -30 40q-14 26 -24 64l-17 58q-9 33 -22 44q-13 12 -39 12q-39 0 -108 -31q-74 -33 -183 -100h-7v71q116 74 192 108q75 34 124 34q38 0 59 -24q22 -25 35 -73l17 -58q15 -53 36 -71t56 -18h18v-62z" />
    <glyph glyph-name="uniFBA8" unicode="&#x6c1;" horiz-adv-x="480" arabic-form="initial" 
d="M422 298l1 3q12 -61 12 -114q0 -101 -39 -147t-121 -46q-107 0 -142 80q-51 -70 -151 -70v63l18 17q74 0 120 34q-4 19 -5 32q-2 22 -2 36v56h51v-56q0 -58 27 -85t84 -27q53 0 79 24q25 24 25 81q0 19 -3 48q-2 23 -11 66l4 5h53zM69 -181v-2q1 25 14 56q12 29 44 80h42
v-7q-27 -44 -40 -70q-12 -24 -12 -37q0 -14 12 -20t40 -6v-63q-14 -2 -27 -2q-40 0 -57 21q-16 20 -16 50z" />
    <glyph glyph-name="uniFBA9" unicode="&#x6c1;" horiz-adv-x="466" arabic-form="medial" 
d="M466 17l-21 -20h-53q-39 0 -55 -14q-15 -13 -15 -50v-133l-55 -57l-70 66q-102 96 -102 189q0 23 8 52l-3 2q-27 -28 -54 -42q-26 -13 -65 -13v63l18 17q19 0 39 5q19 5 35 15q17 11 35 29q10 10 40 44l28 33l39 -32l-26 -34q-41 -53 -41 -102q0 -79 104 -171l22 -19v89
q0 40 6 69t21 45t39 24q26 8 59 8h67v-63z" />
    <glyph glyph-name="uniFBAB" unicode="&#x6be;" horiz-adv-x="547" arabic-form="final" 
d="M344 -235l-5 -2q-51 0 -88 18q-38 18 -63 49q-26 32 -39 75q-13 42 -16 96q-18 1 -54 5q-24 3 -54 11v63h113q9 51 31 99q23 51 52 90q30 41 65 65q34 24 68 24q46 0 75 -35t29 -90q0 -49 -21 -88t-55 -61v-3h164v-62l-18 -18h-71l-1 -2q30 -29 30 -81q0 -32 -11 -60
q-11 -27 -30 -48t-45 -33t-56 -12zM229 78h-2q81 0 128 35t47 93q0 30 -18 50t-45 20t-52 -16t-46 -43t-36 -63q-14 -34 -22 -76h46zM337 -157h-1q38 0 65 21t27 56q0 39 -33 63t-93 24q-18 0 -60 -2q-21 -1 -63 -5q7 -72 47 -115q39 -42 111 -42z" />
    <glyph glyph-name="uniFBAC" unicode="&#x6be;" horiz-adv-x="597" arabic-form="initial" 
d="M341 385l-2 1q59 -28 101 -56t65 -54q25 -28 35 -57q11 -31 11 -65q0 -35 -13 -64q-14 -31 -37 -51q-24 -21 -59 -33q-34 -12 -78 -12q-46 0 -88 9q-40 9 -78 26q-69 -28 -153 -28h-63v63l18 17h104h16q-34 31 -54 71q-19 38 -19 81q0 29 9 56t24 51q13 21 35 43
q18 18 42 31v56l5 3zM94 248h1q0 -45 36 -84q35 -38 93 -61q43 16 67 48q24 31 24 72q0 29 -9 53t-24 42t-35 29t-44 11q-23 0 -42 -9t-34 -24t-24 -35t-9 -42zM371 74l-1 1q64 0 95 21q32 21 32 59q0 19 -6 36t-22 33q-19 19 -43 35q-31 21 -67 38l3 -21q1 -7 1 -21
q0 -51 -21 -94q-21 -44 -58 -78q40 -9 87 -9z" />
    <glyph glyph-name="uniFBAD" unicode="&#x6be;" horiz-adv-x="466" arabic-form="medial" 
d="M262 -235l-1 -3q-51 0 -88 18q-38 18 -63 49q-26 31 -39 75q-14 45 -17 96h-73v63l18 17h60q9 51 31 99q23 51 52 90q30 41 65 65t68 24q46 0 75 -35t29 -90q0 -49 -21 -88q-21 -38 -57 -61v-3h165v-62l-18 -18h-71l-1 -2q30 -29 30 -81q0 -33 -12 -60q-12 -28 -31 -48
q-19 -21 -45 -33t-56 -12zM151 77q81 0 128 35t47 93q0 31 -18 50q-18 20 -46 20q-27 0 -52 -16t-46 -43t-36 -63q-14 -34 -22 -76h45zM261 -158h-1q39 0 66 21t27 56q0 39 -33 63t-93 24q-18 0 -60 -2q-21 -1 -63 -5q8 -74 46 -115q39 -42 111 -42z" />
    <glyph glyph-name="uniFBAF" unicode="&#x6d2;" horiz-adv-x="804" arabic-form="final" 
d="M401 -223l-1 -1q-98 0 -169 6q-67 6 -115 20q-45 14 -66 36t-21 52q0 40 20 75q19 35 54 60q34 25 83 39q50 14 105 14h511v-62l-17 -18h-494q-57 0 -97 -9q-42 -9 -66 -22q-25 -13 -37 -28t-12 -28q0 -25 80 -40q79 -15 242 -15q29 0 99 2t104 4q45 3 97 6q54 3 81 7h6
v-64q-26 -6 -77 -13q-56 -7 -96 -11q-37 -3 -106 -7q-55 -3 -108 -3z" />
    <glyph glyph-name="uniFBB1" unicode="&#x6d3;" horiz-adv-x="804" arabic-form="final" 
d="M401 -223l-1 -1q-98 0 -169 6q-67 6 -115 20q-45 14 -66 36t-21 52q0 40 20 75q19 35 54 60q34 25 83 39q50 14 105 14h511v-62l-17 -18h-494q-57 0 -97 -9q-42 -9 -66 -22q-25 -13 -37 -28t-12 -28q0 -25 80 -40q79 -15 242 -15q29 0 99 2t104 4q45 3 97 6q54 3 81 7h6
v-64q-26 -6 -77 -13q-56 -7 -96 -11q-37 -3 -106 -7q-55 -3 -108 -3zM230 197q-14 23 -14 45q0 18 8 36q8 17 21 29q15 13 31 20q19 8 38 8q59 0 59 -61v-22h-35v8q0 29 -32 29q-23 0 -39 -13t-16 -30q0 -25 32 -49h104v-46h-191v46h34z" />
    <glyph glyph-name="uniFBFD" unicode="&#x6cc;" horiz-adv-x="717" arabic-form="final" 
d="M380 -235l-3 -3q-169 0 -252 69q-82 69 -82 218q0 45 6 86q5 35 14 72h46v-7q-7 -32 -12 -69q-4 -33 -4 -72q0 -108 71 -159q70 -51 213 -51q62 0 107 7q50 8 81 19q33 12 51 30t18 39q0 16 -8 27t-27 18q-22 8 -53 14q-47 9 -84 14l-64 9v77l4 4l60 -9q60 -11 124 -15
q57 -4 129 -4v-61l-18 -19h-24q4 -5 10 -17q4 -8 4 -21q0 -46 -21 -82q-22 -37 -61 -62q-41 -26 -97 -39q-55 -13 -128 -13z" />
    <glyph glyph-name="uniFBFE" unicode="&#x6cc;" horiz-adv-x="222" arabic-form="initial" 
d="M0 80l19 1q54 0 78 24t24 77q0 30 -6 74q-7 54 -16 98l3 5h57q8 -43 13 -91q4 -39 4 -78q0 -98 -39 -144t-121 -46h-34v63zM142 -195h-9l-48 48l-49 -48h-8l-53 51l53 51h8l49 -48l48 48h9l52 -51z" />
    <glyph glyph-name="uniFBFF" unicode="&#x6cc;" horiz-adv-x="279" arabic-form="medial" 
d="M0 80l-1 -2q71 0 120 35q-4 19 -5 32q-2 22 -2 36v116h51v-116q0 -57 27 -79q26 -22 84 -22h4v-62l-18 -18h-1q-95 0 -127 71q-53 -71 -150 -71v63zM189 -198h-9l-48 48l-49 -48h-8l-53 51l53 51h8l49 -48l48 48h9l52 -51z" />
    <glyph glyph-name="uniFDF4" unicode="&#xfdf4;" horiz-adv-x="909" arabic-form="isolated" 
d="M190 -8l3 1q-85 0 -123 27q-37 27 -37 95v35h48v-18q0 -32 30 -46q29 -13 105 -13q48 0 85 9q36 9 66 29l-103 348v8h63l104 -353q10 -37 24 -61q13 -23 39 -40l2 2q-8 11 -8 20q0 45 40 82t123 72l39 15v2h-229v52q0 38 25 78q26 41 81 74v104q0 27 8 48q7 20 18 30
t24 15q15 5 24 5q12 0 18 -1q12 -2 18 -4q9 -3 21 -9l30 -15l48 -23q25 -12 32 -24q8 -13 8 -37v-79l-95 -24q-80 -20 -133 -50q-52 -29 -74 -60h372v-82l-115 -36q-230 -71 -230 -123q0 -25 28 -37q30 -13 87 -20l26 -4l-10 -79l-142 19q-54 8 -90 42t-61 100
q-59 -74 -189 -74zM611 435q27 13 62 24q32 10 74 18l24 6l-42 22q-37 19 -51 23q-18 5 -27 5q-22 0 -31 -13t-9 -37v-48z" />
    <glyph glyph-name="uniFDFA" unicode="&#xfdfa;" horiz-adv-x="1046" arabic-form="isolated" 
d="M683 251l-6 -13q-47 0 -63 27q-18 -27 -56 -27h-40v-153q0 -17 6 -26t28 -9q26 0 32 7t6 21v27h38v-24v-15q0 -5 -2 -15q18 -5 32 -5q20 0 24 9q5 10 5 24v27h37v-24v-15q0 -10 -1 -15q12 -5 27 -5q14 0 18 6q5 7 5 20q0 16 -1 27q-2 16 -3 30l2 3h39l3 -33q2 -22 2 -24
q0 -47 -16 -66q-17 -20 -51 -20q-22 0 -42 17q-14 -17 -40 -17q-35 0 -59 21q-18 -18 -55 -18q-26 0 -43 6q-16 6 -24 20q-22 -28 -63 -28q-25 0 -39 10t-25 36l-6 -45l-59 8q-16 1 -31 6q-14 4 -25 12q-17 -26 -54 -26h-133v63h143h9q3 0 9 2q-1 3 -1 9v10q0 20 9 38
q9 19 25 33q17 15 37 24q21 9 47 9q16 0 21 -14l24 -67q9 -24 20 -34q11 -9 39 -9q19 0 40 8v17v163h-233q-29 0 -45 15t-24 38h-2q-7 -19 -24 -28q-16 -9 -36 -9q-32 0 -48 18q-17 19 -17 44q0 53 76 87l46 22v35h48v-121q0 -13 6 -24q6 -10 32 -10h222v156h47v-156h50
q11 0 17 1q9 2 18 6q-1 4 -1 12v14v75h42v-67q0 -24 9 -32q10 -8 40 -8q5 0 17 2q10 2 17 6v17v223h47v-212q0 -20 6 -27t32 -7h30q-4 4 -9 15q-4 9 -4 23q0 18 8 37q7 16 20 31q12 14 28 21q18 8 33 8q20 0 36 -6t27 -15v-61h-4q-25 18 -66 18q-23 0 -39 -9t-16 -25
q0 -11 12 -22t30 -15q26 1 54 5q15 2 45 8h3v-55q-24 -9 -75 -15t-127 -6q-24 0 -37 6t-21 20q-11 -15 -25 -20q-15 -6 -34 -6zM663 577l-3 -4q-22 0 -36 6q-13 6 -21 17q-10 -15 -25 -19q5 -8 5 -19q0 -40 -27 -58t-97 -18h-412v64l427 -1q48 0 66 5q17 5 17 12q0 8 -9 11
q-11 4 -28 5l-30 3v60l2 2l24 -3q21 -2 32 -3q8 -1 22 -1t21 4v21v212h48v-202q0 -19 6 -27q6 -7 30 -7q3 0 15 2q8 1 19 6v8v40h42v-30q0 -13 11 -18l35 44q35 45 63 62q28 18 60 18q33 0 57 -27t24 -66q0 -43 -26 -72q-25 -28 -69 -28h-103q-31 0 -50 6t-30 23
q-19 -28 -60 -28zM240 578h-2q-34 -1 -51 17q-16 17 -22 41h-1q-20 -36 -61 -36q-31 0 -48 18q-17 19 -17 43q0 28 20 50q20 21 56 38l46 20v36h49v-124q0 -13 6 -27q6 -13 32 -13q12 0 21 4q4 2 10.5 4t7.5 3q-1 3 -1 8v8v124h47v-115q0 -16 8 -27q7 -10 35 -10q21 0 27 9
t6 19v205h47v-209q0 -39 -19 -62q-20 -24 -63 -24q-30 0 -48 7q-19 7 -28 25q-4 -13 -18 -22q-13 -8 -39 -10zM889 -79v2q-40 0 -77 26v39l4 3q13 -3 39 -7q19 -3 34 -3q33 0 53 16q22 17 26 42l-1 1q-23 -13 -58 -13q-36 0 -58 20q-21 19 -21 54q0 23 6 42t17 35
q10 14 26 24q14 8 32 10q18 0 32 -10q15 -10 27 -30q13 -21 20 -48q8 -30 8 -63q0 -29 -9 -55t-24 -45q-15 -20 -34 -30t-42 -10zM789 638h18h124q17 0 29 9t12 23q0 18 -16 27t-43 9q-35 0 -60 -12t-51 -38l-13 -14v-4zM501 875h46v-202h-46v202zM664 723l286 128h4v-22
l-286 -128h-4v22zM620 433l-1 -1q-19 0 -30 11q-10 10 -10 27q0 20 12 35t29 15q18 0 29 -15q11 -16 11 -34q0 -17 -10 -27q-11 -11 -30 -11zM234 81l-1 -1q0 -10 10 -16q11 -6 33 -9l68 -10l-18 51q-5 11 -12 14q-8 3 -21 3q-24 0 -41 -10q-18 -11 -18 -22zM915 87l-2 -1
q25 0 49 6q-7 22 -23 40q-15 16 -36 16q-19 0 -33 -11q-13 -10 -13 -24q0 -26 58 -26zM68 124l194 87h4v-22l-194 -87h-4v22zM106 661h-1q11 0 26 5q13 4 24 9v54l-38 -10q-24 -8 -36 -16q-13 -9 -13 -19q0 -11 11 -17t27 -6zM105 310l-2 1q24 0 51 13v54l-38 -10
q-22 -6 -36 -15q-13 -9 -13 -19q0 -12 11 -18q10 -6 27 -6zM547 140l161 72h5v-22l-161 -72h-5v22zM677 758h1q-27 0 -27 34v19h16v-15q0 -11 11 -11q14 0 14 21v21h17v-23q10 -2 12 -2q13 0 13 14q0 6 -5 26h16q4 -9 4 -27q0 -22 -7 -30q-8 -9 -19 -9q-10 0 -18 5
q-6 -23 -28 -23zM348 324h1q-27 0 -27 33v19h16v-14q0 -12 11 -12q14 0 14 21v21h17v-22q6 -3 12 -3q13 0 13 14q0 7 -5 27h16q2 -8 3 -13t1 -15q0 -22 -7 -30q-7 -9 -19 -9q-10 0 -18 5q-6 -22 -28 -22zM273 812q-26 0 -26 33v19h15v-14q0 -12 12 -12q14 0 14 21v21h17v-22
q5 -3 12 -3q12 0 12 14q0 12 -5 27h16q5 -15 5 -28q0 -22 -7 -30q-8 -9 -19 -9q-10 0 -18 5q-6 -22 -28 -22zM251 390l151 68h5v-23l-152 -67h-4v22zM786 443l153 69h4v-22l-153 -70h-4v23zM397 125v3l27 27l26 -27v-3l-27 -26zM397 185v3l27 26l26 -26v-3l-26 -27zM615 456
q25 0 25 15q0 8 -7 14t-18 6t-18 -6t-7 -14q0 -15 25 -15z" />
    <glyph glyph-name="uniFDFB" unicode="&#xfdfb;" horiz-adv-x="2613" arabic-form="isolated" 
d="M788 -9l-3 -4q-43 0 -78 4q-43 5 -82 13v64h161h19q12 0 18 1l-127 541v8h66l127 -541q69 15 114 57q-3 24 -3 52v555h62v-548q0 -63 26 -91q26 -27 92 -27h41q45 0 81 3q34 3 69 14q33 10 66 27q35 18 74 42l88 58v2l-221 56q-27 7 -45 12q-17 4 -29 6q-10 1 -18 3
q-5 1 -13 1q-40 0 -40 -41v-30h-47v71q0 42 19 60t57 18q15 0 23 -1q5 -1 27 -5q15 -3 36 -9q5 -1 49 -13l170 -45q20 -6 38 -9q22 -4 32 -5l30 -3q10 -1 35 -1h20v-74h-67l-139 -107q-10 -7 -28 -21q-14 -10 -27 -18v-27q0 -89 53 -139q52 -49 150 -49q110 0 159 54
q50 55 50 170v667h61v-548q0 -64 27 -91t92 -27h40q45 0 81 3q34 3 69 14q33 11 66 27q35 18 74 42l89 58v2l-222 56q-27 8 -45 12q-19 5 -28 6q-11 2 -18 3q-5 1 -13 1q-40 0 -40 -41v-30h-47v71q0 42 18 60t56 18q15 0 23 -1q5 -1 27 -5q15 -3 36 -9q5 -1 49 -13l170 -45
q20 -6 38 -9q22 -4 32 -5l30 -3q10 -1 33 -1h21v-74h-67l-139 -107q-35 -27 -74 -52q-33 -21 -66 -33q-35 -13 -69 -17q-40 -5 -82 -5h-58q-77 0 -112 48h-1q-8 -138 -72 -210t-186 -72q-62 0 -110 18q-47 18 -81 53q-32 34 -49 84q-16 48 -13 113v7q-42 -22 -87 -31
q-44 -9 -102 -9h-58q-117 0 -150 95q-40 -53 -96 -79q-54 -25 -132 -25zM433 -5l-3 -4q-113 2 -135 115h-2q-26 -35 -61 -51q-37 -17 -78 -17q-33 0 -57 10q-27 11 -44 28t-28 42q-10 23 -10 51q0 56 40 99q41 44 115 87l122 70v68h55v-312q0 -58 22 -81q23 -24 70 -24
t73 22q27 22 27 70v573h61v-573q0 -89 -43 -131t-124 -42zM161 117v-1q76 0 130 42v12v185l-101 -51q-68 -35 -97 -63q-28 -27 -28 -59t27 -48q28 -17 69 -17zM1163 468l602 268h7v-47l-602 -268h-7v47zM41 470l119 49v3q-26 4 -39 18q-13 13 -13 33q0 19 6 35q6 15 17 30
q11 14 24 21q14 8 29 8q31 0 52 -27t21 -66q0 -38 -28 -63q-29 -25 -93 -51l-88 -36h-7v46zM2034 468l429 191h7v-46l-428 -191h-8v46zM1722 469h-2q-25 0 -45 11q-15 -61 -70 -61q-29 0 -44 17q-15 16 -15 45q0 5 2 23q2 14 6 26h32v-7q-3 -14 -3 -26q0 -13 6 -21t21 -8
q21 0 30 15t9 50v39h34v-36v-12q13 -7 31 -7q32 0 32 31q0 10 -3 23q-5 23 -7 30v7h36q9 -33 9 -64q0 -32 -14 -54q-13 -21 -45 -21zM1222 -109l52 51h9l52 -51l-52 -52h-9zM2093 -109l52 51h9l52 -51l-52 -52h-9zM209 546h-1q12 12 12 31t-12 33q-12 13 -28 13
q-15 0 -27 -13q-12 -14 -12 -30q0 -28 68 -34z" />
    <glyph glyph-name="uniFE82" unicode="&#x622;" horiz-adv-x="259" arabic-form="final" 
d="M241 0v-1q-82 0 -120 44t-38 138v439h61v-439q0 -53 27 -77t85 -24h3v-62l-17 -18h-1zM-5 721l-2 -1q11 14 28 21t38 7q14 0 29 -3q20 -4 31 -6q9 -2 29 -6q15 -3 29 -3t26 3q11 3 20 8h8v-39q-23 -18 -57 -18q-14 0 -29 3q-20 4 -29 6q-20 4 -29 6q-13 3 -27 3
q-15 0 -33 -5q-16 -4 -25 -15h-7v39z" />
    <glyph glyph-name="uniFE84" unicode="&#x623;" horiz-adv-x="259" arabic-form="final" 
d="M241 0v-1q-82 0 -120 44t-38 138v439h61v-439q0 -53 27 -77t85 -24h3v-62l-17 -18h-1zM52 738q-14 23 -14 45q0 18 8 36q8 17 21 29q15 13 31 20q19 8 38 8q59 0 59 -61v-22h-35v8q0 29 -32 29q-23 0 -39 -13t-16 -30q0 -25 32 -49h104v-46h-191v46h34z" />
    <glyph glyph-name="uniFE86" unicode="&#x624;" horiz-adv-x="428" arabic-form="final" 
d="M149 -255l-4 -7q-45 0 -82 15q-36 15 -76 42v44l7 5q37 -12 70 -19q30 -6 59 -6q37 0 70 12t59 35q27 23 44 54q17 30 25 72h-121q-78 0 -122 38t-44 110q0 39 14 81q14 41 36 72t54 51t66 20q38 0 69 -21t54 -59t36 -90t15 -116h48v-61l-18 -19h-35q-7 -56 -27 -102
q-20 -48 -49 -80q-30 -33 -67 -52t-81 -19zM323 73l-4 -2q-3 43 -15 81q-13 39 -28 66q-16 28 -39 45q-22 16 -48 16q-23 0 -43 -12q-19 -12 -33 -32q-13 -19 -21 -42q-8 -24 -8 -45q0 -39 31 -57q32 -18 88 -18h120zM127 477q-14 23 -14 45q0 18 8 36q8 17 21 29
q15 13 31 20q19 8 38 8q59 0 59 -61v-22h-35v8q0 29 -32 29q-23 0 -39 -13t-16 -30q0 -25 32 -49h104v-46h-191v46h34z" />
    <glyph glyph-name="uniFE88" unicode="&#x625;" horiz-adv-x="259" arabic-form="final" 
d="M241 0v-1q-82 0 -120 44t-38 138v563h61v-563q0 -53 27 -77t85 -24h3v-62l-17 -18h-1zM52 -205q-14 23 -14 45q0 18 8 36q8 17 21 29q15 13 31 20q19 8 38 8q59 0 59 -61v-22h-35v8q0 29 -32 29q-23 0 -39 -13t-16 -30q0 -25 32 -49h104v-46h-191v46h34z" />
    <glyph glyph-name="uniFE8A" unicode="&#x626;" horiz-adv-x="717" arabic-form="final" 
d="M380 -235l-3 -3q-169 0 -252 69q-82 69 -82 218q0 45 6 86q5 35 14 72h46v-7q-7 -32 -12 -69q-4 -33 -4 -72q0 -108 71 -159q70 -51 213 -51q62 0 107 7q50 8 81 19q33 12 51 30t18 39q0 16 -8 27t-27 18q-22 8 -53 14q-47 9 -84 14l-64 9v77l4 4l60 -9q60 -11 124 -15
q57 -4 129 -4v-61l-18 -19h-24q4 -5 10 -17q4 -8 4 -21q0 -46 -21 -82q-22 -37 -61 -62q-41 -26 -97 -39q-55 -13 -128 -13zM23 325q-14 23 -14 45q0 18 8 36q8 17 21 29q15 13 31 20q19 8 38 8q59 0 59 -61v-22h-35v8q0 29 -32 29q-23 0 -39 -13t-16 -30q0 -25 32 -49h104
v-46h-191v46h34z" />
    <glyph glyph-name="uniFE8B" unicode="&#x626;" horiz-adv-x="222" arabic-form="initial" 
d="M0 80l19 1q54 0 78 24t24 77q0 30 -6 74q-7 54 -16 98l3 5h57q8 -43 13 -91q4 -39 4 -78q0 -98 -39 -144t-121 -46h-34v63zM58 477q-14 23 -14 45q0 18 8 36q8 17 21 29q15 13 31 20q19 8 38 8q59 0 59 -61v-22h-35v8q0 29 -32 29q-23 0 -39 -13t-16 -30q0 -25 32 -49
h104v-46h-191v46h34z" />
    <glyph glyph-name="uniFE8C" unicode="&#x626;" horiz-adv-x="279" arabic-form="medial" 
d="M0 80l-1 -2q71 0 120 35q-4 19 -5 32q-2 22 -2 36v116h51v-116q0 -57 27 -79q26 -22 84 -22h4v-62l-18 -18h-1q-95 0 -127 71q-53 -71 -150 -71v63zM76 414q-14 23 -14 45q0 18 8 36q8 17 21 29q15 13 31 20q19 8 38 8q59 0 59 -61v-22h-35v8q0 29 -32 29q-23 0 -39 -13
t-16 -30q0 -25 32 -49h104v-46h-191v46h34z" />
    <glyph glyph-name="uniFE8E" unicode="&#x627;" horiz-adv-x="259" arabic-form="final" 
d="M241 0v-1q-82 0 -120 44t-38 138v563h61v-563q0 -53 27 -77t85 -24h3v-62l-17 -18h-1z" />
    <glyph glyph-name="uniFE90" unicode="&#x628;" horiz-adv-x="868" arabic-form="final" 
d="M722 113l-1 -4q30 -17 68 -25q34 -7 78 -7v-61l-18 -19q-48 0 -96 17q-47 16 -90 57q-71 -42 -153 -63t-171 -21q-79 0 -134 12q-56 12 -91 37q-36 25 -52 64q-17 40 -17 93q0 58 21 133h47v-8q-7 -28 -12 -54q-4 -23 -4 -45q0 -76 60 -109t197 -33q120 0 228 39t188 110
h7v-65q-28 -28 -55 -48zM397 -98l52 -51l-52 -51h-8l-53 51l53 51h8z" />
    <glyph glyph-name="uniFE91" unicode="&#x628;" horiz-adv-x="222" arabic-form="initial" 
d="M0 80l19 1q54 0 78 24t24 77q0 30 -6 74q-7 54 -16 98l3 5h57q8 -43 13 -91q4 -39 4 -78q0 -98 -39 -144t-121 -46h-34v63zM88 -93l52 -51l-52 -51h-8l-53 51l53 51h8z" />
    <glyph glyph-name="uniFE92" unicode="&#x628;" horiz-adv-x="279" arabic-form="medial" 
d="M0 80l-1 -2q71 0 120 35q-4 19 -5 32q-2 22 -2 36v116h51v-116q0 -57 27 -79q26 -22 84 -22h4v-62l-18 -18h-1q-95 0 -127 71q-53 -71 -150 -71v63zM136 -96l52 -51l-52 -51h-8l-53 51l53 51h8z" />
    <glyph glyph-name="uniFE94" unicode="&#x629;" horiz-adv-x="476" arabic-form="final" 
d="M459 0l-1 -4q-67 1 -101 29q-33 27 -43 85h-3q-26 -35 -61 -51q-37 -17 -78 -17q-33 0 -57 10q-27 11 -44 28t-28 42q-10 23 -10 51q0 56 40 99q41 44 114 87l122 70v68h55v-312q0 -57 25 -81t87 -24v-62zM178 121v-2q76 0 129 42v198l-100 -52q-38 -20 -59 -33
q-22 -14 -39 -29q-15 -14 -21 -28q-6 -15 -6 -31q0 -32 27 -48q28 -17 69 -17zM295 550h-9l-48 48l-49 -48h-8l-53 51l53 51h8l49 -48l48 48h9l52 -51z" />
    <glyph glyph-name="uniFE96" unicode="&#x62a;" horiz-adv-x="868" arabic-form="final" 
d="M722 113l-1 -4q30 -17 68 -25q34 -7 78 -7v-61l-18 -19q-48 0 -96 17q-47 16 -90 57q-71 -42 -153 -63t-171 -21q-79 0 -134 12q-56 12 -91 37q-36 25 -52 64q-17 40 -17 93q0 58 21 133h47v-8q-7 -28 -12 -54q-4 -23 -4 -45q0 -76 60 -109t197 -33q120 0 228 39t188 110
h7v-65q-28 -28 -55 -48zM450 345h-9l-48 48l-49 -48h-8l-53 51l53 51h8l49 -48l48 48h9l52 -51z" />
    <glyph glyph-name="uniFE97" unicode="&#x62a;" horiz-adv-x="222" arabic-form="initial" 
d="M0 80l19 1q54 0 78 24t24 77q0 30 -6 74q-7 54 -16 98l3 5h57q8 -43 13 -91q4 -39 4 -78q0 -98 -39 -144t-121 -46h-34v63zM177 460h-9l-48 48l-49 -48h-8l-53 51l53 51h8l49 -48l48 48h9l52 -51z" />
    <glyph glyph-name="uniFE98" unicode="&#x62a;" horiz-adv-x="279" arabic-form="medial" 
d="M0 80l-1 -2q71 0 120 35q-4 19 -5 32q-2 22 -2 36v116h51v-116q0 -57 27 -79q26 -22 84 -22h4v-62l-18 -18h-1q-95 0 -127 71q-53 -71 -150 -71v63zM195 397h-9l-48 48l-49 -48h-8l-53 51l53 51h8l49 -48l48 48h9l52 -51z" />
    <glyph glyph-name="uniFE9A" unicode="&#x62b;" horiz-adv-x="868" arabic-form="final" 
d="M722 113l-1 -4q30 -17 68 -25q34 -7 78 -7v-61l-18 -19q-48 0 -96 17q-47 16 -90 57q-71 -42 -153 -63t-171 -21q-79 0 -134 12q-56 12 -91 37q-36 25 -52 64q-17 40 -17 93q0 58 21 133h47v-8q-7 -28 -12 -54q-4 -23 -4 -45q0 -76 60 -109t197 -33q120 0 228 39t188 110
h7v-65q-28 -28 -55 -48zM339 500l49 49h9l50 -49l-50 -49h-9zM450 345h-9l-48 48l-49 -48h-8l-53 51l53 51h8l49 -48l48 48h9l52 -51z" />
    <glyph glyph-name="uniFE9B" unicode="&#x62b;" horiz-adv-x="222" arabic-form="initial" 
d="M0 80l19 1q54 0 78 24t24 77q0 30 -6 74q-7 54 -16 98l3 5h57q8 -43 13 -91q4 -39 4 -78q0 -98 -39 -144t-121 -46h-34v63zM66 615l49 49h9l50 -49l-50 -49h-9zM177 460h-9l-48 48l-49 -48h-8l-53 51l53 51h8l49 -48l48 48h9l52 -51z" />
    <glyph glyph-name="uniFE9C" unicode="&#x62b;" horiz-adv-x="279" arabic-form="medial" 
d="M0 80l-1 -2q71 0 120 35q-4 19 -5 32q-2 22 -2 36v116h51v-116q0 -57 27 -79q26 -22 84 -22h4v-62l-18 -18h-1q-95 0 -127 71q-53 -71 -150 -71v63zM84 552l49 49h9l50 -49l-50 -49h-9zM195 397h-9l-48 48l-49 -48h-8l-53 51l53 51h8l49 -48l48 48h9l52 -51z" />
    <glyph glyph-name="uniFE9E" unicode="&#x62c;" horiz-adv-x="661" arabic-form="final" 
d="M661 18l-24 -20h-35q-78 0 -113 45q-35 46 -35 139v96l-63 -23q-145 -54 -222 -123t-77 -167q0 -45 18 -82t54 -64t87 -42t116 -15q64 0 122 14q57 14 107 36h7v-64q-43 -34 -110 -54q-64 -19 -140 -19q-72 0 -132 20q-59 20 -99 55q-40 36 -63 86q-22 48 -22 111
q0 61 23 113q23 53 67 95q46 45 111 83q64 38 154 76l51 20v3l-269 21q-26 2 -39 -6q-13 -7 -13 -42v-24h-47v81q0 41 20 58q19 16 78 10l270 -27q27 -2 44 -3q18 -1 33 -3q10 -1 28 -1h32h10v-74l-79 -30v-114q0 -59 27 -81q26 -22 85 -22h38v-62zM313 40l52 -51l-52 -51
h-8l-53 51l53 51h8z" />
    <glyph glyph-name="uniFE9F" unicode="&#x62c;" horiz-adv-x="612" arabic-form="initial" 
d="M521 215l-140 -110q-35 -27 -74 -52q-33 -21 -66 -33q-35 -13 -69 -17q-40 -5 -82 -5h-106v63l18 17h88q45 0 81 3q34 3 69 14q33 11 66 27q35 18 74 42l88 58v2l-221 56q-27 8 -45 12t-30 6q-11 1 -19 3q-5 1 -15 1q-39 0 -39 -41v-30h-47v71q0 42 18 60t56 18
q14 0 22 -1q2 0 28 -5q15 -3 37 -9q5 -1 49 -13l170 -45q20 -6 38 -9q22 -4 32 -5l30 -3q10 -1 35 -1h20v-74h-66zM287 -97l52 -51l-52 -51h-8l-53 51l53 51h8z" />
    <glyph glyph-name="uniFEA0" unicode="&#x62c;" horiz-adv-x="635" arabic-form="medial" 
d="M635 18l-16 -23h-1q-76 0 -112 37t-36 115v24l-89 -68q-35 -27 -74 -52q-33 -21 -66 -33q-35 -13 -69 -17q-40 -5 -82 -5h-106v63l18 17h88q45 0 81 3q34 3 69 14q33 11 66 27q35 18 74 42l88 58v2l-221 56q-27 8 -45 12t-30 6q-11 1 -19 3q-5 1 -15 1q-39 0 -39 -41v-30
h-47v71q0 42 18 60t56 18q14 0 22 -1q2 0 28 -5q15 -3 37 -9q5 -1 49 -13l170 -45q20 -6 38 -9q22 -4 32 -5l30 -3q10 -1 35 -1h20v-74h-66v-48q0 -24 5 -42q5 -17 18 -26q12 -8 35 -13q19 -4 53 -4h3v-62zM288 -99l52 -51l-52 -51h-8l-53 51l53 51h8z" />
    <glyph glyph-name="uniFEA2" unicode="&#x62d;" horiz-adv-x="661" arabic-form="final" 
d="M661 18l-24 -20h-35q-78 0 -113 45q-35 46 -35 139v96l-63 -23q-145 -54 -222 -123t-77 -167q0 -45 18 -82t54 -64t87 -42t116 -15q64 0 122 14q57 14 107 36h7v-64q-43 -34 -110 -54q-64 -19 -140 -19q-72 0 -132 20q-59 20 -99 55q-40 36 -63 86q-22 48 -22 111
q0 61 23 113q23 53 67 95q46 45 111 83q64 38 154 76l51 20v3l-269 21q-26 2 -39 -6q-13 -7 -13 -42v-24h-47v81q0 41 20 58q19 16 78 10l270 -27q27 -2 44 -3q18 -1 33 -3q10 -1 28 -1h32h10v-74l-79 -30v-114q0 -59 27 -81q26 -22 85 -22h38v-62z" />
    <glyph glyph-name="uniFEA3" unicode="&#x62d;" horiz-adv-x="612" arabic-form="initial" 
d="M521 215l-140 -110q-35 -27 -74 -52q-33 -21 -66 -33q-35 -13 -69 -17q-40 -5 -82 -5h-106v63l18 17h88q45 0 81 3q34 3 69 14q33 11 66 27q35 18 74 42l88 58v2l-221 56q-27 8 -45 12t-30 6q-11 1 -19 3q-5 1 -15 1q-39 0 -39 -41v-30h-47v71q0 42 18 60t56 18
q14 0 22 -1q2 0 28 -5q15 -3 37 -9q5 -1 49 -13l170 -45q20 -6 38 -9q22 -4 32 -5l30 -3q10 -1 35 -1h20v-74h-66z" />
    <glyph glyph-name="uniFEA4" unicode="&#x62d;" horiz-adv-x="635" arabic-form="medial" 
d="M635 18l-16 -23h-1q-76 0 -112 37t-36 115v24l-89 -68q-35 -27 -74 -52q-33 -21 -66 -33q-35 -13 -69 -17q-40 -5 -82 -5h-106v63l18 17h88q45 0 81 3q34 3 69 14q33 11 66 27q35 18 74 42l88 58v2l-221 56q-27 8 -45 12t-30 6q-11 1 -19 3q-5 1 -15 1q-39 0 -39 -41v-30
h-47v71q0 42 18 60t56 18q14 0 22 -1q2 0 28 -5q15 -3 37 -9q5 -1 49 -13l170 -45q20 -6 38 -9q22 -4 32 -5l30 -3q10 -1 35 -1h20v-74h-66v-48q0 -24 5 -42q5 -17 18 -26q12 -8 35 -13q19 -4 53 -4h3v-62z" />
    <glyph glyph-name="uniFEA6" unicode="&#x62e;" horiz-adv-x="661" arabic-form="final" 
d="M661 18l-24 -20h-35q-78 0 -113 45q-35 46 -35 139v96l-63 -23q-145 -54 -222 -123t-77 -167q0 -45 18 -82t54 -64t87 -42t116 -15q64 0 122 14q57 14 107 36h7v-64q-43 -34 -110 -54q-64 -19 -140 -19q-72 0 -132 20q-59 20 -99 55q-40 36 -63 86q-22 48 -22 111
q0 61 23 113q23 53 67 95q46 45 111 83q64 38 154 76l51 20v3l-269 21q-26 2 -39 -6q-13 -7 -13 -42v-24h-47v81q0 41 20 58q19 16 78 10l270 -27q27 -2 44 -3q18 -1 33 -3q10 -1 28 -1h32h10v-74l-79 -30v-114q0 -59 27 -81q26 -22 85 -22h38v-62zM306 637l52 -51l-52 -51
h-8l-53 51l53 51h8z" />
    <glyph glyph-name="uniFEA7" unicode="&#x62e;" horiz-adv-x="612" arabic-form="initial" 
d="M521 215l-140 -110q-35 -27 -74 -52q-33 -21 -66 -33q-35 -13 -69 -17q-40 -5 -82 -5h-106v63l18 17h88q45 0 81 3q34 3 69 14q33 11 66 27q35 18 74 42l88 58v2l-221 56q-27 8 -45 12t-30 6q-11 1 -19 3q-5 1 -15 1q-39 0 -39 -41v-30h-47v71q0 42 18 60t56 18
q14 0 22 -1q2 0 28 -5q15 -3 37 -9q5 -1 49 -13l170 -45q20 -6 38 -9q22 -4 32 -5l30 -3q10 -1 35 -1h20v-74h-66zM266 581l52 -51l-52 -51h-8l-53 51l53 51h8z" />
    <glyph glyph-name="uniFEA8" unicode="&#x62e;" horiz-adv-x="635" arabic-form="medial" 
d="M635 18l-16 -23h-1q-76 0 -112 37t-36 115v24l-89 -68q-35 -27 -74 -52q-33 -21 -66 -33q-35 -13 -69 -17q-40 -5 -82 -5h-106v63l18 17h88q45 0 81 3q34 3 69 14q33 11 66 27q35 18 74 42l88 58v2l-221 56q-27 8 -45 12t-30 6q-11 1 -19 3q-5 1 -15 1q-39 0 -39 -41v-30
h-47v71q0 42 18 60t56 18q14 0 22 -1q2 0 28 -5q15 -3 37 -9q5 -1 49 -13l170 -45q20 -6 38 -9q22 -4 32 -5l30 -3q10 -1 35 -1h20v-74h-66v-48q0 -24 5 -42q5 -17 18 -26q12 -8 35 -13q19 -4 53 -4h3v-62zM267 579l52 -51l-52 -51h-8l-53 51l53 51h8z" />
    <glyph glyph-name="uniFEAA" unicode="&#x62f;" horiz-adv-x="533" arabic-form="final" 
d="M407 178l1 2q14 -50 42 -74t84 -24v-62l-17 -18q-46 0 -78 17q-31 17 -54 54q-58 -82 -195 -82q-86 0 -123 27t-37 95v35h48v-19q0 -31 30 -45q29 -13 104 -13q97 0 153 41l-9 24q-3 8 -9 26l-87 293v8h62z" />
    <glyph glyph-name="uniFEAC" unicode="&#x630;" horiz-adv-x="533" arabic-form="final" 
d="M407 178l1 2q14 -50 42 -74t84 -24v-62l-17 -18q-46 0 -78 17q-31 17 -54 54q-58 -82 -195 -82q-86 0 -123 27t-37 95v35h48v-19q0 -31 30 -45q29 -13 104 -13q97 0 153 41l-9 24q-3 8 -9 26l-87 293v8h62zM287 668l52 -51l-52 -51h-8l-53 51l53 51h8z" />
    <glyph glyph-name="uniFEAE" unicode="&#x631;" horiz-adv-x="375" arabic-form="final" 
d="M39 -255l-1 -1q-38 0 -72 15q-33 14 -66 41v44l7 5q29 -12 57 -19q26 -6 51 -6q38 0 71 18q32 18 57 50t38 77q14 47 14 98q0 29 -9 81q-10 57 -25 115l3 5h58l20 -97q10 -49 42 -70t91 -21v-61l-18 -19q-37 0 -64 9q-26 9 -43 29l-3 -1q-5 -66 -22 -118q-18 -55 -46 -93
q-29 -40 -64 -60q-36 -21 -76 -21z" />
    <glyph glyph-name="uniFEB0" unicode="&#x632;" horiz-adv-x="375" arabic-form="final" 
d="M39 -255l-1 -1q-38 0 -72 15q-33 14 -66 41v44l7 5q29 -12 57 -19q26 -6 51 -6q38 0 71 18q32 18 57 50t38 77q14 47 14 98q0 29 -9 81q-10 57 -25 115l3 5h58l20 -97q10 -49 42 -70t91 -21v-61l-18 -19q-37 0 -64 9q-26 9 -43 29l-3 -1q-5 -66 -22 -118q-18 -55 -46 -93
q-29 -40 -64 -60q-36 -21 -76 -21zM174 470l52 -51l-52 -51h-8l-53 51l53 51h8z" />
    <glyph glyph-name="uniFEB2" unicode="&#x633;" horiz-adv-x="1152" arabic-form="final" 
d="M317 -235l-1 -2q-62 0 -113 17q-50 17 -85 49t-55 80q-19 45 -19 108q0 38 6 80q6 39 17 80h46v-7q-10 -40 -14 -69q-5 -37 -5 -62q0 -95 60 -143t161 -48q215 0 215 201q0 32 -6 74q-6 43 -21 107l3 5h58l13 -67q11 -54 41 -77q31 -23 87 -23q47 0 65 21t18 79v67h51
v-65q0 -47 -7 -76q13 -13 35 -19q21 -6 44 -6q18 0 33 5q14 5 21 16q8 13 11 31q3 19 3 49v97h51v-95q0 -25 -1 -36l-3 -33q28 -12 58 -17q33 -6 70 -6v-61l-17 -19q-35 0 -70 9q-33 9 -63 29q-25 -49 -93 -49q-65 0 -104 45q-15 -21 -41 -33t-62 -12q-79 0 -121 46l-3 -1
q-5 -132 -73 -200q-69 -69 -190 -69z" />
    <glyph glyph-name="uniFEB3" unicode="&#x633;" horiz-adv-x="657" arabic-form="initial" 
d="M285 -10l-1 -2q-92 0 -150 55q-38 -45 -126 -45h-27v61l18 19h10q30 0 53 5q22 5 35 15t19 28t6 44v67h51v-65q0 -37 -8 -71q23 -12 57 -22q32 -9 63 -9q24 0 42 5q17 5 27 16q11 12 15 31q4 17 4 48v67h51v-65q0 -47 -7 -76q29 -26 75 -26q69 0 69 77q0 20 -1 30
q-2 20 -4 31q-5 29 -7 37q-1 5 -4.5 21.5t-5.5 26.5l3 5h55l7 -45q4 -27 5 -37q2 -24 2 -34v-34q0 -75 -31 -116q-32 -42 -90 -42q-61 0 -100 45q-32 -45 -105 -45z" />
    <glyph glyph-name="uniFEB4" unicode="&#x633;" horiz-adv-x="734" arabic-form="medial" 
d="M281 -10l-2 -2q-40 0 -79 14q-37 13 -66 41q-38 -45 -126 -45h-27v61l18 19h10q30 0 53 5q22 5 35 15t19 28t6 44v67h51v-65q0 -37 -8 -71q22 -13 57 -22q33 -9 68 -9q21 0 38 5q15 4 24 17q10 13 14 31q4 17 4 48v67h51v-65q0 -47 -7 -76q30 -27 77 -27q39 0 54 21
t15 80v97h51v-95q0 -39 -6 -70q27 -11 59 -17q33 -6 71 -6v-61l-18 -19q-35 0 -70 9q-33 9 -63 29q-28 -49 -93 -49t-102 45q-17 -22 -42 -33q-27 -11 -66 -11z" />
    <glyph glyph-name="uniFEB6" unicode="&#x634;" horiz-adv-x="1152" arabic-form="final" 
d="M317 -235l-1 -2q-62 0 -113 17q-50 17 -85 49t-55 80q-19 45 -19 108q0 38 6 80q6 39 17 80h46v-7q-10 -40 -14 -69q-5 -37 -5 -62q0 -95 60 -143t161 -48q215 0 215 201q0 32 -6 74q-6 43 -21 107l3 5h58l13 -67q11 -54 41 -77q31 -23 87 -23q47 0 65 21t18 79v67h51
v-65q0 -47 -7 -76q13 -13 35 -19q21 -6 44 -6q18 0 33 5q14 5 21 16q8 13 11 31q3 19 3 49v97h51v-95q0 -25 -1 -36l-3 -33q28 -12 58 -17q33 -6 70 -6v-61l-17 -19q-35 0 -70 9q-33 9 -63 29q-25 -49 -93 -49q-65 0 -104 45q-15 -21 -41 -33t-62 -12q-79 0 -121 46l-3 -1
q-5 -132 -73 -200q-69 -69 -190 -69zM755 492l49 49h9l50 -49l-50 -49h-9zM866 337h-9l-48 48l-49 -48h-8l-53 51l53 51h8l49 -48l48 48h9l52 -51z" />
    <glyph glyph-name="uniFEB7" unicode="&#x634;" horiz-adv-x="657" arabic-form="initial" 
d="M285 -10l-1 -2q-92 0 -150 55q-38 -45 -126 -45h-27v61l18 19h10q30 0 53 5q22 5 35 15t19 28t6 44v67h51v-65q0 -37 -8 -71q23 -12 57 -22q32 -9 63 -9q24 0 42 5q17 5 27 16q11 12 15 31q4 17 4 48v67h51v-65q0 -47 -7 -76q29 -26 75 -26q69 0 69 77q0 20 -1 30
q-2 20 -4 31q-5 29 -7 37q-1 5 -4.5 21.5t-5.5 26.5l3 5h55l7 -45q4 -27 5 -37q2 -24 2 -34v-34q0 -75 -31 -116q-32 -42 -90 -42q-61 0 -100 45q-32 -45 -105 -45zM342 492l49 49h9l50 -49l-50 -49h-9zM453 337h-9l-48 48l-49 -48h-8l-53 51l53 51h8l49 -48l48 48h9l52 -51
z" />
    <glyph glyph-name="uniFEB8" unicode="&#x634;" horiz-adv-x="734" arabic-form="medial" 
d="M281 -10l-2 -2q-40 0 -79 14q-37 13 -66 41q-38 -45 -126 -45h-27v61l18 19h10q30 0 53 5q22 5 35 15t19 28t6 44v67h51v-65q0 -37 -8 -71q22 -13 57 -22q33 -9 68 -9q21 0 38 5q15 4 24 17q10 13 14 31q4 17 4 48v67h51v-65q0 -47 -7 -76q30 -27 77 -27q39 0 54 21
t15 80v97h51v-95q0 -39 -6 -70q27 -11 59 -17q33 -6 71 -6v-61l-18 -19q-35 0 -70 9q-33 9 -63 29q-28 -49 -93 -49t-102 45q-17 -22 -42 -33q-27 -11 -66 -11zM341 491l49 49h9l50 -49l-50 -49h-9zM452 336h-9l-48 48l-49 -48h-8l-53 51l53 51h8l49 -48l48 48h9l52 -51z
" />
    <glyph glyph-name="uniFEBA" unicode="&#x635;" horiz-adv-x="1262" arabic-form="final" 
d="M317 -235h-1q-62 0 -113 17q-50 17 -85 49t-55 80q-19 45 -19 108q0 38 6 80q6 39 17 80h46v-7q-10 -40 -14 -69q-5 -37 -5 -62q0 -95 60 -143t161 -48q215 0 215 201q0 32 -6 74q-6 43 -21 107l3 5h58l13 -67q9 -46 37 -67l87 108q33 42 68 78q32 33 62 53q31 20 62 29
t66 9q43 0 79 -15q37 -15 62 -42q26 -28 41 -63q15 -36 15 -78q0 -36 -14 -70q28 -16 59 -24q28 -7 61 -7v-64l-16 -16q-35 0 -71 12t-71 41q-28 -26 -69 -39q-42 -14 -91 -14h-252q-75 0 -110 41h-2q-3 -133 -72 -205t-191 -72zM955 80v-2q83 0 117 19t34 60q0 32 -12 59
t-33 45q-22 19 -50 29q-30 11 -63 11q-58 0 -111 -33q-53 -34 -114 -109l-57 -72l1 -2q22 -5 42 -5h246z" />
    <glyph glyph-name="uniFEBB" unicode="&#x635;" horiz-adv-x="765" arabic-form="initial" 
d="M0 80l-1 -1q71 0 120 35q-4 19 -5 32q-2 22 -2 36v54h51v-54q0 -50 22 -75l84 103q33 42 68 78q32 33 62 53q31 20 62 29t66 9q43 0 79 -15q37 -15 62 -42q26 -28 41 -63q15 -36 15 -78q0 -41 -15 -74q-15 -34 -43 -57t-67 -37q-38 -13 -87 -13h-250q-96 0 -129 71
q-53 -71 -151 -71v63zM523 79l-2 -3q82 0 116 19q35 20 35 60q0 32 -12 59t-33 45q-22 19 -50 29q-30 11 -63 11q-58 0 -111 -33q-53 -34 -114 -109l-58 -72l1 -2l21 -3q7 -1 23 -1h247z" />
    <glyph glyph-name="uniFEBC" unicode="&#x635;" horiz-adv-x="830" arabic-form="medial" 
d="M0 80l-2 -1q71 0 120 35q-4 19 -5 32q-2 22 -2 36v54h51v-54q0 -50 22 -75l84 103q33 42 68 78q32 33 62 53q31 20 62 29q32 9 66 9q43 0 79 -15q37 -15 62 -42q26 -28 41 -63q15 -36 15 -78q0 -36 -14 -70q28 -16 59 -24q28 -7 61 -7v-64l-17 -16q-34 0 -70 12
q-34 11 -70 41q-28 -25 -69 -39q-42 -14 -91 -14h-250q-96 0 -129 71q-53 -71 -151 -71v63zM522 79l-2 -3q82 0 116 19q35 20 35 60q0 32 -12 59t-33 45q-22 19 -50 29q-30 11 -63 11q-59 0 -111 -33q-53 -34 -114 -109l-58 -72l1 -2l21 -3q7 -1 23 -1h247z" />
    <glyph glyph-name="uniFEBE" unicode="&#x636;" horiz-adv-x="1262" arabic-form="final" 
d="M317 -235h-1q-62 0 -113 17q-50 17 -85 49t-55 80q-19 45 -19 108q0 38 6 80q6 39 17 80h46v-7q-10 -40 -14 -69q-5 -37 -5 -62q0 -95 60 -143t161 -48q215 0 215 201q0 32 -6 74q-6 43 -21 107l3 5h58l13 -67q9 -46 37 -67l87 108q33 42 68 78q32 33 62 53q31 20 62 29
t66 9q43 0 79 -15q37 -15 62 -42q26 -28 41 -63q15 -36 15 -78q0 -36 -14 -70q28 -16 59 -24q28 -7 61 -7v-64l-16 -16q-35 0 -71 12t-71 41q-28 -26 -69 -39q-42 -14 -91 -14h-252q-75 0 -110 41h-2q-3 -133 -72 -205t-191 -72zM955 80v-2q83 0 117 19t34 60q0 32 -12 59
t-33 45q-22 19 -50 29q-30 11 -63 11q-58 0 -111 -33q-53 -34 -114 -109l-57 -72l1 -2q22 -5 42 -5h246zM923 582l52 -51l-52 -51h-8l-53 51l53 51h8z" />
    <glyph glyph-name="uniFEBF" unicode="&#x636;" horiz-adv-x="765" arabic-form="initial" 
d="M0 80l-1 -1q71 0 120 35q-4 19 -5 32q-2 22 -2 36v54h51v-54q0 -50 22 -75l84 103q33 42 68 78q32 33 62 53q31 20 62 29t66 9q43 0 79 -15q37 -15 62 -42q26 -28 41 -63q15 -36 15 -78q0 -41 -15 -74q-15 -34 -43 -57t-67 -37q-38 -13 -87 -13h-250q-96 0 -129 71
q-53 -71 -151 -71v63zM523 79l-2 -3q82 0 116 19q35 20 35 60q0 32 -12 59t-33 45q-22 19 -50 29q-30 11 -63 11q-58 0 -111 -33q-53 -34 -114 -109l-58 -72l1 -2l21 -3q7 -1 23 -1h247zM489 580l52 -51l-52 -51h-8l-53 51l53 51h8z" />
    <glyph glyph-name="uniFEC0" unicode="&#x636;" horiz-adv-x="830" arabic-form="medial" 
d="M0 80l-2 -1q71 0 120 35q-4 19 -5 32q-2 22 -2 36v54h51v-54q0 -50 22 -75l84 103q33 42 68 78q32 33 62 53q31 20 62 29q32 9 66 9q43 0 79 -15q37 -15 62 -42q26 -28 41 -63q15 -36 15 -78q0 -36 -14 -70q28 -16 59 -24q28 -7 61 -7v-64l-17 -16q-34 0 -70 12
q-34 11 -70 41q-28 -25 -69 -39q-42 -14 -91 -14h-250q-96 0 -129 71q-53 -71 -151 -71v63zM522 79l-2 -3q82 0 116 19q35 20 35 60q0 32 -12 59t-33 45q-22 19 -50 29q-30 11 -63 11q-59 0 -111 -33q-53 -34 -114 -109l-58 -72l1 -2l21 -3q7 -1 23 -1h247zM488 580l52 -51
l-52 -51h-8l-53 51l53 51h8z" />
    <glyph glyph-name="uniFEC2" unicode="&#x637;" horiz-adv-x="773" arabic-form="final" 
d="M107 80l33 41v622h62v-547l10 14q33 42 68 78q32 33 62 53q31 20 62 29q32 9 66 9q43 0 79 -15q37 -15 62 -42q26 -28 41 -63q15 -36 15 -78q0 -36 -14 -70q28 -16 59 -24q28 -7 61 -7v-64l-16 -16q-35 0 -71 12t-71 41q-29 -25 -69 -39q-42 -14 -91 -14h-437v80h89z
M466 78l-1 -2q83 0 117 19t34 60q0 32 -12 59t-33 45q-22 19 -50 29q-30 11 -63 11q-58 0 -111 -33q-53 -34 -114 -109l-59 -74l2 -5h290z" />
    <glyph glyph-name="uniFEC3" unicode="&#x637;" horiz-adv-x="675" arabic-form="initial" 
d="M437 381l-2 -2q43 0 79 -15t63 -42t42 -63t15 -78q0 -41 -15 -74q-15 -34 -43 -57t-67 -37q-38 -13 -87 -13h-440v63l18 17h74l33 43v622h62v-547l10 14q33 42 68 78q32 33 62 53q31 20 62 29t66 9zM432 78l-2 -2q82 0 116 19q35 20 35 60q0 32 -12 59t-33 45
q-22 19 -49 29q-30 11 -63 11q-60 0 -112 -33q-53 -34 -114 -109l-59 -74l2 -5h291z" />
    <glyph glyph-name="uniFEC4" unicode="&#x637;" horiz-adv-x="739" arabic-form="medial" 
d="M620 111l-2 -3q28 -16 59 -24q28 -7 61 -7v-64l-16 -16q-35 0 -71 12t-71 41q-28 -25 -68 -39t-90 -14h-440v63l18 17h74l33 43v622h62v-547l10 14q33 42 68 78q32 33 62 53q31 20 62 29t66 9q43 0 79 -15t63 -42t42 -63t15 -78q0 -21 -4 -36q-4 -16 -12 -33zM432 77
l-2 -2q82 0 116 19q35 20 35 60q0 32 -12 59t-33 45q-22 19 -49 29q-30 11 -63 11q-60 0 -112 -33q-53 -34 -114 -109l-59 -74l2 -5h291z" />
    <glyph glyph-name="uniFEC6" unicode="&#x638;" horiz-adv-x="773" arabic-form="final" 
d="M107 80l33 41v622h62v-547l10 14q33 42 68 78q32 33 62 53q31 20 62 29q32 9 66 9q43 0 79 -15q37 -15 62 -42q26 -28 41 -63q15 -36 15 -78q0 -36 -14 -70q28 -16 59 -24q28 -7 61 -7v-64l-16 -16q-35 0 -71 12t-71 41q-29 -25 -69 -39q-42 -14 -91 -14h-437v80h89z
M466 78l-1 -2q83 0 117 19t34 60q0 32 -12 59t-33 45q-22 19 -50 29q-30 11 -63 11q-58 0 -111 -33q-53 -34 -114 -109l-59 -74l2 -5h290zM433 579l52 -51l-52 -51h-8l-53 51l53 51h8z" />
    <glyph glyph-name="uniFEC7" unicode="&#x638;" horiz-adv-x="675" arabic-form="initial" 
d="M437 381l-2 -2q43 0 79 -15t63 -42t42 -63t15 -78q0 -41 -15 -74q-15 -34 -43 -57t-67 -37q-38 -13 -87 -13h-440v63l18 17h74l33 43v622h62v-547l10 14q33 42 68 78q32 33 62 53q31 20 62 29t66 9zM432 78l-2 -2q82 0 116 19q35 20 35 60q0 32 -12 59t-33 45
q-22 19 -49 29q-30 11 -63 11q-60 0 -112 -33q-53 -34 -114 -109l-59 -74l2 -5h291zM397 579l52 -51l-52 -51h-8l-53 51l53 51h8z" />
    <glyph glyph-name="uniFEC8" unicode="&#x638;" horiz-adv-x="739" arabic-form="medial" 
d="M620 111l-2 -3q28 -16 59 -24q28 -7 61 -7v-64l-16 -16q-35 0 -71 12t-71 41q-28 -25 -68 -39t-90 -14h-440v63l18 17h74l33 43v622h62v-547l10 14q33 42 68 78q32 33 62 53q31 20 62 29t66 9q43 0 79 -15t63 -42t42 -63t15 -78q0 -21 -4 -36q-4 -16 -12 -33zM432 77
l-2 -2q82 0 116 19q35 20 35 60q0 32 -12 59t-33 45q-22 19 -49 29q-30 11 -63 11q-60 0 -112 -33q-53 -34 -114 -109l-59 -74l2 -5h291zM397 578l52 -51l-52 -51h-8l-53 51l53 51h8z" />
    <glyph glyph-name="uniFECA" unicode="&#x639;" horiz-adv-x="575" arabic-form="final" 
d="M319 -325l-5 -5q-139 0 -210 53q-70 52 -70 147q0 64 45 127t147 126l35 21q-5 6 -13 18q-4 6 -14 20l-113 150l-33 -10h-8v69q63 27 126 39t115 12q95 0 141 -29q45 -29 45 -89q0 -24 -7 -42q-8 -21 -22 -39q-16 -21 -39 -41q-19 -17 -57 -46l-25 -19q19 -18 39 -30
t40 -18q21 -6 45 -9t53 -3h38v-62l-17 -18h-21q-35 0 -68 5q-28 4 -57 17q-28 12 -53 33q-24 20 -54 53l-68 -42q-41 -25 -72 -50q-28 -23 -45 -42q-16 -19 -22 -39t-6 -39q0 -60 59 -95t171 -35q58 0 123 14q64 14 110 36h7v-64q-45 -35 -108 -54q-65 -20 -132 -20z
M379 214v-1q39 24 59 47t20 42q0 62 -139 62q-63 0 -130 -15l-2 -3l98 -129q12 -14 17 -21q10 -14 15 -20z" />
    <glyph glyph-name="uniFECB" unicode="&#x639;" horiz-adv-x="459" arabic-form="initial" 
d="M414 55l-2 -2q-62 -29 -138 -42q-74 -13 -183 -13h-111v63l18 17h101l1 3q-54 66 -54 138q0 39 17 78q16 37 44 66q27 28 65 45q39 17 80 17q35 0 65 -12q32 -13 50 -31v-73h-7q-26 18 -55 26q-31 9 -63 9q-66 0 -105 -30t-39 -77q0 -23 9 -45q9 -21 26 -42
q17 -20 39 -36q23 -17 50 -29q52 5 95 15q40 10 90 29h7v-74z" />
    <glyph glyph-name="uniFECC" unicode="&#x639;" horiz-adv-x="496" arabic-form="medial" 
d="M0 80l120 1q12 0 32 2q16 2 29 6l-15 18q-5 6 -15 20l-104 139l-33 -11h-7v69q63 27 126 39t117 12q184 0 184 -116q0 -22 -7 -40t-21 -40q-13 -20 -36 -43q-22 -22 -54 -48q16 -8 42 -8h136v-62l-18 -18h-123q-33 0 -59 6q-25 6 -51 26q-26 -17 -52 -24q-29 -8 -62 -8
h-147v63zM253 106h-1q31 24 64 51q23 19 40 36q14 14 21 26q6 11 6 21q0 60 -136 60q-36 0 -65 -4q-32 -4 -67 -12l-2 -3l96 -127q7 -10 23 -28q12 -13 21 -20z" />
    <glyph glyph-name="uniFECE" unicode="&#x63a;" horiz-adv-x="575" arabic-form="final" 
d="M319 -325l-5 -5q-139 0 -210 53q-70 52 -70 147q0 64 45 127t147 126l35 21q-5 6 -13 18q-4 6 -14 20l-113 150l-33 -10h-8v69q63 27 126 39t115 12q95 0 141 -29q45 -29 45 -89q0 -24 -7 -42q-8 -21 -22 -39q-16 -21 -39 -41q-19 -17 -57 -46l-25 -19q19 -18 39 -30
t40 -18q21 -6 45 -9t53 -3h38v-62l-17 -18h-21q-35 0 -68 5q-28 4 -57 17q-28 12 -53 33q-24 20 -54 53l-68 -42q-41 -25 -72 -50q-28 -23 -45 -42q-16 -19 -22 -39t-6 -39q0 -60 59 -95t171 -35q58 0 123 14q64 14 110 36h7v-64q-45 -35 -108 -54q-65 -20 -132 -20z
M379 214v-1q39 24 59 47t20 42q0 62 -139 62q-63 0 -130 -15l-2 -3l98 -129q12 -14 17 -21q10 -14 15 -20zM314 644l52 -51l-52 -51h-8l-53 51l53 51h8z" />
    <glyph glyph-name="uniFECF" unicode="&#x63a;" horiz-adv-x="459" arabic-form="initial" 
d="M414 55l-2 -2q-62 -29 -138 -42q-74 -13 -183 -13h-111v63l18 17h101l1 3q-54 66 -54 138q0 39 17 78q16 37 44 66q27 28 65 45q39 17 80 17q35 0 65 -12q32 -13 50 -31v-73h-7q-26 18 -55 26q-31 9 -63 9q-66 0 -105 -30t-39 -77q0 -23 9 -45q9 -21 26 -42
q17 -20 39 -36q23 -17 50 -29q52 5 95 15q40 10 90 29h7v-74zM240 626l52 -51l-52 -51h-8l-53 51l53 51h8z" />
    <glyph glyph-name="uniFED0" unicode="&#x63a;" horiz-adv-x="496" arabic-form="medial" 
d="M0 80l120 1q12 0 32 2q16 2 29 6l-15 18q-5 6 -15 20l-104 139l-33 -11h-7v69q63 27 126 39t117 12q184 0 184 -116q0 -22 -7 -40t-21 -40q-13 -20 -36 -43q-22 -22 -54 -48q16 -8 42 -8h136v-62l-18 -18h-123q-33 0 -59 6q-25 6 -51 26q-26 -17 -52 -24q-29 -8 -62 -8
h-147v63zM253 106h-1q31 24 64 51q23 19 40 36q14 14 21 26q6 11 6 21q0 60 -136 60q-36 0 -65 -4q-32 -4 -67 -12l-2 -3l96 -127q7 -10 23 -28q12 -13 21 -20zM241 579l52 -51l-52 -51h-8l-53 51l53 51h8z" />
    <glyph glyph-name="uniFED2" unicode="&#x641;" horiz-adv-x="901" arabic-form="final" 
d="M901 18l-18 -22h-41q-90 0 -162 31q-111 -41 -276 -41q-97 0 -166 12q-68 12 -112 36t-63 63q-20 40 -20 94q0 58 21 133h47v-8q-7 -28 -12 -54q-4 -23 -4 -45q0 -38 17 -66t54 -44q38 -17 96 -24q62 -8 143 -8h186h9q-37 31 -60 71q-22 38 -22 83q0 39 15 76t39 66
q24 28 55 46t64 18q34 0 64 -15q28 -14 52 -41q23 -26 35 -60q12 -35 12 -72q0 -101 -84 -167h1h130v-62zM569 243l-2 4q0 -23 9 -46q8 -20 26 -43q16 -20 39 -37q22 -16 50 -27q50 17 80 48q30 32 30 69q0 29 -9 54q-9 24 -26 45q-16 19 -39 31t-48 12q-23 0 -42 -9
q-20 -9 -35 -24t-24 -35q-9 -19 -9 -42zM694 640l52 -51l-52 -51h-8l-53 51l53 51h8z" />
    <glyph glyph-name="uniFED3" unicode="&#x641;" horiz-adv-x="434" arabic-form="initial" 
d="M0 80l194 -5q34 0 64 5q27 4 45 18q18 13 27 35q10 22 11 54l-3 2q-56 -33 -129 -33q-74 0 -117 38q-42 38 -42 110q0 40 14 80t36 71t54 51q31 19 66 19q38 0 69 -22t54 -62q23 -41 35 -94q12 -55 12 -120q0 -59 -11 -105q-10 -43 -35 -71q-24 -27 -61 -39t-90 -12h-211
v63zM218 232l1 -2q63 0 120 20q-5 43 -16 75q-12 35 -30 60q-19 27 -40 41q-23 15 -48 15q-23 0 -42 -12q-20 -12 -33 -31q-14 -20 -21 -42q-8 -24 -8 -44q0 -42 30 -61q29 -19 87 -19zM214 724l52 -51l-52 -51h-8l-53 51l53 51h8z" />
    <glyph glyph-name="uniFED4" unicode="&#x641;" horiz-adv-x="428" arabic-form="medial" 
d="M428 18l-19 -22h-42q-41 0 -83 8q-40 8 -74 21q-38 -14 -79 -21q-45 -8 -88 -8h-63v63l18 17h126q-37 31 -58 70t-21 82q0 38 15 76t39 66t55 46q32 18 63 18q34 0 64 -15q28 -14 52 -41q23 -26 35 -60t12 -72q0 -50 -21 -92q-21 -43 -60 -74h129v-62zM94 243l-2 1
q0 -23 9 -46q8 -20 26 -43q16 -20 39 -37q22 -16 50 -27q47 16 79 50q31 32 31 70q0 29 -9 54q-9 24 -26 45q-16 19 -39 31q-22 12 -48 12q-22 0 -42 -9t-35 -24t-24 -35q-9 -19 -9 -42zM214 637l52 -51l-52 -51h-8l-53 51l53 51h8z" />
    <glyph glyph-name="uniFED6" unicode="&#x642;" horiz-adv-x="683" arabic-form="final" 
d="M350 -235l1 -5q-145 0 -225 67q-81 67 -81 187q0 71 26 161h49v-7q-21 -75 -21 -138q0 -86 66 -134t185 -48q114 0 168 33t66 113h-123q-78 0 -122 38t-44 110q0 39 14 81q13 41 36 72t54 51q32 20 66 20q37 0 69 -21q31 -21 54 -59q22 -38 36 -90q13 -52 15 -116h44v-61
l-18 -19h-30q-28 -235 -285 -235zM587 75l-4 -2q-3 43 -15 81q-13 39 -28 66q-16 28 -39 45q-22 16 -48 16q-23 0 -43 -12q-19 -12 -33 -32q-13 -19 -21 -42q-8 -24 -8 -45q0 -39 31 -57t88 -18h120zM520 462h-9l-48 48l-49 -48h-8l-53 51l53 51h8l49 -48l48 48h9l52 -51z
" />
    <glyph glyph-name="uniFED7" unicode="&#x642;" horiz-adv-x="434" arabic-form="initial" 
d="M0 80l194 -5q34 0 64 5q27 4 45 18q18 13 27 35q10 22 11 54l-3 2q-56 -33 -129 -33q-74 0 -117 38q-42 38 -42 110q0 40 14 80t36 71t54 51q31 19 66 19q38 0 69 -22t54 -62q23 -41 35 -94q12 -55 12 -120q0 -59 -11 -105q-10 -43 -35 -71q-24 -27 -61 -39t-90 -12h-211
v63zM218 232l1 -2q63 0 120 20q-5 43 -16 75q-12 35 -30 60q-19 27 -40 41q-23 15 -48 15q-23 0 -42 -12q-20 -12 -33 -31q-14 -20 -21 -42q-8 -24 -8 -44q0 -42 30 -61q29 -19 87 -19zM267 622h-9l-48 48l-49 -48h-8l-53 51l53 51h8l49 -48l48 48h9l52 -51z" />
    <glyph glyph-name="uniFED8" unicode="&#x642;" horiz-adv-x="428" arabic-form="medial" 
d="M428 18l-19 -22h-42q-41 0 -83 8q-40 8 -74 21q-38 -14 -79 -21q-45 -8 -88 -8h-63v63l18 17h126q-37 31 -58 70t-21 82q0 38 15 76t39 66t55 46q32 18 63 18q34 0 64 -15q28 -14 52 -41q23 -26 35 -60t12 -72q0 -50 -21 -92q-21 -43 -60 -74h129v-62zM94 243l-2 1
q0 -23 9 -46q8 -20 26 -43q16 -20 39 -37q22 -16 50 -27q47 16 79 50q31 32 31 70q0 29 -9 54q-9 24 -26 45q-16 19 -39 31q-22 12 -48 12q-22 0 -42 -9t-35 -24t-24 -35q-9 -19 -9 -42zM267 535h-9l-48 48l-49 -48h-8l-53 51l53 51h8l49 -48l48 48h9l52 -51z" />
    <glyph glyph-name="uniFEDA" unicode="&#x643;" horiz-adv-x="858" arabic-form="final" 
d="M858 18l-19 -24h-1q-119 0 -148 99q-72 -54 -165 -81t-196 -27q-76 0 -130 12q-56 12 -89 37q-35 26 -51 64t-16 93q0 58 21 133h47v-8q-7 -28 -12 -54q-4 -23 -4 -45q0 -76 59 -109q58 -33 192 -33q94 0 181 21q86 21 156 62q-1 3 -1 11v12v563h61v-563q0 -53 27 -77
t85 -24h3v-62zM484 355l2 1q0 -41 -38 -61q-37 -19 -119 -19h-32v46h32q113 0 113 26q0 6 -6 11t-22 9l-30 9q-26 7 -36 21q-11 14 -11 33q0 20 12 38t41 35l68 42h7v-47l-66 -39q-20 -14 -20 -21q0 -11 24 -18l34 -10q26 -8 36 -22q11 -16 11 -34z" />
    <glyph glyph-name="uniFEDB" unicode="&#x643;" horiz-adv-x="413" arabic-form="initial" 
d="M99 470l77 -82q47 -47 65 -67q25 -28 43 -57q16 -27 24 -53q8 -27 8 -53q0 -75 -47 -117t-131 -42h-156v63l18 17h138q59 0 93 20q33 19 33 60q0 17 -4 29q-5 14 -15 29q-14 19 -28 35q-24 26 -43 45l-138 131v79l418 246h7v-73z" />
    <glyph glyph-name="uniFEDC" unicode="&#x643;" horiz-adv-x="466" arabic-form="medial" 
d="M0 80l94 1q116 0 126 81l-181 267v79l417 246h8v-73l-367 -214l191 -280q18 -28 38 -51q18 -21 36 -33t38 -18t44 -6h20v-61l-18 -19q-27 0 -54 5q-23 4 -47 17q-23 12 -44 35q-19 20 -46 57l-3 -1q-10 -52 -51 -82t-105 -30h-114v63z" />
    <glyph glyph-name="uniFEDE" unicode="&#x644;" horiz-adv-x="688" arabic-form="final" 
d="M570 197l-1 -1q0 -64 27 -91t92 -27v-62l-17 -18q-77 0 -113 48h-1q-7 -138 -72 -210t-186 -72q-125 0 -189 70q-65 71 -65 198q0 35 6 71q5 32 17 77h46v-7q-10 -40 -14 -69q-5 -37 -5 -62q0 -90 54 -139q53 -49 150 -49q109 0 159 54q50 55 50 170v667h62v-548z" />
    <glyph glyph-name="uniFEDF" unicode="&#x644;" horiz-adv-x="258" arabic-form="initial" 
d="M0 80h-2q58 0 87 24q28 24 28 77v565h62v-565q0 -89 -43 -135t-121 -46h-29v63z" />
    <glyph glyph-name="uniFEE0" unicode="&#x644;" horiz-adv-x="290" arabic-form="medial" 
d="M290 18l-17 -20h-1q-104 0 -138 72q-54 -72 -152 -72v63l18 17q71 0 120 35q-4 19 -5 32q-2 22 -2 36v563h62v-563q0 -53 27 -77t84 -24h4v-62z" />
    <glyph glyph-name="uniFEE2" unicode="&#x645;" horiz-adv-x="605" arabic-form="final" 
d="M500 155q13 -41 36 -58q22 -16 68 -16v-63l-18 -17q-43 0 -70 15q-26 14 -46 47l-8 -70l-140 18q-80 10 -118 45q-37 34 -37 94q0 46 35 81l-2 2q-29 -12 -50 -26q-20 -14 -32 -33q-13 -21 -17 -45q-5 -28 -5 -60v-385h-57v385q0 59 12 99q12 42 40 71q29 30 77 53
q47 22 122 42l117 32q19 6 27 -14zM466 73h-1q-14 26 -24 55l-47 137q-3 9 -8 11t-14 0q-83 -21 -118 -46q-36 -26 -36 -63q0 -34 29 -52q29 -19 87 -26z" />
    <glyph glyph-name="uniFEE3" unicode="&#x645;" horiz-adv-x="500" arabic-form="initial" 
d="M123 65l-1 -3q-25 -36 -58 -50q-34 -15 -84 -15v62l18 18q46 0 72 18q25 18 45 59l21 43q23 48 43 79q22 34 42 53q22 21 43 29q22 9 48 9q68 0 105 -51q38 -52 38 -143q0 -35 -9 -72q-10 -43 -19 -69l-5 -16q-4 -15 -15 -21q-10 -6 -24 -1zM368 78l-2 1q21 -6 25 13
q3 10 7 32q3 18 3 35q0 61 -25 93q-26 33 -72 33q-40 0 -70 -30q-29 -29 -61 -98l-11 -24z" />
    <glyph glyph-name="uniFEE4" unicode="&#x645;" horiz-adv-x="530" arabic-form="medial" 
d="M425 155l1 -2q13 -41 38 -58q23 -16 68 -16v-63l-17 -17q-42 0 -69 15q-26 14 -46 47l-9 -70l-139 18q-97 12 -131 60q-34 -70 -138 -70v63l18 17q65 0 99 28q-6 21 -6 47q0 68 55 122q56 55 159 83l25 7q19 6 27 -14zM393 71v-1q-14 26 -24 55l-46 137q-5 10 -9 11
q-5 2 -14 0q-82 -19 -118 -45t-36 -63q0 -34 29 -52q29 -19 86 -26z" />
    <glyph glyph-name="uniFEE6" unicode="&#x646;" horiz-adv-x="711" arabic-form="final" 
d="M317 -235v2q-62 0 -113 17q-50 17 -85 49t-55 80q-19 45 -19 108q0 38 6 80q6 39 17 80h46v-7q-10 -40 -14 -69q-5 -37 -5 -62q0 -95 60 -143t161 -48q113 0 164 48t51 152q0 23 -1 35q-2 18 -6 42q-1 3 -4.5 22.5t-5.5 31.5q-8 41 -16 71l4 5h57l19 -89q11 -52 42 -71
q32 -20 90 -20h1v-61l-18 -19h-1q-76 0 -110 42l-2 -1q-3 -135 -70 -205t-193 -70zM321 262l52 -51l-52 -51h-8l-53 51l53 51h8z" />
    <glyph glyph-name="uniFEE7" unicode="&#x646;" horiz-adv-x="222" arabic-form="initial" 
d="M0 80l19 1q54 0 78 24t24 77q0 30 -6 74q-7 54 -16 98l3 5h57q8 -43 13 -91q4 -39 4 -78q0 -98 -39 -144t-121 -46h-34v63zM124 562l52 -51l-52 -51h-8l-53 51l53 51h8z" />
    <glyph glyph-name="uniFEE8" unicode="&#x646;" horiz-adv-x="279" arabic-form="medial" 
d="M0 80l-1 -2q71 0 120 35q-4 19 -5 32q-2 22 -2 36v116h51v-116q0 -57 27 -79q26 -22 84 -22h4v-62l-18 -18h-1q-95 0 -127 71q-53 -71 -150 -71v63zM142 499l52 -51l-52 -51h-8l-53 51l53 51h8z" />
    <glyph glyph-name="uniFEEA" unicode="&#x647;" horiz-adv-x="476" arabic-form="final" 
d="M459 0l-1 -4q-67 1 -101 29q-33 27 -43 85h-3q-26 -35 -61 -51q-37 -17 -78 -17q-33 0 -57 10q-27 11 -44 28t-28 42q-10 23 -10 51q0 56 40 99q41 44 114 87l122 70v68h55v-312q0 -57 25 -81t87 -24v-62zM178 121v-2q76 0 129 42v198l-100 -52q-38 -20 -59 -33
q-22 -14 -39 -29q-15 -14 -21 -28q-6 -15 -6 -31q0 -32 27 -48q28 -17 69 -17z" />
    <glyph glyph-name="uniFEEB" unicode="&#x647;" horiz-adv-x="597" arabic-form="initial" 
d="M341 385l-2 1q59 -28 101 -56t65 -54q25 -28 35 -57q11 -31 11 -65q0 -35 -13 -64q-14 -31 -37 -51q-24 -21 -59 -33q-34 -12 -78 -12q-46 0 -88 9q-40 9 -78 26q-69 -28 -153 -28h-63v63l18 17h104h16q-34 31 -54 71q-19 38 -19 81q0 29 9 56t24 51q13 21 35 43
q18 18 42 31v56l5 3zM94 248h1q0 -45 36 -84q35 -38 93 -61q43 16 67 48q24 31 24 72q0 29 -9 53t-24 42t-35 29t-44 11q-23 0 -42 -9t-34 -24t-24 -35t-9 -42zM371 74l-1 1q64 0 95 21q32 21 32 59q0 19 -6 36t-22 33q-19 19 -43 35q-31 21 -67 38l3 -21q1 -7 1 -21
q0 -51 -21 -94q-21 -44 -58 -78q40 -9 87 -9z" />
    <glyph glyph-name="uniFEEC" unicode="&#x647;" horiz-adv-x="466" arabic-form="medial" 
d="M249 -235l-4 -1q-47 0 -81 18q-35 18 -57 49q-22 30 -34 75q-11 42 -13 94h-80v63l18 17h70l128 326q10 24 33 13l15 -8q57 -29 90 -75t33 -103q0 -49 -18 -88q-17 -38 -53 -61v-3h170v-62l-18 -18h-70l-2 -3q30 -27 30 -80q0 -33 -12 -60t-33 -48t-50 -33
q-28 -12 -62 -12zM148 79l1 1q76 0 120 35t44 95q0 36 -21 66t-62 50q-18 9 -23 -9l-92 -238h33zM250 -155v-3q44 0 72 21q29 21 29 56q0 39 -33 63t-93 24q-37 0 -57 -1q-40 -2 -61 -4q1 -71 38 -114q36 -42 105 -42z" />
    <glyph glyph-name="uniFEEE" unicode="&#x648;" horiz-adv-x="428" arabic-form="final" 
d="M149 -255l-4 -7q-45 0 -82 15q-36 15 -76 42v44l7 5q37 -12 70 -19q30 -6 59 -6q37 0 70 12t59 35q27 23 44 54q17 30 25 72h-121q-78 0 -122 38t-44 110q0 39 14 81q14 41 36 72t54 51t66 20q38 0 69 -21t54 -59t36 -90t15 -116h48v-61l-18 -19h-35q-7 -56 -27 -102
q-20 -48 -49 -80q-30 -33 -67 -52t-81 -19zM323 73l-4 -2q-3 43 -15 81q-13 39 -28 66q-16 28 -39 45q-22 16 -48 16q-23 0 -43 -12q-19 -12 -33 -32q-13 -19 -21 -42q-8 -24 -8 -45q0 -39 31 -57q32 -18 88 -18h120z" />
    <glyph glyph-name="uniFEF0" unicode="&#x649;" horiz-adv-x="717" arabic-form="final" 
d="M380 -235l-3 -3q-169 0 -252 69q-82 69 -82 218q0 45 6 86q5 35 14 72h46v-7q-7 -32 -12 -69q-4 -33 -4 -72q0 -108 71 -159q70 -51 213 -51q62 0 107 7q50 8 81 19q33 12 51 30t18 39q0 16 -8 27t-27 18q-22 8 -53 14q-47 9 -84 14l-64 9v77l4 4l60 -9q60 -11 124 -15
q57 -4 129 -4v-61l-18 -19h-24q4 -5 10 -17q4 -8 4 -21q0 -46 -21 -82q-22 -37 -61 -62q-41 -26 -97 -39q-55 -13 -128 -13z" />
    <glyph glyph-name="uniFEF2" unicode="&#x64a;" horiz-adv-x="717" arabic-form="final" 
d="M380 -235l-3 -3q-169 0 -252 69q-82 69 -82 218q0 45 6 86q5 35 14 72h46v-7q-7 -32 -12 -69q-4 -33 -4 -72q0 -108 71 -159q70 -51 213 -51q62 0 107 7q50 8 81 19q33 12 51 30t18 39q0 16 -8 27t-27 18q-22 8 -53 14q-47 9 -84 14l-64 9v77l4 4l60 -9q60 -11 124 -15
q57 -4 129 -4v-61l-18 -19h-24q4 -5 10 -17q4 -8 4 -21q0 -46 -21 -82q-22 -37 -61 -62q-41 -26 -97 -39q-55 -13 -128 -13zM447 -434h-9l-48 48l-49 -48h-8l-53 51l53 51h8l49 -48l48 48h9l52 -51z" />
    <glyph glyph-name="uniFEF3" unicode="&#x64a;" horiz-adv-x="222" arabic-form="initial" 
d="M0 80l19 1q54 0 78 24t24 77q0 30 -6 74q-7 54 -16 98l3 5h57q8 -43 13 -91q4 -39 4 -78q0 -98 -39 -144t-121 -46h-34v63zM142 -195h-9l-48 48l-49 -48h-8l-53 51l53 51h8l49 -48l48 48h9l52 -51z" />
    <glyph glyph-name="uniFEF4" unicode="&#x64a;" horiz-adv-x="279" arabic-form="medial" 
d="M0 80l-1 -2q71 0 120 35q-4 19 -5 32q-2 22 -2 36v116h51v-116q0 -57 27 -79q26 -22 84 -22h4v-62l-18 -18h-1q-95 0 -127 71q-53 -71 -150 -71v63zM189 -198h-9l-48 48l-49 -48h-8l-53 51l53 51h8l49 -48l48 48h9l52 -51z" />
    <glyph glyph-name=".notdef" horiz-adv-x="292" 
d="M100 718h92v-920h-92v920z" />
    <glyph glyph-name=".null" horiz-adv-x="0" 
 />
    <glyph glyph-name=".null" horiz-adv-x="0" 
 />
    <glyph glyph-name="uni000D" unicode="&#xd;" horiz-adv-x="229" 
 />
    <glyph glyph-name="space" unicode=" " horiz-adv-x="229" 
 />
    <glyph glyph-name="exclam" unicode="!" horiz-adv-x="277" 
d="M84 45l-1 -2q0 25 15 39q16 14 41 14q55 0 55 -54q0 -26 -15 -39q-16 -14 -40 -14q-25 0 -40 15t-15 41zM119 195l4 1q-1 10 -3.5 33.5t-3.5 36.5q-4 44 -9 90q-3 29 -7 90q-3 44 -3 75v134q0 24 20 24h46q11 0 15 -6q4 -5 4 -19v-134q0 -32 -3 -75q-4 -61 -7 -90
q-4 -47 -9 -90q-1 -13 -3.5 -36.5t-3.5 -33.5h-37z" />
    <glyph glyph-name="quotedbl" unicode="&#x22;" horiz-adv-x="345" 
d="M79 518h-3q-12 81 -17 123q-6 54 -6 75q0 18 11 29t29 11t29 -11t11 -29q0 -21 -6 -75q-5 -42 -17 -123h-31zM231 518h-3q-12 81 -17 123q-6 54 -6 75q0 18 11 29t29 11t29 -11t11 -29q0 -21 -6 -75q-5 -42 -17 -123h-31z" />
    <glyph glyph-name="numbersign" unicode="#" horiz-adv-x="591" 
d="M56 478h125l36 202h51l-36 -202h170l36 202h51l-36 -202h127l-9 -48h-126l-28 -161h126l-9 -48h-126l-38 -221h-51l38 221h-170l-38 -221h-51l38 221h-125l8 48h126l28 161h-125zM196 269h170l28 161h-170z" />
    <glyph glyph-name="dollar" unicode="$" horiz-adv-x="520" 
d="M49 167h54v-32q0 -50 25 -71q13 -12 38 -18q24 -6 65 -6q77 0 120 32q42 32 42 93q0 33 -12 57t-33 42t-50 30q-28 12 -63 24q-39 14 -72 30t-57 39t-36 54t-12 75q0 72 48 117q47 44 131 55v108h57v-105q44 -2 75 -7q35 -6 54 -12q15 -5 21 -10q7 -6 7 -22v-114h-52v26
q0 21 -4 36q-5 16 -18 27q-15 11 -37 17q-24 6 -64 6q-66 0 -103 -28t-37 -78q0 -30 11 -52q10 -20 29 -36q17 -14 44 -27q20 -9 56 -22q42 -17 78 -33q37 -17 62 -39q27 -24 41 -55q15 -33 15 -81q0 -78 -46 -128q-47 -52 -132 -65v-124h-57v119h-3q-58 0 -99 6
q-42 6 -66 16q-20 8 -20 27v129z" />
    <glyph glyph-name="percent" unicode="%" horiz-adv-x="821" 
d="M210 373h-1q46 0 73 36t27 103q0 66 -27 102t-73 36q-45 0 -72 -36t-27 -102q0 -67 27 -103t73 -36zM209 337h-1q-74 0 -119 45t-45 130q0 40 12 71t33 54t51 36q29 13 67 13q74 0 120 -44q45 -44 45 -129q0 -39 -12 -71q-12 -31 -33 -55q-20 -23 -51 -37
q-29 -13 -67 -13zM593 680h55l-428 -680h-55zM609 30h-1q46 0 72 36q26 37 26 103q0 65 -26 102q-26 36 -72 36q-45 0 -72 -36t-27 -102q0 -67 27 -103t73 -36zM608 -6h-1q-73 0 -118 45t-45 130q0 39 12 71t33 54t51 36q29 13 66 13q74 0 120 -44q45 -43 45 -129
q0 -40 -12 -71t-33 -55q-20 -23 -51 -37q-29 -13 -67 -13z" />
    <glyph glyph-name="ampersand" unicode="&#x26;" horiz-adv-x="734" 
d="M287 -10l-2 -1q-57 0 -100 13q-45 14 -76 37q-31 24 -48 59q-17 36 -17 78q0 35 12 65t33 54q20 23 47 42q28 20 54 32l-7 7q-18 18 -33 36q-16 19 -27 37q-12 19 -18 42t-6 48q0 35 15 64t42 48q28 20 65 29t81 9q42 0 78 -6t51 -12q15 -5 21 -10q7 -6 7 -22v-114h-52
v26q0 18 -5 36q-4 16 -17 27q-26 23 -90 23q-49 0 -81 -24t-32 -69q0 -38 18 -65q19 -28 49 -57l259 -253q17 29 28 68q10 34 10 72q0 27 -26 27h-52v44h213v-44h-49q-28 0 -30 -27q-7 -92 -57 -175l43 -41q26 -25 58 -37q30 -11 66 -13v-44h-54q-52 0 -88 17q-34 16 -66 48
l-9 8q-39 -38 -91 -60q-51 -22 -117 -22zM304 40v-3q45 0 84 18q41 19 71 49l-239 234q-44 -30 -66 -67t-22 -85q0 -36 12 -63q11 -25 35 -46q22 -19 54 -28q31 -9 71 -9z" />
    <glyph glyph-name="quotesingle" unicode="'" horiz-adv-x="190" 
d="M79 518h-3q-12 81 -17 123q-6 54 -6 75q0 18 11 29t29 11t29 -11t11 -29q0 -21 -6 -75q-5 -42 -17 -123h-31z" />
    <glyph glyph-name="parenleft" unicode="(" horiz-adv-x="397" 
d="M335 -212l-2 -4q-63 33 -112 85q-49 53 -84 117q-33 62 -52 137q-18 72 -18 146t18 146q19 75 52 137q35 64 84 117q49 52 112 85l22 -35q-44 -26 -82 -69q-37 -41 -66 -98q-28 -54 -43 -126q-15 -70 -15 -156q0 -84 15 -154q15 -69 44 -126t66 -98t83 -69z" />
    <glyph glyph-name="parenright" unicode=")" horiz-adv-x="397" 
d="M40 -177h-3q46 28 83 69t66 98t44 126q15 70 15 155t-15 156q-15 72 -43 126q-29 57 -66 98q-38 43 -82 69l22 35q65 -34 113 -85q51 -54 83 -117q33 -64 51 -137q18 -72 18 -145t-18 -145q-18 -71 -51 -136q-32 -63 -83 -117q-49 -52 -112 -85z" />
    <glyph glyph-name="asterisk" unicode="*" horiz-adv-x="454" 
d="M195 629l2 -2l-3 15q-1 5 -1 13q0 18 11 27q10 9 24 9t24 -9q11 -9 11 -27q0 -8 -1 -13l-3 -15l-20 -106l99 52q17 9 21 11q7 3 13 3q14 0 24 -9q11 -9 11 -25q0 -29 -38 -35l-125 -18l84 -76q13 -13 17 -19q6 -9 6 -21q0 -16 -11 -24t-24 -8q-18 0 -24 10q-1 2 -6 10.5
t-8 13.5l-51 99l-51 -99q-3 -5 -8 -13.5t-6 -10.5q-6 -10 -24 -10q-13 0 -24 8t-11 24q0 12 6 21q4 6 17 19l84 76l-125 18q-38 6 -38 35q0 17 11 26q10 9 24 9q6 0 13 -3q11 -4 21 -10l99 -52z" />
    <glyph glyph-name="plus" unicode="+" horiz-adv-x="602" 
d="M65 294h208v192h56v-192h208v-54h-208v-206h-56v206h-208v54z" />
    <glyph glyph-name="comma" unicode="," horiz-adv-x="217" 
d="M37 -112l-1 2q33 16 51 42t18 60h-2q-25 0 -38 15q-14 16 -14 41q0 24 15 39t41 15q30 0 45 -20t15 -56q0 -67 -33 -109q-32 -41 -78 -58z" />
    <glyph glyph-name="hyphen" unicode="-" horiz-adv-x="408" 
d="M65 313h278v-68h-278v68z" />
    <glyph glyph-name="period" unicode="." horiz-adv-x="215" 
d="M107 -10l-2 -1q-25 0 -40 15t-15 41q0 23 15 40q15 16 41 16q29 0 42 -16q14 -17 14 -40q0 -26 -13 -40q-13 -15 -42 -15z" />
    <glyph glyph-name="slash" unicode="/" horiz-adv-x="386" 
d="M331 745h64l-326 -950h-65z" />
    <glyph glyph-name="zero" unicode="0" horiz-adv-x="584" 
d="M46 238q0 56 18 102t51 79t78 51t98 18t97 -16q45 -16 78 -48q32 -31 52 -78q19 -45 19 -106q0 -57 -19 -102q-20 -48 -52 -80q-33 -33 -78 -51t-97 -18q-54 0 -98 16q-45 17 -78 48t-51 78q-18 46 -18 107zM292 38h1q72 0 117 50t45 150t-45 151t-117 51t-117 -51
t-45 -151t45 -150t116 -50z" />
    <glyph glyph-name="one" unicode="1" horiz-adv-x="388" 
d="M58 44l95 -2q21 0 21 23v335q0 12 -4 17q-4 6 -16 6t-21 -1l-27 -3l-27 -3q-13 -2 -21 -3v44l54 12q45 10 50 11q6 1 19.5 4t19.5 4q17 3 23 3q28 0 28 -27v-397q0 -23 21 -23h88v-44h-303v44z" />
    <glyph glyph-name="two" unicode="2" horiz-adv-x="478" 
d="M29 44l-3 -5q45 29 93 60q52 34 89 67q40 36 67 76t27 87q0 45 -30 72t-87 27q-41 0 -69 -6q-27 -6 -48 -17h-7v51q23 12 60 21t84 9q98 0 141 -40q44 -41 44 -105q0 -36 -13 -66q-13 -31 -35 -59t-49 -51q-25 -21 -57 -43q-34 -23 -54 -35q-36 -21 -45 -26h304v-61h-412
v44z" />
    <glyph glyph-name="three" unicode="3" horiz-adv-x="445" 
d="M27 -150v-3q16 -5 39 -8q26 -3 48 -3q39 0 72 9q32 9 57 29q24 19 37 49q13 29 13 69q0 34 -13 60q-14 28 -37 45t-58 28q-33 10 -75 10h-17v51h17q37 0 66 10q32 11 53 28q22 17 34 42q12 24 12 53q0 54 -32 83t-93 29q-32 0 -60 -6t-50 -17h-8v51q25 13 65 21
q42 8 74 8q96 0 143 -40q48 -40 48 -114q0 -34 -14 -62q-14 -27 -35 -47q-23 -21 -46 -32q-25 -12 -48 -18v-3q31 -6 60 -21q30 -16 51 -37q22 -22 36 -51q13 -27 13 -63q0 -51 -19 -89t-53 -66q-33 -27 -78 -42t-96 -15q-17 0 -27 1l-30 3q-10 1 -28 3q-14 1 -21 3v52z" />
    <glyph glyph-name="four" unicode="4" horiz-adv-x="554" 
d="M14 37l359 458h38v-434h117v-61h-117v-207h-75v207h-322v37zM336 61v314l-242 -314h242z" />
    <glyph glyph-name="five" unicode="5" horiz-adv-x="462" 
d="M125 415l-1 -189h28q58 0 105 -15t80 -42t51 -66t18 -88q0 -54 -19 -95q-19 -42 -54 -72q-34 -29 -84 -46q-48 -16 -108 -16q-9 0 -43 2q-26 2 -42 6v52h7q16 -4 38 -6q28 -2 35 -2q39 0 75 11q34 10 59 32t38 51q14 31 14 71q0 79 -51 119q-52 41 -138 41h-30
q-14 0 -32 -2v317h254q22 0 22 23v37h50v-101q0 -22 -22 -22h-250z" />
    <glyph glyph-name="six" unicode="6" horiz-adv-x="548" 
d="M202 397l-2 -3q14 4 40 7q24 3 45 3q97 0 150 -48q52 -48 52 -142q0 -51 -13 -91q-14 -43 -40 -72t-66 -46q-38 -16 -90 -16q-105 0 -162 72t-57 227q0 100 22 173q22 74 62 126q38 50 95 76t123 26q25 0 48 -3q25 -3 36 -7v-52h-7q-11 4 -34 7q-21 3 -40 3
q-109 0 -166 -84t-57 -264q0 -70 9 -118t27 -78q18 -29 45 -43q26 -13 62 -13q59 0 89 43q30 44 30 121q0 75 -36 116t-124 41h-41v39z" />
    <glyph glyph-name="seven" unicode="7" horiz-adv-x="482" 
d="M128 415q-45 0 -45 -47v-49h-50v137q0 22 21 22h396v-35l-319 -672l-64 24l311 620h-250z" />
    <glyph glyph-name="eight" unicode="8" horiz-adv-x="527" 
d="M53 159v-2q0 33 12 62q12 28 32 53q20 24 47 44q29 21 57 35q-56 30 -89 75t-33 100q0 36 15 66q15 31 40 51q25 21 62 33q36 12 79 12q85 0 132 -39t47 -106q0 -28 -10 -52q-10 -25 -30 -48q-18 -21 -45 -40q-25 -18 -54 -33q76 -44 117 -88q42 -45 42 -107
q0 -43 -16 -76q-16 -34 -45 -58q-28 -23 -69 -37q-39 -13 -87 -13q-50 0 -89 14q-38 13 -63 36t-39 54q-13 30 -13 64zM241 327v3q-112 -58 -112 -162q0 -56 36 -94q36 -37 101 -37q31 0 54 10q25 11 41 27q17 17 26 39q9 23 9 48q0 27 -9 48t-27 39q-20 20 -43 35
q-25 17 -60 36zM156 540l-1 -4q0 -43 25 -75q26 -33 81 -63l13 -8q53 28 79 66q25 37 25 78q0 52 -30 81q-31 29 -80 29q-50 0 -81 -28t-31 -76z" />
    <glyph glyph-name="nine" unicode="9" horiz-adv-x="548" 
d="M346 81l-4 -5q-16 -4 -39 -6q-30 -2 -45 -2q-98 0 -150 48t-52 142q0 51 13 91q14 43 40 72q28 31 66 47q40 17 90 17q106 0 163 -72t57 -227q0 -100 -22 -173q-23 -76 -61 -126t-95 -76q-54 -25 -123 -25q-18 0 -48 2q-22 2 -36 6v53h7q11 -4 34 -7q21 -3 40 -3
q109 0 166 84t57 264q0 71 -9 119t-27 78q-18 29 -45 43q-26 13 -61 13q-58 0 -88 -43t-30 -121q0 -38 9 -66q9 -29 28 -48t50 -30q29 -10 74 -10h41v-39z" />
    <glyph glyph-name="colon" unicode=":" horiz-adv-x="225" 
d="M112 -10l-2 -1q-25 0 -40 15t-15 41q0 23 15 40q15 16 41 16q29 0 42 -16q14 -17 14 -40q0 -26 -13 -40q-14 -15 -42 -15zM110 376h-2q-25 0 -40 15t-15 41q0 24 15 39t41 15q29 0 42 -15q14 -16 14 -39q0 -27 -13 -41q-14 -15 -42 -15z" />
    <glyph glyph-name="semicolon" unicode=";" horiz-adv-x="229" 
d="M112 377h-1q-25 0 -40 15t-15 41q0 24 15 39t41 15q28 0 42 -15q14 -16 14 -39q0 -25 -14 -41q-14 -15 -42 -15zM41 -112l-1 2q33 16 51 42t18 60h-2q-25 0 -38 15q-14 16 -14 41q0 24 15 39t41 15q30 0 45 -20t15 -56q0 -67 -33 -109q-32 -41 -78 -58z" />
    <glyph glyph-name="less" unicode="&#x3c;" horiz-adv-x="503" 
d="M69 254l315 204l29 -45l-270 -173l270 -173l-29 -45l-315 204v28z" />
    <glyph glyph-name="equal" unicode="=" horiz-adv-x="582" 
d="M75 218h432v-54h-432v54zM75 374h432v-54h-432v54z" />
    <glyph glyph-name="greater" unicode="&#x3e;" horiz-adv-x="503" 
d="M90 67l270 173l-270 173l29 45l315 -204v-28l-315 -204z" />
    </font>
</defs>
</svg>
