<?xml version="1.0" standalone="no"?>
<!DOCTYPE svg PUBLIC "-//W3C//DTD SVG 1.1//EN" "http://www.w3.org/Graphics/SVG/1.1/DTD/svg11.dtd" >
<svg xmlns="http://www.w3.org/2000/svg" xmlns:xlink="http://www.w3.org/1999/xlink" version="1.1">
<metadata>
Created by FontForge 20190801 at Tue Feb 19 18:51:39 2019
 By root
Copyright (c) 2018 Bold Monday. All rights reserved. Brando Arabic is a trademark of Bold Monday. Unauthorised copying or modification of any of its data is illegal.
</metadata>
<defs>
<font id="BrandoArabicBold" horiz-adv-x="0" >
  <font-face 
    font-family="Brando Arabic Bold"
    font-weight="700"
    font-stretch="normal"
    units-per-em="1000"
    panose-1="2 6 8 3 6 0 0 2 0 3"
    ascent="745"
    descent="-255"
    x-height="482"
    cap-height="680"
    bbox="-200 -537 8210 1033"
    underline-thickness="70"
    underline-position="-180"
    unicode-range="U+000D-FEFC"
  />
<missing-glyph horiz-adv-x="300" 
d="M100 718h100v-920h-100v920z" />
    <glyph glyph-name="fi" unicode="fi" horiz-adv-x="648" 
d="M357 69l29 1q26 0 26 26v288q0 26 -26 26h-146v-314q0 -26 27 -26h41v-69h-279v69h29q27 0 27 26v314h-63v74h39q24 0 24 23v21q0 48 16 87q17 42 46 71q30 30 73 48q44 18 99 18q31 0 50 -6v-88h-11q-26 8 -59 8q-37 0 -47 -19q-11 -20 -11 -66v-98h301q26 0 26 -26
v-362q0 -26 27 -26h29v-69h-267v69zM403 654v-1q0 41 24 62t63 21t63 -21t24 -61q0 -39 -24 -60t-63 -21t-63 21t-24 60z" />
    <glyph glyph-name="fl" unicode="fl" horiz-adv-x="637" 
d="M30 69l27 -1q27 0 27 26v314h-62v74h38q24 0 24 23v18q0 51 17 94q17 42 48 72q31 29 78 46q45 16 105 16h66q40 0 58 -1q25 -1 46 -3q20 -1 30 -3q28 -3 28 -30v-620q0 -26 26 -26h30v-69h-266v69h29q27 0 27 26v531q0 28 -13 40t-58 12q-55 0 -74 -21q-20 -22 -20 -75
v-98h106v-74h-106v-314q0 -26 26 -26h31v-69h-268v69z" />
    <glyph glyph-name="uniFC03" unicode="&#xfe8b;&#xfef0;" horiz-adv-x="757" arabic-form="isolated" 
d="M396 -151l-4 -7q-177 0 -270 78t-93 230q0 50 6 99q6 47 17 89h83v-9q-7 -30 -12 -66q-4 -32 -4 -70q0 -97 69 -142t218 -45q49 0 99 5q44 4 76 12q30 7 48 20q17 12 17 27q0 10 -6 17q-6 8 -23 14q-19 7 -45 11q-28 4 -74 9l-99 7v139l4 5l97 -6q57 -4 80 14t23 56
q0 28 -6 72t-18 99l5 5h96q10 -56 14 -93q5 -48 5 -78q0 -45 -12 -78t-40 -55v-3q39 -21 58 -52t19 -72q0 -54 -22 -97t-64 -73q-41 -29 -103 -46q-60 -16 -139 -16zM539 634l-1 1q-10 21 -10 39q0 22 9 42q9 19 24 34q16 16 36 23q22 8 44 8q67 0 67 -69v-31h-45v7
q0 23 -34 23q-23 0 -39 -10t-16 -24q0 -12 11 -23t30 -20h110v-68h-218v68h32z" />
    <glyph glyph-name="uniFC04" unicode="&#xfe8b;&#xfef2;" horiz-adv-x="757" arabic-form="isolated" 
d="M396 -151l-4 -7q-177 0 -270 78t-93 230q0 50 6 99q6 47 17 89h83v-9q-7 -30 -12 -66q-4 -32 -4 -70q0 -97 69 -142t218 -45q49 0 99 5q44 4 76 12q30 7 48 20q17 12 17 27q0 10 -6 17q-6 8 -23 14q-19 7 -45 11q-28 4 -74 9l-99 7v139l4 5l97 -6q57 -4 80 14t23 56
q0 28 -6 72t-18 99l5 5h96q10 -56 14 -93q5 -48 5 -78q0 -45 -12 -78t-40 -55v-3q39 -21 58 -52t19 -72q0 -54 -22 -97t-64 -73q-41 -29 -103 -46q-60 -16 -139 -16zM539 634l-1 1q-10 21 -10 39q0 22 9 42q9 19 24 34q16 16 36 23q22 8 44 8q67 0 67 -69v-31h-45v7
q0 23 -34 23q-23 0 -39 -10t-16 -24q0 -12 11 -23t30 -20h110v-68h-218v68h32zM466 -379h-10l-60 59l-60 -59h-10l-73 71l73 71h10l60 -59l60 59h10l73 -71z" />
    <glyph glyph-name="uniFC09" unicode="&#xfe91;&#xfef0;" horiz-adv-x="757" arabic-form="isolated" 
d="M396 -151l-4 -7q-177 0 -270 78t-93 230q0 50 6 99q6 47 17 89h83v-9q-7 -30 -12 -66q-4 -32 -4 -70q0 -97 69 -142t218 -45q49 0 99 5q44 4 76 12q30 7 48 20q17 12 17 27q0 10 -6 17q-6 8 -23 14q-19 7 -45 11q-28 4 -74 9l-99 7v139l4 5l97 -6q57 -4 80 14t23 56
q0 28 -6 72t-18 99l5 5h96q10 -56 14 -93q5 -48 5 -78q0 -45 -12 -78t-40 -55v-3q39 -21 58 -52t19 -72q0 -54 -22 -97t-64 -73q-41 -29 -103 -46q-60 -16 -139 -16zM678 -183l73 -71l-73 -71h-10l-73 71l73 71h10z" />
    <glyph glyph-name="uniFC0A" unicode="&#xfe91;&#xfef2;" horiz-adv-x="757" arabic-form="isolated" 
d="M396 -151l-4 -7q-177 0 -270 78t-93 230q0 50 6 99q6 47 17 89h83v-9q-7 -30 -12 -66q-4 -32 -4 -70q0 -97 69 -142t218 -45q49 0 99 5q44 4 76 12q30 7 48 20q17 12 17 27q0 10 -6 17q-6 8 -23 14q-19 7 -45 11q-28 4 -74 9l-99 7v139l4 5l97 -6q57 -4 80 14t23 56
q0 28 -6 72t-18 99l5 5h96q10 -56 14 -93q5 -48 5 -78q0 -45 -12 -78t-40 -55v-3q39 -21 58 -52t19 -72q0 -54 -22 -97t-64 -73q-41 -29 -103 -46q-60 -16 -139 -16zM678 -183l73 -71l-73 -71h-10l-73 71l73 71h10zM467 -380h-10l-60 59l-60 -59h-10l-73 71l73 71h10l60 -59
l60 59h10l73 -71z" />
    <glyph glyph-name="uniFC0F" unicode="&#xfe97;&#xfef0;" horiz-adv-x="757" arabic-form="isolated" 
d="M396 -151l-4 -7q-177 0 -270 78t-93 230q0 50 6 99q6 47 17 89h83v-9q-7 -30 -12 -66q-4 -32 -4 -70q0 -97 69 -142t218 -45q49 0 99 5q44 4 76 12q30 7 48 20q17 12 17 27q0 10 -6 17q-6 8 -23 14q-19 7 -45 11q-28 4 -74 9l-99 7v139l4 5l97 -6q57 -4 80 14t23 56
q0 28 -6 72t-18 99l5 5h96q10 -56 14 -93q5 -48 5 -78q0 -45 -12 -78t-40 -55v-3q39 -21 58 -52t19 -72q0 -54 -22 -97t-64 -73q-41 -29 -103 -46q-60 -16 -139 -16zM686 588h-10l-60 59l-60 -59h-10l-73 71l73 71h10l60 -59l60 59h10l73 -71z" />
    <glyph glyph-name="uniFC10" unicode="&#xfe97;&#xfef2;" horiz-adv-x="757" arabic-form="isolated" 
d="M396 -151l-4 -7q-177 0 -270 78t-93 230q0 50 6 99q6 47 17 89h83v-9q-7 -30 -12 -66q-4 -32 -4 -70q0 -97 69 -142t218 -45q49 0 99 5q44 4 76 12q30 7 48 20q17 12 17 27q0 10 -6 17q-6 8 -23 14q-19 7 -45 11q-28 4 -74 9l-99 7v139l4 5l97 -6q57 -4 80 14t23 56
q0 28 -6 72t-18 99l5 5h96q10 -56 14 -93q5 -48 5 -78q0 -45 -12 -78t-40 -55v-3q39 -21 58 -52t19 -72q0 -54 -22 -97t-64 -73q-41 -29 -103 -46q-60 -16 -139 -16zM686 588h-10l-60 59l-60 -59h-10l-73 71l73 71h10l60 -59l60 59h10l73 -71zM467 -380h-10l-60 59l-60 -59
h-10l-73 71l73 71h10l60 -59l60 59h10l73 -71z" />
    <glyph glyph-name="uniFC13" unicode="&#xfe9b;&#xfef0;" horiz-adv-x="757" arabic-form="isolated" 
d="M396 -151l-4 -7q-177 0 -270 78t-93 230q0 50 6 99q6 47 17 89h83v-9q-7 -30 -12 -66q-4 -32 -4 -70q0 -97 69 -142t218 -45q49 0 99 5q44 4 76 12q30 7 48 20q17 12 17 27q0 10 -6 17q-6 8 -23 14q-19 7 -45 11q-28 4 -74 9l-99 7v139l4 5l97 -6q57 -4 80 14t23 56
q0 28 -6 72t-18 99l5 5h96q10 -56 14 -93q5 -48 5 -78q0 -45 -12 -78t-40 -55v-3q39 -21 58 -52t19 -72q0 -54 -22 -97t-64 -73q-41 -29 -103 -46q-60 -16 -139 -16zM542 786l69 68h10l70 -68l-70 -68h-10zM686 588h-10l-60 59l-60 -59h-10l-73 71l73 71h10l60 -59l60 59h10
l73 -71z" />
    <glyph glyph-name="uniFC14" unicode="&#xfe9b;&#xfef2;" horiz-adv-x="757" arabic-form="isolated" 
d="M396 -151l-4 -7q-177 0 -270 78t-93 230q0 50 6 99q6 47 17 89h83v-9q-7 -30 -12 -66q-4 -32 -4 -70q0 -97 69 -142t218 -45q49 0 99 5q44 4 76 12q30 7 48 20q17 12 17 27q0 10 -6 17q-6 8 -23 14q-19 7 -45 11q-28 4 -74 9l-99 7v139l4 5l97 -6q57 -4 80 14t23 56
q0 28 -6 72t-18 99l5 5h96q10 -56 14 -93q5 -48 5 -78q0 -45 -12 -78t-40 -55v-3q39 -21 58 -52t19 -72q0 -54 -22 -97t-64 -73q-41 -29 -103 -46q-60 -16 -139 -16zM542 786l69 68h10l70 -68l-70 -68h-10zM686 588h-10l-60 59l-60 -59h-10l-73 71l73 71h10l60 -59l60 59h10
l73 -71zM467 -380h-10l-60 59l-60 -59h-10l-73 71l73 71h10l60 -59l60 59h10l73 -71z" />
    <glyph glyph-name="uniFC31" unicode="&#xfed3;&#xfef0;" horiz-adv-x="771" arabic-form="isolated" 
d="M645 111l-6 -9q43 -19 63 -50q19 -29 19 -71q0 -53 -22 -94q-22 -42 -64 -70q-43 -29 -103 -44q-62 -15 -139 -15q-177 0 -270 78t-93 230q0 50 6 99q6 47 17 89h83v-9q-8 -30 -12 -66q-4 -32 -4 -70q0 -97 69 -142t218 -45q49 0 99 5q44 4 76 12q30 7 48 20q17 12 17 27
q0 10 -6 18t-23 14q-19 7 -45 11q-28 4 -74 9l-114 7v139l4 5l93 -5q45 -3 76 0q30 3 51 14q19 10 28 30q10 21 11 48l-3 2q-56 -35 -138 -35q-80 0 -126 35q-45 34 -45 107q0 44 15 86t42 75q27 32 62 54q35 21 74 21q43 0 79 -24q37 -25 62 -66q26 -43 41 -99
q15 -57 15 -121q0 -76 -18 -124t-63 -72v-4zM523 350l3 -3q27 0 54 3q18 2 54 8q-17 50 -52 84q-37 35 -85 35q-21 0 -36 -7q-17 -8 -28 -19q-12 -12 -18 -27t-6 -28q0 -26 27 -36q26 -10 87 -10zM522 833l73 -71l-73 -71h-10l-73 71l73 71h10z" />
    <glyph glyph-name="uniFC32" unicode="&#xfed3;&#xfef2;" horiz-adv-x="771" arabic-form="isolated" 
d="M645 111l-6 -9q43 -19 63 -50q19 -29 19 -71q0 -53 -22 -94q-22 -42 -64 -70q-43 -29 -103 -44q-62 -15 -139 -15q-177 0 -270 78t-93 230q0 50 6 99q6 47 17 89h83v-9q-8 -30 -12 -66q-4 -32 -4 -70q0 -97 69 -142t218 -45q49 0 99 5q44 4 76 12q30 7 48 20q17 12 17 27
q0 10 -6 18t-23 14q-19 7 -45 11q-28 4 -74 9l-114 7v139l4 5l93 -5q45 -3 76 0q30 3 51 14q19 10 28 30q10 21 11 48l-3 2q-56 -35 -138 -35q-80 0 -126 35q-45 34 -45 107q0 44 15 86t42 75q27 32 62 54q35 21 74 21q43 0 79 -24q37 -25 62 -66q26 -43 41 -99
q15 -57 15 -121q0 -76 -18 -124t-63 -72v-4zM523 350l3 -3q27 0 54 3q18 2 54 8q-17 50 -52 84q-37 35 -85 35q-21 0 -36 -7q-17 -8 -28 -19q-12 -12 -18 -27t-6 -28q0 -26 27 -36q26 -10 87 -10zM522 833l73 -71l-73 -71h-10l-73 71l73 71h10zM473 -469h-10l-60 59l-60 -59
h-10l-73 71l73 71h10l60 -59l60 59h10l73 -71z" />
    <glyph glyph-name="uniFC35" unicode="&#xfed7;&#xfef0;" horiz-adv-x="771" arabic-form="isolated" 
d="M645 111l-6 -9q43 -19 63 -50q19 -29 19 -71q0 -53 -22 -94q-22 -42 -64 -70q-43 -29 -103 -44q-62 -15 -139 -15q-177 0 -270 78t-93 230q0 50 6 99q6 47 17 89h83v-9q-8 -30 -12 -66q-4 -32 -4 -70q0 -97 69 -142t218 -45q49 0 99 5q44 4 76 12q30 7 48 20q17 12 17 27
q0 10 -6 18t-23 14q-19 7 -45 11q-28 4 -74 9l-114 7v139l4 5l93 -5q45 -3 76 0q30 3 51 14q19 10 28 30q10 21 11 48l-3 2q-56 -35 -138 -35q-80 0 -126 35q-45 34 -45 107q0 44 15 86t42 75q27 32 62 54q35 21 74 21q43 0 79 -24q37 -25 62 -66q26 -43 41 -99
q15 -57 15 -121q0 -76 -18 -124t-63 -72v-4zM523 350l3 -3q27 0 54 3q18 2 54 8q-17 50 -52 84q-37 35 -85 35q-21 0 -36 -7q-17 -8 -28 -19q-12 -12 -18 -27t-6 -28q0 -26 27 -36q26 -10 87 -10zM587 691h-10l-60 59l-60 -59h-10l-73 71l73 71h10l60 -59l60 59h10l73 -71z
" />
    <glyph glyph-name="uniFC36" unicode="&#xfed7;&#xfef2;" horiz-adv-x="771" arabic-form="isolated" 
d="M645 111l-6 -9q43 -19 63 -50q19 -29 19 -71q0 -53 -22 -94q-22 -42 -64 -70q-43 -29 -103 -44q-62 -15 -139 -15q-177 0 -270 78t-93 230q0 50 6 99q6 47 17 89h83v-9q-8 -30 -12 -66q-4 -32 -4 -70q0 -97 69 -142t218 -45q49 0 99 5q44 4 76 12q30 7 48 20q17 12 17 27
q0 10 -6 18t-23 14q-19 7 -45 11q-28 4 -74 9l-114 7v139l4 5l93 -5q45 -3 76 0q30 3 51 14q19 10 28 30q10 21 11 48l-3 2q-56 -35 -138 -35q-80 0 -126 35q-45 34 -45 107q0 44 15 86t42 75q27 32 62 54q35 21 74 21q43 0 79 -24q37 -25 62 -66q26 -43 41 -99
q15 -57 15 -121q0 -76 -18 -124t-63 -72v-4zM523 350l3 -3q27 0 54 3q18 2 54 8q-17 50 -52 84q-37 35 -85 35q-21 0 -36 -7q-17 -8 -28 -19q-12 -12 -18 -27t-6 -28q0 -26 27 -36q26 -10 87 -10zM473 -469h-10l-60 59l-60 -59h-10l-73 71l73 71h10l60 -59l60 59h10l73 -71z
M587 691h-10l-60 59l-60 -59h-10l-73 71l73 71h10l60 -59l60 59h10l73 -71z" />
    <glyph glyph-name="uniFC3D" unicode="&#xfedb;&#xfef0;" horiz-adv-x="811" arabic-form="isolated" 
d="M396 -245l-2 -4q-177 0 -270 78t-93 230q0 49 6 99q6 47 17 89h83v-9q-7 -30 -12 -66q-4 -32 -4 -70q0 -97 69 -142t218 -45q59 0 99 4q44 4 76 12q31 7 48 18t17 24q0 9 -6 16q-5 7 -23 13q-19 7 -45 11q-28 4 -74 9l-99 12v139l4 6l107 -11q72 -8 101 0t29 32
q0 17 -18 35q-19 19 -64 51l-174 116v145l433 206h10v-126l-316 -150l47 -39q40 -32 73 -63q28 -27 49 -54q20 -25 27 -51q8 -27 8 -52q0 -38 -15 -66q-15 -29 -55 -54v-3q42 -19 60 -48t18 -66q0 -109 -83 -168q-82 -58 -246 -58z" />
    <glyph glyph-name="uniFC3E" unicode="&#xfedb;&#xfef2;" horiz-adv-x="811" arabic-form="isolated" 
d="M396 -245l-2 -4q-177 0 -270 78t-93 230q0 49 6 99q6 47 17 89h83v-9q-7 -30 -12 -66q-4 -32 -4 -70q0 -97 69 -142t218 -45q59 0 99 4q44 4 76 12q31 7 48 18t17 24q0 9 -6 16q-5 7 -23 13q-19 7 -45 11q-28 4 -74 9l-99 12v139l4 6l107 -11q72 -8 101 0t29 32
q0 17 -18 35q-19 19 -64 51l-174 116v145l433 206h10v-126l-316 -150l47 -39q40 -32 73 -63q28 -27 49 -54q20 -25 27 -51q8 -27 8 -52q0 -38 -15 -66q-15 -29 -55 -54v-3q42 -19 60 -48t18 -66q0 -109 -83 -168q-82 -58 -246 -58zM464 -471h-10l-60 59l-60 -59h-10l-73 71
l73 71h10l60 -59l60 59h10l73 -71z" />
    <glyph glyph-name="uniFC42" unicode="&#xfedf;&#xfee2;" horiz-adv-x="477" arabic-form="isolated" 
d="M255 249q-9 43 -9 103v393h108v-394q0 -47 3 -79t12 -54q23 -9 45 -21q26 -14 47 -27l45 -29l-77 -120l-45 29q-45 28 -81 41q-39 14 -74 14q-52 0 -73 -21t-21 -72v-326h-105v326q0 124 48 180t151 56h12q8 0 12 -1z" />
    <glyph glyph-name="uniFC43" unicode="&#xfedf;&#xfef0;" horiz-adv-x="791" arabic-form="isolated" 
d="M635 104l-3 -10q51 -20 71 -50q20 -31 20 -71q0 -54 -22 -95q-23 -43 -64 -72q-42 -30 -103 -45q-62 -15 -139 -15q-177 0 -270 78t-93 230q0 50 6 99q6 47 17 89h83v-9q-8 -30 -12 -66q-4 -32 -4 -70q0 -97 69 -142t218 -45q49 0 99 5q44 4 76 12q30 7 48 20
q17 12 17 27q0 10 -6 18t-23 14q-19 7 -45 11q-28 4 -74 9l-99 7v139l4 5l92 -6q52 -3 72 16q21 20 21 64v492h108v-492q0 -48 -13 -81q-14 -34 -51 -63v-3z" />
    <glyph glyph-name="uniFC44" unicode="&#xfedf;&#xfef2;" horiz-adv-x="791" arabic-form="isolated" 
d="M635 104l-3 -10q51 -20 71 -50q20 -31 20 -71q0 -54 -22 -95q-23 -43 -64 -72q-42 -30 -103 -45q-62 -15 -139 -15q-177 0 -270 78t-93 230q0 50 6 99q6 47 17 89h83v-9q-8 -30 -12 -66q-4 -32 -4 -70q0 -97 69 -142t218 -45q49 0 99 5q44 4 76 12q30 7 48 20
q17 12 17 27q0 10 -6 18t-23 14q-19 7 -45 11q-28 4 -74 9l-99 7v139l4 5l92 -6q52 -3 72 16q21 20 21 64v492h108v-492q0 -48 -13 -81q-14 -34 -51 -63v-3zM463 -477h-10l-60 59l-60 -59h-10l-73 71l73 71h10l60 -59l60 59h10l73 -71z" />
    <glyph glyph-name="uniFC4F" unicode="&#xfee7;&#xfef0;" horiz-adv-x="757" arabic-form="isolated" 
d="M396 -151l-4 -7q-177 0 -270 78t-93 230q0 50 6 99q6 47 17 89h83v-9q-7 -30 -12 -66q-4 -32 -4 -70q0 -97 69 -142t218 -45q49 0 99 5q44 4 76 12q30 7 48 20q17 12 17 27q0 10 -6 17q-6 8 -23 14q-19 7 -45 11q-28 4 -74 9l-99 7v139l4 5l97 -6q57 -4 80 14t23 56
q0 28 -6 72t-18 99l5 5h96q10 -56 14 -93q5 -48 5 -78q0 -45 -12 -78t-40 -55v-3q39 -21 58 -52t19 -72q0 -54 -22 -97t-64 -73q-41 -29 -103 -46q-60 -16 -139 -16zM621 730l73 -71l-73 -71h-10l-73 71l73 71h10z" />
    <glyph glyph-name="uniFC50" unicode="&#xfee7;&#xfef2;" horiz-adv-x="757" arabic-form="isolated" 
d="M396 -151l-4 -7q-177 0 -270 78t-93 230q0 50 6 99q6 47 17 89h83v-9q-7 -30 -12 -66q-4 -32 -4 -70q0 -97 69 -142t218 -45q49 0 99 5q44 4 76 12q30 7 48 20q17 12 17 27q0 10 -6 17q-6 8 -23 14q-19 7 -45 11q-28 4 -74 9l-99 7v139l4 5l97 -6q57 -4 80 14t23 56
q0 28 -6 72t-18 99l5 5h96q10 -56 14 -93q5 -48 5 -78q0 -45 -12 -78t-40 -55v-3q39 -21 58 -52t19 -72q0 -54 -22 -97t-64 -73q-41 -29 -103 -46q-60 -16 -139 -16zM621 730l73 -71l-73 -71h-10l-73 71l73 71h10zM467 -380h-10l-60 59l-60 -59h-10l-73 71l73 71h10l60 -59
l60 59h10l73 -71z" />
    <glyph glyph-name="uniFC59" unicode="&#xfef3;&#xfef0;" horiz-adv-x="757" arabic-form="isolated" 
d="M396 -151l-4 -7q-177 0 -270 78t-93 230q0 50 6 99q6 47 17 89h83v-9q-7 -30 -12 -66q-4 -32 -4 -70q0 -97 69 -142t218 -45q49 0 99 5q44 4 76 12q30 7 48 20q17 12 17 27q0 10 -6 17q-6 8 -23 14q-19 7 -45 11q-28 4 -74 9l-99 7v139l4 5l97 -6q57 -4 80 14t23 56
q0 28 -6 72t-18 99l5 5h96q10 -56 14 -93q5 -48 5 -78q0 -45 -12 -78t-40 -55v-3q39 -21 58 -52t19 -72q0 -54 -22 -97t-64 -73q-41 -29 -103 -46q-60 -16 -139 -16zM743 -325h-10l-60 59l-60 -59h-10l-73 71l73 71h10l60 -59l60 59h10l73 -71z" />
    <glyph glyph-name="uniFC5A" unicode="&#xfef3;&#xfef2;" horiz-adv-x="757" arabic-form="isolated" 
d="M396 -151l-4 -7q-177 0 -270 78t-93 230q0 50 6 99q6 47 17 89h83v-9q-7 -30 -12 -66q-4 -32 -4 -70q0 -97 69 -142t218 -45q49 0 99 5q44 4 76 12q30 7 48 20q17 12 17 27q0 10 -6 17q-6 8 -23 14q-19 7 -45 11q-28 4 -74 9l-99 7v139l4 5l97 -6q57 -4 80 14t23 56
q0 28 -6 72t-18 99l5 5h96q10 -56 14 -93q5 -48 5 -78q0 -45 -12 -78t-40 -55v-3q39 -21 58 -52t19 -72q0 -54 -22 -97t-64 -73q-41 -29 -103 -46q-60 -16 -139 -16zM337 -380h-10l-60 59l-60 -59h-10l-73 71l73 71h10l60 -59l60 59h10l73 -71zM613 -325h-10l-60 59l-60 -59
h-10l-73 71l73 71h10l60 -59l60 59h10l73 -71z" />
    <glyph glyph-name="uniFC64" unicode="&#xfe8c;&#xfeae;" horiz-adv-x="633" arabic-form="final" 
d="M54 -255v3q-42 0 -82 20q-39 20 -72 54v83l9 7q60 -24 117 -24q35 0 65 15q29 15 52 42q23 28 35 65q12 38 12 84q0 42 -12 104q-11 59 -35 131l5 7h96l15 -58l170 27v61h91v-142q0 -44 26 -61q25 -16 87 -16h1v-120l-25 -25h-1q-77 0 -120 34q-44 35 -51 109l-3 14
l-154 -24q2 -12 2 -18v-17q0 -76 -18 -141t-49 -112q-31 -48 -72 -75q-40 -27 -89 -27zM397 494l-1 1q-10 21 -10 39q0 22 9 42q9 19 24 34q16 16 36 23q22 8 44 8q67 0 67 -69v-31h-45v7q0 23 -34 23q-23 0 -39 -10t-16 -24q0 -12 11 -23t30 -20h110v-68h-218v68h32z" />
    <glyph glyph-name="uniFC65" unicode="&#xfe8c;&#xfeb0;" horiz-adv-x="633" arabic-form="final" 
d="M54 -255v3q-42 0 -82 20q-39 20 -72 54v83l9 7q60 -24 117 -24q35 0 65 15q29 15 52 42q23 28 35 65q12 38 12 84q0 42 -12 104q-11 59 -35 131l5 7h96l15 -58l170 27v61h91v-142q0 -44 26 -61q25 -16 87 -16h1v-120l-25 -25h-1q-77 0 -120 34q-44 35 -51 109l-3 14
l-154 -24q2 -12 2 -18v-17q0 -76 -18 -141t-49 -112q-31 -48 -72 -75q-40 -27 -89 -27zM397 494l-1 1q-10 21 -10 39q0 22 9 42q9 19 24 34q16 16 36 23q22 8 44 8q67 0 67 -69v-31h-45v7q0 23 -34 23q-23 0 -39 -10t-16 -24q0 -12 11 -23t30 -20h110v-68h-218v68h32z
M181 561l73 -71l-73 -71h-10l-73 71l73 71h10z" />
    <glyph glyph-name="uniFC67" unicode="&#xfe8c;&#xfee6;" horiz-adv-x="991" arabic-form="final" 
d="M331 -211l-4 2q-70 0 -127 20q-55 19 -93 56q-37 36 -57 89q-19 51 -19 117q0 48 6 90t18 84h83v-10q-8 -29 -12 -60q-4 -28 -4 -60q0 -79 54 -124t152 -45q106 0 159 36t53 105q0 46 -10 105q-12 68 -28 131l5 7h96l12 -58l169 27v61h91v-142q0 -44 26 -61
q25 -16 87 -16h1v-120l-25 -25h-1q-77 0 -120 34t-51 114l-1 10l-154 -26q2 -12 2 -18v-16q0 -73 -21 -130q-21 -58 -61 -96q-41 -39 -97 -60q-57 -21 -129 -21zM752 493l-1 1q-10 21 -10 39q0 23 9 42t24 34q16 16 36 23q22 8 44 8q67 0 67 -69v-31h-45v7q0 23 -34 23
q-23 0 -39 -10t-16 -24q0 -12 11 -23t30 -20h110v-68h-218v68h32zM330 440l73 -71l-73 -71h-10l-73 71l73 71h10z" />
    <glyph glyph-name="uniFC68" unicode="&#xfe8c;&#xfef0;" horiz-adv-x="911" arabic-form="final" 
d="M537 506l-1 1q-10 21 -10 39q0 22 9 42q9 19 24 34q16 16 36 23q22 8 44 8q67 0 67 -69v-31h-45v7q0 23 -34 23q-23 0 -39 -10t-16 -24q0 -12 11 -23t30 -20h110v-68h-218v68h32zM385 -304h-6q-169 0 -261 75q-91 75 -91 220q0 47 6 93q6 43 17 84h83v-8q-7 -28 -12 -62
q-4 -29 -4 -65q0 -91 69 -135q68 -43 218 -43q48 0 96 5q44 4 75 12t48 18q17 11 17 24q0 14 -19 21t-75 18l-75 13q-80 13 -118 47q-37 33 -37 96q0 51 24 99q25 50 64 86q40 38 93 60q54 23 111 23q47 0 87 -23q39 -23 68 -74l29 -54q11 -20 24 -40q9 -15 23 -25
q10 -8 26 -13q12 -4 33 -4h6v-120l-25 -25h-6q-56 0 -93 28q-38 29 -75 96l-25 45q-20 35 -48 50t-66 15q-32 0 -62 -6q-29 -6 -53 -17q-23 -10 -36 -24q-14 -14 -14 -28q0 -17 20 -28q19 -10 66 -18l75 -14q42 -8 72 -18q30 -11 49 -28t28 -42q9 -24 9 -57q0 -60 -23 -109
q-23 -48 -66 -81q-45 -34 -105 -50q-63 -17 -141 -17z" />
    <glyph glyph-name="uniFC69" unicode="&#xfe8c;&#xfef2;" horiz-adv-x="911" arabic-form="final" 
d="M537 506l-1 1q-10 21 -10 39q0 22 9 42q9 19 24 34q16 16 36 23q22 8 44 8q67 0 67 -69v-31h-45v7q0 23 -34 23q-23 0 -39 -10t-16 -24q0 -12 11 -23t30 -20h110v-68h-218v68h32zM455 -526h-10l-60 59l-60 -59h-10l-73 71l73 71h10l60 -59l60 59h10l73 -71zM385 -304h-6
q-169 0 -261 75q-91 75 -91 220q0 47 6 93q6 43 17 84h83v-8q-7 -28 -12 -62q-4 -29 -4 -65q0 -91 69 -135q68 -43 218 -43q48 0 96 5q44 4 75 12t48 18q17 11 17 24q0 14 -19 21t-75 18l-75 13q-80 13 -118 47q-37 33 -37 96q0 51 24 99q25 50 64 86q40 38 93 60
q54 23 111 23q47 0 87 -23q39 -23 68 -74l29 -54q11 -20 24 -40q9 -15 23 -25q10 -8 26 -13q12 -4 33 -4h6v-120l-25 -25h-6q-56 0 -93 28q-38 29 -75 96l-25 45q-20 35 -48 50t-66 15q-32 0 -62 -6q-29 -6 -53 -17q-23 -10 -36 -24q-14 -14 -14 -28q0 -17 20 -28
q19 -10 66 -18l75 -14q42 -8 72 -18q30 -11 49 -28t28 -42q9 -24 9 -57q0 -60 -23 -109q-23 -48 -66 -81q-45 -34 -105 -50q-63 -17 -141 -17z" />
    <glyph glyph-name="uniFC6A" unicode="&#xfe92;&#xfeae;" horiz-adv-x="633" arabic-form="final" 
d="M54 -255v3q-42 0 -82 20q-39 20 -72 54v83l9 7q60 -24 117 -24q35 0 65 15q29 15 52 42q23 28 35 65q12 38 12 84q0 42 -12 104q-11 59 -35 131l5 7h96l15 -58l170 27v61h91v-142q0 -44 26 -61q25 -16 87 -16h1v-120l-25 -25h-1q-77 0 -120 34q-44 35 -51 109l-3 14
l-154 -24q2 -12 2 -18v-17q0 -76 -18 -141t-49 -112q-31 -48 -72 -75q-40 -27 -89 -27zM480 -77l73 -71l-73 -71h-10l-73 71l73 71h10z" />
    <glyph glyph-name="uniFC6B" unicode="&#xfe92;&#xfeb0;" horiz-adv-x="633" arabic-form="final" 
d="M54 -255v3q-42 0 -82 20q-39 20 -72 54v83l9 7q60 -24 117 -24q35 0 65 15q29 15 52 42q23 28 35 65q12 38 12 84q0 42 -12 104q-11 59 -35 131l5 7h96l15 -58l170 27v61h91v-142q0 -44 26 -61q25 -16 87 -16h1v-120l-25 -25h-1q-77 0 -120 34q-44 35 -51 109l-3 14
l-154 -24q2 -12 2 -18v-17q0 -76 -18 -141t-49 -112q-31 -48 -72 -75q-40 -27 -89 -27zM480 -77l73 -71l-73 -71h-10l-73 71l73 71h10zM182 560l73 -71l-73 -71h-10l-73 71l73 71h10z" />
    <glyph glyph-name="uniFC6D" unicode="&#xfe92;&#xfee6;" horiz-adv-x="991" arabic-form="final" 
d="M331 -211l-4 2q-70 0 -127 20q-55 19 -93 56q-37 36 -57 89q-19 51 -19 117q0 48 6 90t18 84h83v-10q-8 -29 -12 -60q-4 -28 -4 -60q0 -79 54 -124t152 -45q106 0 159 36t53 105q0 46 -10 105q-12 68 -28 131l5 7h96l12 -58l169 27v61h91v-142q0 -44 26 -61
q25 -16 87 -16h1v-120l-25 -25h-1q-77 0 -120 34t-51 114l-1 10l-154 -26q2 -12 2 -18v-16q0 -73 -21 -130q-21 -58 -61 -96q-41 -39 -97 -60q-57 -21 -129 -21zM331 439l73 -71l-73 -71h-10l-73 71l73 71h10zM822 -78l73 -71l-73 -71h-10l-73 71l73 71h10z" />
    <glyph glyph-name="uniFC6E" unicode="&#xfe92;&#xfef0;" horiz-adv-x="911" arabic-form="final" 
d="M764 -253l73 -71l-73 -71h-10l-73 71l73 71h10zM386 -305h-6q-170 0 -261 75t-91 220q0 46 6 93q6 43 17 84h83v-8q-7 -28 -12 -62q-4 -29 -4 -65q0 -92 69 -135q68 -43 218 -43q48 0 96 5q43 5 75 12t48 18q17 11 17 24q0 14 -19 21q-20 8 -75 18l-75 13q-80 13 -118 47
q-37 33 -37 96q0 51 24 99q25 50 64 86q41 37 93 60q54 23 111 23q47 0 87 -23q39 -23 68 -74l29 -54q11 -20 24 -40q9 -15 23 -25q10 -8 26 -13q12 -4 33 -4h6v-120l-25 -25h-6q-56 0 -93 28t-75 96l-25 45q-20 35 -48 50q-29 15 -66 15q-32 0 -62 -6q-29 -6 -53 -17
q-22 -11 -36 -24q-14 -14 -14 -28q0 -17 20 -28t66 -18l75 -14q42 -7 72 -18t49 -28t28 -42q9 -24 9 -57q0 -60 -23 -109q-22 -48 -66 -81q-45 -34 -105 -50q-63 -17 -141 -17z" />
    <glyph glyph-name="uniFC6F" unicode="&#xfe92;&#xfef2;" horiz-adv-x="911" arabic-form="final" 
d="M764 -253l73 -71l-73 -71h-10l-73 71l73 71h10zM456 -527h-10l-60 59l-60 -59h-10l-73 71l73 71h10l60 -59l60 59h10l73 -71zM386 -305h-6q-170 0 -261 75t-91 220q0 46 6 93q6 43 17 84h83v-8q-7 -28 -12 -62q-4 -29 -4 -65q0 -92 69 -135q68 -43 218 -43q48 0 96 5
q43 5 75 12t48 18q17 11 17 24q0 14 -19 21q-20 8 -75 18l-75 13q-80 13 -118 47q-37 33 -37 96q0 51 24 99q25 50 64 86q41 37 93 60q54 23 111 23q47 0 87 -23q39 -23 68 -74l29 -54q11 -20 24 -40q9 -15 23 -25q10 -8 26 -13q12 -4 33 -4h6v-120l-25 -25h-6q-56 0 -93 28
t-75 96l-25 45q-20 35 -48 50q-29 15 -66 15q-32 0 -62 -6q-29 -6 -53 -17q-22 -11 -36 -24q-14 -14 -14 -28q0 -17 20 -28t66 -18l75 -14q42 -7 72 -18t49 -28t28 -42q9 -24 9 -57q0 -60 -23 -109q-22 -48 -66 -81q-45 -34 -105 -50q-63 -17 -141 -17z" />
    <glyph glyph-name="uniFC70" unicode="&#xfe98;&#xfeae;" horiz-adv-x="633" arabic-form="final" 
d="M54 -255v3q-42 0 -82 20q-39 20 -72 54v83l9 7q60 -24 117 -24q35 0 65 15q29 15 52 42q23 28 35 65q12 38 12 84q0 42 -12 104q-11 59 -35 131l5 7h96l15 -58l170 27v61h91v-142q0 -44 26 -61q25 -16 87 -16h1v-120l-25 -25h-1q-77 0 -120 34q-44 35 -51 109l-3 14
l-154 -24q2 -12 2 -18v-17q0 -76 -18 -141t-49 -112q-31 -48 -72 -75q-40 -27 -89 -27zM544 448h-10l-60 59l-60 -59h-10l-73 71l73 71h10l60 -59l60 59h10l73 -71z" />
    <glyph glyph-name="uniFC71" unicode="&#xfe98;&#xfeb0;" horiz-adv-x="633" arabic-form="final" 
d="M54 -255v3q-42 0 -82 20q-39 20 -72 54v83l9 7q60 -24 117 -24q35 0 65 15q29 15 52 42q23 28 35 65q12 38 12 84q0 42 -12 104q-11 59 -35 131l5 7h96l15 -58l170 27v61h91v-142q0 -44 26 -61q25 -16 87 -16h1v-120l-25 -25h-1q-77 0 -120 34q-44 35 -51 109l-3 14
l-154 -24q2 -12 2 -18v-17q0 -76 -18 -141t-49 -112q-31 -48 -72 -75q-40 -27 -89 -27zM544 448h-10l-60 59l-60 -59h-10l-73 71l73 71h10l60 -59l60 59h10l73 -71zM182 560l73 -71l-73 -71h-10l-73 71l73 71h10z" />
    <glyph glyph-name="uniFC73" unicode="&#xfe98;&#xfee6;" horiz-adv-x="991" arabic-form="final" 
d="M331 -211l-4 2q-70 0 -127 20q-55 19 -93 56q-37 36 -57 89q-19 51 -19 117q0 48 6 90t18 84h83v-10q-8 -29 -12 -60q-4 -28 -4 -60q0 -79 54 -124t152 -45q106 0 159 36t53 105q0 46 -10 105q-12 68 -28 131l5 7h96l12 -58l169 27v61h91v-142q0 -44 26 -61
q25 -16 87 -16h1v-120l-25 -25h-1q-77 0 -120 34t-51 114l-1 10l-154 -26q2 -12 2 -18v-16q0 -73 -21 -130q-21 -58 -61 -96q-41 -39 -97 -60q-57 -21 -129 -21zM331 439l73 -71l-73 -71h-10l-73 71l73 71h10zM899 447h-10l-60 59l-60 -59h-10l-73 71l73 71h10l60 -59l60 59
h10l73 -71z" />
    <glyph glyph-name="uniFC74" unicode="&#xfe98;&#xfef0;" horiz-adv-x="911" arabic-form="final" 
d="M684 460h-10l-60 59l-60 -59h-10l-73 71l73 71h10l60 -59l60 59h10l73 -71zM386 -305h-6q-170 0 -261 75t-91 220q0 46 6 93q6 43 17 84h83v-8q-7 -28 -12 -62q-4 -29 -4 -65q0 -92 69 -135q68 -43 218 -43q48 0 96 5q43 5 75 12t48 18q17 11 17 24q0 14 -19 21
q-20 8 -75 18l-75 13q-80 13 -118 47q-37 33 -37 96q0 51 24 99q25 50 64 86q41 37 93 60q54 23 111 23q47 0 87 -23q39 -23 68 -74l29 -54q11 -20 24 -40q9 -15 23 -25q10 -8 26 -13q12 -4 33 -4h6v-120l-25 -25h-6q-56 0 -93 28t-75 96l-25 45q-20 35 -48 50
q-29 15 -66 15q-32 0 -62 -6q-29 -6 -53 -17q-22 -11 -36 -24q-14 -14 -14 -28q0 -17 20 -28t66 -18l75 -14q42 -7 72 -18t49 -28t28 -42q9 -24 9 -57q0 -60 -23 -109q-22 -48 -66 -81q-45 -34 -105 -50q-63 -17 -141 -17z" />
    <glyph glyph-name="uniFC75" unicode="&#xfe98;&#xfef2;" horiz-adv-x="911" arabic-form="final" 
d="M684 460h-10l-60 59l-60 -59h-10l-73 71l73 71h10l60 -59l60 59h10l73 -71zM456 -527h-10l-60 59l-60 -59h-10l-73 71l73 71h10l60 -59l60 59h10l73 -71zM386 -305h-6q-170 0 -261 75t-91 220q0 46 6 93q6 43 17 84h83v-8q-7 -28 -12 -62q-4 -29 -4 -65q0 -92 69 -135
q68 -43 218 -43q48 0 96 5q43 5 75 12t48 18q17 11 17 24q0 14 -19 21q-20 8 -75 18l-75 13q-80 13 -118 47q-37 33 -37 96q0 51 24 99q25 50 64 86q41 37 93 60q54 23 111 23q47 0 87 -23q39 -23 68 -74l29 -54q11 -20 24 -40q9 -15 23 -25q10 -8 26 -13q12 -4 33 -4h6
v-120l-25 -25h-6q-56 0 -93 28t-75 96l-25 45q-20 35 -48 50q-29 15 -66 15q-32 0 -62 -6q-29 -6 -53 -17q-22 -11 -36 -24q-14 -14 -14 -28q0 -17 20 -28t66 -18l75 -14q42 -7 72 -18t49 -28t28 -42q9 -24 9 -57q0 -60 -23 -109q-22 -48 -66 -81q-45 -34 -105 -50
q-63 -17 -141 -17z" />
    <glyph glyph-name="uniFC76" unicode="&#xfe9c;&#xfeae;" horiz-adv-x="633" arabic-form="final" 
d="M54 -255v3q-42 0 -82 20q-39 20 -72 54v83l9 7q60 -24 117 -24q35 0 65 15q29 15 52 42q23 28 35 65q12 38 12 84q0 42 -12 104q-11 59 -35 131l5 7h96l15 -58l170 27v61h91v-142q0 -44 26 -61q25 -16 87 -16h1v-120l-25 -25h-1q-77 0 -120 34q-44 35 -51 109l-3 14
l-154 -24q2 -12 2 -18v-17q0 -76 -18 -141t-49 -112q-31 -48 -72 -75q-40 -27 -89 -27zM400 646l69 68h10l70 -68l-70 -68h-10zM544 448h-10l-60 59l-60 -59h-10l-73 71l73 71h10l60 -59l60 59h10l73 -71z" />
    <glyph glyph-name="uniFC77" unicode="&#xfe9c;&#xfeb0;" horiz-adv-x="633" arabic-form="final" 
d="M54 -255v3q-42 0 -82 20q-39 20 -72 54v83l9 7q60 -24 117 -24q35 0 65 15q29 15 52 42q23 28 35 65q12 38 12 84q0 42 -12 104q-11 59 -35 131l5 7h96l15 -58l170 27v61h91v-142q0 -44 26 -61q25 -16 87 -16h1v-120l-25 -25h-1q-77 0 -120 34q-44 35 -51 109l-3 14
l-154 -24q2 -12 2 -18v-17q0 -76 -18 -141t-49 -112q-31 -48 -72 -75q-40 -27 -89 -27zM400 646l69 68h10l70 -68l-70 -68h-10zM544 448h-10l-60 59l-60 -59h-10l-73 71l73 71h10l60 -59l60 59h10l73 -71zM182 560l73 -71l-73 -71h-10l-73 71l73 71h10z" />
    <glyph glyph-name="uniFC79" unicode="&#xfe9c;&#xfee6;" horiz-adv-x="991" arabic-form="final" 
d="M331 -211l-4 2q-70 0 -127 20q-55 19 -93 56q-37 36 -57 89q-19 51 -19 117q0 48 6 90t18 84h83v-10q-8 -29 -12 -60q-4 -28 -4 -60q0 -79 54 -124t152 -45q106 0 159 36t53 105q0 46 -10 105q-12 68 -28 131l5 7h96l12 -58l169 27v61h91v-142q0 -44 26 -61
q25 -16 87 -16h1v-120l-25 -25h-1q-77 0 -120 34t-51 114l-1 10l-154 -26q2 -12 2 -18v-16q0 -73 -21 -130q-21 -58 -61 -96q-41 -39 -97 -60q-57 -21 -129 -21zM331 439l73 -71l-73 -71h-10l-73 71l73 71h10zM755 645l69 68h10l70 -68l-70 -68h-10zM899 447h-10l-60 59
l-60 -59h-10l-73 71l73 71h10l60 -59l60 59h10l73 -71z" />
    <glyph glyph-name="uniFC7A" unicode="&#xfe9c;&#xfef0;" horiz-adv-x="911" arabic-form="final" 
d="M540 658l69 68h10l70 -68l-70 -68h-10zM684 460h-10l-60 59l-60 -59h-10l-73 71l73 71h10l60 -59l60 59h10l73 -71zM386 -305h-6q-170 0 -261 75t-91 220q0 46 6 93q6 43 17 84h83v-8q-7 -28 -12 -62q-4 -29 -4 -65q0 -92 69 -135q68 -43 218 -43q48 0 96 5q43 5 75 12
t48 18q17 11 17 24q0 14 -19 21q-20 8 -75 18l-75 13q-80 13 -118 47q-37 33 -37 96q0 51 24 99q25 50 64 86q41 37 93 60q54 23 111 23q47 0 87 -23q39 -23 68 -74l29 -54q11 -20 24 -40q9 -15 23 -25q10 -8 26 -13q12 -4 33 -4h6v-120l-25 -25h-6q-56 0 -93 28t-75 96
l-25 45q-20 35 -48 50q-29 15 -66 15q-32 0 -62 -6q-29 -6 -53 -17q-22 -11 -36 -24q-14 -14 -14 -28q0 -17 20 -28t66 -18l75 -14q42 -7 72 -18t49 -28t28 -42q9 -24 9 -57q0 -60 -23 -109q-22 -48 -66 -81q-45 -34 -105 -50q-63 -17 -141 -17z" />
    <glyph glyph-name="uniFC7B" unicode="&#xfe9c;&#xfef2;" horiz-adv-x="911" arabic-form="final" 
d="M540 658l69 68h10l70 -68l-70 -68h-10zM684 460h-10l-60 59l-60 -59h-10l-73 71l73 71h10l60 -59l60 59h10l73 -71zM456 -527h-10l-60 59l-60 -59h-10l-73 71l73 71h10l60 -59l60 59h10l73 -71zM386 -305h-6q-170 0 -261 75t-91 220q0 46 6 93q6 43 17 84h83v-8
q-7 -28 -12 -62q-4 -29 -4 -65q0 -92 69 -135q68 -43 218 -43q48 0 96 5q43 5 75 12t48 18q17 11 17 24q0 14 -19 21q-20 8 -75 18l-75 13q-80 13 -118 47q-37 33 -37 96q0 51 24 99q25 50 64 86q41 37 93 60q54 23 111 23q47 0 87 -23q39 -23 68 -74l29 -54q11 -20 24 -40
q9 -15 23 -25q10 -8 26 -13q12 -4 33 -4h6v-120l-25 -25h-6q-56 0 -93 28t-75 96l-25 45q-20 35 -48 50q-29 15 -66 15q-32 0 -62 -6q-29 -6 -53 -17q-22 -11 -36 -24q-14 -14 -14 -28q0 -17 20 -28t66 -18l75 -14q42 -7 72 -18t49 -28t28 -42q9 -24 9 -57q0 -60 -23 -109
q-22 -48 -66 -81q-45 -34 -105 -50q-63 -17 -141 -17z" />
    <glyph glyph-name="uniFC83" unicode="&#xfedc;&#xfef0;" horiz-adv-x="1053" arabic-form="final" 
d="M712 469l172 -233q20 -27 36 -45q16 -17 35 -30q17 -11 37 -16q22 -5 43 -5h15v-119l-25 -26q-30 0 -54 6t-48 21t-48 39q-22 22 -54 62q-21 -88 -99 -115q2 -6 2 -11v-13q0 -56 -22 -99t-64 -73t-103 -45q-62 -15 -139 -15q-177 0 -270 78t-93 230q0 50 6 99q6 47 17 89
h83v-9q-7 -30 -12 -66q-4 -32 -4 -70q0 -97 69 -142t218 -45q110 0 174 15q65 15 65 41q0 11 -6 17q-7 7 -23 11t-45 9q-38 6 -74 12l-99 13v139l4 6l97 -14q12 -2 34 -5t31 -5q27 -4 47 -6q19 -1 33 -3q9 -1 24 -1q42 0 65 12q22 12 33 38l-155 209v145l433 206h10v-126z
" />
    <glyph glyph-name="uniFC84" unicode="&#xfedc;&#xfef2;" horiz-adv-x="1053" arabic-form="final" 
d="M712 469l172 -233q20 -27 36 -45q16 -17 35 -30q17 -11 37 -16q22 -5 43 -5h15v-119l-25 -26q-30 0 -54 6t-48 21t-48 39q-22 22 -54 62q-21 -88 -99 -115q2 -6 2 -11v-13q0 -56 -22 -99t-64 -73t-103 -45q-62 -15 -139 -15q-177 0 -270 78t-93 230q0 50 6 99q6 47 17 89
h83v-9q-7 -30 -12 -66q-4 -32 -4 -70q0 -97 69 -142t218 -45q110 0 174 15q65 15 65 41q0 11 -6 17q-7 7 -23 11t-45 9q-38 6 -74 12l-99 13v139l4 6l97 -14q12 -2 34 -5t31 -5q27 -4 47 -6q19 -1 33 -3q9 -1 24 -1q42 0 65 12q22 12 33 38l-155 209v145l433 206h10v-126z
M463 -472h-10l-60 59l-60 -59h-10l-73 71l73 71h10l60 -59l60 59h10l73 -71z" />
    <glyph glyph-name="uniFC86" unicode="&#xfee0;&#xfef0;" horiz-adv-x="976" arabic-form="final" 
d="M976 25l-25 -30h-1q-62 0 -103 21q-40 21 -60 68q-23 -50 -63 -72q3 -13 3 -29q0 -112 -83 -172q-82 -60 -246 -60q-177 0 -270 78t-93 230q0 49 6 99q6 47 17 89h83v-9q-7 -30 -12 -66q-4 -32 -4 -70q0 -97 69 -142t218 -45q110 0 174 15q65 15 65 41q0 11 -6 17
q-7 6 -23 11t-45 9q-38 6 -74 12l-99 13v139l4 6l97 -14q59 -10 98 -15q33 -4 68 -4q27 0 54 5q24 4 44 17q-3 24 -3 53v524h108v-514q0 -46 23 -66q22 -19 78 -19h1v-120z" />
    <glyph glyph-name="uniFC87" unicode="&#xfee0;&#xfef2;" horiz-adv-x="976" arabic-form="final" 
d="M976 25l-25 -30h-1q-62 0 -103 21q-40 21 -60 68q-23 -50 -63 -72q3 -13 3 -29q0 -112 -83 -172q-82 -60 -246 -60q-177 0 -270 78t-93 230q0 49 6 99q6 47 17 89h83v-9q-7 -30 -12 -66q-4 -32 -4 -70q0 -97 69 -142t218 -45q110 0 174 15q65 15 65 41q0 11 -6 17
q-7 6 -23 11t-45 9q-38 6 -74 12l-99 13v139l4 6l97 -14q59 -10 98 -15q33 -4 68 -4q27 0 54 5q24 4 44 17q-3 24 -3 53v524h108v-514q0 -46 23 -66q22 -19 78 -19h1v-120zM466 -472h-10l-60 59l-60 -59h-10l-73 71l73 71h10l60 -59l60 59h10l73 -71z" />
    <glyph glyph-name="uniFC8A" unicode="&#xfee8;&#xfeae;" horiz-adv-x="633" arabic-form="final" 
d="M54 -255v3q-42 0 -82 20q-39 20 -72 54v83l9 7q60 -24 117 -24q35 0 65 15q29 15 52 42q23 28 35 65q12 38 12 84q0 42 -12 104q-11 59 -35 131l5 7h96l15 -58l170 27v61h91v-142q0 -44 26 -61q25 -16 87 -16h1v-120l-25 -25h-1q-77 0 -120 34q-44 35 -51 109l-3 14
l-154 -24q2 -12 2 -18v-17q0 -76 -18 -141t-49 -112q-31 -48 -72 -75q-40 -27 -89 -27zM479 590l73 -71l-73 -71h-10l-73 71l73 71h10z" />
    <glyph glyph-name="uniFC8B" unicode="&#xfee8;&#xfeb0;" horiz-adv-x="633" arabic-form="final" 
d="M54 -255v3q-42 0 -82 20q-39 20 -72 54v83l9 7q60 -24 117 -24q35 0 65 15q29 15 52 42q23 28 35 65q12 38 12 84q0 42 -12 104q-11 59 -35 131l5 7h96l15 -58l170 27v61h91v-142q0 -44 26 -61q25 -16 87 -16h1v-120l-25 -25h-1q-77 0 -120 34q-44 35 -51 109l-3 14
l-154 -24q2 -12 2 -18v-17q0 -76 -18 -141t-49 -112q-31 -48 -72 -75q-40 -27 -89 -27zM117 560l73 -71l-73 -71h-10l-73 71l73 71h10zM414 590l73 -71l-73 -71h-10l-73 71l73 71h10z" />
    <glyph glyph-name="uniFC8D" unicode="&#xfee8;&#xfee6;" horiz-adv-x="991" arabic-form="final" 
d="M331 -211l-4 2q-70 0 -127 20q-55 19 -93 56q-37 36 -57 89q-19 51 -19 117q0 48 6 90t18 84h83v-10q-8 -29 -12 -60q-4 -28 -4 -60q0 -79 54 -124t152 -45q106 0 159 36t53 105q0 46 -10 105q-12 68 -28 131l5 7h96l12 -58l169 27v61h91v-142q0 -44 26 -61
q25 -16 87 -16h1v-120l-25 -25h-1q-77 0 -120 34t-51 114l-1 10l-154 -26q2 -12 2 -18v-16q0 -73 -21 -130q-21 -58 -61 -96q-41 -39 -97 -60q-57 -21 -129 -21zM266 439l73 -71l-73 -71h-10l-73 71l73 71h10zM769 589l73 -71l-73 -71h-10l-73 71l73 71h10z" />
    <glyph glyph-name="uniFC8E" unicode="&#xfee8;&#xfef0;" horiz-adv-x="911" arabic-form="final" 
d="M619 602l73 -71l-73 -71h-10l-73 71l73 71h10zM386 -305h-6q-170 0 -261 75t-91 220q0 46 6 93q6 43 17 84h83v-8q-7 -28 -12 -62q-4 -29 -4 -65q0 -92 69 -135q68 -43 218 -43q48 0 96 5q43 5 75 12t48 18q17 11 17 24q0 14 -19 21q-20 8 -75 18l-75 13q-80 13 -118 47
q-37 33 -37 96q0 51 24 99q25 50 64 86q41 37 93 60q54 23 111 23q47 0 87 -23q39 -23 68 -74l29 -54q11 -20 24 -40q9 -15 23 -25q10 -8 26 -13q12 -4 33 -4h6v-120l-25 -25h-6q-56 0 -93 28t-75 96l-25 45q-20 35 -48 50q-29 15 -66 15q-32 0 -62 -6q-29 -6 -53 -17
q-22 -11 -36 -24q-14 -14 -14 -28q0 -17 20 -28t66 -18l75 -14q42 -7 72 -18t49 -28t28 -42q9 -24 9 -57q0 -60 -23 -109q-22 -48 -66 -81q-45 -34 -105 -50q-63 -17 -141 -17z" />
    <glyph glyph-name="uniFC8F" unicode="&#xfee8;&#xfef2;" horiz-adv-x="911" arabic-form="final" 
d="M619 602l73 -71l-73 -71h-10l-73 71l73 71h10zM456 -527h-10l-60 59l-60 -59h-10l-73 71l73 71h10l60 -59l60 59h10l73 -71zM386 -305h-6q-170 0 -261 75t-91 220q0 46 6 93q6 43 17 84h83v-8q-7 -28 -12 -62q-4 -29 -4 -65q0 -92 69 -135q68 -43 218 -43q48 0 96 5
q43 5 75 12t48 18q17 11 17 24q0 14 -19 21q-20 8 -75 18l-75 13q-80 13 -118 47q-37 33 -37 96q0 51 24 99q25 50 64 86q41 37 93 60q54 23 111 23q47 0 87 -23q39 -23 68 -74l29 -54q11 -20 24 -40q9 -15 23 -25q10 -8 26 -13q12 -4 33 -4h6v-120l-25 -25h-6q-56 0 -93 28
t-75 96l-25 45q-20 35 -48 50q-29 15 -66 15q-32 0 -62 -6q-29 -6 -53 -17q-22 -11 -36 -24q-14 -14 -14 -28q0 -17 20 -28t66 -18l75 -14q42 -7 72 -18t49 -28t28 -42q9 -24 9 -57q0 -60 -23 -109q-22 -48 -66 -81q-45 -34 -105 -50q-63 -17 -141 -17z" />
    <glyph glyph-name="uniFC91" unicode="&#xfef4;&#xfeae;" horiz-adv-x="633" arabic-form="final" 
d="M54 -255v3q-42 0 -82 20q-39 20 -72 54v83l9 7q60 -24 117 -24q35 0 65 15q29 15 52 42q23 28 35 65q12 38 12 84q0 42 -12 104q-11 59 -35 131l5 7h96l15 -58l170 27v61h91v-142q0 -44 26 -61q25 -16 87 -16h1v-120l-25 -25h-1q-77 0 -120 34q-44 35 -51 109l-3 14
l-154 -24q2 -12 2 -18v-17q0 -76 -18 -141t-49 -112q-31 -48 -72 -75q-40 -27 -89 -27zM545 -219h-10l-60 59l-60 -59h-10l-73 71l73 71h10l60 -59l60 59h10l73 -71z" />
    <glyph glyph-name="uniFC92" unicode="&#xfef4;&#xfeb0;" horiz-adv-x="633" arabic-form="final" 
d="M54 -255v3q-42 0 -82 20q-39 20 -72 54v83l9 7q60 -24 117 -24q35 0 65 15q29 15 52 42q23 28 35 65q12 38 12 84q0 42 -12 104q-11 59 -35 131l5 7h96l15 -58l170 27v61h91v-142q0 -44 26 -61q25 -16 87 -16h1v-120l-25 -25h-1q-77 0 -120 34q-44 35 -51 109l-3 14
l-154 -24q2 -12 2 -18v-17q0 -76 -18 -141t-49 -112q-31 -48 -72 -75q-40 -27 -89 -27zM545 -219h-10l-60 59l-60 -59h-10l-73 71l73 71h10l60 -59l60 59h10l73 -71zM182 560l73 -71l-73 -71h-10l-73 71l73 71h10z" />
    <glyph glyph-name="uniFC94" unicode="&#xfef4;&#xfee6;" horiz-adv-x="991" arabic-form="final" 
d="M331 -211l-4 2q-70 0 -127 20q-55 19 -93 56q-37 36 -57 89q-19 51 -19 117q0 48 6 90t18 84h83v-10q-8 -29 -12 -60q-4 -28 -4 -60q0 -79 54 -124t152 -45q106 0 159 36t53 105q0 46 -10 105q-12 68 -28 131l5 7h96l12 -58l169 27v61h91v-142q0 -44 26 -61
q25 -16 87 -16h1v-120l-25 -25h-1q-77 0 -120 34t-51 114l-1 10l-154 -26q2 -12 2 -18v-16q0 -73 -21 -130q-21 -58 -61 -96q-41 -39 -97 -60q-57 -21 -129 -21zM331 439l73 -71l-73 -71h-10l-73 71l73 71h10zM887 -220h-10l-60 59l-60 -59h-10l-73 71l73 71h10l60 -59
l60 59h10l73 -71z" />
    <glyph glyph-name="uniFC95" unicode="&#xfef4;&#xfef0;" horiz-adv-x="911" arabic-form="final" 
d="M829 -395h-10l-60 59l-60 -59h-10l-73 71l73 71h10l60 -59l60 59h10l73 -71zM386 -305h-6q-170 0 -261 75t-91 220q0 46 6 93q6 43 17 84h83v-8q-7 -28 -12 -62q-4 -29 -4 -65q0 -92 69 -135q68 -43 218 -43q48 0 96 5q43 5 75 12t48 18q17 11 17 24q0 14 -19 21
q-20 8 -75 18l-75 13q-80 13 -118 47q-37 33 -37 96q0 51 24 99q25 50 64 86q41 37 93 60q54 23 111 23q47 0 87 -23q39 -23 68 -74l29 -54q11 -20 24 -40q9 -15 23 -25q10 -8 26 -13q12 -4 33 -4h6v-120l-25 -25h-6q-56 0 -93 28t-75 96l-25 45q-20 35 -48 50
q-29 15 -66 15q-32 0 -62 -6q-29 -6 -53 -17q-22 -11 -36 -24q-14 -14 -14 -28q0 -17 20 -28t66 -18l75 -14q42 -7 72 -18t49 -28t28 -42q9 -24 9 -57q0 -60 -23 -109q-22 -48 -66 -81q-45 -34 -105 -50q-63 -17 -141 -17z" />
    <glyph glyph-name="uniFC96" unicode="&#xfef4;&#xfef2;" horiz-adv-x="911" arabic-form="final" 
d="M326 -527h-10l-60 59l-60 -59h-10l-73 71l73 71h10l60 -59l60 59h10l73 -71zM699 -395h-10l-60 59l-60 -59h-10l-73 71l73 71h10l60 -59l60 59h10l73 -71zM386 -305h-6q-170 0 -261 75t-91 220q0 46 6 93q6 43 17 84h83v-8q-7 -28 -12 -62q-4 -29 -4 -65q0 -92 69 -135
q68 -43 218 -43q48 0 96 5q43 5 75 12t48 18q17 11 17 24q0 14 -19 21q-20 8 -75 18l-75 13q-80 13 -118 47q-37 33 -37 96q0 51 24 99q25 50 64 86q41 37 93 60q54 23 111 23q47 0 87 -23q39 -23 68 -74l29 -54q11 -20 24 -40q9 -15 23 -25q10 -8 26 -13q12 -4 33 -4h6
v-120l-25 -25h-6q-56 0 -93 28t-75 96l-25 45q-20 35 -48 50q-29 15 -66 15q-32 0 -62 -6q-29 -6 -53 -17q-22 -11 -36 -24q-14 -14 -14 -28q0 -17 20 -28t66 -18l75 -14q42 -7 72 -18t49 -28t28 -42q9 -24 9 -57q0 -60 -23 -109q-22 -48 -66 -81q-45 -34 -105 -50
q-63 -17 -141 -17z" />
    <glyph glyph-name="uniFCCC" unicode="&#xfedf;&#xfee4;" horiz-adv-x="307" arabic-form="initial" 
d="M215 -49l-1 -1q-27 16 -46 24q-22 10 -40 15q-22 7 -42 8q-30 2 -52 2h-59v120l25 25h34q20 0 30 -1q15 -1 33 -6l2 2q-8 28 -11 51q-3 26 -3 55v500h108v-501q0 -45 3 -75q3 -27 11 -52q34 -15 84 -44l46 -28l-75 -122z" />
    <glyph glyph-name="uniFCFB" unicode="&#xfeb3;&#xfef0;" horiz-adv-x="1301" arabic-form="isolated" 
d="M386 -305l-11 -5q-169 0 -261 75q-91 75 -91 220q0 47 6 93q6 43 17 84h83v-8q-7 -28 -12 -62q-4 -29 -4 -65q0 -91 69 -135q68 -43 218 -43q48 0 96 5q44 4 75 12t48 18q17 11 17 24q0 14 -19 21t-75 18l-75 13q-80 13 -118 47q-37 33 -37 96q0 51 24 99q25 50 64 86
q40 38 93 60q54 23 111 23q47 0 87 -23q39 -23 68 -74l29 -54q10 -19 26 -43q11 -17 24 -28q12 -10 26 -15q15 -5 33 -5q37 1 51 18t14 66v56h86v-56q0 -25 -1 -37q-2 -22 -4 -34q33 -11 66 -11q32 0 44 12t12 40q0 24 -5 59q-4 27 -17 83l5 6h93q1 -4 4 -20.5t4 -24.5
q4 -27 5 -36l3 -33q1 -11 1 -33q0 -97 -37 -147q-37 -51 -111 -51q-34 0 -61 12t-47 32q-39 -42 -112 -42q-34 0 -58 7q-23 7 -46 23q-19 14 -40 41q-18 23 -40 63l-25 45q-20 35 -48 50q-29 15 -66 15q-32 0 -62 -6q-29 -6 -53 -17q-22 -11 -36 -24q-14 -14 -14 -28
q0 -17 20 -28t66 -18l75 -14q42 -7 72 -18t49 -28t28 -42q9 -24 9 -57q0 -60 -23 -109q-22 -48 -66 -81q-45 -34 -105 -50q-63 -17 -141 -17z" />
    <glyph glyph-name="uniFCFC" unicode="&#xfeb3;&#xfef2;" horiz-adv-x="1301" arabic-form="isolated" 
d="M386 -305l-11 -5q-169 0 -261 75q-91 75 -91 220q0 47 6 93q6 43 17 84h83v-8q-7 -28 -12 -62q-4 -29 -4 -65q0 -91 69 -135q68 -43 218 -43q48 0 96 5q44 4 75 12t48 18q17 11 17 24q0 14 -19 21t-75 18l-75 13q-80 13 -118 47q-37 33 -37 96q0 51 24 99q25 50 64 86
q40 38 93 60q54 23 111 23q47 0 87 -23q39 -23 68 -74l29 -54q10 -19 26 -43q11 -17 24 -28q12 -10 26 -15q15 -5 33 -5q37 1 51 18t14 66v56h86v-56q0 -25 -1 -37q-2 -22 -4 -34q33 -11 66 -11q32 0 44 12t12 40q0 24 -5 59q-4 27 -17 83l5 6h93q1 -4 4 -20.5t4 -24.5
q4 -27 5 -36l3 -33q1 -11 1 -33q0 -97 -37 -147q-37 -51 -111 -51q-34 0 -61 12t-47 32q-39 -42 -112 -42q-34 0 -58 7q-23 7 -46 23q-19 14 -40 41q-18 23 -40 63l-25 45q-20 35 -48 50q-29 15 -66 15q-32 0 -62 -6q-29 -6 -53 -17q-22 -11 -36 -24q-14 -14 -14 -28
q0 -17 20 -28t66 -18l75 -14q42 -7 72 -18t49 -28t28 -42q9 -24 9 -57q0 -60 -23 -109q-22 -48 -66 -81q-45 -34 -105 -50q-63 -17 -141 -17zM445 -532h-10l-60 59l-60 -59h-10l-73 71l73 71h10l60 -59l60 59h10l73 -71z" />
    <glyph glyph-name="uniFCFD" unicode="&#xfeb7;&#xfef0;" horiz-adv-x="1301" arabic-form="isolated" 
d="M386 -305l-11 -5q-169 0 -261 75q-91 75 -91 220q0 47 6 93q6 43 17 84h83v-8q-7 -28 -12 -62q-4 -29 -4 -65q0 -91 69 -135q68 -43 218 -43q48 0 96 5q44 4 75 12t48 18q17 11 17 24q0 14 -19 21t-75 18l-75 13q-80 13 -118 47q-37 33 -37 96q0 51 24 99q25 50 64 86
q40 38 93 60q54 23 111 23q47 0 87 -23q39 -23 68 -74l29 -54q10 -19 26 -43q11 -17 24 -28q12 -10 26 -15q15 -5 33 -5q37 1 51 18t14 66v56h86v-56q0 -25 -1 -37q-2 -22 -4 -34q33 -11 66 -11q32 0 44 12t12 40q0 24 -5 59q-4 27 -17 83l5 6h93q1 -4 4 -20.5t4 -24.5
q4 -27 5 -36l3 -33q1 -11 1 -33q0 -97 -37 -147q-37 -51 -111 -51q-34 0 -61 12t-47 32q-39 -42 -112 -42q-34 0 -58 7q-23 7 -46 23q-19 14 -40 41q-18 23 -40 63l-25 45q-20 35 -48 50q-29 15 -66 15q-32 0 -62 -6q-29 -6 -53 -17q-22 -11 -36 -24q-14 -14 -14 -28
q0 -17 20 -28t66 -18l75 -14q42 -7 72 -18t49 -28t28 -42q9 -24 9 -57q0 -60 -23 -109q-22 -48 -66 -81q-45 -34 -105 -50q-63 -17 -141 -17zM923 548l69 68h10l70 -68l-70 -68h-10zM1067 350h-10l-60 59l-60 -59h-10l-73 71l73 71h10l60 -59l60 59h10l73 -71z" />
    <glyph glyph-name="uniFCFE" unicode="&#xfeb7;&#xfef2;" horiz-adv-x="1301" arabic-form="isolated" 
d="M386 -305l-11 -5q-169 0 -261 75q-91 75 -91 220q0 47 6 93q6 43 17 84h83v-8q-7 -28 -12 -62q-4 -29 -4 -65q0 -91 69 -135q68 -43 218 -43q48 0 96 5q44 4 75 12t48 18q17 11 17 24q0 14 -19 21t-75 18l-75 13q-80 13 -118 47q-37 33 -37 96q0 51 24 99q25 50 64 86
q40 38 93 60q54 23 111 23q47 0 87 -23q39 -23 68 -74l29 -54q10 -19 26 -43q11 -17 24 -28q12 -10 26 -15q15 -5 33 -5q37 1 51 18t14 66v56h86v-56q0 -25 -1 -37q-2 -22 -4 -34q33 -11 66 -11q32 0 44 12t12 40q0 24 -5 59q-4 27 -17 83l5 6h93q1 -4 4 -20.5t4 -24.5
q4 -27 5 -36l3 -33q1 -11 1 -33q0 -97 -37 -147q-37 -51 -111 -51q-34 0 -61 12t-47 32q-39 -42 -112 -42q-34 0 -58 7q-23 7 -46 23q-19 14 -40 41q-18 23 -40 63l-25 45q-20 35 -48 50q-29 15 -66 15q-32 0 -62 -6q-29 -6 -53 -17q-22 -11 -36 -24q-14 -14 -14 -28
q0 -17 20 -28t66 -18l75 -14q42 -7 72 -18t49 -28t28 -42q9 -24 9 -57q0 -60 -23 -109q-22 -48 -66 -81q-45 -34 -105 -50q-63 -17 -141 -17zM445 -532h-10l-60 59l-60 -59h-10l-73 71l73 71h10l60 -59l60 59h10l73 -71zM923 548l69 68h10l70 -68l-70 -68h-10zM1067 350h-10
l-60 59l-60 -59h-10l-73 71l73 71h10l60 -59l60 59h10l73 -71z" />
    <glyph glyph-name="uniFD05" unicode="&#xfebb;&#xfef0;" horiz-adv-x="1402" arabic-form="isolated" 
d="M1159 444l-9 2q45 0 84 -18q40 -18 68 -48t45 -71q17 -42 17 -85q0 -46 -17 -88q-16 -39 -47 -70q-29 -29 -72 -46q-41 -16 -93 -16h-262q-56 0 -93 28q-38 28 -75 96l-25 45q-20 35 -48 50t-66 15q-32 0 -62 -6q-29 -6 -53 -17q-23 -11 -36 -24q-14 -14 -14 -28
q0 -17 20 -28q19 -11 66 -18l75 -14q42 -7 72 -18t49 -28t28 -42q9 -24 9 -57q0 -60 -23 -109q-23 -48 -66 -81q-45 -34 -105 -50q-63 -17 -141 -17q-169 0 -261 75q-91 75 -91 220q0 46 6 93q6 43 17 84h83v-8q-7 -28 -12 -62q-4 -29 -4 -65q0 -92 69 -135q68 -43 218 -43
q48 0 96 5q44 5 75 12t48 18t17 24q0 14 -19 21q-19 8 -75 18l-75 13q-80 13 -118 47q-37 33 -37 96q0 51 24 99q25 50 64 86q40 37 93 60q54 23 111 23q47 0 87 -23q39 -23 68 -74l29 -54q10 -23 21 -36l77 90q37 43 66 71q33 31 63 50q33 21 64 29q33 9 70 9zM1169 147v-1
q65 0 92 11q26 11 26 36q0 23 -12 42t-33 33q-23 15 -49 23q-29 9 -60 9q-71 0 -126 -28t-108 -84l-30 -34l1 -4q12 -3 26 -3h273z" />
    <glyph glyph-name="uniFD06" unicode="&#xfebb;&#xfef2;" horiz-adv-x="1402" arabic-form="isolated" 
d="M1159 444l-9 2q45 0 84 -18q40 -18 68 -48t45 -71q17 -42 17 -85q0 -46 -17 -88q-16 -39 -47 -70q-29 -29 -72 -46q-41 -16 -93 -16h-262q-56 0 -93 28q-38 28 -75 96l-25 45q-20 35 -48 50t-66 15q-32 0 -62 -6q-29 -6 -53 -17q-23 -11 -36 -24q-14 -14 -14 -28
q0 -17 20 -28q19 -11 66 -18l75 -14q42 -7 72 -18t49 -28t28 -42q9 -24 9 -57q0 -60 -23 -109q-23 -48 -66 -81q-45 -34 -105 -50q-63 -17 -141 -17q-169 0 -261 75q-91 75 -91 220q0 46 6 93q6 43 17 84h83v-8q-7 -28 -12 -62q-4 -29 -4 -65q0 -92 69 -135q68 -43 218 -43
q48 0 96 5q44 5 75 12t48 18t17 24q0 14 -19 21q-19 8 -75 18l-75 13q-80 13 -118 47q-37 33 -37 96q0 51 24 99q25 50 64 86q40 37 93 60q54 23 111 23q47 0 87 -23q39 -23 68 -74l29 -54q10 -23 21 -36l77 90q37 43 66 71q33 31 63 50q33 21 64 29q33 9 70 9zM1169 147v-1
q65 0 92 11q26 11 26 36q0 23 -12 42t-33 33q-23 15 -49 23q-29 9 -60 9q-71 0 -126 -28t-108 -84l-30 -34l1 -4q12 -3 26 -3h273zM447 -526h-10l-60 59l-60 -59h-10l-73 71l73 71h10l60 -59l60 59h10l73 -71z" />
    <glyph glyph-name="uniFD07" unicode="&#xfebf;&#xfef0;" horiz-adv-x="1402" arabic-form="isolated" 
d="M1159 444l-9 2q45 0 84 -18q40 -18 68 -48t45 -71q17 -42 17 -85q0 -46 -17 -88q-16 -39 -47 -70q-29 -29 -72 -46q-41 -16 -93 -16h-262q-56 0 -93 28q-38 28 -75 96l-25 45q-20 35 -48 50t-66 15q-32 0 -62 -6q-29 -6 -53 -17q-23 -11 -36 -24q-14 -14 -14 -28
q0 -17 20 -28q19 -11 66 -18l75 -14q42 -7 72 -18t49 -28t28 -42q9 -24 9 -57q0 -60 -23 -109q-23 -48 -66 -81q-45 -34 -105 -50q-63 -17 -141 -17q-169 0 -261 75q-91 75 -91 220q0 46 6 93q6 43 17 84h83v-8q-7 -28 -12 -62q-4 -29 -4 -65q0 -92 69 -135q68 -43 218 -43
q48 0 96 5q44 5 75 12t48 18t17 24q0 14 -19 21q-19 8 -75 18l-75 13q-80 13 -118 47q-37 33 -37 96q0 51 24 99q25 50 64 86q40 37 93 60q54 23 111 23q47 0 87 -23q39 -23 68 -74l29 -54q10 -23 21 -36l77 90q37 43 66 71q33 31 63 50q33 21 64 29q33 9 70 9zM1169 147v-1
q65 0 92 11q26 11 26 36q0 23 -12 42t-33 33q-23 15 -49 23q-29 9 -60 9q-71 0 -126 -28t-108 -84l-30 -34l1 -4q12 -3 26 -3h273zM1115 668l73 -71l-73 -71h-10l-73 71l73 71h10z" />
    <glyph glyph-name="uniFD08" unicode="&#xfebf;&#xfef2;" horiz-adv-x="1402" arabic-form="isolated" 
d="M1159 444l-9 2q45 0 84 -18q40 -18 68 -48t45 -71q17 -42 17 -85q0 -46 -17 -88q-16 -39 -47 -70q-29 -29 -72 -46q-41 -16 -93 -16h-262q-56 0 -93 28q-38 28 -75 96l-25 45q-20 35 -48 50t-66 15q-32 0 -62 -6q-29 -6 -53 -17q-23 -11 -36 -24q-14 -14 -14 -28
q0 -17 20 -28q19 -11 66 -18l75 -14q42 -7 72 -18t49 -28t28 -42q9 -24 9 -57q0 -60 -23 -109q-23 -48 -66 -81q-45 -34 -105 -50q-63 -17 -141 -17q-169 0 -261 75q-91 75 -91 220q0 46 6 93q6 43 17 84h83v-8q-7 -28 -12 -62q-4 -29 -4 -65q0 -92 69 -135q68 -43 218 -43
q48 0 96 5q44 5 75 12t48 18t17 24q0 14 -19 21q-19 8 -75 18l-75 13q-80 13 -118 47q-37 33 -37 96q0 51 24 99q25 50 64 86q40 37 93 60q54 23 111 23q47 0 87 -23q39 -23 68 -74l29 -54q10 -23 21 -36l77 90q37 43 66 71q33 31 63 50q33 21 64 29q33 9 70 9zM1169 147v-1
q65 0 92 11q26 11 26 36q0 23 -12 42t-33 33q-23 15 -49 23q-29 9 -60 9q-71 0 -126 -28t-108 -84l-30 -34l1 -4q12 -3 26 -3h273zM1115 668l73 -71l-73 -71h-10l-73 71l73 71h10zM447 -526h-10l-60 59l-60 -59h-10l-73 71l73 71h10l60 -59l60 59h10l73 -71z" />
    <glyph glyph-name="uniFD0D" unicode="&#xfeb7;&#xfeae;" horiz-adv-x="954" arabic-form="isolated" 
d="M54 -255l-7 -3q-42 0 -82 20q-39 20 -72 54v83l9 7q60 -24 117 -24q35 0 65 15q29 15 52 42q23 28 35 65q12 38 12 84q0 31 -7 63q-8 35 -24 81l5 7l293 30v-93q13 -21 38 -34q24 -12 56 -12q24 0 37 4q14 4 24 14q9 9 12 26q3 16 3 40v55h86v-55q0 -25 -1 -37
q-2 -22 -4 -34q33 -11 66 -11q32 0 44 12t12 40q0 24 -5 59q-4 27 -17 83l5 6h93q1 -4 4 -20.5t4 -24.5q4 -27 5 -36l3 -33q1 -11 1 -33q0 -97 -37 -147q-37 -51 -111 -51q-34 0 -61 12t-47 32q-40 -43 -111 -43q-63 0 -109 33q-47 33 -75 97l-84 -9q1 -3 1 -10v-10
q0 -72 -18 -135t-49 -109t-73 -73t-88 -27zM575 550l69 68h10l70 -68l-70 -68h-10zM719 352h-10l-60 59l-60 -59h-10l-73 71l73 71h10l60 -59l60 59h10l73 -71z" />
    <glyph glyph-name="uniFD0E" unicode="&#xfeb3;&#xfeae;" horiz-adv-x="954" arabic-form="isolated" 
d="M54 -255l-7 -3q-42 0 -82 20q-39 20 -72 54v83l9 7q60 -24 117 -24q35 0 65 15q29 15 52 42q23 28 35 65q12 38 12 84q0 31 -7 63q-8 35 -24 81l5 7l293 30v-93q13 -21 38 -34q24 -12 56 -12q24 0 37 4q14 4 24 14q9 9 12 26q3 16 3 40v55h86v-55q0 -25 -1 -37
q-2 -22 -4 -34q33 -11 66 -11q32 0 44 12t12 40q0 24 -5 59q-4 27 -17 83l5 6h93q1 -4 4 -20.5t4 -24.5q4 -27 5 -36l3 -33q1 -11 1 -33q0 -97 -37 -147q-37 -51 -111 -51q-34 0 -61 12t-47 32q-40 -43 -111 -43q-63 0 -109 33q-47 33 -75 97l-84 -9q1 -3 1 -10v-10
q0 -72 -18 -135t-49 -109t-73 -73t-88 -27z" />
    <glyph glyph-name="uniFD0F" unicode="&#xfebb;&#xfeae;" horiz-adv-x="1086" arabic-form="isolated" 
d="M54 -255h-2q-42 0 -82 20q-39 19 -72 54v83l9 7q60 -24 117 -24q35 0 65 15q29 15 52 42q23 28 35 65t12 84q0 31 -7 63q-7 34 -24 81l5 7l293 30v-86q7 -13 24 -22l100 117q37 43 66 71q33 31 63 50q33 21 64 29q33 9 70 9q45 0 84 -18q40 -18 68 -48t45 -71
q17 -42 17 -85q0 -46 -17 -88q-16 -39 -47 -70q-29 -29 -72 -46q-41 -16 -93 -16h-259q-37 0 -69 8q-31 8 -54 22q-24 15 -43 37t-36 53l-85 -9q1 -3 1 -10v-10q0 -72 -18 -135t-49 -109t-73 -73t-88 -27zM860 145q65 0 92 11q26 11 26 36q0 24 -12 44t-33 33q-21 14 -49 21
q-30 8 -61 8q-63 0 -118 -27q-56 -27 -118 -88l-29 -34l1 -3q4 -1 15 -1h16h270z" />
    <glyph glyph-name="uniFD10" unicode="&#xfebf;&#xfeae;" horiz-adv-x="1086" arabic-form="isolated" 
d="M54 -255h-2q-42 0 -82 20q-39 19 -72 54v83l9 7q60 -24 117 -24q35 0 65 15q29 15 52 42q23 28 35 65t12 84q0 31 -7 63q-7 34 -24 81l5 7l293 30v-86q7 -13 24 -22l100 117q37 43 66 71q33 31 63 50q33 21 64 29q33 9 70 9q45 0 84 -18q40 -18 68 -48t45 -71
q17 -42 17 -85q0 -46 -17 -88q-16 -39 -47 -70q-29 -29 -72 -46q-41 -16 -93 -16h-259q-37 0 -69 8q-31 8 -54 22q-24 15 -43 37t-36 53l-85 -9q1 -3 1 -10v-10q0 -72 -18 -135t-49 -109t-73 -73t-88 -27zM860 145q65 0 92 11q26 11 26 36q0 24 -12 44t-33 33q-21 14 -49 21
q-30 8 -61 8q-63 0 -118 -27q-56 -27 -118 -88l-29 -34l1 -3q4 -1 15 -1h16h270zM806 667l73 -71l-73 -71h-10l-73 71l73 71h10z" />
    <glyph glyph-name="uniFD17" unicode="&#xfeb4;&#xfef0;" horiz-adv-x="1370" arabic-form="final" 
d="M386 -305l-8 -10q-170 0 -261 75t-91 220q0 46 6 93q6 43 17 84h83v-8q-7 -28 -12 -62q-4 -29 -4 -65q0 -90 69 -133q68 -43 218 -43q48 0 96 5q46 5 75 13q30 9 48 20q17 11 17 24q0 14 -19 23q-20 9 -75 18l-75 13q-80 13 -118 47q-37 33 -37 96q0 51 24 99
q25 50 64 86q41 38 93 60q54 23 111 23q47 0 87 -23q39 -23 68 -74l29 -54q10 -19 26 -43q11 -17 24 -28q12 -10 26 -15q15 -5 33 -5q38 0 51 18q13 17 13 66v56h86v-56q0 -25 -1 -37q-2 -22 -4 -34q30 -12 66 -12q17 0 29 3t18 12t9 26t3 42v86h86v-86q0 -22 -1 -32
q-2 -20 -3 -29q58 -11 114 -11v-124l-25 -21q-35 0 -68 9t-60 27q-34 -46 -100 -46q-70 0 -110 43q-39 -43 -112 -43q-34 0 -58 7q-23 7 -46 23q-19 14 -40 41q-18 23 -40 63l-25 45q-20 35 -48 50t-66 15q-32 0 -62 -6q-29 -6 -53 -17q-23 -11 -36 -24q-14 -14 -14 -28
q0 -17 20 -28q19 -11 66 -18l75 -14q82 -17 120 -48q37 -31 37 -97q0 -60 -23 -109q-22 -48 -66 -81q-45 -34 -105 -50q-63 -17 -141 -17z" />
    <glyph glyph-name="uniFD18" unicode="&#xfeb4;&#xfef2;" horiz-adv-x="1370" arabic-form="final" 
d="M386 -305l-8 -10q-170 0 -261 75t-91 220q0 46 6 93q6 43 17 84h83v-8q-7 -28 -12 -62q-4 -29 -4 -65q0 -90 69 -133q68 -43 218 -43q48 0 96 5q46 5 75 13q30 9 48 20q17 11 17 24q0 14 -19 23q-20 9 -75 18l-75 13q-80 13 -118 47q-37 33 -37 96q0 51 24 99
q25 50 64 86q41 38 93 60q54 23 111 23q47 0 87 -23q39 -23 68 -74l29 -54q10 -19 26 -43q11 -17 24 -28q12 -10 26 -15q15 -5 33 -5q38 0 51 18q13 17 13 66v56h86v-56q0 -25 -1 -37q-2 -22 -4 -34q30 -12 66 -12q17 0 29 3t18 12t9 26t3 42v86h86v-86q0 -22 -1 -32
q-2 -20 -3 -29q58 -11 114 -11v-124l-25 -21q-35 0 -68 9t-60 27q-34 -46 -100 -46q-70 0 -110 43q-39 -43 -112 -43q-34 0 -58 7q-23 7 -46 23q-19 14 -40 41q-18 23 -40 63l-25 45q-20 35 -48 50t-66 15q-32 0 -62 -6q-29 -6 -53 -17q-23 -11 -36 -24q-14 -14 -14 -28
q0 -17 20 -28q19 -11 66 -18l75 -14q82 -17 120 -48q37 -31 37 -97q0 -60 -23 -109q-22 -48 -66 -81q-45 -34 -105 -50q-63 -17 -141 -17zM448 -537h-10l-60 59l-60 -59h-10l-73 71l73 71h10l60 -59l60 59h10l73 -71z" />
    <glyph glyph-name="uniFD19" unicode="&#xfeb8;&#xfef0;" horiz-adv-x="1370" arabic-form="final" 
d="M386 -305l-8 -10q-170 0 -261 75t-91 220q0 46 6 93q6 43 17 84h83v-8q-7 -28 -12 -62q-4 -29 -4 -65q0 -90 69 -133q68 -43 218 -43q48 0 96 5q46 5 75 13q30 9 48 20q17 11 17 24q0 14 -19 23q-20 9 -75 18l-75 13q-80 13 -118 47q-37 33 -37 96q0 51 24 99
q25 50 64 86q41 38 93 60q54 23 111 23q47 0 87 -23q39 -23 68 -74l29 -54q10 -19 26 -43q11 -17 24 -28q12 -10 26 -15q15 -5 33 -5q38 0 51 18q13 17 13 66v56h86v-56q0 -25 -1 -37q-2 -22 -4 -34q30 -12 66 -12q17 0 29 3t18 12t9 26t3 42v86h86v-86q0 -22 -1 -32
q-2 -20 -3 -29q58 -11 114 -11v-124l-25 -21q-35 0 -68 9t-60 27q-34 -46 -100 -46q-70 0 -110 43q-39 -43 -112 -43q-34 0 -58 7q-23 7 -46 23q-19 14 -40 41q-18 23 -40 63l-25 45q-20 35 -48 50t-66 15q-32 0 -62 -6q-29 -6 -53 -17q-23 -11 -36 -24q-14 -14 -14 -28
q0 -17 20 -28q19 -11 66 -18l75 -14q82 -17 120 -48q37 -31 37 -97q0 -60 -23 -109q-22 -48 -66 -81q-45 -34 -105 -50q-63 -17 -141 -17zM931 543l69 68h10l70 -68l-70 -68h-10zM1075 345h-10l-60 59l-60 -59h-10l-73 71l73 71h10l60 -59l60 59h10l73 -71z" />
    <glyph glyph-name="uniFD1A" unicode="&#xfeb8;&#xfef2;" horiz-adv-x="1370" arabic-form="final" 
d="M386 -305l-8 -10q-170 0 -261 75t-91 220q0 46 6 93q6 43 17 84h83v-8q-7 -28 -12 -62q-4 -29 -4 -65q0 -90 69 -133q68 -43 218 -43q48 0 96 5q46 5 75 13q30 9 48 20q17 11 17 24q0 14 -19 23q-20 9 -75 18l-75 13q-80 13 -118 47q-37 33 -37 96q0 51 24 99
q25 50 64 86q41 38 93 60q54 23 111 23q47 0 87 -23q39 -23 68 -74l29 -54q10 -19 26 -43q11 -17 24 -28q12 -10 26 -15q15 -5 33 -5q38 0 51 18q13 17 13 66v56h86v-56q0 -25 -1 -37q-2 -22 -4 -34q30 -12 66 -12q17 0 29 3t18 12t9 26t3 42v86h86v-86q0 -22 -1 -32
q-2 -20 -3 -29q58 -11 114 -11v-124l-25 -21q-35 0 -68 9t-60 27q-34 -46 -100 -46q-70 0 -110 43q-39 -43 -112 -43q-34 0 -58 7q-23 7 -46 23q-19 14 -40 41q-18 23 -40 63l-25 45q-20 35 -48 50t-66 15q-32 0 -62 -6q-29 -6 -53 -17q-23 -11 -36 -24q-14 -14 -14 -28
q0 -17 20 -28q19 -11 66 -18l75 -14q82 -17 120 -48q37 -31 37 -97q0 -60 -23 -109q-22 -48 -66 -81q-45 -34 -105 -50q-63 -17 -141 -17zM448 -537h-10l-60 59l-60 -59h-10l-73 71l73 71h10l60 -59l60 59h10l73 -71zM931 543l69 68h10l70 -68l-70 -68h-10zM1075 345h-10
l-60 59l-60 -59h-10l-73 71l73 71h10l60 -59l60 59h10l73 -71z" />
    <glyph glyph-name="uniFD21" unicode="&#xfebc;&#xfef0;" horiz-adv-x="1466" arabic-form="final" 
d="M1364 159l-9 2q48 -14 102 -14v-120l-25 -25q-75 0 -143 54q-30 -26 -69 -39q-40 -14 -86 -14h-262q-56 0 -93 28q-37 29 -75 96l-25 45q-20 35 -48 50q-29 15 -66 15q-32 0 -62 -6q-29 -6 -53 -17q-22 -10 -36 -24t-14 -28q0 -17 20 -28q20 -10 66 -18l75 -14
q42 -8 72 -18q30 -11 49 -28t28 -42q9 -24 9 -57q0 -60 -23 -109q-22 -48 -66 -81q-45 -34 -105 -50q-63 -17 -141 -17q-170 0 -261 75t-91 220q0 47 6 93q6 43 17 84h83v-8q-7 -28 -12 -62q-4 -29 -4 -65q0 -91 69 -135q68 -43 218 -43q48 0 96 5q43 4 75 12t48 18
q17 11 17 24q0 14 -19 21q-20 7 -75 18l-75 13q-80 13 -118 47q-37 33 -37 96q0 51 24 99q25 50 64 86q41 38 93 60q54 23 111 23q47 0 87 -23q39 -23 68 -74l29 -54q11 -22 21 -36l77 90q37 43 66 71q33 31 63 50q33 21 64 29q33 9 70 9q45 0 84 -18q40 -18 68 -48t45 -71
q17 -42 17 -85q0 -30 -8 -62zM1169 147v-1q65 0 92 11q26 11 26 36q0 23 -12 42t-33 33q-23 15 -49 23q-29 9 -60 9q-71 0 -126 -28t-108 -84l-30 -34l1 -4q12 -3 26 -3h273z" />
    <glyph glyph-name="uniFD22" unicode="&#xfebc;&#xfef2;" horiz-adv-x="1466" arabic-form="final" 
d="M1364 159l-9 2q48 -14 102 -14v-120l-25 -25q-75 0 -143 54q-30 -26 -69 -39q-40 -14 -86 -14h-262q-56 0 -93 28q-37 29 -75 96l-25 45q-20 35 -48 50q-29 15 -66 15q-32 0 -62 -6q-29 -6 -53 -17q-22 -10 -36 -24t-14 -28q0 -17 20 -28q20 -10 66 -18l75 -14
q42 -8 72 -18q30 -11 49 -28t28 -42q9 -24 9 -57q0 -60 -23 -109q-22 -48 -66 -81q-45 -34 -105 -50q-63 -17 -141 -17q-170 0 -261 75t-91 220q0 47 6 93q6 43 17 84h83v-8q-7 -28 -12 -62q-4 -29 -4 -65q0 -91 69 -135q68 -43 218 -43q48 0 96 5q43 4 75 12t48 18
q17 11 17 24q0 14 -19 21q-20 7 -75 18l-75 13q-80 13 -118 47q-37 33 -37 96q0 51 24 99q25 50 64 86q41 38 93 60q54 23 111 23q47 0 87 -23q39 -23 68 -74l29 -54q11 -22 21 -36l77 90q37 43 66 71q33 31 63 50q33 21 64 29q33 9 70 9q45 0 84 -18q40 -18 68 -48t45 -71
q17 -42 17 -85q0 -30 -8 -62zM1169 147v-1q65 0 92 11q26 11 26 36q0 23 -12 42t-33 33q-23 15 -49 23q-29 9 -60 9q-71 0 -126 -28t-108 -84l-30 -34l1 -4q12 -3 26 -3h273zM447 -526h-10l-60 59l-60 -59h-10l-73 71l73 71h10l60 -59l60 59h10l73 -71z" />
    <glyph glyph-name="uniFD23" unicode="&#xfec0;&#xfef0;" horiz-adv-x="1466" arabic-form="final" 
d="M1364 159l-9 2q48 -14 102 -14v-120l-25 -25q-75 0 -143 54q-30 -26 -69 -39q-40 -14 -86 -14h-262q-56 0 -93 28q-37 29 -75 96l-25 45q-20 35 -48 50q-29 15 -66 15q-32 0 -62 -6q-29 -6 -53 -17q-22 -10 -36 -24t-14 -28q0 -17 20 -28q20 -10 66 -18l75 -14
q42 -8 72 -18q30 -11 49 -28t28 -42q9 -24 9 -57q0 -60 -23 -109q-22 -48 -66 -81q-45 -34 -105 -50q-63 -17 -141 -17q-170 0 -261 75t-91 220q0 47 6 93q6 43 17 84h83v-8q-7 -28 -12 -62q-4 -29 -4 -65q0 -91 69 -135q68 -43 218 -43q48 0 96 5q43 4 75 12t48 18
q17 11 17 24q0 14 -19 21q-20 7 -75 18l-75 13q-80 13 -118 47q-37 33 -37 96q0 51 24 99q25 50 64 86q41 38 93 60q54 23 111 23q47 0 87 -23q39 -23 68 -74l29 -54q11 -22 21 -36l77 90q37 43 66 71q33 31 63 50q33 21 64 29q33 9 70 9q45 0 84 -18q40 -18 68 -48t45 -71
q17 -42 17 -85q0 -30 -8 -62zM1169 147v-1q65 0 92 11q26 11 26 36q0 23 -12 42t-33 33q-23 15 -49 23q-29 9 -60 9q-71 0 -126 -28t-108 -84l-30 -34l1 -4q12 -3 26 -3h273zM1115 668l73 -71l-73 -71h-10l-73 71l73 71h10z" />
    <glyph glyph-name="uniFD24" unicode="&#xfec0;&#xfef2;" horiz-adv-x="1466" arabic-form="final" 
d="M1364 159l-9 2q48 -14 102 -14v-120l-25 -25q-75 0 -143 54q-30 -26 -69 -39q-40 -14 -86 -14h-262q-56 0 -93 28q-37 29 -75 96l-25 45q-20 35 -48 50q-29 15 -66 15q-32 0 -62 -6q-29 -6 -53 -17q-22 -10 -36 -24t-14 -28q0 -17 20 -28q20 -10 66 -18l75 -14
q42 -8 72 -18q30 -11 49 -28t28 -42q9 -24 9 -57q0 -60 -23 -109q-22 -48 -66 -81q-45 -34 -105 -50q-63 -17 -141 -17q-170 0 -261 75t-91 220q0 47 6 93q6 43 17 84h83v-8q-7 -28 -12 -62q-4 -29 -4 -65q0 -91 69 -135q68 -43 218 -43q48 0 96 5q43 4 75 12t48 18
q17 11 17 24q0 14 -19 21q-20 7 -75 18l-75 13q-80 13 -118 47q-37 33 -37 96q0 51 24 99q25 50 64 86q41 38 93 60q54 23 111 23q47 0 87 -23q39 -23 68 -74l29 -54q11 -22 21 -36l77 90q37 43 66 71q33 31 63 50q33 21 64 29q33 9 70 9q45 0 84 -18q40 -18 68 -48t45 -71
q17 -42 17 -85q0 -30 -8 -62zM1169 147v-1q65 0 92 11q26 11 26 36q0 23 -12 42t-33 33q-23 15 -49 23q-29 9 -60 9q-71 0 -126 -28t-108 -84l-30 -34l1 -4q12 -3 26 -3h273zM1115 668l73 -71l-73 -71h-10l-73 71l73 71h10zM447 -526h-10l-60 59l-60 -59h-10l-73 71l73 71
h10l60 -59l60 59h10l73 -71z" />
    <glyph glyph-name="uniFD29" unicode="&#xfeb8;&#xfeae;" horiz-adv-x="1023" arabic-form="final" 
d="M54 -255h-4q-42 0 -82 20q-39 19 -72 54v83l9 7q60 -24 117 -24q35 0 65 15q29 15 52 42q23 28 35 65t12 84q0 31 -7 63q-7 34 -24 81l5 7l293 30v-92q30 -47 96 -47q42 0 57 17q15 16 15 65v56h86v-56q0 -25 -1 -37q-2 -22 -4 -34q30 -12 66 -12q17 0 29 3t18 12t9 26
t3 42v86h86v-86q0 -22 -1 -32q-2 -20 -3 -29q58 -11 114 -11v-124l-25 -21q-35 0 -68 9t-60 27q-35 -47 -101 -47q-67 0 -109 44q-40 -43 -111 -43q-126 0 -184 130l-84 -9q1 -3 1 -10v-10q0 -72 -18 -135t-49 -109t-73 -73t-88 -27zM588 553l69 68h10l70 -68l-70 -68h-10z
M732 355h-10l-60 59l-60 -59h-10l-73 71l73 71h10l60 -59l60 59h10l73 -71z" />
    <glyph glyph-name="uniFD2A" unicode="&#xfeb4;&#xfeae;" horiz-adv-x="1023" arabic-form="final" 
d="M54 -255h-4q-42 0 -82 20q-39 19 -72 54v83l9 7q60 -24 117 -24q35 0 65 15q29 15 52 42q23 28 35 65t12 84q0 31 -7 63q-7 34 -24 81l5 7l293 30v-92q30 -47 96 -47q42 0 57 17q15 16 15 65v56h86v-56q0 -25 -1 -37q-2 -22 -4 -34q30 -12 66 -12q17 0 29 3t18 12t9 26
t3 42v86h86v-86q0 -22 -1 -32q-2 -20 -3 -29q58 -11 114 -11v-124l-25 -21q-35 0 -68 9t-60 27q-35 -47 -101 -47q-67 0 -109 44q-40 -43 -111 -43q-126 0 -184 130l-84 -9q1 -3 1 -10v-10q0 -72 -18 -135t-49 -109t-73 -73t-88 -27z" />
    <glyph glyph-name="uniFD2B" unicode="&#xfebc;&#xfeae;" horiz-adv-x="1150" arabic-form="final" 
d="M54 -255h-3q-42 0 -82 20q-39 19 -72 54v83l9 7q60 -24 117 -24q35 0 65 15q29 15 52 42q23 28 35 65t12 84q0 31 -7 63q-8 34 -24 81l5 7l293 30v-86q7 -13 24 -22l100 117q37 43 66 71q33 31 63 50q33 21 64 29q33 9 70 9q45 0 84 -18q40 -18 68 -48t45 -71
q17 -42 17 -85q0 -29 -8 -61q45 -15 102 -15v-120l-25 -25q-76 0 -141 54q-30 -25 -69 -39q-40 -14 -87 -14h-259q-37 0 -69 8q-31 8 -54 22q-24 15 -43 37t-36 53l-85 -9q1 -3 1 -10v-10q0 -72 -18 -135t-49 -109t-73 -73t-88 -27zM859 145q65 0 92 11q26 11 26 36
q0 24 -12 44t-33 33q-21 14 -49 21q-30 8 -61 8q-62 0 -118 -27t-118 -88l-29 -34l1 -3q4 -1 15 -1h16h270z" />
    <glyph glyph-name="uniFD2C" unicode="&#xfec0;&#xfeae;" horiz-adv-x="1150" arabic-form="final" 
d="M54 -255h-3q-42 0 -82 20q-39 19 -72 54v83l9 7q60 -24 117 -24q35 0 65 15q29 15 52 42q23 28 35 65t12 84q0 31 -7 63q-8 34 -24 81l5 7l293 30v-86q7 -13 24 -22l100 117q37 43 66 71q33 31 63 50q33 21 64 29q33 9 70 9q45 0 84 -18q40 -18 68 -48t45 -71
q17 -42 17 -85q0 -29 -8 -61q45 -15 102 -15v-120l-25 -25q-76 0 -141 54q-30 -25 -69 -39q-40 -14 -87 -14h-259q-37 0 -69 8q-31 8 -54 22q-24 15 -43 37t-36 53l-85 -9q1 -3 1 -10v-10q0 -72 -18 -135t-49 -109t-73 -73t-88 -27zM859 145q65 0 92 11q26 11 26 36
q0 24 -12 44t-33 33q-21 14 -49 21q-30 8 -61 8q-62 0 -118 -27t-118 -88l-29 -34l1 -3q4 -1 15 -1h16h270zM805 667l73 -71l-73 -71h-10l-73 71l73 71h10z" />
    <glyph glyph-name="uniFDF2" unicode="&#x627;&#xfedf;&#xfee0;&#xfeea;" horiz-adv-x="1339" arabic-form="isolated" 
d="M691 1033v-181h-52v181h52zM605 657v-2q-31 0 -49 19t-18 52q0 9 2 29q2 16 6 26h42v-9q-3 -12 -3 -22q0 -24 23 -24q20 0 27 12q8 13 8 42v45h47v-46l12 -3q4 -1 14 -1q30 0 30 28q0 18 -11 51v9h49q5 -14 6 -31q2 -24 2 -33q0 -46 -16 -69q-16 -24 -51 -24q-13 0 -24 3
q-7 2 -21 8q-16 -60 -75 -60zM1274 743v-745h-108v745h108zM496 -12v2q-73 1 -114 35q-40 33 -55 99h-1q-24 -45 -61 -66t-87 -21q-34 0 -63 12q-27 11 -49 32q-21 19 -33 47q-12 27 -12 59q0 63 47 115q46 50 125 93l121 63v75h102v-294q0 -23 5 -45q5 -20 16 -33
q12 -13 32 -21q18 -7 50 -7q29 0 54 9t47 23q-3 27 -3 59v382h108v-372q0 -50 23 -76q22 -25 80 -25q51 0 75 25q24 26 24 72v455h108v-460q0 -236 -208 -236q-74 0 -118 22q-45 22 -67 70q-22 -45 -57 -69t-89 -24zM193 181q71 0 123 33v144l-93 -36q-59 -23 -86 -45
t-27 -49q0 -23 21 -35t62 -12z" />
    <glyph glyph-name="uniFEF5" unicode="&#xfedf;&#xfe82;" horiz-adv-x="527" arabic-form="isolated" 
d="M423 348v1q40 -37 57 -74t17 -83q0 -92 -44 -142q-43 -49 -129 -49h-294v137l230 173l-230 154v140l8 5l302 -204q8 21 11 48q3 28 3 78v213h108v-213q0 -26 -2 -62q-1 -26 -6 -49q-4 -22 -12 -40q-8 -19 -19 -33zM324 146l-1 -2q104 0 104 36q0 8 -4 15q-5 8 -16 18
q-14 12 -31 24q-27 19 -49 33l-160 -122v-2h157zM29 692h-2q11 16 30 24q21 8 42 8q14 0 32 -3q24 -4 36 -7q17 -3 30 -6t27 -3q17 0 32 3q14 3 23 8h10v-57q-25 -22 -64 -22q-16 0 -31 3q-20 4 -31 7t-33 7q-16 3 -30 3q-20 0 -36 -6q-17 -6 -24 -16h-11v57z" />
    <glyph glyph-name="uniFEF6" unicode="&#xfee0;&#xfe82;" horiz-adv-x="634" arabic-form="final" 
d="M207 -10l-1 -2q-44 0 -84 6q-44 6 -93 22v118h145h20q13 0 20 1l-122 484v10h116l119 -478q28 7 54 20q21 11 43 29q-2 14 -2 21v22v500h108v-504q0 -53 23 -74t81 -21v-120l-25 -25q-134 0 -172 113q-37 -57 -91 -89q-56 -33 -139 -33zM10 739h-2q10 17 30 24q21 8 42 8
q14 0 32 -3q24 -4 36 -7q16 -3 30 -6t27 -3q17 0 32 3q14 3 23 8h10v-57q-25 -22 -64 -22q-16 0 -31 3q-20 4 -31 7t-33 7q-17 3 -30 3q-19 0 -36 -6t-24 -16h-11v57z" />
    <glyph glyph-name="uniFEF7" unicode="&#xfedf;&#xfe84;" horiz-adv-x="527" arabic-form="isolated" 
d="M423 348v1q40 -37 57 -74t17 -83q0 -92 -44 -142q-43 -49 -129 -49h-294v137l230 173l-230 154v140l8 5l302 -204q8 21 11 48q3 28 3 78v213h108v-213q0 -26 -2 -62q-1 -26 -6 -49q-4 -22 -12 -40q-8 -19 -19 -33zM324 146l-1 -2q104 0 104 36q0 8 -4 15q-5 8 -16 18
q-14 12 -31 24q-27 19 -49 33l-160 -122v-2h157zM83 708l-1 1q-10 21 -10 39q0 22 9 42q9 19 24 34q16 16 36 23q22 8 44 8q67 0 67 -69v-31h-45v7q0 23 -34 23q-23 0 -39 -10t-16 -24q0 -12 11 -23t30 -20h110v-68h-218v68h32z" />
    <glyph glyph-name="uniFEF8" unicode="&#xfee0;&#xfe84;" horiz-adv-x="634" arabic-form="final" 
d="M207 -10l-1 -2q-44 0 -84 6q-44 6 -93 22v118h145h20q13 0 20 1l-122 484v10h116l119 -478q28 7 54 20q21 11 43 29q-2 14 -2 21v22v500h108v-504q0 -53 23 -74t81 -21v-120l-25 -25q-134 0 -172 113q-37 -57 -91 -89q-56 -33 -139 -33zM63 755l-1 1q-10 21 -10 39
q0 23 9 42t24 34q16 16 36 23q22 8 44 8q67 0 67 -69v-31h-45v7q0 23 -34 23q-23 0 -39 -10t-16 -24q0 -12 11 -23t30 -20h110v-68h-218v68h32z" />
    <glyph glyph-name="uniFEF9" unicode="&#xfedf;&#xfe88;" horiz-adv-x="527" arabic-form="isolated" 
d="M423 348v1q40 -37 57 -74t17 -83q0 -92 -44 -142q-43 -49 -129 -49h-294v137l230 173l-230 154v140l8 5l302 -204q8 21 11 48q3 28 3 78v213h108v-213q0 -26 -2 -62q-1 -26 -6 -49q-4 -22 -12 -40q-8 -19 -19 -33zM324 146l-1 -2q104 0 104 36q0 8 -4 15q-5 8 -16 18
q-14 12 -31 24q-27 19 -49 33l-160 -122v-2h157zM89 -195l-1 1q-10 21 -10 39q0 23 9 42t24 34q16 16 36 23q22 8 44 8q67 0 67 -69v-31h-45v7q0 23 -34 23q-23 0 -39 -10t-16 -24q0 -12 11 -23t30 -20h110v-68h-218v68h32z" />
    <glyph glyph-name="uniFEFA" unicode="&#xfee0;&#xfe88;" horiz-adv-x="634" arabic-form="final" 
d="M207 -10l-1 -2q-44 0 -84 6q-44 6 -93 22v118h145h20q13 0 20 1l-122 484v10h116l119 -478q28 7 54 20q21 11 43 29q-2 14 -2 21v22v500h108v-504q0 -53 23 -74t81 -21v-120l-25 -25q-134 0 -172 113q-37 -57 -91 -89q-56 -33 -139 -33zM191 -196l-1 1q-10 21 -10 39
q0 22 9 42q9 19 24 34q16 16 36 23q22 8 44 8q67 0 67 -69v-31h-45v7q0 23 -34 23q-23 0 -39 -10t-16 -24q0 -12 11 -23t30 -20h110v-68h-218v68h32z" />
    <glyph glyph-name="uniFEFB" unicode="&#xfedf;&#xfe8e;" horiz-adv-x="527" arabic-form="isolated" 
d="M423 348v1q40 -37 57 -74t17 -83q0 -92 -44 -142q-43 -49 -129 -49h-294v137l230 173l-230 154v140l8 5l302 -204q8 21 11 48q3 28 3 78v213h108v-213q0 -26 -2 -62q-1 -26 -6 -49q-4 -22 -12 -40q-8 -19 -19 -33zM324 146l-1 -2q104 0 104 36q0 8 -4 15q-5 8 -16 18
q-14 12 -31 24q-27 19 -49 33l-160 -122v-2h157z" />
    <glyph glyph-name="uniFEFC" unicode="&#xfee0;&#xfe8e;" horiz-adv-x="634" arabic-form="final" 
d="M207 -10l-1 -2q-44 0 -84 6q-44 6 -93 22v118h145h20q13 0 20 1l-122 484v10h116l119 -478q28 7 54 20q21 11 43 29q-2 14 -2 21v22v500h108v-504q0 -53 23 -74t81 -21v-120l-25 -25q-134 0 -172 113q-37 -57 -91 -89q-56 -33 -139 -33z" />
    <glyph glyph-name="f_b" unicode="fb" horiz-adv-x="934" 
d="M606 75l-4 -3q34 0 59 9q26 9 44 30t27 55t9 84q0 93 -31 131q-32 39 -90 39h-10v65q12 2 25 3q20 2 31 2q118 0 179 -58q62 -59 62 -168q0 -60 -18 -109t-54 -84t-90 -54q-53 -19 -125 -19h-205v627q0 32 -18 41t-61 9q-55 0 -76 -21t-21 -74v-98h112v-74h-112v-314
q0 -26 26 -26h45v-69h-282v69h29q27 0 27 26v314h-62v74h38q24 0 24 23v18q0 53 18 95t51 72q32 29 81 46q47 16 108 16q72 0 126 -3q14 -1 31 -1.5t27.5 -1.5t16.5 -1q28 -3 28 -30v-640h35z" />
    <glyph glyph-name="f_f" unicode="ff" horiz-adv-x="676" 
d="M354 69l26 -1q27 0 27 26v314h-169v-314q0 -26 26 -26h36v-69h-273v69h29q27 0 27 26v314h-62v74h38q24 0 24 23v22q0 50 16 89q17 42 46 71q31 31 74 47q45 17 98 17q14 0 36 -2q13 -1 28 -5v-89h-11q-14 5 -30 8q-18 3 -43 3q-37 0 -47 -19q-11 -20 -11 -66v-98h145
q24 0 24 23v22q0 50 16 89q17 42 46 71q31 30 74 47q45 17 98 17q14 0 36 -2q13 -1 30 -5v-89h-12q-24 10 -72 10q-36 0 -48 -19t-12 -66v-98h122v-74h-122v-314q0 -26 28 -26h43v-69h-281v69z" />
    <glyph glyph-name="f_h" unicode="fh" horiz-adv-x="947" 
d="M30 69l24 -1q27 0 27 26v314h-62v74h38q24 0 24 23v18q0 51 17 94q16 42 48 72q31 29 78 46q45 16 105 16h66q40 0 58 -1q25 -1 46 -3q19 -1 30 -3q27 -3 27 -30v-289h4q21 24 62 46q39 21 95 21q78 0 114 -39t36 -115v-244q0 -27 27 -27h29v-68h-263v68h26q27 0 27 27
v220q0 42 -17 59t-51 17q-29 0 -51 -12q-24 -13 -36 -25v-259q0 -27 27 -27h29v-68h-266v68h29q27 0 27 27v531q0 28 -14 40t-57 12q-53 0 -73 -21q-19 -20 -19 -75v-98h106v-74h-106v-314q0 -26 26 -26h31v-69h-268v69z" />
    <glyph glyph-name="f_j" unicode="fj" horiz-adv-x="637" 
d="M30 69l29 3q27 0 27 26v314h-63v74h39q24 0 24 23v21q0 46 15 87q15 40 44 71q29 30 72 48t97 18q28 0 48 -6v-88h-11q-13 4 -25 5q-20 2 -27 2q-37 0 -47 -18q-11 -19 -11 -64v-101h294q27 0 27 -26v-470q0 -105 -63 -159t-196 -54v69q59 0 81 28q23 29 23 100v411
q0 26 -27 26h-139v-314q0 -26 27 -26h41v-69h-279v69zM401 656v-1q0 41 24 62t63 21t63 -21t24 -61q0 -39 -24 -60t-63 -21t-63 21t-24 60z" />
    <glyph glyph-name="f_k" unicode="fk" horiz-adv-x="936" 
d="M568 253l106 110q5 5 15 17q8 10 8 18q0 16 -19 16h-26v68h250v-68h-8q-40 0 -67 -13q-29 -14 -54 -40l-67 -66l135 -170q19 -25 39 -39t48 -18v-69h-80q-58 0 -93 18q-34 18 -60 56zM28 68l26 -1q27 0 27 26v314h-62v74h38q24 0 24 23v18q0 51 17 94q16 42 48 72
q31 29 78 46q45 16 105 16h66q40 0 58 -1q25 -1 46 -3q19 -2 30 -3q27 -3 27 -30v-620q0 -26 27 -26h29v-69h-264v69h27q27 0 27 26v531q0 28 -14 40t-57 12q-53 0 -73 -21q-19 -20 -19 -75v-98h106v-74h-106v-314q0 -26 26 -26h31v-69h-268v69z" />
    <glyph glyph-name="f_f_b" unicode="ffb" horiz-adv-x="1258" 
d="M930 75l-4 -4q34 0 59 9q26 9 44 30t27 55q9 35 9 84q0 93 -31 131q-32 39 -90 39h-10v65q12 2 25 3q20 2 31 2q117 0 178 -58t61 -168q0 -59 -18 -109t-54 -84t-90 -54q-53 -19 -124 -19h-205v627q0 32 -18 41t-61 9q-56 0 -77 -21t-21 -74v-98h113v-74h-113v-314
q0 -26 27 -26h43v-69h-280v69h29q27 0 27 26v314h-169v-314q0 -26 26 -26h36v-69h-273v69h29q27 0 27 26v314h-62v74h38q24 0 24 23v22q0 50 16 89q17 42 46 71q31 30 74 47q45 17 98 17q14 0 36 -2q13 -1 28 -5v-89h-11q-14 5 -30 8q-18 3 -43 3q-37 0 -47 -19
q-11 -20 -11 -66v-98h145q24 0 24 23v18q0 53 18 95t51 72q32 29 81 46q47 16 108 16q72 0 126 -3q14 -1 31 -1.5t27.5 -1.5t16.5 -1q27 -3 27 -30v-640h36z" />
    <glyph glyph-name="f_f_h" unicode="ffh" horiz-adv-x="1270" 
d="M354 69l23 -2q27 0 27 26v314h-169v-314q0 -26 26 -26h36v-69h-273v69h29q27 0 27 26v314h-62v74h38q24 0 24 23v22q0 50 16 89q17 42 46 71q31 30 74 47q45 17 98 17q14 0 36 -2q13 -1 28 -5v-89h-11q-14 5 -30 8q-18 3 -43 3q-37 0 -47 -19q-11 -20 -11 -66v-98h145
q24 0 24 23v18q0 51 17 94q16 42 48 72q31 29 78 46q45 16 105 16h66q40 0 58 -1q25 -1 46 -3q19 -1 30 -3q28 -3 28 -29v-290h4q21 24 62 46q39 21 95 21q78 0 114 -38t36 -116v-244q0 -26 27 -26h29v-69h-263v69h26q27 0 27 26v221q0 40 -17 57t-51 17q-27 0 -51 -11
q-23 -10 -36 -24v-260q0 -26 27 -26h29v-69h-266v69h29q27 0 27 26v531q0 28 -14 40q-13 12 -57 12q-54 0 -74 -21q-20 -22 -20 -75v-98h107v-74h-107v-314q0 -26 27 -26h31v-69h-268v69z" />
    <glyph glyph-name="f_f_i" unicode="ffi" horiz-adv-x="972" 
d="M680 69h28q26 0 26 26v288q0 26 -26 26h-146v-314q0 -26 27 -26h41v-69h-279v69h29q27 0 27 26v314h-168v-314q0 -26 27 -26h35v-69h-273v69h29q27 0 27 26v314h-63v74h39q24 0 24 23v21q0 50 16 89q17 42 46 71q30 30 74 48t98 18q14 0 36 -2q13 -1 28 -5v-89h-11
q-24 10 -73 10q-37 0 -47 -19q-11 -20 -11 -66v-98h144q24 0 24 23v21q0 48 16 87q17 42 46 71q30 30 73 48t99 18q30 0 50 -6v-88h-11q-26 8 -59 8q-37 0 -47 -19q-11 -20 -11 -66v-98h301q26 0 26 -26v-362q0 -26 27 -26h29v-69h-267v69zM725 653v-1q0 41 24 62t63 21
t63 -21t24 -61q0 -39 -24 -60t-63 -21t-63 21t-24 60z" />
    <glyph glyph-name="f_f_j" unicode="ffj" horiz-adv-x="961" 
d="M353 69l28 2q27 0 27 26v314h-168v-314q0 -26 27 -26h35v-69h-273v69h29q27 0 27 26v314h-63v74h39q24 0 24 23v21q0 50 16 89q17 42 46 71q30 30 74 48t98 18q14 0 36 -2q13 -1 28 -5v-89h-11q-24 10 -73 10q-37 0 -47 -19q-11 -20 -11 -66v-98h144q24 0 24 23v21
q0 46 15 87q15 40 44 71q28 30 72 48t97 18q29 0 48 -6v-88h-11q-13 4 -25 5q-20 2 -27 2q-36 0 -47 -18q-11 -19 -11 -64v-101h294q27 0 27 -26v-470q0 -105 -63 -159t-196 -54v69q59 0 81 28q23 29 23 100v411q0 26 -27 26h-139v-314q0 -26 27 -26h41v-69h-279v69z
M723 655v-1q0 41 24 62t63 21t63 -21t24 -61q0 -39 -24 -60t-63 -21t-63 21t-24 60z" />
    <glyph glyph-name="f_f_k" unicode="ffk" horiz-adv-x="1260" 
d="M354 69l25 -2q27 0 27 26v314h-169v-314q0 -26 26 -26h36v-69h-273v69h29q27 0 27 26v314h-62v74h38q24 0 24 23v22q0 50 16 89q17 42 46 71q31 30 74 47q45 17 98 17q14 0 36 -2q13 -1 28 -5v-89h-11q-14 5 -30 8q-18 3 -43 3q-37 0 -47 -19q-11 -20 -11 -66v-98h145
q24 0 24 23v18q0 51 17 94q16 42 48 72q31 29 78 46q45 16 105 16h66q40 0 58 -1q25 -1 46 -3q19 -1 30 -3q28 -3 28 -30v-620q0 -26 27 -26h29v-69h-264v69h27q27 0 27 26v531q0 28 -14 40q-13 12 -57 12q-54 0 -74 -21q-20 -22 -20 -75v-98h107v-74h-107v-314
q0 -26 27 -26h31v-69h-268v69zM887 251l107 110q5 5 15 17q8 10 8 18q0 16 -19 16h-27v68h250v-68h-7q-41 0 -68 -13q-29 -14 -54 -40l-66 -66l135 -170q19 -25 39 -39t48 -18v-69h-81q-59 0 -93 18t-60 56z" />
    <glyph glyph-name="f_f_l" unicode="ffl" horiz-adv-x="960" 
d="M354 69l25 -2q27 0 27 26v314h-169v-314q0 -26 26 -26h36v-69h-273v69h29q27 0 27 26v314h-62v74h38q24 0 24 23v22q0 50 16 89q17 42 46 71q31 30 74 47q45 17 98 17q14 0 36 -2q13 -1 28 -5v-89h-11q-14 5 -30 8q-18 3 -43 3q-37 0 -47 -19q-11 -20 -11 -66v-98h145
q24 0 24 23v18q0 51 17 94q16 42 48 72q31 29 78 46q45 16 105 16h66q40 0 58 -1q25 -1 46 -3q19 -1 30 -3q28 -3 28 -30v-620q0 -26 27 -26h29v-69h-266v69h29q27 0 27 26v531q0 28 -14 40q-13 12 -57 12q-54 0 -74 -21q-20 -22 -20 -75v-98h107v-74h-107v-314
q0 -26 27 -26h31v-69h-268v69z" />
    <glyph glyph-name="f_y" unicode="fy" horiz-adv-x="828" 
d="M329 -141l3 -1q10 -4 26 -6q10 -1 30 -1q48 0 76 17q26 16 43 57l13 34l-170 421q-8 18 -16 23q-9 6 -30 6h-68v-314q0 -26 27 -26h44v-69h-282v69h29q27 0 27 26v314h-63v74h39q24 0 24 23v21q0 50 16 89q17 42 46 71q30 30 74 48q43 18 98 18q14 0 36 -2q13 -1 28 -5
v-89h-11q-24 10 -73 10q-37 0 -47 -19q-11 -20 -11 -66v-98h321v-68h-33q-18 0 -18 -15q0 -5 3 -13q4 -10 5 -15l86 -235h4l83 235q1 5 5 15q3 8 3 12q0 15 -18 15h-32v68h187v-68h-9q-21 0 -30 -9q-10 -10 -17 -28l-181 -476q-53 -137 -202 -137q-23 0 -35 1q-18 2 -30 3
v90z" />
    <glyph glyph-name="f_yacute" unicode="f&#xfd;" horiz-adv-x="828" 
d="M328 -141l6 -2q10 -4 26 -6q10 -1 30 -1q48 0 76 17q27 17 42 57l14 34l-170 421q-8 18 -16 23q-9 6 -30 6h-68v-314q0 -26 26 -26h45v-69h-282v69h29q27 0 27 26v314h-62v74h38q24 0 24 23v22q0 50 16 89q17 42 46 71q31 31 74 47q45 17 98 17q14 0 36 -2q13 -1 28 -5
v-89h-11q-14 5 -30 8q-18 3 -43 3q-37 0 -47 -19q-11 -20 -11 -66v-98h321v-68h-34q-17 0 -17 -15q0 -12 7 -27l86 -235h3l83 235q7 15 7 27q0 15 -17 15h-32v68h187v-68h-10q-21 0 -30 -9q-10 -10 -17 -28l-181 -476q-50 -137 -201 -137q-23 0 -35 1q-16 1 -31 3v90z
M527 565l-3 -2q16 19 65 72q16 18 50 54q24 25 33 33q15 12 36 12q22 0 39 -18q17 -19 17 -37q0 -11 -6 -22t-16 -18q-4 -5 -15 -12l-24 -16q-13 -9 -30 -18l-33 -18q-26 -16 -83 -46z" />
    <glyph glyph-name="f_ydieresis" unicode="f&#xff;" horiz-adv-x="828" 
d="M328 -141l6 -1q10 -4 26 -6q10 -1 30 -1q48 0 76 17q27 16 42 57l14 34l-170 421q-8 18 -16 23q-9 6 -30 6h-68v-314q0 -26 26 -26h45v-69h-282v69h29q27 0 27 26v314h-62v74h38q24 0 24 23v22q0 50 16 89q17 42 46 71q31 30 74 47q45 17 98 17q31 0 50 -6v-88h-11
q-26 8 -59 8q-37 0 -47 -19q-11 -20 -11 -66v-98h321v-68h-34q-17 0 -17 -15q0 -12 7 -27l86 -235h3l83 235q7 15 7 27q0 15 -17 15h-32v68h187v-68h-10q-21 0 -30 -9q-10 -10 -17 -28l-181 -476q-50 -137 -201 -137q-23 0 -35 1q-16 1 -31 3v90zM415 612l-1 -1q0 35 20 53
t54 18q33 0 54 -18t21 -52t-21 -51q-22 -17 -54 -17q-34 0 -54 17q-19 16 -19 51zM618 611v-1q0 35 19 53t54 18t54 -18q20 -18 20 -52t-20 -51t-54 -17t-54 17q-19 16 -19 51z" />
    <glyph glyph-name="uni06440671" unicode="&#xfedf;&#xfb51;" horiz-adv-x="527" 
d="M423 348v1q40 -37 57 -74t17 -83q0 -92 -44 -142q-43 -49 -129 -49h-294v137l230 173l-230 154v140l8 5l302 -204q8 21 11 48q3 28 3 78v213h108v-213q0 -26 -2 -62q-1 -26 -6 -49q-4 -22 -12 -40q-8 -19 -19 -33zM324 146l-1 -2q104 0 104 36q0 8 -4 15q-5 8 -16 18
q-14 12 -31 24q-27 19 -49 33l-160 -122v-2h157zM218 828v-1q35 0 59 -25q24 -26 24 -70q0 -45 -24 -69t-62 -24q-31 0 -60 9t-54 9q-19 0 -36 -6t-24 -16h-11v57q10 16 30 24q21 8 42 8q25 53 54 79q28 25 62 25zM214 705v-1q17 0 29 6t12 17q0 14 -13 21q-14 8 -31 8
q-41 0 -67 -39l36 -8q16 -4 34 -4z" />
    <glyph glyph-name="uni06440671.fina" unicode="&#xfee0;&#xfb51;" horiz-adv-x="634" 
d="M207 -10l-1 -2q-44 0 -84 6q-44 6 -93 22v118h145h20q13 0 20 1l-122 484v10h116l119 -478q28 7 54 20q21 11 43 29q-2 14 -2 21v22v500h108v-504q0 -53 23 -74t81 -21v-120l-25 -25q-134 0 -172 113q-37 -57 -91 -89q-56 -33 -139 -33zM199 875v-1q35 0 59 -25t24 -70
t-24 -69t-62 -24q-32 0 -60 9t-54 9q-20 0 -36 -6q-17 -6 -24 -16h-11v57q11 17 30 24q21 8 42 8q25 53 54 79q28 25 62 25zM195 752v-1q17 0 29 6t12 17q0 14 -13 21q-14 8 -31 8q-42 0 -67 -39l36 -8q16 -4 34 -4z" />
    <glyph glyph-name="uni06330632" unicode="&#xfeb3;&#xfeb0;" horiz-adv-x="954" 
d="M54 -255l-7 -3q-42 0 -82 20q-39 20 -72 54v83l9 7q60 -24 117 -24q35 0 65 15q29 15 52 42q23 28 35 65q12 38 12 84q0 31 -7 63q-8 35 -24 81l5 7l293 30v-93q13 -21 38 -34q24 -12 56 -12q24 0 37 4q14 4 24 14q9 9 12 26q3 16 3 40v55h86v-55q0 -25 -1 -37
q-2 -22 -4 -34q33 -11 66 -11q32 0 44 12t12 40q0 24 -5 59q-4 27 -17 83l5 6h93q1 -4 4 -20.5t4 -24.5q4 -27 5 -36l3 -33q1 -11 1 -33q0 -97 -37 -147q-37 -51 -111 -51q-34 0 -61 12t-47 32q-40 -43 -111 -43q-63 0 -109 33q-47 33 -75 97l-84 -9q1 -3 1 -10v-10
q0 -72 -18 -135t-49 -109t-73 -73t-88 -27zM189 464l73 -71l-73 -71h-10l-73 71l73 71h10z" />
    <glyph glyph-name="uni06340632" unicode="&#xfeb7;&#xfeb0;" horiz-adv-x="954" 
d="M54 -255l-7 -3q-42 0 -82 20q-39 20 -72 54v83l9 7q60 -24 117 -24q35 0 65 15q29 15 52 42q23 28 35 65q12 38 12 84q0 31 -7 63q-8 35 -24 81l5 7l293 30v-93q13 -21 38 -34q24 -12 56 -12q24 0 37 4q14 4 24 14q9 9 12 26q3 16 3 40v55h86v-55q0 -25 -1 -37
q-2 -22 -4 -34q33 -11 66 -11q32 0 44 12t12 40q0 24 -5 59q-4 27 -17 83l5 6h93q1 -4 4 -20.5t4 -24.5q4 -27 5 -36l3 -33q1 -11 1 -33q0 -97 -37 -147q-37 -51 -111 -51q-34 0 -61 12t-47 32q-40 -43 -111 -43q-63 0 -109 33q-47 33 -75 97l-84 -9q1 -3 1 -10v-10
q0 -72 -18 -135t-49 -109t-73 -73t-88 -27zM575 550l69 68h10l70 -68l-70 -68h-10zM719 352h-10l-60 59l-60 -59h-10l-73 71l73 71h10l60 -59l60 59h10l73 -71zM189 464l73 -71l-73 -71h-10l-73 71l73 71h10z" />
    <glyph glyph-name="uni06330632.fina" unicode="&#xfeb4;&#xfeb0;" horiz-adv-x="1023" 
d="M54 -255h-4q-42 0 -82 20q-39 19 -72 54v83l9 7q60 -24 117 -24q35 0 65 15q29 15 52 42q23 28 35 65t12 84q0 31 -7 63q-7 34 -24 81l5 7l293 30v-92q30 -47 96 -47q42 0 57 17q15 16 15 65v56h86v-56q0 -25 -1 -37q-2 -22 -4 -34q30 -12 66 -12q17 0 29 3t18 12t9 26
t3 42v86h86v-86q0 -22 -1 -32q-2 -20 -3 -29q58 -11 114 -11v-124l-25 -21q-35 0 -68 9t-60 27q-35 -47 -101 -47q-67 0 -109 44q-40 -43 -111 -43q-126 0 -184 130l-84 -9q1 -3 1 -10v-10q0 -72 -18 -135t-49 -109t-73 -73t-88 -27zM192 467l73 -71l-73 -71h-10l-73 71
l73 71h10z" />
    <glyph glyph-name="uni06340632.fina" unicode="&#xfeb8;&#xfeb0;" horiz-adv-x="1023" 
d="M54 -255h-4q-42 0 -82 20q-39 19 -72 54v83l9 7q60 -24 117 -24q35 0 65 15q29 15 52 42q23 28 35 65t12 84q0 31 -7 63q-7 34 -24 81l5 7l293 30v-92q30 -47 96 -47q42 0 57 17q15 16 15 65v56h86v-56q0 -25 -1 -37q-2 -22 -4 -34q30 -12 66 -12q17 0 29 3t18 12t9 26
t3 42v86h86v-86q0 -22 -1 -32q-2 -20 -3 -29q58 -11 114 -11v-124l-25 -21q-35 0 -68 9t-60 27q-35 -47 -101 -47q-67 0 -109 44q-40 -43 -111 -43q-126 0 -184 130l-84 -9q1 -3 1 -10v-10q0 -72 -18 -135t-49 -109t-73 -73t-88 -27zM588 553l69 68h10l70 -68l-70 -68h-10z
M732 355h-10l-60 59l-60 -59h-10l-73 71l73 71h10l60 -59l60 59h10l73 -71zM192 467l73 -71l-73 -71h-10l-73 71l73 71h10z" />
    <glyph glyph-name="uni06330626" unicode="&#xfeb3;&#xfe8a;" horiz-adv-x="1301" 
d="M386 -305l-11 -5q-169 0 -261 75q-91 75 -91 220q0 47 6 93q6 43 17 84h83v-8q-7 -28 -12 -62q-4 -29 -4 -65q0 -91 69 -135q68 -43 218 -43q48 0 96 5q44 4 75 12t48 18q17 11 17 24q0 14 -19 21t-75 18l-75 13q-80 13 -118 47q-37 33 -37 96q0 51 24 99q25 50 64 86
q40 38 93 60q54 23 111 23q47 0 87 -23q39 -23 68 -74l29 -54q10 -19 26 -43q11 -17 24 -28q12 -10 26 -15q15 -5 33 -5q37 1 51 18t14 66v56h86v-56q0 -25 -1 -37q-2 -22 -4 -34q33 -11 66 -11q32 0 44 12t12 40q0 24 -5 59q-4 27 -17 83l5 6h93q1 -4 4 -20.5t4 -24.5
q4 -27 5 -36l3 -33q1 -11 1 -33q0 -97 -37 -147q-37 -51 -111 -51q-34 0 -61 12t-47 32q-39 -42 -112 -42q-34 0 -58 7q-23 7 -46 23q-19 14 -40 41q-18 23 -40 63l-25 45q-20 35 -48 50q-29 15 -66 15q-32 0 -62 -6q-29 -6 -53 -17q-22 -11 -36 -24q-14 -14 -14 -28
q0 -17 20 -28t66 -18l75 -14q42 -7 72 -18t49 -28t28 -42q9 -24 9 -57q0 -60 -23 -109q-22 -48 -66 -81q-45 -34 -105 -50q-63 -17 -141 -17zM11 290l-1 1q-10 21 -10 39q0 22 9 42q9 19 24 34q16 16 36 23q22 8 44 8q67 0 67 -69v-31h-45v7q0 23 -34 23q-23 0 -39 -10
t-16 -24q0 -12 11 -23t30 -20h110v-68h-218v68h32z" />
    <glyph glyph-name="uni06340626" unicode="&#xfeb7;&#xfe8a;" horiz-adv-x="1301" 
d="M386 -305l-11 -5q-169 0 -261 75q-91 75 -91 220q0 47 6 93q6 43 17 84h83v-8q-7 -28 -12 -62q-4 -29 -4 -65q0 -91 69 -135q68 -43 218 -43q48 0 96 5q44 4 75 12t48 18q17 11 17 24q0 14 -19 21t-75 18l-75 13q-80 13 -118 47q-37 33 -37 96q0 51 24 99q25 50 64 86
q40 38 93 60q54 23 111 23q47 0 87 -23q39 -23 68 -74l29 -54q10 -19 26 -43q11 -17 24 -28q12 -10 26 -15q15 -5 33 -5q37 1 51 18t14 66v56h86v-56q0 -25 -1 -37q-2 -22 -4 -34q33 -11 66 -11q32 0 44 12t12 40q0 24 -5 59q-4 27 -17 83l5 6h93q1 -4 4 -20.5t4 -24.5
q4 -27 5 -36l3 -33q1 -11 1 -33q0 -97 -37 -147q-37 -51 -111 -51q-34 0 -61 12t-47 32q-39 -42 -112 -42q-34 0 -58 7q-23 7 -46 23q-19 14 -40 41q-18 23 -40 63l-25 45q-20 35 -48 50q-29 15 -66 15q-32 0 -62 -6q-29 -6 -53 -17q-22 -11 -36 -24q-14 -14 -14 -28
q0 -17 20 -28t66 -18l75 -14q42 -7 72 -18t49 -28t28 -42q9 -24 9 -57q0 -60 -23 -109q-22 -48 -66 -81q-45 -34 -105 -50q-63 -17 -141 -17zM923 548l69 68h10l70 -68l-70 -68h-10zM1067 350h-10l-60 59l-60 -59h-10l-73 71l73 71h10l60 -59l60 59h10l73 -71zM11 290l-1 1
q-10 21 -10 39q0 22 9 42q9 19 24 34q16 16 36 23q22 8 44 8q67 0 67 -69v-31h-45v7q0 23 -34 23q-23 0 -39 -10t-16 -24q0 -12 11 -23t30 -20h110v-68h-218v68h32z" />
    <glyph glyph-name="uni06330626.fina" unicode="&#xfeb4;&#xfe8a;" horiz-adv-x="1370" 
d="M386 -305l-8 -10q-170 0 -261 75t-91 220q0 46 6 93q6 43 17 84h83v-8q-7 -28 -12 -62q-4 -29 -4 -65q0 -90 69 -133q68 -43 218 -43q48 0 96 5q46 5 75 13q30 9 48 20q17 11 17 24q0 14 -19 23q-20 9 -75 18l-75 13q-80 13 -118 47q-37 33 -37 96q0 51 24 99
q25 50 64 86q41 38 93 60q54 23 111 23q47 0 87 -23q39 -23 68 -74l29 -54q10 -19 26 -43q11 -17 24 -28q12 -10 26 -15q15 -5 33 -5q38 0 51 18q13 17 13 66v56h86v-56q0 -25 -1 -37q-2 -22 -4 -34q30 -12 66 -12q17 0 29 3t18 12t9 26t3 42v86h86v-86q0 -22 -1 -32
q-2 -20 -3 -29q58 -11 114 -11v-124l-25 -21q-35 0 -68 9t-60 27q-34 -46 -100 -46q-70 0 -110 43q-39 -43 -112 -43q-34 0 -58 7q-23 7 -46 23q-19 14 -40 41q-18 23 -40 63l-25 45q-20 35 -48 50t-66 15q-32 0 -62 -6q-29 -6 -53 -17q-23 -11 -36 -24q-14 -14 -14 -28
q0 -17 20 -28q19 -11 66 -18l75 -14q82 -17 120 -48q37 -31 37 -97q0 -60 -23 -109q-22 -48 -66 -81q-45 -34 -105 -50q-63 -17 -141 -17zM14 285l-1 1q-10 21 -10 39q0 23 9 42t24 34q16 16 36 23q22 8 44 8q67 0 67 -69v-31h-45v7q0 23 -34 23q-23 0 -39 -10t-16 -24
q0 -12 11 -23t30 -20h110v-68h-218v68h32z" />
    <glyph glyph-name="uni06340626.fina" unicode="&#xfeb8;&#xfe8a;" horiz-adv-x="1370" 
d="M386 -305l-8 -10q-170 0 -261 75t-91 220q0 46 6 93q6 43 17 84h83v-8q-7 -28 -12 -62q-4 -29 -4 -65q0 -90 69 -133q68 -43 218 -43q48 0 96 5q46 5 75 13q30 9 48 20q17 11 17 24q0 14 -19 23q-20 9 -75 18l-75 13q-80 13 -118 47q-37 33 -37 96q0 51 24 99
q25 50 64 86q41 38 93 60q54 23 111 23q47 0 87 -23q39 -23 68 -74l29 -54q10 -19 26 -43q11 -17 24 -28q12 -10 26 -15q15 -5 33 -5q38 0 51 18q13 17 13 66v56h86v-56q0 -25 -1 -37q-2 -22 -4 -34q30 -12 66 -12q17 0 29 3t18 12t9 26t3 42v86h86v-86q0 -22 -1 -32
q-2 -20 -3 -29q58 -11 114 -11v-124l-25 -21q-35 0 -68 9t-60 27q-34 -46 -100 -46q-70 0 -110 43q-39 -43 -112 -43q-34 0 -58 7q-23 7 -46 23q-19 14 -40 41q-18 23 -40 63l-25 45q-20 35 -48 50t-66 15q-32 0 -62 -6q-29 -6 -53 -17q-23 -11 -36 -24q-14 -14 -14 -28
q0 -17 20 -28q19 -11 66 -18l75 -14q82 -17 120 -48q37 -31 37 -97q0 -60 -23 -109q-22 -48 -66 -81q-45 -34 -105 -50q-63 -17 -141 -17zM931 543l69 68h10l70 -68l-70 -68h-10zM1075 345h-10l-60 59l-60 -59h-10l-73 71l73 71h10l60 -59l60 59h10l73 -71zM14 285l-1 1
q-10 21 -10 39q0 23 9 42t24 34q16 16 36 23q22 8 44 8q67 0 67 -69v-31h-45v7q0 23 -34 23q-23 0 -39 -10t-16 -24q0 -12 11 -23t30 -20h110v-68h-218v68h32z" />
    <glyph glyph-name="uni06350632" unicode="&#xfebb;&#xfeb0;" horiz-adv-x="1086" 
d="M54 -255h-2q-42 0 -82 20q-39 19 -72 54v83l9 7q60 -24 117 -24q35 0 65 15q29 15 52 42q23 28 35 65t12 84q0 31 -7 63q-7 34 -24 81l5 7l293 30v-86q7 -13 24 -22l100 117q37 43 66 71q33 31 63 50q33 21 64 29q33 9 70 9q45 0 84 -18q40 -18 68 -48t45 -71
q17 -42 17 -85q0 -46 -17 -88q-16 -39 -47 -70q-29 -29 -72 -46q-41 -16 -93 -16h-259q-37 0 -69 8q-31 8 -54 22q-24 15 -43 37t-36 53l-85 -9q1 -3 1 -10v-10q0 -72 -18 -135t-49 -109t-73 -73t-88 -27zM860 145q65 0 92 11q26 11 26 36q0 24 -12 44t-33 33q-21 14 -49 21
q-30 8 -61 8q-63 0 -118 -27q-56 -27 -118 -88l-29 -34l1 -3q4 -1 15 -1h16h270zM196 467l73 -71l-73 -71h-10l-73 71l73 71h10z" />
    <glyph glyph-name="uni06360632" unicode="&#xfebf;&#xfeb0;" horiz-adv-x="1086" 
d="M54 -255h-2q-42 0 -82 20q-39 19 -72 54v83l9 7q60 -24 117 -24q35 0 65 15q29 15 52 42q23 28 35 65t12 84q0 31 -7 63q-7 34 -24 81l5 7l293 30v-86q7 -13 24 -22l100 117q37 43 66 71q33 31 63 50q33 21 64 29q33 9 70 9q45 0 84 -18q40 -18 68 -48t45 -71
q17 -42 17 -85q0 -46 -17 -88q-16 -39 -47 -70q-29 -29 -72 -46q-41 -16 -93 -16h-259q-37 0 -69 8q-31 8 -54 22q-24 15 -43 37t-36 53l-85 -9q1 -3 1 -10v-10q0 -72 -18 -135t-49 -109t-73 -73t-88 -27zM860 145q65 0 92 11q26 11 26 36q0 24 -12 44t-33 33q-21 14 -49 21
q-30 8 -61 8q-63 0 -118 -27q-56 -27 -118 -88l-29 -34l1 -3q4 -1 15 -1h16h270zM131 467l73 -71l-73 -71h-10l-73 71l73 71h10zM741 667l73 -71l-73 -71h-10l-73 71l73 71h10z" />
    <glyph glyph-name="uni06350632.fina" unicode="&#xfebc;&#xfeb0;" horiz-adv-x="1150" 
d="M54 -255h-3q-42 0 -82 20q-39 19 -72 54v83l9 7q60 -24 117 -24q35 0 65 15q29 15 52 42q23 28 35 65t12 84q0 31 -7 63q-8 34 -24 81l5 7l293 30v-86q7 -13 24 -22l100 117q37 43 66 71q33 31 63 50q33 21 64 29q33 9 70 9q45 0 84 -18q40 -18 68 -48t45 -71
q17 -42 17 -85q0 -29 -8 -61q45 -15 102 -15v-120l-25 -25q-76 0 -141 54q-30 -25 -69 -39q-40 -14 -87 -14h-259q-37 0 -69 8q-31 8 -54 22q-24 15 -43 37t-36 53l-85 -9q1 -3 1 -10v-10q0 -72 -18 -135t-49 -109t-73 -73t-88 -27zM859 145q65 0 92 11q26 11 26 36
q0 24 -12 44t-33 33q-21 14 -49 21q-30 8 -61 8q-62 0 -118 -27t-118 -88l-29 -34l1 -3q4 -1 15 -1h16h270zM195 467l73 -71l-73 -71h-10l-73 71l73 71h10z" />
    <glyph glyph-name="uni06360632.fina" unicode="&#xfec0;&#xfeb0;" horiz-adv-x="1150" 
d="M54 -255h-3q-42 0 -82 20q-39 19 -72 54v83l9 7q60 -24 117 -24q35 0 65 15q29 15 52 42q23 28 35 65t12 84q0 31 -7 63q-8 34 -24 81l5 7l293 30v-86q7 -13 24 -22l100 117q37 43 66 71q33 31 63 50q33 21 64 29q33 9 70 9q45 0 84 -18q40 -18 68 -48t45 -71
q17 -42 17 -85q0 -29 -8 -61q45 -15 102 -15v-120l-25 -25q-76 0 -141 54q-30 -25 -69 -39q-40 -14 -87 -14h-259q-37 0 -69 8q-31 8 -54 22q-24 15 -43 37t-36 53l-85 -9q1 -3 1 -10v-10q0 -72 -18 -135t-49 -109t-73 -73t-88 -27zM859 145q65 0 92 11q26 11 26 36
q0 24 -12 44t-33 33q-21 14 -49 21q-30 8 -61 8q-62 0 -118 -27t-118 -88l-29 -34l1 -3q4 -1 15 -1h16h270zM130 467l73 -71l-73 -71h-10l-73 71l73 71h10zM740 667l73 -71l-73 -71h-10l-73 71l73 71h10z" />
    <glyph glyph-name="uni06350626" unicode="&#xfebb;&#xfe8a;" horiz-adv-x="1402" 
d="M1159 444l-9 2q45 0 84 -18q40 -18 68 -48t45 -71q17 -42 17 -85q0 -46 -17 -88q-16 -39 -47 -70q-29 -29 -72 -46q-41 -16 -93 -16h-262q-56 0 -93 28q-38 28 -75 96l-25 45q-20 35 -48 50t-66 15q-32 0 -62 -6q-29 -6 -53 -17q-23 -11 -36 -24q-14 -14 -14 -28
q0 -17 20 -28q19 -11 66 -18l75 -14q42 -7 72 -18t49 -28t28 -42q9 -24 9 -57q0 -60 -23 -109q-23 -48 -66 -81q-45 -34 -105 -50q-63 -17 -141 -17q-169 0 -261 75q-91 75 -91 220q0 46 6 93q6 43 17 84h83v-8q-7 -28 -12 -62q-4 -29 -4 -65q0 -92 69 -135q68 -43 218 -43
q48 0 96 5q44 5 75 12t48 18t17 24q0 14 -19 21q-19 8 -75 18l-75 13q-80 13 -118 47q-37 33 -37 96q0 51 24 99q25 50 64 86q40 37 93 60q54 23 111 23q47 0 87 -23q39 -23 68 -74l29 -54q10 -23 21 -36l77 90q37 43 66 71q33 31 63 50q33 21 64 29q33 9 70 9zM1169 147v-1
q65 0 92 11q26 11 26 36q0 23 -12 42t-33 33q-23 15 -49 23q-29 9 -60 9q-71 0 -126 -28t-108 -84l-30 -34l1 -4q12 -3 26 -3h273zM13 296l-1 1q-10 21 -10 39q0 22 9 42q9 19 24 34q16 16 36 23q22 8 44 8q67 0 67 -69v-31h-45v7q0 23 -34 23q-23 0 -39 -10t-16 -24
q0 -12 11 -23t30 -20h110v-68h-218v68h32z" />
    <glyph glyph-name="uni06360626" unicode="&#xfebf;&#xfe8a;" horiz-adv-x="1402" 
d="M1159 444l-9 2q45 0 84 -18q40 -18 68 -48t45 -71q17 -42 17 -85q0 -46 -17 -88q-16 -39 -47 -70q-29 -29 -72 -46q-41 -16 -93 -16h-262q-56 0 -93 28q-38 28 -75 96l-25 45q-20 35 -48 50t-66 15q-32 0 -62 -6q-29 -6 -53 -17q-23 -11 -36 -24q-14 -14 -14 -28
q0 -17 20 -28q19 -11 66 -18l75 -14q42 -7 72 -18t49 -28t28 -42q9 -24 9 -57q0 -60 -23 -109q-23 -48 -66 -81q-45 -34 -105 -50q-63 -17 -141 -17q-169 0 -261 75q-91 75 -91 220q0 46 6 93q6 43 17 84h83v-8q-7 -28 -12 -62q-4 -29 -4 -65q0 -92 69 -135q68 -43 218 -43
q48 0 96 5q44 5 75 12t48 18t17 24q0 14 -19 21q-19 8 -75 18l-75 13q-80 13 -118 47q-37 33 -37 96q0 51 24 99q25 50 64 86q40 37 93 60q54 23 111 23q47 0 87 -23q39 -23 68 -74l29 -54q10 -23 21 -36l77 90q37 43 66 71q33 31 63 50q33 21 64 29q33 9 70 9zM1169 147v-1
q65 0 92 11q26 11 26 36q0 23 -12 42t-33 33q-23 15 -49 23q-29 9 -60 9q-71 0 -126 -28t-108 -84l-30 -34l1 -4q12 -3 26 -3h273zM13 296l-1 1q-10 21 -10 39q0 22 9 42q9 19 24 34q16 16 36 23q22 8 44 8q67 0 67 -69v-31h-45v7q0 23 -34 23q-23 0 -39 -10t-16 -24
q0 -12 11 -23t30 -20h110v-68h-218v68h32zM1114 669l73 -71l-73 -71h-10l-73 71l73 71h10z" />
    <glyph glyph-name="uni06350626.fina" unicode="&#xfebc;&#xfe8a;" horiz-adv-x="1466" 
d="M1364 159l-9 2q48 -14 102 -14v-120l-25 -25q-75 0 -143 54q-30 -26 -69 -39q-40 -14 -86 -14h-262q-56 0 -93 28q-37 29 -75 96l-25 45q-20 35 -48 50q-29 15 -66 15q-32 0 -62 -6q-29 -6 -53 -17q-22 -10 -36 -24t-14 -28q0 -17 20 -28q20 -10 66 -18l75 -14
q42 -8 72 -18q30 -11 49 -28t28 -42q9 -24 9 -57q0 -60 -23 -109q-22 -48 -66 -81q-45 -34 -105 -50q-63 -17 -141 -17q-170 0 -261 75t-91 220q0 47 6 93q6 43 17 84h83v-8q-7 -28 -12 -62q-4 -29 -4 -65q0 -91 69 -135q68 -43 218 -43q48 0 96 5q43 4 75 12t48 18
q17 11 17 24q0 14 -19 21q-20 7 -75 18l-75 13q-80 13 -118 47q-37 33 -37 96q0 51 24 99q25 50 64 86q41 38 93 60q54 23 111 23q47 0 87 -23q39 -23 68 -74l29 -54q11 -22 21 -36l77 90q37 43 66 71q33 31 63 50q33 21 64 29q33 9 70 9q45 0 84 -18q40 -18 68 -48t45 -71
q17 -42 17 -85q0 -30 -8 -62zM1169 147v-1q65 0 92 11q26 11 26 36q0 23 -12 42t-33 33q-23 15 -49 23q-29 9 -60 9q-71 0 -126 -28t-108 -84l-30 -34l1 -4q12 -3 26 -3h273zM13 296l-1 1q-10 21 -10 39q0 22 9 42q9 19 24 34q16 16 36 23q22 8 44 8q67 0 67 -69v-31h-45v7
q0 23 -34 23q-23 0 -39 -10t-16 -24q0 -12 11 -23t30 -20h110v-68h-218v68h32z" />
    <glyph glyph-name="uni06360626.fina" unicode="&#xfec0;&#xfe8a;" horiz-adv-x="1466" 
d="M1364 159l-9 2q48 -14 102 -14v-120l-25 -25q-75 0 -143 54q-30 -26 -69 -39q-40 -14 -86 -14h-262q-56 0 -93 28q-37 29 -75 96l-25 45q-20 35 -48 50q-29 15 -66 15q-32 0 -62 -6q-29 -6 -53 -17q-22 -10 -36 -24t-14 -28q0 -17 20 -28q20 -10 66 -18l75 -14
q42 -8 72 -18q30 -11 49 -28t28 -42q9 -24 9 -57q0 -60 -23 -109q-22 -48 -66 -81q-45 -34 -105 -50q-63 -17 -141 -17q-170 0 -261 75t-91 220q0 47 6 93q6 43 17 84h83v-8q-7 -28 -12 -62q-4 -29 -4 -65q0 -91 69 -135q68 -43 218 -43q48 0 96 5q43 4 75 12t48 18
q17 11 17 24q0 14 -19 21q-20 7 -75 18l-75 13q-80 13 -118 47q-37 33 -37 96q0 51 24 99q25 50 64 86q41 38 93 60q54 23 111 23q47 0 87 -23q39 -23 68 -74l29 -54q11 -22 21 -36l77 90q37 43 66 71q33 31 63 50q33 21 64 29q33 9 70 9q45 0 84 -18q40 -18 68 -48t45 -71
q17 -42 17 -85q0 -30 -8 -62zM1169 147v-1q65 0 92 11q26 11 26 36q0 23 -12 42t-33 33q-23 15 -49 23q-29 9 -60 9q-71 0 -126 -28t-108 -84l-30 -34l1 -4q12 -3 26 -3h273zM13 296l-1 1q-10 21 -10 39q0 22 9 42q9 19 24 34q16 16 36 23q22 8 44 8q67 0 67 -69v-31h-45v7
q0 23 -34 23q-23 0 -39 -10t-16 -24q0 -12 11 -23t30 -20h110v-68h-218v68h32zM1114 669l73 -71l-73 -71h-10l-73 71l73 71h10z" />
    <glyph glyph-name="uni06430626" unicode="&#xfedb;&#xfe8a;" horiz-adv-x="811" 
d="M396 -245l-2 -4q-177 0 -270 78t-93 230q0 49 6 99q6 47 17 89h83v-9q-7 -30 -12 -66q-4 -32 -4 -70q0 -97 69 -142t218 -45q59 0 99 4q44 4 76 12q31 7 48 18t17 24q0 9 -6 16q-5 7 -23 13q-19 7 -45 11q-28 4 -74 9l-99 12v139l4 6l107 -11q72 -8 101 0t29 32
q0 17 -18 35q-19 19 -64 51l-174 116v145l433 206h10v-126l-316 -150l47 -39q40 -32 73 -63q28 -27 49 -54q20 -25 27 -51q8 -27 8 -52q0 -38 -15 -66q-15 -29 -55 -54v-3q42 -19 60 -48t18 -66q0 -109 -83 -168q-82 -58 -246 -58zM20 372l-1 1q-10 21 -10 39q0 22 9 42
q9 19 24 34q16 16 36 23q22 8 44 8q67 0 67 -69v-31h-45v7q0 23 -34 23q-23 0 -39 -10t-16 -24q0 -12 11 -23t30 -20h110v-68h-218v68h32z" />
    <glyph glyph-name="uni06A9064A" unicode="&#xfb90;&#xfef2;" horiz-adv-x="811" 
d="M396 -245l-2 -4q-177 0 -270 78t-93 230q0 49 6 99q6 47 17 89h83v-9q-7 -30 -12 -66q-4 -32 -4 -70q0 -97 69 -142t218 -45q59 0 99 4q44 4 76 12q31 7 48 18t17 24q0 9 -6 16q-5 7 -23 13q-19 7 -45 11q-28 4 -74 9l-99 12v139l4 6l107 -11q72 -8 101 0t29 32
q0 17 -18 35q-19 19 -64 51l-174 116v145l433 206h10v-126l-316 -150l47 -39q40 -32 73 -63q28 -27 49 -54q20 -25 27 -51q8 -27 8 -52q0 -38 -15 -66q-15 -29 -55 -54v-3q42 -19 60 -48t18 -66q0 -109 -83 -168q-82 -58 -246 -58zM464 -471h-10l-60 59l-60 -59h-10l-73 71
l73 71h10l60 -59l60 59h10l73 -71z" />
    <glyph glyph-name="uni06AF0649" unicode="&#xfb94;&#xfef0;" horiz-adv-x="811" 
d="M396 -245l-2 -4q-177 0 -270 78t-93 230q0 49 6 99q6 47 17 89h83v-9q-7 -30 -12 -66q-4 -32 -4 -70q0 -97 69 -142t218 -45q59 0 99 4q44 4 76 12q31 7 48 18t17 24q0 9 -6 16q-5 7 -23 13q-19 7 -45 11q-28 4 -74 9l-99 12v139l4 6l107 -11q72 -8 101 0t29 32
q0 17 -18 35q-19 19 -64 51l-174 116v145l433 206h10v-126l-316 -150l47 -39q40 -32 73 -63q28 -27 49 -54q20 -25 27 -51q8 -27 8 -52q0 -38 -15 -66q-15 -29 -55 -54v-3q42 -19 60 -48t18 -66q0 -109 -83 -168q-82 -58 -246 -58zM386 655l435 207h8v-58l-435 -206h-8v57z
" />
    <glyph glyph-name="uni06AF064A" unicode="&#xfb94;&#xfef2;" horiz-adv-x="811" 
d="M396 -245l-2 -4q-177 0 -270 78t-93 230q0 49 6 99q6 47 17 89h83v-9q-7 -30 -12 -66q-4 -32 -4 -70q0 -97 69 -142t218 -45q59 0 99 4q44 4 76 12q31 7 48 18t17 24q0 9 -6 16q-5 7 -23 13q-19 7 -45 11q-28 4 -74 9l-99 12v139l4 6l107 -11q72 -8 101 0t29 32
q0 17 -18 35q-19 19 -64 51l-174 116v145l433 206h10v-126l-316 -150l47 -39q40 -32 73 -63q28 -27 49 -54q20 -25 27 -51q8 -27 8 -52q0 -38 -15 -66q-15 -29 -55 -54v-3q42 -19 60 -48t18 -66q0 -109 -83 -168q-82 -58 -246 -58zM464 -471h-10l-60 59l-60 -59h-10l-73 71
l73 71h10l60 -59l60 59h10l73 -71zM386 655l435 207h8v-58l-435 -206h-8v57z" />
    <glyph glyph-name="uni06AF0626" unicode="&#xfb94;&#xfe8a;" horiz-adv-x="811" 
d="M396 -245l-2 -4q-177 0 -270 78t-93 230q0 49 6 99q6 47 17 89h83v-9q-7 -30 -12 -66q-4 -32 -4 -70q0 -97 69 -142t218 -45q59 0 99 4q44 4 76 12q31 7 48 18t17 24q0 9 -6 16q-5 7 -23 13q-19 7 -45 11q-28 4 -74 9l-99 12v139l4 6l107 -11q72 -8 101 0t29 32
q0 17 -18 35q-19 19 -64 51l-174 116v145l433 206h10v-126l-316 -150l47 -39q40 -32 73 -63q28 -27 49 -54q20 -25 27 -51q8 -27 8 -52q0 -38 -15 -66q-15 -29 -55 -54v-3q42 -19 60 -48t18 -66q0 -109 -83 -168q-82 -58 -246 -58zM20 372l-1 1q-10 21 -10 39q0 22 9 42
q9 19 24 34q16 16 36 23q22 8 44 8q67 0 67 -69v-31h-45v7q0 23 -34 23q-23 0 -39 -10t-16 -24q0 -12 11 -23t30 -20h110v-68h-218v68h32zM385 656l435 207h8v-58l-435 -206h-8v57z" />
    <glyph glyph-name="uni06430626.fina" unicode="&#xfedc;&#xfe8a;" horiz-adv-x="1053" 
d="M712 469l172 -233q20 -27 36 -45q16 -17 35 -30q17 -11 37 -16q22 -5 43 -5h15v-119l-25 -26q-30 0 -54 6t-48 21t-48 39q-22 22 -54 62q-21 -88 -99 -115q2 -6 2 -11v-13q0 -56 -22 -99t-64 -73t-103 -45q-62 -15 -139 -15q-177 0 -270 78t-93 230q0 50 6 99q6 47 17 89
h83v-9q-7 -30 -12 -66q-4 -32 -4 -70q0 -97 69 -142t218 -45q110 0 174 15q65 15 65 41q0 11 -6 17q-7 7 -23 11t-45 9q-38 6 -74 12l-99 13v139l4 6l97 -14q12 -2 34 -5t31 -5q27 -4 47 -6q19 -1 33 -3q9 -1 24 -1q42 0 65 12q22 12 33 38l-155 209v145l433 206h10v-126z
M19 371l-1 1q-10 21 -10 39q0 23 9 42t24 34q16 16 36 23q22 8 44 8q67 0 67 -69v-31h-45v7q0 23 -34 23q-23 0 -39 -10t-16 -24q0 -12 11 -23t30 -20h110v-68h-218v68h32z" />
    <glyph glyph-name="uni06AF0649.fina" unicode="&#xfb95;&#xfef0;" horiz-adv-x="1053" 
d="M712 469l172 -233q20 -27 36 -45q16 -17 35 -30q17 -11 37 -16q22 -5 43 -5h15v-119l-25 -26q-30 0 -54 6t-48 21t-48 39q-22 22 -54 62q-21 -88 -99 -115q2 -6 2 -11v-13q0 -56 -22 -99t-64 -73t-103 -45q-62 -15 -139 -15q-177 0 -270 78t-93 230q0 50 6 99q6 47 17 89
h83v-9q-7 -30 -12 -66q-4 -32 -4 -70q0 -97 69 -142t218 -45q110 0 174 15q65 15 65 41q0 11 -6 17q-7 7 -23 11t-45 9q-38 6 -74 12l-99 13v139l4 6l97 -14q12 -2 34 -5t31 -5q27 -4 47 -6q19 -1 33 -3q9 -1 24 -1q42 0 65 12q22 12 33 38l-155 209v145l433 206h10v-126z
M612 654l435 207h8v-58l-435 -206h-8v57z" />
    <glyph glyph-name="uni06AF064A.fina" unicode="&#xfb95;&#xfef2;" horiz-adv-x="1053" 
d="M712 469l172 -233q20 -27 36 -45q16 -17 35 -30q17 -11 37 -16q22 -5 43 -5h15v-119l-25 -26q-30 0 -54 6t-48 21t-48 39q-22 22 -54 62q-21 -88 -99 -115q2 -6 2 -11v-13q0 -56 -22 -99t-64 -73t-103 -45q-62 -15 -139 -15q-177 0 -270 78t-93 230q0 50 6 99q6 47 17 89
h83v-9q-7 -30 -12 -66q-4 -32 -4 -70q0 -97 69 -142t218 -45q110 0 174 15q65 15 65 41q0 11 -6 17q-7 7 -23 11t-45 9q-38 6 -74 12l-99 13v139l4 6l97 -14q12 -2 34 -5t31 -5q27 -4 47 -6q19 -1 33 -3q9 -1 24 -1q42 0 65 12q22 12 33 38l-155 209v145l433 206h10v-126z
M463 -472h-10l-60 59l-60 -59h-10l-73 71l73 71h10l60 -59l60 59h10l73 -71zM612 654l435 207h8v-58l-435 -206h-8v57z" />
    <glyph glyph-name="uni06AF0626.fina" unicode="&#xfb95;&#xfe8a;" horiz-adv-x="1053" 
d="M712 469l172 -233q20 -27 36 -45q16 -17 35 -30q17 -11 37 -16q22 -5 43 -5h15v-119l-25 -26q-30 0 -54 6t-48 21t-48 39q-22 22 -54 62q-21 -88 -99 -115q2 -6 2 -11v-13q0 -56 -22 -99t-64 -73t-103 -45q-62 -15 -139 -15q-177 0 -270 78t-93 230q0 50 6 99q6 47 17 89
h83v-9q-7 -30 -12 -66q-4 -32 -4 -70q0 -97 69 -142t218 -45q110 0 174 15q65 15 65 41q0 11 -6 17q-7 7 -23 11t-45 9q-38 6 -74 12l-99 13v139l4 6l97 -14q12 -2 34 -5t31 -5q27 -4 47 -6q19 -1 33 -3q9 -1 24 -1q42 0 65 12q22 12 33 38l-155 209v145l433 206h10v-126z
M19 371l-1 1q-10 21 -10 39q0 23 9 42t24 34q16 16 36 23q22 8 44 8q67 0 67 -69v-31h-45v7q0 23 -34 23q-23 0 -39 -10t-16 -24q0 -12 11 -23t30 -20h110v-68h-218v68h32zM611 655l435 207h8v-58l-435 -206h-8v57z" />
    <glyph glyph-name="uni06440626" unicode="&#xfedf;&#xfe8a;" horiz-adv-x="791" 
d="M635 104l-3 -10q51 -20 71 -50q20 -31 20 -71q0 -54 -22 -95q-23 -43 -64 -72q-42 -30 -103 -45q-62 -15 -139 -15q-177 0 -270 78t-93 230q0 50 6 99q6 47 17 89h83v-9q-8 -30 -12 -66q-4 -32 -4 -70q0 -97 69 -142t218 -45q49 0 99 5q44 4 76 12q30 7 48 20
q17 12 17 27q0 10 -6 18t-23 14q-19 7 -45 11q-28 4 -74 9l-99 7v139l4 5l92 -6q52 -3 72 16q21 20 21 64v492h108v-492q0 -48 -13 -81q-14 -34 -51 -63v-3zM19 366l-1 1q-10 21 -10 39q0 22 9 42q9 19 24 34q16 16 36 23q22 8 44 8q67 0 67 -69v-31h-45v7q0 23 -34 23
q-23 0 -39 -10t-16 -24q0 -12 11 -23t30 -20h110v-68h-218v68h32z" />
    <glyph glyph-name="uni06440626.fina" unicode="&#xfee0;&#xfe8a;" horiz-adv-x="976" 
d="M976 25l-25 -30h-1q-62 0 -103 21q-40 21 -60 68q-23 -50 -63 -72q3 -13 3 -29q0 -112 -83 -172q-82 -60 -246 -60q-177 0 -270 78t-93 230q0 49 6 99q6 47 17 89h83v-9q-7 -30 -12 -66q-4 -32 -4 -70q0 -97 69 -142t218 -45q110 0 174 15q65 15 65 41q0 11 -6 17
q-7 6 -23 11t-45 9q-38 6 -74 12l-99 13v139l4 6l97 -14q59 -10 98 -15q33 -4 68 -4q27 0 54 5q24 4 44 17q-3 24 -3 53v524h108v-514q0 -46 23 -66q22 -19 78 -19h1v-120zM22 371l-1 1q-10 21 -10 39q0 23 9 42t24 34q16 16 36 23q22 8 44 8q67 0 67 -69v-31h-45v7
q0 23 -34 23q-23 0 -39 -10t-16 -24q0 -12 11 -23t30 -20h110v-68h-218v68h32z" />
    <glyph glyph-name="uni06280626" unicode="&#xfe91;&#xfe8a;" horiz-adv-x="757" 
d="M396 -151l-4 -7q-177 0 -270 78t-93 230q0 50 6 99q6 47 17 89h83v-9q-7 -30 -12 -66q-4 -32 -4 -70q0 -97 69 -142t218 -45q49 0 99 5q44 4 76 12q30 7 48 20q17 12 17 27q0 10 -6 17q-6 8 -23 14q-19 7 -45 11q-28 4 -74 9l-99 7v139l4 5l97 -6q57 -4 80 14t23 56
q0 28 -6 72t-18 99l5 5h96q10 -56 14 -93q5 -48 5 -78q0 -45 -12 -78t-40 -55v-3q39 -21 58 -52t19 -72q0 -54 -22 -97t-64 -73q-41 -29 -103 -46q-60 -16 -139 -16zM678 -183l73 -71l-73 -71h-10l-73 71l73 71h10zM18 463l-1 1q-10 21 -10 39q0 23 9 42t24 34q16 16 36 23
q22 8 44 8q67 0 67 -69v-31h-45v7q0 23 -34 23q-23 0 -39 -10t-16 -24q0 -12 11 -23t30 -20h110v-68h-218v68h32z" />
    <glyph glyph-name="uni067E0649" unicode="&#xfb58;&#xfef0;" horiz-adv-x="757" 
d="M396 -151l-4 -7q-177 0 -270 78t-93 230q0 50 6 99q6 47 17 89h83v-9q-7 -30 -12 -66q-4 -32 -4 -70q0 -97 69 -142t218 -45q49 0 99 5q44 4 76 12q30 7 48 20q17 12 17 27q0 10 -6 17q-6 8 -23 14q-19 7 -45 11q-28 4 -74 9l-99 7v139l4 5l97 -6q57 -4 80 14t23 56
q0 28 -6 72t-18 99l5 5h96q10 -56 14 -93q5 -48 5 -78q0 -45 -12 -78t-40 -55v-3q39 -21 58 -52t19 -72q0 -54 -22 -97t-64 -73q-41 -29 -103 -46q-60 -16 -139 -16zM534 -209l70 69h10l58 -57l59 57h9l71 -69l-71 -69h-9l-59 57l-58 -57h-10zM745 -333l-68 -66h-10l-67 66
l67 66h10z" />
    <glyph glyph-name="uni067E064A" unicode="&#xfb58;&#xfef2;" horiz-adv-x="757" 
d="M396 -151l-4 -7q-177 0 -270 78t-93 230q0 50 6 99q6 47 17 89h83v-9q-7 -30 -12 -66q-4 -32 -4 -70q0 -97 69 -142t218 -45q49 0 99 5q44 4 76 12q30 7 48 20q17 12 17 27q0 10 -6 17q-6 8 -23 14q-19 7 -45 11q-28 4 -74 9l-99 7v139l4 5l97 -6q57 -4 80 14t23 56
q0 28 -6 72t-18 99l5 5h96q10 -56 14 -93q5 -48 5 -78q0 -45 -12 -78t-40 -55v-3q39 -21 58 -52t19 -72q0 -54 -22 -97t-64 -73q-41 -29 -103 -46q-60 -16 -139 -16zM534 -209l70 69h10l58 -57l59 57h9l71 -69l-71 -69h-9l-59 57l-58 -57h-10zM745 -333l-68 -66h-10l-67 66
l67 66h10zM467 -380h-10l-60 59l-60 -59h-10l-73 71l73 71h10l60 -59l60 59h10l73 -71z" />
    <glyph glyph-name="uni067E0626" unicode="&#xfb58;&#xfe8a;" horiz-adv-x="757" 
d="M396 -151l-4 -7q-177 0 -270 78t-93 230q0 50 6 99q6 47 17 89h83v-9q-7 -30 -12 -66q-4 -32 -4 -70q0 -97 69 -142t218 -45q49 0 99 5q44 4 76 12q30 7 48 20q17 12 17 27q0 10 -6 17q-6 8 -23 14q-19 7 -45 11q-28 4 -74 9l-99 7v139l4 5l97 -6q57 -4 80 14t23 56
q0 28 -6 72t-18 99l5 5h96q10 -56 14 -93q5 -48 5 -78q0 -45 -12 -78t-40 -55v-3q39 -21 58 -52t19 -72q0 -54 -22 -97t-64 -73q-41 -29 -103 -46q-60 -16 -139 -16zM534 -209l70 69h10l58 -57l59 57h9l71 -69l-71 -69h-9l-59 57l-58 -57h-10zM745 -333l-68 -66h-10l-67 66
l67 66h10zM18 463l-1 1q-10 21 -10 39q0 23 9 42t24 34q16 16 36 23q22 8 44 8q67 0 67 -69v-31h-45v7q0 23 -34 23q-23 0 -39 -10t-16 -24q0 -12 11 -23t30 -20h110v-68h-218v68h32z" />
    <glyph glyph-name="uni062A0626" unicode="&#xfe97;&#xfe8a;" horiz-adv-x="757" 
d="M396 -151l-4 -7q-177 0 -270 78t-93 230q0 50 6 99q6 47 17 89h83v-9q-7 -30 -12 -66q-4 -32 -4 -70q0 -97 69 -142t218 -45q49 0 99 5q44 4 76 12q30 7 48 20q17 12 17 27q0 10 -6 17q-6 8 -23 14q-19 7 -45 11q-28 4 -74 9l-99 7v139l4 5l97 -6q57 -4 80 14t23 56
q0 28 -6 72t-18 99l5 5h96q10 -56 14 -93q5 -48 5 -78q0 -45 -12 -78t-40 -55v-3q39 -21 58 -52t19 -72q0 -54 -22 -97t-64 -73q-41 -29 -103 -46q-60 -16 -139 -16zM686 588h-10l-60 59l-60 -59h-10l-73 71l73 71h10l60 -59l60 59h10l73 -71zM18 463l-1 1q-10 21 -10 39
q0 23 9 42t24 34q16 16 36 23q22 8 44 8q67 0 67 -69v-31h-45v7q0 23 -34 23q-23 0 -39 -10t-16 -24q0 -12 11 -23t30 -20h110v-68h-218v68h32z" />
    <glyph glyph-name="uni062B0626" unicode="&#xfe9b;&#xfe8a;" horiz-adv-x="757" 
d="M396 -151l-4 -7q-177 0 -270 78t-93 230q0 50 6 99q6 47 17 89h83v-9q-7 -30 -12 -66q-4 -32 -4 -70q0 -97 69 -142t218 -45q49 0 99 5q44 4 76 12q30 7 48 20q17 12 17 27q0 10 -6 17q-6 8 -23 14q-19 7 -45 11q-28 4 -74 9l-99 7v139l4 5l97 -6q57 -4 80 14t23 56
q0 28 -6 72t-18 99l5 5h96q10 -56 14 -93q5 -48 5 -78q0 -45 -12 -78t-40 -55v-3q39 -21 58 -52t19 -72q0 -54 -22 -97t-64 -73q-41 -29 -103 -46q-60 -16 -139 -16zM542 786l69 68h10l70 -68l-70 -68h-10zM686 588h-10l-60 59l-60 -59h-10l-73 71l73 71h10l60 -59l60 59h10
l73 -71zM18 463l-1 1q-10 21 -10 39q0 23 9 42t24 34q16 16 36 23q22 8 44 8q67 0 67 -69v-31h-45v7q0 23 -34 23q-23 0 -39 -10t-16 -24q0 -12 11 -23t30 -20h110v-68h-218v68h32z" />
    <glyph glyph-name="uni06460626" unicode="&#xfee7;&#xfe8a;" horiz-adv-x="757" 
d="M396 -151l-4 -7q-177 0 -270 78t-93 230q0 50 6 99q6 47 17 89h83v-9q-7 -30 -12 -66q-4 -32 -4 -70q0 -97 69 -142t218 -45q49 0 99 5q44 4 76 12q30 7 48 20q17 12 17 27q0 10 -6 17q-6 8 -23 14q-19 7 -45 11q-28 4 -74 9l-99 7v139l4 5l97 -6q57 -4 80 14t23 56
q0 28 -6 72t-18 99l5 5h96q10 -56 14 -93q5 -48 5 -78q0 -45 -12 -78t-40 -55v-3q39 -21 58 -52t19 -72q0 -54 -22 -97t-64 -73q-41 -29 -103 -46q-60 -16 -139 -16zM621 730l73 -71l-73 -71h-10l-73 71l73 71h10zM18 463l-1 1q-10 21 -10 39q0 23 9 42t24 34q16 16 36 23
q22 8 44 8q67 0 67 -69v-31h-45v7q0 23 -34 23q-23 0 -39 -10t-16 -24q0 -12 11 -23t30 -20h110v-68h-218v68h32z" />
    <glyph glyph-name="uni064A0626" unicode="&#xfef3;&#xfe8a;" horiz-adv-x="757" 
d="M396 -151l-4 -7q-177 0 -270 78t-93 230q0 50 6 99q6 47 17 89h83v-9q-7 -30 -12 -66q-4 -32 -4 -70q0 -97 69 -142t218 -45q49 0 99 5q44 4 76 12q30 7 48 20q17 12 17 27q0 10 -6 17q-6 8 -23 14q-19 7 -45 11q-28 4 -74 9l-99 7v139l4 5l97 -6q57 -4 80 14t23 56
q0 28 -6 72t-18 99l5 5h96q10 -56 14 -93q5 -48 5 -78q0 -45 -12 -78t-40 -55v-3q39 -21 58 -52t19 -72q0 -54 -22 -97t-64 -73q-41 -29 -103 -46q-60 -16 -139 -16zM18 463l-1 1q-10 21 -10 39q0 23 9 42t24 34q16 16 36 23q22 8 44 8q67 0 67 -69v-31h-45v7q0 23 -34 23
q-23 0 -39 -10t-16 -24q0 -12 11 -23t30 -20h110v-68h-218v68h32zM742 -324h-10l-60 59l-60 -59h-10l-73 71l73 71h10l60 -59l60 59h10l73 -71z" />
    <glyph glyph-name="uni06260626" unicode="&#xfe8b;&#xfe8a;" horiz-adv-x="757" 
d="M396 -151l-4 -7q-177 0 -270 78t-93 230q0 50 6 99q6 47 17 89h83v-9q-7 -30 -12 -66q-4 -32 -4 -70q0 -97 69 -142t218 -45q49 0 99 5q44 4 76 12q30 7 48 20q17 12 17 27q0 10 -6 17q-6 8 -23 14q-19 7 -45 11q-28 4 -74 9l-99 7v139l4 5l97 -6q57 -4 80 14t23 56
q0 28 -6 72t-18 99l5 5h96q10 -56 14 -93q5 -48 5 -78q0 -45 -12 -78t-40 -55v-3q39 -21 58 -52t19 -72q0 -54 -22 -97t-64 -73q-41 -29 -103 -46q-60 -16 -139 -16zM539 634l-1 1q-10 21 -10 39q0 22 9 42q9 19 24 34q16 16 36 23q22 8 44 8q67 0 67 -69v-31h-45v7
q0 23 -34 23q-23 0 -39 -10t-16 -24q0 -12 11 -23t30 -20h110v-68h-218v68h32zM466 -379h-10l-60 59l-60 -59h-10l-73 71l73 71h10l60 -59l60 59h10l73 -71z" />
    <glyph glyph-name="uni06CC06CC" unicode="&#xfbfe;&#xfbfd;" horiz-adv-x="757" 
d="M396 -151l-4 -7q-177 0 -270 78t-93 230q0 50 6 99q6 47 17 89h83v-9q-7 -30 -12 -66q-4 -32 -4 -70q0 -97 69 -142t218 -45q49 0 99 5q44 4 76 12q30 7 48 20q17 12 17 27q0 10 -6 17q-6 8 -23 14q-19 7 -45 11q-28 4 -74 9l-99 7v139l4 5l97 -6q57 -4 80 14t23 56
q0 28 -6 72t-18 99l5 5h96q10 -56 14 -93q5 -48 5 -78q0 -45 -12 -78t-40 -55v-3q39 -21 58 -52t19 -72q0 -54 -22 -97t-64 -73q-41 -29 -103 -46q-60 -16 -139 -16zM743 -325h-10l-60 59l-60 -59h-10l-73 71l73 71h10l60 -59l60 59h10l73 -71z" />
    <glyph glyph-name="uni06280626.fina" unicode="&#xfe92;&#xfe8a;" horiz-adv-x="911" 
d="M764 -253l73 -71l-73 -71h-10l-73 71l73 71h10zM22 295l-1 1q-10 21 -10 39q0 23 9 42t24 34q16 16 36 23q22 8 44 8q67 0 67 -69v-31h-45v7q0 23 -34 23q-23 0 -39 -10t-16 -24q0 -12 11 -23t30 -20h110v-68h-218v68h32zM385 -304h-6q-169 0 -261 75q-91 75 -91 220
q0 47 6 93q6 43 17 84h83v-8q-7 -28 -12 -62q-4 -29 -4 -65q0 -91 69 -135q68 -43 218 -43q48 0 96 5q44 4 75 12t48 18q17 11 17 24q0 14 -19 21t-75 18l-75 13q-80 13 -118 47q-37 33 -37 96q0 51 24 99q25 50 64 86q40 38 93 60q54 23 111 23q47 0 87 -23q39 -23 68 -74
l29 -54q11 -20 24 -40q9 -15 23 -25q10 -8 26 -13q12 -4 33 -4h6v-120l-25 -25h-6q-56 0 -93 28q-38 29 -75 96l-25 45q-20 35 -48 50t-66 15q-32 0 -62 -6q-29 -6 -53 -17q-23 -10 -36 -24q-14 -14 -14 -28q0 -17 20 -28q19 -10 66 -18l75 -14q42 -8 72 -18q30 -11 49 -28
t28 -42q9 -24 9 -57q0 -60 -23 -109q-23 -48 -66 -81q-45 -34 -105 -50q-63 -17 -141 -17z" />
    <glyph glyph-name="uni067E0649.fina" unicode="&#xfb59;&#xfef0;" horiz-adv-x="911" 
d="M620 -279l70 69h10l58 -57l59 57h9l71 -69l-71 -69h-9l-59 57l-58 -57h-10zM831 -403l-68 -66h-10l-67 66l67 66h10zM386 -305h-6q-170 0 -261 75t-91 220q0 46 6 93q6 43 17 84h83v-8q-7 -28 -12 -62q-4 -29 -4 -65q0 -92 69 -135q68 -43 218 -43q48 0 96 5q43 5 75 12
t48 18q17 11 17 24q0 14 -19 21q-20 8 -75 18l-75 13q-80 13 -118 47q-37 33 -37 96q0 51 24 99q25 50 64 86q41 37 93 60q54 23 111 23q47 0 87 -23q39 -23 68 -74l29 -54q11 -20 24 -40q9 -15 23 -25q10 -8 26 -13q12 -4 33 -4h6v-120l-25 -25h-6q-56 0 -93 28t-75 96
l-25 45q-20 35 -48 50q-29 15 -66 15q-32 0 -62 -6q-29 -6 -53 -17q-22 -11 -36 -24q-14 -14 -14 -28q0 -17 20 -28t66 -18l75 -14q42 -7 72 -18t49 -28t28 -42q9 -24 9 -57q0 -60 -23 -109q-22 -48 -66 -81q-45 -34 -105 -50q-63 -17 -141 -17z" />
    <glyph glyph-name="uni067E064A.fina" unicode="&#xfb59;&#xfef2;" horiz-adv-x="911" 
d="M620 -279l70 69h10l58 -57l59 57h9l71 -69l-71 -69h-9l-59 57l-58 -57h-10zM831 -403l-68 -66h-10l-67 66l67 66h10zM456 -527h-10l-60 59l-60 -59h-10l-73 71l73 71h10l60 -59l60 59h10l73 -71zM386 -305h-6q-170 0 -261 75t-91 220q0 46 6 93q6 43 17 84h83v-8
q-7 -28 -12 -62q-4 -29 -4 -65q0 -92 69 -135q68 -43 218 -43q48 0 96 5q43 5 75 12t48 18q17 11 17 24q0 14 -19 21q-20 8 -75 18l-75 13q-80 13 -118 47q-37 33 -37 96q0 51 24 99q25 50 64 86q41 37 93 60q54 23 111 23q47 0 87 -23q39 -23 68 -74l29 -54q11 -20 24 -40
q9 -15 23 -25q10 -8 26 -13q12 -4 33 -4h6v-120l-25 -25h-6q-56 0 -93 28t-75 96l-25 45q-20 35 -48 50q-29 15 -66 15q-32 0 -62 -6q-29 -6 -53 -17q-22 -11 -36 -24q-14 -14 -14 -28q0 -17 20 -28t66 -18l75 -14q42 -7 72 -18t49 -28t28 -42q9 -24 9 -57q0 -60 -23 -109
q-22 -48 -66 -81q-45 -34 -105 -50q-63 -17 -141 -17z" />
    <glyph glyph-name="uni067E0626.fina" unicode="&#xfb59;&#xfe8a;" horiz-adv-x="911" 
d="M620 -279l70 69h10l58 -57l59 57h9l71 -69l-71 -69h-9l-59 57l-58 -57h-10zM831 -403l-68 -66h-10l-67 66l67 66h10zM22 295l-1 1q-10 21 -10 39q0 23 9 42t24 34q16 16 36 23q22 8 44 8q67 0 67 -69v-31h-45v7q0 23 -34 23q-23 0 -39 -10t-16 -24q0 -12 11 -23t30 -20
h110v-68h-218v68h32zM385 -304h-6q-169 0 -261 75q-91 75 -91 220q0 47 6 93q6 43 17 84h83v-8q-7 -28 -12 -62q-4 -29 -4 -65q0 -91 69 -135q68 -43 218 -43q48 0 96 5q44 4 75 12t48 18q17 11 17 24q0 14 -19 21t-75 18l-75 13q-80 13 -118 47q-37 33 -37 96q0 51 24 99
q25 50 64 86q40 38 93 60q54 23 111 23q47 0 87 -23q39 -23 68 -74l29 -54q11 -20 24 -40q9 -15 23 -25q10 -8 26 -13q12 -4 33 -4h6v-120l-25 -25h-6q-56 0 -93 28q-38 29 -75 96l-25 45q-20 35 -48 50t-66 15q-32 0 -62 -6q-29 -6 -53 -17q-23 -10 -36 -24
q-14 -14 -14 -28q0 -17 20 -28q19 -10 66 -18l75 -14q42 -8 72 -18q30 -11 49 -28t28 -42q9 -24 9 -57q0 -60 -23 -109q-23 -48 -66 -81q-45 -34 -105 -50q-63 -17 -141 -17z" />
    <glyph glyph-name="uni062A0626.fina" unicode="&#xfe98;&#xfe8a;" horiz-adv-x="911" 
d="M684 460h-10l-60 59l-60 -59h-10l-73 71l73 71h10l60 -59l60 59h10l73 -71zM22 295l-1 1q-10 21 -10 39q0 23 9 42t24 34q16 16 36 23q22 8 44 8q67 0 67 -69v-31h-45v7q0 23 -34 23q-23 0 -39 -10t-16 -24q0 -12 11 -23t30 -20h110v-68h-218v68h32zM385 -304h-6
q-169 0 -261 75q-91 75 -91 220q0 47 6 93q6 43 17 84h83v-8q-7 -28 -12 -62q-4 -29 -4 -65q0 -91 69 -135q68 -43 218 -43q48 0 96 5q44 4 75 12t48 18q17 11 17 24q0 14 -19 21t-75 18l-75 13q-80 13 -118 47q-37 33 -37 96q0 51 24 99q25 50 64 86q40 38 93 60
q54 23 111 23q47 0 87 -23q39 -23 68 -74l29 -54q11 -20 24 -40q9 -15 23 -25q10 -8 26 -13q12 -4 33 -4h6v-120l-25 -25h-6q-56 0 -93 28q-38 29 -75 96l-25 45q-20 35 -48 50t-66 15q-32 0 -62 -6q-29 -6 -53 -17q-23 -10 -36 -24q-14 -14 -14 -28q0 -17 20 -28
q19 -10 66 -18l75 -14q42 -8 72 -18q30 -11 49 -28t28 -42q9 -24 9 -57q0 -60 -23 -109q-23 -48 -66 -81q-45 -34 -105 -50q-63 -17 -141 -17z" />
    <glyph glyph-name="uni062B0626.fina" unicode="&#xfe9c;&#xfe8a;" horiz-adv-x="911" 
d="M540 658l69 68h10l70 -68l-70 -68h-10zM684 460h-10l-60 59l-60 -59h-10l-73 71l73 71h10l60 -59l60 59h10l73 -71zM22 295l-1 1q-10 21 -10 39q0 23 9 42t24 34q16 16 36 23q22 8 44 8q67 0 67 -69v-31h-45v7q0 23 -34 23q-23 0 -39 -10t-16 -24q0 -12 11 -23t30 -20
h110v-68h-218v68h32zM385 -304h-6q-169 0 -261 75q-91 75 -91 220q0 47 6 93q6 43 17 84h83v-8q-7 -28 -12 -62q-4 -29 -4 -65q0 -91 69 -135q68 -43 218 -43q48 0 96 5q44 4 75 12t48 18q17 11 17 24q0 14 -19 21t-75 18l-75 13q-80 13 -118 47q-37 33 -37 96q0 51 24 99
q25 50 64 86q40 38 93 60q54 23 111 23q47 0 87 -23q39 -23 68 -74l29 -54q11 -20 24 -40q9 -15 23 -25q10 -8 26 -13q12 -4 33 -4h6v-120l-25 -25h-6q-56 0 -93 28q-38 29 -75 96l-25 45q-20 35 -48 50t-66 15q-32 0 -62 -6q-29 -6 -53 -17q-23 -10 -36 -24
q-14 -14 -14 -28q0 -17 20 -28q19 -10 66 -18l75 -14q42 -8 72 -18q30 -11 49 -28t28 -42q9 -24 9 -57q0 -60 -23 -109q-23 -48 -66 -81q-45 -34 -105 -50q-63 -17 -141 -17z" />
    <glyph glyph-name="uni06460626.fina" unicode="&#xfee8;&#xfe8a;" horiz-adv-x="911" 
d="M22 295l-1 1q-10 21 -10 39q0 23 9 42t24 34q16 16 36 23q22 8 44 8q67 0 67 -69v-31h-45v7q0 23 -34 23q-23 0 -39 -10t-16 -24q0 -12 11 -23t30 -20h110v-68h-218v68h32zM618 603l73 -71l-73 -71h-10l-73 71l73 71h10zM385 -304h-6q-169 0 -261 75q-91 75 -91 220
q0 47 6 93q6 43 17 84h83v-8q-7 -28 -12 -62q-4 -29 -4 -65q0 -91 69 -135q68 -43 218 -43q48 0 96 5q44 4 75 12t48 18q17 11 17 24q0 14 -19 21t-75 18l-75 13q-80 13 -118 47q-37 33 -37 96q0 51 24 99q25 50 64 86q40 38 93 60q54 23 111 23q47 0 87 -23q39 -23 68 -74
l29 -54q11 -20 24 -40q9 -15 23 -25q10 -8 26 -13q12 -4 33 -4h6v-120l-25 -25h-6q-56 0 -93 28q-38 29 -75 96l-25 45q-20 35 -48 50t-66 15q-32 0 -62 -6q-29 -6 -53 -17q-23 -10 -36 -24q-14 -14 -14 -28q0 -17 20 -28q19 -10 66 -18l75 -14q42 -8 72 -18q30 -11 49 -28
t28 -42q9 -24 9 -57q0 -60 -23 -109q-23 -48 -66 -81q-45 -34 -105 -50q-63 -17 -141 -17z" />
    <glyph glyph-name="uni064A0626.fina" unicode="&#xfef4;&#xfe8a;" horiz-adv-x="911" 
d="M22 295l-1 1q-10 21 -10 39q0 23 9 42t24 34q16 16 36 23q22 8 44 8q67 0 67 -69v-31h-45v7q0 23 -34 23q-23 0 -39 -10t-16 -24q0 -12 11 -23t30 -20h110v-68h-218v68h32zM828 -394h-10l-60 59l-60 -59h-10l-73 71l73 71h10l60 -59l60 59h10l73 -71zM385 -304h-6
q-169 0 -261 75q-91 75 -91 220q0 47 6 93q6 43 17 84h83v-8q-7 -28 -12 -62q-4 -29 -4 -65q0 -91 69 -135q68 -43 218 -43q48 0 96 5q44 4 75 12t48 18q17 11 17 24q0 14 -19 21t-75 18l-75 13q-80 13 -118 47q-37 33 -37 96q0 51 24 99q25 50 64 86q40 38 93 60
q54 23 111 23q47 0 87 -23q39 -23 68 -74l29 -54q11 -20 24 -40q9 -15 23 -25q10 -8 26 -13q12 -4 33 -4h6v-120l-25 -25h-6q-56 0 -93 28q-38 29 -75 96l-25 45q-20 35 -48 50t-66 15q-32 0 -62 -6q-29 -6 -53 -17q-23 -10 -36 -24q-14 -14 -14 -28q0 -17 20 -28
q19 -10 66 -18l75 -14q42 -8 72 -18q30 -11 49 -28t28 -42q9 -24 9 -57q0 -60 -23 -109q-23 -48 -66 -81q-45 -34 -105 -50q-63 -17 -141 -17z" />
    <glyph glyph-name="uni06260626.fina" unicode="&#xfe8c;&#xfe8a;" horiz-adv-x="911" 
d="M-107 295l-1 1q-10 21 -10 39q0 23 9 42t24 34q16 16 36 23q22 8 44 8q67 0 67 -69v-31h-45v7q0 23 -34 23q-23 0 -39 -10t-16 -24q0 -12 11 -23t30 -20h110v-68h-218v68h32zM407 507l-1 1q-10 21 -10 39q0 23 9 42t24 34q16 16 36 23q22 8 44 8q67 0 67 -69v-31h-45v7
q0 23 -34 23q-23 0 -39 -10t-16 -24q0 -12 11 -23t30 -20h110v-68h-218v68h32zM384 -303h-6q-170 0 -261 75t-91 220q0 46 6 93q6 43 17 84h83v-8q-7 -28 -12 -62q-4 -29 -4 -65q0 -92 69 -135q68 -43 218 -43q48 0 96 5q43 5 75 12t48 18q17 11 17 24q0 14 -19 21
q-20 8 -75 18l-75 13q-80 13 -118 47q-37 33 -37 96q0 51 24 99q25 50 64 86q41 37 93 60q54 23 111 23q47 0 87 -23q39 -23 68 -74l29 -54q11 -20 24 -40q9 -15 23 -25q10 -8 26 -13q12 -4 33 -4h6v-120l-25 -25h-6q-56 0 -93 28t-75 96l-25 45q-20 35 -48 50
q-29 15 -66 15q-32 0 -62 -6q-29 -6 -53 -17q-22 -11 -36 -24q-14 -14 -14 -28q0 -17 20 -28t66 -18l75 -14q42 -7 72 -18t49 -28t28 -42q9 -24 9 -57q0 -60 -23 -109q-22 -48 -66 -81q-45 -34 -105 -50q-63 -17 -141 -17z" />
    <glyph glyph-name="uni06CC06CC.fina" unicode="&#xfbff;&#xfbfd;" horiz-adv-x="911" 
d="M829 -395h-10l-60 59l-60 -59h-10l-73 71l73 71h10l60 -59l60 59h10l73 -71zM386 -305h-6q-170 0 -261 75t-91 220q0 46 6 93q6 43 17 84h83v-8q-7 -28 -12 -62q-4 -29 -4 -65q0 -92 69 -135q68 -43 218 -43q48 0 96 5q43 5 75 12t48 18q17 11 17 24q0 14 -19 21
q-20 8 -75 18l-75 13q-80 13 -118 47q-37 33 -37 96q0 51 24 99q25 50 64 86q41 37 93 60q54 23 111 23q47 0 87 -23q39 -23 68 -74l29 -54q11 -20 24 -40q9 -15 23 -25q10 -8 26 -13q12 -4 33 -4h6v-120l-25 -25h-6q-56 0 -93 28t-75 96l-25 45q-20 35 -48 50
q-29 15 -66 15q-32 0 -62 -6q-29 -6 -53 -17q-22 -11 -36 -24q-14 -14 -14 -28q0 -17 20 -28t66 -18l75 -14q42 -7 72 -18t49 -28t28 -42q9 -24 9 -57q0 -60 -23 -109q-22 -48 -66 -81q-45 -34 -105 -50q-63 -17 -141 -17z" />
    <glyph glyph-name="uni06410626" unicode="&#xfed3;&#xfe8a;" horiz-adv-x="771" 
d="M645 111l-6 -9q43 -19 63 -50q19 -29 19 -71q0 -53 -22 -94q-22 -42 -64 -70q-43 -29 -103 -44q-62 -15 -139 -15q-177 0 -270 78t-93 230q0 50 6 99q6 47 17 89h83v-9q-8 -30 -12 -66q-4 -32 -4 -70q0 -97 69 -142t218 -45q49 0 99 5q44 4 76 12q30 7 48 20q17 12 17 27
q0 10 -6 18t-23 14q-19 7 -45 11q-28 4 -74 9l-114 7v139l4 5l93 -5q45 -3 76 0q30 3 51 14q19 10 28 30q10 21 11 48l-3 2q-56 -35 -138 -35q-80 0 -126 35q-45 34 -45 107q0 44 15 86t42 75q27 32 62 54q35 21 74 21q43 0 79 -24q37 -25 62 -66q26 -43 41 -99
q15 -57 15 -121q0 -76 -18 -124t-63 -72v-4zM523 350l3 -3q27 0 54 3q18 2 54 8q-17 50 -52 84q-37 35 -85 35q-21 0 -36 -7q-17 -8 -28 -19q-12 -12 -18 -27t-6 -28q0 -26 27 -36q26 -10 87 -10zM19 374l-1 1q-10 21 -10 39q0 22 9 42q9 19 24 34q16 16 36 23q22 8 44 8
q67 0 67 -69v-31h-45v7q0 23 -34 23q-23 0 -39 -10t-16 -24q0 -12 11 -23t30 -20h110v-68h-218v68h32zM521 834l73 -71l-73 -71h-10l-73 71l73 71h10z" />
    <glyph glyph-name="uni06A40649" unicode="&#xfb6c;&#xfef0;" horiz-adv-x="771" 
d="M645 111l-6 -9q43 -19 63 -50q19 -29 19 -71q0 -53 -22 -94q-22 -42 -64 -70q-43 -29 -103 -44q-62 -15 -139 -15q-177 0 -270 78t-93 230q0 50 6 99q6 47 17 89h83v-9q-8 -30 -12 -66q-4 -32 -4 -70q0 -97 69 -142t218 -45q49 0 99 5q44 4 76 12q30 7 48 20q17 12 17 27
q0 10 -6 18t-23 14q-19 7 -45 11q-28 4 -74 9l-114 7v139l4 5l93 -5q45 -3 76 0q30 3 51 14q19 10 28 30q10 21 11 48l-3 2q-56 -35 -138 -35q-80 0 -126 35q-45 34 -45 107q0 44 15 86t42 75q27 32 62 54q35 21 74 21q43 0 79 -24q37 -25 62 -66q26 -43 41 -99
q15 -57 15 -121q0 -76 -18 -124t-63 -72v-4zM523 350l3 -3q27 0 54 3q18 2 54 8q-17 50 -52 84q-37 35 -85 35q-21 0 -36 -7q-17 -8 -28 -19q-12 -12 -18 -27t-6 -28q0 -26 27 -36q26 -10 87 -10zM443 889l69 68h10l70 -68l-70 -68h-10zM587 691h-10l-60 59l-60 -59h-10
l-73 71l73 71h10l60 -59l60 59h10l73 -71z" />
    <glyph glyph-name="uni06A4064A" unicode="&#xfb6c;&#xfef2;" horiz-adv-x="771" 
d="M645 111l-6 -9q43 -19 63 -50q19 -29 19 -71q0 -53 -22 -94q-22 -42 -64 -70q-43 -29 -103 -44q-62 -15 -139 -15q-177 0 -270 78t-93 230q0 50 6 99q6 47 17 89h83v-9q-8 -30 -12 -66q-4 -32 -4 -70q0 -97 69 -142t218 -45q49 0 99 5q44 4 76 12q30 7 48 20q17 12 17 27
q0 10 -6 18t-23 14q-19 7 -45 11q-28 4 -74 9l-114 7v139l4 5l93 -5q45 -3 76 0q30 3 51 14q19 10 28 30q10 21 11 48l-3 2q-56 -35 -138 -35q-80 0 -126 35q-45 34 -45 107q0 44 15 86t42 75q27 32 62 54q35 21 74 21q43 0 79 -24q37 -25 62 -66q26 -43 41 -99
q15 -57 15 -121q0 -76 -18 -124t-63 -72v-4zM523 350l3 -3q27 0 54 3q18 2 54 8q-17 50 -52 84q-37 35 -85 35q-21 0 -36 -7q-17 -8 -28 -19q-12 -12 -18 -27t-6 -28q0 -26 27 -36q26 -10 87 -10zM473 -469h-10l-60 59l-60 -59h-10l-73 71l73 71h10l60 -59l60 59h10l73 -71z
M443 889l69 68h10l70 -68l-70 -68h-10zM587 691h-10l-60 59l-60 -59h-10l-73 71l73 71h10l60 -59l60 59h10l73 -71z" />
    <glyph glyph-name="uni06A40626" unicode="&#xfb6c;&#xfe8a;" horiz-adv-x="771" 
d="M645 111l-6 -9q43 -19 63 -50q19 -29 19 -71q0 -53 -22 -94q-22 -42 -64 -70q-43 -29 -103 -44q-62 -15 -139 -15q-177 0 -270 78t-93 230q0 50 6 99q6 47 17 89h83v-9q-8 -30 -12 -66q-4 -32 -4 -70q0 -97 69 -142t218 -45q49 0 99 5q44 4 76 12q30 7 48 20q17 12 17 27
q0 10 -6 18t-23 14q-19 7 -45 11q-28 4 -74 9l-114 7v139l4 5l93 -5q45 -3 76 0q30 3 51 14q19 10 28 30q10 21 11 48l-3 2q-56 -35 -138 -35q-80 0 -126 35q-45 34 -45 107q0 44 15 86t42 75q27 32 62 54q35 21 74 21q43 0 79 -24q37 -25 62 -66q26 -43 41 -99
q15 -57 15 -121q0 -76 -18 -124t-63 -72v-4zM523 350l3 -3q27 0 54 3q18 2 54 8q-17 50 -52 84q-37 35 -85 35q-21 0 -36 -7q-17 -8 -28 -19q-12 -12 -18 -27t-6 -28q0 -26 27 -36q26 -10 87 -10zM19 374l-1 1q-10 21 -10 39q0 22 9 42q9 19 24 34q16 16 36 23q22 8 44 8
q67 0 67 -69v-31h-45v7q0 23 -34 23q-23 0 -39 -10t-16 -24q0 -12 11 -23t30 -20h110v-68h-218v68h32zM442 890l69 68h10l70 -68l-70 -68h-10zM586 692h-10l-60 59l-60 -59h-10l-73 71l73 71h10l60 -59l60 59h10l73 -71z" />
    <glyph glyph-name="uni06420626" unicode="&#xfed7;&#xfe8a;" horiz-adv-x="771" 
d="M645 111l-6 -9q43 -19 63 -50q19 -29 19 -71q0 -53 -22 -94q-22 -42 -64 -70q-43 -29 -103 -44q-62 -15 -139 -15q-177 0 -270 78t-93 230q0 50 6 99q6 47 17 89h83v-9q-8 -30 -12 -66q-4 -32 -4 -70q0 -97 69 -142t218 -45q49 0 99 5q44 4 76 12q30 7 48 20q17 12 17 27
q0 10 -6 18t-23 14q-19 7 -45 11q-28 4 -74 9l-114 7v139l4 5l93 -5q45 -3 76 0q30 3 51 14q19 10 28 30q10 21 11 48l-3 2q-56 -35 -138 -35q-80 0 -126 35q-45 34 -45 107q0 44 15 86t42 75q27 32 62 54q35 21 74 21q43 0 79 -24q37 -25 62 -66q26 -43 41 -99
q15 -57 15 -121q0 -76 -18 -124t-63 -72v-4zM523 350l3 -3q27 0 54 3q18 2 54 8q-17 50 -52 84q-37 35 -85 35q-21 0 -36 -7q-17 -8 -28 -19q-12 -12 -18 -27t-6 -28q0 -26 27 -36q26 -10 87 -10zM587 691h-10l-60 59l-60 -59h-10l-73 71l73 71h10l60 -59l60 59h10l73 -71z
M19 374l-1 1q-10 21 -10 39q0 22 9 42q9 19 24 34q16 16 36 23q22 8 44 8q67 0 67 -69v-31h-45v7q0 23 -34 23q-23 0 -39 -10t-16 -24q0 -12 11 -23t30 -20h110v-68h-218v68h32z" />
    <glyph glyph-name="uni06490631.fina" unicode="&#x649;&#xfeae;" horiz-adv-x="633" 
d="M54 -255v3q-42 0 -82 20q-39 20 -72 54v83l9 7q60 -24 117 -24q35 0 65 15q29 15 52 42q23 28 35 65q12 38 12 84q0 42 -12 104q-11 59 -35 131l5 7h96l15 -58l170 27v61h91v-142q0 -44 26 -61q25 -16 87 -16h1v-120l-25 -25h-1q-77 0 -120 34q-44 35 -51 109l-3 14
l-154 -24q2 -12 2 -18v-17q0 -76 -18 -141t-49 -112q-31 -48 -72 -75q-40 -27 -89 -27z" />
    <glyph glyph-name="uni06490632.fina" unicode="&#x649;&#xfeb0;" horiz-adv-x="633" 
d="M54 -255v3q-42 0 -82 20q-39 20 -72 54v83l9 7q60 -24 117 -24q35 0 65 15q29 15 52 42q23 28 35 65q12 38 12 84q0 42 -12 104q-11 59 -35 131l5 7h96l15 -58l170 27v61h91v-142q0 -44 26 -61q25 -16 87 -16h1v-120l-25 -25h-1q-77 0 -120 34q-44 35 -51 109l-3 14
l-154 -24q2 -12 2 -18v-17q0 -76 -18 -141t-49 -112q-31 -48 -72 -75q-40 -27 -89 -27zM182 560l73 -71l-73 -71h-10l-73 71l73 71h10z" />
    <glyph glyph-name="uni067E0631.fina" unicode="&#xfb59;&#xfeae;" horiz-adv-x="633" 
d="M54 -255v3q-42 0 -82 20q-39 20 -72 54v83l9 7q60 -24 117 -24q35 0 65 15q29 15 52 42q23 28 35 65q12 38 12 84q0 42 -12 104q-11 59 -35 131l5 7h96l15 -58l170 27v61h91v-142q0 -44 26 -61q25 -16 87 -16h1v-120l-25 -25h-1q-77 0 -120 34q-44 35 -51 109l-3 14
l-154 -24q2 -12 2 -18v-17q0 -76 -18 -141t-49 -112q-31 -48 -72 -75q-40 -27 -89 -27zM336 -103l70 69h10l58 -57l59 57h9l71 -69l-71 -69h-9l-59 57l-58 -57h-10zM547 -227l-68 -66h-10l-67 66l67 66h10z" />
    <glyph glyph-name="uni067E0632.fina" unicode="&#xfb59;&#xfeb0;" horiz-adv-x="633" 
d="M54 -255v3q-42 0 -82 20q-39 20 -72 54v83l9 7q60 -24 117 -24q35 0 65 15q29 15 52 42q23 28 35 65q12 38 12 84q0 42 -12 104q-11 59 -35 131l5 7h96l15 -58l170 27v61h91v-142q0 -44 26 -61q25 -16 87 -16h1v-120l-25 -25h-1q-77 0 -120 34q-44 35 -51 109l-3 14
l-154 -24q2 -12 2 -18v-17q0 -76 -18 -141t-49 -112q-31 -48 -72 -75q-40 -27 -89 -27zM336 -103l70 69h10l58 -57l59 57h9l71 -69l-71 -69h-9l-59 57l-58 -57h-10zM547 -227l-68 -66h-10l-67 66l67 66h10zM182 560l73 -71l-73 -71h-10l-73 71l73 71h10z" />
    <glyph glyph-name="uni064906BA" unicode="&#x649;&#xfb9f;" horiz-adv-x="991" 
d="M331 -211l-4 2q-70 0 -127 20q-55 19 -93 56q-37 36 -57 89q-19 51 -19 117q0 48 6 90t18 84h83v-10q-8 -29 -12 -60q-4 -28 -4 -60q0 -79 54 -124t152 -45q106 0 159 36t53 105q0 46 -10 105q-12 68 -28 131l5 7h96l12 -58l169 27v61h91v-142q0 -44 26 -61
q25 -16 87 -16h1v-120l-25 -25h-1q-77 0 -120 34t-51 114l-1 10l-154 -26q2 -12 2 -18v-16q0 -73 -21 -130q-21 -58 -61 -96q-41 -39 -97 -60q-57 -21 -129 -21z" />
    <glyph glyph-name="uni06490646.fina" unicode="&#x649;&#xfee6;" horiz-adv-x="991" 
d="M331 -211l-4 2q-70 0 -127 20q-55 19 -93 56q-37 36 -57 89q-19 51 -19 117q0 48 6 90t18 84h83v-10q-8 -29 -12 -60q-4 -28 -4 -60q0 -79 54 -124t152 -45q106 0 159 36t53 105q0 46 -10 105q-12 68 -28 131l5 7h96l12 -58l169 27v61h91v-142q0 -44 26 -61
q25 -16 87 -16h1v-120l-25 -25h-1q-77 0 -120 34t-51 114l-1 10l-154 -26q2 -12 2 -18v-16q0 -73 -21 -130q-21 -58 -61 -96q-41 -39 -97 -60q-57 -21 -129 -21zM331 439l73 -71l-73 -71h-10l-73 71l73 71h10z" />
    <glyph glyph-name="uni067E0646.fina" unicode="&#xfb59;&#xfee6;" horiz-adv-x="991" 
d="M331 -211l-4 2q-70 0 -127 20q-55 19 -93 56q-37 36 -57 89q-19 51 -19 117q0 48 6 90t18 84h83v-10q-8 -29 -12 -60q-4 -28 -4 -60q0 -79 54 -124t152 -45q106 0 159 36t53 105q0 46 -10 105q-12 68 -28 131l5 7h96l12 -58l169 27v61h91v-142q0 -44 26 -61
q25 -16 87 -16h1v-120l-25 -25h-1q-77 0 -120 34t-51 114l-1 10l-154 -26q2 -12 2 -18v-16q0 -73 -21 -130q-21 -58 -61 -96q-41 -39 -97 -60q-57 -21 -129 -21zM331 439l73 -71l-73 -71h-10l-73 71l73 71h10zM678 -104l70 69h10l58 -57l59 57h9l71 -69l-71 -69h-9l-59 57
l-58 -57h-10zM889 -228l-68 -66h-10l-67 66l67 66h10z" />
    <glyph glyph-name="uni066E.init" unicode="&#x66e;" horiz-adv-x="245" 
d="M-5 145l26 -2q46 0 68 17q21 16 21 54q0 28 -6 72t-18 99l5 7h96q10 -56 14 -93q5 -48 5 -78q0 -112 -44 -167q-44 -54 -138 -54h-49v120z" />
    <glyph glyph-name="uni066E.medi" unicode="&#x66e;" horiz-adv-x="302" 
d="M0 145l-1 -1q59 0 101 21q-3 21 -3 45v123h91v-113q0 -43 26 -60q25 -16 87 -16h1v-120l-25 -25h-1q-59 0 -97 20q-37 19 -57 62q-44 -81 -147 -81v120z" />
    <glyph glyph-name="uni066E.fina" unicode="&#x66e;" horiz-adv-x="926" 
d="M819 156l-3 -4q24 -6 50 -9t57 -3v-119l-25 -26q-58 0 -107 17q-47 16 -96 59q-167 -91 -361 -91q-83 0 -139 13q-58 13 -94 42t-53 74q-17 46 -17 108t23 143h84v-10q-15 -56 -15 -93q0 -32 13 -52q14 -22 42 -35q30 -14 74 -20q45 -6 109 -6q127 0 239 34
q113 34 211 96h10v-116z" />
    <glyph glyph-name="uni066F.fina" unicode="&#x66f;" horiz-adv-x="707" 
d="M353 -245l1 1q-77 0 -135 19q-59 19 -102 56q-42 36 -63 89q-21 52 -21 120q0 86 27 176h85v-9q-8 -29 -13 -64q-4 -29 -4 -63q0 -82 59 -126q58 -43 171 -43q48 0 91 5q39 4 66 15q28 11 44 27q17 16 24 42h-123q-87 0 -135 42t-48 121q0 49 15 96q14 44 41 82
q24 35 62 58q35 22 77 22q39 0 72 -21q34 -22 59 -58q25 -38 42 -87q17 -51 23 -110h38v-119l-25 -26h-17q-20 -126 -97 -185q-78 -60 -214 -60zM584 146h-1q-8 29 -21 53q-14 25 -31 42t-40 28q-21 10 -48 10q-18 0 -36 -8q-15 -7 -28 -20q-12 -12 -18 -27t-6 -28
q0 -28 27 -39q28 -11 92 -11h110z" />
    <glyph glyph-name="uni06A1.init" unicode="&#x6a1;" horiz-adv-x="465" 
d="M0 145l197 -3q43 0 73 3t48 12t27 27q10 19 11 46l-4 2q-56 -36 -138 -36q-81 0 -126 36t-45 111q0 43 15 85t42 75t62 53t74 20q42 0 78 -24t63 -66t42 -99t15 -122q0 -72 -13 -120q-13 -49 -42 -82t-73 -48q-45 -15 -108 -15h-223v121zM234 312l1 -2q58 0 105 10
q-16 50 -51 84q-35 35 -81 35q-21 0 -36 -7q-16 -8 -28 -19q-12 -12 -18 -27t-6 -28q0 -26 27 -36q26 -10 87 -10z" />
    <glyph glyph-name="uni06A1.medi" unicode="&#x6a1;" horiz-adv-x="460" 
d="M460 25l-28 -23h-50q-84 0 -159 29q-76 -29 -166 -29h-86v120l25 25h75q-13 23 -21 48q-8 27 -8 53q0 45 16 86q17 43 43 75q27 33 63 54t75 21t72 -18q34 -18 57 -46q25 -30 38 -66q14 -39 14 -78q0 -72 -39 -131h79v-120zM212 335l1 -2q-43 0 -69 -19q-27 -20 -27 -48
q0 -17 11 -36q10 -17 29 -33q17 -14 44 -27q23 -11 56 -19q37 10 62 32q24 21 24 46q0 22 -10 41q-11 20 -28 33q-19 15 -42 23q-24 9 -51 9z" />
    <glyph glyph-name="uni06A1.fina" unicode="&#x6a1;" horiz-adv-x="948" 
d="M948 25l-27 -23h-25q-55 0 -101 9q-50 10 -89 25q-57 -21 -129 -33t-157 -12q-108 0 -182 12t-120 39q-45 26 -67 71q-21 43 -21 108q0 62 23 143h84v-10q-15 -56 -15 -93q0 -33 16 -53q17 -22 51 -35q36 -14 92 -20q57 -6 139 -6h141q-31 47 -31 101q0 45 16 86
q17 43 43 75q27 33 63 54t75 21t72 -18q34 -18 57 -46q25 -30 38 -66q14 -39 14 -78q0 -72 -42 -131h82v-120zM701 335l2 -2q-43 0 -69 -19q-27 -20 -27 -48q0 -18 12 -36q13 -19 31 -33q20 -15 45 -27t54 -18q36 9 59 31q24 23 24 46q0 22 -10 41q-11 20 -28 33
q-19 15 -42 23q-24 9 -51 9z" />
    <glyph glyph-name="uni06C2.fina" unicode="&#x6c2;" horiz-adv-x="589" 
d="M569 0l-4 2q-33 0 -58 6t-45 21q-20 16 -35 42q-14 25 -28 69l-16 52q-9 29 -23 41t-36 12q-37 0 -110 -32q-71 -31 -188 -101h-8v134q128 77 208 110q85 35 134 35q43 0 65 -25q23 -27 38 -76l15 -52q7 -25 17 -46q8 -16 20 -28q11 -10 24 -15q12 -4 30 -4h20v-125z
M285 519l-1 1q-10 21 -10 39q0 23 9 42t24 34q16 16 36 23q22 8 44 8q67 0 67 -69v-31h-45v7q0 23 -34 23q-23 0 -39 -10t-16 -24q0 -12 11 -23t30 -20h110v-68h-218v68h32z" />
    <glyph glyph-name="uni06C3.fina" unicode="&#x6c3;" horiz-adv-x="589" 
d="M569 0l-4 2q-33 0 -58 6t-45 21q-20 16 -35 42q-14 25 -28 69l-16 52q-9 29 -23 41t-36 12q-37 0 -110 -32q-71 -31 -188 -101h-8v134q128 77 208 110q85 35 134 35q43 0 65 -25q23 -27 38 -76l15 -52q7 -25 17 -46q8 -16 20 -28q11 -10 24 -15q12 -4 30 -4h20v-125z
M432 473h-10l-60 59l-60 -59h-10l-73 71l73 71h10l60 -59l60 59h10l73 -71z" />
    <glyph glyph-name="uniFB51" unicode="&#x671;" horiz-adv-x="277" arabic-form="final" 
d="M251 0h-2q-99 0 -142 51q-43 50 -43 167v417h108v-407q0 -44 24 -64q23 -19 80 -19h1v-120l-25 -25h-1zM176 883v-1q35 0 59 -25t24 -70t-24 -69t-62 -24q-31 0 -60 9t-54 9q-19 0 -36 -6t-24 -16h-11v57q10 17 30 24q21 8 42 8q25 53 54 79q28 25 62 25zM172 760v-1
q17 0 29 6t12 17q0 14 -13 21q-14 8 -31 8q-41 0 -67 -39l36 -8q16 -4 34 -4z" />
    <glyph glyph-name="uniFB57" unicode="&#x67e;" horiz-adv-x="926" arabic-form="final" 
d="M819 156l-3 -4q24 -6 50 -9t57 -3v-119l-25 -26q-58 0 -107 17q-47 16 -96 59q-167 -91 -361 -91q-83 0 -139 13q-58 13 -94 42t-53 74q-17 46 -17 108t23 143h84v-10q-15 -56 -15 -93q0 -32 13 -52q14 -22 42 -35q30 -14 74 -20q45 -6 109 -6q127 0 239 34
q113 34 211 96h10v-116zM276 -110l70 69h10l58 -57l59 57h9l71 -69l-71 -69h-9l-59 57l-58 -57h-10zM487 -234l-68 -66h-10l-67 66l67 66h10z" />
    <glyph glyph-name="uniFB58" unicode="&#x67e;" horiz-adv-x="245" arabic-form="initial" 
d="M-5 145l26 -2q46 0 68 17q21 16 21 54q0 28 -6 72t-18 99l5 7h96q10 -56 14 -93q5 -48 5 -78q0 -112 -44 -167q-44 -54 -138 -54h-49v120zM-47 -108l70 69h10l58 -57l59 57h9l71 -69l-71 -69h-9l-59 57l-58 -57h-10zM164 -232l-68 -66h-10l-67 66l67 66h10z" />
    <glyph glyph-name="uniFB59" unicode="&#x67e;" horiz-adv-x="302" arabic-form="medial" 
d="M0 145l-1 -1q59 0 101 21q-3 21 -3 45v123h91v-113q0 -43 26 -60q25 -16 87 -16h1v-120l-25 -25h-1q-59 0 -97 20q-37 19 -57 62q-44 -81 -147 -81v120zM-2 -107l70 69h10l58 -57l59 57h9l71 -69l-71 -69h-9l-59 57l-58 -57h-10zM209 -231l-68 -66h-10l-67 66l67 66h10z
" />
    <glyph glyph-name="uniFB67" unicode="&#x679;" horiz-adv-x="926" arabic-form="final" 
d="M819 156l-3 -4q24 -6 50 -9t57 -3v-119l-25 -26q-58 0 -107 17q-47 16 -96 59q-167 -91 -361 -91q-83 0 -139 13q-58 13 -94 42t-53 74q-17 46 -17 108t23 143h84v-10q-15 -56 -15 -93q0 -32 13 -52q14 -22 42 -35q30 -14 74 -20q45 -6 109 -6q127 0 239 34
q113 34 211 96h10v-116zM316 397l11 19v179h52v-111q34 33 76 33q35 0 59 -25q24 -26 24 -70q0 -45 -27 -69t-70 -24h-162v68h37zM450 395l-2 -2q18 0 30 6t12 17q0 14 -13 21q-14 8 -30 8q-25 0 -48 -14q-22 -13 -37 -36h88z" />
    <glyph glyph-name="uniFB68" unicode="&#x679;" horiz-adv-x="245" arabic-form="initial" 
d="M-5 145l26 -2q46 0 68 17q21 16 21 54q0 28 -6 72t-18 99l5 7h96q10 -56 14 -93q5 -48 5 -78q0 -112 -44 -167q-44 -54 -138 -54h-49v120zM30 519l11 19v179h52v-111q35 33 76 33q35 0 59 -25t24 -70t-27 -69t-70 -24h-162v68h37zM164 517l-2 -2q18 0 30 6t12 17
q0 14 -13 21q-14 8 -30 8q-25 0 -48 -14q-22 -13 -37 -36h88z" />
    <glyph glyph-name="uniFB69" unicode="&#x679;" horiz-adv-x="302" arabic-form="medial" 
d="M0 145l-1 -1q59 0 101 21q-3 21 -3 45v123h91v-113q0 -43 26 -60q25 -16 87 -16h1v-120l-25 -25h-1q-59 0 -97 20q-37 19 -57 62q-44 -81 -147 -81v120zM49 460l11 19v179h52v-111q34 33 76 33q35 0 59 -25t24 -70t-27 -69t-70 -24h-162v68h37zM183 458l-2 -2q18 0 30 6
t12 17q0 14 -13 21q-14 8 -30 8q-25 0 -48 -14q-22 -13 -37 -36h88z" />
    <glyph glyph-name="uniFB6B" unicode="&#x6a4;" horiz-adv-x="948" arabic-form="final" 
d="M948 25l-27 -23h-25q-55 0 -101 9q-50 10 -89 25q-57 -21 -129 -33t-157 -12q-108 0 -182 12t-120 39q-45 26 -67 71q-21 43 -21 108q0 62 23 143h84v-10q-15 -56 -15 -93q0 -33 16 -53q17 -22 51 -35q36 -14 92 -20q57 -6 139 -6h141q-31 47 -31 101q0 45 16 86
q17 43 43 75q27 33 63 54t75 21t72 -18q34 -18 57 -46q25 -30 38 -66q14 -39 14 -78q0 -72 -42 -131h82v-120zM701 335l2 -2q-43 0 -69 -19q-27 -20 -27 -48q0 -18 12 -36q13 -19 31 -33q20 -15 45 -27t54 -18q36 9 59 31q24 23 24 46q0 22 -10 41q-11 20 -28 33
q-19 15 -42 23q-24 9 -51 9zM652 762l69 68h10l70 -68l-70 -68h-10zM796 564h-10l-60 59l-60 -59h-10l-73 71l73 71h10l60 -59l60 59h10l73 -71z" />
    <glyph glyph-name="uniFB6C" unicode="&#x6a4;" horiz-adv-x="465" arabic-form="initial" 
d="M0 145l197 -3q43 0 73 3t48 12t27 27q10 19 11 46l-4 2q-56 -36 -138 -36q-81 0 -126 36t-45 111q0 43 15 85t42 75t62 53t74 20q42 0 78 -24t63 -66t42 -99t15 -122q0 -72 -13 -120q-13 -49 -42 -82t-73 -48q-45 -15 -108 -15h-223v121zM234 312l1 -2q58 0 105 10
q-16 50 -51 84q-35 35 -81 35q-21 0 -36 -7q-16 -8 -28 -19q-12 -12 -18 -27t-6 -28q0 -26 27 -36q26 -10 87 -10zM152 852l69 68h10l70 -68l-70 -68h-10zM296 654h-10l-60 59l-60 -59h-10l-73 71l73 71h10l60 -59l60 59h10l73 -71z" />
    <glyph glyph-name="uniFB6D" unicode="&#x6a4;" horiz-adv-x="460" arabic-form="medial" 
d="M460 25l-28 -23h-50q-84 0 -159 29q-76 -29 -166 -29h-86v120l25 25h75q-13 23 -21 48q-8 27 -8 53q0 45 16 86q17 43 43 75q27 33 63 54t75 21t72 -18q34 -18 57 -46q25 -30 38 -66q14 -39 14 -78q0 -72 -39 -131h79v-120zM212 335l1 -2q-43 0 -69 -19q-27 -20 -27 -48
q0 -17 11 -36q10 -17 29 -33q17 -14 44 -27q23 -11 56 -19q37 10 62 32q24 21 24 46q0 22 -10 41q-11 20 -28 33q-19 15 -42 23q-24 9 -51 9zM159 762l69 68h10l70 -68l-70 -68h-10zM303 564h-10l-60 59l-60 -59h-10l-73 71l73 71h10l60 -59l60 59h10l73 -71z" />
    <glyph glyph-name="uniFB7B" unicode="&#x686;" horiz-adv-x="691" arabic-form="final" 
d="M691 25l-28 -25h-22q-94 0 -136 50t-42 161v58l-40 -13q-69 -22 -127 -48q-55 -25 -96 -56q-39 -30 -60 -67t-21 -81q0 -79 69 -127t194 -48q70 0 132 13q64 13 112 36h10v-118q-46 -40 -119 -63q-70 -22 -154 -22q-75 0 -138 20q-61 19 -105 57t-66 90q-23 54 -23 117
q0 119 87 210t255 159l18 8v3l-204 7q-29 2 -42 -7t-13 -40v-18h-70v116q0 53 24 76q24 22 87 16l285 -25l42 -3q12 -1 34 -3q11 -1 33 -1h36h17v-142l-70 -22v-72q0 -43 27 -60q26 -16 92 -16h22v-120zM170 79l67 67h10l57 -56l57 56h10l69 -67l-69 -67h-9l-57 56l-57 -56
h-9zM375 -42l-68 -65h-9l-66 65l66 65h10z" />
    <glyph glyph-name="uniFB7C" unicode="&#x686;" horiz-adv-x="644" arabic-form="initial" 
d="M541 225l-115 -96q-45 -39 -81 -63q-35 -23 -71 -39q-35 -15 -73 -21q-39 -6 -87 -6h-138v120l25 25h118q54 0 96 3q38 3 76 11q33 7 65 20q29 12 62 32l43 25v3l-214 47q-41 9 -60 12t-30 3q-44 0 -44 -47v-17h-71v113q0 93 88 93q21 0 51 -6q44 -9 87 -19l179 -41
q24 -6 42 -9q24 -4 35 -5l33 -3q11 -1 34 -1h26v-134h-76zM158 -105l70 69h10l58 -57l59 57h9l71 -69l-71 -69h-9l-59 57l-58 -57h-10zM369 -229l-68 -66h-10l-67 66l67 66h10z" />
    <glyph glyph-name="uniFB7D" unicode="&#x686;" horiz-adv-x="666" arabic-form="medial" 
d="M666 25l-25 -20h-1q-88 0 -129 36t-41 114v12l-49 -39q-46 -38 -79 -60q-37 -25 -70 -39q-34 -15 -72 -21t-86 -6h-138v120l25 25h118q54 0 96 3q38 3 76 11q33 7 65 20q29 12 62 32l43 25v3l-214 47q-41 9 -60 12t-30 3q-44 0 -44 -47v-17h-71v113q0 93 88 93
q21 0 51 -6q44 -9 87 -19l179 -41q24 -6 42 -9q24 -4 35 -5l33 -3q11 -1 34 -1h26v-134h-68v-22q0 -17 5 -30q4 -12 18 -18t36 -9t57 -3h1v-120zM158 -101l70 69h10l58 -57l59 57h9l71 -69l-71 -69h-9l-59 57l-58 -57h-10zM369 -225l-68 -66h-10l-67 66l67 66h10z" />
    <glyph glyph-name="uniFB89" unicode="&#x688;" horiz-adv-x="559" arabic-form="final" 
d="M445 226h2q13 -45 39 -63t75 -18v-120l-25 -25q-56 0 -91 19q-36 20 -63 67q-27 -48 -75 -72t-124 -24q-85 0 -124 33t-39 116v59h71v-15q0 -29 24 -39q23 -10 83 -10q51 0 87 6t63 18l-15 41l-95 291v8h117zM195 625l11 19v179h52v-111q34 33 76 33q35 0 59 -25
q24 -26 24 -70q0 -45 -27 -69t-70 -24h-162v68h37zM329 623l-2 -2q18 0 30 6t12 17q0 14 -13 21q-14 8 -30 8q-25 0 -48 -14q-22 -13 -37 -36h88z" />
    <glyph glyph-name="uniFB8B" unicode="&#x698;" horiz-adv-x="396" arabic-form="final" 
d="M54 -255l-1 3q-42 0 -82 20q-39 20 -72 54v83l9 7q60 -24 117 -24q35 0 65 15q29 15 52 42q23 28 35 65q12 38 12 84q0 33 -10 77q-11 47 -36 126l5 7h96l22 -80q10 -43 39 -61t90 -18v-119l-25 -26q-67 0 -106 33l-3 -1q-6 -62 -24 -115t-46 -91q-29 -39 -63 -60
q-35 -21 -74 -21zM103 586l69 68h10l70 -68l-70 -68h-10zM247 388h-10l-60 59l-60 -59h-10l-73 71l73 71h10l60 -59l60 59h10l73 -71z" />
    <glyph glyph-name="uniFB8D" unicode="&#x691;" horiz-adv-x="396" arabic-form="final" 
d="M54 -255l-1 3q-42 0 -82 20q-39 20 -72 54v83l9 7q60 -24 117 -24q35 0 65 15q29 15 52 42q23 28 35 65q12 38 12 84q0 33 -10 77q-11 47 -36 126l5 7h96l22 -80q10 -43 39 -61t90 -18v-119l-25 -26q-67 0 -106 33l-3 -1q-6 -62 -24 -115t-46 -91q-29 -39 -63 -60
q-35 -21 -74 -21zM82 434l11 19v179h52v-111q35 33 76 33q35 0 59 -25q24 -26 24 -70q0 -45 -27 -69t-70 -24h-162v68h37zM216 432l-2 -2q18 0 30 6t12 17q0 14 -13 21q-14 8 -30 8q-25 0 -48 -14q-22 -13 -37 -36h88z" />
    <glyph glyph-name="uniFB8F" unicode="&#x6a9;" horiz-adv-x="942" arabic-form="final" 
d="M332 -10v-2q-82 0 -137 13q-56 13 -93 41q-35 26 -52 71q-16 42 -16 105q0 62 23 143h84v-10q-15 -55 -15 -93q0 -32 13 -52q14 -22 42 -35q30 -14 72 -20q43 -6 105 -6q84 0 156 13q78 14 143 40l-152 206v145l418 206h10v-126l-328 -160l172 -228q19 -27 36 -45
q16 -17 35 -30q17 -11 37 -16q22 -5 43 -5h15v-119l-25 -26q-26 0 -53 5q-24 5 -48 18q-25 14 -48 37q-26 26 -53 60h-3q-79 -70 -177 -100t-204 -30z" />
    <glyph glyph-name="uniFB90" unicode="&#x6a9;" horiz-adv-x="454" arabic-form="initial" 
d="M154 477l50 -43q36 -29 73 -65q29 -28 48 -56q18 -27 27 -55t9 -61q0 -90 -48 -144t-136 -54h-203v120l25 25h188q98 0 98 45q0 10 -3 19q-3 10 -12 20q-10 12 -25 24t-40 31l-174 121v145l433 206h10v-126z" />
    <glyph glyph-name="uniFB91" unicode="&#x6a9;" horiz-adv-x="474" arabic-form="medial" 
d="M0 145l70 -2q53 0 81 11q27 11 38 38l-155 210v145l433 206h10v-126l-343 -160l172 -228q20 -27 36 -45q16 -17 35 -30q17 -11 37 -16q22 -5 43 -5h15v-119l-25 -26q-30 0 -54 6q-23 6 -47 20q-22 14 -47 38q-26 26 -54 61l-3 -1q-13 -59 -57 -91q-43 -31 -112 -31h-98
v120z" />
    <glyph glyph-name="uniFB93" unicode="&#x6af;" horiz-adv-x="942" arabic-form="final" 
d="M332 -10v-2q-82 0 -137 13q-56 13 -93 41q-35 26 -52 71q-16 42 -16 105q0 62 23 143h84v-10q-15 -55 -15 -93q0 -32 13 -52q14 -22 42 -35q30 -14 72 -20q43 -6 105 -6q84 0 156 13q78 14 143 40l-152 206v145l418 206h10v-126l-328 -160l172 -228q19 -27 36 -45
q16 -17 35 -30q17 -11 37 -16q22 -5 43 -5h15v-119l-25 -26q-26 0 -53 5q-24 5 -48 18q-25 14 -48 37q-26 26 -53 60h-3q-79 -70 -177 -100t-204 -30zM504 657l435 207h8v-58l-435 -206h-8v57z" />
    <glyph glyph-name="uniFB94" unicode="&#x6af;" horiz-adv-x="454" arabic-form="initial" 
d="M154 477l50 -43q36 -29 73 -65q29 -28 48 -56q18 -27 27 -55t9 -61q0 -90 -48 -144t-136 -54h-203v120l25 25h188q98 0 98 45q0 10 -3 19q-3 10 -12 20q-10 12 -25 24t-40 31l-174 121v145l433 206h10v-126zM30 659l435 207h8v-58l-435 -206h-8v57z" />
    <glyph glyph-name="uniFB95" unicode="&#x6af;" horiz-adv-x="474" arabic-form="medial" 
d="M0 145l70 -2q53 0 81 11q27 11 38 38l-155 210v145l433 206h10v-126l-343 -160l172 -228q20 -27 36 -45q16 -17 35 -30q17 -11 37 -16q22 -5 43 -5h15v-119l-25 -26q-30 0 -54 6q-23 6 -47 20q-22 14 -47 38q-26 26 -54 61l-3 -1q-13 -59 -57 -91q-43 -31 -112 -31h-98
v120zM33 657l435 207h8v-58l-435 -206h-8v57z" />
    <glyph glyph-name="uniFB9F" unicode="&#x6ba;" horiz-adv-x="754" arabic-form="final" 
d="M333 -245l2 -3q-72 0 -126 19q-56 20 -94 55q-39 36 -60 89t-21 120q0 41 6 88q6 46 18 88h83v-10q-8 -31 -12 -61q-4 -28 -4 -60q0 -82 57 -126q56 -43 157 -43q107 0 158 36t51 113q0 18 -3 39l-7 49q-3 22 -14 64l-21 84l5 7h96l21 -80q10 -43 39 -61q28 -18 90 -18h1
v-119l-25 -26h-1q-69 0 -105 36l-3 -2q-9 -134 -84 -206t-204 -72z" />
    <glyph glyph-name="uniFBA7" unicode="&#x6c1;" horiz-adv-x="589" arabic-form="final" 
d="M569 0l-4 2q-33 0 -58 6t-45 21q-20 16 -35 42q-14 25 -28 69l-16 52q-9 29 -23 41t-36 12q-37 0 -110 -32q-71 -31 -188 -101h-8v134q128 77 208 110q85 35 134 35q43 0 65 -25q23 -27 38 -76l15 -52q7 -25 17 -46q8 -16 20 -28q11 -10 24 -15q12 -4 30 -4h20v-125z" />
    <glyph glyph-name="uniFBA8" unicode="&#x6c1;" horiz-adv-x="506" arabic-form="initial" 
d="M457 334l-3 -2q6 -32 9 -60t3 -51q0 -121 -45 -176q-45 -56 -142 -56q-122 0 -162 88q-43 -78 -144 -78v120l25 25q59 0 101 21q-3 21 -3 45v63h91v-53q0 -46 23 -66q22 -19 75 -19q89 0 89 82q0 17 -3 45q-2 23 -11 66l4 6h93zM54 -194l-1 -1q0 19 4 32q5 17 13 33
q5 10 23 40q12 20 33 49h60v-8q-28 -48 -39 -72q-11 -25 -11 -37q0 -13 11 -19t39 -6v-92q-21 -3 -39 -3q-27 0 -44 7q-19 8 -29 19q-10 12 -15 27q-5 17 -5 31z" />
    <glyph glyph-name="uniFBA9" unicode="&#x6c1;" horiz-adv-x="491" arabic-form="medial" 
d="M491 25l-20 -25h-33q-47 0 -64 -16q-18 -17 -18 -55v-108l-116 -79l-53 71q-41 53 -63 101q-21 46 -21 93q0 27 7 49l-3 1q-29 -31 -60 -45q-30 -13 -73 -13v120l25 25q27 0 44 4t37 14q19 10 35 24q17 15 35 38l34 41l56 -42l-18 -26q-15 -25 -25 -51q-9 -24 -9 -50
q0 -77 90 -179l8 -11v63q0 48 8 83q7 32 26 54q18 21 48 30t73 9h50v-120z" />
    <glyph glyph-name="uniFBAB" unicode="&#x6be;" horiz-adv-x="607" arabic-form="final" 
d="M388 -240l-3 -1q-106 0 -163 64q-56 64 -67 177q-28 1 -61 8q-32 6 -67 19v118h135q10 54 35 108q24 53 57 93q34 42 72 65q39 24 80 24q27 0 48 -10q23 -11 39 -28q17 -19 26 -42q9 -24 9 -52q0 -48 -18 -87t-56 -65v-4h152v-120l-21 -25h-38l-1 -3q16 -25 16 -69
q0 -39 -13 -69q-14 -32 -37 -54q-25 -24 -55 -35q-31 -12 -69 -12zM254 144l-1 -1q85 0 132 24t47 68q0 23 -15 38t-38 15q-18 0 -39 -9t-42 -27q-20 -17 -37 -45q-17 -27 -27 -63h20zM386 -105l1 -1q43 0 69 14t26 38q0 29 -33 47t-93 18q-28 0 -61 -3q-22 -2 -64 -8
q13 -51 53 -78q39 -27 102 -27z" />
    <glyph glyph-name="uniFBAC" unicode="&#x6be;" horiz-adv-x="622" arabic-form="initial" 
d="M360 433l-2 1q67 -26 110 -51q45 -26 71 -54q27 -29 39 -61q12 -33 12 -74q0 -92 -52 -147t-147 -55q-50 0 -100 11q-48 11 -90 30q-37 -15 -78 -24t-82 -9h-66v120l25 25h73q-28 47 -28 101q0 58 28 108t72 82v72l6 6zM205 333l-2 3q-39 0 -62 -19q-24 -19 -24 -48
q0 -31 39 -61q38 -29 104 -49q29 11 44 30t15 45q0 20 -9 38q-9 19 -24 32q-15 14 -36 21q-22 8 -45 8zM412 140l-3 1q101 0 101 44q0 11 -6 21q-6 11 -19 21q-16 12 -36 23q-21 11 -59 27l-1 -1q-2 -38 -13 -69q-12 -32 -35 -63q11 -1 35 -3q12 -1 36 -1z" />
    <glyph glyph-name="uniFBAD" unicode="&#x6be;" horiz-adv-x="491" arabic-form="medial" 
d="M272 -240l-1 -2q-105 0 -162 64q-58 65 -68 177h-67v120l25 25h49q10 54 35 108q24 52 57 93q34 42 72 65q39 24 80 24q27 0 48 -10q23 -11 39 -28q17 -19 26 -42q9 -24 9 -52q0 -48 -18 -87q-18 -40 -57 -65l1 -4h152v-120l-20 -25h-38l-1 -3q16 -28 16 -68
q0 -39 -13 -69q-14 -32 -37 -54q-25 -23 -57 -35q-33 -12 -70 -12zM141 143l-3 -1q86 0 132 24q47 24 47 68q0 23 -15 38t-38 15q-18 0 -39 -9q-22 -9 -41 -27q-20 -18 -36 -45t-27 -63h20zM270 -106l-3 -1q45 0 71 14t26 38q0 29 -33 47t-93 18q-28 0 -60 -3q-21 -2 -63 -8
q13 -51 53 -78q39 -27 102 -27z" />
    <glyph glyph-name="uniFBAF" unicode="&#x6d2;" horiz-adv-x="886" arabic-form="final" 
d="M451 -239l-4 1q-112 0 -198 8q-80 7 -130 24q-49 16 -72 42q-22 25 -22 63q0 55 25 99q26 45 69 78t104 51q60 18 131 18h528v-120l-25 -25h-503q-72 0 -120 -6q-52 -6 -78 -13q-30 -7 -42 -18t-12 -19q0 -10 18 -18t58 -12t107 -6q88 -2 164 -2q31 0 107 2q74 2 112 4
q56 3 105 6t84 6h8v-123q-32 -8 -79 -15q-36 -6 -104 -13q-55 -6 -116 -9q-60 -3 -115 -3z" />
    <glyph glyph-name="uniFBB1" unicode="&#x6d3;" horiz-adv-x="886" arabic-form="final" 
d="M451 -239l-4 1q-112 0 -198 8q-80 7 -130 24q-49 16 -72 42q-22 25 -22 63q0 55 25 99q26 45 69 78t104 51q60 18 131 18h528v-120l-25 -25h-503q-72 0 -120 -6q-52 -6 -78 -13q-30 -7 -42 -18t-12 -19q0 -10 18 -18t58 -12t107 -6q88 -2 164 -2q31 0 107 2q74 2 112 4
q56 3 105 6t84 6h8v-123q-32 -8 -79 -15q-36 -6 -104 -13q-55 -6 -116 -9q-60 -3 -115 -3zM277 273l-1 1q-10 21 -10 39q0 23 9 42t24 34q16 16 36 23q22 8 44 8q67 0 67 -69v-31h-45v7q0 23 -34 23q-23 0 -39 -10t-16 -24q0 -12 11 -23t30 -20h110v-68h-218v68h32z" />
    <glyph glyph-name="uniFBFD" unicode="&#x6cc;" horiz-adv-x="751" arabic-form="final" 
d="M396 -245l-1 -6q-177 0 -270 78t-93 230q0 49 6 99q6 47 17 89h83v-9q-8 -30 -12 -66q-4 -32 -4 -70q0 -97 69 -142t222 -45q57 0 96 4q44 5 74 12q31 8 47 18q17 11 17 24q0 11 -6 17q-7 6 -23 11t-45 9q-38 6 -74 12l-99 13v139l4 6l97 -14q69 -10 135 -15
q59 -4 113 -4v-119l-20 -21h-7q2 -6 2 -9v-9q0 -56 -22 -99t-64 -73t-103 -45q-62 -15 -139 -15z" />
    <glyph glyph-name="uniFBFE" unicode="&#x6cc;" horiz-adv-x="245" arabic-form="initial" 
d="M-5 145l26 -2q46 0 68 17q21 16 21 54q0 28 -6 72t-18 99l5 7h96q10 -56 14 -93q5 -48 5 -78q0 -112 -44 -167q-44 -54 -138 -54h-49v120zM162 -224h-10l-60 59l-60 -59h-10l-73 71l73 71h10l60 -59l60 59h10l73 -71z" />
    <glyph glyph-name="uniFBFF" unicode="&#x6cc;" horiz-adv-x="302" arabic-form="medial" 
d="M0 145l-1 -1q59 0 101 21q-3 21 -3 45v123h91v-113q0 -43 26 -60q25 -16 87 -16h1v-120l-25 -25h-1q-59 0 -97 20q-37 19 -57 62q-44 -81 -147 -81v120zM207 -223h-10l-60 59l-60 -59h-10l-73 71l73 71h10l60 -59l60 59h10l73 -71z" />
    <glyph glyph-name="uniFDF4" unicode="&#xfdf4;" horiz-adv-x="1018" arabic-form="isolated" 
d="M183 -4l1 -1q-85 0 -124 33t-39 116v59h71v-15q0 -28 24 -39q23 -10 83 -10q47 0 87 5q36 4 63 15l-110 334v8h117l119 -354q13 -38 29 -67q14 -26 33 -42l1 1q-1 3 -1 9q0 48 45 84q44 35 132 73l13 6v4h-219v96q0 64 47 117q47 52 141 84v51q0 15 7 28t19 22t27 12
q16 3 32 -1l87 -22q25 -7 34 -18q9 -10 9 -36v-96l-115 -24q-81 -18 -130 -36t-75 -43h404v-153l-117 -28q-129 -31 -197 -59q-66 -27 -66 -49q0 -17 23 -31q22 -13 75 -21l55 -7l-18 -144l-161 22q-41 5 -72 18q-32 14 -57 37q-26 24 -45 60q-20 37 -39 88q-29 -44 -75 -65
t-118 -21z" />
    <glyph glyph-name="uniFDFA" unicode="&#xfdfa;" horiz-adv-x="1067" arabic-form="isolated" 
d="M693 259l-9 -6q-53 0 -69 31q-16 -31 -57 -31h-43v-148q0 -15 6 -22t27 -7q26 0 32 6t6 18v23h47v-21v-13q0 -8 -1 -12q14 -3 30 -3q18 0 23 6q5 7 5 20v23h46v-21v-14v-12q8 -2 12 -2h12q12 0 16 3t4 12q0 6 -2 26q-1 12 -5 29l3 4h49q4 -22 5 -33q2 -22 2 -27
q0 -50 -18 -72q-18 -23 -55 -23q-25 0 -45 17q-17 -17 -44 -17q-19 0 -34 6t-26 17q-19 -19 -60 -19q-30 0 -49 8q-18 7 -27 23q-19 -31 -63 -31q-28 0 -42 10q-15 11 -27 36l-6 -48l-60 9q-18 2 -33 6q-16 5 -26 12q-10 -13 -25 -19t-33 -6h-122v81h128h14q4 0 14 2v5
q0 22 11 42t29 35t42 24t49 9q14 0 18 -12l25 -64q9 -24 21 -33t41 -9q21 0 36 5v14v159h-226q-31 0 -49 15q-19 16 -26 40h-2q-8 -22 -24 -33q-16 -10 -37 -10q-32 0 -51 19t-19 48t21 53q22 25 58 41l47 22v37h59v-119q0 -14 6 -23t32 -9h213v152h59v-152h55q11 0 17 1
q12 2 17 3v17v76h51v-67q0 -17 8 -23t39 -6q7 0 17 2l15 3v15v230h59v-219q0 -16 6 -24q6 -7 30 -7h19q-1 5 -3 12q-1 5 -1 15q0 19 8 38t21 32q15 15 31 23q18 9 37 9q18 0 36 -5q16 -5 27 -15v-77h-5q-12 8 -31 12q-22 5 -40 5q-21 0 -36 -5q-14 -5 -14 -15q0 -9 11 -17
q10 -7 30 -12q33 3 53 6q22 3 47 9h3v-73q-24 -9 -78 -15t-135 -6q-50 0 -66 30q-9 -17 -24 -23t-37 -6zM675 605v-3q-50 0 -66 31q-9 -19 -23 -24q3 -3 3 -11q0 -46 -32 -69q-31 -22 -104 -22h-422v82l438 -1q84 0 84 10q0 4 -8 7q-6 2 -32 4l-22 2v78l2 3l18 -3l36 -4
q9 -1 24 -1q13 0 25 3v17v215h60v-204q0 -17 6 -24t29 -7q9 0 15 1q12 2 17 3v4v38h51v-27q0 -10 7 -13l41 48q28 34 57 54t63 20q16 0 34 -8q16 -7 28 -21q11 -13 19 -31q7 -17 7 -38q0 -47 -28 -78t-73 -31h-108q-31 0 -52 6t-32 26q-18 -32 -62 -32zM233 617l3 -1
q-34 -1 -52 17q-18 19 -26 44h-1q-17 -42 -63 -42q-31 0 -51 20q-19 19 -19 48t21 53q20 23 57 40l47 20v38h59v-120q0 -13 6 -25t32 -12q8 0 17 3q12 4 17 5q-1 3 -1 15v123h59v-112q0 -16 7 -24q7 -9 31 -9q18 0 24 8t6 18v195h59v-200q0 -49 -22 -75q-23 -27 -70 -27
q-31 0 -53 8q-20 7 -31 27q-6 -18 -19 -26q-14 -9 -37 -9zM916 -73l-5 -3q-23 0 -43 9t-36 24v49l4 4q12 -3 36 -7q20 -3 38 -3q64 0 81 44h-1q-13 -8 -27 -11q-15 -3 -31 -3q-38 0 -60 20q-21 19 -21 56q0 25 7 45q8 23 19 38q12 17 28 27t34 10t35 -11q16 -11 30 -30
t21 -48q8 -30 8 -61q0 -32 -9 -59q-10 -29 -25 -47q-16 -19 -37 -31t-46 -12zM501 914h59v-203h-59v203zM681 764l298 134h5v-30l-298 -133h-5v29zM627 449v-1q-20 0 -32 12t-12 31q0 23 12 39t32 16t32 -16t12 -37q0 -20 -12 -32t-32 -12zM48 136l207 92h5v-30l-207 -92h-5
v30zM820 681l-2 -4h12h126q14 0 26 5q11 5 11 14q0 13 -17 21q-18 8 -42 8q-34 0 -58 -9q-23 -9 -46 -27zM545 149l173 78h5v-30l-173 -77h-5v29zM811 471l163 74h6v-30l-164 -74h-5v30zM240 412l161 72h5v-30l-161 -71h-5v29zM272 854v-1q-29 0 -29 39v18h20v-12
q0 -10 10 -10q12 0 12 18v22h22v-21q2 -1 10 -1q12 0 12 13q0 7 -5 24h20q2 -5 3 -12q2 -10 2 -14q0 -44 -29 -44q-9 0 -18 4q-6 -23 -30 -23zM704 803l-1 -1q-29 0 -29 38v19h20v-12q0 -11 10 -11q12 0 12 18v22h22v-20q8 -2 10 -2q12 0 12 14q0 7 -5 24h20q5 -15 5 -27
q0 -24 -7 -34t-21 -10q-10 0 -18 5q-6 -23 -30 -23zM341 339l-1 -3q-29 0 -29 38v19h20v-12q0 -11 10 -11q12 0 12 18v22h21v-20q2 -1 6 -1h6q11 0 11 14q0 7 -5 24h21q2 -8 3 -13t1 -13q0 -24 -7 -34t-21 -10q-10 0 -18 5q-8 -23 -30 -23zM371 119v3l29 30l-29 30v4l33 33
l33 -33v-4l-29 -30l29 -30v-3l-33 -34zM94 704l-1 1q11 0 24 3q11 2 24 8v41l-36 -7q-20 -5 -32 -12q-12 -8 -12 -18q0 -16 33 -16zM93 333l-1 2q21 0 48 10v41l-36 -7q-20 -5 -32 -12t-12 -18q0 -16 33 -16zM214 86l-1 -1q0 -10 38 -15l61 -9l-10 27q-5 14 -27 14
q-30 0 -45 -4q-16 -4 -16 -12zM933 104l-1 -1q21 0 41 3q-9 15 -24 24t-34 9q-17 0 -27 -6t-10 -14q0 -9 12 -12t43 -3zM619 476l-1 1q10 0 18 3t8 9q0 8 -7 12q-8 5 -18 5t-18 -5q-7 -4 -7 -12q0 -13 25 -13z" />
    <glyph glyph-name="uniFDFB" unicode="&#xfdfb;" horiz-adv-x="2898" arabic-form="isolated" 
d="M902 -10l-8 -5q-44 0 -84 6q-44 6 -93 22v118h177h7l-122 485v10h116l119 -481q56 17 93 51v27v519h108v-504q0 -53 24 -74t83 -21h92q54 0 96 3q38 3 76 11q33 7 65 20q29 12 62 32l43 25v3l-214 47q-39 9 -59 12q-18 3 -29 3q-45 0 -45 -47v-17h-70v113q0 48 23 71
t65 23q21 0 51 -6q50 -10 89 -19l179 -41q22 -6 41 -9q24 -4 35 -5l33 -3q11 -1 34 -1h27v-134h-76l-116 -97q-9 -7 -25 -21q-4 -4 -12 -10t-11 -9v-3q0 -81 51 -126t144 -45q103 0 149 45q47 45 47 146v640h108v-492q0 -31 6 -52q6 -22 19 -33q14 -13 35 -17q23 -5 53 -5
h86q54 0 96 3q38 3 76 11q33 7 65 20q29 12 62 32l43 25v3l-214 47q-39 9 -59 12q-18 3 -29 3q-45 0 -45 -47v-17h-70v113q0 48 23 71t65 23q21 0 51 -6q50 -10 89 -19l179 -41q22 -6 41 -9q24 -4 35 -5l33 -3q11 -1 34 -1h27v-134h-76l-116 -97q-45 -39 -81 -63
q-35 -23 -71 -39q-35 -15 -73 -21q-39 -6 -87 -6h-106q-76 0 -114 44l-1 -1q-12 -138 -84 -213t-196 -75q-132 0 -207 72q-74 72 -76 203q-39 -18 -79 -24q-41 -6 -93 -6h-112q-136 0 -173 111q-36 -55 -91 -88q-56 -33 -138 -33zM483 -5l3 -3q-70 0 -111 30q-40 30 -57 95
h-2q-22 -45 -60 -66t-87 -21q-35 0 -63 12q-27 11 -49 32q-21 19 -33 47q-12 27 -12 59q0 63 47 115q46 50 125 93l121 63v75h102v-294q0 -51 18 -72t66 -21q41 0 62 18t21 58v524h108v-529q0 -110 -51 -162q-51 -53 -148 -53zM1348 546l601 257h10v-66l-601 -257h-10v66z
M58 528l106 39v4q-43 16 -43 61q0 21 7 39q8 20 19 34q12 15 28 24t34 9q17 0 33 -8t26 -21q11 -14 17 -32t6 -40q0 -44 -31 -75q-32 -32 -105 -63l-87 -37h-10v66zM2305 542l463 198h10v-66l-463 -198h-10v66zM1906 501v-2q-25 0 -45 11q-18 -61 -75 -61q-31 0 -49 19
q-18 20 -18 54q0 9 2 29q1 15 6 27h42v-9q-3 -12 -3 -22q0 -25 23 -25q19 0 27 12q8 13 8 43v44h47v-39v-6q9 -4 26 -4q30 0 30 28q0 18 -11 51v9h49q5 -15 6 -33q2 -24 2 -31q0 -45 -16 -70t-51 -25zM183 168h-3q37 0 66 7q32 7 60 24v13v133l-93 -36q-59 -23 -86 -45
t-27 -49q0 -23 21 -35t62 -12zM1393 -134l72 71h10l73 -71l-73 -71h-10zM2350 -134l72 71h10l73 -71l-73 -71h-10zM227 599h-1q11 8 14 15q3 8 3 15q0 17 -12 27q-11 10 -28 10q-18 0 -29 -10q-12 -11 -11 -24q0 -26 64 -33z" />
    <glyph glyph-name="uniFE82" unicode="&#x622;" horiz-adv-x="277" arabic-form="final" 
d="M251 0h-2q-99 0 -142 51q-43 50 -43 167v417h108v-407q0 -44 24 -64q23 -19 80 -19h1v-120l-25 -25h-1zM-13 747h-2q11 17 30 24q21 8 42 8q14 0 32 -3q24 -4 36 -7q17 -3 30 -6t27 -3q17 0 32 3t23 8h10v-57q-25 -22 -64 -22q-16 0 -31 3q-20 4 -31 7t-33 7q-16 3 -30 3
q-20 0 -36 -6q-17 -6 -24 -16h-11v57z" />
    <glyph glyph-name="uniFE84" unicode="&#x623;" horiz-adv-x="277" arabic-form="final" 
d="M251 0h-2q-99 0 -142 51q-43 50 -43 167v417h108v-407q0 -44 24 -64q23 -19 80 -19h1v-120l-25 -25h-1zM41 763l-1 1q-10 21 -10 39q0 23 9 42t24 34q16 16 36 23q22 8 44 8q67 0 67 -69v-31h-45v7q0 23 -34 23q-23 0 -39 -10t-16 -24q0 -12 11 -23t30 -20h110v-68h-218
v68h32z" />
    <glyph glyph-name="uniFE86" unicode="&#x624;" horiz-adv-x="463" arabic-form="final" 
d="M161 -255l-2 -1q-48 0 -93 20q-44 20 -81 54v83l9 7q76 -24 148 -24q70 0 121 30q52 31 71 85h-111q-96 0 -143 40q-48 41 -48 123q0 50 15 96q14 44 41 82q24 35 62 58q35 22 77 22q39 0 72 -21q34 -22 59 -58q26 -37 42 -87q17 -51 23 -110h40v-119l-25 -26h-22
q-11 -58 -34 -103q-24 -46 -57 -81q-32 -34 -75 -52q-42 -18 -89 -18zM335 144l-1 -2q-8 29 -21 53q-14 25 -31 42q-18 17 -40 28q-21 10 -48 10q-18 0 -36 -8q-15 -7 -28 -20q-12 -12 -18 -27t-6 -29q0 -25 27 -36q28 -11 92 -11h110zM136 544l-1 1q-10 21 -10 39
q0 22 9 42q9 19 24 34q16 16 36 23q22 8 44 8q67 0 67 -69v-31h-45v7q0 23 -34 23q-23 0 -39 -10t-16 -24q0 -12 11 -23t30 -20h110v-68h-218v68h32z" />
    <glyph glyph-name="uniFE88" unicode="&#x625;" horiz-adv-x="277" arabic-form="final" 
d="M251 0l-2 -1q-99 0 -142 52t-43 169v524h108v-514q0 -46 24 -66q23 -19 80 -19h1v-120l-25 -25h-1zM36 -195l-1 1q-10 21 -10 39q0 23 9 42t24 34q16 16 36 23q22 8 44 8q67 0 67 -69v-31h-45v7q0 23 -34 23q-23 0 -39 -10t-16 -24q0 -12 11 -23t30 -20h110v-68h-218v68
h32z" />
    <glyph glyph-name="uniFE8A" unicode="&#x626;" horiz-adv-x="751" arabic-form="final" 
d="M396 -245l-1 -6q-177 0 -270 78t-93 230q0 49 6 99q6 47 17 89h83v-9q-8 -30 -12 -66q-4 -32 -4 -70q0 -97 69 -142t222 -45q57 0 96 4q44 5 74 12q31 8 47 18q17 11 17 24q0 11 -6 17q-7 6 -23 11t-45 9q-38 6 -74 12l-99 13v139l4 6l97 -14q69 -10 135 -15
q59 -4 113 -4v-119l-20 -21h-7q2 -6 2 -9v-9q0 -56 -22 -99t-64 -73t-103 -45q-62 -15 -139 -15zM21 370l-1 1q-10 21 -10 39q0 22 9 42q9 19 24 34q16 16 36 23q22 8 44 8q67 0 67 -69v-31h-45v7q0 23 -34 23q-23 0 -39 -10t-16 -24q0 -12 11 -23t30 -20h110v-68h-218v68
h32z" />
    <glyph glyph-name="uniFE8B" unicode="&#x626;" horiz-adv-x="245" arabic-form="initial" 
d="M-5 145l26 -2q46 0 68 17q21 16 21 54q0 28 -6 72t-18 99l5 7h96q10 -56 14 -93q5 -48 5 -78q0 -112 -44 -167q-44 -54 -138 -54h-49v120zM48 519l-1 1q-10 21 -10 39q0 23 9 42t24 34q16 16 36 23q22 8 44 8q67 0 67 -69v-31h-45v7q0 23 -34 23q-23 0 -39 -10t-16 -24
q0 -12 11 -23t30 -20h110v-68h-218v68h32z" />
    <glyph glyph-name="uniFE8C" unicode="&#x626;" horiz-adv-x="302" arabic-form="medial" 
d="M0 145l-1 -1q59 0 101 21q-3 21 -3 45v123h91v-113q0 -43 26 -60q25 -16 87 -16h1v-120l-25 -25h-1q-59 0 -97 20q-37 19 -57 62q-44 -81 -147 -81v120zM66 460l-1 1q-10 21 -10 39q0 22 9 42q9 19 24 34q16 16 36 23q22 8 44 8q67 0 67 -69v-31h-45v7q0 23 -34 23
q-23 0 -39 -10t-16 -24q0 -12 11 -23t30 -20h110v-68h-218v68h32z" />
    <glyph glyph-name="uniFE8E" unicode="&#x627;" horiz-adv-x="277" arabic-form="final" 
d="M251 0l-2 -1q-99 0 -142 52t-43 169v524h108v-514q0 -46 24 -66q23 -19 80 -19h1v-120l-25 -25h-1z" />
    <glyph glyph-name="uniFE90" unicode="&#x628;" horiz-adv-x="926" arabic-form="final" 
d="M819 156l-3 -4q24 -6 50 -9t57 -3v-119l-25 -26q-58 0 -107 17q-47 16 -96 59q-167 -91 -361 -91q-83 0 -139 13q-58 13 -94 42t-53 74q-17 46 -17 108t23 143h84v-10q-15 -56 -15 -93q0 -32 13 -52q14 -22 42 -35q30 -14 74 -20q45 -6 109 -6q127 0 239 34
q113 34 211 96h10v-116zM420 -84l73 -71l-73 -71h-10l-73 71l73 71h10z" />
    <glyph glyph-name="uniFE91" unicode="&#x628;" horiz-adv-x="245" arabic-form="initial" 
d="M-5 145l26 -2q46 0 68 17q21 16 21 54q0 28 -6 72t-18 99l5 7h96q10 -56 14 -93q5 -48 5 -78q0 -112 -44 -167q-44 -54 -138 -54h-49v120zM96 -82l73 -71l-73 -71h-10l-73 71l73 71h10z" />
    <glyph glyph-name="uniFE92" unicode="&#x628;" horiz-adv-x="302" arabic-form="medial" 
d="M0 145l-1 -1q59 0 101 21q-3 21 -3 45v123h91v-113q0 -43 26 -60q25 -16 87 -16h1v-120l-25 -25h-1q-59 0 -97 20q-37 19 -57 62q-44 -81 -147 -81v120zM142 -81l73 -71l-73 -71h-10l-73 71l73 71h10z" />
    <glyph glyph-name="uniFE94" unicode="&#x629;" horiz-adv-x="521" arabic-form="final" 
d="M495 0h-1q-73 2 -111 31q-38 30 -55 93h-3q-22 -45 -59 -66q-36 -21 -86 -21q-34 0 -63 12q-27 11 -49 32q-21 19 -33 47q-12 27 -12 59q0 63 47 115q46 50 125 93l121 63v75h102v-294q0 -23 5 -43q5 -19 16 -29q11 -9 32 -16q20 -6 50 -6v-119zM192 181q70 0 123 33v144
l-93 -36q-59 -23 -86 -45t-27 -49q0 -23 21 -35t62 -12zM321 592h-10l-60 59l-60 -59h-10l-73 71l73 71h10l60 -59l60 59h10l73 -71z" />
    <glyph glyph-name="uniFE96" unicode="&#x62a;" horiz-adv-x="926" arabic-form="final" 
d="M819 156l-3 -4q24 -6 50 -9t57 -3v-119l-25 -26q-58 0 -107 17q-47 16 -96 59q-167 -91 -361 -91q-83 0 -139 13q-58 13 -94 42t-53 74q-17 46 -17 108t23 143h84v-10q-15 -56 -15 -93q0 -32 13 -52q14 -22 42 -35q30 -14 74 -20q45 -6 109 -6q127 0 239 34
q113 34 211 96h10v-116zM481 351h-10l-60 59l-60 -59h-10l-73 71l73 71h10l60 -59l60 59h10l73 -71z" />
    <glyph glyph-name="uniFE97" unicode="&#x62a;" horiz-adv-x="245" arabic-form="initial" 
d="M-5 145l26 -2q46 0 68 17q21 16 21 54q0 28 -6 72t-18 99l5 7h96q10 -56 14 -93q5 -48 5 -78q0 -112 -44 -167q-44 -54 -138 -54h-49v120zM195 473h-10l-60 59l-60 -59h-10l-73 71l73 71h10l60 -59l60 59h10l73 -71z" />
    <glyph glyph-name="uniFE98" unicode="&#x62a;" horiz-adv-x="302" arabic-form="medial" 
d="M0 145l-1 -1q59 0 101 21q-3 21 -3 45v123h91v-113q0 -43 26 -60q25 -16 87 -16h1v-120l-25 -25h-1q-59 0 -97 20q-37 19 -57 62q-44 -81 -147 -81v120zM213 414h-10l-60 59l-60 -59h-10l-73 71l73 71h10l60 -59l60 59h10l73 -71z" />
    <glyph glyph-name="uniFE9A" unicode="&#x62b;" horiz-adv-x="926" arabic-form="final" 
d="M819 156l-3 -4q24 -6 50 -9t57 -3v-119l-25 -26q-58 0 -107 17q-47 16 -96 59q-167 -91 -361 -91q-83 0 -139 13q-58 13 -94 42t-53 74q-17 46 -17 108t23 143h84v-10q-15 -56 -15 -93q0 -32 13 -52q14 -22 42 -35q30 -14 74 -20q45 -6 109 -6q127 0 239 34
q113 34 211 96h10v-116zM337 549l69 68h10l70 -68l-70 -68h-10zM481 351h-10l-60 59l-60 -59h-10l-73 71l73 71h10l60 -59l60 59h10l73 -71z" />
    <glyph glyph-name="uniFE9B" unicode="&#x62b;" horiz-adv-x="245" arabic-form="initial" 
d="M-5 145l26 -2q46 0 68 17q21 16 21 54q0 28 -6 72t-18 99l5 7h96q10 -56 14 -93q5 -48 5 -78q0 -112 -44 -167q-44 -54 -138 -54h-49v120zM51 671l69 68h10l70 -68l-70 -68h-10zM195 473h-10l-60 59l-60 -59h-10l-73 71l73 71h10l60 -59l60 59h10l73 -71z" />
    <glyph glyph-name="uniFE9C" unicode="&#x62b;" horiz-adv-x="302" arabic-form="medial" 
d="M0 145l-1 -1q59 0 101 21q-3 21 -3 45v123h91v-113q0 -43 26 -60q25 -16 87 -16h1v-120l-25 -25h-1q-59 0 -97 20q-37 19 -57 62q-44 -81 -147 -81v120zM69 612l69 68h10l70 -68l-70 -68h-10zM213 414h-10l-60 59l-60 -59h-10l-73 71l73 71h10l60 -59l60 59h10l73 -71z
" />
    <glyph glyph-name="uniFE9E" unicode="&#x62c;" horiz-adv-x="691" arabic-form="final" 
d="M691 25l-28 -25h-22q-94 0 -136 50t-42 161v58l-40 -13q-69 -22 -127 -48q-55 -25 -96 -56q-39 -30 -60 -67t-21 -81q0 -79 69 -127t194 -48q70 0 132 13q64 13 112 36h10v-118q-46 -40 -119 -63q-70 -22 -154 -22q-75 0 -138 20q-61 19 -105 57t-66 90q-23 54 -23 117
q0 119 87 210t255 159l18 8v3l-204 7q-29 2 -42 -7t-13 -40v-18h-70v116q0 53 24 76q24 22 87 16l285 -25l42 -3q12 -1 34 -3q11 -1 33 -1h36h17v-142l-70 -22v-72q0 -43 27 -60q26 -16 92 -16h22v-120zM327 95l73 -71l-73 -71h-10l-73 71l73 71h10z" />
    <glyph glyph-name="uniFE9F" unicode="&#x62c;" horiz-adv-x="644" arabic-form="initial" 
d="M541 225l-115 -96q-45 -39 -81 -63q-35 -23 -71 -39q-35 -15 -73 -21q-39 -6 -87 -6h-138v120l25 25h118q54 0 96 3q38 3 76 11q33 7 65 20q29 12 62 32l43 25v3l-214 47q-41 9 -60 12t-30 3q-44 0 -44 -47v-17h-71v113q0 93 88 93q21 0 51 -6q44 -9 87 -19l179 -41
q24 -6 42 -9q24 -4 35 -5l33 -3q11 -1 34 -1h26v-134h-76zM302 -79l73 -71l-73 -71h-10l-73 71l73 71h10z" />
    <glyph glyph-name="uniFEA0" unicode="&#x62c;" horiz-adv-x="666" arabic-form="medial" 
d="M666 25l-25 -20h-1q-88 0 -129 36t-41 114v12l-49 -39q-46 -38 -79 -60q-37 -25 -70 -39q-34 -15 -72 -21t-86 -6h-138v120l25 25h118q54 0 96 3q38 3 76 11q33 7 65 20q29 12 62 32l43 25v3l-214 47q-41 9 -60 12t-30 3q-44 0 -44 -47v-17h-71v113q0 93 88 93
q21 0 51 -6q44 -9 87 -19l179 -41q24 -6 42 -9q24 -4 35 -5l33 -3q11 -1 34 -1h26v-134h-68v-22q0 -17 5 -30q4 -12 18 -18t36 -9t57 -3h1v-120zM302 -75l73 -71l-73 -71h-10l-73 71l73 71h10z" />
    <glyph glyph-name="uniFEA2" unicode="&#x62d;" horiz-adv-x="691" arabic-form="final" 
d="M691 25l-28 -25h-22q-94 0 -136 50t-42 161v58l-40 -13q-69 -22 -127 -48q-55 -25 -96 -56q-39 -30 -60 -67t-21 -81q0 -79 69 -127t194 -48q70 0 132 13q64 13 112 36h10v-118q-46 -40 -119 -63q-70 -22 -154 -22q-75 0 -138 20q-61 19 -105 57t-66 90q-23 54 -23 117
q0 119 87 210t255 159l18 8v3l-204 7q-29 2 -42 -7t-13 -40v-18h-70v116q0 53 24 76q24 22 87 16l285 -25l42 -3q12 -1 34 -3q11 -1 33 -1h36h17v-142l-70 -22v-72q0 -43 27 -60q26 -16 92 -16h22v-120z" />
    <glyph glyph-name="uniFEA3" unicode="&#x62d;" horiz-adv-x="644" arabic-form="initial" 
d="M541 225l-115 -96q-45 -39 -81 -63q-35 -23 -71 -39q-35 -15 -73 -21q-39 -6 -87 -6h-138v120l25 25h118q54 0 96 3q38 3 76 11q33 7 65 20q29 12 62 32l43 25v3l-214 47q-41 9 -60 12t-30 3q-44 0 -44 -47v-17h-71v113q0 93 88 93q21 0 51 -6q44 -9 87 -19l179 -41
q24 -6 42 -9q24 -4 35 -5l33 -3q11 -1 34 -1h26v-134h-76z" />
    <glyph glyph-name="uniFEA4" unicode="&#x62d;" horiz-adv-x="666" arabic-form="medial" 
d="M666 25l-25 -20h-1q-88 0 -129 36t-41 114v12l-49 -39q-46 -38 -79 -60q-37 -25 -70 -39q-34 -15 -72 -21t-86 -6h-138v120l25 25h118q54 0 96 3q38 3 76 11q33 7 65 20q29 12 62 32l43 25v3l-214 47q-41 9 -60 12t-30 3q-44 0 -44 -47v-17h-71v113q0 93 88 93
q21 0 51 -6q44 -9 87 -19l179 -41q24 -6 42 -9q24 -4 35 -5l33 -3q11 -1 34 -1h26v-134h-68v-22q0 -17 5 -30q4 -12 18 -18t36 -9t57 -3h1v-120z" />
    <glyph glyph-name="uniFEA6" unicode="&#x62e;" horiz-adv-x="691" arabic-form="final" 
d="M691 25l-28 -25h-22q-94 0 -136 50t-42 161v58l-40 -13q-69 -22 -127 -48q-55 -25 -96 -56q-39 -30 -60 -67t-21 -81q0 -79 69 -127t194 -48q70 0 132 13q64 13 112 36h10v-118q-46 -40 -119 -63q-70 -22 -154 -22q-75 0 -138 20q-61 19 -105 57t-66 90q-23 54 -23 117
q0 119 87 210t255 159l18 8v3l-204 7q-29 2 -42 -7t-13 -40v-18h-70v116q0 53 24 76q24 22 87 16l285 -25l42 -3q12 -1 34 -3q11 -1 33 -1h36h17v-142l-70 -22v-72q0 -43 27 -60q26 -16 92 -16h22v-120zM339 712l73 -71l-73 -71h-10l-73 71l73 71h10z" />
    <glyph glyph-name="uniFEA7" unicode="&#x62e;" horiz-adv-x="644" arabic-form="initial" 
d="M541 225l-115 -96q-45 -39 -81 -63q-35 -23 -71 -39q-35 -15 -73 -21q-39 -6 -87 -6h-138v120l25 25h118q54 0 96 3q38 3 76 11q33 7 65 20q29 12 62 32l43 25v3l-214 47q-41 9 -60 12t-30 3q-44 0 -44 -47v-17h-71v113q0 93 88 93q21 0 51 -6q44 -9 87 -19l179 -41
q24 -6 42 -9q24 -4 35 -5l33 -3q11 -1 34 -1h26v-134h-76zM284 668l73 -71l-73 -71h-10l-73 71l73 71h10z" />
    <glyph glyph-name="uniFEA8" unicode="&#x62e;" horiz-adv-x="666" arabic-form="medial" 
d="M666 25l-25 -20h-1q-88 0 -129 36t-41 114v12l-49 -39q-46 -38 -79 -60q-37 -25 -70 -39q-34 -15 -72 -21t-86 -6h-138v120l25 25h118q54 0 96 3q38 3 76 11q33 7 65 20q29 12 62 32l43 25v3l-214 47q-41 9 -60 12t-30 3q-44 0 -44 -47v-17h-71v113q0 93 88 93
q21 0 51 -6q44 -9 87 -19l179 -41q24 -6 42 -9q24 -4 35 -5l33 -3q11 -1 34 -1h26v-134h-68v-22q0 -17 5 -30q4 -12 18 -18t36 -9t57 -3h1v-120zM284 672l73 -71l-73 -71h-10l-73 71l73 71h10z" />
    <glyph glyph-name="uniFEAA" unicode="&#x62f;" horiz-adv-x="559" arabic-form="final" 
d="M445 226h2q13 -45 39 -63t75 -18v-120l-25 -25q-56 0 -91 19q-36 20 -63 67q-27 -48 -75 -72t-124 -24q-85 0 -124 33t-39 116v59h71v-15q0 -29 24 -39q23 -10 83 -10q51 0 87 6t63 18l-15 41l-95 291v8h117z" />
    <glyph glyph-name="uniFEAC" unicode="&#x630;" horiz-adv-x="559" arabic-form="final" 
d="M445 226h2q13 -45 39 -63t75 -18v-120l-25 -25q-56 0 -91 19q-36 20 -63 67q-27 -48 -75 -72t-124 -24q-85 0 -124 33t-39 116v59h71v-15q0 -29 24 -39q23 -10 83 -10q51 0 87 6t63 18l-15 41l-95 291v8h117zM295 721l73 -71l-73 -71h-10l-73 71l73 71h10z" />
    <glyph glyph-name="uniFEAE" unicode="&#x631;" horiz-adv-x="396" arabic-form="final" 
d="M54 -255l-1 3q-42 0 -82 20q-39 20 -72 54v83l9 7q60 -24 117 -24q35 0 65 15q29 15 52 42q23 28 35 65q12 38 12 84q0 33 -10 77q-11 47 -36 126l5 7h96l22 -80q10 -43 39 -61t90 -18v-119l-25 -26q-67 0 -106 33l-3 -1q-6 -62 -24 -115t-46 -91q-29 -39 -63 -60
q-35 -21 -74 -21z" />
    <glyph glyph-name="uniFEB0" unicode="&#x632;" horiz-adv-x="396" arabic-form="final" 
d="M54 -255l-1 3q-42 0 -82 20q-39 20 -72 54v83l9 7q60 -24 117 -24q35 0 65 15q29 15 52 42q23 28 35 65q12 38 12 84q0 33 -10 77q-11 47 -36 126l5 7h96l22 -80q10 -43 39 -61t90 -18v-119l-25 -26q-67 0 -106 33l-3 -1q-6 -62 -24 -115t-46 -91q-29 -39 -63 -60
q-35 -21 -74 -21zM182 530l73 -71l-73 -71h-10l-73 71l73 71h10z" />
    <glyph glyph-name="uniFEB2" unicode="&#x633;" horiz-adv-x="1214" arabic-form="final" 
d="M333 -245l-4 2q-72 0 -126 19q-56 20 -94 55q-39 36 -60 89q-21 52 -21 120q0 42 6 88t18 88h83v-10q-8 -31 -12 -61q-4 -28 -4 -60q0 -82 56 -126q55 -43 153 -43q110 0 162 36q53 36 53 113q0 35 -9 83q-10 53 -28 121l5 7h96l13 -50q12 -50 39 -69q26 -19 83 -19
q40 0 55 17q15 16 15 65v56h86v-56q0 -25 -1 -37t-3 -34q14 -6 30 -9t33 -3t29 3t18 12t9 26q3 16 3 42v86h86v-86q0 -34 -3 -63q55 -11 113 -11v-124l-25 -21q-36 0 -69 9q-34 9 -59 27q-33 -46 -102 -46q-68 0 -108 43q-37 -43 -108 -43q-40 0 -70 8q-29 7 -51 27l-3 -2
q-10 -128 -84 -199q-73 -70 -200 -70z" />
    <glyph glyph-name="uniFEB3" unicode="&#x633;" horiz-adv-x="696" arabic-form="initial" 
d="M291 -10v1q-45 0 -82 12t-69 39q-45 -42 -129 -42h-36v119l25 26h11q29 0 48 3t30 12q10 9 15 23q5 15 5 36v56h86v-56q0 -36 -6 -66q25 -7 50 -12q21 -4 50 -4q22 0 37 3t24 12t12 26t3 40v56h86v-56q0 -25 -1 -37q-2 -22 -4 -34q30 -12 65 -12q32 0 44 12t12 40
q0 24 -5 59q-4 26 -17 81l5 7h93q9 -50 12 -82q3 -33 3 -64q0 -97 -37 -147q-37 -51 -111 -51q-68 0 -108 43q-39 -43 -111 -43z" />
    <glyph glyph-name="uniFEB4" unicode="&#x633;" horiz-adv-x="765" arabic-form="medial" 
d="M288 -10l-3 -1q-45 0 -81 12q-35 12 -67 39q-45 -42 -129 -42h-36v119l25 26h11q28 0 48 3t30 12t15 23q5 15 5 36v56h86v-56q0 -36 -6 -66q22 -7 50 -12q24 -4 55 -4q42 0 57 17q15 16 15 65v56h86v-56q0 -25 -1 -37q-2 -22 -4 -34q30 -12 66 -12q17 0 29 3t18 12t9 26
t3 42v86h86v-86q0 -22 -1 -32q-2 -20 -3 -29q58 -11 114 -11v-124l-25 -21q-35 0 -68 9t-60 27q-34 -46 -102 -46t-108 43q-40 -43 -114 -43z" />
    <glyph glyph-name="uniFEB6" unicode="&#x634;" horiz-adv-x="1214" arabic-form="final" 
d="M333 -245l-4 2q-72 0 -126 19q-56 20 -94 55q-39 36 -60 89q-21 52 -21 120q0 42 6 88t18 88h83v-10q-8 -31 -12 -61q-4 -28 -4 -60q0 -82 56 -126q55 -43 153 -43q110 0 162 36q53 36 53 113q0 35 -9 83q-10 53 -28 121l5 7h96l13 -50q12 -50 39 -69q26 -19 83 -19
q40 0 55 17q15 16 15 65v56h86v-56q0 -25 -1 -37t-3 -34q14 -6 30 -9t33 -3t29 3t18 12t9 26q3 16 3 42v86h86v-86q0 -34 -3 -63q55 -11 113 -11v-124l-25 -21q-36 0 -69 9q-34 9 -59 27q-33 -46 -102 -46q-68 0 -108 43q-37 -43 -108 -43q-40 0 -70 8q-29 7 -51 27l-3 -2
q-10 -128 -84 -199q-73 -70 -200 -70zM777 555l69 68h10l70 -68l-70 -68h-10zM921 357h-10l-60 59l-60 -59h-10l-73 71l73 71h10l60 -59l60 59h10l73 -71z" />
    <glyph glyph-name="uniFEB7" unicode="&#x634;" horiz-adv-x="696" arabic-form="initial" 
d="M291 -10v1q-45 0 -82 12t-69 39q-45 -42 -129 -42h-36v119l25 26h11q29 0 48 3t30 12q10 9 15 23q5 15 5 36v56h86v-56q0 -36 -6 -66q25 -7 50 -12q21 -4 50 -4q22 0 37 3t24 12t12 26t3 40v56h86v-56q0 -25 -1 -37q-2 -22 -4 -34q30 -12 65 -12q32 0 44 12t12 40
q0 24 -5 59q-4 26 -17 81l5 7h93q9 -50 12 -82q3 -33 3 -64q0 -97 -37 -147q-37 -51 -111 -51q-68 0 -108 43q-39 -43 -111 -43zM329 554l69 68h10l70 -68l-70 -68h-10zM473 356h-10l-60 59l-60 -59h-10l-73 71l73 71h10l60 -59l60 59h10l73 -71z" />
    <glyph glyph-name="uniFEB8" unicode="&#x634;" horiz-adv-x="765" arabic-form="medial" 
d="M288 -10l-3 -1q-45 0 -81 12q-35 12 -67 39q-45 -42 -129 -42h-36v119l25 26h11q28 0 48 3t30 12t15 23q5 15 5 36v56h86v-56q0 -36 -6 -66q22 -7 50 -12q24 -4 55 -4q42 0 57 17q15 16 15 65v56h86v-56q0 -25 -1 -37q-2 -22 -4 -34q30 -12 66 -12q17 0 29 3t18 12t9 26
t3 42v86h86v-86q0 -22 -1 -32q-2 -20 -3 -29q58 -11 114 -11v-124l-25 -21q-35 0 -68 9t-60 27q-34 -46 -102 -46t-108 43q-40 -43 -114 -43zM332 552l69 68h10l70 -68l-70 -68h-10zM476 354h-10l-60 59l-60 -59h-10l-73 71l73 71h10l60 -59l60 59h10l73 -71z" />
    <glyph glyph-name="uniFEBA" unicode="&#x635;" horiz-adv-x="1318" arabic-form="final" 
d="M333 -245v-2q-72 0 -126 19q-56 20 -94 55q-39 36 -60 89q-21 52 -21 120q0 42 6 88t18 88h83v-10q-8 -31 -12 -61q-4 -28 -4 -60q0 -82 56 -126q55 -43 153 -43q110 0 162 36q53 36 53 113q0 35 -9 83q-10 53 -28 121l5 7h96l13 -50q4 -14 11 -30q6 -13 17 -21l95 111
q37 43 66 71q33 31 63 50q33 21 64 29q33 9 70 9q45 0 84 -18q40 -18 68 -48t45 -71q17 -42 17 -85q0 -29 -8 -61q44 -15 102 -15v-120l-25 -25q-77 0 -143 54q-30 -26 -69 -39q-40 -14 -87 -14h-266q-67 0 -105 35l-2 -1q-9 -134 -84 -206t-204 -72zM1030 143h-2
q65 0 92 11q26 11 26 36q0 22 -12 42t-33 33q-23 15 -49 23q-28 9 -60 9q-72 0 -125 -28t-106 -84l-33 -38l1 -4h13h13h275z" />
    <glyph glyph-name="uniFEBB" unicode="&#x635;" horiz-adv-x="806" arabic-form="initial" 
d="M0 145h-2q59 0 101 21q-3 21 -3 44v77h91v-67q0 -31 15 -49l96 112q37 43 66 71q33 31 63 50q33 21 64 29q33 9 70 9q45 0 84 -18q40 -18 68 -48t45 -71q17 -42 17 -85q0 -46 -17 -88q-16 -39 -47 -70q-29 -29 -72 -46q-41 -16 -93 -16h-260q-125 0 -165 82
q-23 -43 -57 -62q-35 -20 -89 -20v120zM580 145v-2q65 0 92 11q26 11 26 36q0 22 -12 42t-33 33q-23 15 -49 23q-28 9 -60 9q-72 0 -126 -27t-105 -81l-35 -40l1 -4h15h15h271z" />
    <glyph glyph-name="uniFEBC" unicode="&#x635;" horiz-adv-x="870" arabic-form="medial" 
d="M0 145h-3q59 0 101 21q-3 21 -3 44v77h91v-67q0 -31 15 -49l96 112q37 43 66 71q33 31 63 50q33 21 64 29q33 9 70 9q45 0 84 -18q40 -18 68 -48t45 -71q17 -42 17 -85q0 -29 -8 -61q45 -15 102 -15v-120l-25 -25q-77 0 -141 54q-30 -25 -69 -39q-40 -14 -87 -14h-260
q-125 0 -165 82q-23 -43 -57 -62q-35 -20 -89 -20v120zM579 145v-2q65 0 92 11q26 11 26 36q0 22 -12 42t-33 33q-23 15 -49 23q-29 9 -60 9q-72 0 -126 -27t-105 -81l-35 -40l1 -4h15h15h271z" />
    <glyph glyph-name="uniFEBE" unicode="&#x636;" horiz-adv-x="1318" arabic-form="final" 
d="M333 -245v-2q-72 0 -126 19q-56 20 -94 55q-39 36 -60 89q-21 52 -21 120q0 42 6 88t18 88h83v-10q-8 -31 -12 -61q-4 -28 -4 -60q0 -82 56 -126q55 -43 153 -43q110 0 162 36q53 36 53 113q0 35 -9 83q-10 53 -28 121l5 7h96l13 -50q4 -14 11 -30q6 -13 17 -21l95 111
q37 43 66 71q33 31 63 50q33 21 64 29q33 9 70 9q45 0 84 -18q40 -18 68 -48t45 -71q17 -42 17 -85q0 -29 -8 -61q44 -15 102 -15v-120l-25 -25q-77 0 -143 54q-30 -26 -69 -39q-40 -14 -87 -14h-266q-67 0 -105 35l-2 -1q-9 -134 -84 -206t-204 -72zM1030 143h-2
q65 0 92 11q26 11 26 36q0 22 -12 42t-33 33q-23 15 -49 23q-28 9 -60 9q-72 0 -125 -28t-106 -84l-33 -38l1 -4h13h13h275zM973 665l73 -71l-73 -71h-10l-73 71l73 71h10z" />
    <glyph glyph-name="uniFEBF" unicode="&#x636;" horiz-adv-x="806" arabic-form="initial" 
d="M0 145h-2q59 0 101 21q-3 21 -3 44v77h91v-67q0 -31 15 -49l96 112q37 43 66 71q33 31 63 50q33 21 64 29q33 9 70 9q45 0 84 -18q40 -18 68 -48t45 -71q17 -42 17 -85q0 -46 -17 -88q-16 -39 -47 -70q-29 -29 -72 -46q-41 -16 -93 -16h-260q-125 0 -165 82
q-23 -43 -57 -62q-35 -20 -89 -20v120zM580 145v-2q65 0 92 11q26 11 26 36q0 22 -12 42t-33 33q-23 15 -49 23q-28 9 -60 9q-72 0 -126 -27t-105 -81l-35 -40l1 -4h15h15h271zM526 665l73 -71l-73 -71h-10l-73 71l73 71h10z" />
    <glyph glyph-name="uniFEC0" unicode="&#x636;" horiz-adv-x="870" arabic-form="medial" 
d="M0 145h-3q59 0 101 21q-3 21 -3 44v77h91v-67q0 -31 15 -49l96 112q37 43 66 71q33 31 63 50q33 21 64 29q33 9 70 9q45 0 84 -18q40 -18 68 -48t45 -71q17 -42 17 -85q0 -29 -8 -61q45 -15 102 -15v-120l-25 -25q-77 0 -141 54q-30 -25 -69 -39q-40 -14 -87 -14h-260
q-125 0 -165 82q-23 -43 -57 -62q-35 -20 -89 -20v120zM579 145v-2q65 0 92 11q26 11 26 36q0 22 -12 42t-33 33q-23 15 -49 23q-29 9 -60 9q-72 0 -126 -27t-105 -81l-35 -40l1 -4h15h15h271zM525 665l73 -71l-73 -71h-10l-73 71l73 71h10z" />
    <glyph glyph-name="uniFEC2" unicode="&#x637;" horiz-adv-x="792" arabic-form="final" 
d="M105 145l24 33v566h108v-445l8 9q31 34 60 60t57 42q29 17 58 24q32 8 62 8q45 0 84 -18q40 -18 68 -48t45 -71q17 -42 17 -85q0 -29 -8 -61q45 -15 102 -15v-120l-25 -25q-77 0 -141 54q-30 -25 -69 -39q-40 -14 -87 -14h-448v145h85zM499 144q65 0 92 11q26 11 26 36
q0 23 -12 42t-33 33q-23 15 -49 23q-29 9 -60 9q-73 0 -126 -28q-55 -29 -107 -84l-32 -36l1 -6h300z" />
    <glyph glyph-name="uniFEC3" unicode="&#x637;" horiz-adv-x="688" arabic-form="initial" 
d="M445 444l-4 -1q45 0 84 -18q40 -18 68 -48t45 -71q17 -42 17 -85q0 -46 -17 -88q-16 -39 -47 -70q-29 -29 -72 -46q-41 -16 -93 -16h-453v120l25 25h65l29 34v566h108v-445l8 9q32 34 60 60t57 42q29 17 58 24q32 8 62 8zM460 144q65 0 92 11q26 11 26 36q0 23 -12 42
t-33 33q-23 15 -49 23q-28 9 -60 9q-73 0 -126 -28q-55 -29 -107 -84l-32 -36l1 -6h300z" />
    <glyph glyph-name="uniFEC4" unicode="&#x637;" horiz-adv-x="752" arabic-form="medial" 
d="M650 160l-5 -1q45 -15 102 -15v-120l-25 -25q-76 0 -141 54q-30 -25 -69 -39q-40 -14 -87 -14h-453v120l25 25h65l29 34v566h108v-445l8 9q31 35 60 60t57 42q29 17 58 24q32 8 62 8q45 0 84 -18q40 -18 68 -48t45 -71q17 -42 17 -85q0 -29 -8 -61zM459 144q65 0 92 11
q26 11 26 36q0 23 -12 42t-33 33q-23 15 -49 23q-29 9 -60 9q-73 0 -126 -28q-55 -29 -107 -84l-32 -36l1 -6h300z" />
    <glyph glyph-name="uniFEC6" unicode="&#x638;" horiz-adv-x="792" arabic-form="final" 
d="M105 145l24 33v566h108v-445l8 9q31 34 60 60t57 42q29 17 58 24q32 8 62 8q45 0 84 -18q40 -18 68 -48t45 -71q17 -42 17 -85q0 -29 -8 -61q45 -15 102 -15v-120l-25 -25q-77 0 -141 54q-30 -25 -69 -39q-40 -14 -87 -14h-448v145h85zM499 144q65 0 92 11q26 11 26 36
q0 23 -12 42t-33 33q-23 15 -49 23q-29 9 -60 9q-73 0 -126 -28q-55 -29 -107 -84l-32 -36l1 -6h300zM445 666l73 -71l-73 -71h-10l-73 71l73 71h10z" />
    <glyph glyph-name="uniFEC7" unicode="&#x638;" horiz-adv-x="688" arabic-form="initial" 
d="M445 444l-4 -1q45 0 84 -18q40 -18 68 -48t45 -71q17 -42 17 -85q0 -46 -17 -88q-16 -39 -47 -70q-29 -29 -72 -46q-41 -16 -93 -16h-453v120l25 25h65l29 34v566h108v-445l8 9q32 34 60 60t57 42q29 17 58 24q32 8 62 8zM460 144q65 0 92 11q26 11 26 36q0 23 -12 42
t-33 33q-23 15 -49 23q-28 9 -60 9q-73 0 -126 -28q-55 -29 -107 -84l-32 -36l1 -6h300zM406 666l73 -71l-73 -71h-10l-73 71l73 71h10z" />
    <glyph glyph-name="uniFEC8" unicode="&#x638;" horiz-adv-x="752" arabic-form="medial" 
d="M650 160l-5 -1q45 -15 102 -15v-120l-25 -25q-76 0 -141 54q-30 -25 -69 -39q-40 -14 -87 -14h-453v120l25 25h65l29 34v566h108v-445l8 9q31 35 60 60t57 42q29 17 58 24q32 8 62 8q45 0 84 -18q40 -18 68 -48t45 -71q17 -42 17 -85q0 -29 -8 -61zM459 144q65 0 92 11
q26 11 26 36q0 23 -12 42t-33 33q-23 15 -49 23q-29 9 -60 9q-73 0 -126 -28q-55 -29 -107 -84l-32 -36l1 -6h300zM405 666l73 -71l-73 -71h-10l-73 71l73 71h10z" />
    <glyph glyph-name="uniFECA" unicode="&#x639;" horiz-adv-x="612" arabic-form="final" 
d="M333 -325l-2 -2q-146 0 -224 63t-78 174q0 79 50 144t141 113l26 14l-12 15l-12 15l-96 122l-35 -11h-10v128q67 25 137 39q66 13 126 13q106 0 153 -34q48 -34 48 -108q0 -55 -27 -100q-27 -46 -90 -86l-9 -5q27 -16 57 -22q28 -6 69 -6h67v-120l-25 -25h-42
q-33 0 -66 5q-29 4 -58 18q-29 13 -57 36t-60 57l-74 -39q-67 -35 -94 -66q-27 -30 -27 -66q0 -52 60 -82t173 -30q63 0 124 13q62 13 112 36h10v-118q-50 -41 -112 -63t-143 -22zM410 256q33 16 48 33t15 30q0 25 -30 36q-31 11 -100 11q-57 0 -117 -9l-2 -3l80 -96
q18 -22 33 -35z" />
    <glyph glyph-name="uniFECB" unicode="&#x639;" horiz-adv-x="484" arabic-form="initial" 
d="M444 54l-3 -4q-67 -29 -149 -41t-198 -12h-122v121l25 24h61l1 3q-24 49 -24 96q0 46 19 87q20 43 51 74q32 32 73 51t87 19q41 0 75 -12q35 -12 57 -34v-136h-10q-27 17 -64 27q-36 10 -78 10q-63 0 -97 -19t-34 -51q0 -31 32 -60t84 -48q50 4 101 14q43 8 104 26h9
v-135z" />
    <glyph glyph-name="uniFECC" unicode="&#x639;" horiz-adv-x="537" arabic-form="medial" 
d="M0 145l125 -2h40l-12 15l-12 15l-77 99l-35 -11h-10v128q67 25 137 39q66 13 126 13q106 0 153 -34q48 -35 48 -108q0 -42 -21 -78q-22 -38 -64 -77h15h124v-120l-24 -25h-97q-57 0 -93 9q-34 9 -64 32q-31 -20 -61 -30t-81 -10h-142v121zM284 158l-1 -3q33 18 64 36
q24 14 40 27q15 12 21 21t6 18q0 25 -30 36q-31 11 -100 11q-57 0 -117 -9l-2 -3l89 -105q17 -21 30 -29z" />
    <glyph glyph-name="uniFECE" unicode="&#x63a;" horiz-adv-x="612" arabic-form="final" 
d="M333 -325l-2 -2q-146 0 -224 63t-78 174q0 79 50 144t141 113l26 14l-12 15l-12 15l-96 122l-35 -11h-10v128q67 25 137 39q66 13 126 13q106 0 153 -34q48 -34 48 -108q0 -55 -27 -100q-27 -46 -90 -86l-9 -5q27 -16 57 -22q28 -6 69 -6h67v-120l-25 -25h-42
q-33 0 -66 5q-29 4 -58 18q-29 13 -57 36t-60 57l-74 -39q-67 -35 -94 -66q-27 -30 -27 -66q0 -52 60 -82t173 -30q63 0 124 13q62 13 112 36h10v-118q-50 -41 -112 -63t-143 -22zM410 256q33 16 48 33t15 30q0 25 -30 36q-31 11 -100 11q-57 0 -117 -9l-2 -3l80 -96
q18 -22 33 -35zM336 727l73 -71l-73 -71h-10l-73 71l73 71h10z" />
    <glyph glyph-name="uniFECF" unicode="&#x63a;" horiz-adv-x="484" arabic-form="initial" 
d="M444 54l-3 -4q-67 -29 -149 -41t-198 -12h-122v121l25 24h61l1 3q-24 49 -24 96q0 46 19 87q20 43 51 74q32 32 73 51t87 19q41 0 75 -12q35 -12 57 -34v-136h-10q-27 17 -64 27q-36 10 -78 10q-63 0 -97 -19t-34 -51q0 -31 32 -60t84 -48q50 4 101 14q43 8 104 26h9
v-135zM254 692l73 -71l-73 -71h-10l-73 71l73 71h10z" />
    <glyph glyph-name="uniFED0" unicode="&#x63a;" horiz-adv-x="537" arabic-form="medial" 
d="M0 145l125 -2h40l-12 15l-12 15l-77 99l-35 -11h-10v128q67 25 137 39q66 13 126 13q106 0 153 -34q48 -35 48 -108q0 -42 -21 -78q-22 -38 -64 -77h15h124v-120l-24 -25h-97q-57 0 -93 9q-34 9 -64 32q-31 -20 -61 -30t-81 -10h-142v121zM284 158l-1 -3q33 18 64 36
q24 14 40 27q15 12 21 21t6 18q0 25 -30 36q-31 11 -100 11q-57 0 -117 -9l-2 -3l89 -105q17 -21 30 -29zM275 662l73 -71l-73 -71h-10l-73 71l73 71h10z" />
    <glyph glyph-name="uniFED2" unicode="&#x641;" horiz-adv-x="948" arabic-form="final" 
d="M948 25l-27 -23h-25q-55 0 -101 9q-50 10 -89 25q-57 -21 -129 -33t-157 -12q-108 0 -182 12t-120 39q-45 26 -67 71q-21 43 -21 108q0 62 23 143h84v-10q-15 -56 -15 -93q0 -33 16 -53q17 -22 51 -35q36 -14 92 -20q57 -6 139 -6h141q-31 47 -31 101q0 45 16 86
q17 43 43 75q27 33 63 54t75 21t72 -18q34 -18 57 -46q25 -30 38 -66q14 -39 14 -78q0 -72 -42 -131h82v-120zM701 335l2 -2q-43 0 -69 -19q-27 -20 -27 -48q0 -18 12 -36q13 -19 31 -33q20 -15 45 -27t54 -18q36 9 59 31q24 23 24 46q0 22 -10 41q-11 20 -28 33
q-19 15 -42 23q-24 9 -51 9zM731 706l73 -71l-73 -71h-10l-73 71l73 71h10z" />
    <glyph glyph-name="uniFED3" unicode="&#x641;" horiz-adv-x="465" arabic-form="initial" 
d="M0 145l197 -3q43 0 73 3t48 12t27 27q10 19 11 46l-4 2q-56 -36 -138 -36q-81 0 -126 36t-45 111q0 43 15 85t42 75t62 53t74 20q42 0 78 -24t63 -66t42 -99t15 -122q0 -72 -13 -120q-13 -49 -42 -82t-73 -48q-45 -15 -108 -15h-223v121zM234 312l1 -2q58 0 105 10
q-16 50 -51 84q-35 35 -81 35q-21 0 -36 -7q-16 -8 -28 -19q-12 -12 -18 -27t-6 -28q0 -26 27 -36q26 -10 87 -10zM231 796l73 -71l-73 -71h-10l-73 71l73 71h10z" />
    <glyph glyph-name="uniFED4" unicode="&#x641;" horiz-adv-x="460" arabic-form="medial" 
d="M460 25l-28 -23h-50q-84 0 -159 29q-76 -29 -166 -29h-86v120l25 25h75q-13 23 -21 48q-8 27 -8 53q0 45 16 86q17 43 43 75q27 33 63 54t75 21t72 -18q34 -18 57 -46q25 -30 38 -66q14 -39 14 -78q0 -72 -39 -131h79v-120zM212 335l1 -2q-43 0 -69 -19q-27 -20 -27 -48
q0 -17 11 -36q10 -17 29 -33q17 -14 44 -27q23 -11 56 -19q37 10 62 32q24 21 24 46q0 22 -10 41q-11 20 -28 33q-19 15 -42 23q-24 9 -51 9zM238 706l73 -71l-73 -71h-10l-73 71l73 71h10z" />
    <glyph glyph-name="uniFED6" unicode="&#x642;" horiz-adv-x="707" arabic-form="final" 
d="M353 -245l1 1q-77 0 -135 19q-59 19 -102 56q-42 36 -63 89q-21 52 -21 120q0 86 27 176h85v-9q-8 -29 -13 -64q-4 -29 -4 -63q0 -82 59 -126q58 -43 171 -43q48 0 91 5q39 4 66 15q28 11 44 27q17 16 24 42h-123q-87 0 -135 42t-48 121q0 49 15 96q14 44 41 82
q24 35 62 58q35 22 77 22q39 0 72 -21q34 -22 59 -58q25 -38 42 -87q17 -51 23 -110h38v-119l-25 -26h-17q-20 -126 -97 -185q-78 -60 -214 -60zM584 146h-1q-8 29 -21 53q-14 25 -31 42t-40 28q-21 10 -48 10q-18 0 -36 -8q-15 -7 -28 -20q-12 -12 -18 -27t-6 -28
q0 -28 27 -39q28 -11 92 -11h110zM540 502h-10l-60 59l-60 -59h-10l-73 71l73 71h10l60 -59l60 59h10l73 -71z" />
    <glyph glyph-name="uniFED7" unicode="&#x642;" horiz-adv-x="465" arabic-form="initial" 
d="M0 145l197 -3q43 0 73 3t48 12t27 27q10 19 11 46l-4 2q-56 -36 -138 -36q-81 0 -126 36t-45 111q0 43 15 85t42 75t62 53t74 20q42 0 78 -24t63 -66t42 -99t15 -122q0 -72 -13 -120q-13 -49 -42 -82t-73 -48q-45 -15 -108 -15h-223v121zM234 312l1 -2q58 0 105 10
q-16 50 -51 84q-35 35 -81 35q-21 0 -36 -7q-16 -8 -28 -19q-12 -12 -18 -27t-6 -28q0 -26 27 -36q26 -10 87 -10zM296 654h-10l-60 59l-60 -59h-10l-73 71l73 71h10l60 -59l60 59h10l73 -71z" />
    <glyph glyph-name="uniFED8" unicode="&#x642;" horiz-adv-x="460" arabic-form="medial" 
d="M460 25l-28 -23h-50q-84 0 -159 29q-76 -29 -166 -29h-86v120l25 25h75q-13 23 -21 48q-8 27 -8 53q0 45 16 86q17 43 43 75q27 33 63 54t75 21t72 -18q34 -18 57 -46q25 -30 38 -66q14 -39 14 -78q0 -72 -39 -131h79v-120zM212 335l1 -2q-43 0 -69 -19q-27 -20 -27 -48
q0 -17 11 -36q10 -17 29 -33q17 -14 44 -27q23 -11 56 -19q37 10 62 32q24 21 24 46q0 22 -10 41q-11 20 -28 33q-19 15 -42 23q-24 9 -51 9zM303 564h-10l-60 59l-60 -59h-10l-73 71l73 71h10l60 -59l60 59h10l73 -71z" />
    <glyph glyph-name="uniFEDA" unicode="&#x643;" horiz-adv-x="885" arabic-form="final" 
d="M885 25l-27 -27h-1q-67 0 -108 24q-40 24 -60 77q-77 -61 -168 -86q-93 -26 -189 -26q-82 0 -137 13q-56 13 -93 41q-35 26 -52 71q-16 42 -16 105q0 62 23 143h84v-10q-15 -56 -15 -93q0 -32 13 -52q14 -22 42 -35q30 -14 72 -20q43 -6 105 -6q86 0 165 15q82 16 152 46
v27v512h108v-514q0 -46 23 -66q22 -19 78 -19h1v-120zM506 389l-2 1q0 -52 -46 -77q-47 -26 -138 -26h-34v67h34q116 0 116 22q0 9 -22 15l-31 7q-31 8 -45 24q-13 16 -13 42q0 27 18 51q17 23 56 46l70 41h10v-71l-68 -37q-18 -10 -18 -17q0 -8 20 -13l34 -9q31 -7 45 -24
t14 -42z" />
    <glyph glyph-name="uniFEDB" unicode="&#x643;" horiz-adv-x="454" arabic-form="initial" 
d="M154 477l50 -43q36 -29 73 -65q29 -28 48 -56q18 -27 27 -55t9 -61q0 -90 -48 -144t-136 -54h-203v120l25 25h188q98 0 98 45q0 10 -3 19q-3 10 -12 20q-10 12 -25 24t-40 31l-174 121v145l433 206h10v-126z" />
    <glyph glyph-name="uniFEDC" unicode="&#x643;" horiz-adv-x="474" arabic-form="medial" 
d="M0 145l70 -2q53 0 81 11q27 11 38 38l-155 210v145l433 206h10v-126l-343 -160l172 -228q20 -27 36 -45q16 -17 35 -30q17 -11 37 -16q22 -5 43 -5h15v-119l-25 -26q-30 0 -54 6q-23 6 -47 20q-22 14 -47 38q-26 26 -54 61l-3 -1q-13 -59 -57 -91q-43 -31 -112 -31h-98
v120z" />
    <glyph glyph-name="uniFEDE" unicode="&#x644;" horiz-adv-x="735" arabic-form="final" 
d="M624 253l1 -1q0 -31 6 -52t18 -33q13 -13 33 -17q23 -5 53 -5v-120l-25 -25q-76 0 -114 44l-2 -1q-10 -137 -83 -213q-72 -75 -195 -75q-66 0 -120 20q-52 19 -88 57q-35 37 -55 91q-19 53 -19 121q0 45 6 87t18 84h83v-10q-7 -29 -12 -60q-4 -28 -4 -60q0 -81 51 -126
t144 -45q102 0 149 45t47 146v640h108v-492z" />
    <glyph glyph-name="uniFEDF" unicode="&#x644;" horiz-adv-x="271" arabic-form="initial" 
d="M0 145l-1 -1q50 0 75 20q24 20 24 62v519h108v-524q0 -109 -51 -165t-149 -56h-31v120z" />
    <glyph glyph-name="uniFEE0" unicode="&#x644;" horiz-adv-x="310" arabic-form="medial" 
d="M310 25l-27 -25h-1q-61 0 -101 20q-39 20 -60 63q-43 -84 -147 -84v120l25 25q61 0 101 21q-3 26 -3 55v524h108v-514q0 -46 24 -66q23 -19 80 -19h1v-120z" />
    <glyph glyph-name="uniFEE2" unicode="&#x645;" horiz-adv-x="675" arabic-form="final" 
d="M563 228l-3 -3q17 -47 42 -65t71 -18v-120l-26 -25q-47 0 -78 19q-31 20 -54 60l-11 -88l-145 19q-92 12 -131 51t-39 111q0 13 3 27q3 13 9 25l-3 2q-31 -18 -43 -52q-12 -35 -12 -102v-385h-114v380q0 73 14 129q14 55 48 92q35 37 93 63q58 25 149 45l130 27
q29 6 38 -21zM482 145l-38 101q-9 23 -32 20q-79 -11 -113 -25q-36 -15 -36 -40q0 -19 21 -31q20 -11 74 -19l128 -16z" />
    <glyph glyph-name="uniFEE3" unicode="&#x645;" horiz-adv-x="508" arabic-form="initial" 
d="M109 57l-2 -1q-25 -32 -55 -44q-32 -12 -78 -12v120l25 25q39 0 59 14q20 13 36 48l23 49q40 87 86 127q45 39 103 39q77 0 123 -55q47 -56 47 -156q0 -36 -9 -84q-10 -52 -22 -90l-8 -22q-11 -31 -42 -24zM367 143q23 -6 27 10q3 13 3 31q0 43 -28 68q-29 26 -76 26
q-77 0 -118 -84l-4 -8z" />
    <glyph glyph-name="uniFEE4" unicode="&#x645;" horiz-adv-x="569" arabic-form="medial" 
d="M457 228l-4 -1q17 -47 42 -65t71 -18v-120l-25 -25q-47 0 -78 20q-30 19 -54 62l-11 -91l-143 19q-50 7 -88 23q-36 15 -57 42q-14 -38 -46 -56q-33 -18 -90 -18v120l25 25q51 0 81 13q-1 3 -1 9v10q0 85 64 146q65 61 183 90l30 7q28 8 39 -21zM376 147l-39 100
q-9 23 -32 20q-77 -9 -114 -24t-37 -40q0 -19 23 -31q21 -11 75 -19l128 -16z" />
    <glyph glyph-name="uniFEE6" unicode="&#x646;" horiz-adv-x="754" arabic-form="final" 
d="M333 -245l2 -3q-72 0 -126 19q-56 20 -94 55q-39 36 -60 89t-21 120q0 41 6 88q6 46 18 88h83v-10q-8 -31 -12 -61q-4 -28 -4 -60q0 -82 57 -126q56 -43 157 -43q107 0 158 36t51 113q0 18 -3 39l-7 49q-3 22 -14 64l-21 84l5 7h96l21 -80q10 -43 39 -61q28 -18 90 -18h1
v-119l-25 -26h-1q-69 0 -105 36l-3 -2q-9 -134 -84 -206t-204 -72zM345 301l73 -71l-73 -71h-10l-73 71l73 71h10z" />
    <glyph glyph-name="uniFEE7" unicode="&#x646;" horiz-adv-x="245" arabic-form="initial" 
d="M-5 145l26 -2q46 0 68 17q21 16 21 54q0 28 -6 72t-18 99l5 7h96q10 -56 14 -93q5 -48 5 -78q0 -112 -44 -167q-44 -54 -138 -54h-49v120zM129 615l73 -71l-73 -71h-10l-73 71l73 71h10z" />
    <glyph glyph-name="uniFEE8" unicode="&#x646;" horiz-adv-x="302" arabic-form="medial" 
d="M0 145l-1 -1q59 0 101 21q-3 21 -3 45v123h91v-113q0 -43 26 -60q25 -16 87 -16h1v-120l-25 -25h-1q-59 0 -97 20q-37 19 -57 62q-44 -81 -147 -81v120zM148 556l73 -71l-73 -71h-10l-73 71l73 71h10z" />
    <glyph glyph-name="uniFEEA" unicode="&#x647;" horiz-adv-x="521" arabic-form="final" 
d="M495 0h-1q-73 2 -111 31q-38 30 -55 93h-3q-22 -45 -59 -66q-36 -21 -86 -21q-34 0 -63 12q-27 11 -49 32q-21 19 -33 47q-12 27 -12 59q0 63 47 115q46 50 125 93l121 63v75h102v-294q0 -23 5 -43q5 -19 16 -29q11 -9 32 -16q20 -6 50 -6v-119zM192 181q70 0 123 33v144
l-93 -36q-59 -23 -86 -45t-27 -49q0 -23 21 -35t62 -12z" />
    <glyph glyph-name="uniFEEB" unicode="&#x647;" horiz-adv-x="622" arabic-form="initial" 
d="M360 433l-2 1q67 -26 110 -51q45 -26 71 -54q27 -29 39 -61q12 -33 12 -74q0 -92 -52 -147t-147 -55q-50 0 -100 11q-48 11 -90 30q-37 -15 -78 -24t-82 -9h-66v120l25 25h73q-28 47 -28 101q0 58 28 108t72 82v72l6 6zM205 333l-2 3q-39 0 -62 -19q-24 -19 -24 -48
q0 -31 39 -61q38 -29 104 -49q29 11 44 30t15 45q0 20 -9 38q-9 19 -24 32q-15 14 -36 21q-22 8 -45 8zM412 140l-3 1q101 0 101 44q0 11 -6 21q-6 11 -19 21q-16 12 -36 23q-21 11 -59 27l-1 -1q-2 -38 -13 -69q-12 -32 -35 -63q11 -1 35 -3q12 -1 36 -1z" />
    <glyph glyph-name="uniFEEC" unicode="&#x647;" horiz-adv-x="491" arabic-form="medial" 
d="M263 -240h-1q-50 0 -90 17q-39 17 -66 48q-27 32 -42 76q-15 45 -18 99h-71v120l25 25h66l142 328q11 26 36 14l19 -9q145 -67 145 -186q0 -42 -18 -79t-60 -63v-4h161v-120l-20 -25h-38l-2 -4q17 -26 17 -67q0 -36 -14 -69q-13 -31 -38 -54q-25 -24 -58 -35
q-34 -12 -75 -12zM155 145l-2 2q72 0 116 24t44 72q0 55 -72 87q-12 4 -19 0t-13 -18l-70 -167h16zM265 -101q47 0 75 14q27 13 27 38q0 29 -33 47t-93 18q-28 0 -61 -3q-22 -2 -64 -8q11 -49 48 -77q38 -29 101 -29z" />
    <glyph glyph-name="uniFEEE" unicode="&#x648;" horiz-adv-x="463" arabic-form="final" 
d="M161 -255l-2 -1q-48 0 -93 20q-44 20 -81 54v83l9 7q76 -24 148 -24q70 0 121 30q52 31 71 85h-111q-96 0 -143 40q-48 41 -48 123q0 50 15 96q14 44 41 82q24 35 62 58q35 22 77 22q39 0 72 -21q34 -22 59 -58q26 -37 42 -87q17 -51 23 -110h40v-119l-25 -26h-22
q-11 -58 -34 -103q-24 -46 -57 -81q-32 -34 -75 -52q-42 -18 -89 -18zM335 144l-1 -2q-8 29 -21 53q-14 25 -31 42q-18 17 -40 28q-21 10 -48 10q-18 0 -36 -8q-15 -7 -28 -20q-12 -12 -18 -27t-6 -29q0 -25 27 -36q28 -11 92 -11h110z" />
    <glyph glyph-name="uniFEF0" unicode="&#x649;" horiz-adv-x="751" arabic-form="final" 
d="M396 -245l-1 -6q-177 0 -270 78t-93 230q0 49 6 99q6 47 17 89h83v-9q-8 -30 -12 -66q-4 -32 -4 -70q0 -97 69 -142t222 -45q57 0 96 4q44 5 74 12q31 8 47 18q17 11 17 24q0 11 -6 17q-7 6 -23 11t-45 9q-38 6 -74 12l-99 13v139l4 6l97 -14q69 -10 135 -15
q59 -4 113 -4v-119l-20 -21h-7q2 -6 2 -9v-9q0 -56 -22 -99t-64 -73t-103 -45q-62 -15 -139 -15z" />
    <glyph glyph-name="uniFEF2" unicode="&#x64a;" horiz-adv-x="751" arabic-form="final" 
d="M396 -245l-1 -6q-177 0 -270 78t-93 230q0 49 6 99q6 47 17 89h83v-9q-8 -30 -12 -66q-4 -32 -4 -70q0 -97 69 -142t222 -45q57 0 96 4q44 5 74 12q31 8 47 18q17 11 17 24q0 11 -6 17q-7 6 -23 11t-45 9q-38 6 -74 12l-99 13v139l4 6l97 -14q69 -10 135 -15
q59 -4 113 -4v-119l-20 -21h-7q2 -6 2 -9v-9q0 -56 -22 -99t-64 -73t-103 -45q-62 -15 -139 -15zM470 -473h-10l-60 59l-60 -59h-10l-73 71l73 71h10l60 -59l60 59h10l73 -71z" />
    <glyph glyph-name="uniFEF3" unicode="&#x64a;" horiz-adv-x="245" arabic-form="initial" 
d="M-5 145l26 -2q46 0 68 17q21 16 21 54q0 28 -6 72t-18 99l5 7h96q10 -56 14 -93q5 -48 5 -78q0 -112 -44 -167q-44 -54 -138 -54h-49v120zM162 -224h-10l-60 59l-60 -59h-10l-73 71l73 71h10l60 -59l60 59h10l73 -71z" />
    <glyph glyph-name="uniFEF4" unicode="&#x64a;" horiz-adv-x="302" arabic-form="medial" 
d="M0 145l-1 -1q59 0 101 21q-3 21 -3 45v123h91v-113q0 -43 26 -60q25 -16 87 -16h1v-120l-25 -25h-1q-59 0 -97 20q-37 19 -57 62q-44 -81 -147 -81v120zM207 -223h-10l-60 59l-60 -59h-10l-73 71l73 71h10l60 -59l60 59h10l73 -71z" />
    <glyph glyph-name=".notdef" horiz-adv-x="300" 
d="M100 718h100v-920h-100v920z" />
    <glyph glyph-name=".null" 
 />
    <glyph glyph-name=".null" 
 />
    <glyph glyph-name="uni000D" unicode="&#xd;" horiz-adv-x="227" 
 />
    <glyph glyph-name="space" unicode=" " horiz-adv-x="227" 
 />
    <glyph glyph-name="exclam" unicode="!" horiz-adv-x="307" 
d="M66 71v1q0 41 23 62t63 21q42 0 65 -21t23 -63t-23 -63t-65 -21q-40 0 -63 21t-23 63zM119 220q-5 27 -15 67q-7 28 -16 78q-6 30 -13 84q-6 43 -6 84v120q0 28 27 28h115q27 0 27 -28v-120q0 -41 -6 -84q-7 -54 -13 -84q-9 -50 -16 -78q-10 -40 -15 -67h-69z" />
    <glyph glyph-name="quotedbl" unicode="&#x22;" horiz-adv-x="407" 
d="M87 433h2q-19 96 -30 159q-11 66 -11 92q0 30 15 49t47 19t47 -19t15 -49q0 -26 -11 -92q-6 -39 -29 -159h-45zM277 433h2q-19 96 -30 159q-11 66 -11 92q0 30 15 49t47 19t47 -19t15 -49q0 -26 -11 -92q-6 -39 -29 -159h-45z" />
    <glyph glyph-name="numbersign" unicode="#" horiz-adv-x="604" 
d="M53 483h124l35 197h80l-35 -197h138l35 197h79l-35 -197h125l-12 -72h-125l-22 -127h124l-13 -73h-124l-37 -211h-79l37 211h-138l-37 -211h-80l37 211h-125l13 73h125l22 127h-125zM223 284h138l22 127h-138z" />
    <glyph glyph-name="dollar" unicode="$" horiz-adv-x="554" 
d="M34 189l76 -5v-25q0 -27 6 -45t21 -30q31 -21 102 -21q67 0 102 23t35 71q0 25 -9 41t-27 30q-20 15 -46 26q-20 9 -66 25q-37 13 -78 32q-34 16 -61 41q-25 24 -40 58t-15 84q0 80 52 128q53 49 153 62v122h77v-118q46 -2 81 -7q44 -7 65 -13q15 -4 24 -12t9 -24v-134
h-78v24q0 46 -25 67q-25 22 -90 22q-64 0 -93 -21t-29 -60q0 -22 9 -39q8 -15 26 -28q17 -12 39 -21t48 -18q52 -19 89 -36q40 -19 68 -42q30 -25 44 -58q15 -34 15 -84q0 -88 -54 -142q-53 -53 -147 -67v-128h-77v122q-45 1 -93 6q-47 4 -85 15q-14 4 -21 12q-7 7 -7 24
v143z" />
    <glyph glyph-name="percent" unicode="%" horiz-adv-x="881" 
d="M216 392l-2 -1q33 0 50 26t17 92t-16 92q-17 27 -49 27t-48 -27q-16 -26 -16 -91q0 -67 16 -92q17 -26 48 -26zM214 334q-85 0 -133 45t-48 130t48 131q49 47 133 47q86 0 135 -45t49 -130q0 -82 -49 -130t-135 -48zM592 679h84l-392 -680h-85zM662 50v-2q32 0 49 26
q16 25 16 92q0 66 -16 92q-16 27 -49 27q-32 0 -48 -27q-16 -26 -16 -92t16 -91t48 -25zM662 -10h-1q-85 0 -133 45t-48 130q0 84 48 131q49 47 134 47q86 0 134 -45t48 -130q0 -82 -49 -130t-133 -48z" />
    <glyph glyph-name="ampersand" unicode="&#x26;" horiz-adv-x="791" 
d="M641 0l1 -2q-35 0 -70 11q-32 10 -63 35q-43 -26 -95 -41t-119 -15q-61 0 -111 12q-47 11 -85 35q-35 22 -55 57q-19 34 -19 79q0 36 13 63t35 51q20 22 50 39q31 18 60 29l-7 7q-38 36 -57 73q-20 38 -20 90q0 74 66 119t192 45q45 0 87 -6q45 -6 66 -13q15 -4 24 -12
t9 -24v-126h-78v19q0 44 -22 65q-25 21 -78 21q-46 0 -72 -19q-27 -20 -27 -57q0 -25 17 -50q17 -24 45 -51l235 -227q31 55 31 114q0 28 -29 28h-40v69h229v-69h-39q-19 0 -27 -9t-9 -24q-6 -40 -21 -82t-40 -79l26 -24q32 -29 59 -44t65 -18v-69h-127zM343 64h-2
q28 0 58 8q29 8 54 21l-221 212q-22 -21 -33 -50q-11 -30 -11 -62q0 -63 44 -96t111 -33z" />
    <glyph glyph-name="quotesingle" unicode="'" horiz-adv-x="218" 
d="M87 433h2q-19 96 -30 159q-11 66 -11 92q0 30 15 49t47 19t47 -19t15 -49q0 -26 -11 -92q-6 -39 -29 -159h-45z" />
    <glyph glyph-name="parenleft" unicode="(" horiz-adv-x="425" 
d="M358 -216l-1 1q-66 32 -119 81q-55 50 -93 112q-38 61 -61 137q-22 72 -22 156q0 83 22 155q23 76 61 137q38 62 93 112q53 49 119 81l34 -54q-90 -56 -145 -164q-54 -106 -54 -267q0 -160 54 -268t146 -165z" />
    <glyph glyph-name="parenright" unicode=")" horiz-adv-x="425" 
d="M33 -162l-1 -1q47 29 84 70q38 42 63 96t39 120q14 68 14 146t-14 146q-14 66 -39 120q-26 55 -63 95q-38 40 -84 69l34 54q66 -32 119 -81q55 -50 93 -112t61 -136q22 -72 22 -155q0 -84 -22 -156q-23 -74 -61 -136t-93 -112t-118 -81z" />
    <glyph glyph-name="asterisk" unicode="*" horiz-adv-x="480" 
d="M193 609l-2 2q-1 5 -3 17t-2 17q0 25 17 37q16 12 38 12q19 0 36 -12q16 -12 16 -35q0 -10 -3 -22q-4 -14 -4 -15l-28 -102l92 61q1 1 7.5 5t10.5 6q10 6 24 6q23 0 36 -16q14 -17 14 -39q0 -49 -65 -52l-111 -5l83 -63q15 -12 26 -24q12 -13 12 -31q0 -22 -18 -37
t-39 -15q-20 0 -34 15t-21 36l-38 94l-38 -94q-7 -20 -20 -36q-12 -15 -34 -15q-23 0 -39 15q-17 15 -17 36q0 20 13 33q14 14 24 21l85 63l-114 5q-64 3 -64 52q0 23 15 39t37 16q12 0 24 -5q10 -4 20 -11l93 -61z" />
    <glyph glyph-name="plus" unicode="+" horiz-adv-x="559" 
d="M45 306h191v191h87v-191h190v-85h-190v-198h-87v198h-191v85z" />
    <glyph glyph-name="comma" unicode="," horiz-adv-x="281" 
d="M44 -121h2q16 7 33 18q18 11 29 24q13 15 20 30q8 18 8 35h-1q-38 0 -63 23q-24 22 -24 65q0 44 25 66q26 23 69 23q47 0 71 -28q24 -29 24 -78q0 -51 -15 -88t-39 -64q-25 -28 -52 -45t-57 -28z" />
    <glyph glyph-name="hyphen" unicode="-" horiz-adv-x="416" 
d="M46 335h324v-106h-324v106z" />
    <glyph glyph-name="period" unicode="." horiz-adv-x="281" 
d="M140 -12v-1q-43 0 -68 23q-24 22 -24 66t24 66q25 23 68 23q44 0 69 -23q24 -22 24 -66t-24 -66q-23 -22 -69 -22z" />
    <glyph glyph-name="slash" unicode="/" horiz-adv-x="400" 
d="M303 745h96l-328 -950h-96z" />
    <glyph glyph-name="zero" unicode="0" horiz-adv-x="609" 
d="M30 240h-1q0 60 20 108q19 46 56 78q36 32 87 48q53 17 112 17t110 -15q52 -15 87 -46q36 -32 57 -78t21 -108q0 -60 -21 -107q-22 -48 -58 -80q-38 -34 -87 -50q-51 -17 -108 -17q-63 0 -112 16q-51 16 -87 48q-37 32 -56 78q-20 48 -20 108zM304 64l-3 -1q53 0 81 39
q29 40 29 137q0 98 -28 138q-29 41 -81 41q-54 0 -82 -40t-28 -138q0 -97 29 -137q29 -39 83 -39z" />
    <glyph glyph-name="one" unicode="1" horiz-adv-x="435" 
d="M49 69l82 -2q27 0 27 26v268q0 27 -27 27q-17 0 -41 -3q-26 -3 -40 -7v69q32 7 69 15t72 15l60 12q28 5 33 5q30 0 30 -29v-370q0 -26 26 -26h77v-69h-368v69z" />
    <glyph glyph-name="two" unicode="2" horiz-adv-x="515" 
d="M35 79l-1 3q49 28 89 54q43 28 78 60q34 31 57 65q22 32 22 68q0 31 -24 51q-25 20 -70 20q-40 0 -69 -6q-30 -6 -48 -16h-11v87q25 12 71 21q45 9 102 9q114 0 164 -38t50 -105q0 -44 -22 -79q-23 -36 -57 -66q-34 -29 -77 -54q-34 -19 -83 -43h281v-110h-452v79z" />
    <glyph glyph-name="three" unicode="3" horiz-adv-x="487" 
d="M24 -116l4 -2q12 -3 38 -7q21 -3 48 -3q37 0 65 7q31 8 51 22q21 15 33 39t12 56q0 57 -42 87t-115 30h-20v86h15q61 0 102 29q40 28 40 78q0 46 -29 69t-84 23q-34 0 -61 -6q-28 -6 -46 -16h-11v86q25 13 69 22q42 9 98 9q118 0 174 -41t56 -114q0 -37 -15 -64t-38 -47
q-21 -18 -50 -31q-28 -12 -52 -18v-4q34 -4 66 -18t56 -36t39 -51t15 -63q0 -53 -22 -93q-23 -41 -61 -69t-93 -43q-54 -15 -119 -15q-35 0 -69 3q-38 3 -54 7v88z" />
    <glyph glyph-name="four" unicode="4" horiz-adv-x="602" 
d="M20 84l335 405h119v-383h113v-106h-113v-207h-150v207h-304v84zM324 106v233l-191 -233h191z" />
    <glyph glyph-name="five" unicode="5" horiz-adv-x="497" 
d="M143 372l-5 -127h26q135 0 209 -58q75 -59 75 -165q0 -53 -23 -99q-22 -44 -63 -76q-40 -31 -96 -48q-57 -17 -122 -17q-25 0 -55 3q-34 3 -47 7v88h11q7 -2 18 -3q14 -2 22 -3t22 -1h18q73 0 114 32t41 95q0 61 -42 91t-115 30h-40q-18 0 -32 -2v364h278q26 0 26 28v27
h75v-139q0 -27 -26 -27h-269z" />
    <glyph glyph-name="six" unicode="6" horiz-adv-x="587" 
d="M260 407l-5 -4q16 5 35 8q21 3 41 3q101 0 154 -49q54 -49 54 -151q0 -104 -65 -166q-64 -61 -183 -61q-57 0 -103 18q-45 17 -79 56q-33 37 -51 96t-18 141q0 90 24 162t69 123t108 78t143 27q29 0 53 -3q28 -4 41 -7v-88h-11q-11 4 -34 7q-21 3 -40 3q-97 0 -142 -71
t-45 -233q0 -72 6 -117t18 -72t30 -36t42 -9q42 0 60 34t18 108t-24 107t-81 33h-15v63z" />
    <glyph glyph-name="seven" unicode="7" horiz-adv-x="507" 
d="M148 369q-27 0 -39 -13q-12 -14 -12 -39v-33h-75v173q0 26 26 26h438v-71l-309 -663l-119 47l311 573h-221z" />
    <glyph glyph-name="eight" unicode="8" horiz-adv-x="565" 
d="M38 155l-3 -5q0 33 12 60t33 48q23 23 46 38q27 17 53 29l-1 1q-20 11 -46 32q-22 17 -39 41q-17 23 -27 48q-10 24 -10 56q0 85 61 134q62 50 177 50q110 0 162 -39q53 -39 53 -108q0 -29 -12 -53t-32 -44q-21 -21 -45 -35q-28 -17 -51 -26l7 -4q75 -44 114 -87t39 -102
q0 -91 -67 -145q-68 -54 -192 -54q-56 0 -99 12q-42 11 -73 35q-30 22 -45 53q-15 30 -15 65zM240 290l-2 -2q-32 -23 -50 -54q-18 -32 -18 -73q0 -50 28 -78t76 -28q41 0 69 26q27 25 27 68t-28 71q-30 30 -88 62zM202 532l-4 -1q0 -43 27 -70q29 -29 67 -50l7 -4
q33 23 50 52q18 30 18 68q0 41 -22 63t-60 22q-35 0 -59 -21t-24 -59z" />
    <glyph glyph-name="nine" unicode="9" horiz-adv-x="587" 
d="M327 76l1 -2q-10 -4 -35 -7q-21 -3 -41 -3q-100 0 -153 49q-54 49 -54 151q0 104 65 166q64 61 183 61q57 0 104 -18q48 -19 80 -55q33 -38 51 -96t18 -141q0 -90 -24 -162t-69 -123t-109 -78t-144 -27q-29 0 -53 3q-26 3 -40 7v88h10q11 -4 34 -7q21 -3 40 -3
q98 0 143 71t45 233q0 71 -6 118t-18 72q-12 26 -28 36t-41 10q-42 0 -60 -34q-18 -35 -18 -106q0 -73 24 -106t80 -33h15v-64z" />
    <glyph glyph-name="colon" unicode=":" horiz-adv-x="291" 
d="M145 -12v-1q-43 0 -68 23q-24 22 -24 66t24 66q25 23 68 23q44 0 69 -23q24 -22 24 -66t-24 -66q-23 -22 -69 -22zM145 313v-1q-43 0 -68 23q-24 23 -24 66t24 66q25 23 68 23q46 0 69 -22q24 -22 24 -66t-24 -66q-25 -23 -69 -23z" />
    <glyph glyph-name="semicolon" unicode=";" horiz-adv-x="293" 
d="M145 314v-1q-43 0 -68 23q-24 22 -24 66t24 66q25 23 68 23q46 0 69 -22q24 -23 24 -66t-24 -66q-25 -23 -69 -23zM49 -122h2q17 8 33 18q18 11 29 24q13 15 20 30q8 18 8 35h-1q-38 0 -63 23q-24 22 -24 65q0 44 25 66q26 23 69 23q47 0 71 -28t24 -78q0 -51 -15 -88
t-39 -64q-25 -28 -52 -45t-57 -28z" />
    <glyph glyph-name="less" unicode="&#x3c;" horiz-adv-x="479" 
d="M50 263l311 204l48 -71l-242 -156l242 -156l-48 -71l-311 204v46z" />
    <glyph glyph-name="equal" unicode="=" horiz-adv-x="539" 
d="M55 215h428v-85h-428v85zM55 397h428v-86h-428v86z" />
    <glyph glyph-name="greater" unicode="&#x3e;" horiz-adv-x="479" 
d="M70 84l242 156l-242 156l47 71l312 -204v-46l-312 -204z" />
    <glyph glyph-name="question" unicode="?" horiz-adv-x="448" 
d="M128 223l-5 1q-7 18 -11 33q-5 20 -5 41q0 28 8 50t21 38q15 18 30 29q11 8 33 22q27 17 42 34q16 17 16 49q0 70 -101 70q-32 0 -63 -6q-33 -6 -51 -16h-11v92q29 14 69 21q43 8 95 8q226 0 226 -160q0 -36 -12 -63q-11 -25 -32 -46q-19 -20 -48 -36q-24 -14 -60 -31
q-35 -17 -51 -36t-16 -48q0 -6 2 -18q1 -8 5 -17v-11h-81zM77 72l-1 1q0 41 23 62t65 21q41 0 65 -21t24 -63t-24 -63t-64 -21q-43 0 -65 21q-23 21 -23 63z" />
    <glyph glyph-name="at" unicode="@" horiz-adv-x="970" 
d="M563 410l-21 1q-36 0 -67 -17q-30 -16 -51 -48t-33 -73q-12 -42 -12 -93q0 -47 14 -69q13 -21 39 -21q28 0 51 20t39 42zM693 -171l-7 -5q-52 -22 -120 -39q-70 -17 -144 -17q-86 0 -157 25q-72 26 -124 76t-82 129q-30 78 -30 183q0 115 36 207t99 155q64 63 152 98
q87 34 195 34q102 0 180 -30q79 -30 131 -84q53 -55 80 -126q27 -72 27 -156q0 -51 -12 -103t-42 -94q-29 -41 -84 -67t-136 -26q-68 0 -102 20q-33 19 -39 65h-4q-12 -15 -27 -30q-14 -14 -35 -27t-42 -20t-50 -7q-62 0 -96 43t-34 135q0 72 23 132q22 58 65 99
q42 41 102 63q59 22 134 22h159l-56 -345q-1 -5 -1 -13v-11q0 -22 12 -31t38 -9q39 0 67 17t44 45q17 29 24 66q7 35 7 76q0 66 -20 126q-20 59 -60 102q-41 44 -102 68q-62 24 -146 24q-87 0 -159 -27q-70 -26 -124 -80q-52 -52 -81 -131t-29 -179q0 -87 21 -150
q20 -62 62 -103q41 -41 97 -60t128 -19q71 0 131 17q58 17 102 36z" />
    <glyph glyph-name="A" unicode="A" horiz-adv-x="709" 
d="M1 69l17 -1q19 0 26 7q8 7 12 21l222 586h153l221 -586q4 -14 12 -21q7 -7 26 -7h16v-69h-299v69h46q25 0 25 20q0 3 -2 11q-1 4 -3 14l-39 106h-240l-38 -106q-1 -5 -3 -13t-2 -11q0 -20 25 -20h46v-69h-221v69zM313 542l-91 -249h186l-91 249h-4z" />
    <glyph glyph-name="B" unicode="B" horiz-adv-x="658" 
d="M32 69l38 1q27 0 27 26v490q0 26 -27 26h-42v69h333q128 0 184 -43q57 -44 57 -115q0 -33 -15 -60q-14 -26 -39 -46t-54 -32q-28 -11 -60 -16v-3q34 -3 70 -15t65 -32q28 -19 48 -50q19 -29 19 -69q0 -44 -15 -80t-48 -63t-84 -42t-123 -15h-334v69zM310 75v-1
q76 0 114 29q37 28 37 95q0 64 -38 93q-37 28 -113 28h-50v-244h50zM260 392l49 -1q60 0 93 27t33 87q0 49 -32 75t-90 26h-53v-214z" />
    <glyph glyph-name="C" unicode="C" horiz-adv-x="670" 
d="M553 195l77 -2v-152q0 -16 -8 -24q-7 -7 -23 -12q-14 -4 -40 -7q-31 -4 -51 -5l-54 -3q-18 -1 -51 -1q-185 0 -279 90t-94 251q0 84 28 149q29 68 79 113q51 47 121 72q72 26 156 26q60 0 101 -6q36 -5 69 -14q15 -4 23 -11q8 -6 8 -23v-140h-78v27q0 24 -4 39
q-5 16 -18 27q-13 12 -38 18q-24 6 -63 6q-97 0 -154 -68q-57 -67 -57 -206q0 -133 56 -201q55 -67 156 -67q47 0 75 6t43 21q20 20 20 60v37z" />
    <glyph glyph-name="D" unicode="D" horiz-adv-x="759" 
d="M32 69l43 3q27 0 27 26v490q0 26 -27 26h-42v69h321q76 0 143 -18q68 -18 119 -57t81 -100q30 -62 30 -150q0 -90 -30 -157t-81 -112q-50 -44 -123 -67q-70 -22 -156 -22h-305v69zM320 77l-2 -1q50 0 94 15q43 15 75 47q31 31 49 84q18 52 18 127q0 73 -18 123t-48 80
q-31 31 -73 44t-94 13h-56v-532h55z" />
    <glyph glyph-name="E" unicode="E" horiz-adv-x="607" 
d="M441 77q27 0 39 13q12 14 12 39v46h77v-148q0 -27 -26 -27h-511v69h42q27 0 27 26v490q0 26 -27 26h-42v69h495q26 0 26 -27v-138h-78v36q0 52 -50 52h-161v-218h98q26 0 26 27v39h78v-209h-78v40q0 26 -26 26h-98v-231h177z" />
    <glyph glyph-name="F" unicode="F" horiz-adv-x="570" 
d="M264 603v-227h98q26 0 26 26v40h78v-209h-78v39q0 27 -26 27h-98v-204q0 -26 27 -26h62v-69h-321v69h42q27 0 27 26v490q0 26 -27 26h-42v69h487q26 0 26 -27v-138h-78v36q0 52 -50 52h-153z" />
    <glyph glyph-name="G" unicode="G" horiz-adv-x="764" 
d="M513 223l-4 -2q0 26 -27 26h-49v69h301v-69h-35q-27 0 -27 -26v-205q-20 -7 -47 -11q-36 -6 -64 -8q-36 -3 -75 -6t-77 -3q-90 0 -159 22q-70 22 -120 65q-49 42 -75 107q-26 66 -26 148q0 86 30 152t83 113t126 71q74 24 162 24q64 0 111 -6t78 -15q15 -4 23 -11
q8 -6 8 -23v-140h-77v27q0 44 -25 65q-16 13 -45 19t-77 6q-103 0 -163 -66t-60 -207q0 -137 59 -204q58 -66 162 -66q33 0 56 5q21 4 33 9v140z" />
    <glyph glyph-name="H" unicode="H" horiz-adv-x="811" 
d="M479 69h42q27 0 27 26v215h-284v-215q0 -26 26 -26h43v-69h-301v69h43q26 0 26 26v490q0 26 -26 26h-43v69h301v-69h-43q-26 0 -26 -26v-199h284v199q0 26 -27 26h-42v69h300v-69h-43q-26 0 -26 -26v-490q0 -26 26 -26h43v-69h-300v69z" />
    <glyph glyph-name="I" unicode="I" horiz-adv-x="365" 
d="M32 69h42q27 0 27 26v490q0 26 -27 26h-42v69h301v-69h-42q-27 0 -27 -26v-490q0 -26 27 -26h42v-69h-301v69z" />
    </font>
</defs>
</svg>
