<?xml version="1.0" standalone="no"?>
<!DOCTYPE svg PUBLIC "-//W3C//DTD SVG 1.1//EN" "http://www.w3.org/Graphics/SVG/1.1/DTD/svg11.dtd" >
<svg xmlns="http://www.w3.org/2000/svg" xmlns:xlink="http://www.w3.org/1999/xlink" version="1.1">
<metadata>
Created by FontForge 20190801 at Tue Feb 19 18:51:06 2019
 By root
Copyright (c) 2018 Bold Monday. All rights reserved. Brando Arabic is a trademark of Bold Monday. Unauthorised copying or modification of any of its data is illegal.
</metadata>
<defs>
<font id="BrandoArabicBlack" horiz-adv-x="600" >
  <font-face 
    font-family="Brando Arabic Black"
    font-weight="900"
    font-stretch="normal"
    units-per-em="1000"
    panose-1="2 6 10 3 6 0 0 2 0 3"
    ascent="745"
    descent="-255"
    x-height="485"
    cap-height="680"
    bbox="-202 -562 8597 1073"
    underline-thickness="78"
    underline-position="-188"
    unicode-range="U+000D-FEFC"
  />
<missing-glyph horiz-adv-x="300" 
d="M100 718h100v-920h-100v920z" />
    <glyph glyph-name="fi" unicode="fi" horiz-adv-x="672" 
d="M364 78l21 1q29 0 29 28v267q0 28 -29 28h-123v-295q0 -28 29 -28h32v-78h-300v78h21q30 0 30 28v295h-56v84h31q25 0 25 22v16q0 47 18 89q18 41 51 73q32 31 81 49q48 18 109 18q23 0 45 -5v-97h-13q-12 5 -24 6q-16 2 -25 2q-33 0 -43 -19t-10 -63v-92h311
q29 0 29 -28v-351q0 -28 29 -28h22v-78h-290v78zM409 662v-1q0 47 27 71t72 24t72 -24t27 -70t-27 -70t-72 -24t-72 24t-27 70z" />
    <glyph glyph-name="fl" unicode="fl" horiz-adv-x="663" 
d="M24 78l21 1q30 0 30 28v295h-56v84h31q25 0 25 22v16q0 51 18 93q18 41 53 72t86 47q53 17 114 17h75q47 0 67 -1q30 -2 51 -3q22 -2 29 -3q13 -1 21 -8q8 -6 8 -21v-610q0 -28 29 -28h22v-78h-290v78h22q29 0 29 28v508q0 25 -12 39t-54 14q-41 0 -61 -20
q-19 -19 -19 -71v-92h100v-84h-100v-295q0 -28 29 -28h24v-78h-292v78z" />
    <glyph glyph-name="uniFC03" unicode="&#xfe8b;&#xfef0;" horiz-adv-x="765" arabic-form="isolated" 
d="M408 -161l-4 -2q-92 0 -164 21q-70 20 -121 62q-49 40 -76 99t-27 134q0 53 7 105q7 56 21 105h110v-9q-8 -32 -12 -66q-4 -31 -4 -66q0 -43 17 -77q16 -33 52 -55t92 -33q53 -10 135 -10q48 0 88 3t70 9q27 5 46 14q17 8 17 18q0 6 -5 11q-4 4 -18 9q-11 4 -36 7
q-28 4 -57 5l-143 7v182l5 6l121 -5q43 -2 60 13q18 15 18 46q0 27 -6 69q-7 46 -19 100l5 6h121q11 -55 15 -97q5 -48 5 -78q0 -39 -11 -72q-10 -32 -39 -54v-4q40 -24 58 -58t18 -79q0 -60 -23 -111q-22 -50 -66 -84q-44 -35 -107 -53t-143 -18zM539 674l-1 -1
q-9 23 -9 39q0 51 35 83t86 32q71 0 71 -69v-40h-50v6q0 19 -35 19q-24 0 -40 -9t-16 -21q0 -11 12 -21t35 -18h116v-80h-238v80h34z" />
    <glyph glyph-name="uniFC04" unicode="&#xfe8b;&#xfef2;" horiz-adv-x="765" arabic-form="isolated" 
d="M408 -161l-4 -2q-92 0 -164 21q-70 20 -121 62q-49 40 -76 99t-27 134q0 53 7 105q7 56 21 105h110v-9q-8 -32 -12 -66q-4 -31 -4 -66q0 -43 17 -77q16 -33 52 -55t92 -33q53 -10 135 -10q48 0 88 3t70 9q27 5 46 14q17 8 17 18q0 6 -5 11q-4 4 -18 9q-11 4 -36 7
q-28 4 -57 5l-143 7v182l5 6l121 -5q43 -2 60 13q18 15 18 46q0 27 -6 69q-7 46 -19 100l5 6h121q11 -55 15 -97q5 -48 5 -78q0 -39 -11 -72q-10 -32 -39 -54v-4q40 -24 58 -58t18 -79q0 -60 -23 -111q-22 -50 -66 -84q-44 -35 -107 -53t-143 -18zM539 674l-1 -1
q-9 23 -9 39q0 51 35 83t86 32q71 0 71 -69v-40h-50v6q0 19 -35 19q-24 0 -40 -9t-16 -21q0 -11 12 -21t35 -18h116v-80h-238v80h34zM482 -395h-10l-69 67l-69 -67h-10l-84 82l84 82h10l69 -67l69 67h10l84 -82z" />
    <glyph glyph-name="uniFC09" unicode="&#xfe91;&#xfef0;" horiz-adv-x="765" arabic-form="isolated" 
d="M408 -161l-4 -2q-92 0 -164 21q-70 20 -121 62q-49 40 -76 99t-27 134q0 53 7 105q7 56 21 105h110v-9q-8 -32 -12 -66q-4 -31 -4 -66q0 -43 17 -77q16 -33 52 -55t92 -33q53 -10 135 -10q48 0 88 3t70 9q27 5 46 14q17 8 17 18q0 6 -5 11q-4 4 -18 9q-11 4 -36 7
q-28 4 -57 5l-143 7v182l5 6l121 -5q43 -2 60 13q18 15 18 46q0 27 -6 69q-7 46 -19 100l5 6h121q11 -55 15 -97q5 -48 5 -78q0 -39 -11 -72q-10 -32 -39 -54v-4q40 -24 58 -58t18 -79q0 -60 -23 -111q-22 -50 -66 -84q-44 -35 -107 -53t-143 -18zM714 -180l84 -82l-84 -82
h-10l-84 82l84 82h10z" />
    <glyph glyph-name="uniFC0A" unicode="&#xfe91;&#xfef2;" horiz-adv-x="765" arabic-form="isolated" 
d="M408 -161l-4 -2q-92 0 -164 21q-70 20 -121 62q-49 40 -76 99t-27 134q0 53 7 105q7 56 21 105h110v-9q-8 -32 -12 -66q-4 -31 -4 -66q0 -43 17 -77q16 -33 52 -55t92 -33q53 -10 135 -10q48 0 88 3t70 9q27 5 46 14q17 8 17 18q0 6 -5 11q-4 4 -18 9q-11 4 -36 7
q-28 4 -57 5l-143 7v182l5 6l121 -5q43 -2 60 13q18 15 18 46q0 27 -6 69q-7 46 -19 100l5 6h121q11 -55 15 -97q5 -48 5 -78q0 -39 -11 -72q-10 -32 -39 -54v-4q40 -24 58 -58t18 -79q0 -60 -23 -111q-22 -50 -66 -84q-44 -35 -107 -53t-143 -18zM714 -180l84 -82l-84 -82
h-10l-84 82l84 82h10zM483 -394h-10l-69 67l-69 -67h-10l-84 82l84 82h10l69 -67l69 67h10l84 -82z" />
    <glyph glyph-name="uniFC0F" unicode="&#xfe97;&#xfef0;" horiz-adv-x="765" arabic-form="isolated" 
d="M408 -161l-4 -2q-92 0 -164 21q-70 20 -121 62q-49 40 -76 99t-27 134q0 53 7 105q7 56 21 105h110v-9q-8 -32 -12 -66q-4 -31 -4 -66q0 -43 17 -77q16 -33 52 -55t92 -33q53 -10 135 -10q48 0 88 3t70 9q27 5 46 14q17 8 17 18q0 6 -5 11q-4 4 -18 9q-11 4 -36 7
q-28 4 -57 5l-143 7v182l5 6l121 -5q43 -2 60 13q18 15 18 46q0 27 -6 69q-7 46 -19 100l5 6h121q11 -55 15 -97q5 -48 5 -78q0 -39 -11 -72q-10 -32 -39 -54v-4q40 -24 58 -58t18 -79q0 -60 -23 -111q-22 -50 -66 -84q-44 -35 -107 -53t-143 -18zM703 616h-10l-69 67
l-69 -67h-10l-84 82l84 82h10l69 -67l69 67h10l84 -82z" />
    <glyph glyph-name="uniFC10" unicode="&#xfe97;&#xfef2;" horiz-adv-x="765" arabic-form="isolated" 
d="M408 -161l-4 -2q-92 0 -164 21q-70 20 -121 62q-49 40 -76 99t-27 134q0 53 7 105q7 56 21 105h110v-9q-8 -32 -12 -66q-4 -31 -4 -66q0 -43 17 -77q16 -33 52 -55t92 -33q53 -10 135 -10q48 0 88 3t70 9q27 5 46 14q17 8 17 18q0 6 -5 11q-4 4 -18 9q-11 4 -36 7
q-28 4 -57 5l-143 7v182l5 6l121 -5q43 -2 60 13q18 15 18 46q0 27 -6 69q-7 46 -19 100l5 6h121q11 -55 15 -97q5 -48 5 -78q0 -39 -11 -72q-10 -32 -39 -54v-4q40 -24 58 -58t18 -79q0 -60 -23 -111q-22 -50 -66 -84q-44 -35 -107 -53t-143 -18zM703 616h-10l-69 67
l-69 -67h-10l-84 82l84 82h10l69 -67l69 67h10l84 -82zM483 -394h-10l-69 67l-69 -67h-10l-84 82l84 82h10l69 -67l69 67h10l84 -82z" />
    <glyph glyph-name="uniFC13" unicode="&#xfe9b;&#xfef0;" horiz-adv-x="765" arabic-form="isolated" 
d="M408 -161l-4 -2q-92 0 -164 21q-70 20 -121 62q-49 40 -76 99t-27 134q0 53 7 105q7 56 21 105h110v-9q-8 -32 -12 -66q-4 -31 -4 -66q0 -43 17 -77q16 -33 52 -55t92 -33q53 -10 135 -10q48 0 88 3t70 9q27 5 46 14q17 8 17 18q0 6 -5 11q-4 4 -18 9q-11 4 -36 7
q-28 4 -57 5l-143 7v182l5 6l121 -5q43 -2 60 13q18 15 18 46q0 27 -6 69q-7 46 -19 100l5 6h121q11 -55 15 -97q5 -48 5 -78q0 -39 -11 -72q-10 -32 -39 -54v-4q40 -24 58 -58t18 -79q0 -60 -23 -111q-22 -50 -66 -84q-44 -35 -107 -53t-143 -18zM538 842l81 79h10l81 -79
l-81 -79h-10zM703 616h-10l-69 67l-69 -67h-10l-84 82l84 82h10l69 -67l69 67h10l84 -82z" />
    <glyph glyph-name="uniFC14" unicode="&#xfe9b;&#xfef2;" horiz-adv-x="765" arabic-form="isolated" 
d="M408 -161l-4 -2q-92 0 -164 21q-70 20 -121 62q-49 40 -76 99t-27 134q0 53 7 105q7 56 21 105h110v-9q-8 -32 -12 -66q-4 -31 -4 -66q0 -43 17 -77q16 -33 52 -55t92 -33q53 -10 135 -10q48 0 88 3t70 9q27 5 46 14q17 8 17 18q0 6 -5 11q-4 4 -18 9q-11 4 -36 7
q-28 4 -57 5l-143 7v182l5 6l121 -5q43 -2 60 13q18 15 18 46q0 27 -6 69q-7 46 -19 100l5 6h121q11 -55 15 -97q5 -48 5 -78q0 -39 -11 -72q-10 -32 -39 -54v-4q40 -24 58 -58t18 -79q0 -60 -23 -111q-22 -50 -66 -84q-44 -35 -107 -53t-143 -18zM538 842l81 79h10l81 -79
l-81 -79h-10zM703 616h-10l-69 67l-69 -67h-10l-84 82l84 82h10l69 -67l69 67h10l84 -82zM483 -394h-10l-69 67l-69 -67h-10l-84 82l84 82h10l69 -67l69 67h10l84 -82z" />
    <glyph glyph-name="uniFC31" unicode="&#xfed3;&#xfef0;" horiz-adv-x="788" arabic-form="isolated" 
d="M674 151l-3 -4q41 -23 57 -54q17 -32 17 -75q0 -59 -23 -108q-22 -48 -66 -81q-43 -33 -107 -51q-63 -18 -143 -18q-92 0 -164 21q-70 20 -121 62q-49 40 -76 99q-27 58 -27 134q0 53 7 105q7 55 21 105h110v-9q-8 -31 -12 -66q-4 -31 -4 -66q0 -43 17 -77q16 -33 52 -55
t92 -33q53 -10 135 -10q48 0 88 3t70 9q27 5 46 14q17 8 17 18q0 6 -5 11q-4 5 -18 9q-11 4 -36 7q-28 4 -57 5l-173 7v182l5 6l103 -3q57 -2 87 1q34 3 55 12t30 25q10 18 11 42l-4 3q-29 -19 -66 -30q-36 -10 -82 -10q-89 0 -135 33t-46 102q0 46 17 92q16 44 45 79t66 56
t80 21q44 0 84 -26t68 -69t45 -102q17 -60 17 -125q0 -70 -16 -114q-16 -45 -58 -73v-4zM529 418l-1 -1q49 0 97 6q-20 31 -54 50q-35 20 -79 20q-31 0 -55 -15t-24 -35q0 -13 25 -19q26 -6 91 -6zM524 896l84 -82l-84 -82h-10l-84 82l84 82h10z" />
    <glyph glyph-name="uniFC32" unicode="&#xfed3;&#xfef2;" horiz-adv-x="788" arabic-form="isolated" 
d="M674 151l-3 -4q41 -23 57 -54q17 -32 17 -75q0 -59 -23 -108q-22 -48 -66 -81q-43 -33 -107 -51q-63 -18 -143 -18q-92 0 -164 21q-70 20 -121 62q-49 40 -76 99q-27 58 -27 134q0 53 7 105q7 55 21 105h110v-9q-8 -31 -12 -66q-4 -31 -4 -66q0 -43 17 -77q16 -33 52 -55
t92 -33q53 -10 135 -10q48 0 88 3t70 9q27 5 46 14q17 8 17 18q0 6 -5 11q-4 5 -18 9q-11 4 -36 7q-28 4 -57 5l-173 7v182l5 6l103 -3q57 -2 87 1q34 3 55 12t30 25q10 18 11 42l-4 3q-29 -19 -66 -30q-36 -10 -82 -10q-89 0 -135 33t-46 102q0 46 17 92q16 44 45 79t66 56
t80 21q44 0 84 -26t68 -69t45 -102q17 -60 17 -125q0 -70 -16 -114q-16 -45 -58 -73v-4zM529 418l-1 -1q49 0 97 6q-20 31 -54 50q-35 20 -79 20q-31 0 -55 -15t-24 -35q0 -13 25 -19q26 -6 91 -6zM524 896l84 -82l-84 -82h-10l-84 82l84 82h10zM493 -471h-10l-69 67
l-69 -67h-10l-84 82l84 82h10l69 -67l69 67h10l84 -82z" />
    <glyph glyph-name="uniFC35" unicode="&#xfed7;&#xfef0;" horiz-adv-x="788" arabic-form="isolated" 
d="M674 151l-3 -4q41 -23 57 -54q17 -32 17 -75q0 -59 -23 -108q-22 -48 -66 -81q-43 -33 -107 -51q-63 -18 -143 -18q-92 0 -164 21q-70 20 -121 62q-49 40 -76 99q-27 58 -27 134q0 53 7 105q7 55 21 105h110v-9q-8 -31 -12 -66q-4 -31 -4 -66q0 -43 17 -77q16 -33 52 -55
t92 -33q53 -10 135 -10q48 0 88 3t70 9q27 5 46 14q17 8 17 18q0 6 -5 11q-4 5 -18 9q-11 4 -36 7q-28 4 -57 5l-173 7v182l5 6l103 -3q57 -2 87 1q34 3 55 12t30 25q10 18 11 42l-4 3q-29 -19 -66 -30q-36 -10 -82 -10q-89 0 -135 33t-46 102q0 46 17 92q16 44 45 79t66 56
t80 21q44 0 84 -26t68 -69t45 -102q17 -60 17 -125q0 -70 -16 -114q-16 -45 -58 -73v-4zM529 418l-1 -1q49 0 97 6q-20 31 -54 50q-35 20 -79 20q-31 0 -55 -15t-24 -35q0 -13 25 -19q26 -6 91 -6zM598 732h-10l-69 67l-69 -67h-10l-84 82l84 82h10l69 -67l69 67h10l84 -82z
" />
    <glyph glyph-name="uniFC36" unicode="&#xfed7;&#xfef2;" horiz-adv-x="788" arabic-form="isolated" 
d="M674 151l-3 -4q41 -23 57 -54q17 -32 17 -75q0 -59 -23 -108q-22 -48 -66 -81q-43 -33 -107 -51q-63 -18 -143 -18q-92 0 -164 21q-70 20 -121 62q-49 40 -76 99q-27 58 -27 134q0 53 7 105q7 55 21 105h110v-9q-8 -31 -12 -66q-4 -31 -4 -66q0 -43 17 -77q16 -33 52 -55
t92 -33q53 -10 135 -10q48 0 88 3t70 9q27 5 46 14q17 8 17 18q0 6 -5 11q-4 5 -18 9q-11 4 -36 7q-28 4 -57 5l-173 7v182l5 6l103 -3q57 -2 87 1q34 3 55 12t30 25q10 18 11 42l-4 3q-29 -19 -66 -30q-36 -10 -82 -10q-89 0 -135 33t-46 102q0 46 17 92q16 44 45 79t66 56
t80 21q44 0 84 -26t68 -69t45 -102q17 -60 17 -125q0 -70 -16 -114q-16 -45 -58 -73v-4zM529 418l-1 -1q49 0 97 6q-20 31 -54 50q-35 20 -79 20q-31 0 -55 -15t-24 -35q0 -13 25 -19q26 -6 91 -6zM493 -471h-10l-69 67l-69 -67h-10l-84 82l84 82h10l69 -67l69 67h10l84 -82
zM598 732h-10l-69 67l-69 -67h-10l-84 82l84 82h10l69 -67l69 67h10l84 -82z" />
    <glyph glyph-name="uniFC3D" unicode="&#xfedb;&#xfef0;" horiz-adv-x="830" arabic-form="isolated" 
d="M408 -255h-1q-92 0 -164 21q-70 20 -121 62q-49 40 -76 99t-27 134q0 53 7 105q8 56 21 105h110v-9q-7 -32 -12 -66q-4 -31 -4 -66q0 -43 17 -77q16 -33 52 -55t92 -33q53 -10 135 -10q34 0 88 2q40 1 70 6q31 5 46 10q17 6 17 14q0 5 -5 10t-18 8t-36 6q-6 1 -25 3.5
t-32 4.5l-143 18v182l5 6l142 -14l56 -4q21 -1 33 0q13 2 17 6q5 5 5 12q0 11 -15 21q-16 11 -58 33l-213 110v190l446 174h12v-162l-283 -105l38 -25q41 -27 76 -54q32 -24 51 -48q19 -23 28 -49t9 -54q0 -40 -15 -73t-61 -64v-4q46 -19 61 -49t15 -67q0 -126 -82 -190
t-258 -64z" />
    <glyph glyph-name="uniFC3E" unicode="&#xfedb;&#xfef2;" horiz-adv-x="830" arabic-form="isolated" 
d="M408 -255h-1q-92 0 -164 21q-70 20 -121 62q-49 40 -76 99t-27 134q0 53 7 105q8 56 21 105h110v-9q-7 -32 -12 -66q-4 -31 -4 -66q0 -43 17 -77q16 -33 52 -55t92 -33q53 -10 135 -10q34 0 88 2q40 1 70 6q31 5 46 10q17 6 17 14q0 5 -5 10t-18 8t-36 6q-6 1 -25 3.5
t-32 4.5l-143 18v182l5 6l142 -14l56 -4q21 -1 33 0q13 2 17 6q5 5 5 12q0 11 -15 21q-16 11 -58 33l-213 110v190l446 174h12v-162l-283 -105l38 -25q41 -27 76 -54q32 -24 51 -48q19 -23 28 -49t9 -54q0 -40 -15 -73t-61 -64v-4q46 -19 61 -49t15 -67q0 -126 -82 -190
t-258 -64zM486 -486h-10l-69 67l-69 -67h-10l-84 82l84 82h10l69 -67l69 67h10l84 -82z" />
    <glyph glyph-name="uniFC42" unicode="&#xfedf;&#xfee2;" horiz-adv-x="534" arabic-form="isolated" 
d="M279 282l-2 -1q-12 53 -12 129v334h140v-337q0 -64 4 -100q5 -42 13 -67q40 -16 90 -48l50 -31l-100 -161l-50 31q-51 32 -90 46q-36 13 -76 13q-39 0 -58 -19t-19 -69v-317h-140v317q0 146 54 212t164 66h15q10 0 15 -1z" />
    <glyph glyph-name="uniFC43" unicode="&#xfedf;&#xfef0;" horiz-adv-x="798" arabic-form="isolated" 
d="M660 135l-5 -1q49 -20 69 -54q20 -35 20 -79q0 -59 -23 -108q-23 -48 -66 -81t-107 -51q-63 -18 -143 -18q-92 0 -164 21q-70 20 -121 62q-49 40 -76 99t-27 134q0 53 7 105q8 56 21 105h110v-9q-7 -32 -12 -66q-4 -31 -4 -66q0 -43 17 -77q16 -33 52 -55t92 -33
q53 -10 135 -10q47 0 88 3q40 3 70 9q27 5 46 14q17 8 17 18q0 6 -5 11q-5 4 -18 9q-11 4 -36 7q-28 4 -57 5l-143 7v182l5 6l111 -5q39 -2 54 13t15 46v466h140v-466q0 -41 -12 -74t-50 -65v-4z" />
    <glyph glyph-name="uniFC44" unicode="&#xfedf;&#xfef2;" horiz-adv-x="798" arabic-form="isolated" 
d="M660 135l-5 -1q49 -20 69 -54q20 -35 20 -79q0 -59 -23 -108q-23 -48 -66 -81t-107 -51q-63 -18 -143 -18q-92 0 -164 21q-70 20 -121 62q-49 40 -76 99t-27 134q0 53 7 105q8 56 21 105h110v-9q-7 -32 -12 -66q-4 -31 -4 -66q0 -43 17 -77q16 -33 52 -55t92 -33
q53 -10 135 -10q47 0 88 3q40 3 70 9q27 5 46 14q17 8 17 18q0 6 -5 11q-5 4 -18 9q-11 4 -36 7q-28 4 -57 5l-143 7v182l5 6l111 -5q39 -2 54 13t15 46v466h140v-466q0 -41 -12 -74t-50 -65v-4zM482 -487h-10l-69 67l-69 -67h-10l-84 82l84 82h10l69 -67l69 67h10l84 -82z
" />
    <glyph glyph-name="uniFC4F" unicode="&#xfee7;&#xfef0;" horiz-adv-x="765" arabic-form="isolated" 
d="M408 -161l-4 -2q-92 0 -164 21q-70 20 -121 62q-49 40 -76 99t-27 134q0 53 7 105q7 56 21 105h110v-9q-8 -32 -12 -66q-4 -31 -4 -66q0 -43 17 -77q16 -33 52 -55t92 -33q53 -10 135 -10q48 0 88 3t70 9q27 5 46 14q17 8 17 18q0 6 -5 11q-4 4 -18 9q-11 4 -36 7
q-28 4 -57 5l-143 7v182l5 6l121 -5q43 -2 60 13q18 15 18 46q0 27 -6 69q-7 46 -19 100l5 6h121q11 -55 15 -97q5 -48 5 -78q0 -39 -11 -72q-10 -32 -39 -54v-4q40 -24 58 -58t18 -79q0 -60 -23 -111q-22 -50 -66 -84q-44 -35 -107 -53t-143 -18zM629 780l84 -82l-84 -82
h-10l-84 82l84 82h10z" />
    <glyph glyph-name="uniFC50" unicode="&#xfee7;&#xfef2;" horiz-adv-x="765" arabic-form="isolated" 
d="M408 -161l-4 -2q-92 0 -164 21q-70 20 -121 62q-49 40 -76 99t-27 134q0 53 7 105q7 56 21 105h110v-9q-8 -32 -12 -66q-4 -31 -4 -66q0 -43 17 -77q16 -33 52 -55t92 -33q53 -10 135 -10q48 0 88 3t70 9q27 5 46 14q17 8 17 18q0 6 -5 11q-4 4 -18 9q-11 4 -36 7
q-28 4 -57 5l-143 7v182l5 6l121 -5q43 -2 60 13q18 15 18 46q0 27 -6 69q-7 46 -19 100l5 6h121q11 -55 15 -97q5 -48 5 -78q0 -39 -11 -72q-10 -32 -39 -54v-4q40 -24 58 -58t18 -79q0 -60 -23 -111q-22 -50 -66 -84q-44 -35 -107 -53t-143 -18zM629 780l84 -82l-84 -82
h-10l-84 82l84 82h10zM483 -394h-10l-69 67l-69 -67h-10l-84 82l84 82h10l69 -67l69 67h10l84 -82z" />
    <glyph glyph-name="uniFC59" unicode="&#xfef3;&#xfef0;" horiz-adv-x="765" arabic-form="isolated" 
d="M408 -161l-4 -2q-92 0 -164 21q-70 20 -121 62q-49 40 -76 99t-27 134q0 53 7 105q7 56 21 105h110v-9q-8 -32 -12 -66q-4 -31 -4 -66q0 -43 17 -77q16 -33 52 -55t92 -33q53 -10 135 -10q48 0 88 3t70 9q27 5 46 14q17 8 17 18q0 6 -5 11q-4 4 -18 9q-11 4 -36 7
q-28 4 -57 5l-143 7v182l5 6l121 -5q43 -2 60 13q18 15 18 46q0 27 -6 69q-7 46 -19 100l5 6h121q11 -55 15 -97q5 -48 5 -78q0 -39 -11 -72q-10 -32 -39 -54v-4q40 -24 58 -58t18 -79q0 -60 -23 -111q-22 -50 -66 -84q-44 -35 -107 -53t-143 -18zM788 -344h-10l-69 67
l-69 -67h-10l-84 82l84 82h10l69 -67l69 67h10l84 -82z" />
    <glyph glyph-name="uniFC5A" unicode="&#xfef3;&#xfef2;" horiz-adv-x="765" arabic-form="isolated" 
d="M408 -161l-4 -2q-92 0 -164 21q-70 20 -121 62q-49 40 -76 99t-27 134q0 53 7 105q7 56 21 105h110v-9q-8 -32 -12 -66q-4 -31 -4 -66q0 -43 17 -77q16 -33 52 -55t92 -33q53 -10 135 -10q48 0 88 3t70 9q27 5 46 14q17 8 17 18q0 6 -5 11q-4 4 -18 9q-11 4 -36 7
q-28 4 -57 5l-143 7v182l5 6l121 -5q43 -2 60 13q18 15 18 46q0 27 -6 69q-7 46 -19 100l5 6h121q11 -55 15 -97q5 -48 5 -78q0 -39 -11 -72q-10 -32 -39 -54v-4q40 -24 58 -58t18 -79q0 -60 -23 -111q-22 -50 -66 -84q-44 -35 -107 -53t-143 -18zM335 -394h-10l-69 67
l-69 -67h-10l-84 82l84 82h10l69 -67l69 67h10l84 -82zM640 -344h-10l-69 67l-69 -67h-10l-84 82l84 82h10l69 -67l69 67h10l84 -82z" />
    <glyph glyph-name="uniFC64" unicode="&#xfe8c;&#xfeae;" horiz-adv-x="667" arabic-form="final" 
d="M63 -254l-2 -2q-44 0 -85 22q-43 23 -77 63v111l10 9q33 -12 63 -17q33 -6 63 -6q31 0 57 14q25 13 45 38q19 24 30 57q11 35 11 72q0 43 -12 108q-11 60 -35 138l6 8h121l15 -57l158 25v62h120v-144q0 -17 6 -27q6 -11 19 -18q12 -7 36 -10q22 -3 54 -3h1v-160l-30 -30
h-1q-80 0 -126 27t-63 90l-6 22l-141 -23v-8q0 -77 -18 -143q-17 -64 -50 -115q-31 -49 -75 -76q-43 -27 -94 -27zM405 518l-1 -1q-9 23 -9 39q0 51 35 83t86 32q71 0 71 -69v-40h-50v6q0 19 -35 19q-24 0 -40 -9t-16 -21q0 -11 12 -21t35 -18h116v-80h-238v80h34z" />
    <glyph glyph-name="uniFC65" unicode="&#xfe8c;&#xfeb0;" horiz-adv-x="667" arabic-form="final" 
d="M63 -254l-2 -2q-44 0 -85 22q-43 23 -77 63v111l10 9q33 -12 63 -17q33 -6 63 -6q31 0 57 14q25 13 45 38q19 24 30 57q11 35 11 72q0 43 -12 108q-11 60 -35 138l6 8h121l15 -57l158 25v62h120v-144q0 -17 6 -27q6 -11 19 -18q12 -7 36 -10q22 -3 54 -3h1v-160l-30 -30
h-1q-80 0 -126 27t-63 90l-6 22l-141 -23v-8q0 -77 -18 -143q-17 -64 -50 -115q-31 -49 -75 -76q-43 -27 -94 -27zM405 518l-1 -1q-9 23 -9 39q0 51 35 83t86 32q71 0 71 -69v-40h-50v6q0 19 -35 19q-24 0 -40 -9t-16 -21q0 -11 12 -21t35 -18h116v-80h-238v80h34zM186 593
l84 -82l-84 -82h-10l-84 82l84 82h10z" />
    <glyph glyph-name="uniFC67" unicode="&#xfe8c;&#xfee6;" horiz-adv-x="1042" arabic-form="final" 
d="M338 -221l-4 -2q-76 0 -134 21t-99 60q-41 40 -62 96q-21 57 -21 129q0 50 7 93q7 46 21 93h110v-12q-7 -25 -12 -56q-4 -27 -4 -59q0 -74 51 -114q52 -41 144 -41q217 0 217 123q0 35 -11 99q-11 61 -30 144l6 8h121l13 -57l155 25v62h120v-144q0 -17 6 -27
q6 -11 19 -18q12 -7 36 -10q23 -3 54 -3h1v-160l-30 -30h-1q-86 0 -133 32q-46 31 -60 105l-1 5l-141 -25v-4q0 -78 -24 -140t-67 -105q-44 -44 -106 -66t-141 -22zM779 518l-1 -1q-9 23 -9 39q0 51 35 83t86 32q71 0 71 -69v-40h-50v6q0 19 -35 19q-24 0 -40 -9t-16 -21
q0 -11 12 -21t35 -18h116v-80h-238v80h34zM334 473l84 -82l-84 -82h-10l-84 82l84 82h10z" />
    <glyph glyph-name="uniFC68" unicode="&#xfe8c;&#xfef0;" horiz-adv-x="937" arabic-form="final" 
d="M545 550l-1 -1q-9 23 -9 39q0 51 35 83t86 32q71 0 71 -69v-40h-50v6q0 19 -35 19q-24 0 -40 -9t-16 -21q0 -11 12 -21t35 -18h116v-80h-238v80h34zM407 -326v-3q-94 0 -164 22q-72 23 -121 64t-76 102q-27 60 -27 135q0 51 7 101q8 54 21 102h110v-9q-7 -28 -12 -62
q-4 -29 -4 -62q0 -93 69 -138t227 -45q101 0 156 9t55 24q0 5 -4 9q-5 5 -16 8q-13 3 -31 6q-2 0 -20.5 3t-30.5 5l-77 11q-84 12 -123 48t-39 105q0 60 26 117q26 56 70 99q45 44 103 69q60 26 125 26q50 0 95 -24q46 -24 77 -81l29 -51q25 -43 46 -59q23 -17 58 -17h1
v-160l-30 -30h-1q-30 0 -54 6q-23 6 -45 20q-19 12 -40 38q-19 24 -39 57l-30 51q-20 34 -51 47q-33 14 -75 14q-28 0 -61 -5q-31 -5 -52 -13q-24 -10 -36 -19q-14 -11 -14 -23q0 -11 18 -19q18 -7 65 -15l77 -11q88 -12 128 -51q41 -39 41 -113q0 -138 -81 -213t-250 -75z
" />
    <glyph glyph-name="uniFC69" unicode="&#xfe8c;&#xfef2;" horiz-adv-x="937" arabic-form="final" 
d="M545 550l-1 -1q-9 23 -9 39q0 51 35 83t86 32q71 0 71 -69v-40h-50v6q0 19 -35 19q-24 0 -40 -9t-16 -21q0 -11 12 -21t35 -18h116v-80h-238v80h34zM486 -557h-10l-69 67l-69 -67h-10l-84 82l84 82h10l69 -67l69 67h10l84 -82zM407 -326v-3q-94 0 -164 22q-72 23 -121 64
t-76 102q-27 60 -27 135q0 51 7 101q8 54 21 102h110v-9q-7 -28 -12 -62q-4 -29 -4 -62q0 -93 69 -138t227 -45q101 0 156 9t55 24q0 5 -4 9q-5 5 -16 8q-13 3 -31 6q-2 0 -20.5 3t-30.5 5l-77 11q-84 12 -123 48t-39 105q0 60 26 117q26 56 70 99q45 44 103 69
q60 26 125 26q50 0 95 -24q46 -24 77 -81l29 -51q25 -43 46 -59q23 -17 58 -17h1v-160l-30 -30h-1q-30 0 -54 6q-23 6 -45 20q-19 12 -40 38q-19 24 -39 57l-30 51q-20 34 -51 47q-33 14 -75 14q-28 0 -61 -5q-31 -5 -52 -13q-24 -10 -36 -19q-14 -11 -14 -23q0 -11 18 -19
q18 -7 65 -15l77 -11q88 -12 128 -51q41 -39 41 -113q0 -138 -81 -213t-250 -75z" />
    <glyph glyph-name="uniFC6A" unicode="&#xfe92;&#xfeae;" horiz-adv-x="667" arabic-form="final" 
d="M63 -254l-2 -2q-44 0 -85 22q-43 23 -77 63v111l10 9q33 -12 63 -17q33 -6 63 -6q31 0 57 14q25 13 45 38q19 24 30 57q11 35 11 72q0 43 -12 108q-11 60 -35 138l6 8h121l15 -57l158 25v62h120v-144q0 -17 6 -27q6 -11 19 -18q12 -7 36 -10q22 -3 54 -3h1v-160l-30 -30
h-1q-80 0 -126 27t-63 90l-6 22l-141 -23v-8q0 -77 -18 -143q-17 -64 -50 -115q-31 -49 -75 -76q-43 -27 -94 -27zM492 -69l84 -82l-84 -82h-10l-84 82l84 82h10z" />
    <glyph glyph-name="uniFC6B" unicode="&#xfe92;&#xfeb0;" horiz-adv-x="667" arabic-form="final" 
d="M63 -254l-2 -2q-44 0 -85 22q-43 23 -77 63v111l10 9q33 -12 63 -17q33 -6 63 -6q31 0 57 14q25 13 45 38q19 24 30 57q11 35 11 72q0 43 -12 108q-11 60 -35 138l6 8h121l15 -57l158 25v62h120v-144q0 -17 6 -27q6 -11 19 -18q12 -7 36 -10q22 -3 54 -3h1v-160l-30 -30
h-1q-80 0 -126 27t-63 90l-6 22l-141 -23v-8q0 -77 -18 -143q-17 -64 -50 -115q-31 -49 -75 -76q-43 -27 -94 -27zM492 -69l84 -82l-84 -82h-10l-84 82l84 82h10zM187 594l84 -82l-84 -82h-10l-84 82l84 82h10z" />
    <glyph glyph-name="uniFC6D" unicode="&#xfe92;&#xfee6;" horiz-adv-x="1042" arabic-form="final" 
d="M338 -221l-4 -2q-76 0 -134 21t-99 60q-41 40 -62 96q-21 57 -21 129q0 50 7 93q7 46 21 93h110v-12q-7 -25 -12 -56q-4 -27 -4 -59q0 -74 51 -114q52 -41 144 -41q217 0 217 123q0 35 -11 99q-11 61 -30 144l6 8h121l13 -57l155 25v62h120v-144q0 -17 6 -27
q6 -11 19 -18q12 -7 36 -10q23 -3 54 -3h1v-160l-30 -30h-1q-86 0 -133 32q-46 31 -60 105l-1 5l-141 -25v-4q0 -78 -24 -140t-67 -105q-44 -44 -106 -66t-141 -22zM335 474l84 -82l-84 -82h-10l-84 82l84 82h10zM844 -69l84 -82l-84 -82h-10l-84 82l84 82h10z" />
    <glyph glyph-name="uniFC6E" unicode="&#xfe92;&#xfef0;" horiz-adv-x="937" arabic-form="final" 
d="M797 -272l84 -82l-84 -82h-10l-84 82l84 82h10zM408 -325v-3q-94 0 -164 22q-72 23 -121 64t-76 102q-27 60 -27 135q0 51 7 101q7 54 21 102h110v-9q-7 -28 -12 -62q-4 -29 -4 -62q0 -93 69 -138t227 -45q100 0 156 9q55 9 55 24q0 5 -4 9q-5 5 -16 8q-13 3 -31 6
q-2 0 -20.5 3t-30.5 5l-77 11q-84 12 -123 48t-39 105q0 60 26 117q26 56 70 99q45 44 103 69q60 26 125 26q50 0 95 -24q46 -24 77 -81l29 -51q25 -43 46 -59q23 -17 58 -17h1v-160l-30 -30h-1q-30 0 -54 6q-23 6 -45 20q-19 12 -40 38q-20 24 -39 57l-30 51q-20 34 -51 47
q-33 14 -75 14q-28 0 -61 -5q-31 -5 -52 -13q-24 -10 -36 -19q-14 -11 -14 -23t18 -19t65 -15l77 -11q88 -12 128 -51q41 -39 41 -113q0 -138 -81 -213t-250 -75z" />
    <glyph glyph-name="uniFC6F" unicode="&#xfe92;&#xfef2;" horiz-adv-x="937" arabic-form="final" 
d="M797 -272l84 -82l-84 -82h-10l-84 82l84 82h10zM487 -556h-10l-69 67l-69 -67h-10l-84 82l84 82h10l69 -67l69 67h10l84 -82zM408 -325v-3q-94 0 -164 22q-72 23 -121 64t-76 102q-27 60 -27 135q0 51 7 101q7 54 21 102h110v-9q-7 -28 -12 -62q-4 -29 -4 -62
q0 -93 69 -138t227 -45q100 0 156 9q55 9 55 24q0 5 -4 9q-5 5 -16 8q-13 3 -31 6q-2 0 -20.5 3t-30.5 5l-77 11q-84 12 -123 48t-39 105q0 60 26 117q26 56 70 99q45 44 103 69q60 26 125 26q50 0 95 -24q46 -24 77 -81l29 -51q25 -43 46 -59q23 -17 58 -17h1v-160l-30 -30
h-1q-30 0 -54 6q-23 6 -45 20q-19 12 -40 38q-20 24 -39 57l-30 51q-20 34 -51 47q-33 14 -75 14q-28 0 -61 -5q-31 -5 -52 -13q-24 -10 -36 -19q-14 -11 -14 -23t18 -19t65 -15l77 -11q88 -12 128 -51q41 -39 41 -113q0 -138 -81 -213t-250 -75z" />
    <glyph glyph-name="uniFC70" unicode="&#xfe98;&#xfeae;" horiz-adv-x="667" arabic-form="final" 
d="M63 -254l-2 -2q-44 0 -85 22q-43 23 -77 63v111l10 9q33 -12 63 -17q33 -6 63 -6q31 0 57 14q25 13 45 38q19 24 30 57q11 35 11 72q0 43 -12 108q-11 60 -35 138l6 8h121l15 -57l158 25v62h120v-144q0 -17 6 -27q6 -11 19 -18q12 -7 36 -10q22 -3 54 -3h1v-160l-30 -30
h-1q-80 0 -126 27t-63 90l-6 22l-141 -23v-8q0 -77 -18 -143q-17 -64 -50 -115q-31 -49 -75 -76q-43 -27 -94 -27zM569 460h-10l-69 67l-69 -67h-10l-84 82l84 82h10l69 -67l69 67h10l84 -82z" />
    <glyph glyph-name="uniFC71" unicode="&#xfe98;&#xfeb0;" horiz-adv-x="667" arabic-form="final" 
d="M63 -254l-2 -2q-44 0 -85 22q-43 23 -77 63v111l10 9q33 -12 63 -17q33 -6 63 -6q31 0 57 14q25 13 45 38q19 24 30 57q11 35 11 72q0 43 -12 108q-11 60 -35 138l6 8h121l15 -57l158 25v62h120v-144q0 -17 6 -27q6 -11 19 -18q12 -7 36 -10q22 -3 54 -3h1v-160l-30 -30
h-1q-80 0 -126 27t-63 90l-6 22l-141 -23v-8q0 -77 -18 -143q-17 -64 -50 -115q-31 -49 -75 -76q-43 -27 -94 -27zM569 460h-10l-69 67l-69 -67h-10l-84 82l84 82h10l69 -67l69 67h10l84 -82zM187 594l84 -82l-84 -82h-10l-84 82l84 82h10z" />
    <glyph glyph-name="uniFC73" unicode="&#xfe98;&#xfee6;" horiz-adv-x="1042" arabic-form="final" 
d="M338 -221l-4 -2q-76 0 -134 21t-99 60q-41 40 -62 96q-21 57 -21 129q0 50 7 93q7 46 21 93h110v-12q-7 -25 -12 -56q-4 -27 -4 -59q0 -74 51 -114q52 -41 144 -41q217 0 217 123q0 35 -11 99q-11 61 -30 144l6 8h121l13 -57l155 25v62h120v-144q0 -17 6 -27
q6 -11 19 -18q12 -7 36 -10q23 -3 54 -3h1v-160l-30 -30h-1q-86 0 -133 32q-46 31 -60 105l-1 5l-141 -25v-4q0 -78 -24 -140t-67 -105q-44 -44 -106 -66t-141 -22zM335 474l84 -82l-84 -82h-10l-84 82l84 82h10zM943 460h-10l-69 67l-69 -67h-10l-84 82l84 82h10l69 -67
l69 67h10l84 -82z" />
    <glyph glyph-name="uniFC74" unicode="&#xfe98;&#xfef0;" horiz-adv-x="937" arabic-form="final" 
d="M709 492h-10l-69 67l-69 -67h-10l-84 82l84 82h10l69 -67l69 67h10l84 -82zM408 -325v-3q-94 0 -164 22q-72 23 -121 64t-76 102q-27 60 -27 135q0 51 7 101q7 54 21 102h110v-9q-7 -28 -12 -62q-4 -29 -4 -62q0 -93 69 -138t227 -45q100 0 156 9q55 9 55 24q0 5 -4 9
q-5 5 -16 8q-13 3 -31 6q-2 0 -20.5 3t-30.5 5l-77 11q-84 12 -123 48t-39 105q0 60 26 117q26 56 70 99q45 44 103 69q60 26 125 26q50 0 95 -24q46 -24 77 -81l29 -51q25 -43 46 -59q23 -17 58 -17h1v-160l-30 -30h-1q-30 0 -54 6q-23 6 -45 20q-19 12 -40 38
q-20 24 -39 57l-30 51q-20 34 -51 47q-33 14 -75 14q-28 0 -61 -5q-31 -5 -52 -13q-24 -10 -36 -19q-14 -11 -14 -23t18 -19t65 -15l77 -11q88 -12 128 -51q41 -39 41 -113q0 -138 -81 -213t-250 -75z" />
    <glyph glyph-name="uniFC75" unicode="&#xfe98;&#xfef2;" horiz-adv-x="937" arabic-form="final" 
d="M709 492h-10l-69 67l-69 -67h-10l-84 82l84 82h10l69 -67l69 67h10l84 -82zM487 -556h-10l-69 67l-69 -67h-10l-84 82l84 82h10l69 -67l69 67h10l84 -82zM408 -325v-3q-94 0 -164 22q-72 23 -121 64t-76 102q-27 60 -27 135q0 51 7 101q7 54 21 102h110v-9
q-7 -28 -12 -62q-4 -29 -4 -62q0 -93 69 -138t227 -45q100 0 156 9q55 9 55 24q0 5 -4 9q-5 5 -16 8q-13 3 -31 6q-2 0 -20.5 3t-30.5 5l-77 11q-84 12 -123 48t-39 105q0 60 26 117q26 56 70 99q45 44 103 69q60 26 125 26q50 0 95 -24q46 -24 77 -81l29 -51q25 -43 46 -59
q23 -17 58 -17h1v-160l-30 -30h-1q-30 0 -54 6q-23 6 -45 20q-19 12 -40 38q-20 24 -39 57l-30 51q-20 34 -51 47q-33 14 -75 14q-28 0 -61 -5q-31 -5 -52 -13q-24 -10 -36 -19q-14 -11 -14 -23t18 -19t65 -15l77 -11q88 -12 128 -51q41 -39 41 -113q0 -138 -81 -213
t-250 -75z" />
    <glyph glyph-name="uniFC76" unicode="&#xfe9c;&#xfeae;" horiz-adv-x="667" arabic-form="final" 
d="M63 -254l-2 -2q-44 0 -85 22q-43 23 -77 63v111l10 9q33 -12 63 -17q33 -6 63 -6q31 0 57 14q25 13 45 38q19 24 30 57q11 35 11 72q0 43 -12 108q-11 60 -35 138l6 8h121l15 -57l158 25v62h120v-144q0 -17 6 -27q6 -11 19 -18q12 -7 36 -10q22 -3 54 -3h1v-160l-30 -30
h-1q-80 0 -126 27t-63 90l-6 22l-141 -23v-8q0 -77 -18 -143q-17 -64 -50 -115q-31 -49 -75 -76q-43 -27 -94 -27zM404 686l81 79h10l81 -79l-81 -79h-10zM569 460h-10l-69 67l-69 -67h-10l-84 82l84 82h10l69 -67l69 67h10l84 -82z" />
    <glyph glyph-name="uniFC77" unicode="&#xfe9c;&#xfeb0;" horiz-adv-x="667" arabic-form="final" 
d="M63 -254l-2 -2q-44 0 -85 22q-43 23 -77 63v111l10 9q33 -12 63 -17q33 -6 63 -6q31 0 57 14q25 13 45 38q19 24 30 57q11 35 11 72q0 43 -12 108q-11 60 -35 138l6 8h121l15 -57l158 25v62h120v-144q0 -17 6 -27q6 -11 19 -18q12 -7 36 -10q22 -3 54 -3h1v-160l-30 -30
h-1q-80 0 -126 27t-63 90l-6 22l-141 -23v-8q0 -77 -18 -143q-17 -64 -50 -115q-31 -49 -75 -76q-43 -27 -94 -27zM404 686l81 79h10l81 -79l-81 -79h-10zM569 460h-10l-69 67l-69 -67h-10l-84 82l84 82h10l69 -67l69 67h10l84 -82zM187 594l84 -82l-84 -82h-10l-84 82
l84 82h10z" />
    <glyph glyph-name="uniFC79" unicode="&#xfe9c;&#xfee6;" horiz-adv-x="1042" arabic-form="final" 
d="M338 -221l-4 -2q-76 0 -134 21t-99 60q-41 40 -62 96q-21 57 -21 129q0 50 7 93q7 46 21 93h110v-12q-7 -25 -12 -56q-4 -27 -4 -59q0 -74 51 -114q52 -41 144 -41q217 0 217 123q0 35 -11 99q-11 61 -30 144l6 8h121l13 -57l155 25v62h120v-144q0 -17 6 -27
q6 -11 19 -18q12 -7 36 -10q23 -3 54 -3h1v-160l-30 -30h-1q-86 0 -133 32q-46 31 -60 105l-1 5l-141 -25v-4q0 -78 -24 -140t-67 -105q-44 -44 -106 -66t-141 -22zM335 474l84 -82l-84 -82h-10l-84 82l84 82h10zM778 686l81 79h10l81 -79l-81 -79h-10zM943 460h-10l-69 67
l-69 -67h-10l-84 82l84 82h10l69 -67l69 67h10l84 -82z" />
    <glyph glyph-name="uniFC7A" unicode="&#xfe9c;&#xfef0;" horiz-adv-x="937" arabic-form="final" 
d="M544 718l81 79h10l81 -79l-81 -79h-10zM709 492h-10l-69 67l-69 -67h-10l-84 82l84 82h10l69 -67l69 67h10l84 -82zM408 -325v-3q-94 0 -164 22q-72 23 -121 64t-76 102q-27 60 -27 135q0 51 7 101q7 54 21 102h110v-9q-7 -28 -12 -62q-4 -29 -4 -62q0 -93 69 -138
t227 -45q100 0 156 9q55 9 55 24q0 5 -4 9q-5 5 -16 8q-13 3 -31 6q-2 0 -20.5 3t-30.5 5l-77 11q-84 12 -123 48t-39 105q0 60 26 117q26 56 70 99q45 44 103 69q60 26 125 26q50 0 95 -24q46 -24 77 -81l29 -51q25 -43 46 -59q23 -17 58 -17h1v-160l-30 -30h-1
q-30 0 -54 6q-23 6 -45 20q-19 12 -40 38q-20 24 -39 57l-30 51q-20 34 -51 47q-33 14 -75 14q-28 0 -61 -5q-31 -5 -52 -13q-24 -10 -36 -19q-14 -11 -14 -23t18 -19t65 -15l77 -11q88 -12 128 -51q41 -39 41 -113q0 -138 -81 -213t-250 -75z" />
    <glyph glyph-name="uniFC7B" unicode="&#xfe9c;&#xfef2;" horiz-adv-x="937" arabic-form="final" 
d="M544 718l81 79h10l81 -79l-81 -79h-10zM709 492h-10l-69 67l-69 -67h-10l-84 82l84 82h10l69 -67l69 67h10l84 -82zM487 -556h-10l-69 67l-69 -67h-10l-84 82l84 82h10l69 -67l69 67h10l84 -82zM408 -325v-3q-94 0 -164 22q-72 23 -121 64t-76 102q-27 60 -27 135
q0 51 7 101q7 54 21 102h110v-9q-7 -28 -12 -62q-4 -29 -4 -62q0 -93 69 -138t227 -45q100 0 156 9q55 9 55 24q0 5 -4 9q-5 5 -16 8q-13 3 -31 6q-2 0 -20.5 3t-30.5 5l-77 11q-84 12 -123 48t-39 105q0 60 26 117q26 56 70 99q45 44 103 69q60 26 125 26q50 0 95 -24
q46 -24 77 -81l29 -51q25 -43 46 -59q23 -17 58 -17h1v-160l-30 -30h-1q-30 0 -54 6q-23 6 -45 20q-19 12 -40 38q-20 24 -39 57l-30 51q-20 34 -51 47q-33 14 -75 14q-28 0 -61 -5q-31 -5 -52 -13q-24 -10 -36 -19q-14 -11 -14 -23t18 -19t65 -15l77 -11q88 -12 128 -51
q41 -39 41 -113q0 -138 -81 -213t-250 -75z" />
    <glyph glyph-name="uniFC83" unicode="&#xfedc;&#xfef0;" horiz-adv-x="1110" arabic-form="final" 
d="M791 471l155 -190q13 -15 38 -43q15 -17 33 -28q17 -10 36 -15q22 -5 45 -5h10v-160l-30 -30q-29 0 -53 6t-48 21q-22 14 -51 41q-24 23 -61 66q-26 -104 -118 -128v-9q0 -121 -90 -187t-250 -66q-92 0 -164 21q-70 20 -121 62q-49 40 -76 99q-27 58 -27 134q0 53 7 105
q8 55 21 105h110v-9q-7 -31 -12 -66q-4 -31 -4 -66q0 -43 17 -77q16 -33 52 -55t92 -33q53 -10 135 -10q34 0 88 2q40 1 70 6q31 5 46 10q17 6 17 14q0 5 -5 10t-18 8t-36 6q-6 1 -25 3.5t-32 4.5l-143 18v182l5 6l142 -19q13 -1 35 -4t31 -4q6 -1 16 -2t17 -2t12 -1
q24 -2 29 -2h18q38 0 59 6q20 6 36 23l-137 172v190l446 174h12v-162z" />
    <glyph glyph-name="uniFC84" unicode="&#xfedc;&#xfef2;" horiz-adv-x="1110" arabic-form="final" 
d="M791 471l155 -190q13 -15 38 -43q15 -17 33 -28q17 -10 36 -15q22 -5 45 -5h10v-160l-30 -30q-29 0 -53 6t-48 21q-22 14 -51 41q-24 23 -61 66q-26 -104 -118 -128v-9q0 -121 -90 -187t-250 -66q-92 0 -164 21q-70 20 -121 62q-49 40 -76 99q-27 58 -27 134q0 53 7 105
q8 55 21 105h110v-9q-7 -31 -12 -66q-4 -31 -4 -66q0 -43 17 -77q16 -33 52 -55t92 -33q53 -10 135 -10q34 0 88 2q40 1 70 6q31 5 46 10q17 6 17 14q0 5 -5 10t-18 8t-36 6q-6 1 -25 3.5t-32 4.5l-143 18v182l5 6l142 -19q13 -1 35 -4t31 -4q6 -1 16 -2t17 -2t12 -1
q24 -2 29 -2h18q38 0 59 6q20 6 36 23l-137 172v190l446 174h12v-162zM484 -487h-10l-69 67l-69 -67h-10l-84 82l84 82h10l69 -67l69 67h10l84 -82z" />
    <glyph glyph-name="uniFC86" unicode="&#xfee0;&#xfef0;" horiz-adv-x="1012" arabic-form="final" 
d="M1012 30l-31 -33h-1q-70 0 -114 23q-44 22 -66 75q-17 -58 -54 -80q1 -3 1 -9v-9q0 -126 -82 -190t-258 -64q-92 0 -164 21q-70 20 -121 62q-49 40 -76 99t-27 134q0 53 7 105q8 56 21 105h110v-9q-7 -32 -12 -66q-4 -31 -4 -66q0 -43 17 -77q16 -33 52 -55t92 -33
q53 -10 135 -10q34 0 88 2q40 1 70 6q31 5 46 10q17 6 17 14q0 5 -5 10t-18 8t-36 6q-6 1 -25 3.5t-32 4.5l-143 18v182l5 6l142 -19q18 -2 49.5 -6t34.5 -4q33 -4 69 -4q48 0 81 14q-1 7 -1 21v21v499h140v-479q0 -43 20 -60q19 -16 72 -16h1v-160z" />
    <glyph glyph-name="uniFC87" unicode="&#xfee0;&#xfef2;" horiz-adv-x="1012" arabic-form="final" 
d="M1012 30l-31 -33h-1q-70 0 -114 23q-44 22 -66 75q-17 -58 -54 -80q1 -3 1 -9v-9q0 -126 -82 -190t-258 -64q-92 0 -164 21q-70 20 -121 62q-49 40 -76 99t-27 134q0 53 7 105q8 56 21 105h110v-9q-7 -32 -12 -66q-4 -31 -4 -66q0 -43 17 -77q16 -33 52 -55t92 -33
q53 -10 135 -10q34 0 88 2q40 1 70 6q31 5 46 10q17 6 17 14q0 5 -5 10t-18 8t-36 6q-6 1 -25 3.5t-32 4.5l-143 18v182l5 6l142 -19q18 -2 49.5 -6t34.5 -4q33 -4 69 -4q48 0 81 14q-1 7 -1 21v21v499h140v-479q0 -43 20 -60q19 -16 72 -16h1v-160zM486 -489h-10l-69 67
l-69 -67h-10l-84 82l84 82h10l69 -67l69 67h10l84 -82z" />
    <glyph glyph-name="uniFC8A" unicode="&#xfee8;&#xfeae;" horiz-adv-x="667" arabic-form="final" 
d="M63 -254l-2 -2q-44 0 -85 22q-43 23 -77 63v111l10 9q33 -12 63 -17q33 -6 63 -6q31 0 57 14q25 13 45 38q19 24 30 57q11 35 11 72q0 43 -12 108q-11 60 -35 138l6 8h121l15 -57l158 25v62h120v-144q0 -17 6 -27q6 -11 19 -18q12 -7 36 -10q22 -3 54 -3h1v-160l-30 -30
h-1q-80 0 -126 27t-63 90l-6 22l-141 -23v-8q0 -77 -18 -143q-17 -64 -50 -115q-31 -49 -75 -76q-43 -27 -94 -27zM495 624l84 -82l-84 -82h-10l-84 82l84 82h10z" />
    <glyph glyph-name="uniFC8B" unicode="&#xfee8;&#xfeb0;" horiz-adv-x="667" arabic-form="final" 
d="M63 -254l-2 -2q-44 0 -85 22q-43 23 -77 63v111l10 9q33 -12 63 -17q33 -6 63 -6q31 0 57 14q25 13 45 38q19 24 30 57q11 35 11 72q0 43 -12 108q-11 60 -35 138l6 8h121l15 -57l158 25v62h120v-144q0 -17 6 -27q6 -11 19 -18q12 -7 36 -10q22 -3 54 -3h1v-160l-30 -30
h-1q-80 0 -126 27t-63 90l-6 22l-141 -23v-8q0 -77 -18 -143q-17 -64 -50 -115q-31 -49 -75 -76q-43 -27 -94 -27zM113 594l84 -82l-84 -82h-10l-84 82l84 82h10zM421 624l84 -82l-84 -82h-10l-84 82l84 82h10z" />
    <glyph glyph-name="uniFC8D" unicode="&#xfee8;&#xfee6;" horiz-adv-x="1042" arabic-form="final" 
d="M338 -221l-4 -2q-76 0 -134 21t-99 60q-41 40 -62 96q-21 57 -21 129q0 50 7 93q7 46 21 93h110v-12q-7 -25 -12 -56q-4 -27 -4 -59q0 -74 51 -114q52 -41 144 -41q217 0 217 123q0 35 -11 99q-11 61 -30 144l6 8h121l13 -57l155 25v62h120v-144q0 -17 6 -27
q6 -11 19 -18q12 -7 36 -10q23 -3 54 -3h1v-160l-30 -30h-1q-86 0 -133 32q-46 31 -60 105l-1 5l-141 -25v-4q0 -78 -24 -140t-67 -105q-44 -44 -106 -66t-141 -22zM261 474l84 -82l-84 -82h-10l-84 82l84 82h10zM795 624l84 -82l-84 -82h-10l-84 82l84 82h10z" />
    <glyph glyph-name="uniFC8E" unicode="&#xfee8;&#xfef0;" horiz-adv-x="937" arabic-form="final" 
d="M635 656l84 -82l-84 -82h-10l-84 82l84 82h10zM408 -325v-3q-94 0 -164 22q-72 23 -121 64t-76 102q-27 60 -27 135q0 51 7 101q7 54 21 102h110v-9q-7 -28 -12 -62q-4 -29 -4 -62q0 -93 69 -138t227 -45q100 0 156 9q55 9 55 24q0 5 -4 9q-5 5 -16 8q-13 3 -31 6
q-2 0 -20.5 3t-30.5 5l-77 11q-84 12 -123 48t-39 105q0 60 26 117q26 56 70 99q45 44 103 69q60 26 125 26q50 0 95 -24q46 -24 77 -81l29 -51q25 -43 46 -59q23 -17 58 -17h1v-160l-30 -30h-1q-30 0 -54 6q-23 6 -45 20q-19 12 -40 38q-20 24 -39 57l-30 51q-20 34 -51 47
q-33 14 -75 14q-28 0 -61 -5q-31 -5 -52 -13q-24 -10 -36 -19q-14 -11 -14 -23t18 -19t65 -15l77 -11q88 -12 128 -51q41 -39 41 -113q0 -138 -81 -213t-250 -75z" />
    <glyph glyph-name="uniFC8F" unicode="&#xfee8;&#xfef2;" horiz-adv-x="937" arabic-form="final" 
d="M635 656l84 -82l-84 -82h-10l-84 82l84 82h10zM487 -556h-10l-69 67l-69 -67h-10l-84 82l84 82h10l69 -67l69 67h10l84 -82zM408 -325v-3q-94 0 -164 22q-72 23 -121 64t-76 102q-27 60 -27 135q0 51 7 101q7 54 21 102h110v-9q-7 -28 -12 -62q-4 -29 -4 -62
q0 -93 69 -138t227 -45q100 0 156 9q55 9 55 24q0 5 -4 9q-5 5 -16 8q-13 3 -31 6q-2 0 -20.5 3t-30.5 5l-77 11q-84 12 -123 48t-39 105q0 60 26 117q26 56 70 99q45 44 103 69q60 26 125 26q50 0 95 -24q46 -24 77 -81l29 -51q25 -43 46 -59q23 -17 58 -17h1v-160l-30 -30
h-1q-30 0 -54 6q-23 6 -45 20q-19 12 -40 38q-20 24 -39 57l-30 51q-20 34 -51 47q-33 14 -75 14q-28 0 -61 -5q-31 -5 -52 -13q-24 -10 -36 -19q-14 -11 -14 -23t18 -19t65 -15l77 -11q88 -12 128 -51q41 -39 41 -113q0 -138 -81 -213t-250 -75z" />
    <glyph glyph-name="uniFC91" unicode="&#xfef4;&#xfeae;" horiz-adv-x="667" arabic-form="final" 
d="M63 -254l-2 -2q-44 0 -85 22q-43 23 -77 63v111l10 9q33 -12 63 -17q33 -6 63 -6q31 0 57 14q25 13 45 38q19 24 30 57q11 35 11 72q0 43 -12 108q-11 60 -35 138l6 8h121l15 -57l158 25v62h120v-144q0 -17 6 -27q6 -11 19 -18q12 -7 36 -10q22 -3 54 -3h1v-160l-30 -30
h-1q-80 0 -126 27t-63 90l-6 22l-141 -23v-8q0 -77 -18 -143q-17 -64 -50 -115q-31 -49 -75 -76q-43 -27 -94 -27zM566 -233h-10l-69 67l-69 -67h-10l-84 82l84 82h10l69 -67l69 67h10l84 -82z" />
    <glyph glyph-name="uniFC92" unicode="&#xfef4;&#xfeb0;" horiz-adv-x="667" arabic-form="final" 
d="M63 -254l-2 -2q-44 0 -85 22q-43 23 -77 63v111l10 9q33 -12 63 -17q33 -6 63 -6q31 0 57 14q25 13 45 38q19 24 30 57q11 35 11 72q0 43 -12 108q-11 60 -35 138l6 8h121l15 -57l158 25v62h120v-144q0 -17 6 -27q6 -11 19 -18q12 -7 36 -10q22 -3 54 -3h1v-160l-30 -30
h-1q-80 0 -126 27t-63 90l-6 22l-141 -23v-8q0 -77 -18 -143q-17 -64 -50 -115q-31 -49 -75 -76q-43 -27 -94 -27zM566 -233h-10l-69 67l-69 -67h-10l-84 82l84 82h10l69 -67l69 67h10l84 -82zM187 594l84 -82l-84 -82h-10l-84 82l84 82h10z" />
    <glyph glyph-name="uniFC94" unicode="&#xfef4;&#xfee6;" horiz-adv-x="1042" arabic-form="final" 
d="M338 -221l-4 -2q-76 0 -134 21t-99 60q-41 40 -62 96q-21 57 -21 129q0 50 7 93q7 46 21 93h110v-12q-7 -25 -12 -56q-4 -27 -4 -59q0 -74 51 -114q52 -41 144 -41q217 0 217 123q0 35 -11 99q-11 61 -30 144l6 8h121l13 -57l155 25v62h120v-144q0 -17 6 -27
q6 -11 19 -18q12 -7 36 -10q23 -3 54 -3h1v-160l-30 -30h-1q-86 0 -133 32q-46 31 -60 105l-1 5l-141 -25v-4q0 -78 -24 -140t-67 -105q-44 -44 -106 -66t-141 -22zM335 474l84 -82l-84 -82h-10l-84 82l84 82h10zM918 -233h-10l-69 67l-69 -67h-10l-84 82l84 82h10l69 -67
l69 67h10l84 -82z" />
    <glyph glyph-name="uniFC95" unicode="&#xfef4;&#xfef0;" horiz-adv-x="937" arabic-form="final" 
d="M871 -436h-10l-69 67l-69 -67h-10l-84 82l84 82h10l69 -67l69 67h10l84 -82zM408 -325v-3q-94 0 -164 22q-72 23 -121 64t-76 102q-27 60 -27 135q0 51 7 101q7 54 21 102h110v-9q-7 -28 -12 -62q-4 -29 -4 -62q0 -93 69 -138t227 -45q100 0 156 9q55 9 55 24q0 5 -4 9
q-5 5 -16 8q-13 3 -31 6q-2 0 -20.5 3t-30.5 5l-77 11q-84 12 -123 48t-39 105q0 60 26 117q26 56 70 99q45 44 103 69q60 26 125 26q50 0 95 -24q46 -24 77 -81l29 -51q25 -43 46 -59q23 -17 58 -17h1v-160l-30 -30h-1q-30 0 -54 6q-23 6 -45 20q-19 12 -40 38
q-20 24 -39 57l-30 51q-20 34 -51 47q-33 14 -75 14q-28 0 -61 -5q-31 -5 -52 -13q-24 -10 -36 -19q-14 -11 -14 -23t18 -19t65 -15l77 -11q88 -12 128 -51q41 -39 41 -113q0 -138 -81 -213t-250 -75z" />
    <glyph glyph-name="uniFC96" unicode="&#xfef4;&#xfef2;" horiz-adv-x="937" arabic-form="final" 
d="M339 -556h-10l-69 67l-69 -67h-10l-84 82l84 82h10l69 -67l69 67h10l84 -82zM723 -436h-10l-69 67l-69 -67h-10l-84 82l84 82h10l69 -67l69 67h10l84 -82zM408 -325v-3q-94 0 -164 22q-72 23 -121 64t-76 102q-27 60 -27 135q0 51 7 101q7 54 21 102h110v-9
q-7 -28 -12 -62q-4 -29 -4 -62q0 -93 69 -138t227 -45q100 0 156 9q55 9 55 24q0 5 -4 9q-5 5 -16 8q-13 3 -31 6q-2 0 -20.5 3t-30.5 5l-77 11q-84 12 -123 48t-39 105q0 60 26 117q26 56 70 99q45 44 103 69q60 26 125 26q50 0 95 -24q46 -24 77 -81l29 -51q25 -43 46 -59
q23 -17 58 -17h1v-160l-30 -30h-1q-30 0 -54 6q-23 6 -45 20q-19 12 -40 38q-20 24 -39 57l-30 51q-20 34 -51 47q-33 14 -75 14q-28 0 -61 -5q-31 -5 -52 -13q-24 -10 -36 -19q-14 -11 -14 -23t18 -19t65 -15l77 -11q88 -12 128 -51q41 -39 41 -113q0 -138 -81 -213
t-250 -75z" />
    <glyph glyph-name="uniFCCC" unicode="&#xfedf;&#xfee4;" horiz-adv-x="315" arabic-form="initial" 
d="M190 -47l-5 -2q-24 16 -39 23q-18 9 -36 15q-20 7 -40 8q-30 2 -51 2h-53v160l30 30h23q16 0 25 -1q16 -2 33 -7l2 3q-12 32 -15 61q-3 30 -3 66v434h140v-437q0 -52 3 -88q3 -39 10 -62q40 -19 81 -46l50 -33l-105 -159z" />
    <glyph glyph-name="uniFCFB" unicode="&#xfeb3;&#xfef0;" horiz-adv-x="1352" arabic-form="isolated" 
d="M408 -325l-2 -3q-94 0 -164 22q-72 23 -121 64t-76 102q-27 60 -27 135q0 51 7 101q7 54 21 102h110v-9q-7 -28 -12 -62q-4 -29 -4 -62q0 -93 69 -138t227 -45q100 0 156 9q55 9 55 24q0 5 -4 9q-5 5 -16 8q-13 3 -31 6q-2 0 -20.5 3t-30.5 5l-77 11q-84 12 -123 48
t-39 105q0 60 26 117q26 56 70 99q45 44 103 69q60 26 125 26q50 0 95 -24q46 -24 77 -81l29 -51q12 -23 26 -42q11 -15 23 -27q10 -10 23 -15q12 -5 27 -6q14 1 29 5q11 3 18 11q6 7 9 21t3 33v51h110v-51q0 -35 -3 -65q28 -6 58 -6q28 0 39 8q10 7 10 30q0 22 -5 59
q-4 33 -15 78l6 8h118q16 -86 16 -144q0 -227 -169 -227q-36 0 -66 12t-50 32q-42 -43 -115 -43q-35 0 -60 6q-26 6 -47 21q-22 16 -42 40q-21 26 -45 66l-30 51q-20 34 -51 47q-33 14 -75 14q-28 0 -61 -5q-31 -5 -52 -13q-24 -10 -36 -19q-14 -11 -14 -23t18 -19t65 -15
l77 -11q88 -12 128 -51q41 -39 41 -113q0 -138 -81 -213t-250 -75z" />
    <glyph glyph-name="uniFCFC" unicode="&#xfeb3;&#xfef2;" horiz-adv-x="1352" arabic-form="isolated" 
d="M408 -325l-2 -3q-94 0 -164 22q-72 23 -121 64t-76 102q-27 60 -27 135q0 51 7 101q7 54 21 102h110v-9q-7 -28 -12 -62q-4 -29 -4 -62q0 -93 69 -138t227 -45q100 0 156 9q55 9 55 24q0 5 -4 9q-5 5 -16 8q-13 3 -31 6q-2 0 -20.5 3t-30.5 5l-77 11q-84 12 -123 48
t-39 105q0 60 26 117q26 56 70 99q45 44 103 69q60 26 125 26q50 0 95 -24q46 -24 77 -81l29 -51q12 -23 26 -42q11 -15 23 -27q10 -10 23 -15q12 -5 27 -6q14 1 29 5q11 3 18 11q6 7 9 21t3 33v51h110v-51q0 -35 -3 -65q28 -6 58 -6q28 0 39 8q10 7 10 30q0 22 -5 59
q-4 33 -15 78l6 8h118q16 -86 16 -144q0 -227 -169 -227q-36 0 -66 12t-50 32q-42 -43 -115 -43q-35 0 -60 6q-26 6 -47 21q-22 16 -42 40q-21 26 -45 66l-30 51q-20 34 -51 47q-33 14 -75 14q-28 0 -61 -5q-31 -5 -52 -13q-24 -10 -36 -19q-14 -11 -14 -23t18 -19t65 -15
l77 -11q88 -12 128 -51q41 -39 41 -113q0 -138 -81 -213t-250 -75zM485 -559h-10l-69 67l-69 -67h-10l-84 82l84 82h10l69 -67l69 67h10l84 -82z" />
    <glyph glyph-name="uniFCFD" unicode="&#xfeb7;&#xfef0;" horiz-adv-x="1352" arabic-form="isolated" 
d="M408 -325l-2 -3q-94 0 -164 22q-72 23 -121 64t-76 102q-27 60 -27 135q0 51 7 101q7 54 21 102h110v-9q-7 -28 -12 -62q-4 -29 -4 -62q0 -93 69 -138t227 -45q100 0 156 9q55 9 55 24q0 5 -4 9q-5 5 -16 8q-13 3 -31 6q-2 0 -20.5 3t-30.5 5l-77 11q-84 12 -123 48
t-39 105q0 60 26 117q26 56 70 99q45 44 103 69q60 26 125 26q50 0 95 -24q46 -24 77 -81l29 -51q12 -23 26 -42q11 -15 23 -27q10 -10 23 -15q12 -5 27 -6q14 1 29 5q11 3 18 11q6 7 9 21t3 33v51h110v-51q0 -35 -3 -65q28 -6 58 -6q28 0 39 8q10 7 10 30q0 22 -5 59
q-4 33 -15 78l6 8h118q16 -86 16 -144q0 -227 -169 -227q-36 0 -66 12t-50 32q-42 -43 -115 -43q-35 0 -60 6q-26 6 -47 21q-22 16 -42 40q-21 26 -45 66l-30 51q-20 34 -51 47q-33 14 -75 14q-28 0 -61 -5q-31 -5 -52 -13q-24 -10 -36 -19q-14 -11 -14 -23t18 -19t65 -15
l77 -11q88 -12 128 -51q41 -39 41 -113q0 -138 -81 -213t-250 -75zM945 595l81 79h10l81 -79l-81 -79h-10zM1110 369h-10l-69 67l-69 -67h-10l-84 82l84 82h10l69 -67l69 67h10l84 -82z" />
    <glyph glyph-name="uniFCFE" unicode="&#xfeb7;&#xfef2;" horiz-adv-x="1352" arabic-form="isolated" 
d="M408 -325l-2 -3q-94 0 -164 22q-72 23 -121 64t-76 102q-27 60 -27 135q0 51 7 101q7 54 21 102h110v-9q-7 -28 -12 -62q-4 -29 -4 -62q0 -93 69 -138t227 -45q100 0 156 9q55 9 55 24q0 5 -4 9q-5 5 -16 8q-13 3 -31 6q-2 0 -20.5 3t-30.5 5l-77 11q-84 12 -123 48
t-39 105q0 60 26 117q26 56 70 99q45 44 103 69q60 26 125 26q50 0 95 -24q46 -24 77 -81l29 -51q12 -23 26 -42q11 -15 23 -27q10 -10 23 -15q12 -5 27 -6q14 1 29 5q11 3 18 11q6 7 9 21t3 33v51h110v-51q0 -35 -3 -65q28 -6 58 -6q28 0 39 8q10 7 10 30q0 22 -5 59
q-4 33 -15 78l6 8h118q16 -86 16 -144q0 -227 -169 -227q-36 0 -66 12t-50 32q-42 -43 -115 -43q-35 0 -60 6q-26 6 -47 21q-22 16 -42 40q-21 26 -45 66l-30 51q-20 34 -51 47q-33 14 -75 14q-28 0 -61 -5q-31 -5 -52 -13q-24 -10 -36 -19q-14 -11 -14 -23t18 -19t65 -15
l77 -11q88 -12 128 -51q41 -39 41 -113q0 -138 -81 -213t-250 -75zM485 -559h-10l-69 67l-69 -67h-10l-84 82l84 82h10l69 -67l69 67h10l84 -82zM945 595l81 79h10l81 -79l-81 -79h-10zM1110 369h-10l-69 67l-69 -67h-10l-84 82l84 82h10l69 -67l69 67h10l84 -82z" />
    <glyph glyph-name="uniFD05" unicode="&#xfebb;&#xfef0;" horiz-adv-x="1438" arabic-form="isolated" 
d="M1197 495v-6q46 0 85 -19q42 -20 71 -52q30 -33 48 -76q18 -44 18 -91q0 -55 -18 -101t-51 -81t-78 -54q-44 -19 -99 -19h-267q-30 0 -54 6q-23 6 -45 20q-19 12 -40 38q-19 24 -39 57l-30 51q-20 34 -51 47q-33 14 -75 14q-28 0 -61 -5q-31 -5 -52 -13q-24 -10 -36 -19
q-14 -11 -14 -23q0 -11 18 -19q18 -7 65 -15l77 -11q88 -12 128 -51q41 -39 41 -113q0 -138 -81 -213t-250 -75q-94 0 -164 22q-72 23 -121 64t-76 102q-27 60 -27 135q0 51 7 101q8 54 21 102h110v-9q-7 -28 -12 -62q-4 -29 -4 -62q0 -93 69 -138t227 -45q101 0 156 9
t55 24q0 5 -4 9q-5 5 -16 8q-13 3 -31 6q-2 0 -20.5 3t-30.5 5l-77 11q-84 12 -123 48t-39 105q0 60 26 117q26 56 70 99q45 44 103 69q60 26 125 26q50 0 95 -24q46 -24 77 -81l29 -51q3 -4 7 -12t7 -11l74 85q38 45 69 74q31 30 66 52q31 20 68 31q36 11 74 11zM1234 184
v1q51 0 72 9t21 29q0 13 -12 27t-33 24t-48 18q-25 7 -58 7q-45 0 -79 -7q-35 -7 -67 -21q-30 -13 -58 -33q-24 -18 -52 -42l-8 -7l1 -4q3 -1 11 -1h12h298z" />
    <glyph glyph-name="uniFD06" unicode="&#xfebb;&#xfef2;" horiz-adv-x="1438" arabic-form="isolated" 
d="M1197 495v-6q46 0 85 -19q42 -20 71 -52q30 -33 48 -76q18 -44 18 -91q0 -55 -18 -101t-51 -81t-78 -54q-44 -19 -99 -19h-267q-30 0 -54 6q-23 6 -45 20q-19 12 -40 38q-19 24 -39 57l-30 51q-20 34 -51 47q-33 14 -75 14q-28 0 -61 -5q-31 -5 -52 -13q-24 -10 -36 -19
q-14 -11 -14 -23q0 -11 18 -19q18 -7 65 -15l77 -11q88 -12 128 -51q41 -39 41 -113q0 -138 -81 -213t-250 -75q-94 0 -164 22q-72 23 -121 64t-76 102q-27 60 -27 135q0 51 7 101q8 54 21 102h110v-9q-7 -28 -12 -62q-4 -29 -4 -62q0 -93 69 -138t227 -45q101 0 156 9
t55 24q0 5 -4 9q-5 5 -16 8q-13 3 -31 6q-2 0 -20.5 3t-30.5 5l-77 11q-84 12 -123 48t-39 105q0 60 26 117q26 56 70 99q45 44 103 69q60 26 125 26q50 0 95 -24q46 -24 77 -81l29 -51q3 -4 7 -12t7 -11l74 85q38 45 69 74q31 30 66 52q31 20 68 31q36 11 74 11zM1234 184
v1q51 0 72 9t21 29q0 13 -12 27t-33 24t-48 18q-25 7 -58 7q-45 0 -79 -7q-35 -7 -67 -21q-30 -13 -58 -33q-24 -18 -52 -42l-8 -7l1 -4q3 -1 11 -1h12h298zM487 -561h-10l-69 67l-69 -67h-10l-84 82l84 82h10l69 -67l69 67h10l84 -82z" />
    <glyph glyph-name="uniFD07" unicode="&#xfebf;&#xfef0;" horiz-adv-x="1438" arabic-form="isolated" 
d="M1197 495v-6q46 0 85 -19q42 -20 71 -52q30 -33 48 -76q18 -44 18 -91q0 -55 -18 -101t-51 -81t-78 -54q-44 -19 -99 -19h-267q-30 0 -54 6q-23 6 -45 20q-19 12 -40 38q-19 24 -39 57l-30 51q-20 34 -51 47q-33 14 -75 14q-28 0 -61 -5q-31 -5 -52 -13q-24 -10 -36 -19
q-14 -11 -14 -23q0 -11 18 -19q18 -7 65 -15l77 -11q88 -12 128 -51q41 -39 41 -113q0 -138 -81 -213t-250 -75q-94 0 -164 22q-72 23 -121 64t-76 102q-27 60 -27 135q0 51 7 101q8 54 21 102h110v-9q-7 -28 -12 -62q-4 -29 -4 -62q0 -93 69 -138t227 -45q101 0 156 9
t55 24q0 5 -4 9q-5 5 -16 8q-13 3 -31 6q-2 0 -20.5 3t-30.5 5l-77 11q-84 12 -123 48t-39 105q0 60 26 117q26 56 70 99q45 44 103 69q60 26 125 26q50 0 95 -24q46 -24 77 -81l29 -51q3 -4 7 -12t7 -11l74 85q38 45 69 74q31 30 66 52q31 20 68 31q36 11 74 11zM1234 184
v1q51 0 72 9t21 29q0 13 -12 27t-33 24t-48 18q-25 7 -58 7q-45 0 -79 -7q-35 -7 -67 -21q-30 -13 -58 -33q-24 -18 -52 -42l-8 -7l1 -4q3 -1 11 -1h12h298zM1162 724l84 -82l-84 -82h-10l-84 82l84 82h10z" />
    <glyph glyph-name="uniFD08" unicode="&#xfebf;&#xfef2;" horiz-adv-x="1438" arabic-form="isolated" 
d="M1197 495v-6q46 0 85 -19q42 -20 71 -52q30 -33 48 -76q18 -44 18 -91q0 -55 -18 -101t-51 -81t-78 -54q-44 -19 -99 -19h-267q-30 0 -54 6q-23 6 -45 20q-19 12 -40 38q-19 24 -39 57l-30 51q-20 34 -51 47q-33 14 -75 14q-28 0 -61 -5q-31 -5 -52 -13q-24 -10 -36 -19
q-14 -11 -14 -23q0 -11 18 -19q18 -7 65 -15l77 -11q88 -12 128 -51q41 -39 41 -113q0 -138 -81 -213t-250 -75q-94 0 -164 22q-72 23 -121 64t-76 102q-27 60 -27 135q0 51 7 101q8 54 21 102h110v-9q-7 -28 -12 -62q-4 -29 -4 -62q0 -93 69 -138t227 -45q101 0 156 9
t55 24q0 5 -4 9q-5 5 -16 8q-13 3 -31 6q-2 0 -20.5 3t-30.5 5l-77 11q-84 12 -123 48t-39 105q0 60 26 117q26 56 70 99q45 44 103 69q60 26 125 26q50 0 95 -24q46 -24 77 -81l29 -51q3 -4 7 -12t7 -11l74 85q38 45 69 74q31 30 66 52q31 20 68 31q36 11 74 11zM1234 184
v1q51 0 72 9t21 29q0 13 -12 27t-33 24t-48 18q-25 7 -58 7q-45 0 -79 -7q-35 -7 -67 -21q-30 -13 -58 -33q-24 -18 -52 -42l-8 -7l1 -4q3 -1 11 -1h12h298zM1162 724l84 -82l-84 -82h-10l-84 82l84 82h10zM487 -561h-10l-69 67l-69 -67h-10l-84 82l84 82h10l69 -67l69 67
h10l84 -82z" />
    <glyph glyph-name="uniFD0D" unicode="&#xfeb7;&#xfeae;" horiz-adv-x="978" arabic-form="isolated" 
d="M63 -254v-6q-44 0 -85 22q-43 23 -77 63v111l10 9q33 -12 63 -17q33 -6 63 -6q31 0 57 14q25 13 45 38q19 24 30 57q11 35 11 72q0 29 -8 66q-8 35 -27 90l6 8l327 30v-102q26 -20 69 -20q41 0 54 15q13 14 13 56v51h110v-51q0 -35 -3 -65q29 -6 58 -6q28 0 39 8
q10 7 10 30q0 22 -5 59q-5 33 -15 78l6 8h118q16 -86 16 -144q0 -227 -169 -227q-36 0 -66 12t-50 32q-42 -43 -115 -43q-66 0 -108 27q-43 28 -71 85l-68 -6v-7q0 -72 -19 -132q-20 -61 -51 -108q-32 -47 -75 -74q-44 -27 -93 -27zM573 592l81 79h10l81 -79l-81 -79h-10z
M738 366h-10l-69 67l-69 -67h-10l-84 82l84 82h10l69 -67l69 67h10l84 -82z" />
    <glyph glyph-name="uniFD0E" unicode="&#xfeb3;&#xfeae;" horiz-adv-x="978" arabic-form="isolated" 
d="M63 -254v-6q-44 0 -85 22q-43 23 -77 63v111l10 9q33 -12 63 -17q33 -6 63 -6q31 0 57 14q25 13 45 38q19 24 30 57q11 35 11 72q0 29 -8 66q-8 35 -27 90l6 8l327 30v-102q26 -20 69 -20q41 0 54 15q13 14 13 56v51h110v-51q0 -35 -3 -65q29 -6 58 -6q28 0 39 8
q10 7 10 30q0 22 -5 59q-5 33 -15 78l6 8h118q16 -86 16 -144q0 -227 -169 -227q-36 0 -66 12t-50 32q-42 -43 -115 -43q-66 0 -108 27q-43 28 -71 85l-68 -6v-7q0 -72 -19 -132q-20 -61 -51 -108q-32 -47 -75 -74q-44 -27 -93 -27z" />
    <glyph glyph-name="uniFD0F" unicode="&#xfebb;&#xfeae;" horiz-adv-x="1127" arabic-form="isolated" 
d="M63 -254l1 -7q-44 0 -85 22q-43 23 -77 63v111l10 9q33 -12 63 -17q33 -6 63 -6q31 0 57 14q25 13 45 38q20 24 30 57q11 35 11 72q0 29 -8 66q-7 34 -27 90l6 8l327 30v-89q11 -7 21 -12l110 126q38 45 69 74q31 30 66 52q31 20 68 31q36 11 74 11q46 0 85 -19
q42 -20 71 -52q30 -33 48 -76q18 -44 18 -91q0 -55 -18 -101t-51 -81t-78 -54q-44 -19 -99 -19h-266q-46 0 -79 6q-34 6 -59 18t-47 32q-21 20 -42 48l-69 -6v-7q0 -72 -19 -132q-20 -61 -51 -108q-32 -47 -75 -74q-44 -27 -93 -27zM924 183h1q51 0 72 9t21 30q0 16 -12 30
t-33 24q-19 10 -48 16q-27 6 -59 6q-69 0 -129 -25q-61 -25 -129 -81l-5 -4l1 -4q3 -1 12 -1h12h296z" />
    <glyph glyph-name="uniFD10" unicode="&#xfebf;&#xfeae;" horiz-adv-x="1127" arabic-form="isolated" 
d="M63 -254l1 -7q-44 0 -85 22q-43 23 -77 63v111l10 9q33 -12 63 -17q33 -6 63 -6q31 0 57 14q25 13 45 38q20 24 30 57q11 35 11 72q0 29 -8 66q-7 34 -27 90l6 8l327 30v-89q11 -7 21 -12l110 126q38 45 69 74q31 30 66 52q31 20 68 31q36 11 74 11q46 0 85 -19
q42 -20 71 -52q30 -33 48 -76q18 -44 18 -91q0 -55 -18 -101t-51 -81t-78 -54q-44 -19 -99 -19h-266q-46 0 -79 6q-34 6 -59 18t-47 32q-21 20 -42 48l-69 -6v-7q0 -72 -19 -132q-20 -61 -51 -108q-32 -47 -75 -74q-44 -27 -93 -27zM924 183h1q51 0 72 9t21 30q0 16 -12 30
t-33 24q-19 10 -48 16q-27 6 -59 6q-69 0 -129 -25q-61 -25 -129 -81l-5 -4l1 -4q3 -1 12 -1h12h296zM853 722l84 -82l-84 -82h-10l-84 82l84 82h10z" />
    <glyph glyph-name="uniFD17" unicode="&#xfeb4;&#xfef0;" horiz-adv-x="1412" arabic-form="final" 
d="M408 -325l-3 -5q-94 0 -164 22q-72 23 -121 64t-76 102q-27 60 -27 135q0 51 7 101q8 54 21 102h110v-9q-7 -28 -12 -62q-4 -29 -4 -62q0 -93 69 -138t227 -45q101 0 156 9t55 24q0 5 -4 9q-5 5 -16 8q-13 3 -31 6q-2 0 -20.5 3t-30.5 5l-77 11q-84 12 -123 48t-39 105
q0 60 26 117q26 56 70 99q45 44 103 69q60 26 125 26q50 0 95 -24q46 -24 77 -81l29 -51q12 -23 26 -42q11 -15 23 -27q10 -10 23 -15q11 -4 27 -4q35 0 47 15t12 56v51h110v-51q0 -35 -3 -65q29 -6 58 -6q31 0 42 14t11 57v81h110v-81v-27q0 -18 -1 -27q49 -6 97 -6v-170
l-30 -20q-37 0 -67 9q-28 8 -52 26q-39 -45 -109 -45q-36 0 -66 12t-50 32q-42 -43 -115 -43q-35 0 -60 6q-26 6 -47 21q-22 16 -42 40q-21 26 -45 66l-30 51q-20 34 -51 47q-33 14 -75 14q-28 0 -61 -5q-31 -5 -52 -13q-24 -10 -36 -19q-14 -11 -14 -23t18 -19t65 -15
l77 -11q88 -12 128 -51q41 -39 41 -113q0 -138 -81 -213t-250 -75z" />
    <glyph glyph-name="uniFD18" unicode="&#xfeb4;&#xfef2;" horiz-adv-x="1412" arabic-form="final" 
d="M408 -325l-3 -5q-94 0 -164 22q-72 23 -121 64t-76 102q-27 60 -27 135q0 51 7 101q8 54 21 102h110v-9q-7 -28 -12 -62q-4 -29 -4 -62q0 -93 69 -138t227 -45q101 0 156 9t55 24q0 5 -4 9q-5 5 -16 8q-13 3 -31 6q-2 0 -20.5 3t-30.5 5l-77 11q-84 12 -123 48t-39 105
q0 60 26 117q26 56 70 99q45 44 103 69q60 26 125 26q50 0 95 -24q46 -24 77 -81l29 -51q12 -23 26 -42q11 -15 23 -27q10 -10 23 -15q11 -4 27 -4q35 0 47 15t12 56v51h110v-51q0 -35 -3 -65q29 -6 58 -6q31 0 42 14t11 57v81h110v-81v-27q0 -18 -1 -27q49 -6 97 -6v-170
l-30 -20q-37 0 -67 9q-28 8 -52 26q-39 -45 -109 -45q-36 0 -66 12t-50 32q-42 -43 -115 -43q-35 0 -60 6q-26 6 -47 21q-22 16 -42 40q-21 26 -45 66l-30 51q-20 34 -51 47q-33 14 -75 14q-28 0 -61 -5q-31 -5 -52 -13q-24 -10 -36 -19q-14 -11 -14 -23t18 -19t65 -15
l77 -11q88 -12 128 -51q41 -39 41 -113q0 -138 -81 -213t-250 -75zM484 -561h-10l-69 67l-69 -67h-10l-84 82l84 82h10l69 -67l69 67h10l84 -82z" />
    <glyph glyph-name="uniFD19" unicode="&#xfeb8;&#xfef0;" horiz-adv-x="1412" arabic-form="final" 
d="M408 -325l-3 -5q-94 0 -164 22q-72 23 -121 64t-76 102q-27 60 -27 135q0 51 7 101q8 54 21 102h110v-9q-7 -28 -12 -62q-4 -29 -4 -62q0 -93 69 -138t227 -45q101 0 156 9t55 24q0 5 -4 9q-5 5 -16 8q-13 3 -31 6q-2 0 -20.5 3t-30.5 5l-77 11q-84 12 -123 48t-39 105
q0 60 26 117q26 56 70 99q45 44 103 69q60 26 125 26q50 0 95 -24q46 -24 77 -81l29 -51q12 -23 26 -42q11 -15 23 -27q10 -10 23 -15q11 -4 27 -4q35 0 47 15t12 56v51h110v-51q0 -35 -3 -65q29 -6 58 -6q31 0 42 14t11 57v81h110v-81v-27q0 -18 -1 -27q49 -6 97 -6v-170
l-30 -20q-37 0 -67 9q-28 8 -52 26q-39 -45 -109 -45q-36 0 -66 12t-50 32q-42 -43 -115 -43q-35 0 -60 6q-26 6 -47 21q-22 16 -42 40q-21 26 -45 66l-30 51q-20 34 -51 47q-33 14 -75 14q-28 0 -61 -5q-31 -5 -52 -13q-24 -10 -36 -19q-14 -11 -14 -23t18 -19t65 -15
l77 -11q88 -12 128 -51q41 -39 41 -113q0 -138 -81 -213t-250 -75zM954 593l81 79h10l81 -79l-81 -79h-10zM1119 367h-10l-69 67l-69 -67h-10l-84 82l84 82h10l69 -67l69 67h10l84 -82z" />
    <glyph glyph-name="uniFD1A" unicode="&#xfeb8;&#xfef2;" horiz-adv-x="1412" arabic-form="final" 
d="M408 -325l-3 -5q-94 0 -164 22q-72 23 -121 64t-76 102q-27 60 -27 135q0 51 7 101q8 54 21 102h110v-9q-7 -28 -12 -62q-4 -29 -4 -62q0 -93 69 -138t227 -45q101 0 156 9t55 24q0 5 -4 9q-5 5 -16 8q-13 3 -31 6q-2 0 -20.5 3t-30.5 5l-77 11q-84 12 -123 48t-39 105
q0 60 26 117q26 56 70 99q45 44 103 69q60 26 125 26q50 0 95 -24q46 -24 77 -81l29 -51q12 -23 26 -42q11 -15 23 -27q10 -10 23 -15q11 -4 27 -4q35 0 47 15t12 56v51h110v-51q0 -35 -3 -65q29 -6 58 -6q31 0 42 14t11 57v81h110v-81v-27q0 -18 -1 -27q49 -6 97 -6v-170
l-30 -20q-37 0 -67 9q-28 8 -52 26q-39 -45 -109 -45q-36 0 -66 12t-50 32q-42 -43 -115 -43q-35 0 -60 6q-26 6 -47 21q-22 16 -42 40q-21 26 -45 66l-30 51q-20 34 -51 47q-33 14 -75 14q-28 0 -61 -5q-31 -5 -52 -13q-24 -10 -36 -19q-14 -11 -14 -23t18 -19t65 -15
l77 -11q88 -12 128 -51q41 -39 41 -113q0 -138 -81 -213t-250 -75zM484 -561h-10l-69 67l-69 -67h-10l-84 82l84 82h10l69 -67l69 67h10l84 -82zM954 593l81 79h10l81 -79l-81 -79h-10zM1119 367h-10l-69 67l-69 -67h-10l-84 82l84 82h10l69 -67l69 67h10l84 -82z" />
    <glyph glyph-name="uniFD21" unicode="&#xfebc;&#xfef0;" horiz-adv-x="1506" arabic-form="final" 
d="M1412 195l-1 -7q14 -2 42 -4q15 -1 51 -1v-160l-30 -30q-82 0 -147 54q-32 -26 -70 -39q-40 -14 -85 -14h-267q-30 0 -54 6q-23 6 -45 20q-19 12 -40 38q-20 24 -39 57l-30 51q-20 34 -51 47q-33 14 -75 14q-28 0 -61 -5q-31 -5 -52 -13q-24 -10 -36 -19q-14 -11 -14 -23
q0 -11 18 -19q18 -7 65 -15l77 -11q88 -12 128 -51q41 -39 41 -113q0 -138 -81 -213t-250 -75q-94 0 -164 22q-72 23 -121 64t-76 102q-27 60 -27 135q0 51 7 101q7 54 21 102h110v-9q-7 -28 -12 -62q-4 -29 -4 -62q0 -93 69 -138t227 -45q100 0 156 9q55 9 55 24q0 5 -4 9
q-5 5 -16 8q-13 3 -31 6q-2 0 -20.5 3t-30.5 5l-77 11q-84 12 -123 48t-39 105q0 60 26 117q26 56 70 99q45 44 103 69q60 26 125 26q50 0 95 -24q46 -24 77 -81l29 -51q3 -4 7 -12t7 -11l74 85q38 45 69 74q31 30 66 52q31 20 68 31q36 11 74 11q46 0 85 -19q42 -20 71 -52
q30 -33 48 -76q18 -44 18 -91q0 -31 -6 -60zM1233 183v1q51 0 72 9t21 29q0 14 -12 27t-33 24t-48 18q-25 7 -58 7q-45 0 -79 -7q-35 -7 -67 -21q-30 -13 -58 -33q-24 -18 -52 -42l-8 -7l1 -4q3 -1 11 -1h12h298z" />
    <glyph glyph-name="uniFD22" unicode="&#xfebc;&#xfef2;" horiz-adv-x="1506" arabic-form="final" 
d="M1412 195l-1 -7q14 -2 42 -4q15 -1 51 -1v-160l-30 -30q-82 0 -147 54q-32 -26 -70 -39q-40 -14 -85 -14h-267q-30 0 -54 6q-23 6 -45 20q-19 12 -40 38q-20 24 -39 57l-30 51q-20 34 -51 47q-33 14 -75 14q-28 0 -61 -5q-31 -5 -52 -13q-24 -10 -36 -19q-14 -11 -14 -23
q0 -11 18 -19q18 -7 65 -15l77 -11q88 -12 128 -51q41 -39 41 -113q0 -138 -81 -213t-250 -75q-94 0 -164 22q-72 23 -121 64t-76 102q-27 60 -27 135q0 51 7 101q7 54 21 102h110v-9q-7 -28 -12 -62q-4 -29 -4 -62q0 -93 69 -138t227 -45q100 0 156 9q55 9 55 24q0 5 -4 9
q-5 5 -16 8q-13 3 -31 6q-2 0 -20.5 3t-30.5 5l-77 11q-84 12 -123 48t-39 105q0 60 26 117q26 56 70 99q45 44 103 69q60 26 125 26q50 0 95 -24q46 -24 77 -81l29 -51q3 -4 7 -12t7 -11l74 85q38 45 69 74q31 30 66 52q31 20 68 31q36 11 74 11q46 0 85 -19q42 -20 71 -52
q30 -33 48 -76q18 -44 18 -91q0 -31 -6 -60zM1233 183v1q51 0 72 9t21 29q0 14 -12 27t-33 24t-48 18q-25 7 -58 7q-45 0 -79 -7q-35 -7 -67 -21q-30 -13 -58 -33q-24 -18 -52 -42l-8 -7l1 -4q3 -1 11 -1h12h298zM486 -562h-10l-69 67l-69 -67h-10l-84 82l84 82h10l69 -67
l69 67h10l84 -82z" />
    <glyph glyph-name="uniFD23" unicode="&#xfec0;&#xfef0;" horiz-adv-x="1506" arabic-form="final" 
d="M1412 195l-1 -7q14 -2 42 -4q15 -1 51 -1v-160l-30 -30q-82 0 -147 54q-32 -26 -70 -39q-40 -14 -85 -14h-267q-30 0 -54 6q-23 6 -45 20q-19 12 -40 38q-20 24 -39 57l-30 51q-20 34 -51 47q-33 14 -75 14q-28 0 -61 -5q-31 -5 -52 -13q-24 -10 -36 -19q-14 -11 -14 -23
q0 -11 18 -19q18 -7 65 -15l77 -11q88 -12 128 -51q41 -39 41 -113q0 -138 -81 -213t-250 -75q-94 0 -164 22q-72 23 -121 64t-76 102q-27 60 -27 135q0 51 7 101q7 54 21 102h110v-9q-7 -28 -12 -62q-4 -29 -4 -62q0 -93 69 -138t227 -45q100 0 156 9q55 9 55 24q0 5 -4 9
q-5 5 -16 8q-13 3 -31 6q-2 0 -20.5 3t-30.5 5l-77 11q-84 12 -123 48t-39 105q0 60 26 117q26 56 70 99q45 44 103 69q60 26 125 26q50 0 95 -24q46 -24 77 -81l29 -51q3 -4 7 -12t7 -11l74 85q38 45 69 74q31 30 66 52q31 20 68 31q36 11 74 11q46 0 85 -19q42 -20 71 -52
q30 -33 48 -76q18 -44 18 -91q0 -31 -6 -60zM1233 183v1q51 0 72 9t21 29q0 14 -12 27t-33 24t-48 18q-25 7 -58 7q-45 0 -79 -7q-35 -7 -67 -21q-30 -13 -58 -33q-24 -18 -52 -42l-8 -7l1 -4q3 -1 11 -1h12h298zM1161 723l84 -82l-84 -82h-10l-84 82l84 82h10z" />
    <glyph glyph-name="uniFD24" unicode="&#xfec0;&#xfef2;" horiz-adv-x="1506" arabic-form="final" 
d="M1412 195l-1 -7q14 -2 42 -4q15 -1 51 -1v-160l-30 -30q-82 0 -147 54q-32 -26 -70 -39q-40 -14 -85 -14h-267q-30 0 -54 6q-23 6 -45 20q-19 12 -40 38q-20 24 -39 57l-30 51q-20 34 -51 47q-33 14 -75 14q-28 0 -61 -5q-31 -5 -52 -13q-24 -10 -36 -19q-14 -11 -14 -23
q0 -11 18 -19q18 -7 65 -15l77 -11q88 -12 128 -51q41 -39 41 -113q0 -138 -81 -213t-250 -75q-94 0 -164 22q-72 23 -121 64t-76 102q-27 60 -27 135q0 51 7 101q7 54 21 102h110v-9q-7 -28 -12 -62q-4 -29 -4 -62q0 -93 69 -138t227 -45q100 0 156 9q55 9 55 24q0 5 -4 9
q-5 5 -16 8q-13 3 -31 6q-2 0 -20.5 3t-30.5 5l-77 11q-84 12 -123 48t-39 105q0 60 26 117q26 56 70 99q45 44 103 69q60 26 125 26q50 0 95 -24q46 -24 77 -81l29 -51q3 -4 7 -12t7 -11l74 85q38 45 69 74q31 30 66 52q31 20 68 31q36 11 74 11q46 0 85 -19q42 -20 71 -52
q30 -33 48 -76q18 -44 18 -91q0 -31 -6 -60zM1233 183v1q51 0 72 9t21 29q0 14 -12 27t-33 24t-48 18q-25 7 -58 7q-45 0 -79 -7q-35 -7 -67 -21q-30 -13 -58 -33q-24 -18 -52 -42l-8 -7l1 -4q3 -1 11 -1h12h298zM1161 723l84 -82l-84 -82h-10l-84 82l84 82h10zM486 -562
h-10l-69 67l-69 -67h-10l-84 82l84 82h10l69 -67l69 67h10l84 -82z" />
    <glyph glyph-name="uniFD29" unicode="&#xfeb8;&#xfeae;" horiz-adv-x="1039" arabic-form="final" 
d="M63 -254l-1 -7q-44 0 -85 22q-43 23 -77 63v111l10 9q33 -12 63 -17q33 -6 63 -6q31 0 57 14q25 13 45 38q20 24 30 57q11 35 11 72q0 29 -8 66q-7 34 -27 90l6 8l327 30v-102q26 -20 69 -20q40 0 54 15q14 16 14 56v51h110v-51q0 -35 -3 -65q29 -6 58 -6q31 0 42 14
t11 57v81h110v-81v-27q0 -18 -1 -27q49 -6 97 -6v-170l-30 -20q-37 0 -67 9q-28 8 -52 26q-39 -45 -110 -45q-35 0 -65 12t-50 32q-21 -20 -53 -31q-29 -10 -63 -10q-66 0 -108 27q-43 28 -71 85l-68 -6v-7q0 -72 -19 -132q-20 -61 -51 -108q-32 -47 -75 -74
q-44 -27 -93 -27zM582 591l81 79h10l81 -79l-81 -79h-10zM747 365h-10l-69 67l-69 -67h-10l-84 82l84 82h10l69 -67l69 67h10l84 -82z" />
    <glyph glyph-name="uniFD2A" unicode="&#xfeb4;&#xfeae;" horiz-adv-x="1039" arabic-form="final" 
d="M63 -254l-1 -7q-44 0 -85 22q-43 23 -77 63v111l10 9q33 -12 63 -17q33 -6 63 -6q31 0 57 14q25 13 45 38q20 24 30 57q11 35 11 72q0 29 -8 66q-7 34 -27 90l6 8l327 30v-102q26 -20 69 -20q40 0 54 15q14 16 14 56v51h110v-51q0 -35 -3 -65q29 -6 58 -6q31 0 42 14
t11 57v81h110v-81v-27q0 -18 -1 -27q49 -6 97 -6v-170l-30 -20q-37 0 -67 9q-28 8 -52 26q-39 -45 -110 -45q-35 0 -65 12t-50 32q-21 -20 -53 -31q-29 -10 -63 -10q-66 0 -108 27q-43 28 -71 85l-68 -6v-7q0 -72 -19 -132q-20 -61 -51 -108q-32 -47 -75 -74
q-44 -27 -93 -27z" />
    <glyph glyph-name="uniFD2B" unicode="&#xfebc;&#xfeae;" horiz-adv-x="1195" arabic-form="final" 
d="M63 -254v-8q-44 0 -85 22q-43 23 -77 63v111l10 9q33 -12 63 -17q33 -6 63 -6q31 0 57 14q25 13 45 38q19 24 30 57q11 35 11 72q0 29 -8 66q-8 35 -27 90l6 8l327 30v-89q10 -8 21 -12l110 126q38 45 69 74q31 30 66 52q31 20 68 31q36 11 74 11q46 0 85 -19
q42 -20 71 -52q30 -33 48 -76t18 -91q0 -32 -6 -60q14 -2 42 -4q15 -1 51 -1v-160l-30 -30q-83 0 -147 54q-32 -26 -70 -39q-40 -14 -85 -14h-266q-46 0 -79 6q-34 6 -59 18t-47 32q-21 20 -42 48l-69 -6v-7q0 -72 -19 -132q-20 -61 -51 -108q-32 -47 -75 -74
q-44 -27 -93 -27zM923 182h1q51 0 72 9t21 30q0 17 -12 30t-33 24q-19 10 -48 16q-27 6 -59 6q-69 0 -129 -25q-62 -26 -129 -81l-5 -4l1 -4q3 -1 12 -1h12h296z" />
    <glyph glyph-name="uniFD2C" unicode="&#xfec0;&#xfeae;" horiz-adv-x="1195" arabic-form="final" 
d="M63 -254v-8q-44 0 -85 22q-43 23 -77 63v111l10 9q33 -12 63 -17q33 -6 63 -6q31 0 57 14q25 13 45 38q19 24 30 57q11 35 11 72q0 29 -8 66q-8 35 -27 90l6 8l327 30v-89q10 -8 21 -12l110 126q38 45 69 74q31 30 66 52q31 20 68 31q36 11 74 11q46 0 85 -19
q42 -20 71 -52q30 -33 48 -76t18 -91q0 -32 -6 -60q14 -2 42 -4q15 -1 51 -1v-160l-30 -30q-83 0 -147 54q-32 -26 -70 -39q-40 -14 -85 -14h-266q-46 0 -79 6q-34 6 -59 18t-47 32q-21 20 -42 48l-69 -6v-7q0 -72 -19 -132q-20 -61 -51 -108q-32 -47 -75 -74
q-44 -27 -93 -27zM923 182h1q51 0 72 9t21 30q0 17 -12 30t-33 24q-19 10 -48 16q-27 6 -59 6q-69 0 -129 -25q-62 -26 -129 -81l-5 -4l1 -4q3 -1 12 -1h12h296zM852 721l84 -82l-84 -82h-10l-84 82l84 82h10z" />
    <glyph glyph-name="uniFDF2" unicode="&#x627;&#xfedf;&#xfee0;&#xfeea;" horiz-adv-x="1387" arabic-form="isolated" 
d="M727 1073v-181h-60v181h60zM637 682l-3 -4q-35 0 -53 21t-18 57q0 18 3 35q3 19 7 27h47v-10q-4 -9 -4 -21q0 -21 22 -21q16 0 24 11q7 10 7 36v50h54v-46q12 -3 24 -3q29 0 29 28q0 11 -3 23q-2 8 -8 26v10h55q4 -11 7 -31q3 -18 3 -33q0 -107 -72 -107q-14 0 -24 3
q-7 2 -19 8q-20 -59 -78 -59zM1334 741v-745h-140v745h140zM522 -14l-1 -1q-78 0 -123 39q-44 38 -64 105h-1q-22 -52 -61 -76t-93 -24q-36 0 -66 12t-51 33t-33 51t-12 66q0 71 51 128t136 97l118 56v87h137v-291q0 -21 3 -39q3 -17 14 -30q10 -11 29 -19q17 -7 48 -7
q25 0 47 6q20 5 39 14q-1 7 -1 23v24v384h140v-364q0 -43 20 -65q20 -21 74 -21q44 0 64 21q19 20 19 56v439h140v-449q0 -123 -56 -190q-55 -66 -171 -66q-84 0 -132 22q-49 22 -73 73q-16 -46 -51 -70q-34 -24 -90 -24zM201 217l1 -2q34 0 62 7q31 8 56 21v107l-88 -23
q-53 -14 -80 -31q-29 -18 -29 -42q0 -37 78 -37z" />
    <glyph glyph-name="uniFEF5" unicode="&#xfedf;&#xfe82;" horiz-adv-x="534" arabic-form="isolated" 
d="M444 384l-1 -4q37 -32 54 -69q16 -36 16 -88q0 -113 -43 -169q-44 -57 -132 -57h-319v180l215 148l-215 101v174l10 8l303 -159q1 5 1 15v16v263h140v-263q0 -32 -6 -54t-23 -42zM338 186l-1 -2q52 0 77 5q23 5 23 18q0 5 -5 12q-4 6 -18 15t-36 21q-28 15 -60 29
l-140 -96v-2h160zM18 698l-3 2q11 17 30 26t44 9q14 0 32 -3q24 -4 37 -7q11 -3 31 -7q15 -3 28 -3q18 0 33 3q14 3 23 8h13v-67q-26 -25 -69 -25q-17 0 -33 3q-22 4 -33 7t-31 7q-15 3 -28 3q-20 0 -37 -6q-16 -6 -24 -17h-13v67z" />
    <glyph glyph-name="uniFEF6" unicode="&#xfee0;&#xfe82;" horiz-adv-x="664" arabic-form="final" 
d="M207 -10l-1 -3q-15 0 -43 2q-21 1 -42 6q-9 2 -43 11q-17 4 -49 17v156h131h21q14 0 21 1l-117 437v12h151l112 -426q28 11 47 24q21 14 35 30v27v462h140v-479q0 -40 21 -58t71 -18v-160l-30 -30q-149 0 -188 131q-15 -28 -36 -54q-20 -25 -50 -45q-27 -19 -66 -31
q-38 -12 -85 -12zM16 740l-3 2q11 17 30 26t44 9q14 0 32 -3q24 -4 37 -7q11 -3 31 -7q15 -3 28 -3q18 0 33 3t23 8h13v-67q-26 -25 -69 -25q-17 0 -33 3q-22 4 -33 7t-31 7q-15 3 -28 3q-20 0 -37 -6q-16 -6 -24 -17h-13v67z" />
    <glyph glyph-name="uniFEF7" unicode="&#xfedf;&#xfe84;" horiz-adv-x="534" arabic-form="isolated" 
d="M444 384l-1 -4q37 -32 54 -69q16 -36 16 -88q0 -113 -43 -169q-44 -57 -132 -57h-319v180l215 148l-215 101v174l10 8l303 -159q1 5 1 15v16v263h140v-263q0 -32 -6 -54t-23 -42zM338 186l-1 -2q52 0 77 5q23 5 23 18q0 5 -5 12q-4 6 -18 15t-36 21q-28 15 -60 29
l-140 -96v-2h160zM69 713l-1 -1q-9 22 -9 39q0 51 35 83t86 32q71 0 71 -69v-40h-50v6q0 19 -35 19q-24 0 -40 -9t-16 -21q0 -10 12 -21q12 -10 35 -18h116v-80h-238v80h34z" />
    <glyph glyph-name="uniFEF8" unicode="&#xfee0;&#xfe84;" horiz-adv-x="664" arabic-form="final" 
d="M207 -10l-1 -3q-15 0 -43 2q-21 1 -42 6q-9 2 -43 11q-17 4 -49 17v156h131h21q14 0 21 1l-117 437v12h151l112 -426q28 11 47 24q21 14 35 30v27v462h140v-479q0 -40 21 -58t71 -18v-160l-30 -30q-149 0 -188 131q-15 -28 -36 -54q-20 -25 -50 -45q-27 -19 -66 -31
q-38 -12 -85 -12zM66 755l-1 -1q-9 22 -9 39q0 51 35 83t86 32q71 0 71 -69v-40h-50v6q0 19 -35 19q-23 0 -40 -9q-16 -9 -16 -21q0 -10 12 -21q12 -10 35 -18h116v-80h-238v80h34z" />
    <glyph glyph-name="uniFEF9" unicode="&#xfedf;&#xfe88;" horiz-adv-x="534" arabic-form="isolated" 
d="M444 384l-1 -4q37 -32 54 -69q16 -36 16 -88q0 -113 -43 -169q-44 -57 -132 -57h-319v180l215 148l-215 101v174l10 8l303 -159q1 5 1 15v16v263h140v-263q0 -32 -6 -54t-23 -42zM338 186l-1 -2q52 0 77 5q23 5 23 18q0 5 -5 12q-4 6 -18 15t-36 21q-28 15 -60 29
l-140 -96v-2h160zM72 -185l-1 -1q-9 22 -9 39q0 51 35 83t86 32q71 0 71 -69v-40h-50v6q0 19 -35 19q-23 0 -40 -9q-16 -9 -16 -21q0 -10 12 -21q12 -10 35 -18h116v-80h-238v80h34z" />
    <glyph glyph-name="uniFEFA" unicode="&#xfee0;&#xfe88;" horiz-adv-x="664" arabic-form="final" 
d="M207 -10l-1 -3q-15 0 -43 2q-21 1 -42 6q-9 2 -43 11q-17 4 -49 17v156h131h21q14 0 21 1l-117 437v12h151l112 -426q28 11 47 24q21 14 35 30v27v462h140v-479q0 -40 21 -58t71 -18v-160l-30 -30q-149 0 -188 131q-15 -28 -36 -54q-20 -25 -50 -45q-27 -19 -66 -31
q-38 -12 -85 -12zM192 -182l-1 -1q-9 23 -9 39q0 51 35 83t86 32q71 0 71 -69v-40h-50v6q0 19 -35 19q-23 0 -40 -9q-16 -9 -16 -21q0 -11 12 -21t35 -18h116v-80h-238v80h34z" />
    <glyph glyph-name="uniFEFB" unicode="&#xfedf;&#xfe8e;" horiz-adv-x="534" arabic-form="isolated" 
d="M444 384l-1 -4q37 -32 54 -69q16 -36 16 -88q0 -113 -43 -169q-44 -57 -132 -57h-319v180l215 148l-215 101v174l10 8l303 -159q1 5 1 15v16v263h140v-263q0 -32 -6 -54t-23 -42zM338 186l-1 -2q52 0 77 5q23 5 23 18q0 5 -5 12q-4 6 -18 15t-36 21q-28 15 -60 29
l-140 -96v-2h160z" />
    <glyph glyph-name="uniFEFC" unicode="&#xfee0;&#xfe8e;" horiz-adv-x="664" arabic-form="final" 
d="M207 -10l-1 -3q-15 0 -43 2q-21 1 -42 6q-9 2 -43 11q-17 4 -49 17v156h131h21q14 0 21 1l-117 437v12h151l112 -426q28 11 47 24q21 14 35 30v27v462h140v-479q0 -40 21 -58t71 -18v-160l-30 -30q-149 0 -188 131q-15 -28 -36 -54q-20 -25 -50 -45q-27 -19 -66 -31
q-38 -12 -85 -12z" />
    <glyph glyph-name="f_b" unicode="fb" horiz-adv-x="970" 
d="M635 85l-3 -1q26 0 48 8t38 27t25 52t9 82q0 90 -25 125q-25 36 -75 36h-1v75q9 1 21 3q16 2 23 2q125 0 189 -57q65 -57 65 -171q0 -58 -18 -108q-17 -48 -56 -85q-37 -35 -93 -55q-54 -19 -130 -19h-228v616q0 31 -19 41q-20 11 -58 11q-46 0 -66 -20t-20 -71v-92h110
v-84h-110v-295q0 -28 29 -28h37v-78h-305v78h21q30 0 30 28v295h-56v84h31q25 0 25 22v16q0 51 20 94q19 42 57 72q39 31 90 47q54 17 117 17h80q48 0 68 -1q30 -1 51 -3q22 -2 29 -3q13 -1 21 -8q8 -6 8 -21v-631h21z" />
    <glyph glyph-name="f_f" unicode="ff" horiz-adv-x="698" 
d="M359 78l25 2q30 0 30 28v295h-147v-295q0 -28 29 -28h24v-78h-292v78h21q30 0 30 28v295h-56v84h31q25 0 25 22v16q0 48 18 90t51 72t81 48t108 18q14 0 36 -2q13 -1 30 -5v-97h-13q-14 5 -30 8q-18 3 -42 3q-33 0 -43 -19t-10 -63v-92h122q25 0 25 22v16q0 48 18 90
t51 72t81 48t108 18q14 0 36 -2q13 -1 30 -5v-97h-13q-14 5 -30 8q-18 3 -42 3q-33 0 -43 -19t-10 -63v-92h124v-84h-124v-295q0 -28 30 -28h36v-78h-305v78z" />
    <glyph glyph-name="f_h" unicode="fh" horiz-adv-x="982" 
d="M24 78h21q30 0 30 28v295h-56v84h31q25 0 25 22v16q0 51 18 93q18 41 53 72t86 47q53 17 114 17h75q47 0 67 -1q30 -1 51 -3q22 -2 29 -3q13 -1 21 -8q8 -6 8 -21v-289h4q23 26 63 47t97 21q81 0 119 -39q38 -40 38 -120v-229q0 -28 29 -28h22v-78h-285v78h17q29 0 29 28
v204q0 35 -14 51q-13 15 -44 15q-26 0 -45 -9t-30 -20v-241q0 -28 29 -28h22v-78h-290v78h22q29 0 29 28v508q0 25 -12 39t-54 14q-41 0 -61 -20q-19 -19 -19 -71v-92h100v-84h-100v-295q0 -28 29 -28h24v-78h-292v78z" />
    <glyph glyph-name="f_j" unicode="fj" horiz-adv-x="658" 
d="M24 78l21 -1q30 0 30 28v295h-56v84h31q25 0 25 22v16q0 46 17 89q16 41 48 73q31 31 78 49q46 18 107 18q20 0 42 -5v-97h-13q-13 4 -24 5q-3 0 -7.5 0.5t-7 1t-3.5 0.5q-33 0 -42 -16t-9 -60v-96h301q29 0 29 -28v-453q0 -114 -70 -171q-71 -57 -223 -57v78q31 0 52 6
t33 21q13 16 17 41q5 28 5 63v389q0 28 -29 28h-113v-295q0 -28 29 -28h32v-78h-300v78zM405 660v-1q0 47 27 71t72 24t72 -24t27 -70t-27 -70t-72 -24t-72 24t-27 70z" />
    <glyph glyph-name="f_k" unicode="fk" horiz-adv-x="981" 
d="M604 254l93 97q3 3 8.5 9.5t8.5 9.5q9 10 9 21q0 16 -20 16h-21v78h265v-78h-7q-46 0 -75 -13q-30 -14 -57 -42l-40 -44l121 -164q19 -27 38 -45q18 -17 48 -21v-78h-96q-64 0 -104 20t-65 63zM24 78l21 1q30 0 30 28v295h-56v84h31q25 0 25 22v16q0 51 18 93
q18 41 53 72t86 47q53 17 114 17h75q47 0 67 -1q30 -2 51 -3q22 -2 29 -3q13 -1 21 -8q8 -6 8 -21v-610q0 -28 29 -28h22v-78h-287v78h19q29 0 29 28v508q0 25 -12 39t-54 14q-41 0 -61 -20q-19 -19 -19 -71v-92h100v-84h-100v-295q0 -28 29 -28h24v-78h-292v78z" />
    <glyph glyph-name="f_f_b" unicode="ffb" horiz-adv-x="1305" 
d="M970 85h-1q26 0 48 8t38 27t25 52t9 82q0 90 -25 125q-26 36 -75 36h-1v75q9 2 21 3q16 2 23 2q124 0 189 -57t65 -171q0 -59 -18 -108q-17 -48 -56 -85q-37 -35 -93 -55q-54 -19 -130 -19h-228v616q0 31 -19 41q-20 11 -58 11q-46 0 -66 -20t-20 -71v-92h110v-84h-110
v-295q0 -28 29 -28h37v-78h-305v78h21q30 0 30 28v295h-147v-295q0 -28 29 -28h24v-78h-292v78h21q30 0 30 28v295h-56v84h31q25 0 25 22v16q0 48 18 90t51 72t81 48t108 18q14 0 36 -2q13 -1 30 -5v-97h-13q-14 5 -30 8q-18 3 -42 3q-33 0 -43 -19t-10 -63v-92h122
q25 0 25 22v16q0 51 20 94q20 42 57 72q39 31 90 47q54 17 117 17h80q48 0 68 -1q30 -1 51 -3q22 -2 29 -3q13 -1 21 -8q8 -6 8 -21v-631h21z" />
    <glyph glyph-name="f_f_h" unicode="ffh" horiz-adv-x="1317" 
d="M359 78l23 1q30 0 30 28v295h-147v-295q0 -28 29 -28h24v-78h-292v78h21q30 0 30 28v295h-56v84h31q25 0 25 22v16q0 48 18 90t51 72t81 48t108 18q14 0 36 -2q13 -1 30 -5v-97h-13q-14 5 -30 8q-18 3 -42 3q-33 0 -43 -19t-10 -63v-92h122q25 0 25 22v16q0 51 18 93
q18 41 53 72t86 47q53 17 114 17h75q47 0 67 -1q30 -1 51 -3q22 -2 29 -3q13 -1 21 -8q8 -6 8 -21v-289h4q23 26 63 47q41 21 97 21q82 0 119 -39q38 -40 38 -120v-229q0 -28 29 -28h22v-78h-285v78h17q29 0 29 28v204q0 35 -14 51q-13 15 -44 15q-25 0 -45 -9
q-19 -9 -30 -20v-241q0 -28 29 -28h22v-78h-290v78h22q29 0 29 28v508q0 25 -12 39t-54 14q-41 0 -61 -20q-19 -19 -19 -71v-92h100v-84h-100v-295q0 -28 29 -28h24v-78h-292v78z" />
    <glyph glyph-name="f_f_i" unicode="ffi" horiz-adv-x="1007" 
d="M699 78l23 2q29 0 29 28v267q0 28 -29 28h-123v-295q0 -28 29 -28h32v-78h-300v78h21q30 0 30 28v295h-147v-295q0 -28 29 -28h24v-78h-292v78h21q30 0 30 28v295h-56v84h31q25 0 25 22v16q0 48 18 90t51 72t81 48t108 18q14 0 36 -2q13 -1 30 -5v-97h-13q-14 5 -30 8
q-18 3 -42 3q-33 0 -43 -19t-10 -63v-92h122q25 0 25 22v16q0 47 18 89q18 41 51 73q32 31 81 49q48 18 109 18q23 0 45 -5v-97h-13q-12 5 -24 6q-16 2 -25 2q-33 0 -43 -19t-10 -63v-92h311q29 0 29 -28v-351q0 -28 29 -28h22v-78h-290v78zM746 663v-1q0 47 27 71t72 24
t72 -24t27 -70t-27 -70t-72 -24t-72 24t-27 70z" />
    <glyph glyph-name="f_f_j" unicode="ffj" horiz-adv-x="993" 
d="M359 78h23q30 0 30 28v295h-147v-295q0 -28 29 -28h24v-78h-292v78h21q30 0 30 28v295h-56v84h31q25 0 25 22v16q0 48 18 90t51 72t81 48t108 18q14 0 36 -2q13 -1 30 -5v-97h-13q-14 5 -30 8q-18 3 -42 3q-33 0 -43 -19t-10 -63v-92h122q25 0 25 22v16q0 46 17 89
q16 41 48 73q31 31 78 49t107 18q20 0 42 -5v-97h-13q-13 4 -24 5l-18 2q-33 0 -42 -16t-9 -60v-96h301q29 0 29 -28v-453q0 -114 -70 -171t-223 -57v78q31 0 52 6t33 21q13 16 17 41q5 28 5 63v389q0 28 -29 28h-113v-295q0 -28 29 -28h32v-78h-300v78zM742 661v-1
q0 47 27 71t72 24t72 -24t27 -70t-27 -70t-72 -24t-72 24t-27 70z" />
    <glyph glyph-name="f_f_k" unicode="ffk" horiz-adv-x="1316" 
d="M359 78l23 2q30 0 30 28v295h-147v-295q0 -28 29 -28h24v-78h-292v78h21q30 0 30 28v295h-56v84h31q25 0 25 22v16q0 48 18 90t51 72t81 48t108 18q14 0 36 -2q13 -1 30 -5v-97h-13q-14 5 -30 8q-18 3 -42 3q-33 0 -43 -19t-10 -63v-92h122q25 0 25 22v16q0 51 18 93
q18 41 53 72t86 47q53 17 114 17h75q47 0 67 -1q30 -2 51 -3q22 -2 29 -3q13 -1 21 -8q8 -6 8 -21v-610q0 -28 29 -28h22v-78h-287v78h19q29 0 29 28v508q0 25 -12 39t-54 14q-41 0 -61 -20q-19 -19 -19 -71v-92h100v-84h-100v-295q0 -28 29 -28h24v-78h-292v78zM941 256
l93 97q3 3 8.5 9.5t8.5 9.5q9 10 9 21q0 16 -20 16h-21v78h265v-78h-7q-46 0 -75 -13q-30 -14 -57 -42l-40 -44l121 -164q19 -27 38 -45q18 -17 48 -21v-78h-96q-64 0 -104 20t-65 63z" />
    <glyph glyph-name="f_f_l" unicode="ffl" horiz-adv-x="998" 
d="M359 78l23 2q30 0 30 28v295h-147v-295q0 -28 29 -28h24v-78h-292v78h21q30 0 30 28v295h-56v84h31q25 0 25 22v16q0 48 18 90t51 72t81 48t108 18q14 0 36 -2q13 -1 30 -5v-97h-13q-14 5 -30 8q-18 3 -42 3q-33 0 -43 -19t-10 -63v-92h122q25 0 25 22v16q0 51 18 93
q18 41 53 72t86 47q53 17 114 17h75q47 0 67 -1q30 -2 51 -3q22 -2 29 -3q13 -1 21 -8q8 -6 8 -21v-610q0 -28 29 -28h22v-78h-290v78h22q29 0 29 28v508q0 25 -12 39t-54 14q-41 0 -61 -20q-19 -19 -19 -71v-92h100v-84h-100v-295q0 -28 29 -28h24v-78h-292v78z" />
    <glyph glyph-name="f_y" unicode="fy" horiz-adv-x="849" 
d="M343 -129l14 3q24 -9 59 -9q47 0 73 14q25 13 39 48l9 23l-176 421q-8 20 -18 26q-11 6 -30 6h-48v-295q0 -28 29 -28h37v-78h-305v78h21q30 0 30 28v295h-56v84h31q25 0 25 22v16q0 48 18 90t51 72t81 48t108 18q14 0 36 -2q13 -1 30 -5v-97h-13q-14 5 -30 8
q-18 3 -42 3q-33 0 -43 -19t-10 -63v-92h332v-78h-31q-17 0 -17 -15q0 -4 2 -12t3 -13l77 -208h4l72 207q2 10 3 14q2 8 2 11q0 15 -17 15h-28v78h192v-78h-8q-19 0 -30 -8q-11 -7 -18 -30l-180 -471q-28 -73 -79 -103t-124 -30q-26 0 -40 1q-25 2 -35 4v101z" />
    <glyph glyph-name="f_yacute" unicode="f&#xfd;" horiz-adv-x="849" 
d="M343 -129l14 3q24 -9 59 -9q47 0 73 14q25 13 39 48l9 23l-176 421q-8 20 -18 26q-11 6 -30 6h-48v-295q0 -28 29 -28h37v-78h-305v78h21q30 0 30 28v295h-56v84h31q25 0 25 22v16q0 48 18 90t51 72t81 48t108 18q14 0 36 -2q13 -1 30 -5v-97h-13q-14 5 -30 8
q-18 3 -42 3q-33 0 -43 -19t-10 -63v-92h332v-78h-31q-17 0 -17 -15q0 -4 2 -12t3 -13l77 -208h4l72 207q2 10 3 14q2 8 2 11q0 15 -17 15h-28v78h192v-78h-8q-19 0 -30 -8q-11 -7 -18 -30l-180 -471q-28 -73 -79 -103t-124 -30q-26 0 -40 1q-25 2 -35 4v101zM549 568l-1 2
q35 41 68 77l27 30q18 20 25 27l21 21q3 3 8 7.5t6 5.5q18 15 42 15q13 0 25 -6t21 -15q10 -10 14 -21q5 -13 5 -23q0 -28 -26 -48l-18 -12q-4 -3 -13.5 -8.5t-13.5 -7.5q-6 -3 -17 -9.5t-16 -9.5q-12 -7 -34 -19q-51 -29 -88 -48z" />
    <glyph glyph-name="f_ydieresis" unicode="f&#xff;" horiz-adv-x="849" 
d="M343 -129l12 4q24 -9 59 -9q47 0 73 14q25 14 39 48l9 23l-176 421q-8 20 -18 26q-11 6 -30 6h-48v-295q0 -28 29 -28h37v-78h-305v78h21q30 0 30 28v295h-56v84h31q25 0 25 22v16q0 48 18 90t51 72t81 48t108 18q23 0 45 -5v-97h-13q-12 4 -24 6q-16 2 -25 2
q-33 0 -43 -19t-10 -63v-92h332v-78h-31q-17 0 -17 -15q0 -4 2 -12t3 -13l77 -208h4l72 207q2 10 3 14q2 8 2 11q0 15 -17 15h-28v78h192v-78h-8q-19 0 -30 -8q-11 -7 -18 -30l-180 -471q-28 -73 -79 -103t-124 -30q-26 0 -40 1q-25 2 -35 4v101zM416 615l-1 -4q0 42 23 62
t63 20q41 0 64 -19q24 -19 24 -61q0 -41 -24 -61q-23 -19 -64 -19q-40 0 -63 20q-22 19 -22 62zM644 611l-1 -4q0 42 23 62t63 20q41 0 64 -19q24 -19 24 -61q0 -41 -24 -61q-23 -19 -64 -19q-40 0 -63 20q-22 19 -22 62z" />
    <glyph glyph-name="uni06440671" unicode="&#xfedf;&#xfb51;" horiz-adv-x="534" 
d="M444 384l-1 -4q37 -32 54 -69q16 -36 16 -88q0 -113 -43 -169q-44 -57 -132 -57h-319v180l215 148l-215 101v174l10 8l303 -159q1 5 1 15v16v263h140v-263q0 -32 -6 -54t-23 -42zM338 186l-1 -2q52 0 77 5q23 5 23 18q0 5 -5 12q-4 6 -18 15t-36 21q-28 15 -60 29
l-140 -96v-2h160zM211 844l-3 -1q16 0 33 -6t30 -19q13 -14 21 -33q8 -21 8 -47q0 -51 -24 -78t-66 -27q-36 0 -63 10t-55 10q-20 0 -37 -6q-16 -6 -24 -17h-13v67q23 33 67 36q28 56 59 84q30 27 67 27zM207 713l1 -1q16 0 29 5q12 5 12 15q0 14 -15 20t-31 6
q-44 0 -71 -32l39 -9q17 -4 36 -4z" />
    <glyph glyph-name="uni06440671.fina" unicode="&#xfee0;&#xfb51;" horiz-adv-x="664" 
d="M207 -10l-1 -3q-15 0 -43 2q-21 1 -42 6q-9 2 -43 11q-17 4 -49 17v156h131h21q14 0 21 1l-117 437v12h151l112 -426q28 11 47 24q21 14 35 30v27v462h140v-479q0 -40 21 -58t71 -18v-160l-30 -30q-149 0 -188 131q-15 -28 -36 -54q-20 -25 -50 -45q-27 -19 -66 -31
q-38 -12 -85 -12zM209 886l-3 -1q16 0 33 -6t30 -19q13 -14 21 -33q8 -21 8 -47q0 -51 -24 -78t-66 -27q-36 0 -63 10t-55 10q-20 0 -37 -6q-16 -6 -24 -17h-13v67q23 33 67 36q28 56 59 84q30 27 67 27zM205 755l1 -1q16 0 29 5q12 5 12 15q0 14 -15 20t-31 6
q-44 0 -71 -32l39 -9q17 -4 36 -4z" />
    <glyph glyph-name="uni06330632" unicode="&#xfeb3;&#xfeb0;" horiz-adv-x="978" 
d="M63 -254v-6q-44 0 -85 22q-43 23 -77 63v111l10 9q33 -12 63 -17q33 -6 63 -6q31 0 57 14q25 13 45 38q19 24 30 57q11 35 11 72q0 29 -8 66q-8 35 -27 90l6 8l327 30v-102q26 -20 69 -20q41 0 54 15q13 14 13 56v51h110v-51q0 -35 -3 -65q29 -6 58 -6q28 0 39 8
q10 7 10 30q0 22 -5 59q-5 33 -15 78l6 8h118q16 -86 16 -144q0 -227 -169 -227q-36 0 -66 12t-50 32q-42 -43 -115 -43q-66 0 -108 27q-43 28 -71 85l-68 -6v-7q0 -72 -19 -132q-20 -61 -51 -108q-32 -47 -75 -74q-44 -27 -93 -27zM201 500l84 -82l-84 -82h-10l-84 82
l84 82h10z" />
    <glyph glyph-name="uni06340632" unicode="&#xfeb7;&#xfeb0;" horiz-adv-x="978" 
d="M63 -254v-6q-44 0 -85 22q-43 23 -77 63v111l10 9q33 -12 63 -17q33 -6 63 -6q31 0 57 14q25 13 45 38q19 24 30 57q11 35 11 72q0 29 -8 66q-8 35 -27 90l6 8l327 30v-102q26 -20 69 -20q41 0 54 15q13 14 13 56v51h110v-51q0 -35 -3 -65q29 -6 58 -6q28 0 39 8
q10 7 10 30q0 22 -5 59q-5 33 -15 78l6 8h118q16 -86 16 -144q0 -227 -169 -227q-36 0 -66 12t-50 32q-42 -43 -115 -43q-66 0 -108 27q-43 28 -71 85l-68 -6v-7q0 -72 -19 -132q-20 -61 -51 -108q-32 -47 -75 -74q-44 -27 -93 -27zM573 592l81 79h10l81 -79l-81 -79h-10z
M738 366h-10l-69 67l-69 -67h-10l-84 82l84 82h10l69 -67l69 67h10l84 -82zM201 500l84 -82l-84 -82h-10l-84 82l84 82h10z" />
    <glyph glyph-name="uni06330632.fina" unicode="&#xfeb4;&#xfeb0;" horiz-adv-x="1039" 
d="M63 -254l-1 -7q-44 0 -85 22q-43 23 -77 63v111l10 9q33 -12 63 -17q33 -6 63 -6q31 0 57 14q25 13 45 38q20 24 30 57q11 35 11 72q0 29 -8 66q-7 34 -27 90l6 8l327 30v-102q26 -20 69 -20q40 0 54 15q14 16 14 56v51h110v-51q0 -35 -3 -65q29 -6 58 -6q31 0 42 14
t11 57v81h110v-81v-27q0 -18 -1 -27q49 -6 97 -6v-170l-30 -20q-37 0 -67 9q-28 8 -52 26q-39 -45 -110 -45q-35 0 -65 12t-50 32q-21 -20 -53 -31q-29 -10 -63 -10q-66 0 -108 27q-43 28 -71 85l-68 -6v-7q0 -72 -19 -132q-20 -61 -51 -108q-32 -47 -75 -74
q-44 -27 -93 -27zM200 499l84 -82l-84 -82h-10l-84 82l84 82h10z" />
    <glyph glyph-name="uni06340632.fina" unicode="&#xfeb8;&#xfeb0;" horiz-adv-x="1039" 
d="M63 -254l-1 -7q-44 0 -85 22q-43 23 -77 63v111l10 9q33 -12 63 -17q33 -6 63 -6q31 0 57 14q25 13 45 38q20 24 30 57q11 35 11 72q0 29 -8 66q-7 34 -27 90l6 8l327 30v-102q26 -20 69 -20q40 0 54 15q14 16 14 56v51h110v-51q0 -35 -3 -65q29 -6 58 -6q31 0 42 14
t11 57v81h110v-81v-27q0 -18 -1 -27q49 -6 97 -6v-170l-30 -20q-37 0 -67 9q-28 8 -52 26q-39 -45 -110 -45q-35 0 -65 12t-50 32q-21 -20 -53 -31q-29 -10 -63 -10q-66 0 -108 27q-43 28 -71 85l-68 -6v-7q0 -72 -19 -132q-20 -61 -51 -108q-32 -47 -75 -74
q-44 -27 -93 -27zM582 591l81 79h10l81 -79l-81 -79h-10zM747 365h-10l-69 67l-69 -67h-10l-84 82l84 82h10l69 -67l69 67h10l84 -82zM200 499l84 -82l-84 -82h-10l-84 82l84 82h10z" />
    <glyph glyph-name="uni06330626" unicode="&#xfeb3;&#xfe8a;" horiz-adv-x="1352" 
d="M408 -325l-2 -3q-94 0 -164 22q-72 23 -121 64t-76 102q-27 60 -27 135q0 51 7 101q7 54 21 102h110v-9q-7 -28 -12 -62q-4 -29 -4 -62q0 -93 69 -138t227 -45q100 0 156 9q55 9 55 24q0 5 -4 9q-5 5 -16 8q-13 3 -31 6q-2 0 -20.5 3t-30.5 5l-77 11q-84 12 -123 48
t-39 105q0 60 26 117q26 56 70 99q45 44 103 69q60 26 125 26q50 0 95 -24q46 -24 77 -81l29 -51q12 -23 26 -42q11 -15 23 -27q10 -10 23 -15q12 -5 27 -6q14 1 29 5q11 3 18 11q6 7 9 21t3 33v51h110v-51q0 -35 -3 -65q28 -6 58 -6q28 0 39 8q10 7 10 30q0 22 -5 59
q-4 33 -15 78l6 8h118q16 -86 16 -144q0 -227 -169 -227q-36 0 -66 12t-50 32q-42 -43 -115 -43q-35 0 -60 6q-26 6 -47 21q-22 16 -42 40q-21 26 -45 66l-30 51q-20 34 -51 47q-33 14 -75 14q-28 0 -61 -5q-31 -5 -52 -13q-24 -10 -36 -19q-14 -11 -14 -23t18 -19t65 -15
l77 -11q88 -12 128 -51q41 -39 41 -113q0 -138 -81 -213t-250 -75zM17 326l-1 -1q-9 23 -9 39q0 51 35 83t86 32q71 0 71 -69v-40h-50v6q0 19 -35 19q-24 0 -40 -9t-16 -21q0 -11 12 -21t35 -18h116v-80h-238v80h34z" />
    <glyph glyph-name="uni06340626" unicode="&#xfeb7;&#xfe8a;" horiz-adv-x="1352" 
d="M408 -325l-2 -3q-94 0 -164 22q-72 23 -121 64t-76 102q-27 60 -27 135q0 51 7 101q7 54 21 102h110v-9q-7 -28 -12 -62q-4 -29 -4 -62q0 -93 69 -138t227 -45q100 0 156 9q55 9 55 24q0 5 -4 9q-5 5 -16 8q-13 3 -31 6q-2 0 -20.5 3t-30.5 5l-77 11q-84 12 -123 48
t-39 105q0 60 26 117q26 56 70 99q45 44 103 69q60 26 125 26q50 0 95 -24q46 -24 77 -81l29 -51q12 -23 26 -42q11 -15 23 -27q10 -10 23 -15q12 -5 27 -6q14 1 29 5q11 3 18 11q6 7 9 21t3 33v51h110v-51q0 -35 -3 -65q28 -6 58 -6q28 0 39 8q10 7 10 30q0 22 -5 59
q-4 33 -15 78l6 8h118q16 -86 16 -144q0 -227 -169 -227q-36 0 -66 12t-50 32q-42 -43 -115 -43q-35 0 -60 6q-26 6 -47 21q-22 16 -42 40q-21 26 -45 66l-30 51q-20 34 -51 47q-33 14 -75 14q-28 0 -61 -5q-31 -5 -52 -13q-24 -10 -36 -19q-14 -11 -14 -23t18 -19t65 -15
l77 -11q88 -12 128 -51q41 -39 41 -113q0 -138 -81 -213t-250 -75zM945 595l81 79h10l81 -79l-81 -79h-10zM1110 369h-10l-69 67l-69 -67h-10l-84 82l84 82h10l69 -67l69 67h10l84 -82zM17 326l-1 -1q-9 23 -9 39q0 51 35 83t86 32q71 0 71 -69v-40h-50v6q0 19 -35 19
q-24 0 -40 -9t-16 -21q0 -11 12 -21t35 -18h116v-80h-238v80h34z" />
    <glyph glyph-name="uni06330626.fina" unicode="&#xfeb4;&#xfe8a;" horiz-adv-x="1412" 
d="M408 -325l-3 -5q-94 0 -164 22q-72 23 -121 64t-76 102q-27 60 -27 135q0 51 7 101q8 54 21 102h110v-9q-7 -28 -12 -62q-4 -29 -4 -62q0 -93 69 -138t227 -45q101 0 156 9t55 24q0 5 -4 9q-5 5 -16 8q-13 3 -31 6q-2 0 -20.5 3t-30.5 5l-77 11q-84 12 -123 48t-39 105
q0 60 26 117q26 56 70 99q45 44 103 69q60 26 125 26q50 0 95 -24q46 -24 77 -81l29 -51q12 -23 26 -42q11 -15 23 -27q10 -10 23 -15q11 -4 27 -4q35 0 47 15t12 56v51h110v-51q0 -35 -3 -65q29 -6 58 -6q31 0 42 14t11 57v81h110v-81v-27q0 -18 -1 -27q49 -6 97 -6v-170
l-30 -20q-37 0 -67 9q-28 8 -52 26q-39 -45 -109 -45q-36 0 -66 12t-50 32q-42 -43 -115 -43q-35 0 -60 6q-26 6 -47 21q-22 16 -42 40q-21 26 -45 66l-30 51q-20 34 -51 47q-33 14 -75 14q-28 0 -61 -5q-31 -5 -52 -13q-24 -10 -36 -19q-14 -11 -14 -23t18 -19t65 -15
l77 -11q88 -12 128 -51q41 -39 41 -113q0 -138 -81 -213t-250 -75zM16 324l-1 -1q-9 23 -9 39q0 51 35 83t86 32q71 0 71 -69v-40h-50v6q0 19 -35 19q-23 0 -40 -9q-16 -9 -16 -21q0 -11 12 -21t35 -18h116v-80h-238v80h34z" />
    <glyph glyph-name="uni06340626.fina" unicode="&#xfeb8;&#xfe8a;" horiz-adv-x="1412" 
d="M408 -325l-3 -5q-94 0 -164 22q-72 23 -121 64t-76 102q-27 60 -27 135q0 51 7 101q8 54 21 102h110v-9q-7 -28 -12 -62q-4 -29 -4 -62q0 -93 69 -138t227 -45q101 0 156 9t55 24q0 5 -4 9q-5 5 -16 8q-13 3 -31 6q-2 0 -20.5 3t-30.5 5l-77 11q-84 12 -123 48t-39 105
q0 60 26 117q26 56 70 99q45 44 103 69q60 26 125 26q50 0 95 -24q46 -24 77 -81l29 -51q12 -23 26 -42q11 -15 23 -27q10 -10 23 -15q11 -4 27 -4q35 0 47 15t12 56v51h110v-51q0 -35 -3 -65q29 -6 58 -6q31 0 42 14t11 57v81h110v-81v-27q0 -18 -1 -27q49 -6 97 -6v-170
l-30 -20q-37 0 -67 9q-28 8 -52 26q-39 -45 -109 -45q-36 0 -66 12t-50 32q-42 -43 -115 -43q-35 0 -60 6q-26 6 -47 21q-22 16 -42 40q-21 26 -45 66l-30 51q-20 34 -51 47q-33 14 -75 14q-28 0 -61 -5q-31 -5 -52 -13q-24 -10 -36 -19q-14 -11 -14 -23t18 -19t65 -15
l77 -11q88 -12 128 -51q41 -39 41 -113q0 -138 -81 -213t-250 -75zM954 593l81 79h10l81 -79l-81 -79h-10zM1119 367h-10l-69 67l-69 -67h-10l-84 82l84 82h10l69 -67l69 67h10l84 -82zM16 324l-1 -1q-9 23 -9 39q0 51 35 83t86 32q71 0 71 -69v-40h-50v6q0 19 -35 19
q-23 0 -40 -9q-16 -9 -16 -21q0 -11 12 -21t35 -18h116v-80h-238v80h34z" />
    <glyph glyph-name="uni06350632" unicode="&#xfebb;&#xfeb0;" horiz-adv-x="1127" 
d="M63 -254l1 -7q-44 0 -85 22q-43 23 -77 63v111l10 9q33 -12 63 -17q33 -6 63 -6q31 0 57 14q25 13 45 38q20 24 30 57q11 35 11 72q0 29 -8 66q-7 34 -27 90l6 8l327 30v-89q11 -7 21 -12l110 126q38 45 69 74q31 30 66 52q31 20 68 31q36 11 74 11q46 0 85 -19
q42 -20 71 -52q30 -33 48 -76q18 -44 18 -91q0 -55 -18 -101t-51 -81t-78 -54q-44 -19 -99 -19h-266q-46 0 -79 6q-34 6 -59 18t-47 32q-21 20 -42 48l-69 -6v-7q0 -72 -19 -132q-20 -61 -51 -108q-32 -47 -75 -74q-44 -27 -93 -27zM924 183h1q51 0 72 9t21 30q0 16 -12 30
t-33 24q-19 10 -48 16q-27 6 -59 6q-69 0 -129 -25q-61 -25 -129 -81l-5 -4l1 -4q3 -1 12 -1h12h296zM203 499l84 -82l-84 -82h-10l-84 82l84 82h10z" />
    <glyph glyph-name="uni06360632" unicode="&#xfebf;&#xfeb0;" horiz-adv-x="1127" 
d="M63 -254l1 -7q-44 0 -85 22q-43 23 -77 63v111l10 9q33 -12 63 -17q33 -6 63 -6q31 0 57 14q25 13 45 38q20 24 30 57q11 35 11 72q0 29 -8 66q-7 34 -27 90l6 8l327 30v-89q11 -7 21 -12l110 126q38 45 69 74q31 30 66 52q31 20 68 31q36 11 74 11q46 0 85 -19
q42 -20 71 -52q30 -33 48 -76q18 -44 18 -91q0 -55 -18 -101t-51 -81t-78 -54q-44 -19 -99 -19h-266q-46 0 -79 6q-34 6 -59 18t-47 32q-21 20 -42 48l-69 -6v-7q0 -72 -19 -132q-20 -61 -51 -108q-32 -47 -75 -74q-44 -27 -93 -27zM924 183h1q51 0 72 9t21 30q0 16 -12 30
t-33 24q-19 10 -48 16q-27 6 -59 6q-69 0 -129 -25q-61 -25 -129 -81l-5 -4l1 -4q3 -1 12 -1h12h296zM129 499l84 -82l-84 -82h-10l-84 82l84 82h10zM779 722l84 -82l-84 -82h-10l-84 82l84 82h10z" />
    <glyph glyph-name="uni06350632.fina" unicode="&#xfebc;&#xfeb0;" horiz-adv-x="1195" 
d="M63 -254v-8q-44 0 -85 22q-43 23 -77 63v111l10 9q33 -12 63 -17q33 -6 63 -6q31 0 57 14q25 13 45 38q19 24 30 57q11 35 11 72q0 29 -8 66q-8 35 -27 90l6 8l327 30v-89q10 -8 21 -12l110 126q38 45 69 74q31 30 66 52q31 20 68 31q36 11 74 11q46 0 85 -19
q42 -20 71 -52q30 -33 48 -76t18 -91q0 -32 -6 -60q14 -2 42 -4q15 -1 51 -1v-160l-30 -30q-83 0 -147 54q-32 -26 -70 -39q-40 -14 -85 -14h-266q-46 0 -79 6q-34 6 -59 18t-47 32q-21 20 -42 48l-69 -6v-7q0 -72 -19 -132q-20 -61 -51 -108q-32 -47 -75 -74
q-44 -27 -93 -27zM923 182h1q51 0 72 9t21 30q0 17 -12 30t-33 24q-19 10 -48 16q-27 6 -59 6q-69 0 -129 -25q-62 -26 -129 -81l-5 -4l1 -4q3 -1 12 -1h12h296zM202 498l84 -82l-84 -82h-10l-84 82l84 82h10z" />
    <glyph glyph-name="uni06360632.fina" unicode="&#xfec0;&#xfeb0;" horiz-adv-x="1195" 
d="M63 -254v-8q-44 0 -85 22q-43 23 -77 63v111l10 9q33 -12 63 -17q33 -6 63 -6q31 0 57 14q25 13 45 38q19 24 30 57q11 35 11 72q0 29 -8 66q-8 35 -27 90l6 8l327 30v-89q10 -8 21 -12l110 126q38 45 69 74q31 30 66 52q31 20 68 31q36 11 74 11q46 0 85 -19
q42 -20 71 -52q30 -33 48 -76t18 -91q0 -32 -6 -60q14 -2 42 -4q15 -1 51 -1v-160l-30 -30q-83 0 -147 54q-32 -26 -70 -39q-40 -14 -85 -14h-266q-46 0 -79 6q-34 6 -59 18t-47 32q-21 20 -42 48l-69 -6v-7q0 -72 -19 -132q-20 -61 -51 -108q-32 -47 -75 -74
q-44 -27 -93 -27zM923 182h1q51 0 72 9t21 30q0 17 -12 30t-33 24q-19 10 -48 16q-27 6 -59 6q-69 0 -129 -25q-62 -26 -129 -81l-5 -4l1 -4q3 -1 12 -1h12h296zM128 498l84 -82l-84 -82h-10l-84 82l84 82h10zM778 721l84 -82l-84 -82h-10l-84 82l84 82h10z" />
    <glyph glyph-name="uni06350626" unicode="&#xfebb;&#xfe8a;" horiz-adv-x="1438" 
d="M1197 495v-6q46 0 85 -19q42 -20 71 -52q30 -33 48 -76q18 -44 18 -91q0 -55 -18 -101t-51 -81t-78 -54q-44 -19 -99 -19h-267q-30 0 -54 6q-23 6 -45 20q-19 12 -40 38q-19 24 -39 57l-30 51q-20 34 -51 47q-33 14 -75 14q-28 0 -61 -5q-31 -5 -52 -13q-24 -10 -36 -19
q-14 -11 -14 -23q0 -11 18 -19q18 -7 65 -15l77 -11q88 -12 128 -51q41 -39 41 -113q0 -138 -81 -213t-250 -75q-94 0 -164 22q-72 23 -121 64t-76 102q-27 60 -27 135q0 51 7 101q8 54 21 102h110v-9q-7 -28 -12 -62q-4 -29 -4 -62q0 -93 69 -138t227 -45q101 0 156 9
t55 24q0 5 -4 9q-5 5 -16 8q-13 3 -31 6q-2 0 -20.5 3t-30.5 5l-77 11q-84 12 -123 48t-39 105q0 60 26 117q26 56 70 99q45 44 103 69q60 26 125 26q50 0 95 -24q46 -24 77 -81l29 -51q3 -4 7 -12t7 -11l74 85q38 45 69 74q31 30 66 52q31 20 68 31q36 11 74 11zM1234 184
v1q51 0 72 9t21 29q0 13 -12 27t-33 24t-48 18q-25 7 -58 7q-45 0 -79 -7q-35 -7 -67 -21q-30 -13 -58 -33q-24 -18 -52 -42l-8 -7l1 -4q3 -1 11 -1h12h298zM19 324l-1 -1q-9 23 -9 39q0 51 35 83t86 32q71 0 71 -69v-40h-50v6q0 19 -35 19q-24 0 -40 -9t-16 -21
q0 -11 12 -21t35 -18h116v-80h-238v80h34z" />
    <glyph glyph-name="uni06360626" unicode="&#xfebf;&#xfe8a;" horiz-adv-x="1438" 
d="M1197 495v-6q46 0 85 -19q42 -20 71 -52q30 -33 48 -76q18 -44 18 -91q0 -55 -18 -101t-51 -81t-78 -54q-44 -19 -99 -19h-267q-30 0 -54 6q-23 6 -45 20q-19 12 -40 38q-19 24 -39 57l-30 51q-20 34 -51 47q-33 14 -75 14q-28 0 -61 -5q-31 -5 -52 -13q-24 -10 -36 -19
q-14 -11 -14 -23q0 -11 18 -19q18 -7 65 -15l77 -11q88 -12 128 -51q41 -39 41 -113q0 -138 -81 -213t-250 -75q-94 0 -164 22q-72 23 -121 64t-76 102q-27 60 -27 135q0 51 7 101q8 54 21 102h110v-9q-7 -28 -12 -62q-4 -29 -4 -62q0 -93 69 -138t227 -45q101 0 156 9
t55 24q0 5 -4 9q-5 5 -16 8q-13 3 -31 6q-2 0 -20.5 3t-30.5 5l-77 11q-84 12 -123 48t-39 105q0 60 26 117q26 56 70 99q45 44 103 69q60 26 125 26q50 0 95 -24q46 -24 77 -81l29 -51q3 -4 7 -12t7 -11l74 85q38 45 69 74q31 30 66 52q31 20 68 31q36 11 74 11zM1234 184
v1q51 0 72 9t21 29q0 13 -12 27t-33 24t-48 18q-25 7 -58 7q-45 0 -79 -7q-35 -7 -67 -21q-30 -13 -58 -33q-24 -18 -52 -42l-8 -7l1 -4q3 -1 11 -1h12h298zM19 324l-1 -1q-9 23 -9 39q0 51 35 83t86 32q71 0 71 -69v-40h-50v6q0 19 -35 19q-24 0 -40 -9t-16 -21
q0 -11 12 -21t35 -18h116v-80h-238v80h34zM1161 723l84 -82l-84 -82h-10l-84 82l84 82h10z" />
    <glyph glyph-name="uni06350626.fina" unicode="&#xfebc;&#xfe8a;" horiz-adv-x="1506" 
d="M1412 195l-1 -7q14 -2 42 -4q15 -1 51 -1v-160l-30 -30q-82 0 -147 54q-32 -26 -70 -39q-40 -14 -85 -14h-267q-30 0 -54 6q-23 6 -45 20q-19 12 -40 38q-20 24 -39 57l-30 51q-20 34 -51 47q-33 14 -75 14q-28 0 -61 -5q-31 -5 -52 -13q-24 -10 -36 -19q-14 -11 -14 -23
q0 -11 18 -19q18 -7 65 -15l77 -11q88 -12 128 -51q41 -39 41 -113q0 -138 -81 -213t-250 -75q-94 0 -164 22q-72 23 -121 64t-76 102q-27 60 -27 135q0 51 7 101q7 54 21 102h110v-9q-7 -28 -12 -62q-4 -29 -4 -62q0 -93 69 -138t227 -45q100 0 156 9q55 9 55 24q0 5 -4 9
q-5 5 -16 8q-13 3 -31 6q-2 0 -20.5 3t-30.5 5l-77 11q-84 12 -123 48t-39 105q0 60 26 117q26 56 70 99q45 44 103 69q60 26 125 26q50 0 95 -24q46 -24 77 -81l29 -51q3 -4 7 -12t7 -11l74 85q38 45 69 74q31 30 66 52q31 20 68 31q36 11 74 11q46 0 85 -19q42 -20 71 -52
q30 -33 48 -76q18 -44 18 -91q0 -31 -6 -60zM1233 183v1q51 0 72 9t21 29q0 14 -12 27t-33 24t-48 18q-25 7 -58 7q-45 0 -79 -7q-35 -7 -67 -21q-30 -13 -58 -33q-24 -18 -52 -42l-8 -7l1 -4q3 -1 11 -1h12h298zM18 323l-1 -1q-9 22 -9 39q0 51 35 83t86 32q71 0 71 -69
v-40h-50v6q0 19 -35 19q-23 0 -40 -9q-16 -9 -16 -21q0 -10 12 -21q12 -10 35 -18h116v-80h-238v80h34z" />
    <glyph glyph-name="uni06360626.fina" unicode="&#xfec0;&#xfe8a;" horiz-adv-x="1506" 
d="M1412 195l-1 -7q14 -2 42 -4q15 -1 51 -1v-160l-30 -30q-82 0 -147 54q-32 -26 -70 -39q-40 -14 -85 -14h-267q-30 0 -54 6q-23 6 -45 20q-19 12 -40 38q-20 24 -39 57l-30 51q-20 34 -51 47q-33 14 -75 14q-28 0 -61 -5q-31 -5 -52 -13q-24 -10 -36 -19q-14 -11 -14 -23
q0 -11 18 -19q18 -7 65 -15l77 -11q88 -12 128 -51q41 -39 41 -113q0 -138 -81 -213t-250 -75q-94 0 -164 22q-72 23 -121 64t-76 102q-27 60 -27 135q0 51 7 101q7 54 21 102h110v-9q-7 -28 -12 -62q-4 -29 -4 -62q0 -93 69 -138t227 -45q100 0 156 9q55 9 55 24q0 5 -4 9
q-5 5 -16 8q-13 3 -31 6q-2 0 -20.5 3t-30.5 5l-77 11q-84 12 -123 48t-39 105q0 60 26 117q26 56 70 99q45 44 103 69q60 26 125 26q50 0 95 -24q46 -24 77 -81l29 -51q3 -4 7 -12t7 -11l74 85q38 45 69 74q31 30 66 52q31 20 68 31q36 11 74 11q46 0 85 -19q42 -20 71 -52
q30 -33 48 -76q18 -44 18 -91q0 -31 -6 -60zM1233 183v1q51 0 72 9t21 29q0 14 -12 27t-33 24t-48 18q-25 7 -58 7q-45 0 -79 -7q-35 -7 -67 -21q-30 -13 -58 -33q-24 -18 -52 -42l-8 -7l1 -4q3 -1 11 -1h12h298zM18 323l-1 -1q-9 22 -9 39q0 51 35 83t86 32q71 0 71 -69
v-40h-50v6q0 19 -35 19q-23 0 -40 -9q-16 -9 -16 -21q0 -10 12 -21q12 -10 35 -18h116v-80h-238v80h34zM1160 722l84 -82l-84 -82h-10l-84 82l84 82h10z" />
    <glyph glyph-name="uni06430626" unicode="&#xfedb;&#xfe8a;" horiz-adv-x="830" 
d="M408 -255h-1q-92 0 -164 21q-70 20 -121 62q-49 40 -76 99t-27 134q0 53 7 105q8 56 21 105h110v-9q-7 -32 -12 -66q-4 -31 -4 -66q0 -43 17 -77q16 -33 52 -55t92 -33q53 -10 135 -10q34 0 88 2q40 1 70 6q31 5 46 10q17 6 17 14q0 5 -5 10t-18 8t-36 6q-6 1 -25 3.5
t-32 4.5l-143 18v182l5 6l142 -14l56 -4q21 -1 33 0q13 2 17 6q5 5 5 12q0 11 -15 21q-16 11 -58 33l-213 110v190l446 174h12v-162l-283 -105l38 -25q41 -27 76 -54q32 -24 51 -48q19 -23 28 -49t9 -54q0 -40 -15 -73t-61 -64v-4q46 -19 61 -49t15 -67q0 -126 -82 -190
t-258 -64zM18 400l-1 -1q-9 23 -9 39q0 51 35 83t86 32q71 0 71 -69v-40h-50v6q0 19 -35 19q-23 0 -40 -9q-16 -9 -16 -21q0 -11 12 -21t35 -18h116v-80h-238v80h34z" />
    <glyph glyph-name="uni06A9064A" unicode="&#xfb90;&#xfef2;" horiz-adv-x="830" 
d="M408 -255h-1q-92 0 -164 21q-70 20 -121 62q-49 40 -76 99t-27 134q0 53 7 105q8 56 21 105h110v-9q-7 -32 -12 -66q-4 -31 -4 -66q0 -43 17 -77q16 -33 52 -55t92 -33q53 -10 135 -10q34 0 88 2q40 1 70 6q31 5 46 10q17 6 17 14q0 5 -5 10t-18 8t-36 6q-6 1 -25 3.5
t-32 4.5l-143 18v182l5 6l142 -14l56 -4q21 -1 33 0q13 2 17 6q5 5 5 12q0 11 -15 21q-16 11 -58 33l-213 110v190l446 174h12v-162l-283 -105l38 -25q41 -27 76 -54q32 -24 51 -48q19 -23 28 -49t9 -54q0 -40 -15 -73t-61 -64v-4q46 -19 61 -49t15 -67q0 -126 -82 -190
t-258 -64zM486 -486h-10l-69 67l-69 -67h-10l-84 82l84 82h10l69 -67l69 67h10l84 -82z" />
    <glyph glyph-name="uni06AF0649" unicode="&#xfb94;&#xfef0;" horiz-adv-x="830" 
d="M408 -255h-1q-92 0 -164 21q-70 20 -121 62q-49 40 -76 99t-27 134q0 53 7 105q8 56 21 105h110v-9q-7 -32 -12 -66q-4 -31 -4 -66q0 -43 17 -77q16 -33 52 -55t92 -33q53 -10 135 -10q34 0 88 2q40 1 70 6q31 5 46 10q17 6 17 14q0 5 -5 10t-18 8t-36 6q-6 1 -25 3.5
t-32 4.5l-143 18v182l5 6l142 -14l56 -4q21 -1 33 0q13 2 17 6q5 5 5 12q0 11 -15 21q-16 11 -58 33l-213 110v190l446 174h12v-162l-283 -105l38 -25q41 -27 76 -54q32 -24 51 -48q19 -23 28 -49t9 -54q0 -40 -15 -73t-61 -64v-4q46 -19 61 -49t15 -67q0 -126 -82 -190
t-258 -64zM371 696l450 174h8v-61l-450 -174h-8v61z" />
    <glyph glyph-name="uni06AF064A" unicode="&#xfb94;&#xfef2;" horiz-adv-x="830" 
d="M408 -255h-1q-92 0 -164 21q-70 20 -121 62q-49 40 -76 99t-27 134q0 53 7 105q8 56 21 105h110v-9q-7 -32 -12 -66q-4 -31 -4 -66q0 -43 17 -77q16 -33 52 -55t92 -33q53 -10 135 -10q34 0 88 2q40 1 70 6q31 5 46 10q17 6 17 14q0 5 -5 10t-18 8t-36 6q-6 1 -25 3.5
t-32 4.5l-143 18v182l5 6l142 -14l56 -4q21 -1 33 0q13 2 17 6q5 5 5 12q0 11 -15 21q-16 11 -58 33l-213 110v190l446 174h12v-162l-283 -105l38 -25q41 -27 76 -54q32 -24 51 -48q19 -23 28 -49t9 -54q0 -40 -15 -73t-61 -64v-4q46 -19 61 -49t15 -67q0 -126 -82 -190
t-258 -64zM486 -486h-10l-69 67l-69 -67h-10l-84 82l84 82h10l69 -67l69 67h10l84 -82zM371 696l450 174h8v-61l-450 -174h-8v61z" />
    <glyph glyph-name="uni06AF0626" unicode="&#xfb94;&#xfe8a;" horiz-adv-x="830" 
d="M408 -255h-1q-92 0 -164 21q-70 20 -121 62q-49 40 -76 99t-27 134q0 53 7 105q8 56 21 105h110v-9q-7 -32 -12 -66q-4 -31 -4 -66q0 -43 17 -77q16 -33 52 -55t92 -33q53 -10 135 -10q34 0 88 2q40 1 70 6q31 5 46 10q17 6 17 14q0 5 -5 10t-18 8t-36 6q-6 1 -25 3.5
t-32 4.5l-143 18v182l5 6l142 -14l56 -4q21 -1 33 0q13 2 17 6q5 5 5 12q0 11 -15 21q-16 11 -58 33l-213 110v190l446 174h12v-162l-283 -105l38 -25q41 -27 76 -54q32 -24 51 -48q19 -23 28 -49t9 -54q0 -40 -15 -73t-61 -64v-4q46 -19 61 -49t15 -67q0 -126 -82 -190
t-258 -64zM18 400l-1 -1q-9 23 -9 39q0 51 35 83t86 32q71 0 71 -69v-40h-50v6q0 19 -35 19q-23 0 -40 -9q-16 -9 -16 -21q0 -11 12 -21t35 -18h116v-80h-238v80h34zM370 695l450 174h8v-61l-450 -174h-8v61z" />
    <glyph glyph-name="uni06430626.fina" unicode="&#xfedc;&#xfe8a;" horiz-adv-x="1110" 
d="M791 471l155 -190q13 -15 38 -43q15 -17 33 -28q17 -10 36 -15q22 -5 45 -5h10v-160l-30 -30q-29 0 -53 6t-48 21q-22 14 -51 41q-24 23 -61 66q-26 -104 -118 -128v-9q0 -121 -90 -187t-250 -66q-92 0 -164 21q-70 20 -121 62q-49 40 -76 99q-27 58 -27 134q0 53 7 105
q8 55 21 105h110v-9q-7 -31 -12 -66q-4 -31 -4 -66q0 -43 17 -77q16 -33 52 -55t92 -33q53 -10 135 -10q34 0 88 2q40 1 70 6q31 5 46 10q17 6 17 14q0 5 -5 10t-18 8t-36 6q-6 1 -25 3.5t-32 4.5l-143 18v182l5 6l142 -19q13 -1 35 -4t31 -4q6 -1 16 -2t17 -2t12 -1
q24 -2 29 -2h18q38 0 59 6q20 6 36 23l-137 172v190l446 174h12v-162zM16 399l-1 -1q-9 22 -9 39q0 51 35 83t86 32q71 0 71 -69v-40h-50v6q0 19 -35 19q-23 0 -40 -9q-16 -9 -16 -21q0 -10 12 -21q12 -10 35 -18h116v-80h-238v80h34z" />
    <glyph glyph-name="uni06AF0649.fina" unicode="&#xfb95;&#xfef0;" horiz-adv-x="1110" 
d="M791 471l155 -190q13 -15 38 -43q15 -17 33 -28q17 -10 36 -15q22 -5 45 -5h10v-160l-30 -30q-29 0 -53 6t-48 21q-22 14 -51 41q-24 23 -61 66q-26 -104 -118 -128v-9q0 -121 -90 -187t-250 -66q-92 0 -164 21q-70 20 -121 62q-49 40 -76 99q-27 58 -27 134q0 53 7 105
q8 55 21 105h110v-9q-7 -31 -12 -66q-4 -31 -4 -66q0 -43 17 -77q16 -33 52 -55t92 -33q53 -10 135 -10q34 0 88 2q40 1 70 6q31 5 46 10q17 6 17 14q0 5 -5 10t-18 8t-36 6q-6 1 -25 3.5t-32 4.5l-143 18v182l5 6l142 -19q13 -1 35 -4t31 -4q6 -1 16 -2t17 -2t12 -1
q24 -2 29 -2h18q38 0 59 6q20 6 36 23l-137 172v190l446 174h12v-162zM659 695l450 174h8v-61l-450 -174h-8v61z" />
    <glyph glyph-name="uni06AF064A.fina" unicode="&#xfb95;&#xfef2;" horiz-adv-x="1110" 
d="M791 471l155 -190q13 -15 38 -43q15 -17 33 -28q17 -10 36 -15q22 -5 45 -5h10v-160l-30 -30q-29 0 -53 6t-48 21q-22 14 -51 41q-24 23 -61 66q-26 -104 -118 -128v-9q0 -121 -90 -187t-250 -66q-92 0 -164 21q-70 20 -121 62q-49 40 -76 99q-27 58 -27 134q0 53 7 105
q8 55 21 105h110v-9q-7 -31 -12 -66q-4 -31 -4 -66q0 -43 17 -77q16 -33 52 -55t92 -33q53 -10 135 -10q34 0 88 2q40 1 70 6q31 5 46 10q17 6 17 14q0 5 -5 10t-18 8t-36 6q-6 1 -25 3.5t-32 4.5l-143 18v182l5 6l142 -19q13 -1 35 -4t31 -4q6 -1 16 -2t17 -2t12 -1
q24 -2 29 -2h18q38 0 59 6q20 6 36 23l-137 172v190l446 174h12v-162zM484 -487h-10l-69 67l-69 -67h-10l-84 82l84 82h10l69 -67l69 67h10l84 -82zM659 695l450 174h8v-61l-450 -174h-8v61z" />
    <glyph glyph-name="uni06AF0626.fina" unicode="&#xfb95;&#xfe8a;" horiz-adv-x="1110" 
d="M791 471l155 -190q13 -15 38 -43q15 -17 33 -28q17 -10 36 -15q22 -5 45 -5h10v-160l-30 -30q-29 0 -53 6t-48 21q-22 14 -51 41q-24 23 -61 66q-26 -104 -118 -128v-9q0 -121 -90 -187t-250 -66q-92 0 -164 21q-70 20 -121 62q-49 40 -76 99q-27 58 -27 134q0 53 7 105
q8 55 21 105h110v-9q-7 -31 -12 -66q-4 -31 -4 -66q0 -43 17 -77q16 -33 52 -55t92 -33q53 -10 135 -10q34 0 88 2q40 1 70 6q31 5 46 10q17 6 17 14q0 5 -5 10t-18 8t-36 6q-6 1 -25 3.5t-32 4.5l-143 18v182l5 6l142 -19q13 -1 35 -4t31 -4q6 -1 16 -2t17 -2t12 -1
q24 -2 29 -2h18q38 0 59 6q20 6 36 23l-137 172v190l446 174h12v-162zM16 399l-1 -1q-9 22 -9 39q0 51 35 83t86 32q71 0 71 -69v-40h-50v6q0 19 -35 19q-23 0 -40 -9q-16 -9 -16 -21q0 -10 12 -21q12 -10 35 -18h116v-80h-238v80h34zM658 694l450 174h8v-61l-450 -174h-8
v61z" />
    <glyph glyph-name="uni06440626" unicode="&#xfedf;&#xfe8a;" horiz-adv-x="798" 
d="M660 135l-5 -1q49 -20 69 -54q20 -35 20 -79q0 -59 -23 -108q-23 -48 -66 -81t-107 -51q-63 -18 -143 -18q-92 0 -164 21q-70 20 -121 62q-49 40 -76 99t-27 134q0 53 7 105q8 56 21 105h110v-9q-7 -32 -12 -66q-4 -31 -4 -66q0 -43 17 -77q16 -33 52 -55t92 -33
q53 -10 135 -10q47 0 88 3q40 3 70 9q27 5 46 14q17 8 17 18q0 6 -5 11q-5 4 -18 9q-11 4 -36 7q-28 4 -57 5l-143 7v182l5 6l111 -5q39 -2 54 13t15 46v466h140v-466q0 -41 -12 -74t-50 -65v-4zM14 399l-1 -1q-9 22 -9 39q0 51 35 83t86 32q71 0 71 -69v-40h-50v6
q0 19 -35 19q-24 0 -40 -9t-16 -21q0 -10 12 -21q12 -10 35 -18h116v-80h-238v80h34z" />
    <glyph glyph-name="uni06440626.fina" unicode="&#xfee0;&#xfe8a;" horiz-adv-x="1012" 
d="M1012 30l-31 -33h-1q-70 0 -114 23q-44 22 -66 75q-17 -58 -54 -80q1 -3 1 -9v-9q0 -126 -82 -190t-258 -64q-92 0 -164 21q-70 20 -121 62q-49 40 -76 99t-27 134q0 53 7 105q8 56 21 105h110v-9q-7 -32 -12 -66q-4 -31 -4 -66q0 -43 17 -77q16 -33 52 -55t92 -33
q53 -10 135 -10q34 0 88 2q40 1 70 6q31 5 46 10q17 6 17 14q0 5 -5 10t-18 8t-36 6q-6 1 -25 3.5t-32 4.5l-143 18v182l5 6l142 -19q18 -2 49.5 -6t34.5 -4q33 -4 69 -4q48 0 81 14q-1 7 -1 21v21v499h140v-479q0 -43 20 -60q19 -16 72 -16h1v-160zM18 397l-1 -1
q-9 22 -9 39q0 51 35 83t86 32q71 0 71 -69v-40h-50v6q0 19 -35 19q-23 0 -40 -9q-16 -9 -16 -21q0 -10 12 -21q12 -10 35 -18h116v-80h-238v80h34z" />
    <glyph glyph-name="uni06280626" unicode="&#xfe91;&#xfe8a;" horiz-adv-x="765" 
d="M408 -161l-4 -2q-92 0 -164 21q-70 20 -121 62q-49 40 -76 99t-27 134q0 53 7 105q7 56 21 105h110v-9q-8 -32 -12 -66q-4 -31 -4 -66q0 -43 17 -77q16 -33 52 -55t92 -33q53 -10 135 -10q48 0 88 3t70 9q27 5 46 14q17 8 17 18q0 6 -5 11q-4 4 -18 9q-11 4 -36 7
q-28 4 -57 5l-143 7v182l5 6l121 -5q43 -2 60 13q18 15 18 46q0 27 -6 69q-7 46 -19 100l5 6h121q11 -55 15 -97q5 -48 5 -78q0 -39 -11 -72q-10 -32 -39 -54v-4q40 -24 58 -58t18 -79q0 -60 -23 -111q-22 -50 -66 -84q-44 -35 -107 -53t-143 -18zM714 -180l84 -82l-84 -82
h-10l-84 82l84 82h10zM15 492l-1 -1q-9 23 -9 39q0 51 35 83t86 32q71 0 71 -69v-40h-50v6q0 19 -35 19q-24 0 -40 -9t-16 -21q0 -11 12 -21t35 -18h116v-80h-238v80h34z" />
    <glyph glyph-name="uni067E0649" unicode="&#xfb58;&#xfef0;" horiz-adv-x="765" 
d="M408 -161l-4 -2q-92 0 -164 21q-70 20 -121 62q-49 40 -76 99t-27 134q0 53 7 105q7 56 21 105h110v-9q-8 -32 -12 -66q-4 -31 -4 -66q0 -43 17 -77q16 -33 52 -55t92 -33q53 -10 135 -10q48 0 88 3t70 9q27 5 46 14q17 8 17 18q0 6 -5 11q-4 4 -18 9q-11 4 -36 7
q-28 4 -57 5l-143 7v182l5 6l121 -5q43 -2 60 13q18 15 18 46q0 27 -6 69q-7 46 -19 100l5 6h121q11 -55 15 -97q5 -48 5 -78q0 -39 -11 -72q-10 -32 -39 -54v-4q40 -24 58 -58t18 -79q0 -60 -23 -111q-22 -50 -66 -84q-44 -35 -107 -53t-143 -18zM554 -210l80 78h9l66 -64
l65 64h10l79 -78l-79 -78h-10l-65 64l-66 -64h-9zM790 -346l-77 -75h-9l-77 75l77 75h9z" />
    <glyph glyph-name="uni067E064A" unicode="&#xfb58;&#xfef2;" horiz-adv-x="765" 
d="M408 -161l-4 -2q-92 0 -164 21q-70 20 -121 62q-49 40 -76 99t-27 134q0 53 7 105q7 56 21 105h110v-9q-8 -32 -12 -66q-4 -31 -4 -66q0 -43 17 -77q16 -33 52 -55t92 -33q53 -10 135 -10q48 0 88 3t70 9q27 5 46 14q17 8 17 18q0 6 -5 11q-4 4 -18 9q-11 4 -36 7
q-28 4 -57 5l-143 7v182l5 6l121 -5q43 -2 60 13q18 15 18 46q0 27 -6 69q-7 46 -19 100l5 6h121q11 -55 15 -97q5 -48 5 -78q0 -39 -11 -72q-10 -32 -39 -54v-4q40 -24 58 -58t18 -79q0 -60 -23 -111q-22 -50 -66 -84q-44 -35 -107 -53t-143 -18zM554 -210l80 78h9l66 -64
l65 64h10l79 -78l-79 -78h-10l-65 64l-66 -64h-9zM790 -346l-77 -75h-9l-77 75l77 75h9zM483 -394h-10l-69 67l-69 -67h-10l-84 82l84 82h10l69 -67l69 67h10l84 -82z" />
    <glyph glyph-name="uni067E0626" unicode="&#xfb58;&#xfe8a;" horiz-adv-x="765" 
d="M408 -161l-4 -2q-92 0 -164 21q-70 20 -121 62q-49 40 -76 99t-27 134q0 53 7 105q7 56 21 105h110v-9q-8 -32 -12 -66q-4 -31 -4 -66q0 -43 17 -77q16 -33 52 -55t92 -33q53 -10 135 -10q48 0 88 3t70 9q27 5 46 14q17 8 17 18q0 6 -5 11q-4 4 -18 9q-11 4 -36 7
q-28 4 -57 5l-143 7v182l5 6l121 -5q43 -2 60 13q18 15 18 46q0 27 -6 69q-7 46 -19 100l5 6h121q11 -55 15 -97q5 -48 5 -78q0 -39 -11 -72q-10 -32 -39 -54v-4q40 -24 58 -58t18 -79q0 -60 -23 -111q-22 -50 -66 -84q-44 -35 -107 -53t-143 -18zM554 -210l80 78h9l66 -64
l65 64h10l79 -78l-79 -78h-10l-65 64l-66 -64h-9zM790 -346l-77 -75h-9l-77 75l77 75h9zM15 492l-1 -1q-9 23 -9 39q0 51 35 83t86 32q71 0 71 -69v-40h-50v6q0 19 -35 19q-24 0 -40 -9t-16 -21q0 -11 12 -21t35 -18h116v-80h-238v80h34z" />
    <glyph glyph-name="uni062A0626" unicode="&#xfe97;&#xfe8a;" horiz-adv-x="765" 
d="M408 -161l-4 -2q-92 0 -164 21q-70 20 -121 62q-49 40 -76 99t-27 134q0 53 7 105q7 56 21 105h110v-9q-8 -32 -12 -66q-4 -31 -4 -66q0 -43 17 -77q16 -33 52 -55t92 -33q53 -10 135 -10q48 0 88 3t70 9q27 5 46 14q17 8 17 18q0 6 -5 11q-4 4 -18 9q-11 4 -36 7
q-28 4 -57 5l-143 7v182l5 6l121 -5q43 -2 60 13q18 15 18 46q0 27 -6 69q-7 46 -19 100l5 6h121q11 -55 15 -97q5 -48 5 -78q0 -39 -11 -72q-10 -32 -39 -54v-4q40 -24 58 -58t18 -79q0 -60 -23 -111q-22 -50 -66 -84q-44 -35 -107 -53t-143 -18zM703 616h-10l-69 67
l-69 -67h-10l-84 82l84 82h10l69 -67l69 67h10l84 -82zM15 492l-1 -1q-9 23 -9 39q0 51 35 83t86 32q71 0 71 -69v-40h-50v6q0 19 -35 19q-24 0 -40 -9t-16 -21q0 -11 12 -21t35 -18h116v-80h-238v80h34z" />
    <glyph glyph-name="uni062B0626" unicode="&#xfe9b;&#xfe8a;" horiz-adv-x="765" 
d="M408 -161l-4 -2q-92 0 -164 21q-70 20 -121 62q-49 40 -76 99t-27 134q0 53 7 105q7 56 21 105h110v-9q-8 -32 -12 -66q-4 -31 -4 -66q0 -43 17 -77q16 -33 52 -55t92 -33q53 -10 135 -10q48 0 88 3t70 9q27 5 46 14q17 8 17 18q0 6 -5 11q-4 4 -18 9q-11 4 -36 7
q-28 4 -57 5l-143 7v182l5 6l121 -5q43 -2 60 13q18 15 18 46q0 27 -6 69q-7 46 -19 100l5 6h121q11 -55 15 -97q5 -48 5 -78q0 -39 -11 -72q-10 -32 -39 -54v-4q40 -24 58 -58t18 -79q0 -60 -23 -111q-22 -50 -66 -84q-44 -35 -107 -53t-143 -18zM538 842l81 79h10l81 -79
l-81 -79h-10zM703 616h-10l-69 67l-69 -67h-10l-84 82l84 82h10l69 -67l69 67h10l84 -82zM15 492l-1 -1q-9 23 -9 39q0 51 35 83t86 32q71 0 71 -69v-40h-50v6q0 19 -35 19q-24 0 -40 -9t-16 -21q0 -11 12 -21t35 -18h116v-80h-238v80h34z" />
    <glyph glyph-name="uni06460626" unicode="&#xfee7;&#xfe8a;" horiz-adv-x="765" 
d="M408 -161l-4 -2q-92 0 -164 21q-70 20 -121 62q-49 40 -76 99t-27 134q0 53 7 105q7 56 21 105h110v-9q-8 -32 -12 -66q-4 -31 -4 -66q0 -43 17 -77q16 -33 52 -55t92 -33q53 -10 135 -10q48 0 88 3t70 9q27 5 46 14q17 8 17 18q0 6 -5 11q-4 4 -18 9q-11 4 -36 7
q-28 4 -57 5l-143 7v182l5 6l121 -5q43 -2 60 13q18 15 18 46q0 27 -6 69q-7 46 -19 100l5 6h121q11 -55 15 -97q5 -48 5 -78q0 -39 -11 -72q-10 -32 -39 -54v-4q40 -24 58 -58t18 -79q0 -60 -23 -111q-22 -50 -66 -84q-44 -35 -107 -53t-143 -18zM629 780l84 -82l-84 -82
h-10l-84 82l84 82h10zM15 492l-1 -1q-9 23 -9 39q0 51 35 83t86 32q71 0 71 -69v-40h-50v6q0 19 -35 19q-24 0 -40 -9t-16 -21q0 -11 12 -21t35 -18h116v-80h-238v80h34z" />
    <glyph glyph-name="uni064A0626" unicode="&#xfef3;&#xfe8a;" horiz-adv-x="765" 
d="M408 -161l-4 -2q-92 0 -164 21q-70 20 -121 62q-49 40 -76 99t-27 134q0 53 7 105q7 56 21 105h110v-9q-8 -32 -12 -66q-4 -31 -4 -66q0 -43 17 -77q16 -33 52 -55t92 -33q53 -10 135 -10q48 0 88 3t70 9q27 5 46 14q17 8 17 18q0 6 -5 11q-4 4 -18 9q-11 4 -36 7
q-28 4 -57 5l-143 7v182l5 6l121 -5q43 -2 60 13q18 15 18 46q0 27 -6 69q-7 46 -19 100l5 6h121q11 -55 15 -97q5 -48 5 -78q0 -39 -11 -72q-10 -32 -39 -54v-4q40 -24 58 -58t18 -79q0 -60 -23 -111q-22 -50 -66 -84q-44 -35 -107 -53t-143 -18zM15 492l-1 -1q-9 23 -9 39
q0 51 35 83t86 32q71 0 71 -69v-40h-50v6q0 19 -35 19q-24 0 -40 -9t-16 -21q0 -11 12 -21t35 -18h116v-80h-238v80h34zM787 -345h-10l-69 67l-69 -67h-10l-84 82l84 82h10l69 -67l69 67h10l84 -82z" />
    <glyph glyph-name="uni06260626" unicode="&#xfe8b;&#xfe8a;" horiz-adv-x="765" 
d="M408 -161l-4 -2q-92 0 -164 21q-70 20 -121 62q-49 40 -76 99t-27 134q0 53 7 105q7 56 21 105h110v-9q-8 -32 -12 -66q-4 -31 -4 -66q0 -43 17 -77q16 -33 52 -55t92 -33q53 -10 135 -10q48 0 88 3t70 9q27 5 46 14q17 8 17 18q0 6 -5 11q-4 4 -18 9q-11 4 -36 7
q-28 4 -57 5l-143 7v182l5 6l121 -5q43 -2 60 13q18 15 18 46q0 27 -6 69q-7 46 -19 100l5 6h121q11 -55 15 -97q5 -48 5 -78q0 -39 -11 -72q-10 -32 -39 -54v-4q40 -24 58 -58t18 -79q0 -60 -23 -111q-22 -50 -66 -84q-44 -35 -107 -53t-143 -18zM539 674l-1 -1
q-9 23 -9 39q0 51 35 83t86 32q71 0 71 -69v-40h-50v6q0 19 -35 19q-24 0 -40 -9t-16 -21q0 -11 12 -21t35 -18h116v-80h-238v80h34zM482 -395h-10l-69 67l-69 -67h-10l-84 82l84 82h10l69 -67l69 67h10l84 -82z" />
    <glyph glyph-name="uni06CC06CC" unicode="&#xfbfe;&#xfbfd;" horiz-adv-x="765" 
d="M408 -161l-4 -2q-92 0 -164 21q-70 20 -121 62q-49 40 -76 99t-27 134q0 53 7 105q7 56 21 105h110v-9q-8 -32 -12 -66q-4 -31 -4 -66q0 -43 17 -77q16 -33 52 -55t92 -33q53 -10 135 -10q48 0 88 3t70 9q27 5 46 14q17 8 17 18q0 6 -5 11q-4 4 -18 9q-11 4 -36 7
q-28 4 -57 5l-143 7v182l5 6l121 -5q43 -2 60 13q18 15 18 46q0 27 -6 69q-7 46 -19 100l5 6h121q11 -55 15 -97q5 -48 5 -78q0 -39 -11 -72q-10 -32 -39 -54v-4q40 -24 58 -58t18 -79q0 -60 -23 -111q-22 -50 -66 -84q-44 -35 -107 -53t-143 -18zM788 -344h-10l-69 67
l-69 -67h-10l-84 82l84 82h10l69 -67l69 67h10l84 -82z" />
    <glyph glyph-name="uni06280626.fina" unicode="&#xfe92;&#xfe8a;" horiz-adv-x="937" 
d="M797 -272l84 -82l-84 -82h-10l-84 82l84 82h10zM19 329l-1 -1q-9 22 -9 39q0 51 35 83t86 32q71 0 71 -69v-40h-50v6q0 19 -35 19q-24 0 -40 -9t-16 -21q0 -10 12 -21q12 -10 35 -18h116v-80h-238v80h34zM407 -326v-3q-94 0 -164 22q-72 23 -121 64t-76 102
q-27 60 -27 135q0 51 7 101q8 54 21 102h110v-9q-7 -28 -12 -62q-4 -29 -4 -62q0 -93 69 -138t227 -45q101 0 156 9t55 24q0 5 -4 9q-5 5 -16 8q-13 3 -31 6q-2 0 -20.5 3t-30.5 5l-77 11q-84 12 -123 48t-39 105q0 60 26 117q26 56 70 99q45 44 103 69q60 26 125 26
q50 0 95 -24q46 -24 77 -81l29 -51q25 -43 46 -59q23 -17 58 -17h1v-160l-30 -30h-1q-30 0 -54 6q-23 6 -45 20q-19 12 -40 38q-19 24 -39 57l-30 51q-20 34 -51 47q-33 14 -75 14q-28 0 -61 -5q-31 -5 -52 -13q-24 -10 -36 -19q-14 -11 -14 -23q0 -11 18 -19q18 -7 65 -15
l77 -11q88 -12 128 -51q41 -39 41 -113q0 -138 -81 -213t-250 -75z" />
    <glyph glyph-name="uni067E0649.fina" unicode="&#xfb59;&#xfef0;" horiz-adv-x="937" 
d="M637 -302l80 78h9l66 -64l65 64h10l79 -78l-79 -78h-10l-65 64l-66 -64h-9zM873 -438l-77 -75h-9l-77 75l77 75h9zM408 -325v-3q-94 0 -164 22q-72 23 -121 64t-76 102q-27 60 -27 135q0 51 7 101q7 54 21 102h110v-9q-7 -28 -12 -62q-4 -29 -4 -62q0 -93 69 -138
t227 -45q100 0 156 9q55 9 55 24q0 5 -4 9q-5 5 -16 8q-13 3 -31 6q-2 0 -20.5 3t-30.5 5l-77 11q-84 12 -123 48t-39 105q0 60 26 117q26 56 70 99q45 44 103 69q60 26 125 26q50 0 95 -24q46 -24 77 -81l29 -51q25 -43 46 -59q23 -17 58 -17h1v-160l-30 -30h-1
q-30 0 -54 6q-23 6 -45 20q-19 12 -40 38q-20 24 -39 57l-30 51q-20 34 -51 47q-33 14 -75 14q-28 0 -61 -5q-31 -5 -52 -13q-24 -10 -36 -19q-14 -11 -14 -23t18 -19t65 -15l77 -11q88 -12 128 -51q41 -39 41 -113q0 -138 -81 -213t-250 -75z" />
    <glyph glyph-name="uni067E064A.fina" unicode="&#xfb59;&#xfef2;" horiz-adv-x="937" 
d="M637 -302l80 78h9l66 -64l65 64h10l79 -78l-79 -78h-10l-65 64l-66 -64h-9zM873 -438l-77 -75h-9l-77 75l77 75h9zM487 -556h-10l-69 67l-69 -67h-10l-84 82l84 82h10l69 -67l69 67h10l84 -82zM408 -325v-3q-94 0 -164 22q-72 23 -121 64t-76 102q-27 60 -27 135
q0 51 7 101q7 54 21 102h110v-9q-7 -28 -12 -62q-4 -29 -4 -62q0 -93 69 -138t227 -45q100 0 156 9q55 9 55 24q0 5 -4 9q-5 5 -16 8q-13 3 -31 6q-2 0 -20.5 3t-30.5 5l-77 11q-84 12 -123 48t-39 105q0 60 26 117q26 56 70 99q45 44 103 69q60 26 125 26q50 0 95 -24
q46 -24 77 -81l29 -51q25 -43 46 -59q23 -17 58 -17h1v-160l-30 -30h-1q-30 0 -54 6q-23 6 -45 20q-19 12 -40 38q-20 24 -39 57l-30 51q-20 34 -51 47q-33 14 -75 14q-28 0 -61 -5q-31 -5 -52 -13q-24 -10 -36 -19q-14 -11 -14 -23t18 -19t65 -15l77 -11q88 -12 128 -51
q41 -39 41 -113q0 -138 -81 -213t-250 -75z" />
    <glyph glyph-name="uni067E0626.fina" unicode="&#xfb59;&#xfe8a;" horiz-adv-x="937" 
d="M637 -302l80 78h9l66 -64l65 64h10l79 -78l-79 -78h-10l-65 64l-66 -64h-9zM873 -438l-77 -75h-9l-77 75l77 75h9zM19 329l-1 -1q-9 22 -9 39q0 51 35 83t86 32q71 0 71 -69v-40h-50v6q0 19 -35 19q-24 0 -40 -9t-16 -21q0 -10 12 -21q12 -10 35 -18h116v-80h-238v80h34z
M407 -326v-3q-94 0 -164 22q-72 23 -121 64t-76 102q-27 60 -27 135q0 51 7 101q8 54 21 102h110v-9q-7 -28 -12 -62q-4 -29 -4 -62q0 -93 69 -138t227 -45q101 0 156 9t55 24q0 5 -4 9q-5 5 -16 8q-13 3 -31 6q-2 0 -20.5 3t-30.5 5l-77 11q-84 12 -123 48t-39 105
q0 60 26 117q26 56 70 99q45 44 103 69q60 26 125 26q50 0 95 -24q46 -24 77 -81l29 -51q25 -43 46 -59q23 -17 58 -17h1v-160l-30 -30h-1q-30 0 -54 6q-23 6 -45 20q-19 12 -40 38q-19 24 -39 57l-30 51q-20 34 -51 47q-33 14 -75 14q-28 0 -61 -5q-31 -5 -52 -13
q-24 -10 -36 -19q-14 -11 -14 -23q0 -11 18 -19q18 -7 65 -15l77 -11q88 -12 128 -51q41 -39 41 -113q0 -138 -81 -213t-250 -75z" />
    <glyph glyph-name="uni062A0626.fina" unicode="&#xfe98;&#xfe8a;" horiz-adv-x="937" 
d="M709 492h-10l-69 67l-69 -67h-10l-84 82l84 82h10l69 -67l69 67h10l84 -82zM19 329l-1 -1q-9 22 -9 39q0 51 35 83t86 32q71 0 71 -69v-40h-50v6q0 19 -35 19q-24 0 -40 -9t-16 -21q0 -10 12 -21q12 -10 35 -18h116v-80h-238v80h34zM407 -326v-3q-94 0 -164 22
q-72 23 -121 64t-76 102q-27 60 -27 135q0 51 7 101q8 54 21 102h110v-9q-7 -28 -12 -62q-4 -29 -4 -62q0 -93 69 -138t227 -45q101 0 156 9t55 24q0 5 -4 9q-5 5 -16 8q-13 3 -31 6q-2 0 -20.5 3t-30.5 5l-77 11q-84 12 -123 48t-39 105q0 60 26 117q26 56 70 99
q45 44 103 69q60 26 125 26q50 0 95 -24q46 -24 77 -81l29 -51q25 -43 46 -59q23 -17 58 -17h1v-160l-30 -30h-1q-30 0 -54 6q-23 6 -45 20q-19 12 -40 38q-19 24 -39 57l-30 51q-20 34 -51 47q-33 14 -75 14q-28 0 -61 -5q-31 -5 -52 -13q-24 -10 -36 -19q-14 -11 -14 -23
q0 -11 18 -19q18 -7 65 -15l77 -11q88 -12 128 -51q41 -39 41 -113q0 -138 -81 -213t-250 -75z" />
    <glyph glyph-name="uni062B0626.fina" unicode="&#xfe9c;&#xfe8a;" horiz-adv-x="937" 
d="M544 718l81 79h10l81 -79l-81 -79h-10zM709 492h-10l-69 67l-69 -67h-10l-84 82l84 82h10l69 -67l69 67h10l84 -82zM19 329l-1 -1q-9 22 -9 39q0 51 35 83t86 32q71 0 71 -69v-40h-50v6q0 19 -35 19q-24 0 -40 -9t-16 -21q0 -10 12 -21q12 -10 35 -18h116v-80h-238v80h34
zM407 -326v-3q-94 0 -164 22q-72 23 -121 64t-76 102q-27 60 -27 135q0 51 7 101q8 54 21 102h110v-9q-7 -28 -12 -62q-4 -29 -4 -62q0 -93 69 -138t227 -45q101 0 156 9t55 24q0 5 -4 9q-5 5 -16 8q-13 3 -31 6q-2 0 -20.5 3t-30.5 5l-77 11q-84 12 -123 48t-39 105
q0 60 26 117q26 56 70 99q45 44 103 69q60 26 125 26q50 0 95 -24q46 -24 77 -81l29 -51q25 -43 46 -59q23 -17 58 -17h1v-160l-30 -30h-1q-30 0 -54 6q-23 6 -45 20q-19 12 -40 38q-19 24 -39 57l-30 51q-20 34 -51 47q-33 14 -75 14q-28 0 -61 -5q-31 -5 -52 -13
q-24 -10 -36 -19q-14 -11 -14 -23q0 -11 18 -19q18 -7 65 -15l77 -11q88 -12 128 -51q41 -39 41 -113q0 -138 -81 -213t-250 -75z" />
    <glyph glyph-name="uni06460626.fina" unicode="&#xfee8;&#xfe8a;" horiz-adv-x="937" 
d="M19 329l-1 -1q-9 22 -9 39q0 51 35 83t86 32q71 0 71 -69v-40h-50v6q0 19 -35 19q-24 0 -40 -9t-16 -21q0 -10 12 -21q12 -10 35 -18h116v-80h-238v80h34zM634 655l84 -82l-84 -82h-10l-84 82l84 82h10zM407 -326v-3q-94 0 -164 22q-72 23 -121 64t-76 102
q-27 60 -27 135q0 51 7 101q8 54 21 102h110v-9q-7 -28 -12 -62q-4 -29 -4 -62q0 -93 69 -138t227 -45q101 0 156 9t55 24q0 5 -4 9q-5 5 -16 8q-13 3 -31 6q-2 0 -20.5 3t-30.5 5l-77 11q-84 12 -123 48t-39 105q0 60 26 117q26 56 70 99q45 44 103 69q60 26 125 26
q50 0 95 -24q46 -24 77 -81l29 -51q25 -43 46 -59q23 -17 58 -17h1v-160l-30 -30h-1q-30 0 -54 6q-23 6 -45 20q-19 12 -40 38q-19 24 -39 57l-30 51q-20 34 -51 47q-33 14 -75 14q-28 0 -61 -5q-31 -5 -52 -13q-24 -10 -36 -19q-14 -11 -14 -23q0 -11 18 -19q18 -7 65 -15
l77 -11q88 -12 128 -51q41 -39 41 -113q0 -138 -81 -213t-250 -75z" />
    <glyph glyph-name="uni064A0626.fina" unicode="&#xfef4;&#xfe8a;" horiz-adv-x="937" 
d="M19 329l-1 -1q-9 22 -9 39q0 51 35 83t86 32q71 0 71 -69v-40h-50v6q0 19 -35 19q-24 0 -40 -9t-16 -21q0 -10 12 -21q12 -10 35 -18h116v-80h-238v80h34zM870 -437h-10l-69 67l-69 -67h-10l-84 82l84 82h10l69 -67l69 67h10l84 -82zM407 -326v-3q-94 0 -164 22
q-72 23 -121 64t-76 102q-27 60 -27 135q0 51 7 101q8 54 21 102h110v-9q-7 -28 -12 -62q-4 -29 -4 -62q0 -93 69 -138t227 -45q101 0 156 9t55 24q0 5 -4 9q-5 5 -16 8q-13 3 -31 6q-2 0 -20.5 3t-30.5 5l-77 11q-84 12 -123 48t-39 105q0 60 26 117q26 56 70 99
q45 44 103 69q60 26 125 26q50 0 95 -24q46 -24 77 -81l29 -51q25 -43 46 -59q23 -17 58 -17h1v-160l-30 -30h-1q-30 0 -54 6q-23 6 -45 20q-19 12 -40 38q-19 24 -39 57l-30 51q-20 34 -51 47q-33 14 -75 14q-28 0 -61 -5q-31 -5 -52 -13q-24 -10 -36 -19q-14 -11 -14 -23
q0 -11 18 -19q18 -7 65 -15l77 -11q88 -12 128 -51q41 -39 41 -113q0 -138 -81 -213t-250 -75z" />
    <glyph glyph-name="uni06260626.fina" unicode="&#xfe8c;&#xfe8a;" horiz-adv-x="937" 
d="M-120 329l-1 -1q-9 22 -9 39q0 51 35 83t86 32q71 0 71 -69v-40h-50v6q0 19 -35 19q-23 0 -40 -9q-16 -9 -16 -21q0 -10 12 -21q12 -10 35 -18h116v-80h-238v80h34zM405 549l-1 -1q-9 22 -9 39q0 51 35 83t86 32q71 0 71 -69v-40h-50v6q0 19 -35 19q-24 0 -40 -9t-16 -21
q0 -10 12 -21q12 -10 35 -18h116v-80h-238v80h34zM406 -327v-3q-94 0 -164 22q-72 23 -121 64t-76 102q-27 60 -27 135q0 51 7 101q7 54 21 102h110v-9q-7 -28 -12 -62q-4 -29 -4 -62q0 -93 69 -138t227 -45q100 0 156 9q55 9 55 24q0 5 -4 9q-5 5 -16 8q-13 3 -31 6
q-2 0 -20.5 3t-30.5 5l-77 11q-84 12 -123 48t-39 105q0 60 26 117q26 56 70 99q45 44 103 69q60 26 125 26q50 0 95 -24q46 -24 77 -81l29 -51q25 -43 46 -59q23 -17 58 -17h1v-160l-30 -30h-1q-30 0 -54 6q-23 6 -45 20q-19 12 -40 38q-20 24 -39 57l-30 51q-20 34 -51 47
q-33 14 -75 14q-28 0 -61 -5q-31 -5 -52 -13q-24 -10 -36 -19q-14 -11 -14 -23t18 -19t65 -15l77 -11q88 -12 128 -51q41 -39 41 -113q0 -138 -81 -213t-250 -75z" />
    <glyph glyph-name="uni06CC06CC.fina" unicode="&#xfbff;&#xfbfd;" horiz-adv-x="937" 
d="M871 -436h-10l-69 67l-69 -67h-10l-84 82l84 82h10l69 -67l69 67h10l84 -82zM408 -325v-3q-94 0 -164 22q-72 23 -121 64t-76 102q-27 60 -27 135q0 51 7 101q7 54 21 102h110v-9q-7 -28 -12 -62q-4 -29 -4 -62q0 -93 69 -138t227 -45q100 0 156 9q55 9 55 24q0 5 -4 9
q-5 5 -16 8q-13 3 -31 6q-2 0 -20.5 3t-30.5 5l-77 11q-84 12 -123 48t-39 105q0 60 26 117q26 56 70 99q45 44 103 69q60 26 125 26q50 0 95 -24q46 -24 77 -81l29 -51q25 -43 46 -59q23 -17 58 -17h1v-160l-30 -30h-1q-30 0 -54 6q-23 6 -45 20q-19 12 -40 38
q-20 24 -39 57l-30 51q-20 34 -51 47q-33 14 -75 14q-28 0 -61 -5q-31 -5 -52 -13q-24 -10 -36 -19q-14 -11 -14 -23t18 -19t65 -15l77 -11q88 -12 128 -51q41 -39 41 -113q0 -138 -81 -213t-250 -75z" />
    <glyph glyph-name="uni06410626" unicode="&#xfed3;&#xfe8a;" horiz-adv-x="788" 
d="M674 151l-3 -4q41 -23 57 -54q17 -32 17 -75q0 -59 -23 -108q-22 -48 -66 -81q-43 -33 -107 -51q-63 -18 -143 -18q-92 0 -164 21q-70 20 -121 62q-49 40 -76 99q-27 58 -27 134q0 53 7 105q7 55 21 105h110v-9q-8 -31 -12 -66q-4 -31 -4 -66q0 -43 17 -77q16 -33 52 -55
t92 -33q53 -10 135 -10q48 0 88 3t70 9q27 5 46 14q17 8 17 18q0 6 -5 11q-4 5 -18 9q-11 4 -36 7q-28 4 -57 5l-173 7v182l5 6l103 -3q57 -2 87 1q34 3 55 12t30 25q10 18 11 42l-4 3q-29 -19 -66 -30q-36 -10 -82 -10q-89 0 -135 33t-46 102q0 46 17 92q16 44 45 79t66 56
t80 21q44 0 84 -26t68 -69t45 -102q17 -60 17 -125q0 -70 -16 -114q-16 -45 -58 -73v-4zM529 418l-1 -1q49 0 97 6q-20 31 -54 50q-35 20 -79 20q-31 0 -55 -15t-24 -35q0 -13 25 -19q26 -6 91 -6zM15 415l-1 -1q-9 22 -9 39q0 51 35 83t86 32q71 0 71 -69v-40h-50v6
q0 19 -35 19q-24 0 -40 -9t-16 -21q0 -10 12 -21q12 -10 35 -18h116v-80h-238v80h34zM523 895l84 -82l-84 -82h-10l-84 82l84 82h10z" />
    <glyph glyph-name="uni06A40649" unicode="&#xfb6c;&#xfef0;" horiz-adv-x="788" 
d="M674 151l-3 -4q41 -23 57 -54q17 -32 17 -75q0 -59 -23 -108q-22 -48 -66 -81q-43 -33 -107 -51q-63 -18 -143 -18q-92 0 -164 21q-70 20 -121 62q-49 40 -76 99q-27 58 -27 134q0 53 7 105q7 55 21 105h110v-9q-8 -31 -12 -66q-4 -31 -4 -66q0 -43 17 -77q16 -33 52 -55
t92 -33q53 -10 135 -10q48 0 88 3t70 9q27 5 46 14q17 8 17 18q0 6 -5 11q-4 5 -18 9q-11 4 -36 7q-28 4 -57 5l-173 7v182l5 6l103 -3q57 -2 87 1q34 3 55 12t30 25q10 18 11 42l-4 3q-29 -19 -66 -30q-36 -10 -82 -10q-89 0 -135 33t-46 102q0 46 17 92q16 44 45 79t66 56
t80 21q44 0 84 -26t68 -69t45 -102q17 -60 17 -125q0 -70 -16 -114q-16 -45 -58 -73v-4zM529 418l-1 -1q49 0 97 6q-20 31 -54 50q-35 20 -79 20q-31 0 -55 -15t-24 -35q0 -13 25 -19q26 -6 91 -6zM433 958l81 79h10l81 -79l-81 -79h-10zM598 732h-10l-69 67l-69 -67h-10
l-84 82l84 82h10l69 -67l69 67h10l84 -82z" />
    <glyph glyph-name="uni06A4064A" unicode="&#xfb6c;&#xfef2;" horiz-adv-x="788" 
d="M674 151l-3 -4q41 -23 57 -54q17 -32 17 -75q0 -59 -23 -108q-22 -48 -66 -81q-43 -33 -107 -51q-63 -18 -143 -18q-92 0 -164 21q-70 20 -121 62q-49 40 -76 99q-27 58 -27 134q0 53 7 105q7 55 21 105h110v-9q-8 -31 -12 -66q-4 -31 -4 -66q0 -43 17 -77q16 -33 52 -55
t92 -33q53 -10 135 -10q48 0 88 3t70 9q27 5 46 14q17 8 17 18q0 6 -5 11q-4 5 -18 9q-11 4 -36 7q-28 4 -57 5l-173 7v182l5 6l103 -3q57 -2 87 1q34 3 55 12t30 25q10 18 11 42l-4 3q-29 -19 -66 -30q-36 -10 -82 -10q-89 0 -135 33t-46 102q0 46 17 92q16 44 45 79t66 56
t80 21q44 0 84 -26t68 -69t45 -102q17 -60 17 -125q0 -70 -16 -114q-16 -45 -58 -73v-4zM529 418l-1 -1q49 0 97 6q-20 31 -54 50q-35 20 -79 20q-31 0 -55 -15t-24 -35q0 -13 25 -19q26 -6 91 -6zM493 -471h-10l-69 67l-69 -67h-10l-84 82l84 82h10l69 -67l69 67h10l84 -82
zM433 958l81 79h10l81 -79l-81 -79h-10zM598 732h-10l-69 67l-69 -67h-10l-84 82l84 82h10l69 -67l69 67h10l84 -82z" />
    <glyph glyph-name="uni06A40626" unicode="&#xfb6c;&#xfe8a;" horiz-adv-x="788" 
d="M674 151l-3 -4q41 -23 57 -54q17 -32 17 -75q0 -59 -23 -108q-22 -48 -66 -81q-43 -33 -107 -51q-63 -18 -143 -18q-92 0 -164 21q-70 20 -121 62q-49 40 -76 99q-27 58 -27 134q0 53 7 105q7 55 21 105h110v-9q-8 -31 -12 -66q-4 -31 -4 -66q0 -43 17 -77q16 -33 52 -55
t92 -33q53 -10 135 -10q48 0 88 3t70 9q27 5 46 14q17 8 17 18q0 6 -5 11q-4 5 -18 9q-11 4 -36 7q-28 4 -57 5l-173 7v182l5 6l103 -3q57 -2 87 1q34 3 55 12t30 25q10 18 11 42l-4 3q-29 -19 -66 -30q-36 -10 -82 -10q-89 0 -135 33t-46 102q0 46 17 92q16 44 45 79t66 56
t80 21q44 0 84 -26t68 -69t45 -102q17 -60 17 -125q0 -70 -16 -114q-16 -45 -58 -73v-4zM529 418l-1 -1q49 0 97 6q-20 31 -54 50q-35 20 -79 20q-31 0 -55 -15t-24 -35q0 -13 25 -19q26 -6 91 -6zM15 415l-1 -1q-9 22 -9 39q0 51 35 83t86 32q71 0 71 -69v-40h-50v6
q0 19 -35 19q-24 0 -40 -9t-16 -21q0 -10 12 -21q12 -10 35 -18h116v-80h-238v80h34zM432 957l81 79h10l81 -79l-81 -79h-10zM597 731h-10l-69 67l-69 -67h-10l-84 82l84 82h10l69 -67l69 67h10l84 -82z" />
    <glyph glyph-name="uni06420626" unicode="&#xfed7;&#xfe8a;" horiz-adv-x="788" 
d="M674 151l-3 -4q41 -23 57 -54q17 -32 17 -75q0 -59 -23 -108q-22 -48 -66 -81q-43 -33 -107 -51q-63 -18 -143 -18q-92 0 -164 21q-70 20 -121 62q-49 40 -76 99q-27 58 -27 134q0 53 7 105q7 55 21 105h110v-9q-8 -31 -12 -66q-4 -31 -4 -66q0 -43 17 -77q16 -33 52 -55
t92 -33q53 -10 135 -10q48 0 88 3t70 9q27 5 46 14q17 8 17 18q0 6 -5 11q-4 5 -18 9q-11 4 -36 7q-28 4 -57 5l-173 7v182l5 6l103 -3q57 -2 87 1q34 3 55 12t30 25q10 18 11 42l-4 3q-29 -19 -66 -30q-36 -10 -82 -10q-89 0 -135 33t-46 102q0 46 17 92q16 44 45 79t66 56
t80 21q44 0 84 -26t68 -69t45 -102q17 -60 17 -125q0 -70 -16 -114q-16 -45 -58 -73v-4zM529 418l-1 -1q49 0 97 6q-20 31 -54 50q-35 20 -79 20q-31 0 -55 -15t-24 -35q0 -13 25 -19q26 -6 91 -6zM598 732h-10l-69 67l-69 -67h-10l-84 82l84 82h10l69 -67l69 67h10l84 -82z
M15 415l-1 -1q-9 22 -9 39q0 51 35 83t86 32q71 0 71 -69v-40h-50v6q0 19 -35 19q-24 0 -40 -9t-16 -21q0 -10 12 -21q12 -10 35 -18h116v-80h-238v80h34z" />
    <glyph glyph-name="uni06490631.fina" unicode="&#x649;&#xfeae;" horiz-adv-x="667" 
d="M63 -254l-2 -2q-44 0 -85 22q-43 23 -77 63v111l10 9q33 -12 63 -17q33 -6 63 -6q31 0 57 14q25 13 45 38q19 24 30 57q11 35 11 72q0 43 -12 108q-11 60 -35 138l6 8h121l15 -57l158 25v62h120v-144q0 -17 6 -27q6 -11 19 -18q12 -7 36 -10q22 -3 54 -3h1v-160l-30 -30
h-1q-80 0 -126 27t-63 90l-6 22l-141 -23v-8q0 -77 -18 -143q-17 -64 -50 -115q-31 -49 -75 -76q-43 -27 -94 -27z" />
    <glyph glyph-name="uni06490632.fina" unicode="&#x649;&#xfeb0;" horiz-adv-x="667" 
d="M63 -254l-2 -2q-44 0 -85 22q-43 23 -77 63v111l10 9q33 -12 63 -17q33 -6 63 -6q31 0 57 14q25 13 45 38q19 24 30 57q11 35 11 72q0 43 -12 108q-11 60 -35 138l6 8h121l15 -57l158 25v62h120v-144q0 -17 6 -27q6 -11 19 -18q12 -7 36 -10q22 -3 54 -3h1v-160l-30 -30
h-1q-80 0 -126 27t-63 90l-6 22l-141 -23v-8q0 -77 -18 -143q-17 -64 -50 -115q-31 -49 -75 -76q-43 -27 -94 -27zM187 594l84 -82l-84 -82h-10l-84 82l84 82h10z" />
    <glyph glyph-name="uni067E0631.fina" unicode="&#xfb59;&#xfeae;" horiz-adv-x="667" 
d="M63 -254l-2 -2q-44 0 -85 22q-43 23 -77 63v111l10 9q33 -12 63 -17q33 -6 63 -6q31 0 57 14q25 13 45 38q19 24 30 57q11 35 11 72q0 43 -12 108q-11 60 -35 138l6 8h121l15 -57l158 25v62h120v-144q0 -17 6 -27q6 -11 19 -18q12 -7 36 -10q22 -3 54 -3h1v-160l-30 -30
h-1q-80 0 -126 27t-63 90l-6 22l-141 -23v-8q0 -77 -18 -143q-17 -64 -50 -115q-31 -49 -75 -76q-43 -27 -94 -27zM332 -99l80 78h9l66 -64l65 64h10l79 -78l-79 -78h-10l-65 64l-66 -64h-9zM568 -235l-77 -75h-9l-77 75l77 75h9z" />
    <glyph glyph-name="uni067E0632.fina" unicode="&#xfb59;&#xfeb0;" horiz-adv-x="667" 
d="M63 -254l-2 -2q-44 0 -85 22q-43 23 -77 63v111l10 9q33 -12 63 -17q33 -6 63 -6q31 0 57 14q25 13 45 38q19 24 30 57q11 35 11 72q0 43 -12 108q-11 60 -35 138l6 8h121l15 -57l158 25v62h120v-144q0 -17 6 -27q6 -11 19 -18q12 -7 36 -10q22 -3 54 -3h1v-160l-30 -30
h-1q-80 0 -126 27t-63 90l-6 22l-141 -23v-8q0 -77 -18 -143q-17 -64 -50 -115q-31 -49 -75 -76q-43 -27 -94 -27zM332 -99l80 78h9l66 -64l65 64h10l79 -78l-79 -78h-10l-65 64l-66 -64h-9zM568 -235l-77 -75h-9l-77 75l77 75h9zM187 594l84 -82l-84 -82h-10l-84 82l84 82
h10z" />
    <glyph glyph-name="uni064906BA" unicode="&#x649;&#xfb9f;" horiz-adv-x="1042" 
d="M338 -221l-4 -2q-76 0 -134 21t-99 60q-41 40 -62 96q-21 57 -21 129q0 50 7 93q7 46 21 93h110v-12q-7 -25 -12 -56q-4 -27 -4 -59q0 -74 51 -114q52 -41 144 -41q217 0 217 123q0 35 -11 99q-11 61 -30 144l6 8h121l13 -57l155 25v62h120v-144q0 -17 6 -27
q6 -11 19 -18q12 -7 36 -10q23 -3 54 -3h1v-160l-30 -30h-1q-86 0 -133 32q-46 31 -60 105l-1 5l-141 -25v-4q0 -78 -24 -140t-67 -105q-44 -44 -106 -66t-141 -22z" />
    <glyph glyph-name="uni06490646.fina" unicode="&#x649;&#xfee6;" horiz-adv-x="1042" 
d="M338 -221l-4 -2q-76 0 -134 21t-99 60q-41 40 -62 96q-21 57 -21 129q0 50 7 93q7 46 21 93h110v-12q-7 -25 -12 -56q-4 -27 -4 -59q0 -74 51 -114q52 -41 144 -41q217 0 217 123q0 35 -11 99q-11 61 -30 144l6 8h121l13 -57l155 25v62h120v-144q0 -17 6 -27
q6 -11 19 -18q12 -7 36 -10q23 -3 54 -3h1v-160l-30 -30h-1q-86 0 -133 32q-46 31 -60 105l-1 5l-141 -25v-4q0 -78 -24 -140t-67 -105q-44 -44 -106 -66t-141 -22zM335 474l84 -82l-84 -82h-10l-84 82l84 82h10z" />
    <glyph glyph-name="uni067E0646.fina" unicode="&#xfb59;&#xfee6;" horiz-adv-x="1042" 
d="M338 -221l-4 -2q-76 0 -134 21t-99 60q-41 40 -62 96q-21 57 -21 129q0 50 7 93q7 46 21 93h110v-12q-7 -25 -12 -56q-4 -27 -4 -59q0 -74 51 -114q52 -41 144 -41q217 0 217 123q0 35 -11 99q-11 61 -30 144l6 8h121l13 -57l155 25v62h120v-144q0 -17 6 -27
q6 -11 19 -18q12 -7 36 -10q23 -3 54 -3h1v-160l-30 -30h-1q-86 0 -133 32q-46 31 -60 105l-1 5l-141 -25v-4q0 -78 -24 -140t-67 -105q-44 -44 -106 -66t-141 -22zM335 474l84 -82l-84 -82h-10l-84 82l84 82h10zM684 -99l80 78h9l66 -64l65 64h10l79 -78l-79 -78h-10
l-65 64l-66 -64h-9zM920 -235l-77 -75h-9l-77 75l77 75h9z" />
    <glyph glyph-name="uni066E.init" unicode="&#x66e;" horiz-adv-x="260" 
d="M-10 190l42 -1q43 0 60 13q18 14 18 45q0 55 -27 167l6 8h121q11 -55 15 -97q5 -48 5 -78q0 -124 -47 -186q-46 -61 -150 -61h-63v160z" />
    <glyph glyph-name="uni066E.medi" unicode="&#x66e;" horiz-adv-x="319" 
d="M0 190v-1q50 0 84 12v24v136h120v-116q0 -17 6 -27q7 -11 19 -17q13 -6 36 -9t54 -3h1v-160l-30 -30h-1q-67 0 -112 20q-43 19 -66 65q-35 -84 -141 -84v160z" />
    <glyph glyph-name="uni066E.fina" unicode="&#x66e;" horiz-adv-x="966" 
d="M854 201h-4q26 -6 52 -9q27 -3 61 -3v-160l-30 -30q-65 0 -114 18q-50 18 -94 58q-190 -95 -399 -95q-82 0 -141 15t-96 46t-54 81q-17 51 -17 120q0 34 7 72q8 44 19 78h110v-12q-8 -27 -12 -51q-4 -21 -4 -45q0 -50 51 -72q50 -22 168 -22q130 0 252 29q119 28 233 83
h12v-101z" />
    <glyph glyph-name="uni066F.fina" unicode="&#x66f;" horiz-adv-x="725" 
d="M352 -255l-2 -3q-78 0 -140 21t-104 60q-43 40 -65 96t-22 129q0 50 7 95q8 49 21 95h110v-9q-8 -29 -12 -61q-4 -29 -4 -61q0 -165 220 -165q99 0 151 12t72 44h-128q-94 0 -144 46q-51 46 -51 129q0 57 17 111q16 52 45 93q27 39 68 64q39 24 83 24q39 0 75 -21
q35 -20 64 -57q29 -36 48 -87t27 -111h36v-160l-30 -30h-9q-23 -131 -105 -192q-83 -62 -228 -62zM580 187h-1q-20 44 -58 66q-40 23 -93 23q-35 0 -57 -16t-22 -36q0 -10 6 -18q6 -7 20 -12q13 -4 38 -6q16 -1 62 -1h105z" />
    <glyph glyph-name="uni06A1.init" unicode="&#x6a1;" horiz-adv-x="485" 
d="M0 190l199 1q49 0 82 3q34 3 53 12q20 9 29 24q10 16 11 38l-4 3q-59 -40 -148 -40q-88 0 -135 35q-46 34 -46 108q0 43 17 88q16 43 45 76q29 34 66 53q38 20 80 20q46 0 84 -25q40 -26 68 -69q29 -44 45 -103q17 -62 17 -127q0 -74 -15 -128q-15 -56 -46 -89
q-31 -34 -81 -52q-49 -18 -120 -18h-231v161zM247 367v-1q49 0 98 6q-19 32 -54 51q-34 19 -81 19q-31 0 -55 -15t-24 -35q0 -13 25 -19t91 -6z" />
    <glyph glyph-name="uni06A1.medi" unicode="&#x6a1;" horiz-adv-x="484" 
d="M484 30l-28 -32h-58q-82 0 -157 28q-75 -28 -162 -28h-108v160l30 30h57q-12 32 -12 67q0 48 17 96q17 47 45 84t68 60t83 23t77 -19t60 -51q25 -31 39 -71t14 -80q0 -55 -23 -107h58v-160zM224 316v-2q-40 0 -64 -11q-22 -10 -22 -30q0 -12 12 -24q11 -11 33 -22
q23 -12 51 -20q25 -7 66 -16q33 10 47 23q14 12 14 29q0 15 -11 29t-29 23t-43 15q-26 6 -54 6z" />
    <glyph glyph-name="uni06A1.fina" unicode="&#x6a1;" horiz-adv-x="983" 
d="M983 30l-32 -33h-8q-63 0 -114 10q-56 11 -100 28q-63 -24 -133 -35q-74 -12 -159 -12q-119 0 -198 12q-80 12 -128 42t-69 78t-21 119q0 34 7 72q8 44 19 78h110v-12q-7 -27 -12 -51q-4 -21 -4 -45q0 -27 15 -45t50 -29q34 -10 92 -15q51 -4 141 -4h119q-13 29 -13 67
q0 48 17 96q16 47 45 84q28 37 68 60t83 23t77 -19q35 -19 60 -51q25 -31 39 -71t14 -80q0 -57 -26 -107h61v-160zM719 315l-1 -2q-40 0 -64 -11q-22 -10 -22 -30q0 -14 13 -27t36 -24q19 -9 51 -19q26 -8 60 -13q26 6 45 21t19 32q0 15 -11 29t-29 23t-43 15t-54 6z" />
    <glyph glyph-name="uni06C2.fina" unicode="&#x6c2;" 
d="M580 0l-4 1q-34 0 -61 6t-48 21q-22 16 -38 42q-15 25 -31 69l-18 52q-18 53 -60 53q-38 0 -113 -32q-70 -30 -192 -101h-8v179q134 77 220 110q91 35 138 35q43 0 69 -24q25 -24 40 -76l15 -52q7 -25 17 -46q8 -16 20 -28q10 -11 24 -15q12 -4 30 -4h20v-170zM288 564
l-1 -1q-9 23 -9 39q0 51 35 83t86 32q71 0 71 -69v-40h-50v6q0 19 -35 19q-23 0 -40 -9q-16 -9 -16 -21q0 -11 12 -21t35 -18h116v-80h-238v80h34z" />
    <glyph glyph-name="uni06C3.fina" unicode="&#x6c3;" 
d="M580 0l-4 1q-34 0 -61 6t-48 21q-22 16 -38 42q-15 25 -31 69l-18 52q-18 53 -60 53q-38 0 -113 -32q-70 -30 -192 -101h-8v179q134 77 220 110q91 35 138 35q43 0 69 -24q25 -24 40 -76l15 -52q7 -25 17 -46q8 -16 20 -28q10 -11 24 -15q12 -4 30 -4h20v-170zM452 506
h-10l-69 67l-69 -67h-10l-84 82l84 82h10l69 -67l69 67h10l84 -82z" />
    <glyph glyph-name="uniFB51" unicode="&#x671;" horiz-adv-x="284" arabic-form="final" 
d="M253 0l2 1q-53 0 -93 14q-39 13 -63 42q-24 28 -36 74q-12 45 -12 110v405h140v-385q0 -41 20 -56q19 -15 72 -15h1v-160l-30 -30h-1zM180 906l-3 -1q17 0 33 -6q17 -6 30 -19q14 -14 21 -33q8 -21 8 -47q0 -51 -24 -78t-66 -27q-36 0 -63 10t-55 10q-21 0 -37 -6
t-24 -17h-13v67q23 33 67 36q28 56 59 84q30 27 67 27zM176 775l1 -1q16 0 29 5q12 5 12 15q0 14 -15 20t-31 6q-44 0 -71 -32l39 -9q17 -4 36 -4z" />
    <glyph glyph-name="uniFB57" unicode="&#x67e;" horiz-adv-x="966" arabic-form="final" 
d="M854 201h-4q26 -6 52 -9q27 -3 61 -3v-160l-30 -30q-65 0 -114 18q-50 18 -94 58q-190 -95 -399 -95q-82 0 -141 15t-96 46t-54 81q-17 51 -17 120q0 34 7 72q8 44 19 78h110v-12q-8 -27 -12 -51q-4 -21 -4 -45q0 -50 51 -72q50 -22 168 -22q130 0 252 29q119 28 233 83
h12v-101zM279 -97l80 78h9l66 -64l65 64h10l79 -78l-79 -78h-10l-65 64l-66 -64h-9zM515 -233l-77 -75h-9l-77 75l77 75h9z" />
    <glyph glyph-name="uniFB58" unicode="&#x67e;" horiz-adv-x="260" arabic-form="initial" 
d="M-10 190l42 -1q43 0 60 13q18 14 18 45q0 55 -27 167l6 8h121q11 -55 15 -97q5 -48 5 -78q0 -124 -47 -186q-46 -61 -150 -61h-63v160zM-47 -98l80 78h9l66 -64l65 64h10l79 -78l-79 -78h-10l-65 64l-66 -64h-9zM189 -234l-77 -75h-9l-77 75l77 75h9z" />
    <glyph glyph-name="uniFB59" unicode="&#x67e;" horiz-adv-x="319" arabic-form="medial" 
d="M0 190v-1q50 0 84 12v24v136h120v-116q0 -17 6 -27q7 -11 19 -17q13 -6 36 -9t54 -3h1v-160l-30 -30h-1q-67 0 -112 20q-43 19 -66 65q-35 -84 -141 -84v160zM-14 -98l80 78h9l66 -64l65 64h10l79 -78l-79 -78h-10l-65 64l-66 -64h-9zM222 -234l-77 -75h-9l-77 75l77 75
h9z" />
    <glyph glyph-name="uniFB67" unicode="&#x679;" horiz-adv-x="966" arabic-form="final" 
d="M854 201h-4q26 -6 52 -9q27 -3 61 -3v-160l-30 -30q-65 0 -114 18q-50 18 -94 58q-190 -95 -399 -95q-82 0 -141 15t-96 46t-54 81q-17 51 -17 120q0 34 7 72q8 44 19 78h110v-12q-8 -27 -12 -51q-4 -21 -4 -45q0 -50 51 -72q50 -22 168 -22q130 0 252 29q119 28 233 83
h12v-101zM318 430l12 24v180h60v-106q37 32 79 32q17 0 33 -6q17 -6 30 -19q14 -13 21 -33q8 -21 8 -47q0 -51 -27 -78t-74 -27h-177v80h35zM468 430h1q16 0 29 5q12 5 12 15q0 14 -15 20t-31 6q-28 0 -52 -12q-26 -13 -44 -34h100z" />
    <glyph glyph-name="uniFB68" unicode="&#x679;" horiz-adv-x="260" arabic-form="initial" 
d="M-10 190l42 -1q43 0 60 13q18 14 18 45q0 55 -27 167l6 8h121q11 -55 15 -97q5 -48 5 -78q0 -124 -47 -186q-46 -61 -150 -61h-63v160zM26 549l12 24v180h60v-106q37 32 79 32q17 0 33 -6q17 -6 30 -19q14 -14 21 -33q8 -21 8 -47q0 -51 -27 -78t-74 -27h-177v80h35z
M176 549h1q16 0 29 5q12 4 12 15q0 14 -15 20t-31 6q-28 0 -52 -12q-26 -13 -44 -34h100z" />
    <glyph glyph-name="uniFB69" unicode="&#x679;" horiz-adv-x="319" arabic-form="medial" 
d="M0 190v-1q50 0 84 12v24v136h120v-116q0 -17 6 -27q7 -11 19 -17q13 -6 36 -9t54 -3h1v-160l-30 -30h-1q-67 0 -112 20q-43 19 -66 65q-35 -84 -141 -84v160zM37 489l12 24v180h60v-106q37 32 79 32q16 0 33 -6t30 -19q13 -14 21 -33q8 -21 8 -47q0 -51 -27 -78t-74 -27
h-177v80h35zM187 489h1q16 0 29 5q12 4 12 15q0 14 -15 20t-31 6q-28 0 -52 -12q-26 -13 -44 -34h100z" />
    <glyph glyph-name="uniFB6B" unicode="&#x6a4;" horiz-adv-x="983" arabic-form="final" 
d="M983 30l-32 -33h-8q-63 0 -114 10q-56 11 -100 28q-63 -24 -133 -35q-74 -12 -159 -12q-119 0 -198 12q-80 12 -128 42t-69 78t-21 119q0 34 7 72q8 44 19 78h110v-12q-7 -27 -12 -51q-4 -21 -4 -45q0 -27 15 -45t50 -29q34 -10 92 -15q51 -4 141 -4h119q-13 29 -13 67
q0 48 17 96q16 47 45 84q28 37 68 60t83 23t77 -19q35 -19 60 -51q25 -31 39 -71t14 -80q0 -57 -26 -107h61v-160zM719 315l-1 -2q-40 0 -64 -11q-22 -10 -22 -30q0 -14 13 -27t36 -24q19 -9 51 -19q26 -8 60 -13q26 6 45 21t19 32q0 15 -11 29t-29 23t-43 15t-54 6z
M662 809l81 79h10l81 -79l-81 -79h-10zM827 583h-10l-69 67l-69 -67h-10l-84 82l84 82h10l69 -67l69 67h10l84 -82z" />
    <glyph glyph-name="uniFB6C" unicode="&#x6a4;" horiz-adv-x="485" arabic-form="initial" 
d="M0 190l199 1q49 0 82 3q34 3 53 12q20 9 29 24q10 16 11 38l-4 3q-59 -40 -148 -40q-88 0 -135 35q-46 34 -46 108q0 43 17 88q16 43 45 76q29 34 66 53q38 20 80 20q46 0 84 -25q40 -26 68 -69q29 -44 45 -103q17 -62 17 -127q0 -74 -15 -128q-15 -56 -46 -89
q-31 -34 -81 -52q-49 -18 -120 -18h-231v161zM247 367v-1q49 0 98 6q-19 32 -54 51q-34 19 -81 19q-31 0 -55 -15t-24 -35q0 -13 25 -19t91 -6zM152 907l81 79h10l81 -79l-81 -79h-10zM317 681h-10l-69 67l-69 -67h-10l-84 82l84 82h10l69 -67l69 67h10l84 -82z" />
    <glyph glyph-name="uniFB6D" unicode="&#x6a4;" horiz-adv-x="484" arabic-form="medial" 
d="M484 30l-28 -32h-58q-82 0 -157 28q-75 -28 -162 -28h-108v160l30 30h57q-12 32 -12 67q0 48 17 96q17 47 45 84t68 60t83 23t77 -19t60 -51q25 -31 39 -71t14 -80q0 -55 -23 -107h58v-160zM224 316v-2q-40 0 -64 -11q-22 -10 -22 -30q0 -12 12 -24q11 -11 33 -22
q23 -12 51 -20q25 -7 66 -16q33 10 47 23q14 12 14 29q0 15 -11 29t-29 23t-43 15q-26 6 -54 6zM168 810l81 79h10l81 -79l-81 -79h-10zM333 584h-10l-69 67l-69 -67h-10l-84 82l84 82h10l69 -67l69 67h10l84 -82z" />
    <glyph glyph-name="uniFB7B" unicode="&#x686;" horiz-adv-x="705" arabic-form="final" 
d="M705 30l-30 -33h-1q-54 0 -93 12t-63 39t-36 70q-12 44 -12 105v36l-20 -5q-67 -16 -127 -36q-59 -20 -100 -46q-42 -27 -66 -60t-24 -78q0 -76 68 -118q67 -42 189 -42q35 0 71 3q33 3 71 11q39 8 64 16q29 9 50 20h12v-156q-48 -45 -123 -69t-163 -24q-80 0 -144 21
t-109 60t-69 94t-24 125q0 57 22 108q23 54 64 98q43 46 102 83t137 66l10 4v4h-160q-38 0 -52 -10q-15 -10 -15 -39v-22h-84v143q0 65 30 94q30 28 96 22l296 -26q44 -4 75 -6q21 -1 69 -1h24v-190l-61 -15v-42q0 -32 27 -44t98 -12h1v-160zM149 116l76 74h9l62 -60l62 60
h9l76 -74l-76 -74h-9l-62 60l-62 -60h-9zM374 -13l-73 -71h-9l-73 71l73 71h9z" />
    <glyph glyph-name="uniFB7C" unicode="&#x686;" horiz-adv-x="665" arabic-form="initial" 
d="M558 238l-98 -95q-46 -43 -84 -72t-75 -45q-36 -16 -78 -22q-41 -6 -90 -6h-166v160l30 30h146q61 0 108 3t81 9q38 7 62 16q30 12 50 25l14 9v4l-225 44l-20 4t-22 4q-18 3 -27 3q-49 0 -49 -54v-13h-84v154q0 46 24 72t68 26q21 0 48 -4q39 -6 86 -16l210 -45
q5 -1 13.5 -3t15 -3t11.5 -2q25 -4 34 -5q11 -1 31 -3q10 -1 31 -1h39v-174h-84zM152 -100l80 78h9l66 -64l65 64h10l79 -78l-79 -78h-10l-65 64l-66 -64h-9zM388 -236l-77 -75h-9l-77 75l77 75h9z" />
    <glyph glyph-name="uniFB7D" unicode="&#x686;" horiz-adv-x="695" arabic-form="medial" 
d="M695 30l-35 -33h-1q-97 0 -143 35q-45 34 -45 110v15l-24 -22q-43 -40 -79 -67q-34 -26 -72 -43q-34 -16 -75 -22q-39 -6 -89 -6h-166v160l30 30h146q62 0 108 3t81 9q38 7 62 16q30 12 50 25l14 9v4l-225 44l-20 4t-22 4q-18 3 -27 3q-49 0 -49 -54v-13h-84v154
q0 47 24 72q24 26 68 26q21 0 48 -4q39 -6 86 -16l210 -45q5 -1 13.5 -3t15 -3t11.5 -2q25 -4 34 -5q11 -1 31 -3q10 -1 31 -1h39v-174h-69v-8q0 -13 6 -20q6 -8 19 -12q14 -5 37 -6q16 -1 60 -1h1v-160zM149 -100l80 78h9l66 -64l65 64h10l79 -78l-79 -78h-10l-65 64
l-66 -64h-9zM385 -236l-77 -75h-9l-77 75l77 75h9z" />
    <glyph glyph-name="uniFB89" unicode="&#x688;" horiz-adv-x="581" arabic-form="final" 
d="M472 265l-4 3q8 -23 16 -36q9 -15 21 -24q11 -8 30 -13q16 -4 42 -4v-160l-30 -30q-62 0 -101 21q-38 20 -70 77q-25 -52 -74 -81q-47 -28 -127 -28q-41 0 -73 9q-30 9 -52 29q-20 19 -31 53q-10 31 -10 80v81h84v-15q0 -29 20 -38q19 -9 63 -9q58 0 95 3q38 3 65 9
q-2 3 -7 20q-5 16 -7 20l-102 288v8h157zM176 659l12 24v180h60v-106q37 32 79 32q17 0 33 -6q17 -6 30 -19q14 -14 21 -33q8 -21 8 -47q0 -51 -27 -78t-74 -27h-177v80h35zM326 659h1q16 0 29 5q12 4 12 15q0 14 -15 20t-31 6q-28 0 -52 -12q-26 -13 -44 -34h100z" />
    <glyph glyph-name="uniFB8B" unicode="&#x698;" horiz-adv-x="400" arabic-form="final" 
d="M63 -254l2 -3q-44 0 -85 22q-43 23 -77 63v111l10 9q33 -12 63 -17q33 -6 63 -6q31 0 57 14q25 13 45 38q19 24 30 57q11 35 11 72q0 16 -3 34t-9 42q-9 36 -16 59q-9 30 -27 82l6 8h121l25 -78q5 -16 14 -30q8 -13 21 -20q12 -7 35 -10q21 -3 52 -3v-160l-30 -30
q-61 0 -103 30l-2 -1q-8 -64 -25 -114q-18 -53 -45 -90t-61 -58q-35 -21 -72 -21zM96 625l81 79h10l81 -79l-81 -79h-10zM261 399h-10l-69 67l-69 -67h-10l-84 82l84 82h10l69 -67l69 67h10l84 -82z" />
    <glyph glyph-name="uniFB8D" unicode="&#x691;" horiz-adv-x="400" arabic-form="final" 
d="M63 -254l2 -3q-44 0 -85 22q-43 23 -77 63v111l10 9q33 -12 63 -17q33 -6 63 -6q31 0 57 14q25 13 45 38q19 24 30 57q11 35 11 72q0 16 -3 34t-9 42q-9 36 -16 59q-9 30 -27 82l6 8h121l25 -78q5 -16 14 -30q8 -13 21 -20q12 -7 35 -10q21 -3 52 -3v-160l-30 -30
q-61 0 -103 30l-2 -1q-8 -64 -25 -114q-18 -53 -45 -90t-61 -58q-35 -21 -72 -21zM73 457l12 24v180h60v-106q37 32 79 32q16 0 33 -6t30 -19q13 -14 21 -33q8 -21 8 -47q0 -51 -27 -78t-74 -27h-177v80h35zM223 457h1q16 0 29 5q12 4 12 15q0 14 -15 20t-31 6
q-28 0 -52 -12q-26 -13 -44 -34h100z" />
    <glyph glyph-name="uniFB8F" unicode="&#x6a9;" horiz-adv-x="957" arabic-form="final" 
d="M328 -10l-2 -4q-80 0 -141 14q-58 13 -96 44q-37 30 -54 78q-17 49 -17 116q0 34 7 72q8 44 19 78h110v-12q-16 -51 -16 -96q0 -50 51 -72q50 -22 168 -22q75 0 144 9q66 9 138 29l-130 163v190l416 174h12v-162l-300 -121l159 -190q13 -15 38 -43q15 -17 33 -28
q17 -11 36 -15q22 -5 45 -5h10v-160l-30 -30q-28 0 -52 6t-48 21t-49 40q-21 21 -58 63h-4q-87 -77 -184 -107q-99 -30 -205 -30z" />
    <glyph glyph-name="uniFB90" unicode="&#x6a9;" horiz-adv-x="479" arabic-form="initial" 
d="M189 485l45 -30q44 -31 75 -57t51 -51q20 -27 29 -54q9 -29 9 -66q0 -49 -12 -91t-36 -72q-25 -31 -58 -47q-36 -17 -79 -17h-243v160l30 30h233q40 0 58 5q16 4 16 17q0 11 -15 23q-16 13 -58 36l-213 120v190l446 174h12v-162z" />
    <glyph glyph-name="uniFB91" unicode="&#x6a9;" horiz-adv-x="479" arabic-form="medial" 
d="M0 190h52q50 0 75 6q24 6 40 23l-137 172v190l446 174h12v-162l-330 -121l159 -190q13 -15 38 -43q15 -17 33 -28q16 -11 36 -15q22 -5 45 -5h10v-160l-30 -30q-29 0 -53 6t-48 21q-22 14 -51 41q-27 25 -60 66l-4 -1q-33 -134 -180 -134h-83v160z" />
    <glyph glyph-name="uniFB93" unicode="&#x6af;" horiz-adv-x="957" arabic-form="final" 
d="M328 -10l-2 -4q-80 0 -141 14q-58 13 -96 44q-37 30 -54 78q-17 49 -17 116q0 34 7 72q8 44 19 78h110v-12q-16 -51 -16 -96q0 -50 51 -72q50 -22 168 -22q75 0 144 9q66 9 138 29l-130 163v190l416 174h12v-162l-300 -121l159 -190q13 -15 38 -43q15 -17 33 -28
q17 -11 36 -15q22 -5 45 -5h10v-160l-30 -30q-28 0 -52 6t-48 21t-49 40q-21 21 -58 63h-4q-87 -77 -184 -107q-99 -30 -205 -30zM507 692l450 174h8v-61l-450 -174h-8v61z" />
    <glyph glyph-name="uniFB94" unicode="&#x6af;" horiz-adv-x="479" arabic-form="initial" 
d="M189 485l45 -30q44 -31 75 -57t51 -51q20 -27 29 -54q9 -29 9 -66q0 -49 -12 -91t-36 -72q-25 -31 -58 -47q-36 -17 -79 -17h-243v160l30 30h233q40 0 58 5q16 4 16 17q0 11 -15 23q-16 13 -58 36l-213 120v190l446 174h12v-162zM21 698l450 174h8v-61l-450 -174h-8v61z
" />
    <glyph glyph-name="uniFB95" unicode="&#x6af;" horiz-adv-x="479" arabic-form="medial" 
d="M0 190h52q50 0 75 6q24 6 40 23l-137 172v190l446 174h12v-162l-330 -121l159 -190q13 -15 38 -43q15 -17 33 -28q16 -11 36 -15q22 -5 45 -5h10v-160l-30 -30q-29 0 -53 6t-48 21q-22 14 -51 41q-27 25 -60 66l-4 -1q-33 -134 -180 -134h-83v160zM30 696l450 174h8v-61
l-450 -174h-8v61z" />
    <glyph glyph-name="uniFB9F" unicode="&#x6ba;" horiz-adv-x="775" arabic-form="final" 
d="M338 -255l-4 -2q-76 0 -134 21t-99 60q-41 40 -62 96q-21 57 -21 129q0 50 7 95q8 49 21 95h110v-12q-8 -26 -12 -58q-4 -29 -4 -61q0 -73 53 -114t153 -41q207 0 207 113q0 18 -3 42q-3 23 -9 55q-8 40 -16 71q-21 78 -24 89l6 8h121l24 -78q5 -16 14 -30q8 -13 21 -20
q12 -7 35 -10q21 -3 51 -3h1v-160l-30 -30h-1q-62 0 -98 30l-3 -2q-14 -135 -92 -209q-79 -74 -212 -74z" />
    <glyph glyph-name="uniFBA7" unicode="&#x6c1;" arabic-form="final" 
d="M580 0l-4 1q-34 0 -61 6t-48 21q-22 16 -38 42q-15 25 -31 69l-18 52q-18 53 -60 53q-38 0 -113 -32q-70 -30 -192 -101h-8v179q134 77 220 110q91 35 138 35q43 0 69 -24q25 -24 40 -76l15 -52q7 -25 17 -46q8 -16 20 -28q10 -11 24 -15q12 -4 30 -4h20v-170z" />
    <glyph glyph-name="uniFBA8" unicode="&#x6c1;" horiz-adv-x="514" arabic-form="initial" 
d="M472 362l-2 -2q7 -30 10 -63q3 -29 3 -51q0 -133 -50 -195t-156 -62q-67 0 -107 21q-41 21 -62 68q-34 -79 -138 -79v160l30 30q50 0 84 12v24v76h120v-56q0 -37 18 -51q19 -14 65 -14q77 0 77 67q0 20 -4 44q-5 30 -12 65l5 6h119zM50 -199h-2q0 17 5 35q5 16 15 36
q10 19 26 41q15 21 38 47h70v-8q-26 -46 -36 -69q-10 -21 -10 -36q0 -13 10 -19t36 -6v-107q-16 -2 -23 -3t-21 -1q-29 0 -51 8q-20 7 -33 20q-12 12 -18 29q-6 16 -6 33z" />
    <glyph glyph-name="uniFBA9" unicode="&#x6c1;" horiz-adv-x="514" arabic-form="medial" 
d="M514 30l-23 -31h-17q-51 0 -72 -18t-21 -63v-88l-163 -86l-43 81q-30 55 -46 104q-15 45 -15 90q0 25 4 42l-2 1q-30 -35 -65 -50t-83 -15v160l30 30q53 0 89 17q35 17 68 59l39 50l66 -46l-10 -18q-14 -29 -21 -52q-7 -22 -7 -50q0 -36 17 -81q16 -42 54 -100l11 -17v50
q0 53 9 89q9 37 30 59q21 23 54 33q31 10 81 10h36v-160z" />
    <glyph glyph-name="uniFBAB" unicode="&#x6be;" horiz-adv-x="658" arabic-form="final" 
d="M420 -245l-1 -3q-103 0 -165 61q-64 62 -77 186q-37 1 -72 9t-81 24v156h158q12 64 36 120t58 97t77 66q42 24 92 24q31 0 55 -10q26 -11 45 -30t30 -45q11 -27 11 -55q0 -48 -18 -90q-18 -43 -63 -71l1 -4h151v-160l-21 -30h-24l-2 -3q13 -25 13 -63q0 -39 -15 -72
t-42 -57q-26 -23 -64 -37q-36 -13 -82 -13zM284 187l-1 -2q85 0 130 19q46 19 46 54q0 20 -12 32t-35 12q-13 0 -29 -4q-20 -5 -38 -16q-19 -11 -39 -35q-20 -23 -33 -60h11zM422 -75q53 0 80 9t27 27q0 22 -35 36q-36 14 -95 14q-27 0 -62 -3q-23 -2 -69 -8q20 -39 60 -57
q41 -18 94 -18z" />
    <glyph glyph-name="uniFBAC" unicode="&#x6be;" horiz-adv-x="637" arabic-form="initial" 
d="M377 469h-2q67 -23 114 -45q45 -22 75 -50q28 -26 40 -63q12 -36 12 -82q0 -114 -55 -176q-55 -63 -154 -63q-55 0 -108 12q-50 11 -97 35q-41 -17 -82 -27q-40 -10 -83 -10h-68v160l30 30h56q-11 35 -11 67q0 54 22 102q22 49 60 84v97l7 8zM210 318h-2q-37 0 -57 -11
t-20 -30t42 -42q43 -23 116 -38q19 7 27 21t8 27q0 15 -9 29q-10 14 -24 23q-15 9 -36 15t-45 6zM445 181l2 -1q39 0 63 6t24 17q0 6 -6 12t-19 12t-36 15t-57 21l-2 -1q-6 -41 -31 -80q10 -1 30 -1h32z" />
    <glyph glyph-name="uniFBAD" unicode="&#x6be;" horiz-adv-x="514" arabic-form="medial" 
d="M276 -245l-4 -2q-103 0 -166 60q-62 59 -76 185h-64v160l30 30h41q12 64 36 120t58 97t77 66q42 24 92 24q31 0 55 -10q25 -11 45 -30t30 -45q11 -27 11 -55q0 -48 -18 -90q-18 -43 -63 -71l1 -4h152v-160l-21 -30h-23l-2 -3q12 -29 12 -63q0 -39 -15 -72t-42 -57
q-26 -23 -64 -37q-36 -13 -82 -13zM137 188l-1 -2q85 0 130 19q46 19 46 54q0 20 -12 32t-35 12q-13 0 -29 -4q-20 -5 -38 -16q-19 -11 -39 -35q-19 -22 -33 -60h11zM275 -74q53 0 80 9t27 27q0 22 -35 36q-36 14 -95 14q-28 0 -62 -3q-23 -2 -69 -8q19 -39 60 -57t94 -18z
" />
    <glyph glyph-name="uniFBAF" unicode="&#x6d2;" horiz-adv-x="968" arabic-form="final" 
d="M505 -256l-3 -5q-125 0 -223 8q-89 7 -147 26q-56 18 -80 48t-24 73q0 62 29 117q28 53 80 93q50 38 122 61q69 22 153 22h555v-160l-30 -30h-525q-84 0 -140 -3q-62 -3 -90 -7q-32 -4 -49 -11q-15 -6 -15 -13q0 -10 17 -16t60 -9q33 -2 118 -4q50 -1 191 -1q34 0 114 2
q42 1 119 5q73 4 111 7q52 5 90 9h9v-166q-29 -9 -84 -19q-51 -9 -111 -15t-124 -9t-123 -3z" />
    <glyph glyph-name="uniFBB1" unicode="&#x6d3;" horiz-adv-x="968" arabic-form="final" 
d="M505 -256l-3 -5q-125 0 -223 8q-89 7 -147 26q-56 18 -80 48t-24 73q0 62 29 117q28 53 80 93q50 38 122 61q69 22 153 22h555v-160l-30 -30h-525q-84 0 -140 -3q-62 -3 -90 -7q-32 -4 -49 -11q-15 -6 -15 -13q0 -10 17 -16t60 -9q33 -2 118 -4q50 -1 191 -1q34 0 114 2
q42 1 119 5q73 4 111 7q52 5 90 9h9v-166q-29 -9 -84 -19q-51 -9 -111 -15t-124 -9t-123 -3zM325 313l-1 -1q-9 22 -9 39q0 51 35 83t86 32q71 0 71 -69v-40h-50v6q0 19 -35 19q-24 0 -40 -9t-16 -21q0 -10 12 -21q12 -10 35 -18h116v-80h-238v80h34z" />
    <glyph glyph-name="uniFBFD" unicode="&#x6cc;" horiz-adv-x="768" arabic-form="final" 
d="M408 -255q-92 0 -164 21q-70 20 -121 62q-49 40 -76 99t-27 134q0 53 7 105q7 56 21 105h110v-9q-8 -32 -12 -66q-4 -31 -4 -66q0 -43 17 -77q16 -32 53 -55q36 -22 95 -33q56 -10 141 -10q31 0 81 2q37 1 66 6q31 5 45 10q17 6 17 14q0 5 -5 10t-18 8q-14 3 -36 6
q-6 1 -25 3.5t-32 4.5l-143 18v182l5 6l142 -18q48 -6 71 -8q49 -4 64 -5q32 -2 53 -3q15 -1 35 -1v-160l-20 -20h-2q2 -6 2 -12q0 -121 -90 -187t-250 -66z" />
    <glyph glyph-name="uniFBFE" unicode="&#x6cc;" horiz-adv-x="260" arabic-form="initial" 
d="M-10 190l42 -1q43 0 60 13q18 14 18 45q0 55 -27 167l6 8h121q11 -55 15 -97q5 -48 5 -78q0 -124 -47 -186q-46 -61 -150 -61h-63v160zM187 -232h-10l-69 67l-69 -67h-10l-84 82l84 82h10l69 -67l69 67h10l84 -82z" />
    <glyph glyph-name="uniFBFF" unicode="&#x6cc;" horiz-adv-x="319" arabic-form="medial" 
d="M0 190v-1q50 0 84 12v24v136h120v-116q0 -17 6 -27q7 -11 19 -17q13 -6 36 -9t54 -3h1v-160l-30 -30h-1q-67 0 -112 20q-43 19 -66 65q-35 -84 -141 -84v160zM221 -232h-10l-69 67l-69 -67h-10l-84 82l84 82h10l69 -67l69 67h10l84 -82z" />
    <glyph glyph-name="uniFDF4" unicode="&#xfdf4;" horiz-adv-x="1121" arabic-form="isolated" 
d="M177 0l-3 -1q-42 0 -73 9q-30 9 -52 29q-20 19 -31 53q-10 31 -10 80v81h84v-15q0 -29 20 -38t63 -9q58 0 95 3q38 3 66 9l-117 327v8h157l132 -355q18 -47 38 -82q18 -31 40 -49h1q-1 3 -1 9q0 26 12 47q11 19 38 40q23 18 65 37q42 20 92 38l16 6v5h-260v127
q0 77 50 130q49 52 138 82v57q0 18 9 33t23 26t32 14q20 3 38 -1l103 -27q29 -7 40 -20q10 -11 10 -43v-109l-138 -30q-45 -11 -78 -18t-57 -15q-27 -8 -42 -16q-15 -7 -31 -20h453v-203l-138 -30q-147 -34 -217 -57q-69 -22 -69 -42q0 -6 4 -13q5 -7 15 -15q12 -9 27 -14
q14 -5 44 -10l84 -11l-24 -188l-179 25q-53 7 -94 23q-37 14 -70 44q-31 28 -57 74q-25 44 -51 113q-25 -47 -74 -73q-47 -25 -123 -25z" />
    <glyph glyph-name="uniFDFA" unicode="&#xfdfa;" horiz-adv-x="1047" arabic-form="isolated" 
d="M681 257l-11 -8q-28 0 -45 9q-16 9 -24 26q-15 -35 -58 -35h-48v-144q0 -13 6 -21q6 -7 27 -7q28 0 36 5q7 4 7 18v19h49v-19v-13q0 -8 -1 -12q12 -2 18 -2h17q16 0 21 6q5 7 5 20v19h48v-19v-13v-12q3 -1 11 -1h12q10 0 14 2q3 1 3 9q0 6 -2 24q-2 14 -6 33l3 4h52
q7 -35 7 -60q0 -48 -21 -72t-55 -24q-30 0 -45 17q-20 -17 -51 -17q-40 0 -60 23q-22 -19 -65 -19q-33 0 -52 9t-28 27q-17 -36 -63 -36q-27 0 -42 9t-26 29l-6 -43l-60 8q-40 4 -60 21q-14 -16 -31 -20q-20 -5 -31 -5h-116v84h116q21 0 42 3q2 23 15 42q13 18 33 34
q20 15 42 24t44 9q10 0 15 -12l24 -61q8 -21 20 -29q13 -8 41 -8q12 0 18 1t16 3v17v152h-223q-62 0 -78 55h-1q-16 -42 -63 -42q-29 0 -48 19t-19 51q0 29 21 53t56 41l49 24v35h60v-117q0 -16 6 -25t32 -9h210v151h62v-151h61q24 0 36 4v9v72h52v-64q0 -11 9 -15
q10 -5 38 -5q23 0 34 4v17v235h62v-227q0 -14 7 -21t31 -7h16q-4 9 -4 24q0 20 9 39t24 34t33 24t38 9q16 0 34 -5q16 -5 27 -15v-79h-5q-12 7 -29 11q-20 5 -39 5q-50 0 -50 -15q0 -7 12 -16q11 -8 33 -13q25 3 45 6q16 2 45 11h4v-78q-24 -10 -76 -16q-51 -6 -135 -6
q-28 0 -45 9q-16 9 -24 26q-13 -36 -62 -36zM668 604l-8 -4q-31 0 -48 11q-16 11 -24 30q-8 -25 -21 -32v-5q0 -48 -36 -75t-107 -27h-422v85l434 -1q37 0 64 3t27 8q0 4 -9 7t-41 3h-13v84l2 3l12 -2q22 -4 41 -6q12 -1 29 -1h17q9 0 17 5v15v210h62v-201q0 -14 8 -22
q7 -7 30 -7q11 0 17 1q12 2 17 3v8v30h52v-22q0 -8 4 -12l44 50q22 24 50 46q25 19 60 19q18 0 36 -8q16 -8 30 -21q13 -13 21 -32t8 -38q0 -24 -7 -42q-8 -19 -21 -33q-12 -12 -32 -22q-18 -9 -40 -9h-111q-27 0 -49 8q-20 7 -31 30q-15 -37 -62 -37zM199 611l-1 -3
q-60 0 -77 59h-1q-16 -43 -63 -43q-28 0 -48 20q-19 19 -19 51q0 29 21 53q22 25 55 41l49 23v36h60v-117q0 -17 6 -27q6 -11 31 -11q16 0 34 7v150h62v-122q0 -16 6 -25t29 -9q33 0 33 31v189h62v-193q0 -53 -24 -82q-24 -28 -72 -28q-66 0 -86 41q-14 -41 -57 -41z
M893 -79l-5 1q-24 0 -44 11t-33 27v49l4 4q11 -3 33 -7q18 -3 36 -3q68 0 83 40h-1q-12 -9 -27 -12t-28 -3q-39 0 -59 19q-21 19 -21 54q0 24 7 44q8 23 19 38q12 17 28 27t36 10q19 0 36 -12q18 -13 29 -31q13 -21 20 -45q8 -27 8 -56q0 -32 -9 -61t-25 -49
q-16 -21 -39 -33t-48 -12zM471 913h62v-200h-62v200zM660 776l296 132h5v-34l-296 -132h-5v34zM4 128l225 100h5v-34l-225 -100h-5v34zM601 438l-1 -1q-20 0 -33 13t-13 34q0 22 14 39t33 17q20 0 34 -17q13 -16 13 -39q0 -20 -13 -33t-34 -13zM191 403l187 83h5v-34
l-187 -83h-5v34zM503 144l187 83h5v-34l-187 -83h-5v34zM792 482l168 76h6v-35l-169 -75h-5v34zM326 119v4l27 28l-27 29v5l36 37l37 -37v-5l-29 -29l29 -28v-4l-36 -37zM239 866l-1 -2q-14 0 -21 9q-8 10 -8 32v16h23v-9q0 -11 9 -11q11 0 11 18v21h24v-18q2 -1 9 -1
q11 0 11 13q0 7 -1 11q-2 8 -3 11h23l3 -12q1 -5 1 -12q0 -46 -30 -46q-9 0 -18 4q-7 -24 -32 -24zM688 820l-1 -2q-13 0 -21 9q-8 10 -8 32v16h23v-9q0 -11 9 -11q11 0 11 18v21h24v-18q2 -1 9 -1q11 0 11 13q0 7 -1 11q-2 8 -3 11h23q2 -4 3 -12q1 -5 1 -12q0 -46 -30 -46
q-9 0 -18 4q-8 -24 -32 -24zM309 335l-1 -2q-14 0 -21 9q-8 10 -8 32v16h23v-9q0 -11 9 -11q11 0 11 18v21h24v-18q2 -1 9 -1q11 0 11 13q0 7 -1 11q-2 8 -3 11h23q1 -5 3 -12q1 -5 1 -12q0 -46 -30 -46q-9 0 -18 4q-7 -24 -32 -24zM800 677l-1 -3h7h121q15 0 27 2q9 2 9 8
q0 11 -19 20t-43 9q-29 0 -49 -7q-22 -8 -41 -21zM56 331q27 0 48 10v39l-35 -8q-19 -4 -31 -12t-12 -16q0 -13 30 -13zM56 701q28 0 48 10v38l-35 -8q-19 -4 -31 -12q-12 -7 -12 -16q0 -12 30 -12zM913 102l-1 -1h17q6 0 18 2q-19 25 -55 25q-14 0 -21 -6q-8 -6 -8 -10
q0 -8 10 -9q7 -1 40 -1zM186 75v1q0 -6 34 -10l51 -7l-6 15q-2 5 -6 8q-5 3 -12 3q-61 0 -61 -10zM595 467v-1q11 0 18 3t7 10q0 8 -7 12q-8 5 -18 5q-11 0 -18 -4t-7 -12q0 -7 7 -10t18 -3z" />
    <glyph glyph-name="uniFDFB" unicode="&#xfdfb;" horiz-adv-x="3132" arabic-form="isolated" 
d="M980 -10l-7 -6q-15 0 -43 2q-21 2 -42 6q-9 2 -43 11q-17 4 -49 17v156h173l-117 438v12h151l112 -429q25 11 45 24t36 30v490h140v-479q0 -40 21 -58t71 -18h146q62 0 108 3t81 9q38 7 62 16q30 12 50 25l14 9v4l-225 44l-20 4t-22 4q-18 3 -27 3q-49 0 -49 -54v-13h-84
v154q0 46 24 72t68 26q21 0 48 -4q39 -6 86 -16l210 -45q5 -1 13.5 -3t15 -3t11.5 -2q25 -4 34 -5q11 -1 31 -3q10 -1 31 -1h39v-174h-84l-96 -92q-16 -14 -23 -21t-21 -19q3 -72 54 -111t142 -39q96 0 141 39t45 132v619h140v-455q0 -29 5 -51q4 -19 17 -30q12 -10 33 -15
q19 -4 52 -4h134q62 0 108 3t81 9q38 7 62 16q30 12 50 25l14 9v4l-225 44l-20 4t-22 4q-18 3 -27 3q-49 0 -49 -54v-13h-84v154q0 47 24 72q24 26 68 26q21 0 48 -4q39 -6 86 -16l210 -45q5 -1 13.5 -3t15 -3t11.5 -2q25 -4 34 -5q11 -1 31 -3q10 -1 31 -1h39v-174h-84
l-96 -92q-47 -43 -84 -72t-75 -45q-36 -16 -78 -22q-40 -6 -90 -6h-154q-77 0 -116 43l-2 -1q-13 -142 -90 -220q-76 -78 -204 -78q-139 0 -219 74q-79 74 -87 207q-35 -15 -73 -21q-39 -6 -87 -6h-166q-149 0 -189 130q-15 -28 -36 -54q-20 -25 -50 -45q-29 -19 -66 -30
q-39 -11 -85 -11zM531 -6l-4 1q-83 0 -132 32t-68 102h-2q-19 -52 -58 -76t-93 -24q-36 0 -66 12t-51 33t-33 51t-12 66q0 71 51 128t136 97l118 56v87h137v-291q0 -20 3 -37t12 -27q9 -11 25 -15q18 -5 42 -5q37 0 55 15t18 50v489h140v-499q0 -124 -56 -185
q-55 -60 -162 -60zM1497 616l599 246h12v-76l-599 -246h-12v76zM66 569l99 45v4q-23 11 -32 27q-8 15 -10 41q-1 20 6 39q8 20 21 35q15 17 31 26q17 10 39 10q38 0 63 -30q25 -29 25 -77q0 -43 -30 -81q-29 -37 -102 -70l-98 -45h-12v76zM2528 616l486 200h12v-76
l-486 -200h-12v76zM2051 543l-3 -3q-27 0 -43 10q-20 -59 -78 -59q-35 0 -53 21t-18 57q0 19 3 35q3 19 7 27h47v-10q-4 -9 -4 -21q0 -21 22 -21q16 0 24 11q7 10 7 36v50h54v-45v-1q12 -3 24 -3q29 0 29 28q0 11 -3 23q-2 8 -8 26v10h55q4 -11 7 -31q3 -18 3 -33
q0 -107 -72 -107zM189 214l1 -1q29 0 59 6q33 7 59 19v9v100l-88 -23q-53 -14 -80 -31q-29 -18 -29 -42q0 -37 78 -37zM1530 -140l84 82h10l84 -82l-84 -82h-10zM2563 -140l84 82h10l84 -82l-84 -82h-10zM234 647l-1 -1q14 11 17 18q3 8 3 15q0 15 -12 24t-28 9
q-20 0 -32 -9q-13 -9 -11 -20q0 -14 18 -23q17 -8 46 -13z" />
    <glyph glyph-name="uniFE82" unicode="&#x622;" horiz-adv-x="284" arabic-form="final" 
d="M253 0l2 1q-53 0 -93 14q-39 13 -63 42q-24 28 -36 74q-12 45 -12 110v405h140v-385q0 -41 20 -56q19 -15 72 -15h1v-160l-30 -30h-1zM-13 760l-3 2q11 17 30 26q20 9 44 9q14 0 32 -3q24 -4 37 -7q11 -3 31 -7q15 -3 28 -3q18 0 33 3t23 8h13v-67q-26 -25 -69 -25
q-16 0 -33 3q-22 4 -33 7t-31 7q-15 3 -28 3q-21 0 -37 -6t-24 -17h-13v67z" />
    <glyph glyph-name="uniFE84" unicode="&#x623;" horiz-adv-x="284" arabic-form="final" 
d="M253 0l2 1q-53 0 -93 14q-39 13 -63 42q-24 28 -36 74q-12 45 -12 110v405h140v-385q0 -41 20 -56q19 -15 72 -15h1v-160l-30 -30h-1zM38 775l-1 -1q-9 22 -9 39q0 51 35 83t86 32q71 0 71 -69v-40h-50v6q0 19 -35 19q-23 0 -40 -9q-16 -9 -16 -21q0 -10 12 -21
q12 -10 35 -18h116v-80h-238v80h34z" />
    <glyph glyph-name="uniFE86" unicode="&#x624;" horiz-adv-x="490" arabic-form="final" 
d="M167 -254l-3 -5q-51 0 -96 22q-46 23 -87 63v111l10 9q45 -12 84 -17q43 -6 84 -6q68 0 113 19q48 20 71 55h-105q-110 0 -161 42t-51 133q0 57 17 111q17 53 45 93q27 39 68 64q39 24 83 24q39 0 75 -21q35 -20 64 -57q28 -36 48 -87t27 -111h36v-160l-30 -30h-14
q-13 -56 -39 -103t-62 -80t-81 -51t-96 -18zM344 185l-1 -1q-20 44 -58 66q-40 23 -93 23q-34 0 -57 -17q-22 -16 -22 -39q0 -9 6 -15q5 -5 20 -10q13 -4 38 -6q16 -1 62 -1h105zM140 587l-1 -1q-9 22 -9 39q0 51 35 83t86 32q71 0 71 -69v-40h-50v6q0 19 -35 19
q-23 0 -40 -9q-16 -9 -16 -21q0 -10 12 -21q12 -10 35 -18h116v-80h-238v80h34z" />
    <glyph glyph-name="uniFE88" unicode="&#x625;" horiz-adv-x="284" arabic-form="final" 
d="M253 0l2 -2q-53 0 -93 14q-38 13 -63 44q-24 30 -36 77t-12 113v499h140v-479q0 -43 20 -60q19 -16 72 -16h1v-160l-30 -30h-1zM28 -181l-1 -1q-9 22 -9 39q0 51 35 83t86 32q71 0 71 -69v-40h-50v6q0 19 -35 19q-23 0 -40 -9q-16 -9 -16 -21q0 -10 12 -21q12 -10 35 -18
h116v-80h-238v80h34z" />
    <glyph glyph-name="uniFE8A" unicode="&#x626;" horiz-adv-x="768" arabic-form="final" 
d="M408 -255q-92 0 -164 21q-70 20 -121 62q-49 40 -76 99t-27 134q0 53 7 105q7 56 21 105h110v-9q-8 -32 -12 -66q-4 -31 -4 -66q0 -43 17 -77q16 -32 53 -55q36 -22 95 -33q56 -10 141 -10q31 0 81 2q37 1 66 6q31 5 45 10q17 6 17 14q0 5 -5 10t-18 8q-14 3 -36 6
q-6 1 -25 3.5t-32 4.5l-143 18v182l5 6l142 -18q48 -6 71 -8q49 -4 64 -5q32 -2 53 -3q15 -1 35 -1v-160l-20 -20h-2q2 -6 2 -12q0 -121 -90 -187t-250 -66zM19 400l-1 -1q-9 23 -9 39q0 51 35 83t86 32q71 0 71 -69v-40h-50v6q0 19 -35 19q-24 0 -40 -9t-16 -21
q0 -11 12 -21t35 -18h116v-80h-238v80h34z" />
    <glyph glyph-name="uniFE8B" unicode="&#x626;" horiz-adv-x="260" arabic-form="initial" 
d="M-10 190l42 -1q43 0 60 13q18 14 18 45q0 55 -27 167l6 8h121q11 -55 15 -97q5 -48 5 -78q0 -124 -47 -186q-46 -61 -150 -61h-63v160zM50 549l-1 -1q-9 22 -9 39q0 51 35 83t86 32q71 0 71 -69v-40h-50v6q0 19 -35 19q-23 0 -40 -9q-16 -9 -16 -21q0 -10 12 -21
q12 -10 35 -18h116v-80h-238v80h34z" />
    <glyph glyph-name="uniFE8C" unicode="&#x626;" horiz-adv-x="319" arabic-form="medial" 
d="M0 190v-1q50 0 84 12v24v136h120v-116q0 -17 6 -27q7 -11 19 -17q13 -6 36 -9t54 -3h1v-160l-30 -30h-1q-67 0 -112 20q-43 19 -66 65q-35 -84 -141 -84v160zM60 489l-1 -1q-9 22 -9 39q0 51 35 83t86 32q71 0 71 -69v-40h-50v6q0 19 -35 19q-23 0 -40 -9q-16 -9 -16 -21
q0 -10 12 -21q12 -10 35 -18h116v-80h-238v80h34z" />
    <glyph glyph-name="uniFE8E" unicode="&#x627;" horiz-adv-x="284" arabic-form="final" 
d="M253 0l2 -2q-53 0 -93 14q-38 13 -63 44q-24 30 -36 77t-12 113v499h140v-479q0 -43 20 -60q19 -16 72 -16h1v-160l-30 -30h-1z" />
    <glyph glyph-name="uniFE90" unicode="&#x628;" horiz-adv-x="966" arabic-form="final" 
d="M854 201h-4q26 -6 52 -9q27 -3 61 -3v-160l-30 -30q-65 0 -114 18q-50 18 -94 58q-190 -95 -399 -95q-82 0 -141 15t-96 46t-54 81q-17 51 -17 120q0 34 7 72q8 44 19 78h110v-12q-8 -27 -12 -51q-4 -21 -4 -45q0 -50 51 -72q50 -22 168 -22q130 0 252 29q119 28 233 83
h12v-101zM439 -67l84 -82l-84 -82h-10l-84 82l84 82h10z" />
    <glyph glyph-name="uniFE91" unicode="&#x628;" horiz-adv-x="260" arabic-form="initial" 
d="M-10 190l42 -1q43 0 60 13q18 14 18 45q0 55 -27 167l6 8h121q11 -55 15 -97q5 -48 5 -78q0 -124 -47 -186q-46 -61 -150 -61h-63v160zM112 -68l84 -82l-84 -82h-10l-84 82l84 82h10z" />
    <glyph glyph-name="uniFE92" unicode="&#x628;" horiz-adv-x="319" arabic-form="medial" 
d="M0 190v-1q50 0 84 12v24v136h120v-116q0 -17 6 -27q7 -11 19 -17q13 -6 36 -9t54 -3h1v-160l-30 -30h-1q-67 0 -112 20q-43 19 -66 65q-35 -84 -141 -84v160zM146 -68l84 -82l-84 -82h-10l-84 82l84 82h10z" />
    <glyph glyph-name="uniFE94" unicode="&#x629;" horiz-adv-x="555" arabic-form="final" 
d="M524 0l-3 2q-75 0 -121 35q-44 34 -64 98h-4q-19 -52 -58 -76t-93 -24q-36 0 -66 12t-51 33t-33 51t-12 66q0 71 51 128t136 97l118 56v87h137v-291q0 -20 3 -37q3 -16 14 -27q10 -10 29 -15q20 -5 48 -5v-159zM202 224l1 -2q34 0 62 7q31 8 56 21v107l-88 -23
q-53 -14 -80 -31q-29 -18 -29 -42q0 -37 78 -37zM339 627h-10l-69 67l-69 -67h-10l-84 82l84 82h10l69 -67l69 67h10l84 -82z" />
    <glyph glyph-name="uniFE96" unicode="&#x62a;" horiz-adv-x="966" arabic-form="final" 
d="M854 201h-4q26 -6 52 -9q27 -3 61 -3v-160l-30 -30q-65 0 -114 18q-50 18 -94 58q-190 -95 -399 -95q-82 0 -141 15t-96 46t-54 81q-17 51 -17 120q0 34 7 72q8 44 19 78h110v-12q-8 -27 -12 -51q-4 -21 -4 -45q0 -50 51 -72q50 -22 168 -22q130 0 252 29q119 28 233 83
h12v-101zM506 372h-10l-69 67l-69 -67h-10l-84 82l84 82h10l69 -67l69 67h10l84 -82z" />
    <glyph glyph-name="uniFE97" unicode="&#x62a;" horiz-adv-x="260" arabic-form="initial" 
d="M-10 190l42 -1q43 0 60 13q18 14 18 45q0 55 -27 167l6 8h121q11 -55 15 -97q5 -48 5 -78q0 -124 -47 -186q-46 -61 -150 -61h-63v160zM214 491h-10l-69 67l-69 -67h-10l-84 82l84 82h10l69 -67l69 67h10l84 -82z" />
    <glyph glyph-name="uniFE98" unicode="&#x62a;" horiz-adv-x="319" arabic-form="medial" 
d="M0 190v-1q50 0 84 12v24v136h120v-116q0 -17 6 -27q7 -11 19 -17q13 -6 36 -9t54 -3h1v-160l-30 -30h-1q-67 0 -112 20q-43 19 -66 65q-35 -84 -141 -84v160zM225 431h-10l-69 67l-69 -67h-10l-84 82l84 82h10l69 -67l69 67h10l84 -82z" />
    <glyph glyph-name="uniFE9A" unicode="&#x62b;" horiz-adv-x="966" arabic-form="final" 
d="M854 201h-4q26 -6 52 -9q27 -3 61 -3v-160l-30 -30q-65 0 -114 18q-50 18 -94 58q-190 -95 -399 -95q-82 0 -141 15t-96 46t-54 81q-17 51 -17 120q0 34 7 72q8 44 19 78h110v-12q-8 -27 -12 -51q-4 -21 -4 -45q0 -50 51 -72q50 -22 168 -22q130 0 252 29q119 28 233 83
h12v-101zM341 598l81 79h10l81 -79l-81 -79h-10zM506 372h-10l-69 67l-69 -67h-10l-84 82l84 82h10l69 -67l69 67h10l84 -82z" />
    <glyph glyph-name="uniFE9B" unicode="&#x62b;" horiz-adv-x="260" arabic-form="initial" 
d="M-10 190l42 -1q43 0 60 13q18 14 18 45q0 55 -27 167l6 8h121q11 -55 15 -97q5 -48 5 -78q0 -124 -47 -186q-46 -61 -150 -61h-63v160zM49 717l81 79h10l81 -79l-81 -79h-10zM214 491h-10l-69 67l-69 -67h-10l-84 82l84 82h10l69 -67l69 67h10l84 -82z" />
    <glyph glyph-name="uniFE9C" unicode="&#x62b;" horiz-adv-x="319" arabic-form="medial" 
d="M0 190v-1q50 0 84 12v24v136h120v-116q0 -17 6 -27q7 -11 19 -17q13 -6 36 -9t54 -3h1v-160l-30 -30h-1q-67 0 -112 20q-43 19 -66 65q-35 -84 -141 -84v160zM60 657l81 79h10l81 -79l-81 -79h-10zM225 431h-10l-69 67l-69 -67h-10l-84 82l84 82h10l69 -67l69 67h10
l84 -82z" />
    <glyph glyph-name="uniFE9E" unicode="&#x62c;" horiz-adv-x="705" arabic-form="final" 
d="M705 30l-30 -33h-1q-54 0 -93 12t-63 39t-36 70q-12 44 -12 105v36l-20 -5q-67 -16 -127 -36q-59 -20 -100 -46q-42 -27 -66 -60t-24 -78q0 -76 68 -118q67 -42 189 -42q35 0 71 3q33 3 71 11q39 8 64 16q29 9 50 20h12v-156q-48 -45 -123 -69t-163 -24q-80 0 -144 21
t-109 60t-69 94t-24 125q0 57 22 108q23 54 64 98q43 46 102 83t137 66l10 4v4h-160q-38 0 -52 -10q-15 -10 -15 -39v-22h-84v143q0 65 30 94q30 28 96 22l296 -26q44 -4 75 -6q21 -1 69 -1h24v-190l-61 -15v-42q0 -32 27 -44t98 -12h1v-160zM334 128l84 -82l-84 -82h-10
l-84 82l84 82h10z" />
    <glyph glyph-name="uniFE9F" unicode="&#x62c;" horiz-adv-x="665" arabic-form="initial" 
d="M558 238l-98 -95q-46 -43 -84 -72t-75 -45q-36 -16 -78 -22q-41 -6 -90 -6h-166v160l30 30h146q61 0 108 3t81 9q38 7 62 16q30 12 50 25l14 9v4l-225 44l-20 4t-22 4q-18 3 -27 3q-49 0 -49 -54v-13h-84v154q0 46 24 72t68 26q21 0 48 -4q39 -6 86 -16l210 -45
q5 -1 13.5 -3t15 -3t11.5 -2q25 -4 34 -5q11 -1 31 -3q10 -1 31 -1h39v-174h-84zM312 -70l84 -82l-84 -82h-10l-84 82l84 82h10z" />
    <glyph glyph-name="uniFEA0" unicode="&#x62c;" horiz-adv-x="695" arabic-form="medial" 
d="M695 30l-35 -33h-1q-97 0 -143 35q-45 34 -45 110v15l-24 -22q-43 -40 -79 -67q-34 -26 -72 -43q-34 -16 -75 -22q-39 -6 -89 -6h-166v160l30 30h146q62 0 108 3t81 9q38 7 62 16q30 12 50 25l14 9v4l-225 44l-20 4t-22 4q-18 3 -27 3q-49 0 -49 -54v-13h-84v154
q0 47 24 72q24 26 68 26q21 0 48 -4q39 -6 86 -16l210 -45q5 -1 13.5 -3t15 -3t11.5 -2q25 -4 34 -5q11 -1 31 -3q10 -1 31 -1h39v-174h-69v-8q0 -13 6 -20q6 -8 19 -12q14 -5 37 -6q16 -1 60 -1h1v-160zM309 -70l84 -82l-84 -82h-10l-84 82l84 82h10z" />
    <glyph glyph-name="uniFEA2" unicode="&#x62d;" horiz-adv-x="705" arabic-form="final" 
d="M705 30l-30 -33h-1q-54 0 -93 12t-63 39t-36 70q-12 44 -12 105v36l-20 -5q-67 -16 -127 -36q-59 -20 -100 -46q-42 -27 -66 -60t-24 -78q0 -76 68 -118q67 -42 189 -42q35 0 71 3q33 3 71 11q39 8 64 16q29 9 50 20h12v-156q-48 -45 -123 -69t-163 -24q-80 0 -144 21
t-109 60t-69 94t-24 125q0 57 22 108q23 54 64 98q43 46 102 83t137 66l10 4v4h-160q-38 0 -52 -10q-15 -10 -15 -39v-22h-84v143q0 65 30 94q30 28 96 22l296 -26q44 -4 75 -6q21 -1 69 -1h24v-190l-61 -15v-42q0 -32 27 -44t98 -12h1v-160z" />
    <glyph glyph-name="uniFEA3" unicode="&#x62d;" horiz-adv-x="665" arabic-form="initial" 
d="M558 238l-98 -95q-46 -43 -84 -72t-75 -45q-36 -16 -78 -22q-41 -6 -90 -6h-166v160l30 30h146q61 0 108 3t81 9q38 7 62 16q30 12 50 25l14 9v4l-225 44l-20 4t-22 4q-18 3 -27 3q-49 0 -49 -54v-13h-84v154q0 46 24 72t68 26q21 0 48 -4q39 -6 86 -16l210 -45
q5 -1 13.5 -3t15 -3t11.5 -2q25 -4 34 -5q11 -1 31 -3q10 -1 31 -1h39v-174h-84z" />
    <glyph glyph-name="uniFEA4" unicode="&#x62d;" horiz-adv-x="695" arabic-form="medial" 
d="M695 30l-35 -33h-1q-97 0 -143 35q-45 34 -45 110v15l-24 -22q-43 -40 -79 -67q-34 -26 -72 -43q-34 -16 -75 -22q-39 -6 -89 -6h-166v160l30 30h146q62 0 108 3t81 9q38 7 62 16q30 12 50 25l14 9v4l-225 44l-20 4t-22 4q-18 3 -27 3q-49 0 -49 -54v-13h-84v154
q0 47 24 72q24 26 68 26q21 0 48 -4q39 -6 86 -16l210 -45q5 -1 13.5 -3t15 -3t11.5 -2q25 -4 34 -5q11 -1 31 -3q10 -1 31 -1h39v-174h-69v-8q0 -13 6 -20q6 -8 19 -12q14 -5 37 -6q16 -1 60 -1h1v-160z" />
    <glyph glyph-name="uniFEA6" unicode="&#x62e;" horiz-adv-x="705" arabic-form="final" 
d="M705 30l-30 -33h-1q-54 0 -93 12t-63 39t-36 70q-12 44 -12 105v36l-20 -5q-67 -16 -127 -36q-59 -20 -100 -46q-42 -27 -66 -60t-24 -78q0 -76 68 -118q67 -42 189 -42q35 0 71 3q33 3 71 11q39 8 64 16q29 9 50 20h12v-156q-48 -45 -123 -69t-163 -24q-80 0 -144 21
t-109 60t-69 94t-24 125q0 57 22 108q23 54 64 98q43 46 102 83t137 66l10 4v4h-160q-38 0 -52 -10q-15 -10 -15 -39v-22h-84v143q0 65 30 94q30 28 96 22l296 -26q44 -4 75 -6q21 -1 69 -1h24v-190l-61 -15v-42q0 -32 27 -44t98 -12h1v-160zM367 757l84 -82l-84 -82h-10
l-84 82l84 82h10z" />
    <glyph glyph-name="uniFEA7" unicode="&#x62e;" horiz-adv-x="665" arabic-form="initial" 
d="M558 238l-98 -95q-46 -43 -84 -72t-75 -45q-36 -16 -78 -22q-41 -6 -90 -6h-166v160l30 30h146q61 0 108 3t81 9q38 7 62 16q30 12 50 25l14 9v4l-225 44l-20 4t-22 4q-18 3 -27 3q-49 0 -49 -54v-13h-84v154q0 46 24 72t68 26q21 0 48 -4q39 -6 86 -16l210 -45
q5 -1 13.5 -3t15 -3t11.5 -2q25 -4 34 -5q11 -1 31 -3q10 -1 31 -1h39v-174h-84zM300 726l84 -82l-84 -82h-10l-84 82l84 82h10z" />
    <glyph glyph-name="uniFEA8" unicode="&#x62e;" horiz-adv-x="695" arabic-form="medial" 
d="M695 30l-35 -33h-1q-97 0 -143 35q-45 34 -45 110v15l-24 -22q-43 -40 -79 -67q-34 -26 -72 -43q-34 -16 -75 -22q-39 -6 -89 -6h-166v160l30 30h146q62 0 108 3t81 9q38 7 62 16q30 12 50 25l14 9v4l-225 44l-20 4t-22 4q-18 3 -27 3q-49 0 -49 -54v-13h-84v154
q0 47 24 72q24 26 68 26q21 0 48 -4q39 -6 86 -16l210 -45q5 -1 13.5 -3t15 -3t11.5 -2q25 -4 34 -5q11 -1 31 -3q10 -1 31 -1h39v-174h-69v-8q0 -13 6 -20q6 -8 19 -12q14 -5 37 -6q16 -1 60 -1h1v-160zM297 726l84 -82l-84 -82h-10l-84 82l84 82h10z" />
    <glyph glyph-name="uniFEAA" unicode="&#x62f;" horiz-adv-x="581" arabic-form="final" 
d="M472 265l-4 3q8 -23 16 -36q9 -15 21 -24q11 -8 30 -13q16 -4 42 -4v-160l-30 -30q-62 0 -101 21q-38 20 -70 77q-25 -52 -74 -81q-47 -28 -127 -28q-41 0 -73 9q-30 9 -52 29q-20 19 -31 53q-10 31 -10 80v81h84v-15q0 -29 20 -38q19 -9 63 -9q58 0 95 3q38 3 65 9
q-2 3 -7 20q-5 16 -7 20l-102 288v8h157z" />
    <glyph glyph-name="uniFEAC" unicode="&#x630;" horiz-adv-x="581" arabic-form="final" 
d="M472 265l-4 3q8 -23 16 -36q9 -15 21 -24q11 -8 30 -13q16 -4 42 -4v-160l-30 -30q-62 0 -101 21q-38 20 -70 77q-25 -52 -74 -81q-47 -28 -127 -28q-41 0 -73 9q-30 9 -52 29q-20 19 -31 53q-10 31 -10 80v81h84v-15q0 -29 20 -38q19 -9 63 -9q58 0 95 3q38 3 65 9
q-2 3 -7 20q-5 16 -7 20l-102 288v8h157zM290 765l84 -82l-84 -82h-10l-84 82l84 82h10z" />
    <glyph glyph-name="uniFEAE" unicode="&#x631;" horiz-adv-x="400" arabic-form="final" 
d="M63 -254l2 -3q-44 0 -85 22q-43 23 -77 63v111l10 9q33 -12 63 -17q33 -6 63 -6q31 0 57 14q25 13 45 38q19 24 30 57q11 35 11 72q0 16 -3 34t-9 42q-9 36 -16 59q-9 30 -27 82l6 8h121l25 -78q5 -16 14 -30q8 -13 21 -20q12 -7 35 -10q21 -3 52 -3v-160l-30 -30
q-61 0 -103 30l-2 -1q-8 -64 -25 -114q-18 -53 -45 -90t-61 -58q-35 -21 -72 -21z" />
    <glyph glyph-name="uniFEB0" unicode="&#x632;" horiz-adv-x="400" arabic-form="final" 
d="M63 -254l2 -3q-44 0 -85 22q-43 23 -77 63v111l10 9q33 -12 63 -17q33 -6 63 -6q31 0 57 14q25 13 45 38q19 24 30 57q11 35 11 72q0 16 -3 34t-9 42q-9 36 -16 59q-9 30 -27 82l6 8h121l25 -78q5 -16 14 -30q8 -13 21 -20q12 -7 35 -10q21 -3 52 -3v-160l-30 -30
q-61 0 -103 30l-2 -1q-8 -64 -25 -114q-18 -53 -45 -90t-61 -58q-35 -21 -72 -21zM187 563l84 -82l-84 -82h-10l-84 82l84 82h10z" />
    <glyph glyph-name="uniFEB2" unicode="&#x633;" horiz-adv-x="1251" arabic-form="final" 
d="M338 -255l-2 -4q-76 0 -134 21t-99 60q-41 40 -62 96q-21 57 -21 129q0 50 7 95q8 49 21 95h110v-12q-8 -26 -12 -58q-4 -29 -4 -61q0 -74 51 -114q52 -41 144 -41q217 0 217 113q0 36 -12 92q-13 58 -33 134l6 8h121l15 -48q6 -21 15 -36q9 -14 21 -22q13 -8 32 -11
t46 -3q37 0 49 15t12 56v51h110v-51q0 -35 -3 -65q29 -6 58 -6q31 0 42 14t11 57v81h110v-81v-27q0 -18 -1 -27q49 -6 97 -6v-170l-30 -20q-37 0 -67 9q-28 8 -52 26q-39 -45 -110 -45q-35 0 -65 12t-50 32q-42 -43 -115 -43q-42 0 -69 6q-29 6 -50 22l-3 -2
q-13 -130 -92 -201q-77 -70 -209 -70z" />
    <glyph glyph-name="uniFEB3" unicode="&#x633;" horiz-adv-x="716" arabic-form="initial" 
d="M286 -10l-1 -4q-47 0 -81 12t-66 39q-47 -41 -126 -41h-41v160l30 30h11q26 0 42 3q18 3 26 10q9 8 12 19q3 12 3 30v51h110v-51q0 -33 -3 -61q9 -2 23 -4t19 -3q16 -3 41 -3q41 0 54 15q13 14 13 56v51h110v-51q0 -35 -3 -65q29 -6 58 -6q28 0 39 8q10 7 10 30
q0 22 -5 59q-5 33 -15 78l6 8h118q16 -86 16 -144q0 -227 -169 -227q-36 0 -66 12t-50 32q-42 -43 -115 -43z" />
    <glyph glyph-name="uniFEB4" unicode="&#x633;" horiz-adv-x="776" arabic-form="medial" 
d="M285 -10l-4 -4q-50 0 -83 12t-63 39q-47 -41 -126 -41h-41v160l30 30h11q25 0 42 3q18 3 26 10q9 8 12 19q3 12 3 30v51h110v-51q0 -33 -3 -61q41 -9 84 -9q41 0 54 15q14 16 14 56v51h110v-51q0 -35 -3 -65q28 -6 58 -6q31 0 42 14t11 57v81h110v-81v-27q0 -18 -1 -27
q50 -6 97 -6v-170l-30 -20q-37 0 -67 9q-28 8 -52 26q-39 -45 -110 -45q-35 0 -65 12t-50 32q-22 -22 -53 -33q-29 -10 -63 -10z" />
    <glyph glyph-name="uniFEB6" unicode="&#x634;" horiz-adv-x="1251" arabic-form="final" 
d="M338 -255l-2 -4q-76 0 -134 21t-99 60q-41 40 -62 96q-21 57 -21 129q0 50 7 95q8 49 21 95h110v-12q-8 -26 -12 -58q-4 -29 -4 -61q0 -74 51 -114q52 -41 144 -41q217 0 217 113q0 36 -12 92q-13 58 -33 134l6 8h121l15 -48q6 -21 15 -36q9 -14 21 -22q13 -8 32 -11
t46 -3q37 0 49 15t12 56v51h110v-51q0 -35 -3 -65q29 -6 58 -6q31 0 42 14t11 57v81h110v-81v-27q0 -18 -1 -27q49 -6 97 -6v-170l-30 -20q-37 0 -67 9q-28 8 -52 26q-39 -45 -110 -45q-35 0 -65 12t-50 32q-42 -43 -115 -43q-42 0 -69 6q-29 6 -50 22l-3 -2
q-13 -130 -92 -201q-77 -70 -209 -70zM794 594l81 79h10l81 -79l-81 -79h-10zM959 368h-10l-69 67l-69 -67h-10l-84 82l84 82h10l69 -67l69 67h10l84 -82z" />
    <glyph glyph-name="uniFEB7" unicode="&#x634;" horiz-adv-x="716" arabic-form="initial" 
d="M286 -10l-1 -4q-47 0 -81 12t-66 39q-47 -41 -126 -41h-41v160l30 30h11q26 0 42 3q18 3 26 10q9 8 12 19q3 12 3 30v51h110v-51q0 -33 -3 -61q9 -2 23 -4t19 -3q16 -3 41 -3q41 0 54 15q13 14 13 56v51h110v-51q0 -35 -3 -65q29 -6 58 -6q28 0 39 8q10 7 10 30
q0 22 -5 59q-5 33 -15 78l6 8h118q16 -86 16 -144q0 -227 -169 -227q-36 0 -66 12t-50 32q-42 -43 -115 -43zM310 594l81 79h10l81 -79l-81 -79h-10zM475 368h-10l-69 67l-69 -67h-10l-84 82l84 82h10l69 -67l69 67h10l84 -82z" />
    <glyph glyph-name="uniFEB8" unicode="&#x634;" horiz-adv-x="776" arabic-form="medial" 
d="M285 -10l-4 -4q-50 0 -83 12t-63 39q-47 -41 -126 -41h-41v160l30 30h11q25 0 42 3q18 3 26 10q9 8 12 19q3 12 3 30v51h110v-51q0 -33 -3 -61q41 -9 84 -9q41 0 54 15q14 16 14 56v51h110v-51q0 -35 -3 -65q28 -6 58 -6q31 0 42 14t11 57v81h110v-81v-27q0 -18 -1 -27
q50 -6 97 -6v-170l-30 -20q-37 0 -67 9q-28 8 -52 26q-39 -45 -110 -45q-35 0 -65 12t-50 32q-22 -22 -53 -33q-29 -10 -63 -10zM317 594l81 79h10l81 -79l-81 -79h-10zM482 368h-10l-69 67l-69 -67h-10l-84 82l84 82h10l69 -67l69 67h10l84 -82z" />
    <glyph glyph-name="uniFEBA" unicode="&#x635;" horiz-adv-x="1353" arabic-form="final" 
d="M338 -255l-2 -4q-76 0 -134 21t-99 60q-41 40 -62 96q-21 57 -21 129q0 50 7 95q8 49 21 95h110v-12q-8 -26 -12 -58q-4 -29 -4 -61q0 -74 51 -114q52 -41 144 -41q217 0 217 113q0 36 -12 92q-13 58 -33 134l6 8h121l15 -48q6 -14 9 -20q5 -9 10 -16l96 110q38 45 69 74
q31 30 66 52q31 20 68 31q36 11 74 11q46 0 85 -19q42 -20 71 -52q30 -33 48 -76t18 -91q0 -32 -6 -60q14 -2 42 -4q15 -1 51 -1v-160l-30 -30q-82 0 -147 54q-32 -26 -70 -39q-40 -14 -85 -14h-277q-62 0 -98 30l-3 -2q-14 -135 -92 -209q-79 -74 -212 -74zM1079 186
q51 0 72 9t21 30q0 13 -12 27t-33 24t-48 18q-25 7 -58 7q-85 0 -144 -27t-107 -72l-12 -11l1 -5h17h303z" />
    <glyph glyph-name="uniFEBB" unicode="&#x635;" horiz-adv-x="838" arabic-form="initial" 
d="M0 190l1 -4q49 0 84 12v22v104h120v-84q0 -21 13 -33l102 117q38 45 69 74q31 30 66 52q31 20 68 31q36 11 74 11q46 0 85 -19q42 -20 71 -52q30 -33 48 -76q18 -44 18 -91q0 -55 -18 -101q-18 -47 -51 -81t-78 -54q-44 -19 -99 -19h-266q-76 0 -124 21t-72 66
q-17 -44 -51 -65t-90 -21v160zM635 186v1q51 0 72 9t21 30q0 14 -12 27t-33 24t-48 18q-25 7 -58 7q-85 0 -144 -27q-58 -27 -103 -69l-16 -15l1 -5h24h296z" />
    <glyph glyph-name="uniFEBC" unicode="&#x635;" horiz-adv-x="906" arabic-form="medial" 
d="M0 190v-5q50 0 84 12v22v104h120v-84q0 -21 13 -33l102 117q38 45 69 74q31 30 66 52q31 20 68 31q36 11 74 11q46 0 85 -19q42 -20 71 -52q30 -33 48 -76t18 -91q0 -31 -6 -60q14 -2 42 -4q15 -1 51 -1v-160l-30 -30q-83 0 -147 54q-32 -26 -70 -39q-40 -14 -85 -14
h-266q-76 0 -124 21t-72 66q-17 -44 -51 -65t-90 -21v160zM634 185v1q51 0 72 9t21 30q0 13 -12 27t-33 24t-48 18q-25 7 -58 7q-86 0 -144 -27t-103 -69l-16 -15l1 -5h24h296z" />
    <glyph glyph-name="uniFEBE" unicode="&#x636;" horiz-adv-x="1353" arabic-form="final" 
d="M338 -255l-2 -4q-76 0 -134 21t-99 60q-41 40 -62 96q-21 57 -21 129q0 50 7 95q8 49 21 95h110v-12q-8 -26 -12 -58q-4 -29 -4 -61q0 -74 51 -114q52 -41 144 -41q217 0 217 113q0 36 -12 92q-13 58 -33 134l6 8h121l15 -48q6 -14 9 -20q5 -9 10 -16l96 110q38 45 69 74
q31 30 66 52q31 20 68 31q36 11 74 11q46 0 85 -19q42 -20 71 -52q30 -33 48 -76t18 -91q0 -32 -6 -60q14 -2 42 -4q15 -1 51 -1v-160l-30 -30q-82 0 -147 54q-32 -26 -70 -39q-40 -14 -85 -14h-277q-62 0 -98 30l-3 -2q-14 -135 -92 -209q-79 -74 -212 -74zM1079 186
q51 0 72 9t21 30q0 13 -12 27t-33 24t-48 18q-25 7 -58 7q-85 0 -144 -27t-107 -72l-12 -11l1 -5h17h303zM1007 725l84 -82l-84 -82h-10l-84 82l84 82h10z" />
    <glyph glyph-name="uniFEBF" unicode="&#x636;" horiz-adv-x="838" arabic-form="initial" 
d="M0 190l1 -4q49 0 84 12v22v104h120v-84q0 -21 13 -33l102 117q38 45 69 74q31 30 66 52q31 20 68 31q36 11 74 11q46 0 85 -19q42 -20 71 -52q30 -33 48 -76q18 -44 18 -91q0 -55 -18 -101q-18 -47 -51 -81t-78 -54q-44 -19 -99 -19h-266q-76 0 -124 21t-72 66
q-17 -44 -51 -65t-90 -21v160zM635 186v1q51 0 72 9t21 30q0 14 -12 27t-33 24t-48 18q-25 7 -58 7q-85 0 -144 -27q-58 -27 -103 -69l-16 -15l1 -5h24h296zM563 726l84 -82l-84 -82h-10l-84 82l84 82h10z" />
    <glyph glyph-name="uniFEC0" unicode="&#x636;" horiz-adv-x="906" arabic-form="medial" 
d="M0 190v-5q50 0 84 12v22v104h120v-84q0 -21 13 -33l102 117q38 45 69 74q31 30 66 52q31 20 68 31q36 11 74 11q46 0 85 -19q42 -20 71 -52q30 -33 48 -76t18 -91q0 -31 -6 -60q14 -2 42 -4q15 -1 51 -1v-160l-30 -30q-83 0 -147 54q-32 -26 -70 -39q-40 -14 -85 -14
h-266q-76 0 -124 21t-72 66q-17 -44 -51 -65t-90 -21v160zM634 185v1q51 0 72 9t21 30q0 13 -12 27t-33 24t-48 18q-25 7 -58 7q-86 0 -144 -27t-103 -69l-16 -15l1 -5h24h296zM562 725l84 -82l-84 -82h-10l-84 82l84 82h10z" />
    <glyph glyph-name="uniFEC2" unicode="&#x637;" horiz-adv-x="808" arabic-form="final" 
d="M103 190l25 24v529h140v-377l12 13q56 59 108 86t111 27q46 0 85 -19q42 -20 71 -52q30 -33 48 -76q18 -44 18 -91q0 -32 -6 -60q14 -2 42 -4q15 -1 51 -1v-160l-30 -30q-82 0 -147 54q-32 -26 -70 -39q-40 -14 -85 -14h-456v190h83zM537 188l1 -1q51 0 72 9t21 30
q0 14 -12 27t-33 24t-48 18q-25 7 -58 7q-85 0 -145 -27q-59 -27 -109 -72l-10 -9l1 -6h320z" />
    <glyph glyph-name="uniFEC3" unicode="&#x637;" horiz-adv-x="700" arabic-form="initial" 
d="M459 495v-2q46 0 85 -19q42 -20 71 -52q30 -33 48 -76t18 -91q0 -55 -18 -101t-51 -81t-78 -54q-44 -19 -99 -19h-466v160l30 30h63l24 26v529h140v-377l12 13q54 60 108 87t113 27zM496 188l3 -1q51 0 72 9t21 30q0 14 -12 27t-33 24t-48 18q-25 7 -58 7q-45 0 -79 -7
q-35 -7 -67 -21t-58 -31q-27 -18 -52 -40l-10 -9l1 -6h320z" />
    <glyph glyph-name="uniFEC4" unicode="&#x637;" horiz-adv-x="768" arabic-form="medial" 
d="M674 195l-1 -3q14 -2 42 -4q15 -1 51 -1v-160l-30 -30q-82 0 -147 54q-32 -26 -70 -39q-40 -14 -85 -14h-466v160l30 30h63l24 26v529h140v-377l12 13q54 60 108 87t113 27q46 0 85 -19q42 -20 71 -52q30 -33 48 -76t18 -91q0 -31 -6 -60zM495 187l3 -1q51 0 72 9t21 30
q0 13 -12 27t-33 24t-48 18q-25 7 -58 7q-45 0 -79 -7q-35 -7 -67 -21t-58 -31q-27 -18 -52 -40l-10 -9l1 -6h320z" />
    <glyph glyph-name="uniFEC6" unicode="&#x638;" horiz-adv-x="808" arabic-form="final" 
d="M103 190l25 24v529h140v-377l12 13q56 59 108 86t111 27q46 0 85 -19q42 -20 71 -52q30 -33 48 -76q18 -44 18 -91q0 -32 -6 -60q14 -2 42 -4q15 -1 51 -1v-160l-30 -30q-82 0 -147 54q-32 -26 -70 -39q-40 -14 -85 -14h-456v190h83zM537 188l1 -1q51 0 72 9t21 30
q0 14 -12 27t-33 24t-48 18q-25 7 -58 7q-85 0 -145 -27q-59 -27 -109 -72l-10 -9l1 -6h320zM466 726l84 -82l-84 -82h-10l-84 82l84 82h10z" />
    <glyph glyph-name="uniFEC7" unicode="&#x638;" horiz-adv-x="700" arabic-form="initial" 
d="M459 495v-2q46 0 85 -19q42 -20 71 -52q30 -33 48 -76t18 -91q0 -55 -18 -101t-51 -81t-78 -54q-44 -19 -99 -19h-466v160l30 30h63l24 26v529h140v-377l12 13q54 60 108 87t113 27zM496 188l3 -1q51 0 72 9t21 30q0 14 -12 27t-33 24t-48 18q-25 7 -58 7q-45 0 -79 -7
q-35 -7 -67 -21t-58 -31q-27 -18 -52 -40l-10 -9l1 -6h320zM427 726l84 -82l-84 -82h-10l-84 82l84 82h10z" />
    <glyph glyph-name="uniFEC8" unicode="&#x638;" horiz-adv-x="768" arabic-form="medial" 
d="M674 195l-1 -3q14 -2 42 -4q15 -1 51 -1v-160l-30 -30q-82 0 -147 54q-32 -26 -70 -39q-40 -14 -85 -14h-466v160l30 30h63l24 26v529h140v-377l12 13q54 60 108 87t113 27q46 0 85 -19q42 -20 71 -52q30 -33 48 -76t18 -91q0 -31 -6 -60zM495 187l3 -1q51 0 72 9t21 30
q0 13 -12 27t-33 24t-48 18q-25 7 -58 7q-45 0 -79 -7q-35 -7 -67 -21t-58 -31q-27 -18 -52 -40l-10 -9l1 -6h320zM426 725l84 -82l-84 -82h-10l-84 82l84 82h10z" />
    <glyph glyph-name="uniFECA" unicode="&#x639;" horiz-adv-x="633" arabic-form="final" 
d="M335 -325l4 -5q-73 0 -132 18q-58 18 -99 53q-40 34 -63 83q-22 47 -22 110q0 45 15 84q15 38 41 72q25 33 60 60q36 28 75 47l14 7q-5 5 -15 17t-15 19l-78 100l-37 -11h-12v170q75 25 144 38q75 14 132 14q110 0 161 -39t51 -124q0 -118 -100 -190l-7 -5q39 -6 91 -6
h90v-160l-30 -30h-60q-35 0 -63 6q-27 6 -57 20q-26 12 -58 38q-30 24 -64 61l-66 -29q-53 -22 -84 -53q-30 -30 -30 -63q0 -48 62 -75q61 -27 174 -27q62 0 126 14q62 14 107 36h12v-156q-51 -43 -114 -69q-62 -25 -153 -25zM432 284v-3q31 12 41 24q11 13 11 23
q0 23 -27 32t-98 9q-36 0 -55 -1q-28 -2 -57 -6l-2 -3l66 -74q6 -7 18 -19q3 -3 9 -8.5t8 -7.5z" />
    <glyph glyph-name="uniFECB" unicode="&#x639;" horiz-adv-x="508" arabic-form="initial" 
d="M468 51l-3 -3q-72 -28 -159 -39q-91 -11 -208 -11h-130v160l30 30h43l2 2q-12 34 -12 67q0 48 21 93q21 46 54 80q33 35 77 56q43 21 90 21t85 -13q40 -14 65 -36v-180h-12q-31 19 -72 29q-44 11 -90 11q-61 0 -93 -13q-33 -13 -33 -37q0 -22 30 -42q30 -19 83 -33
q53 3 109 11q51 8 114 24h9v-177z" />
    <glyph glyph-name="uniFECC" unicode="&#x639;" horiz-adv-x="565" arabic-form="medial" 
d="M0 190l102 -1h46l-12 15l-12 15l-53 68l-37 -11h-12v170q75 25 144 38q75 14 132 14q110 0 161 -39t51 -124q0 -79 -57 -147h18h93v-160l-29 -30h-50q-43 0 -76 3q-32 3 -58 9q-25 6 -45 15q-16 8 -37 23q-18 -12 -36 -21t-39 -15t-47 -9q-25 -3 -60 -3h-117v161z
M293 200v-3q43 16 68 27q27 12 42 21q14 9 21 17q6 8 6 17q0 21 -27 30t-98 9q-36 0 -55 -1q-28 -1 -57 -6l-2 -3l84 -93q11 -11 18 -15z" />
    <glyph glyph-name="uniFECE" unicode="&#x63a;" horiz-adv-x="633" arabic-form="final" 
d="M335 -325l4 -5q-73 0 -132 18q-58 18 -99 53q-40 34 -63 83q-22 47 -22 110q0 45 15 84q15 38 41 72q25 33 60 60q36 28 75 47l14 7q-5 5 -15 17t-15 19l-78 100l-37 -11h-12v170q75 25 144 38q75 14 132 14q110 0 161 -39t51 -124q0 -118 -100 -190l-7 -5q39 -6 91 -6
h90v-160l-30 -30h-60q-35 0 -63 6q-27 6 -57 20q-26 12 -58 38q-30 24 -64 61l-66 -29q-53 -22 -84 -53q-30 -30 -30 -63q0 -48 62 -75q61 -27 174 -27q62 0 126 14q62 14 107 36h12v-156q-51 -43 -114 -69q-62 -25 -153 -25zM432 284v-3q31 12 41 24q11 13 11 23
q0 23 -27 32t-98 9q-36 0 -55 -1q-28 -2 -57 -6l-2 -3l66 -74q6 -7 18 -19q3 -3 9 -8.5t8 -7.5zM346 781l84 -82l-84 -82h-10l-84 82l84 82h10z" />
    <glyph glyph-name="uniFECF" unicode="&#x63a;" horiz-adv-x="508" arabic-form="initial" 
d="M468 51l-3 -3q-72 -28 -159 -39q-91 -11 -208 -11h-130v160l30 30h43l2 2q-12 34 -12 67q0 48 21 93q21 46 54 80q33 35 77 56q43 21 90 21t85 -13q40 -14 65 -36v-180h-12q-31 19 -72 29q-44 11 -90 11q-61 0 -93 -13q-33 -13 -33 -37q0 -22 30 -42q30 -19 83 -33
q53 3 109 11q51 8 114 24h9v-177zM267 739l84 -82l-84 -82h-10l-84 82l84 82h10z" />
    <glyph glyph-name="uniFED0" unicode="&#x63a;" horiz-adv-x="565" arabic-form="medial" 
d="M0 190l102 -1h46l-12 15l-12 15l-53 68l-37 -11h-12v170q75 25 144 38q75 14 132 14q110 0 161 -39t51 -124q0 -79 -57 -147h18h93v-160l-29 -30h-50q-43 0 -76 3q-32 3 -58 9q-25 6 -45 15q-16 8 -37 23q-18 -12 -36 -21t-39 -15t-47 -9q-25 -3 -60 -3h-117v161z
M293 200v-3q43 16 68 27q27 12 42 21q14 9 21 17q6 8 6 17q0 21 -27 30t-98 9q-36 0 -55 -1q-28 -1 -57 -6l-2 -3l84 -93q11 -11 18 -15zM292 730l84 -82l-84 -82h-10l-84 82l84 82h10z" />
    <glyph glyph-name="uniFED2" unicode="&#x641;" horiz-adv-x="983" arabic-form="final" 
d="M983 30l-32 -33h-8q-63 0 -114 10q-56 11 -100 28q-63 -24 -133 -35q-74 -12 -159 -12q-119 0 -198 12q-80 12 -128 42t-69 78t-21 119q0 34 7 72q8 44 19 78h110v-12q-7 -27 -12 -51q-4 -21 -4 -45q0 -27 15 -45t50 -29q34 -10 92 -15q51 -4 141 -4h119q-13 29 -13 67
q0 48 17 96q16 47 45 84q28 37 68 60t83 23t77 -19q35 -19 60 -51q25 -31 39 -71t14 -80q0 -57 -26 -107h61v-160zM719 315l-1 -2q-40 0 -64 -11q-22 -10 -22 -30q0 -14 13 -27t36 -24q19 -9 51 -19q26 -8 60 -13q26 6 45 21t19 32q0 15 -11 29t-29 23t-43 15t-54 6z
M753 747l84 -82l-84 -82h-10l-84 82l84 82h10z" />
    <glyph glyph-name="uniFED3" unicode="&#x641;" horiz-adv-x="485" arabic-form="initial" 
d="M0 190l199 1q49 0 82 3q34 3 53 12q20 9 29 24q10 16 11 38l-4 3q-59 -40 -148 -40q-88 0 -135 35q-46 34 -46 108q0 43 17 88q16 43 45 76q29 34 66 53q38 20 80 20q46 0 84 -25q40 -26 68 -69q29 -44 45 -103q17 -62 17 -127q0 -74 -15 -128q-15 -56 -46 -89
q-31 -34 -81 -52q-49 -18 -120 -18h-231v161zM247 367v-1q49 0 98 6q-19 32 -54 51q-34 19 -81 19q-31 0 -55 -15t-24 -35q0 -13 25 -19t91 -6zM243 845l84 -82l-84 -82h-10l-84 82l84 82h10z" />
    <glyph glyph-name="uniFED4" unicode="&#x641;" horiz-adv-x="484" arabic-form="medial" 
d="M484 30l-28 -32h-58q-82 0 -157 28q-75 -28 -162 -28h-108v160l30 30h57q-12 32 -12 67q0 48 17 96q17 47 45 84t68 60t83 23t77 -19t60 -51q25 -31 39 -71t14 -80q0 -55 -23 -107h58v-160zM224 316v-2q-40 0 -64 -11q-22 -10 -22 -30q0 -12 12 -24q11 -11 33 -22
q23 -12 51 -20q25 -7 66 -16q33 10 47 23q14 12 14 29q0 15 -11 29t-29 23t-43 15q-26 6 -54 6zM259 748l84 -82l-84 -82h-10l-84 82l84 82h10z" />
    <glyph glyph-name="uniFED6" unicode="&#x642;" horiz-adv-x="725" arabic-form="final" 
d="M352 -255l-2 -3q-78 0 -140 21t-104 60q-43 40 -65 96t-22 129q0 50 7 95q8 49 21 95h110v-9q-8 -29 -12 -61q-4 -29 -4 -61q0 -165 220 -165q99 0 151 12t72 44h-128q-94 0 -144 46q-51 46 -51 129q0 57 17 111q16 52 45 93q27 39 68 64q39 24 83 24q39 0 75 -21
q35 -20 64 -57q29 -36 48 -87t27 -111h36v-160l-30 -30h-9q-23 -131 -105 -192q-83 -62 -228 -62zM580 187h-1q-20 44 -58 66q-40 23 -93 23q-35 0 -57 -16t-22 -36q0 -10 6 -18q6 -7 20 -12q13 -4 38 -6q16 -1 62 -1h105zM545 532h-10l-69 67l-69 -67h-10l-84 82l84 82h10
l69 -67l69 67h10l84 -82z" />
    <glyph glyph-name="uniFED7" unicode="&#x642;" horiz-adv-x="485" arabic-form="initial" 
d="M0 190l199 1q49 0 82 3q34 3 53 12q20 9 29 24q10 16 11 38l-4 3q-59 -40 -148 -40q-88 0 -135 35q-46 34 -46 108q0 43 17 88q16 43 45 76q29 34 66 53q38 20 80 20q46 0 84 -25q40 -26 68 -69q29 -44 45 -103q17 -62 17 -127q0 -74 -15 -128q-15 -56 -46 -89
q-31 -34 -81 -52q-49 -18 -120 -18h-231v161zM247 367v-1q49 0 98 6q-19 32 -54 51q-34 19 -81 19q-31 0 -55 -15t-24 -35q0 -13 25 -19t91 -6zM317 681h-10l-69 67l-69 -67h-10l-84 82l84 82h10l69 -67l69 67h10l84 -82z" />
    <glyph glyph-name="uniFED8" unicode="&#x642;" horiz-adv-x="484" arabic-form="medial" 
d="M484 30l-28 -32h-58q-82 0 -157 28q-75 -28 -162 -28h-108v160l30 30h57q-12 32 -12 67q0 48 17 96q17 47 45 84t68 60t83 23t77 -19t60 -51q25 -31 39 -71t14 -80q0 -55 -23 -107h58v-160zM224 316v-2q-40 0 -64 -11q-22 -10 -22 -30q0 -12 12 -24q11 -11 33 -22
q23 -12 51 -20q25 -7 66 -16q33 10 47 23q14 12 14 29q0 15 -11 29t-29 23t-43 15q-26 6 -54 6zM333 584h-10l-69 67l-69 -67h-10l-84 82l84 82h10l69 -67l69 67h10l84 -82z" />
    <glyph glyph-name="uniFEDA" unicode="&#x643;" horiz-adv-x="899" arabic-form="final" 
d="M899 30l-29 -30h-1q-73 0 -118 24t-66 80q-83 -65 -172 -90q-88 -25 -186 -25q-80 0 -141 14q-58 13 -96 44q-38 30 -54 78q-17 49 -17 116q0 34 7 72q8 44 19 78h110v-12q-16 -51 -16 -96q0 -49 51 -72q50 -22 168 -22q83 0 158 12q72 12 150 38v30v476h140v-479
q0 -43 20 -60q19 -16 72 -16h1v-160zM521 411l-1 -3q0 -56 -52 -86t-150 -30h-36v80h36q54 0 89 5q32 5 32 15q0 8 -18 12l-36 9q-35 9 -50 26t-15 47q0 64 85 113l76 45h12v-86l-74 -41q-9 -4 -13 -8q-3 -3 -3 -7t3 -7q2 -2 14 -4l36 -9q36 -9 50 -25q15 -16 15 -46z" />
    <glyph glyph-name="uniFEDB" unicode="&#x643;" horiz-adv-x="479" arabic-form="initial" 
d="M189 485l45 -30q44 -31 75 -57t51 -51q20 -27 29 -54q9 -29 9 -66q0 -49 -12 -91t-36 -72q-25 -31 -58 -47q-36 -17 -79 -17h-243v160l30 30h233q40 0 58 5q16 4 16 17q0 11 -15 23q-16 13 -58 36l-213 120v190l446 174h12v-162z" />
    <glyph glyph-name="uniFEDC" unicode="&#x643;" horiz-adv-x="479" arabic-form="medial" 
d="M0 190h52q50 0 75 6q24 6 40 23l-137 172v190l446 174h12v-162l-330 -121l159 -190q13 -15 38 -43q15 -17 33 -28q16 -11 36 -15q22 -5 45 -5h10v-160l-30 -30q-29 0 -53 6t-48 21q-22 14 -51 41q-27 25 -60 66l-4 -1q-33 -134 -180 -134h-83v160z" />
    <glyph glyph-name="uniFEDE" unicode="&#x644;" horiz-adv-x="770" arabic-form="final" 
d="M665 290l-1 -2q0 -29 5 -51q4 -19 17 -30q12 -11 33 -15q19 -4 52 -4v-160l-30 -30q-77 0 -116 43l-2 -1q-13 -142 -90 -220t-204 -78q-73 0 -130 21q-58 21 -96 61q-39 40 -60 99t-21 132q0 50 7 93q7 46 21 93h110v-12q-7 -25 -12 -56q-4 -27 -4 -59q0 -75 51 -117
t144 -42q96 0 141 39t45 132v619h140v-455z" />
    <glyph glyph-name="uniFEDF" unicode="&#x644;" horiz-adv-x="273" arabic-form="initial" 
d="M0 190v1q44 0 64 15q19 15 19 50v489h140v-499q0 -246 -227 -246h-26v160z" />
    <glyph glyph-name="uniFEE0" unicode="&#x644;" horiz-adv-x="319" arabic-form="medial" 
d="M319 30l-29 -29h-1q-67 0 -111 21t-66 67q-31 -88 -141 -88v160l30 30q25 0 47 3q19 3 39 8q-1 7 -1 21v23v499h140v-479q0 -43 20 -60q19 -16 72 -16h1v-160z" />
    <glyph glyph-name="uniFEE2" unicode="&#x645;" horiz-adv-x="736" arabic-form="final" 
d="M616 284l-3 -3q20 -54 47 -74q28 -20 74 -20v-160l-30 -30q-50 0 -84 21t-63 75l-14 -107l-148 20q-54 8 -87 22q-36 16 -56 37q-21 23 -30 54t-9 74q0 14 1 21t3 19l-3 2q-22 -17 -29 -54q-8 -40 -8 -112v-385h-157v375q0 92 16 155q16 64 56 110t105 74q66 28 167 45
l145 24q35 6 48 -27zM491 244v1q-6 13 -15 21q-8 7 -26 7q-74 0 -113 -10q-41 -11 -41 -28q0 -13 18 -21q18 -7 68 -15l135 -18z" />
    <glyph glyph-name="uniFEE3" unicode="&#x645;" horiz-adv-x="507" arabic-form="initial" 
d="M87 50l-3 -6q-23 -29 -49 -39t-68 -10v160l30 30q28 0 44 11q14 10 31 45l25 54q41 88 90 128q50 41 112 41q41 0 75 -15t60 -44t39 -70q14 -44 14 -94q0 -19 -3 -45q-4 -34 -7 -52q-6 -36 -10 -54q-5 -24 -14 -50l-9 -27q-10 -31 -45 -24zM360 180v-1q26 -5 30 6
q3 7 3 15q0 16 -9 29t-24 24q-16 11 -36 17q-21 6 -46 6q-41 0 -68 -13q-29 -14 -44 -39l-4 -7z" />
    <glyph glyph-name="uniFEE4" unicode="&#x645;" horiz-adv-x="605" arabic-form="medial" 
d="M485 284l-3 -1q20 -54 47 -74q28 -20 74 -20v-160l-30 -30q-49 0 -83 23q-33 23 -62 77l-14 -109l-147 20q-56 8 -95 24t-63 45q-14 -41 -46 -60t-93 -19v160l30 30q47 0 74 10q1 97 74 165q72 67 203 96l27 6q34 7 48 -27zM361 246l-1 1q-6 13 -15 21q-8 7 -26 7
q-74 0 -115 -10q-43 -10 -43 -28q0 -13 20 -21q19 -7 71 -15l135 -18z" />
    <glyph glyph-name="uniFEE6" unicode="&#x646;" horiz-adv-x="775" arabic-form="final" 
d="M338 -255l-4 -2q-76 0 -134 21t-99 60q-41 40 -62 96q-21 57 -21 129q0 50 7 95q8 49 21 95h110v-12q-8 -26 -12 -58q-4 -29 -4 -61q0 -73 53 -114t153 -41q207 0 207 113q0 18 -3 42q-3 23 -9 55q-8 40 -16 71q-21 78 -24 89l6 8h121l24 -78q5 -16 14 -30q8 -13 21 -20
q12 -7 35 -10q21 -3 51 -3h1v-160l-30 -30h-1q-62 0 -98 30l-3 -2q-14 -135 -92 -209q-79 -74 -212 -74zM349 330l84 -82l-84 -82h-10l-84 82l84 82h10z" />
    <glyph glyph-name="uniFEE7" unicode="&#x646;" horiz-adv-x="260" arabic-form="initial" 
d="M-10 190l42 -1q43 0 60 13q18 14 18 45q0 55 -27 167l6 8h121q11 -55 15 -97q5 -48 5 -78q0 -124 -47 -186q-46 -61 -150 -61h-63v160zM139 655l84 -82l-84 -82h-10l-84 82l84 82h10z" />
    <glyph glyph-name="uniFEE8" unicode="&#x646;" horiz-adv-x="319" arabic-form="medial" 
d="M0 190v-1q50 0 84 12v24v136h120v-116q0 -17 6 -27q7 -11 19 -17q13 -6 36 -9t54 -3h1v-160l-30 -30h-1q-67 0 -112 20q-43 19 -66 65q-35 -84 -141 -84v160zM150 595l84 -82l-84 -82h-10l-84 82l84 82h10z" />
    <glyph glyph-name="uniFEEA" unicode="&#x647;" horiz-adv-x="555" arabic-form="final" 
d="M524 0l-3 2q-75 0 -121 35q-44 34 -64 98h-4q-19 -52 -58 -76t-93 -24q-36 0 -66 12t-51 33t-33 51t-12 66q0 71 51 128t136 97l118 56v87h137v-291q0 -20 3 -37q3 -16 14 -27q10 -10 29 -15q20 -5 48 -5v-159zM202 224l1 -2q34 0 62 7q31 8 56 21v107l-88 -23
q-53 -14 -80 -31q-29 -18 -29 -42q0 -37 78 -37z" />
    <glyph glyph-name="uniFEEB" unicode="&#x647;" horiz-adv-x="637" arabic-form="initial" 
d="M377 469h-2q67 -23 114 -45q45 -22 75 -50q28 -26 40 -63q12 -36 12 -82q0 -114 -55 -176q-55 -63 -154 -63q-55 0 -108 12q-50 11 -97 35q-41 -17 -82 -27q-40 -10 -83 -10h-68v160l30 30h56q-11 35 -11 67q0 54 22 102q22 49 60 84v97l7 8zM210 318h-2q-37 0 -57 -11
t-20 -30t42 -42q43 -23 116 -38q19 7 27 21t8 27q0 15 -9 29q-10 14 -24 23q-15 9 -36 15t-45 6zM445 181l2 -1q39 0 63 6t24 17q0 6 -6 12t-19 12t-36 15t-57 21l-2 -1q-6 -41 -31 -80q10 -1 30 -1h32z" />
    <glyph glyph-name="uniFEEC" unicode="&#x647;" horiz-adv-x="514" arabic-form="medial" 
d="M276 -245h-2q-107 0 -170 64q-62 64 -73 181h-62v160l30 30h62l155 329q14 27 39 15l24 -11q85 -39 124 -85t39 -109q0 -34 -20 -71q-20 -36 -71 -62v-4h162v-160l-21 -30h-24l-3 -4q8 -15 11 -30q3 -16 3 -34q0 -39 -15 -72t-42 -57q-26 -23 -64 -37q-36 -13 -82 -13z
M167 190l1 -2q35 0 59 4q29 5 47 13q20 9 30 22q11 14 11 33q0 46 -66 70q-15 4 -25 0t-18 -23l-57 -117h18zM279 -72h1q53 0 80 9t27 27q0 22 -35 36q-36 14 -95 14q-29 0 -66 -3t-72 -9q16 -34 59 -54t101 -20z" />
    <glyph glyph-name="uniFEEE" unicode="&#x648;" horiz-adv-x="490" arabic-form="final" 
d="M167 -254l-3 -5q-51 0 -96 22q-46 23 -87 63v111l10 9q45 -12 84 -17q43 -6 84 -6q68 0 113 19q48 20 71 55h-105q-110 0 -161 42t-51 133q0 57 17 111q17 53 45 93q27 39 68 64q39 24 83 24q39 0 75 -21q35 -20 64 -57q28 -36 48 -87t27 -111h36v-160l-30 -30h-14
q-13 -56 -39 -103t-62 -80t-81 -51t-96 -18zM344 185l-1 -1q-20 44 -58 66q-40 23 -93 23q-34 0 -57 -17q-22 -16 -22 -39q0 -9 6 -15q5 -5 20 -10q13 -4 38 -6q16 -1 62 -1h105z" />
    <glyph glyph-name="uniFEF0" unicode="&#x649;" horiz-adv-x="768" arabic-form="final" 
d="M408 -255q-92 0 -164 21q-70 20 -121 62q-49 40 -76 99t-27 134q0 53 7 105q7 56 21 105h110v-9q-8 -32 -12 -66q-4 -31 -4 -66q0 -43 17 -77q16 -32 53 -55q36 -22 95 -33q56 -10 141 -10q31 0 81 2q37 1 66 6q31 5 45 10q17 6 17 14q0 5 -5 10t-18 8q-14 3 -36 6
q-6 1 -25 3.5t-32 4.5l-143 18v182l5 6l142 -18q48 -6 71 -8q49 -4 64 -5q32 -2 53 -3q15 -1 35 -1v-160l-20 -20h-2q2 -6 2 -12q0 -121 -90 -187t-250 -66z" />
    <glyph glyph-name="uniFEF2" unicode="&#x64a;" horiz-adv-x="768" arabic-form="final" 
d="M408 -255q-92 0 -164 21q-70 20 -121 62q-49 40 -76 99t-27 134q0 53 7 105q7 56 21 105h110v-9q-8 -32 -12 -66q-4 -31 -4 -66q0 -43 17 -77q16 -32 53 -55q36 -22 95 -33q56 -10 141 -10q31 0 81 2q37 1 66 6q31 5 45 10q17 6 17 14q0 5 -5 10t-18 8q-14 3 -36 6
q-6 1 -25 3.5t-32 4.5l-143 18v182l5 6l142 -18q48 -6 71 -8q49 -4 64 -5q32 -2 53 -3q15 -1 35 -1v-160l-20 -20h-2q2 -6 2 -12q0 -121 -90 -187t-250 -66zM487 -486h-10l-69 67l-69 -67h-10l-84 82l84 82h10l69 -67l69 67h10l84 -82z" />
    <glyph glyph-name="uniFEF3" unicode="&#x64a;" horiz-adv-x="260" arabic-form="initial" 
d="M-10 190l42 -1q43 0 60 13q18 14 18 45q0 55 -27 167l6 8h121q11 -55 15 -97q5 -48 5 -78q0 -124 -47 -186q-46 -61 -150 -61h-63v160zM187 -232h-10l-69 67l-69 -67h-10l-84 82l84 82h10l69 -67l69 67h10l84 -82z" />
    <glyph glyph-name="uniFEF4" unicode="&#x64a;" horiz-adv-x="319" arabic-form="medial" 
d="M0 190v-1q50 0 84 12v24v136h120v-116q0 -17 6 -27q7 -11 19 -17q13 -6 36 -9t54 -3h1v-160l-30 -30h-1q-67 0 -112 20q-43 19 -66 65q-35 -84 -141 -84v160zM221 -232h-10l-69 67l-69 -67h-10l-84 82l84 82h10l69 -67l69 67h10l84 -82z" />
    <glyph glyph-name=".notdef" horiz-adv-x="300" 
d="M100 718h100v-920h-100v920z" />
    <glyph glyph-name=".null" horiz-adv-x="0" 
 />
    <glyph glyph-name=".null" horiz-adv-x="0" 
 />
    <glyph glyph-name="uni000D" unicode="&#xd;" horiz-adv-x="228" 
 />
    <glyph glyph-name="space" unicode=" " horiz-adv-x="228" 
 />
    <glyph glyph-name="exclam" unicode="!" horiz-adv-x="318" 
d="M58 81q0 49 27 71q28 23 74 23t74 -23q27 -22 27 -71t-27 -71q-28 -23 -74 -23t-74 23q-27 22 -27 71zM118 228l-4 -1q-6 21 -18 61t-20 74q-9 38 -15 83q-6 43 -6 90v117q0 28 29 28h146q29 0 29 -28v-117q0 -47 -6 -90q-6 -45 -15 -83q-7 -30 -20 -73q-12 -40 -18 -61
h-82z" />
    <glyph glyph-name="quotedbl" unicode="&#x22;" horiz-adv-x="428" 
d="M89 396v-1q-18 89 -34 176q-12 67 -12 99q0 34 17 57t54 23q38 0 54 -22q17 -23 17 -57q0 -31 -12 -99q-16 -87 -34 -176h-50zM289 395v-1q-18 89 -34 176q-12 68 -12 99q0 34 17 57t54 23q38 0 54 -22q17 -23 17 -57q0 -32 -12 -99q-16 -87 -34 -176h-50z" />
    <glyph glyph-name="numbersign" unicode="#" horiz-adv-x="616" 
d="M54 485h124l35 195h90l-35 -195h128l35 195h89l-35 -195h126l-14 -81h-126l-20 -115h125l-14 -81h-125l-36 -208h-89l36 208h-128l-36 -208h-90l36 208h-125l14 81h125l20 115h-124zM234 289h128l20 115h-128z" />
    <glyph glyph-name="dollar" unicode="$" horiz-adv-x="568" 
d="M27 198l85 -3v-26q0 -54 28 -75q31 -20 103 -20q127 0 127 80q0 20 -7 34q-7 15 -24 27q-17 13 -44 23t-66 24q-38 13 -81 32q-35 16 -64 41q-27 24 -42 60t-15 90q0 85 54 134q54 50 163 63v130h82v-125q45 0 87 -6q39 -6 71 -14q16 -5 24 -13q9 -9 9 -25v-142h-87v25
q0 46 -25 67q-27 21 -88 21q-64 0 -91 -18t-27 -53q0 -19 9 -33q9 -13 26 -24q15 -10 37 -19q14 -6 44 -18q62 -24 93 -37q44 -19 71 -43q29 -25 45 -60q16 -33 16 -84q0 -94 -58 -148q-59 -55 -156 -68v-129h-82v123q-11 0 -43 2t-49 4t-49 6q-25 3 -44 9q-15 5 -23 13
q-9 9 -9 26v149z" />
    <glyph glyph-name="percent" unicode="%" horiz-adv-x="903" 
d="M218 400h1q13 0 23 5q9 4 15 17q6 12 9 33t3 53q0 64 -12 88t-40 24q-25 0 -37 -24t-12 -88q0 -32 3 -53t9 -33q6 -13 15 -17q10 -5 23 -5zM219 334l-1 1q-92 0 -139 46q-48 47 -48 129q0 87 48 132t140 45q91 0 140 -45q50 -45 50 -130q0 -86 -51 -132q-50 -46 -139 -46
zM592 681h96l-377 -680h-97zM683 60h1q13 0 23 5q9 4 15 17q6 12 9 33t3 53q0 64 -12 88t-40 24q-25 0 -37 -24t-12 -88q0 -32 3 -53t9 -33q6 -13 15 -17q10 -5 23 -5zM684 -6l-1 1q-92 0 -139 46q-48 47 -48 129q0 87 48 132t140 45q90 0 140 -45t50 -130q0 -86 -51 -132
q-50 -46 -139 -46z" />
    <glyph glyph-name="ampersand" unicode="&#x26;" horiz-adv-x="813" 
d="M633 0v-2q-31 0 -63 9q-30 9 -60 29q-45 -23 -96 -35q-52 -12 -119 -12q-65 0 -117 12q-54 12 -90 34q-38 23 -57 57q-20 35 -20 79q0 36 13 63q14 28 36 51q23 23 52 39q30 16 63 27l-7 7q-39 39 -56 73q-18 36 -18 87q0 38 18 69t53 54q36 23 87 35q52 12 123 12
q47 0 92 -6q40 -5 73 -14q16 -5 24 -13q9 -9 9 -25v-130h-87v17q0 43 -22 64q-23 20 -72 20q-44 0 -69 -18t-25 -52q0 -22 17 -45q17 -22 45 -51l225 -215q28 50 28 104q0 28 -28 28h-38v78h237v-78h-37q-19 0 -27 -9q-8 -10 -11 -25q-8 -40 -22 -78q-16 -42 -40 -78l17 -16
q16 -16 31 -28q16 -13 29 -20q11 -6 30 -13q15 -5 37 -7v-78h-158zM356 73l-2 -2q48 0 93 19l-210 200q-14 -18 -21 -43q-7 -24 -7 -52q0 -59 42 -90q43 -32 105 -32z" />
    <glyph glyph-name="quotesingle" unicode="'" horiz-adv-x="228" 
d="M89 396v-1q-18 89 -34 176q-12 67 -12 99q0 34 17 57t54 23q38 0 54 -22q17 -23 17 -57q0 -31 -12 -99q-16 -87 -34 -176h-50z" />
    <glyph glyph-name="parenleft" unicode="(" horiz-adv-x="433" 
d="M365 -217l-1 -4q-63 31 -120 80q-55 48 -97 109q-42 62 -66 136q-24 75 -24 162t24 162q24 74 66 136q42 61 97 109q57 49 120 80l38 -61q-92 -59 -144 -163t-52 -261q0 -155 53 -261q52 -104 144 -163z" />
    <glyph glyph-name="parenright" unicode=")" horiz-adv-x="433" 
d="M30 -156h-1q91 58 144 164t53 261q0 157 -52 261q-53 106 -144 164l38 61q66 -32 120 -79q56 -49 96 -109q42 -63 65 -136q24 -75 24 -162t-24 -162q-23 -73 -65 -136q-40 -60 -96 -109q-54 -47 -120 -79z" />
    <glyph glyph-name="asterisk" unicode="*" horiz-adv-x="492" 
d="M183 601l-3 -1l-6 21q-1 5 -1 15q0 30 21 43q20 13 49 13q27 0 47 -13q21 -13 21 -43q0 -10 -1 -15l-6 -21l-40 -101l84 69q21 15 31 18q11 3 21 3q13 0 24 -8q10 -7 18 -20q8 -12 12 -27q5 -17 5 -28q0 -24 -18 -42t-56 -15l-107 9l92 -58q21 -14 29 -28q9 -15 9 -28
q0 -14 -7 -27q-8 -14 -19 -24t-27 -16q-15 -6 -28 -6q-17 0 -33 12t-24 44l-26 104l-26 -106q-8 -29 -22 -42t-33 -13q-13 0 -28 6q-16 6 -27 16q-13 11 -20 24q-8 14 -8 27q0 14 7 27q8 14 33 29l91 57l-112 -8q-34 -2 -52 16t-18 43q0 15 4 28q5 15 12 27q7 11 18 19t26 8
q12 0 24 -3q10 -3 28 -17l83 -69z" />
    <glyph glyph-name="plus" unicode="+" horiz-adv-x="533" 
d="M35 309h183v192h97v-192h183v-97h-183v-193h-97v193h-183v97z" />
    <glyph glyph-name="comma" unicode="," horiz-adv-x="309" 
d="M46 -126l3 -4q18 6 35 18q18 12 33 27t24 33t9 38h-1q-47 0 -75 27t-28 75q0 51 29 77t80 26q53 0 82 -32q28 -31 28 -86q0 -59 -18 -101t-45 -72q-25 -28 -59 -49q-28 -18 -62 -31z" />
    <glyph glyph-name="hyphen" unicode="-" horiz-adv-x="414" 
d="M36 345h342v-120h-342v120z" />
    <glyph glyph-name="period" unicode="." horiz-adv-x="309" 
d="M154 -13v-2q-52 0 -80 25q-29 26 -29 76q0 51 29 77t80 26q52 0 81 -25q30 -26 30 -76q0 -51 -30 -76q-29 -25 -81 -25z" />
    <glyph glyph-name="slash" unicode="/" horiz-adv-x="403" 
d="M288 745h107l-328 -950h-107z" />
    <glyph glyph-name="zero" unicode="0" horiz-adv-x="616" 
d="M22 240l2 -5q0 64 21 112q22 49 58 80q37 31 90 48q51 16 117 16q65 0 116 -16q52 -17 90 -48q38 -32 59 -78q21 -47 21 -108q0 -62 -22 -109q-22 -48 -61 -79q-39 -32 -91 -48q-51 -16 -114 -16t-117 17q-53 16 -90 48q-37 31 -58 78q-21 46 -21 108zM310 69v-3
q21 0 39 8q17 8 27 27t15 51q5 35 5 81q0 45 -5 82q-5 34 -15 53q-11 20 -27 29q-17 9 -39 9t-39 -9t-27 -28q-11 -20 -15 -52q-5 -37 -5 -82q0 -46 5 -81q5 -32 15 -51t27 -27q15 -7 39 -7z" />
    <glyph glyph-name="one" unicode="1" horiz-adv-x="455" 
d="M45 78l77 -1q29 0 29 28v242q0 28 -29 28q-18 0 -39 -3q-24 -3 -37 -7v78q6 1 74 16q22 5 83 16q68 12 70 13q30 6 37 6q30 0 30 -29v-359q0 -28 29 -28h71v-78h-395v78z" />
    <glyph glyph-name="two" unicode="2" horiz-adv-x="533" 
d="M41 93l-1 -1q40 23 85 54q40 27 75 59q33 30 54 60t21 59q0 28 -21 45q-20 16 -64 16q-40 0 -69 -6q-30 -6 -48 -16h-12v102q27 12 75 21t110 9q120 0 172 -36t52 -105q0 -38 -18 -69q-18 -32 -50 -59t-75 -51q-45 -25 -91 -45h273v-130h-468v93z" />
    <glyph glyph-name="three" unicode="3" horiz-adv-x="506" 
d="M25 -102l8 2q12 -3 38 -7q19 -3 48 -3q69 0 111 27t42 84q0 52 -37 79t-106 27h-22v100h14q56 0 94 26q37 25 37 72q0 83 -110 83q-34 0 -60 -6q-27 -6 -45 -16h-12v101q27 12 71 21q43 9 107 9q127 0 186 -42t59 -115q0 -38 -15 -66t-39 -48q-23 -19 -52 -31
q-28 -12 -56 -18v-4q37 -3 68 -16q35 -14 59 -34q26 -21 41 -50t15 -65q0 -51 -23 -94q-22 -42 -64 -70q-41 -28 -100 -43q-58 -15 -129 -15q-39 0 -73 3q-38 3 -55 7v102z" />
    <glyph glyph-name="four" unicode="4" horiz-adv-x="623" 
d="M25 105l318 380h159v-361h111v-124h-111v-207h-183v207h-294v105zM319 124v205l-171 -205h171z" />
    <glyph glyph-name="five" unicode="5" horiz-adv-x="511" 
d="M149 355l-1 -103h26q142 0 219 -59t77 -168q0 -55 -24 -100t-67 -76t-102 -48q-60 -17 -129 -17q-28 0 -60 3t-48 6v102h12q8 -1 18 -3q7 -1 23 -3t23 -2h18q70 0 105 28q36 29 36 84q0 54 -38 80t-107 26q-30 0 -46 -1q-23 -1 -31 -3v384h290q28 0 28 29v22h84v-152
q0 -29 -28 -29h-278z" />
    <glyph glyph-name="six" unicode="6" horiz-adv-x="601" 
d="M284 411l-1 -1q16 5 33 8q20 3 37 3q101 0 156 -49q56 -50 56 -156q0 -53 -18 -95q-18 -43 -52 -72q-35 -30 -84 -45t-111 -15q-58 0 -108 18q-49 18 -84 56q-34 37 -54 98q-20 62 -20 143q0 88 24 158t71 122q47 51 114 78t153 27q30 0 54 -3q28 -4 41 -7v-102h-12
q-11 4 -34 7q-21 3 -40 3q-45 0 -78 -15t-54 -50q-20 -33 -31 -89q-10 -51 -10 -132q0 -78 4 -118q5 -47 13 -69q9 -24 23 -33t33 -9q35 0 48 31q14 33 14 102q0 74 -19 103q-20 30 -60 30h-4v73z" />
    <glyph glyph-name="seven" unicode="7" horiz-adv-x="514" 
d="M152 350v-1q-28 0 -40 -13q-12 -14 -12 -39v-27h-84v187q0 28 28 28h454v-87l-303 -657l-141 56l310 553h-212z" />
    <glyph glyph-name="eight" unicode="8" horiz-adv-x="579" 
d="M30 152v-7q0 33 12 60q12 26 32 48q20 21 45 36q23 13 51 25l-4 3q-25 15 -45 31q-23 19 -39 40q-16 22 -27 50q-10 26 -10 57q0 90 64 141q65 51 192 51q119 0 174 -39q56 -39 56 -108q0 -31 -13 -54q-15 -26 -34 -44q-20 -19 -47 -33q-28 -15 -51 -23l16 -8
q75 -43 110 -85q36 -43 36 -100q0 -91 -69 -147q-70 -56 -207 -56q-57 0 -102 12q-44 12 -76 33t-48 51q-16 29 -16 66zM242 273l2 -1q-21 -20 -36 -48t-15 -66q0 -44 24 -70q24 -25 65 -25q34 0 58 21t24 60q0 37 -27 64q-27 26 -82 58zM229 531l-3 1q0 -18 8 -36
q7 -15 20 -30q10 -11 29 -25q17 -12 33 -21l3 -2q23 20 38 47t15 65q0 34 -20 54t-51 20t-51 -19q-21 -19 -21 -54z" />
    <glyph glyph-name="nine" unicode="9" horiz-adv-x="601" 
d="M317 74l-5 -3q-16 -5 -33 -8q-19 -3 -37 -3q-101 0 -156 49t-55 156q0 53 18 95q18 41 53 72q34 30 84 45t111 15q59 0 108 -18t84 -56t54 -97q20 -62 20 -142q0 -87 -24 -158q-24 -70 -71 -122q-46 -51 -114 -78t-153 -27q-30 0 -54 3q-28 4 -41 7v102h12q11 -4 34 -7
q21 -3 41 -3q45 0 78 15t54 50q22 35 32 89q10 51 10 132q0 78 -4 118q-5 46 -13 70q-9 25 -22 34q-14 9 -33 9q-35 0 -48 -31q-14 -33 -14 -102q0 -72 20 -103q19 -30 60 -30h4v-73z" />
    <glyph glyph-name="colon" unicode=":" horiz-adv-x="319" 
d="M159 -13v-2q-52 0 -80 25q-29 26 -29 76q0 51 29 77t80 26q52 0 81 -25q30 -26 30 -76q0 -51 -30 -76q-29 -25 -81 -25zM159 287v-2q-52 0 -80 25q-29 26 -29 76q0 51 29 77t80 26q52 0 81 -25q30 -26 30 -76t-30 -76q-29 -25 -81 -25z" />
    <glyph glyph-name="semicolon" unicode=";" horiz-adv-x="319" 
d="M159 289v-2q-52 0 -80 25q-29 26 -29 76q0 51 29 77t80 26q52 0 81 -25q30 -26 30 -76t-30 -76q-29 -25 -81 -25zM51 -128l3 -4q18 6 35 18q18 12 33 27t24 33t9 38h-1q-46 0 -75 27q-28 27 -28 75q0 51 29 77t80 26q53 0 82 -32q28 -31 28 -86q0 -59 -18 -101t-45 -72
q-25 -28 -59 -49q-28 -18 -62 -31z" />
    <glyph glyph-name="less" unicode="&#x3c;" horiz-adv-x="463" 
d="M40 267l309 202l54 -80l-231 -149l231 -149l-54 -80l-309 202v54z" />
    <glyph glyph-name="equal" unicode="=" horiz-adv-x="513" 
d="M45 213h423v-97h-423v97zM45 405h423v-97h-423v97z" />
    <glyph glyph-name="greater" unicode="&#x3e;" horiz-adv-x="463" 
d="M60 91l231 149l-231 149l54 80l309 -202v-54l-309 -202z" />
    <glyph glyph-name="question" unicode="?" horiz-adv-x="460" 
d="M130 235l-3 -1q-4 12 -9 32t-5 41q0 31 9 54q9 22 23 38q14 15 29 26q4 3 13 9t13 9q18 14 32 29q14 16 14 41q0 29 -21 45q-20 16 -70 16q-20 0 -31 -1q-20 -2 -31 -4q-20 -4 -29 -7q-15 -5 -23 -9h-13v107q32 14 72 21q43 8 98 8q123 0 183 -39t60 -123q0 -38 -12 -65
q-12 -26 -33 -46q-23 -21 -49 -35q-32 -17 -61 -30q-35 -17 -50 -35t-15 -43q0 -15 4 -26v-12h-95zM73 80q0 48 27 71q28 23 74 23t74 -23q27 -23 27 -71q0 -49 -27 -71q-28 -23 -74 -23t-74 23q-27 23 -27 71z" />
    </font>
</defs>
</svg>
