<?xml version="1.0" standalone="no"?>
<!DOCTYPE svg PUBLIC "-//W3C//DTD SVG 1.1//EN" "http://www.w3.org/Graphics/SVG/1.1/DTD/svg11.dtd" >
<svg xmlns="http://www.w3.org/2000/svg" xmlns:xlink="http://www.w3.org/1999/xlink" version="1.1">
<metadata>
Created by FontForge 20190801 at Tue Feb 19 18:54:03 2019
 By root
Copyright (c) 2018 Bold Monday. All rights reserved. Brando Arabic is a trademark of Bold Monday. Unauthorised copying or modification of any of its data is illegal.
</metadata>
<defs>
<font id="BrandoArabicLight" horiz-adv-x="526" >
  <font-face 
    font-family="Brando Arabic Light"
    font-weight="300"
    font-stretch="normal"
    units-per-em="1000"
    panose-1="2 6 4 3 6 0 0 2 0 3"
    ascent="745"
    descent="-255"
    x-height="475"
    cap-height="680"
    bbox="-201 -474 7532 1000"
    underline-thickness="34"
    underline-position="-144"
    unicode-range="U+000D-FEFC"
  />
<missing-glyph horiz-adv-x="281" 
d="M100 718h81v-920h-81v920z" />
    <glyph glyph-name="fi" unicode="fi" horiz-adv-x="568" 
d="M331 34l51 -1q19 0 19 21v364q0 21 -19 21h-213v-385q0 -21 19 -21h66v-34h-214v34h53q19 0 19 21v385h-82v36h63q19 0 19 21v78q0 85 40 131q41 47 114 47q15 0 35 -2q13 -1 26 -5v-47h-6q-9 4 -28 7q-18 3 -41 3q-45 0 -63 -24t-18 -81v-127h270q19 0 19 -21v-400
q0 -21 19 -21h53v-34h-201v34zM387 630v-2q0 41 40 41q20 0 30 -10q11 -11 11 -30t-11 -30q-10 -10 -30 -10q-40 0 -40 41z" />
    <glyph glyph-name="fl" unicode="fl" horiz-adv-x="548" 
d="M42 34h52q19 0 19 21v385h-82v36h63q19 0 19 21v74q0 95 46 138q47 44 133 44q40 0 75 -3q39 -3 58 -7q21 -5 21 -24v-663q0 -21 19 -21h53v-34h-201v34h53q19 0 19 21v614q0 13 -3 22q-3 10 -13 14q-11 5 -28 6q-24 2 -49 2q-68 0 -97 -24q-28 -24 -28 -89v-125h122v-36
h-122v-385q0 -21 19 -21h58v-34h-206v34z" />
    <glyph glyph-name="uniFC03" unicode="&#xfe8b;&#xfef0;" horiz-adv-x="713" arabic-form="isolated" 
d="M376 -147l-3 -2q-169 0 -249 67q-81 68 -81 210q0 40 6 79q5 33 14 74h36v-6q-8 -38 -11 -71q-3 -36 -3 -69q0 -113 72 -165q73 -53 220 -53q55 0 105 8q46 7 81 21t53 35t18 46q0 17 -9 30q-10 15 -28 23q-19 9 -51 15q-26 5 -80 10l-67 5v57l4 4l71 -6q69 -5 101 24
t32 92q0 24 -5 69q-4 40 -15 90l3 4h44q7 -45 12 -86q4 -35 4 -71q0 -112 -66 -148v-2q90 -29 90 -105q0 -41 -21 -74t-60 -57t-94 -36t-123 -12zM542 553v2q-8 11 -12 24q-4 12 -4 24q0 19 7 33t20 27q11 11 29 19q15 7 36 7q54 0 54 -54v-21h-29v9q0 29 -31 29
q-22 0 -39 -14t-17 -33q0 -13 8 -27q7 -13 21 -25h104v-37h-184v37h37z" />
    <glyph glyph-name="uniFC04" unicode="&#xfe8b;&#xfef2;" horiz-adv-x="713" arabic-form="isolated" 
d="M376 -147l-3 -2q-169 0 -249 67q-81 68 -81 210q0 40 6 79q5 33 14 74h36v-6q-8 -38 -11 -71q-3 -36 -3 -69q0 -113 72 -165q73 -53 220 -53q55 0 105 8q46 7 81 21t53 35t18 46q0 17 -9 30q-10 15 -28 23q-19 9 -51 15q-26 5 -80 10l-67 5v57l4 4l71 -6q69 -5 101 24
t32 92q0 24 -5 69q-4 40 -15 90l3 4h44q7 -45 12 -86q4 -35 4 -71q0 -112 -66 -148v-2q90 -29 90 -105q0 -41 -21 -74t-60 -57t-94 -36t-123 -12zM542 553v2q-8 11 -12 24q-4 12 -4 24q0 19 7 33t20 27q11 11 29 19q15 7 36 7q54 0 54 -54v-21h-29v9q0 29 -31 29
q-22 0 -39 -14t-17 -33q0 -13 8 -27q7 -13 21 -25h104v-37h-184v37h37zM332 -241l43 -43l-43 -42h-7l-43 42l43 43h7zM431 -241l43 -43l-43 -42h-7l-43 42l43 43h7z" />
    <glyph glyph-name="uniFC09" unicode="&#xfe91;&#xfef0;" horiz-adv-x="713" arabic-form="isolated" 
d="M376 -147l-3 -2q-169 0 -249 67q-81 68 -81 210q0 40 6 79q5 33 14 74h36v-6q-8 -38 -11 -71q-3 -36 -3 -69q0 -113 72 -165q73 -53 220 -53q55 0 105 8q46 7 81 21t53 35t18 46q0 17 -9 30q-10 15 -28 23q-19 9 -51 15q-26 5 -80 10l-67 5v57l4 4l71 -6q69 -5 101 24
t32 92q0 24 -5 69q-4 40 -15 90l3 4h44q7 -45 12 -86q4 -35 4 -71q0 -112 -66 -148v-2q90 -29 90 -105q0 -41 -21 -74t-60 -57t-94 -36t-123 -12zM611 -213l43 -43l-43 -42h-7l-43 42l43 43h7z" />
    <glyph glyph-name="uniFC0A" unicode="&#xfe91;&#xfef2;" horiz-adv-x="713" arabic-form="isolated" 
d="M376 -147l-3 -2q-169 0 -249 67q-81 68 -81 210q0 40 6 79q5 33 14 74h36v-6q-8 -38 -11 -71q-3 -36 -3 -69q0 -113 72 -165q73 -53 220 -53q55 0 105 8q46 7 81 21t53 35t18 46q0 17 -9 30q-10 15 -28 23q-19 9 -51 15q-26 5 -80 10l-67 5v57l4 4l71 -6q69 -5 101 24
t32 92q0 24 -5 69q-4 40 -15 90l3 4h44q7 -45 12 -86q4 -35 4 -71q0 -112 -66 -148v-2q90 -29 90 -105q0 -41 -21 -74t-60 -57t-94 -36t-123 -12zM611 -213l43 -43l-43 -42h-7l-43 42l43 43h7zM332 -243l43 -43l-43 -42h-7l-43 42l43 43h7zM431 -243l43 -43l-43 -42h-7
l-43 42l43 43h7z" />
    <glyph glyph-name="uniFC0F" unicode="&#xfe97;&#xfef0;" horiz-adv-x="713" arabic-form="isolated" 
d="M376 -147l-3 -2q-169 0 -249 67q-81 68 -81 210q0 40 6 79q5 33 14 74h36v-6q-8 -38 -11 -71q-3 -36 -3 -69q0 -113 72 -165q73 -53 220 -53q55 0 105 8q46 7 81 21t53 35t18 46q0 17 -9 30q-10 15 -28 23q-19 9 -51 15q-26 5 -80 10l-67 5v57l4 4l71 -6q69 -5 101 24
t32 92q0 24 -5 69q-4 40 -15 90l3 4h44q7 -45 12 -86q4 -35 4 -71q0 -112 -66 -148v-2q90 -29 90 -105q0 -41 -21 -74t-60 -57t-94 -36t-123 -12zM551 637l43 -43l-43 -42h-7l-43 42l43 43h7zM650 637l43 -43l-43 -42h-7l-43 42l43 43h7z" />
    <glyph glyph-name="uniFC10" unicode="&#xfe97;&#xfef2;" horiz-adv-x="713" arabic-form="isolated" 
d="M376 -147l-3 -2q-169 0 -249 67q-81 68 -81 210q0 40 6 79q5 33 14 74h36v-6q-8 -38 -11 -71q-3 -36 -3 -69q0 -113 72 -165q73 -53 220 -53q55 0 105 8q46 7 81 21t53 35t18 46q0 17 -9 30q-10 15 -28 23q-19 9 -51 15q-26 5 -80 10l-67 5v57l4 4l71 -6q69 -5 101 24
t32 92q0 24 -5 69q-4 40 -15 90l3 4h44q7 -45 12 -86q4 -35 4 -71q0 -112 -66 -148v-2q90 -29 90 -105q0 -41 -21 -74t-60 -57t-94 -36t-123 -12zM551 637l43 -43l-43 -42h-7l-43 42l43 43h7zM650 637l43 -43l-43 -42h-7l-43 42l43 43h7zM332 -243l43 -43l-43 -42h-7l-43 42
l43 43h7zM431 -243l43 -43l-43 -42h-7l-43 42l43 43h7z" />
    <glyph glyph-name="uniFC13" unicode="&#xfe9b;&#xfef0;" horiz-adv-x="713" arabic-form="isolated" 
d="M376 -147l-3 -2q-169 0 -249 67q-81 68 -81 210q0 40 6 79q5 33 14 74h36v-6q-8 -38 -11 -71q-3 -36 -3 -69q0 -113 72 -165q73 -53 220 -53q55 0 105 8q46 7 81 21t53 35t18 46q0 17 -9 30q-10 15 -28 23q-19 9 -51 15q-26 5 -80 10l-67 5v57l4 4l71 -6q69 -5 101 24
t32 92q0 24 -5 69q-4 40 -15 90l3 4h44q7 -45 12 -86q4 -35 4 -71q0 -112 -66 -148v-2q90 -29 90 -105q0 -41 -21 -74t-60 -57t-94 -36t-123 -12zM601 732l41 -41l-41 -41h-7l-42 41l42 41h7zM551 637l43 -43l-43 -42h-7l-43 42l43 43h7zM650 637l43 -43l-43 -42h-7l-43 42
l43 43h7z" />
    <glyph glyph-name="uniFC14" unicode="&#xfe9b;&#xfef2;" horiz-adv-x="713" arabic-form="isolated" 
d="M376 -147l-3 -2q-169 0 -249 67q-81 68 -81 210q0 40 6 79q5 33 14 74h36v-6q-8 -38 -11 -71q-3 -36 -3 -69q0 -113 72 -165q73 -53 220 -53q55 0 105 8q46 7 81 21t53 35t18 46q0 17 -9 30q-10 15 -28 23q-19 9 -51 15q-26 5 -80 10l-67 5v57l4 4l71 -6q69 -5 101 24
t32 92q0 24 -5 69q-4 40 -15 90l3 4h44q7 -45 12 -86q4 -35 4 -71q0 -112 -66 -148v-2q90 -29 90 -105q0 -41 -21 -74t-60 -57t-94 -36t-123 -12zM601 732l41 -41l-41 -41h-7l-42 41l42 41h7zM551 637l43 -43l-43 -42h-7l-43 42l43 43h7zM650 637l43 -43l-43 -42h-7l-43 42
l43 43h7zM332 -243l43 -43l-43 -42h-7l-43 42l43 43h7zM431 -243l43 -43l-43 -42h-7l-43 42l43 43h7z" />
    <glyph glyph-name="uniFC31" unicode="&#xfed3;&#xfef0;" horiz-adv-x="721" arabic-form="isolated" 
d="M580 62l-6 -2q48 -14 71 -41q23 -28 23 -65q0 -39 -21 -72q-20 -32 -60 -55q-41 -23 -94 -35q-55 -12 -123 -12q-169 0 -249 67q-81 67 -81 210q0 40 6 79q5 33 14 74h36v-6q-8 -38 -11 -71q-3 -36 -3 -69q0 -112 72 -165q73 -53 220 -53q55 0 105 8q47 8 81 21
q35 14 53 35t18 46q0 16 -9 30q-10 15 -28 23q-20 9 -51 15q-26 5 -80 10l-67 5v57l4 4l76 -6q78 -8 111 21q34 29 38 99l-2 1q-57 -33 -132 -33q-74 0 -115 37q-42 37 -42 108q0 41 13 79q13 39 36 69q23 31 52 48q30 18 64 18q37 0 69 -21t54 -60q22 -38 34 -94t12 -123
q0 -75 -21 -119t-67 -60v-2zM494 239l-1 1q35 0 66 6q29 6 63 20q-3 47 -15 86q-12 40 -30 68t-42 45q-25 17 -51 17q-25 0 -45 -13q-22 -14 -36 -34q-15 -21 -24 -48t-9 -54q0 -46 33 -70t91 -24zM487 737l43 -43l-43 -42h-7l-43 42l43 43h7z" />
    <glyph glyph-name="uniFC32" unicode="&#xfed3;&#xfef2;" horiz-adv-x="721" arabic-form="isolated" 
d="M580 62l-6 -2q48 -14 71 -41q23 -28 23 -65q0 -39 -21 -72q-20 -32 -60 -55q-41 -23 -94 -35q-55 -12 -123 -12q-169 0 -249 67q-81 67 -81 210q0 40 6 79q5 33 14 74h36v-6q-8 -38 -11 -71q-3 -36 -3 -69q0 -112 72 -165q73 -53 220 -53q55 0 105 8q47 8 81 21
q35 14 53 35t18 46q0 16 -9 30q-10 15 -28 23q-20 9 -51 15q-26 5 -80 10l-67 5v57l4 4l76 -6q78 -8 111 21q34 29 38 99l-2 1q-57 -33 -132 -33q-74 0 -115 37q-42 37 -42 108q0 41 13 79q13 39 36 69q23 31 52 48q30 18 64 18q37 0 69 -21t54 -60q22 -38 34 -94t12 -123
q0 -75 -21 -119t-67 -60v-2zM494 239l-1 1q35 0 66 6q29 6 63 20q-3 47 -15 86q-12 40 -30 68t-42 45q-25 17 -51 17q-25 0 -45 -13q-22 -14 -36 -34q-15 -21 -24 -48t-9 -54q0 -46 33 -70t91 -24zM487 737l43 -43l-43 -42h-7l-43 42l43 43h7zM328 -314l43 -43l-43 -42h-7
l-43 42l43 43h7zM427 -314l43 -43l-43 -42h-7l-43 42l43 43h7z" />
    <glyph glyph-name="uniFC35" unicode="&#xfed7;&#xfef0;" horiz-adv-x="721" arabic-form="isolated" 
d="M580 62l-6 -2q48 -14 71 -41q23 -28 23 -65q0 -39 -21 -72q-20 -32 -60 -55q-41 -23 -94 -35q-55 -12 -123 -12q-169 0 -249 67q-81 67 -81 210q0 40 6 79q5 33 14 74h36v-6q-8 -38 -11 -71q-3 -36 -3 -69q0 -112 72 -165q73 -53 220 -53q55 0 105 8q47 8 81 21
q35 14 53 35t18 46q0 16 -9 30q-10 15 -28 23q-20 9 -51 15q-26 5 -80 10l-67 5v57l4 4l76 -6q78 -8 111 21q34 29 38 99l-2 1q-57 -33 -132 -33q-74 0 -115 37q-42 37 -42 108q0 41 13 79q13 39 36 69q23 31 52 48q30 18 64 18q37 0 69 -21t54 -60q22 -38 34 -94t12 -123
q0 -75 -21 -119t-67 -60v-2zM494 239l-1 1q35 0 66 6q29 6 63 20q-3 47 -15 86q-12 40 -30 68t-42 45q-25 17 -51 17q-25 0 -45 -13q-22 -14 -36 -34q-15 -21 -24 -48t-9 -54q0 -46 33 -70t91 -24zM438 737l43 -43l-43 -42h-7l-43 42l43 43h7zM537 737l43 -43l-43 -42h-7
l-43 42l43 43h7z" />
    <glyph glyph-name="uniFC36" unicode="&#xfed7;&#xfef2;" horiz-adv-x="721" arabic-form="isolated" 
d="M580 62l-6 -2q48 -14 71 -41q23 -28 23 -65q0 -39 -21 -72q-20 -32 -60 -55q-41 -23 -94 -35q-55 -12 -123 -12q-169 0 -249 67q-81 67 -81 210q0 40 6 79q5 33 14 74h36v-6q-8 -38 -11 -71q-3 -36 -3 -69q0 -112 72 -165q73 -53 220 -53q55 0 105 8q47 8 81 21
q35 14 53 35t18 46q0 16 -9 30q-10 15 -28 23q-20 9 -51 15q-26 5 -80 10l-67 5v57l4 4l76 -6q78 -8 111 21q34 29 38 99l-2 1q-57 -33 -132 -33q-74 0 -115 37q-42 37 -42 108q0 41 13 79q13 39 36 69q23 31 52 48q30 18 64 18q37 0 69 -21t54 -60q22 -38 34 -94t12 -123
q0 -75 -21 -119t-67 -60v-2zM494 239l-1 1q35 0 66 6q29 6 63 20q-3 47 -15 86q-12 40 -30 68t-42 45q-25 17 -51 17q-25 0 -45 -13q-22 -14 -36 -34q-15 -21 -24 -48t-9 -54q0 -46 33 -70t91 -24zM328 -314l43 -43l-43 -42h-7l-43 42l43 43h7zM427 -314l43 -43l-43 -42h-7
l-43 42l43 43h7zM438 737l43 -43l-43 -42h-7l-43 42l43 43h7zM537 737l43 -43l-43 -42h-7l-43 42l43 43h7z" />
    <glyph glyph-name="uniFC3D" unicode="&#xfedb;&#xfef0;" horiz-adv-x="749" arabic-form="isolated" 
d="M376 -234l-3 -6q-169 0 -249 67q-81 67 -81 210q0 40 6 79q5 33 14 74h36v-6q-8 -38 -11 -71q-3 -36 -3 -69q0 -112 72 -165q73 -53 220 -53q55 0 105 8q48 8 81 22q35 15 53 35q18 19 18 45q0 16 -9 30q-10 15 -28 23q-19 9 -51 15q-26 5 -80 10l-67 5v57l4 4l71 -6
q73 -5 108 16q36 21 36 62q0 15 -6 30q-7 18 -16 32q-9 15 -29 36q-24 26 -43 45l-140 139v59l415 252h6v-54l-372 -226l98 -103q35 -35 59 -62t39 -51q14 -22 22 -47q7 -21 7 -46q0 -77 -76 -108v-3q47 -14 69 -40q23 -28 23 -64q0 -40 -21 -73q-20 -32 -60 -55
q-41 -23 -94 -35q-55 -12 -123 -12z" />
    <glyph glyph-name="uniFC3E" unicode="&#xfedb;&#xfef2;" horiz-adv-x="749" arabic-form="isolated" 
d="M376 -234l-3 -6q-169 0 -249 67q-81 67 -81 210q0 40 6 79q5 33 14 74h36v-6q-8 -38 -11 -71q-3 -36 -3 -69q0 -112 72 -165q73 -53 220 -53q55 0 105 8q48 8 81 22q35 15 53 35q18 19 18 45q0 16 -9 30q-10 15 -28 23q-19 9 -51 15q-26 5 -80 10l-67 5v57l4 4l71 -6
q73 -5 108 16q36 21 36 62q0 15 -6 30q-7 18 -16 32q-9 15 -29 36q-24 26 -43 45l-140 139v59l415 252h6v-54l-372 -226l98 -103q35 -35 59 -62t39 -51q14 -22 22 -47q7 -21 7 -46q0 -77 -76 -108v-3q47 -14 69 -40q23 -28 23 -64q0 -40 -21 -73q-20 -32 -60 -55
q-41 -23 -94 -35q-55 -12 -123 -12zM327 -334l43 -43l-43 -42h-7l-43 42l43 43h7zM426 -334l43 -43l-43 -42h-7l-43 42l43 43h7z" />
    <glyph glyph-name="uniFC42" unicode="&#xfedf;&#xfee2;" horiz-adv-x="382" arabic-form="isolated" 
d="M225 196l-5 -2q-7 18 -10 42q-3 22 -3 57v451h47v-451q0 -44 4 -67q4 -26 18 -48q40 -14 84 -39l45 -25l-31 -48l-44 25q-40 21 -76 33q-38 12 -76 12q-56 0 -78 -22q-23 -23 -23 -73v-357h-44v357q0 81 35 119t111 38q28 0 45 -4z" />
    <glyph glyph-name="uniFC43" unicode="&#xfedf;&#xfef0;" horiz-adv-x="758" arabic-form="isolated" 
d="M576 47l-4 -3q52 -14 75 -39q23 -26 23 -63q0 -40 -21 -73t-60 -57t-94 -36t-123 -12q-169 0 -249 67q-81 67 -81 210q0 40 6 79q5 33 14 74h36v-6q-8 -38 -11 -71q-3 -36 -3 -69q0 -112 72 -165q73 -53 220 -53q55 0 105 8q47 8 81 21q35 14 53 35t18 46q0 16 -9 30
q-10 15 -28 23q-20 9 -51 15q-26 5 -80 10l-67 5v57l4 4l71 -6q64 -5 96 25q33 30 33 101v541h47v-541q0 -57 -18 -96t-55 -58v-3z" />
    <glyph glyph-name="uniFC44" unicode="&#xfedf;&#xfef2;" horiz-adv-x="758" arabic-form="isolated" 
d="M576 47l-4 -3q52 -14 75 -39q23 -26 23 -63q0 -40 -21 -73t-60 -57t-94 -36t-123 -12q-169 0 -249 67q-81 67 -81 210q0 40 6 79q5 33 14 74h36v-6q-8 -38 -11 -71q-3 -36 -3 -69q0 -112 72 -165q73 -53 220 -53q55 0 105 8q47 8 81 21q35 14 53 35t18 46q0 16 -9 30
q-10 15 -28 23q-20 9 -51 15q-26 5 -80 10l-67 5v57l4 4l71 -6q64 -5 96 25q33 30 33 101v541h47v-541q0 -57 -18 -96t-55 -58v-3zM326 -331l43 -43l-43 -42h-7l-43 42l43 43h7zM425 -331l43 -43l-43 -42h-7l-43 42l43 43h7z" />
    <glyph glyph-name="uniFC4F" unicode="&#xfee7;&#xfef0;" horiz-adv-x="713" arabic-form="isolated" 
d="M376 -147l-3 -2q-169 0 -249 67q-81 68 -81 210q0 40 6 79q5 33 14 74h36v-6q-8 -38 -11 -71q-3 -36 -3 -69q0 -113 72 -165q73 -53 220 -53q55 0 105 8q46 7 81 21t53 35t18 46q0 17 -9 30q-10 15 -28 23q-19 9 -51 15q-26 5 -80 10l-67 5v57l4 4l71 -6q69 -5 101 24
t32 92q0 24 -5 69q-4 40 -15 90l3 4h44q7 -45 12 -86q4 -35 4 -71q0 -112 -66 -148v-2q90 -29 90 -105q0 -41 -21 -74t-60 -57t-94 -36t-123 -12zM600 637l43 -43l-43 -42h-7l-43 42l43 43h7z" />
    <glyph glyph-name="uniFC50" unicode="&#xfee7;&#xfef2;" horiz-adv-x="713" arabic-form="isolated" 
d="M376 -147l-3 -2q-169 0 -249 67q-81 68 -81 210q0 40 6 79q5 33 14 74h36v-6q-8 -38 -11 -71q-3 -36 -3 -69q0 -113 72 -165q73 -53 220 -53q55 0 105 8q46 7 81 21t53 35t18 46q0 17 -9 30q-10 15 -28 23q-19 9 -51 15q-26 5 -80 10l-67 5v57l4 4l71 -6q69 -5 101 24
t32 92q0 24 -5 69q-4 40 -15 90l3 4h44q7 -45 12 -86q4 -35 4 -71q0 -112 -66 -148v-2q90 -29 90 -105q0 -41 -21 -74t-60 -57t-94 -36t-123 -12zM600 637l43 -43l-43 -42h-7l-43 42l43 43h7zM332 -243l43 -43l-43 -42h-7l-43 42l43 43h7zM431 -243l43 -43l-43 -42h-7
l-43 42l43 43h7z" />
    <glyph glyph-name="uniFC59" unicode="&#xfef3;&#xfef0;" horiz-adv-x="713" arabic-form="isolated" 
d="M376 -147l-3 -2q-169 0 -249 67q-81 68 -81 210q0 40 6 79q5 33 14 74h36v-6q-8 -38 -11 -71q-3 -36 -3 -69q0 -113 72 -165q73 -53 220 -53q55 0 105 8q46 7 81 21t53 35t18 46q0 17 -9 30q-10 15 -28 23q-19 9 -51 15q-26 5 -80 10l-67 5v57l4 4l71 -6q69 -5 101 24
t32 92q0 24 -5 69q-4 40 -15 90l3 4h44q7 -45 12 -86q4 -35 4 -71q0 -112 -66 -148v-2q90 -29 90 -105q0 -41 -21 -74t-60 -57t-94 -36t-123 -12zM562 -213l43 -43l-43 -42h-7l-43 42l43 43h7zM661 -213l43 -43l-43 -42h-7l-43 42l43 43h7z" />
    <glyph glyph-name="uniFC5A" unicode="&#xfef3;&#xfef2;" horiz-adv-x="713" arabic-form="isolated" 
d="M376 -147l-3 -2q-169 0 -249 67q-81 68 -81 210q0 40 6 79q5 33 14 74h36v-6q-8 -38 -11 -71q-3 -36 -3 -69q0 -113 72 -165q73 -53 220 -53q55 0 105 8q46 7 81 21t53 35t18 46q0 17 -9 30q-10 15 -28 23q-19 9 -51 15q-26 5 -80 10l-67 5v57l4 4l71 -6q69 -5 101 24
t32 92q0 24 -5 69q-4 40 -15 90l3 4h44q7 -45 12 -86q4 -35 4 -71q0 -112 -66 -148v-2q90 -29 90 -105q0 -41 -21 -74t-60 -57t-94 -36t-123 -12zM233 -243l43 -43l-43 -42h-7l-43 42l43 43h7zM332 -243l43 -43l-43 -42h-7l-43 42l43 43h7zM463 -213l43 -43l-43 -42h-7
l-43 42l43 43h7zM562 -213l43 -43l-43 -42h-7l-43 42l43 43h7z" />
    <glyph glyph-name="uniFC64" unicode="&#xfe8c;&#xfeae;" horiz-adv-x="555" arabic-form="final" 
d="M33 -255l-5 -1q-36 0 -66 13q-33 14 -60 34v34l6 4q32 -12 57 -18t51 -6q38 0 70 19t57 53t38 80q14 48 14 102q0 47 -12 107t-33 120l3 5h44l16 -59l185 29v60h40v-152q0 -59 27 -84q26 -25 84 -25h6v-45l-15 -15h-1q-70 0 -105 38t-35 117v45l-175 -27q11 -64 11 -111
q0 -70 -16 -127q-17 -59 -43 -100q-27 -43 -64 -66q-38 -24 -79 -24zM359 430v2q-7 10 -12 24q-4 12 -4 24q0 19 7 33t20 27q11 11 29 19q15 7 36 7q54 0 54 -54v-21h-29v9q0 29 -31 29q-22 0 -39 -14t-17 -33q0 -13 8 -27q7 -13 21 -25h104v-37h-184v37h37z" />
    <glyph glyph-name="uniFC65" unicode="&#xfe8c;&#xfeb0;" horiz-adv-x="555" arabic-form="final" 
d="M33 -255l-5 -1q-36 0 -66 13q-33 14 -60 34v34l6 4q32 -12 57 -18t51 -6q38 0 70 19t57 53t38 80q14 48 14 102q0 47 -12 107t-33 120l3 5h44l16 -59l185 29v60h40v-152q0 -59 27 -84q26 -25 84 -25h6v-45l-15 -15h-1q-70 0 -105 38t-35 117v45l-175 -27q11 -64 11 -111
q0 -70 -16 -127q-17 -59 -43 -100q-27 -43 -64 -66q-38 -24 -79 -24zM359 430v2q-7 10 -12 24q-4 12 -4 24q0 19 7 33t20 27q11 11 29 19q15 7 36 7q54 0 54 -54v-21h-29v9q0 29 -31 29q-22 0 -39 -14t-17 -33q0 -13 8 -27q7 -13 21 -25h104v-37h-184v37h37zM154 486l43 -43
l-43 -42h-7l-43 42l43 43h7z" />
    <glyph glyph-name="uniFC67" unicode="&#xfe8c;&#xfee6;" horiz-adv-x="893" arabic-form="final" 
d="M306 -207l-1 3q-125 0 -193 66q-67 66 -67 180q0 42 6 81q6 40 18 80h36v-6q-21 -78 -21 -140q0 -95 58 -147t163 -52q110 0 164 51t54 152q0 44 -9 104t-24 120l2 5h45l12 -58l187 28v60h40v-152q0 -58 27 -84q26 -25 84 -25h6v-45l-15 -15h-1q-70 1 -106 39t-36 117v45
l-178 -28q9 -58 9 -102q0 -136 -66 -207q-66 -70 -194 -70zM701 434v2q-7 10 -12 24q-4 12 -4 24q0 19 7 33t20 27q11 11 29 19q15 7 36 7q54 0 54 -54v-21h-29v9q0 29 -31 29q-22 0 -39 -14t-17 -33q0 -13 8 -27q7 -13 21 -25h104v-37h-184v37h37zM317 375l43 -43l-43 -42
h-7l-43 42l43 43h7z" />
    <glyph glyph-name="uniFC68" unicode="&#xfe8c;&#xfef0;" horiz-adv-x="861" arabic-form="final" 
d="M514 431v2q-8 11 -12 24q-4 12 -4 24q0 19 7 33t20 27q11 11 29 19q15 7 36 7q54 0 54 -54v-21h-29v9q0 29 -31 29q-22 0 -39 -14t-17 -33q0 -13 8 -27q7 -13 21 -25h104v-37h-184v37h37zM352 -283v-3q-150 0 -228 63t-78 197q0 37 5 77q5 37 12 71h36v-6q-7 -31 -10 -69
q-3 -34 -3 -67q0 -104 70 -153t207 -49q60 0 111 9q50 9 88 24t59 36t21 47q0 28 -21 45t-72 30l-74 21q-78 21 -110 49q-33 29 -33 79q0 36 21 72t55 64q33 27 77 46q42 18 86 18q46 0 75 -22q30 -22 55 -73l33 -68q11 -24 26 -46q11 -17 26 -30q13 -11 30 -16q15 -4 36 -4
h11v-45l-15 -15h-6q-25 0 -46 6t-39 21q-16 13 -34 38q-17 22 -33 57l-29 59q-21 43 -45 61t-61 18q-35 0 -66 -10q-32 -10 -58 -27q-25 -16 -42 -39q-16 -22 -16 -45q0 -31 24 -49q23 -17 80 -34l74 -22q36 -11 60 -21t39 -24q14 -12 22 -32q7 -17 7 -44q0 -46 -25 -81
t-69 -61t-103 -39q-62 -14 -130 -14z" />
    <glyph glyph-name="uniFC69" unicode="&#xfe8c;&#xfef2;" horiz-adv-x="861" arabic-form="final" 
d="M514 431v2q-8 11 -12 24q-4 12 -4 24q0 19 7 33t20 27q11 11 29 19q15 7 36 7q54 0 54 -54v-21h-29v9q0 29 -31 29q-22 0 -39 -14t-17 -33q0 -13 8 -27q7 -13 21 -25h104v-37h-184v37h37zM306 -377l43 -43l-43 -42h-7l-43 42l43 43h7zM405 -377l43 -43l-43 -42h-7l-43 42
l43 43h7zM352 -283v-3q-150 0 -228 63t-78 197q0 37 5 77q5 37 12 71h36v-6q-7 -31 -10 -69q-3 -34 -3 -67q0 -104 70 -153t207 -49q60 0 111 9q50 9 88 24t59 36t21 47q0 28 -21 45t-72 30l-74 21q-78 21 -110 49q-33 29 -33 79q0 36 21 72t55 64q33 27 77 46q42 18 86 18
q46 0 75 -22q30 -22 55 -73l33 -68q11 -24 26 -46q11 -17 26 -30q13 -11 30 -16q15 -4 36 -4h11v-45l-15 -15h-6q-25 0 -46 6t-39 21q-16 13 -34 38q-17 22 -33 57l-29 59q-21 43 -45 61t-61 18q-35 0 -66 -10q-32 -10 -58 -27q-25 -16 -42 -39q-16 -22 -16 -45
q0 -31 24 -49q23 -17 80 -34l74 -22q36 -11 60 -21t39 -24q14 -12 22 -32q7 -17 7 -44q0 -46 -25 -81t-69 -61t-103 -39q-62 -14 -130 -14z" />
    <glyph glyph-name="uniFC6A" unicode="&#xfe92;&#xfeae;" horiz-adv-x="555" arabic-form="final" 
d="M33 -255l-5 -1q-36 0 -66 13q-33 14 -60 34v34l6 4q32 -12 57 -18t51 -6q38 0 70 19t57 53t38 80q14 48 14 102q0 47 -12 107t-33 120l3 5h44l16 -59l185 29v60h40v-152q0 -59 27 -84q26 -25 84 -25h6v-45l-15 -15h-1q-70 0 -105 38t-35 117v45l-175 -27q11 -64 11 -111
q0 -70 -16 -127q-17 -59 -43 -100q-27 -43 -64 -66q-38 -24 -79 -24zM420 -95l43 -43l-43 -42h-7l-43 42l43 43h7z" />
    <glyph glyph-name="uniFC6B" unicode="&#xfe92;&#xfeb0;" horiz-adv-x="555" arabic-form="final" 
d="M33 -255l-5 -1q-36 0 -66 13q-33 14 -60 34v34l6 4q32 -12 57 -18t51 -6q38 0 70 19t57 53t38 80q14 48 14 102q0 47 -12 107t-33 120l3 5h44l16 -59l185 29v60h40v-152q0 -59 27 -84q26 -25 84 -25h6v-45l-15 -15h-1q-70 0 -105 38t-35 117v45l-175 -27q11 -64 11 -111
q0 -70 -16 -127q-17 -59 -43 -100q-27 -43 -64 -66q-38 -24 -79 -24zM420 -95l43 -43l-43 -42h-7l-43 42l43 43h7zM154 484l43 -43l-43 -42h-7l-43 42l43 43h7z" />
    <glyph glyph-name="uniFC6D" unicode="&#xfe92;&#xfee6;" horiz-adv-x="893" arabic-form="final" 
d="M306 -207l-1 3q-125 0 -193 66q-67 66 -67 180q0 42 6 81q6 40 18 80h36v-6q-21 -78 -21 -140q0 -95 58 -147t163 -52q110 0 164 51t54 152q0 44 -9 104t-24 120l2 5h45l12 -58l187 28v60h40v-152q0 -58 27 -84q26 -25 84 -25h6v-45l-15 -15h-1q-70 1 -106 39t-36 117v45
l-178 -28q9 -58 9 -102q0 -136 -66 -207q-66 -70 -194 -70zM317 373l43 -43l-43 -42h-7l-43 42l43 43h7zM763 -91l43 -43l-43 -42h-7l-43 42l43 43h7z" />
    <glyph glyph-name="uniFC6E" unicode="&#xfe92;&#xfef0;" horiz-adv-x="861" arabic-form="final" 
d="M650 -307l43 -43l-43 -42h-7l-43 42l43 43h7zM352 -285v-3q-150 0 -228 63t-78 197q0 37 5 77q5 37 12 71h36v-6q-7 -31 -10 -69q-3 -35 -3 -67q0 -104 70 -153t207 -49q60 0 111 9q50 9 88 24t59 36t21 47q0 28 -21 45t-72 30l-74 21q-78 21 -110 49q-33 29 -33 79
q0 36 21 72t55 64q33 27 77 46q42 18 86 18q46 0 75 -22q30 -22 55 -73l33 -68q11 -24 26 -46q11 -17 26 -30q13 -11 30 -16q15 -4 36 -4h11v-45l-15 -15h-6q-25 0 -46 6t-39 21q-16 13 -34 38q-17 22 -33 57l-29 59q-21 43 -45 61t-61 18q-35 0 -66 -10q-32 -10 -58 -27
q-25 -16 -42 -39q-16 -22 -16 -45q0 -31 24 -49q23 -17 80 -34l74 -22q36 -11 60 -21t39 -24q14 -12 22 -32q7 -17 7 -44q0 -46 -25 -81t-69 -61t-103 -39q-62 -14 -130 -14z" />
    <glyph glyph-name="uniFC6F" unicode="&#xfe92;&#xfef2;" horiz-adv-x="861" arabic-form="final" 
d="M650 -307l43 -43l-43 -42h-7l-43 42l43 43h7zM306 -379l43 -43l-43 -42h-7l-43 42l43 43h7zM405 -379l43 -43l-43 -42h-7l-43 42l43 43h7zM352 -285v-3q-150 0 -228 63t-78 197q0 37 5 77q5 37 12 71h36v-6q-7 -31 -10 -69q-3 -35 -3 -67q0 -104 70 -153t207 -49
q60 0 111 9q50 9 88 24t59 36t21 47q0 28 -21 45t-72 30l-74 21q-78 21 -110 49q-33 29 -33 79q0 36 21 72t55 64q33 27 77 46q42 18 86 18q46 0 75 -22q30 -22 55 -73l33 -68q11 -24 26 -46q11 -17 26 -30q13 -11 30 -16q15 -4 36 -4h11v-45l-15 -15h-6q-25 0 -46 6t-39 21
q-16 13 -34 38q-17 22 -33 57l-29 59q-21 43 -45 61t-61 18q-35 0 -66 -10q-32 -10 -58 -27q-25 -16 -42 -39q-16 -22 -16 -45q0 -31 24 -49q23 -17 80 -34l74 -22q36 -11 60 -21t39 -24q14 -12 22 -32q7 -17 7 -44q0 -46 -25 -81t-69 -61t-103 -39q-62 -14 -130 -14z" />
    <glyph glyph-name="uniFC70" unicode="&#xfe98;&#xfeae;" horiz-adv-x="555" arabic-form="final" 
d="M33 -255l-5 -1q-36 0 -66 13q-33 14 -60 34v34l6 4q32 -12 57 -18t51 -6q38 0 70 19t57 53t38 80q14 48 14 102q0 47 -12 107t-33 120l3 5h44l16 -59l185 29v60h40v-152q0 -59 27 -84q26 -25 84 -25h6v-45l-15 -15h-1q-70 0 -105 38t-35 117v45l-175 -27q11 -64 11 -111
q0 -70 -16 -127q-17 -59 -43 -100q-27 -43 -64 -66q-38 -24 -79 -24zM368 514l43 -43l-43 -42h-7l-43 42l43 43h7zM467 514l43 -43l-43 -42h-7l-43 42l43 43h7z" />
    <glyph glyph-name="uniFC71" unicode="&#xfe98;&#xfeb0;" horiz-adv-x="555" arabic-form="final" 
d="M33 -255l-5 -1q-36 0 -66 13q-33 14 -60 34v34l6 4q32 -12 57 -18t51 -6q38 0 70 19t57 53t38 80q14 48 14 102q0 47 -12 107t-33 120l3 5h44l16 -59l185 29v60h40v-152q0 -59 27 -84q26 -25 84 -25h6v-45l-15 -15h-1q-70 0 -105 38t-35 117v45l-175 -27q11 -64 11 -111
q0 -70 -16 -127q-17 -59 -43 -100q-27 -43 -64 -66q-38 -24 -79 -24zM368 514l43 -43l-43 -42h-7l-43 42l43 43h7zM467 514l43 -43l-43 -42h-7l-43 42l43 43h7zM154 484l43 -43l-43 -42h-7l-43 42l43 43h7z" />
    <glyph glyph-name="uniFC73" unicode="&#xfe98;&#xfee6;" horiz-adv-x="893" arabic-form="final" 
d="M306 -207l-1 3q-125 0 -193 66q-67 66 -67 180q0 42 6 81q6 40 18 80h36v-6q-21 -78 -21 -140q0 -95 58 -147t163 -52q110 0 164 51t54 152q0 44 -9 104t-24 120l2 5h45l12 -58l187 28v60h40v-152q0 -58 27 -84q26 -25 84 -25h6v-45l-15 -15h-1q-70 1 -106 39t-36 117v45
l-178 -28q9 -58 9 -102q0 -136 -66 -207q-66 -70 -194 -70zM317 373l43 -43l-43 -42h-7l-43 42l43 43h7zM710 518l43 -43l-43 -42h-7l-43 42l43 43h7zM809 518l43 -43l-43 -42h-7l-43 42l43 43h7z" />
    <glyph glyph-name="uniFC74" unicode="&#xfe98;&#xfef0;" horiz-adv-x="861" arabic-form="final" 
d="M523 515l43 -43l-43 -42h-7l-43 42l43 43h7zM622 515l43 -43l-43 -42h-7l-43 42l43 43h7zM352 -285v-3q-150 0 -228 63t-78 197q0 37 5 77q5 37 12 71h36v-6q-7 -31 -10 -69q-3 -35 -3 -67q0 -104 70 -153t207 -49q60 0 111 9q50 9 88 24t59 36t21 47q0 28 -21 45t-72 30
l-74 21q-78 21 -110 49q-33 29 -33 79q0 36 21 72t55 64q33 27 77 46q42 18 86 18q46 0 75 -22q30 -22 55 -73l33 -68q11 -24 26 -46q11 -17 26 -30q13 -11 30 -16q15 -4 36 -4h11v-45l-15 -15h-6q-25 0 -46 6t-39 21q-16 13 -34 38q-17 22 -33 57l-29 59q-21 43 -45 61
t-61 18q-35 0 -66 -10q-32 -10 -58 -27q-25 -16 -42 -39q-16 -22 -16 -45q0 -31 24 -49q23 -17 80 -34l74 -22q36 -11 60 -21t39 -24q14 -12 22 -32q7 -17 7 -44q0 -46 -25 -81t-69 -61t-103 -39q-62 -14 -130 -14z" />
    <glyph glyph-name="uniFC75" unicode="&#xfe98;&#xfef2;" horiz-adv-x="861" arabic-form="final" 
d="M523 515l43 -43l-43 -42h-7l-43 42l43 43h7zM622 515l43 -43l-43 -42h-7l-43 42l43 43h7zM306 -379l43 -43l-43 -42h-7l-43 42l43 43h7zM405 -379l43 -43l-43 -42h-7l-43 42l43 43h7zM352 -285v-3q-150 0 -228 63t-78 197q0 37 5 77q5 37 12 71h36v-6q-7 -31 -10 -69
q-3 -35 -3 -67q0 -104 70 -153t207 -49q60 0 111 9q50 9 88 24t59 36t21 47q0 28 -21 45t-72 30l-74 21q-78 21 -110 49q-33 29 -33 79q0 36 21 72t55 64q33 27 77 46q42 18 86 18q46 0 75 -22q30 -22 55 -73l33 -68q11 -24 26 -46q11 -17 26 -30q13 -11 30 -16q15 -4 36 -4
h11v-45l-15 -15h-6q-25 0 -46 6t-39 21q-16 13 -34 38q-17 22 -33 57l-29 59q-21 43 -45 61t-61 18q-35 0 -66 -10q-32 -10 -58 -27q-25 -16 -42 -39q-16 -22 -16 -45q0 -31 24 -49q23 -17 80 -34l74 -22q36 -11 60 -21t39 -24q14 -12 22 -32q7 -17 7 -44q0 -46 -25 -81
t-69 -61t-103 -39q-62 -14 -130 -14z" />
    <glyph glyph-name="uniFC76" unicode="&#xfe9c;&#xfeae;" horiz-adv-x="555" arabic-form="final" 
d="M33 -255l-5 -1q-36 0 -66 13q-33 14 -60 34v34l6 4q32 -12 57 -18t51 -6q38 0 70 19t57 53t38 80q14 48 14 102q0 47 -12 107t-33 120l3 5h44l16 -59l185 29v60h40v-152q0 -59 27 -84q26 -25 84 -25h6v-45l-15 -15h-1q-70 0 -105 38t-35 117v45l-175 -27q11 -64 11 -111
q0 -70 -16 -127q-17 -59 -43 -100q-27 -43 -64 -66q-38 -24 -79 -24zM418 609l41 -41l-41 -41h-7l-42 41l42 41h7zM368 514l43 -43l-43 -42h-7l-43 42l43 43h7zM467 514l43 -43l-43 -42h-7l-43 42l43 43h7z" />
    <glyph glyph-name="uniFC77" unicode="&#xfe9c;&#xfeb0;" horiz-adv-x="555" arabic-form="final" 
d="M33 -255l-5 -1q-36 0 -66 13q-33 14 -60 34v34l6 4q32 -12 57 -18t51 -6q38 0 70 19t57 53t38 80q14 48 14 102q0 47 -12 107t-33 120l3 5h44l16 -59l185 29v60h40v-152q0 -59 27 -84q26 -25 84 -25h6v-45l-15 -15h-1q-70 0 -105 38t-35 117v45l-175 -27q11 -64 11 -111
q0 -70 -16 -127q-17 -59 -43 -100q-27 -43 -64 -66q-38 -24 -79 -24zM418 609l41 -41l-41 -41h-7l-42 41l42 41h7zM368 514l43 -43l-43 -42h-7l-43 42l43 43h7zM467 514l43 -43l-43 -42h-7l-43 42l43 43h7zM154 484l43 -43l-43 -42h-7l-43 42l43 43h7z" />
    <glyph glyph-name="uniFC79" unicode="&#xfe9c;&#xfee6;" horiz-adv-x="893" arabic-form="final" 
d="M306 -207l-1 3q-125 0 -193 66q-67 66 -67 180q0 42 6 81q6 40 18 80h36v-6q-21 -78 -21 -140q0 -95 58 -147t163 -52q110 0 164 51t54 152q0 44 -9 104t-24 120l2 5h45l12 -58l187 28v60h40v-152q0 -58 27 -84q26 -25 84 -25h6v-45l-15 -15h-1q-70 1 -106 39t-36 117v45
l-178 -28q9 -58 9 -102q0 -136 -66 -207q-66 -70 -194 -70zM317 373l43 -43l-43 -42h-7l-43 42l43 43h7zM760 613l41 -41l-41 -41h-7l-42 41l42 41h7zM710 518l43 -43l-43 -42h-7l-43 42l43 43h7zM809 518l43 -43l-43 -42h-7l-43 42l43 43h7z" />
    <glyph glyph-name="uniFC7A" unicode="&#xfe9c;&#xfef0;" horiz-adv-x="861" arabic-form="final" 
d="M573 610l41 -41l-41 -41h-7l-42 41l42 41h7zM523 515l43 -43l-43 -42h-7l-43 42l43 43h7zM622 515l43 -43l-43 -42h-7l-43 42l43 43h7zM352 -285v-3q-150 0 -228 63t-78 197q0 37 5 77q5 37 12 71h36v-6q-7 -31 -10 -69q-3 -35 -3 -67q0 -104 70 -153t207 -49q60 0 111 9
q50 9 88 24t59 36t21 47q0 28 -21 45t-72 30l-74 21q-78 21 -110 49q-33 29 -33 79q0 36 21 72t55 64q33 27 77 46q42 18 86 18q46 0 75 -22q30 -22 55 -73l33 -68q11 -24 26 -46q11 -17 26 -30q13 -11 30 -16q15 -4 36 -4h11v-45l-15 -15h-6q-25 0 -46 6t-39 21
q-16 13 -34 38q-17 22 -33 57l-29 59q-21 43 -45 61t-61 18q-35 0 -66 -10q-32 -10 -58 -27q-25 -16 -42 -39q-16 -22 -16 -45q0 -31 24 -49q23 -17 80 -34l74 -22q36 -11 60 -21t39 -24q14 -12 22 -32q7 -17 7 -44q0 -46 -25 -81t-69 -61t-103 -39q-62 -14 -130 -14z" />
    <glyph glyph-name="uniFC7B" unicode="&#xfe9c;&#xfef2;" horiz-adv-x="861" arabic-form="final" 
d="M573 610l41 -41l-41 -41h-7l-42 41l42 41h7zM523 515l43 -43l-43 -42h-7l-43 42l43 43h7zM622 515l43 -43l-43 -42h-7l-43 42l43 43h7zM306 -379l43 -43l-43 -42h-7l-43 42l43 43h7zM405 -379l43 -43l-43 -42h-7l-43 42l43 43h7zM352 -285v-3q-150 0 -228 63t-78 197
q0 37 5 77q5 37 12 71h36v-6q-7 -31 -10 -69q-3 -35 -3 -67q0 -104 70 -153t207 -49q60 0 111 9q50 9 88 24t59 36t21 47q0 28 -21 45t-72 30l-74 21q-78 21 -110 49q-33 29 -33 79q0 36 21 72t55 64q33 27 77 46q42 18 86 18q46 0 75 -22q30 -22 55 -73l33 -68
q11 -24 26 -46q11 -17 26 -30q13 -11 30 -16q15 -4 36 -4h11v-45l-15 -15h-6q-25 0 -46 6t-39 21q-16 13 -34 38q-17 22 -33 57l-29 59q-21 43 -45 61t-61 18q-35 0 -66 -10q-32 -10 -58 -27q-25 -16 -42 -39q-16 -22 -16 -45q0 -31 24 -49q23 -17 80 -34l74 -22
q36 -11 60 -21t39 -24q14 -12 22 -32q7 -17 7 -44q0 -46 -25 -81t-69 -61t-103 -39q-62 -14 -130 -14z" />
    <glyph glyph-name="uniFC83" unicode="&#xfedc;&#xfef0;" horiz-adv-x="963" arabic-form="final" 
d="M586 468l194 -301q23 -34 39 -53q17 -20 36 -34q17 -12 38 -19q19 -6 45 -6h19v-44l-15 -16q-27 0 -54 5q-24 4 -45 18t-42 36q-19 20 -46 57q-8 -42 -34 -70q-27 -29 -69 -39q17 -23 17 -57q0 -41 -21 -76q-21 -34 -60 -58t-94 -36q-56 -12 -123 -12q-169 0 -249 67
q-81 68 -81 210q0 40 6 79q5 33 14 74h36v-6q-8 -38 -11 -71q-3 -36 -3 -69q0 -113 72 -165q73 -53 220 -53q55 0 105 8q48 8 81 22q35 15 53 35t18 44q0 17 -8 30q-8 12 -26 20q-20 8 -50 14q-49 9 -78 14l-72 10v56l4 4l69 -10q10 -1 27 -4t24 -4q11 -2 38 -4q16 -2 30 -3
q9 -1 25 -1q107 0 117 93l-190 286v59l415 252h6v-54z" />
    <glyph glyph-name="uniFC84" unicode="&#xfedc;&#xfef2;" horiz-adv-x="963" arabic-form="final" 
d="M586 468l194 -301q23 -34 39 -53q17 -20 36 -34q17 -12 38 -19q19 -6 45 -6h19v-44l-15 -16q-27 0 -54 5q-24 4 -45 18t-42 36q-19 20 -46 57q-8 -42 -34 -70q-27 -29 -69 -39q17 -23 17 -57q0 -41 -21 -76q-21 -34 -60 -58t-94 -36q-56 -12 -123 -12q-169 0 -249 67
q-81 68 -81 210q0 40 6 79q5 33 14 74h36v-6q-8 -38 -11 -71q-3 -36 -3 -69q0 -113 72 -165q73 -53 220 -53q55 0 105 8q48 8 81 22q35 15 53 35t18 44q0 17 -8 30q-8 12 -26 20q-20 8 -50 14q-49 9 -78 14l-72 10v56l4 4l69 -10q10 -1 27 -4t24 -4q11 -2 38 -4q16 -2 30 -3
q9 -1 25 -1q107 0 117 93l-190 286v59l415 252h6v-54zM326 -333l43 -43l-43 -42h-7l-43 42l43 43h7zM425 -333l43 -43l-43 -42h-7l-43 42l43 43h7z" />
    <glyph glyph-name="uniFC86" unicode="&#xfee0;&#xfef0;" horiz-adv-x="879" arabic-form="final" 
d="M879 15l-19 -20h-1q-95 0 -129 64q-13 -21 -38 -37t-51 -20q27 -21 27 -58q0 -42 -21 -76t-60 -58t-94 -36t-123 -12q-169 0 -249 67q-81 67 -81 210q0 40 6 79q5 33 14 74h36v-6q-8 -38 -11 -71q-3 -36 -3 -69q0 -112 72 -165q73 -53 220 -53q55 0 105 8q48 8 81 22
q35 15 53 35t18 44q0 17 -8 30q-8 12 -26 20q-20 8 -50 14q-49 9 -78 14l-72 10v56l4 4l69 -10q10 -1 27 -4t24 -4q10 -1 38 -4q17 -1 30 -3q9 -1 25 -1q34 0 61 10q29 11 48 27q-8 34 -8 71v577h47v-577q0 -55 27 -81q28 -26 84 -26h6v-45z" />
    <glyph glyph-name="uniFC87" unicode="&#xfee0;&#xfef2;" horiz-adv-x="879" arabic-form="final" 
d="M879 15l-19 -20h-1q-95 0 -129 64q-13 -21 -38 -37t-51 -20q27 -21 27 -58q0 -42 -21 -76t-60 -58t-94 -36t-123 -12q-169 0 -249 67q-81 67 -81 210q0 40 6 79q5 33 14 74h36v-6q-8 -38 -11 -71q-3 -36 -3 -69q0 -112 72 -165q73 -53 220 -53q55 0 105 8q48 8 81 22
q35 15 53 35t18 44q0 17 -8 30q-8 12 -26 20q-20 8 -50 14q-49 9 -78 14l-72 10v56l4 4l69 -10q10 -1 27 -4t24 -4q10 -1 38 -4q17 -1 30 -3q9 -1 25 -1q34 0 61 10q29 11 48 27q-8 34 -8 71v577h47v-577q0 -55 27 -81q28 -26 84 -26h6v-45zM326 -333l43 -43l-43 -42h-7
l-43 42l43 43h7zM425 -333l43 -43l-43 -42h-7l-43 42l43 43h7z" />
    <glyph glyph-name="uniFC8A" unicode="&#xfee8;&#xfeae;" horiz-adv-x="555" arabic-form="final" 
d="M33 -255l-5 -1q-36 0 -66 13q-33 14 -60 34v34l6 4q32 -12 57 -18t51 -6q38 0 70 19t57 53t38 80q14 48 14 102q0 47 -12 107t-33 120l3 5h44l16 -59l185 29v60h40v-152q0 -59 27 -84q26 -25 84 -25h6v-45l-15 -15h-1q-70 0 -105 38t-35 117v45l-175 -27q11 -64 11 -111
q0 -70 -16 -127q-17 -59 -43 -100q-27 -43 -64 -66q-38 -24 -79 -24zM417 514l43 -43l-43 -42h-7l-43 42l43 43h7z" />
    <glyph glyph-name="uniFC8B" unicode="&#xfee8;&#xfeb0;" horiz-adv-x="555" arabic-form="final" 
d="M33 -255l-5 -1q-36 0 -66 13q-33 14 -60 34v34l6 4q32 -12 57 -18t51 -6q38 0 70 19t57 53t38 80q14 48 14 102q0 47 -12 107t-33 120l3 5h44l16 -59l185 29v60h40v-152q0 -59 27 -84q26 -25 84 -25h6v-45l-15 -15h-1q-70 0 -105 38t-35 117v45l-175 -27q11 -64 11 -111
q0 -70 -16 -127q-17 -59 -43 -100q-27 -43 -64 -66q-38 -24 -79 -24zM104 484l43 -43l-43 -42h-7l-43 42l43 43h7zM367 514l43 -43l-43 -42h-7l-43 42l43 43h7z" />
    <glyph glyph-name="uniFC8D" unicode="&#xfee8;&#xfee6;" horiz-adv-x="893" arabic-form="final" 
d="M306 -207l-1 3q-125 0 -193 66q-67 66 -67 180q0 42 6 81q6 40 18 80h36v-6q-21 -78 -21 -140q0 -95 58 -147t163 -52q110 0 164 51t54 152q0 44 -9 104t-24 120l2 5h45l12 -58l187 28v60h40v-152q0 -58 27 -84q26 -25 84 -25h6v-45l-15 -15h-1q-70 1 -106 39t-36 117v45
l-178 -28q9 -58 9 -102q0 -136 -66 -207q-66 -70 -194 -70zM267 373l43 -43l-43 -42h-7l-43 42l43 43h7zM709 518l43 -43l-43 -42h-7l-43 42l43 43h7z" />
    <glyph glyph-name="uniFC8E" unicode="&#xfee8;&#xfef0;" horiz-adv-x="861" arabic-form="final" 
d="M572 515l43 -43l-43 -42h-7l-43 42l43 43h7zM352 -285v-3q-150 0 -228 63t-78 197q0 37 5 77q5 37 12 71h36v-6q-7 -31 -10 -69q-3 -35 -3 -67q0 -104 70 -153t207 -49q60 0 111 9q50 9 88 24t59 36t21 47q0 28 -21 45t-72 30l-74 21q-78 21 -110 49q-33 29 -33 79
q0 36 21 72t55 64q33 27 77 46q42 18 86 18q46 0 75 -22q30 -22 55 -73l33 -68q11 -24 26 -46q11 -17 26 -30q13 -11 30 -16q15 -4 36 -4h11v-45l-15 -15h-6q-25 0 -46 6t-39 21q-16 13 -34 38q-17 22 -33 57l-29 59q-21 43 -45 61t-61 18q-35 0 -66 -10q-32 -10 -58 -27
q-25 -16 -42 -39q-16 -22 -16 -45q0 -31 24 -49q23 -17 80 -34l74 -22q36 -11 60 -21t39 -24q14 -12 22 -32q7 -17 7 -44q0 -46 -25 -81t-69 -61t-103 -39q-62 -14 -130 -14z" />
    <glyph glyph-name="uniFC8F" unicode="&#xfee8;&#xfef2;" horiz-adv-x="861" arabic-form="final" 
d="M572 515l43 -43l-43 -42h-7l-43 42l43 43h7zM306 -379l43 -43l-43 -42h-7l-43 42l43 43h7zM405 -379l43 -43l-43 -42h-7l-43 42l43 43h7zM352 -285v-3q-150 0 -228 63t-78 197q0 37 5 77q5 37 12 71h36v-6q-7 -31 -10 -69q-3 -35 -3 -67q0 -104 70 -153t207 -49
q60 0 111 9q50 9 88 24t59 36t21 47q0 28 -21 45t-72 30l-74 21q-78 21 -110 49q-33 29 -33 79q0 36 21 72t55 64q33 27 77 46q42 18 86 18q46 0 75 -22q30 -22 55 -73l33 -68q11 -24 26 -46q11 -17 26 -30q13 -11 30 -16q15 -4 36 -4h11v-45l-15 -15h-6q-25 0 -46 6t-39 21
q-16 13 -34 38q-17 22 -33 57l-29 59q-21 43 -45 61t-61 18q-35 0 -66 -10q-32 -10 -58 -27q-25 -16 -42 -39q-16 -22 -16 -45q0 -31 24 -49q23 -17 80 -34l74 -22q36 -11 60 -21t39 -24q14 -12 22 -32q7 -17 7 -44q0 -46 -25 -81t-69 -61t-103 -39q-62 -14 -130 -14z" />
    <glyph glyph-name="uniFC91" unicode="&#xfef4;&#xfeae;" horiz-adv-x="555" arabic-form="final" 
d="M33 -255l-5 -1q-36 0 -66 13q-33 14 -60 34v34l6 4q32 -12 57 -18t51 -6q38 0 70 19t57 53t38 80q14 48 14 102q0 47 -12 107t-33 120l3 5h44l16 -59l185 29v60h40v-152q0 -59 27 -84q26 -25 84 -25h6v-45l-15 -15h-1q-70 0 -105 38t-35 117v45l-175 -27q11 -64 11 -111
q0 -70 -16 -127q-17 -59 -43 -100q-27 -43 -64 -66q-38 -24 -79 -24zM371 -95l43 -43l-43 -42h-7l-43 42l43 43h7zM470 -95l43 -43l-43 -42h-7l-43 42l43 43h7z" />
    <glyph glyph-name="uniFC92" unicode="&#xfef4;&#xfeb0;" horiz-adv-x="555" arabic-form="final" 
d="M33 -255l-5 -1q-36 0 -66 13q-33 14 -60 34v34l6 4q32 -12 57 -18t51 -6q38 0 70 19t57 53t38 80q14 48 14 102q0 47 -12 107t-33 120l3 5h44l16 -59l185 29v60h40v-152q0 -59 27 -84q26 -25 84 -25h6v-45l-15 -15h-1q-70 0 -105 38t-35 117v45l-175 -27q11 -64 11 -111
q0 -70 -16 -127q-17 -59 -43 -100q-27 -43 -64 -66q-38 -24 -79 -24zM371 -95l43 -43l-43 -42h-7l-43 42l43 43h7zM470 -95l43 -43l-43 -42h-7l-43 42l43 43h7zM154 484l43 -43l-43 -42h-7l-43 42l43 43h7z" />
    <glyph glyph-name="uniFC94" unicode="&#xfef4;&#xfee6;" horiz-adv-x="893" arabic-form="final" 
d="M306 -207l-1 3q-125 0 -193 66q-67 66 -67 180q0 42 6 81q6 40 18 80h36v-6q-21 -78 -21 -140q0 -95 58 -147t163 -52q110 0 164 51t54 152q0 44 -9 104t-24 120l2 5h45l12 -58l187 28v60h40v-152q0 -58 27 -84q26 -25 84 -25h6v-45l-15 -15h-1q-70 1 -106 39t-36 117v45
l-178 -28q9 -58 9 -102q0 -136 -66 -207q-66 -70 -194 -70zM317 373l43 -43l-43 -42h-7l-43 42l43 43h7zM714 -91l43 -43l-43 -42h-7l-43 42l43 43h7zM813 -91l43 -43l-43 -42h-7l-43 42l43 43h7z" />
    <glyph glyph-name="uniFC95" unicode="&#xfef4;&#xfef0;" horiz-adv-x="861" arabic-form="final" 
d="M601 -307l43 -43l-43 -42h-7l-43 42l43 43h7zM700 -307l43 -43l-43 -42h-7l-43 42l43 43h7zM352 -285v-3q-150 0 -228 63t-78 197q0 37 5 77q5 37 12 71h36v-6q-7 -31 -10 -69q-3 -35 -3 -67q0 -104 70 -153t207 -49q60 0 111 9q50 9 88 24t59 36t21 47q0 28 -21 45
t-72 30l-74 21q-78 21 -110 49q-33 29 -33 79q0 36 21 72t55 64q33 27 77 46q42 18 86 18q46 0 75 -22q30 -22 55 -73l33 -68q11 -24 26 -46q11 -17 26 -30q13 -11 30 -16q15 -4 36 -4h11v-45l-15 -15h-6q-25 0 -46 6t-39 21q-16 13 -34 38q-17 22 -33 57l-29 59
q-21 43 -45 61t-61 18q-35 0 -66 -10q-32 -10 -58 -27q-25 -16 -42 -39q-16 -22 -16 -45q0 -31 24 -49q23 -17 80 -34l74 -22q36 -11 60 -21t39 -24q14 -12 22 -32q7 -17 7 -44q0 -46 -25 -81t-69 -61t-103 -39q-62 -14 -130 -14z" />
    <glyph glyph-name="uniFC96" unicode="&#xfef4;&#xfef2;" horiz-adv-x="861" arabic-form="final" 
d="M207 -379l43 -43l-43 -42h-7l-43 42l43 43h7zM306 -379l43 -43l-43 -42h-7l-43 42l43 43h7zM502 -307l43 -43l-43 -42h-7l-43 42l43 43h7zM601 -307l43 -43l-43 -42h-7l-43 42l43 43h7zM352 -285v-3q-150 0 -228 63t-78 197q0 37 5 77q5 37 12 71h36v-6q-7 -31 -10 -69
q-3 -35 -3 -67q0 -104 70 -153t207 -49q60 0 111 9q50 9 88 24t59 36t21 47q0 28 -21 45t-72 30l-74 21q-78 21 -110 49q-33 29 -33 79q0 36 21 72t55 64q33 27 77 46q42 18 86 18q46 0 75 -22q30 -22 55 -73l33 -68q11 -24 26 -46q11 -17 26 -30q13 -11 30 -16q15 -4 36 -4
h11v-45l-15 -15h-6q-25 0 -46 6t-39 21q-16 13 -34 38q-17 22 -33 57l-29 59q-21 43 -45 61t-61 18q-35 0 -66 -10q-32 -10 -58 -27q-25 -16 -42 -39q-16 -22 -16 -45q0 -31 24 -49q23 -17 80 -34l74 -22q36 -11 60 -21t39 -24q14 -12 22 -32q7 -17 7 -44q0 -46 -25 -81
t-69 -61t-103 -39q-62 -14 -130 -14z" />
    <glyph glyph-name="uniFCCC" unicode="&#xfedf;&#xfee4;" horiz-adv-x="281" arabic-form="initial" 
d="M234 -45l-1 3q-20 10 -48 22q-22 10 -40 15q-21 7 -41 8q-28 2 -48 2h-72v45l15 15h57q25 0 36 -1q16 -2 33 -6l1 2q-8 21 -11 42q-3 22 -3 57v588h47v-588q0 -46 4 -69q5 -26 18 -48q20 -7 38 -15q19 -9 42 -21l45 -24l-26 -50z" />
    <glyph glyph-name="uniFCFB" unicode="&#xfeb3;&#xfef0;" horiz-adv-x="1220" arabic-form="isolated" 
d="M352 -285v-4q-150 0 -228 63t-78 197q0 37 5 77q5 37 12 71h36v-6q-7 -31 -10 -69q-3 -34 -3 -67q0 -104 70 -153t207 -49q60 0 111 9q50 9 88 24t59 36t21 47q0 29 -21 45t-72 30l-74 21q-78 21 -110 49q-33 28 -33 79q0 36 21 72t55 64q33 27 77 46q42 18 86 18
q46 0 75 -22q30 -23 54 -73l33 -68q17 -33 28 -51q14 -22 28 -33q16 -13 32 -17q18 -5 39 -5q47 0 67 23q19 22 19 83v74h40v-69q0 -48 -7 -75q27 -35 79 -35q74 0 74 88q0 35 -4 64q-5 34 -15 83l3 5h42q9 -58 11 -82q3 -33 3 -69q0 -70 -30 -109t-85 -39q-63 0 -98 47
q-15 -25 -41 -36q-27 -11 -66 -11q-30 0 -51 7q-23 7 -42 24q-19 16 -36 41q-17 24 -33 60l-29 59q-21 42 -45 60t-61 18q-35 0 -66 -10q-32 -10 -58 -27q-25 -16 -42 -39q-16 -22 -16 -45q0 -31 24 -49q23 -17 80 -34l74 -22q36 -11 60 -21t39 -24q14 -12 22 -32
q7 -17 7 -44q0 -46 -25 -81t-69 -61t-103 -39q-62 -14 -130 -14z" />
    <glyph glyph-name="uniFCFC" unicode="&#xfeb3;&#xfef2;" horiz-adv-x="1220" arabic-form="isolated" 
d="M352 -285v-4q-150 0 -228 63t-78 197q0 37 5 77q5 37 12 71h36v-6q-7 -31 -10 -69q-3 -34 -3 -67q0 -104 70 -153t207 -49q60 0 111 9q50 9 88 24t59 36t21 47q0 29 -21 45t-72 30l-74 21q-78 21 -110 49q-33 28 -33 79q0 36 21 72t55 64q33 27 77 46q42 18 86 18
q46 0 75 -22q30 -23 54 -73l33 -68q17 -33 28 -51q14 -22 28 -33q16 -13 32 -17q18 -5 39 -5q47 0 67 23q19 22 19 83v74h40v-69q0 -48 -7 -75q27 -35 79 -35q74 0 74 88q0 35 -4 64q-5 34 -15 83l3 5h42q9 -58 11 -82q3 -33 3 -69q0 -70 -30 -109t-85 -39q-63 0 -98 47
q-15 -25 -41 -36q-27 -11 -66 -11q-30 0 -51 7q-23 7 -42 24q-19 16 -36 41q-17 24 -33 60l-29 59q-21 42 -45 60t-61 18q-35 0 -66 -10q-32 -10 -58 -27q-25 -16 -42 -39q-16 -22 -16 -45q0 -31 24 -49q23 -17 80 -34l74 -22q36 -11 60 -21t39 -24q14 -12 22 -32
q7 -17 7 -44q0 -46 -25 -81t-69 -61t-103 -39q-62 -14 -130 -14zM306 -383l43 -43l-43 -42h-7l-43 42l43 43h7zM405 -383l43 -43l-43 -42h-7l-43 42l43 43h7z" />
    <glyph glyph-name="uniFCFD" unicode="&#xfeb7;&#xfef0;" horiz-adv-x="1220" arabic-form="isolated" 
d="M352 -285v-4q-150 0 -228 63t-78 197q0 37 5 77q5 37 12 71h36v-6q-7 -31 -10 -69q-3 -34 -3 -67q0 -104 70 -153t207 -49q60 0 111 9q50 9 88 24t59 36t21 47q0 29 -21 45t-72 30l-74 21q-78 21 -110 49q-33 28 -33 79q0 36 21 72t55 64q33 27 77 46q42 18 86 18
q46 0 75 -22q30 -23 54 -73l33 -68q17 -33 28 -51q14 -22 28 -33q16 -13 32 -17q18 -5 39 -5q47 0 67 23q19 22 19 83v74h40v-69q0 -48 -7 -75q27 -35 79 -35q74 0 74 88q0 35 -4 64q-5 34 -15 83l3 5h42q9 -58 11 -82q3 -33 3 -69q0 -70 -30 -109t-85 -39q-63 0 -98 47
q-15 -25 -41 -36q-27 -11 -66 -11q-30 0 -51 7q-23 7 -42 24q-19 16 -36 41q-17 24 -33 60l-29 59q-21 42 -45 60t-61 18q-35 0 -66 -10q-32 -10 -58 -27q-25 -16 -42 -39q-16 -22 -16 -45q0 -31 24 -49q23 -17 80 -34l74 -22q36 -11 60 -21t39 -24q14 -12 22 -32
q7 -17 7 -44q0 -46 -25 -81t-69 -61t-103 -39q-62 -14 -130 -14zM969 516l41 -41l-41 -41h-7l-42 41l42 41h7zM919 421l43 -43l-43 -42h-7l-43 42l43 43h7zM1018 421l43 -43l-43 -42h-7l-43 42l43 43h7z" />
    <glyph glyph-name="uniFCFE" unicode="&#xfeb7;&#xfef2;" horiz-adv-x="1220" arabic-form="isolated" 
d="M352 -285v-4q-150 0 -228 63t-78 197q0 37 5 77q5 37 12 71h36v-6q-7 -31 -10 -69q-3 -34 -3 -67q0 -104 70 -153t207 -49q60 0 111 9q50 9 88 24t59 36t21 47q0 29 -21 45t-72 30l-74 21q-78 21 -110 49q-33 28 -33 79q0 36 21 72t55 64q33 27 77 46q42 18 86 18
q46 0 75 -22q30 -23 54 -73l33 -68q17 -33 28 -51q14 -22 28 -33q16 -13 32 -17q18 -5 39 -5q47 0 67 23q19 22 19 83v74h40v-69q0 -48 -7 -75q27 -35 79 -35q74 0 74 88q0 35 -4 64q-5 34 -15 83l3 5h42q9 -58 11 -82q3 -33 3 -69q0 -70 -30 -109t-85 -39q-63 0 -98 47
q-15 -25 -41 -36q-27 -11 -66 -11q-30 0 -51 7q-23 7 -42 24q-19 16 -36 41q-17 24 -33 60l-29 59q-21 42 -45 60t-61 18q-35 0 -66 -10q-32 -10 -58 -27q-25 -16 -42 -39q-16 -22 -16 -45q0 -31 24 -49q23 -17 80 -34l74 -22q36 -11 60 -21t39 -24q14 -12 22 -32
q7 -17 7 -44q0 -46 -25 -81t-69 -61t-103 -39q-62 -14 -130 -14zM306 -383l43 -43l-43 -42h-7l-43 42l43 43h7zM405 -383l43 -43l-43 -42h-7l-43 42l43 43h7zM969 516l41 -41l-41 -41h-7l-42 41l42 41h7zM919 421l43 -43l-43 -42h-7l-43 42l43 43h7zM1018 421l43 -43
l-43 -42h-7l-43 42l43 43h7z" />
    <glyph glyph-name="uniFD05" unicode="&#xfebb;&#xfef0;" horiz-adv-x="1346" arabic-form="isolated" 
d="M1117 369l-1 -2q42 0 77 -15t60 -42t39 -63q14 -37 14 -76t-15 -72q-15 -32 -42 -55q-28 -23 -66 -35q-39 -12 -87 -12h-256q-25 0 -46 6t-39 21q-16 13 -34 38q-17 22 -33 57l-29 59q-21 43 -45 61t-61 18q-35 0 -66 -10q-32 -10 -58 -27q-25 -16 -42 -39
q-16 -22 -16 -45q0 -31 24 -49q23 -17 80 -34l74 -22q36 -11 60 -21t39 -24q14 -12 22 -32q7 -17 7 -44q0 -46 -25 -81t-69 -61t-103 -39q-62 -14 -130 -14q-150 0 -228 63t-78 197q0 37 5 77q5 37 12 71h36v-6q-7 -31 -10 -69q-3 -35 -3 -67q0 -104 70 -153t207 -49
q60 0 111 9q50 9 88 24t59 36t21 47q0 29 -21 45t-72 30l-74 21q-78 21 -110 49q-33 29 -33 79q0 36 21 72t55 64q33 27 77 46q42 18 86 18q45 0 75 -21t55 -73l33 -68q22 -45 45 -66l75 96q36 47 71 84q33 35 65 56q33 22 63 32t66 10zM1107 58v1q83 0 120 25q38 26 38 75
q0 33 -12 60q-12 28 -33 47q-21 20 -49 30q-30 11 -63 11q-32 0 -60 -9q-30 -9 -57 -28q-25 -17 -58 -50q-26 -26 -64 -74l-60 -77l1 -4q15 -7 39 -7h258z" />
    <glyph glyph-name="uniFD06" unicode="&#xfebb;&#xfef2;" horiz-adv-x="1346" arabic-form="isolated" 
d="M1117 369l-1 -2q42 0 77 -15t60 -42t39 -63q14 -37 14 -76t-15 -72q-15 -32 -42 -55q-28 -23 -66 -35q-39 -12 -87 -12h-256q-25 0 -46 6t-39 21q-16 13 -34 38q-17 22 -33 57l-29 59q-21 43 -45 61t-61 18q-35 0 -66 -10q-32 -10 -58 -27q-25 -16 -42 -39
q-16 -22 -16 -45q0 -31 24 -49q23 -17 80 -34l74 -22q36 -11 60 -21t39 -24q14 -12 22 -32q7 -17 7 -44q0 -46 -25 -81t-69 -61t-103 -39q-62 -14 -130 -14q-150 0 -228 63t-78 197q0 37 5 77q5 37 12 71h36v-6q-7 -31 -10 -69q-3 -35 -3 -67q0 -104 70 -153t207 -49
q60 0 111 9q50 9 88 24t59 36t21 47q0 29 -21 45t-72 30l-74 21q-78 21 -110 49q-33 29 -33 79q0 36 21 72t55 64q33 27 77 46q42 18 86 18q45 0 75 -21t55 -73l33 -68q22 -45 45 -66l75 96q36 47 71 84q33 35 65 56q33 22 63 32t66 10zM1107 58v1q83 0 120 25q38 26 38 75
q0 33 -12 60q-12 28 -33 47q-21 20 -49 30q-30 11 -63 11q-32 0 -60 -9q-30 -9 -57 -28q-25 -17 -58 -50q-26 -26 -64 -74l-60 -77l1 -4q15 -7 39 -7h258zM305 -380l43 -43l-43 -42h-7l-43 42l43 43h7zM404 -380l43 -43l-43 -42h-7l-43 42l43 43h7z" />
    <glyph glyph-name="uniFD07" unicode="&#xfebf;&#xfef0;" horiz-adv-x="1346" arabic-form="isolated" 
d="M1117 369l-1 -2q42 0 77 -15t60 -42t39 -63q14 -37 14 -76t-15 -72q-15 -32 -42 -55q-28 -23 -66 -35q-39 -12 -87 -12h-256q-25 0 -46 6t-39 21q-16 13 -34 38q-17 22 -33 57l-29 59q-21 43 -45 61t-61 18q-35 0 -66 -10q-32 -10 -58 -27q-25 -16 -42 -39
q-16 -22 -16 -45q0 -31 24 -49q23 -17 80 -34l74 -22q36 -11 60 -21t39 -24q14 -12 22 -32q7 -17 7 -44q0 -46 -25 -81t-69 -61t-103 -39q-62 -14 -130 -14q-150 0 -228 63t-78 197q0 37 5 77q5 37 12 71h36v-6q-7 -31 -10 -69q-3 -35 -3 -67q0 -104 70 -153t207 -49
q60 0 111 9q50 9 88 24t59 36t21 47q0 29 -21 45t-72 30l-74 21q-78 21 -110 49q-33 29 -33 79q0 36 21 72t55 64q33 27 77 46q42 18 86 18q45 0 75 -21t55 -73l33 -68q22 -45 45 -66l75 96q36 47 71 84q33 35 65 56q33 22 63 32t66 10zM1107 58v1q83 0 120 25q38 26 38 75
q0 33 -12 60q-12 28 -33 47q-21 20 -49 30q-30 11 -63 11q-32 0 -60 -9q-30 -9 -57 -28q-25 -17 -58 -50q-26 -26 -64 -74l-60 -77l1 -4q15 -7 39 -7h258zM1079 563l43 -43l-43 -42h-7l-43 42l43 43h7z" />
    <glyph glyph-name="uniFD08" unicode="&#xfebf;&#xfef2;" horiz-adv-x="1346" arabic-form="isolated" 
d="M1117 369l-1 -2q42 0 77 -15t60 -42t39 -63q14 -37 14 -76t-15 -72q-15 -32 -42 -55q-28 -23 -66 -35q-39 -12 -87 -12h-256q-25 0 -46 6t-39 21q-16 13 -34 38q-17 22 -33 57l-29 59q-21 43 -45 61t-61 18q-35 0 -66 -10q-32 -10 -58 -27q-25 -16 -42 -39
q-16 -22 -16 -45q0 -31 24 -49q23 -17 80 -34l74 -22q36 -11 60 -21t39 -24q14 -12 22 -32q7 -17 7 -44q0 -46 -25 -81t-69 -61t-103 -39q-62 -14 -130 -14q-150 0 -228 63t-78 197q0 37 5 77q5 37 12 71h36v-6q-7 -31 -10 -69q-3 -35 -3 -67q0 -104 70 -153t207 -49
q60 0 111 9q50 9 88 24t59 36t21 47q0 29 -21 45t-72 30l-74 21q-78 21 -110 49q-33 29 -33 79q0 36 21 72t55 64q33 27 77 46q42 18 86 18q45 0 75 -21t55 -73l33 -68q22 -45 45 -66l75 96q36 47 71 84q33 35 65 56q33 22 63 32t66 10zM1107 58v1q83 0 120 25q38 26 38 75
q0 33 -12 60q-12 28 -33 47q-21 20 -49 30q-30 11 -63 11q-32 0 -60 -9q-30 -9 -57 -28q-25 -17 -58 -50q-26 -26 -64 -74l-60 -77l1 -4q15 -7 39 -7h258zM1079 563l43 -43l-43 -42h-7l-43 42l43 43h7zM305 -380l43 -43l-43 -42h-7l-43 42l43 43h7zM404 -380l43 -43l-43 -42
h-7l-43 42l43 43h7z" />
    <glyph glyph-name="uniFD0D" unicode="&#xfeb7;&#xfeae;" horiz-adv-x="900" arabic-form="isolated" 
d="M33 -255l-6 -3q-36 0 -66 13q-33 14 -60 34v34l6 4q31 -12 57 -18t51 -6q38 0 70 19q34 20 57 52q25 34 38 78q14 47 14 98q0 30 -6 69q-6 37 -17 74l2 5l235 30v-50q30 -129 128 -129q50 0 70 23q19 22 19 83v74h40v-69q0 -48 -7 -75q14 -17 35 -26t45 -9q74 0 74 88
q0 35 -4 64q-5 34 -15 83l3 5h42q9 -59 11 -82q3 -33 3 -69q0 -70 -30 -109t-85 -39q-64 0 -98 46q-28 -46 -102 -46q-127 0 -174 174l-136 -18q5 -23 6 -46q2 -32 2 -43q0 -69 -16 -124q-17 -58 -43 -99q-27 -43 -64 -66q-38 -24 -79 -24zM638 517l41 -41l-41 -41h-7
l-42 41l42 41h7zM588 422l43 -43l-43 -42h-7l-43 42l43 43h7zM687 422l43 -43l-43 -42h-7l-43 42l43 43h7z" />
    <glyph glyph-name="uniFD0E" unicode="&#xfeb3;&#xfeae;" horiz-adv-x="900" arabic-form="isolated" 
d="M33 -255l-6 -3q-36 0 -66 13q-33 14 -60 34v34l6 4q31 -12 57 -18t51 -6q38 0 70 19q34 20 57 52q25 34 38 78q14 47 14 98q0 30 -6 69q-6 37 -17 74l2 5l235 30v-50q30 -129 128 -129q50 0 70 23q19 22 19 83v74h40v-69q0 -48 -7 -75q14 -17 35 -26t45 -9q74 0 74 88
q0 35 -4 64q-5 34 -15 83l3 5h42q9 -59 11 -82q3 -33 3 -69q0 -70 -30 -109t-85 -39q-64 0 -98 46q-28 -46 -102 -46q-127 0 -174 174l-136 -18q5 -23 6 -46q2 -32 2 -43q0 -69 -16 -124q-17 -58 -43 -99q-27 -43 -64 -66q-38 -24 -79 -24z" />
    <glyph glyph-name="uniFD0F" unicode="&#xfebb;&#xfeae;" horiz-adv-x="1033" arabic-form="isolated" 
d="M33 -255l-4 2q-36 0 -66 13q-33 14 -60 34v34l6 4q31 -12 57 -18t51 -6q38 0 70 19q34 20 57 52q25 34 38 78q14 47 14 98q0 30 -6 69q-6 37 -17 74l2 5l235 30v-50q6 -42 17 -66q10 -22 30 -34l82 106q36 47 71 84q33 35 65 56q33 22 63 32t66 10q42 0 77 -15t60 -42
t39 -63q14 -37 14 -76t-15 -72q-15 -32 -42 -55q-28 -23 -66 -35q-39 -12 -87 -12h-253q-71 0 -110 39q-38 38 -58 126l-136 -19q5 -23 6 -46q2 -32 2 -43q0 -69 -16 -124q-17 -58 -43 -99q-27 -43 -64 -66q-38 -24 -79 -24zM791 62l-1 1q83 0 120 25q38 26 38 75
q0 33 -12 60q-12 28 -33 47q-21 20 -49 30q-30 11 -63 11q-31 0 -60 -9q-30 -9 -57 -28q-25 -17 -58 -50q-26 -26 -64 -74l-62 -80l1 -3q25 -5 45 -5h255z" />
    <glyph glyph-name="uniFD10" unicode="&#xfebf;&#xfeae;" horiz-adv-x="1033" arabic-form="isolated" 
d="M33 -255l-4 2q-36 0 -66 13q-33 14 -60 34v34l6 4q31 -12 57 -18t51 -6q38 0 70 19q34 20 57 52q25 34 38 78q14 47 14 98q0 30 -6 69q-6 37 -17 74l2 5l235 30v-50q6 -42 17 -66q10 -22 30 -34l82 106q36 47 71 84q33 35 65 56q33 22 63 32t66 10q42 0 77 -15t60 -42
t39 -63q14 -37 14 -76t-15 -72q-15 -32 -42 -55q-28 -23 -66 -35q-39 -12 -87 -12h-253q-71 0 -110 39q-38 38 -58 126l-136 -19q5 -23 6 -46q2 -32 2 -43q0 -69 -16 -124q-17 -58 -43 -99q-27 -43 -64 -66q-38 -24 -79 -24zM791 62l-1 1q83 0 120 25q38 26 38 75
q0 33 -12 60q-12 28 -33 47q-21 20 -49 30q-30 11 -63 11q-31 0 -60 -9q-30 -9 -57 -28q-25 -17 -58 -50q-26 -26 -64 -74l-62 -80l1 -3q25 -5 45 -5h255zM762 567l43 -43l-43 -42h-7l-43 42l43 43h7z" />
    <glyph glyph-name="uniFD17" unicode="&#xfeb4;&#xfef0;" horiz-adv-x="1296" arabic-form="final" 
d="M352 -285l-5 -10q-149 0 -228 64t-79 198q0 36 5 78q5 37 12 72h36v-7q-7 -31 -10 -69q-3 -35 -3 -66q0 -104 70 -153q71 -50 207 -50q60 0 111 9q52 9 88 25q38 17 59 38t21 47q0 29 -21 45t-72 30l-74 20q-78 21 -110 49q-33 28 -33 79q0 36 21 72t55 64q33 27 77 46
q42 18 86 18q46 0 75 -22q30 -22 55 -73l33 -68q17 -33 28 -51q14 -22 28 -33q16 -13 32 -17q18 -5 39 -5q47 0 67 23q19 22 19 83v74h40v-69q0 -48 -7 -75q27 -35 79 -35q43 0 60 23t17 83v104h40v-99q0 -25 -1 -37q-1 -18 -3 -33q23 -16 56 -23q35 -8 71 -8v-44l-15 -16
q-36 0 -71 11q-33 11 -57 30q-14 -26 -36 -38t-59 -12q-63 0 -98 47q-15 -25 -41 -36q-27 -11 -66 -11q-30 0 -51 7q-23 8 -41 24q-18 17 -35 41q-15 21 -34 60l-29 59q-21 42 -45 60t-61 18q-35 0 -66 -10q-32 -10 -58 -27t-42 -39t-16 -45q0 -30 24 -48q25 -19 81 -35
l74 -21q36 -11 60 -21t39 -24q14 -12 22 -32q7 -17 7 -44q0 -46 -25 -81t-69 -61t-103 -39q-62 -14 -130 -14z" />
    <glyph glyph-name="uniFD18" unicode="&#xfeb4;&#xfef2;" horiz-adv-x="1296" arabic-form="final" 
d="M352 -285l-5 -10q-149 0 -228 64t-79 198q0 36 5 78q5 37 12 72h36v-7q-7 -31 -10 -69q-3 -35 -3 -66q0 -104 70 -153q71 -50 207 -50q60 0 111 9q52 9 88 25q38 17 59 38t21 47q0 29 -21 45t-72 30l-74 20q-78 21 -110 49q-33 28 -33 79q0 36 21 72t55 64q33 27 77 46
q42 18 86 18q46 0 75 -22q30 -22 55 -73l33 -68q17 -33 28 -51q14 -22 28 -33q16 -13 32 -17q18 -5 39 -5q47 0 67 23q19 22 19 83v74h40v-69q0 -48 -7 -75q27 -35 79 -35q43 0 60 23t17 83v104h40v-99q0 -25 -1 -37q-1 -18 -3 -33q23 -16 56 -23q35 -8 71 -8v-44l-15 -16
q-36 0 -71 11q-33 11 -57 30q-14 -26 -36 -38t-59 -12q-63 0 -98 47q-15 -25 -41 -36q-27 -11 -66 -11q-30 0 -51 7q-23 8 -41 24q-18 17 -35 41q-15 21 -34 60l-29 59q-21 42 -45 60t-61 18q-35 0 -66 -10q-32 -10 -58 -27t-42 -39t-16 -45q0 -30 24 -48q25 -19 81 -35
l74 -21q36 -11 60 -21t39 -24q14 -12 22 -32q7 -17 7 -44q0 -46 -25 -81t-69 -61t-103 -39q-62 -14 -130 -14zM301 -389l43 -43l-43 -42h-7l-43 42l43 43h7zM400 -389l43 -43l-43 -42h-7l-43 42l43 43h7z" />
    <glyph glyph-name="uniFD19" unicode="&#xfeb8;&#xfef0;" horiz-adv-x="1296" arabic-form="final" 
d="M352 -285l-5 -10q-149 0 -228 64t-79 198q0 36 5 78q5 37 12 72h36v-7q-7 -31 -10 -69q-3 -35 -3 -66q0 -104 70 -153q71 -50 207 -50q60 0 111 9q52 9 88 25q38 17 59 38t21 47q0 29 -21 45t-72 30l-74 20q-78 21 -110 49q-33 28 -33 79q0 36 21 72t55 64q33 27 77 46
q42 18 86 18q46 0 75 -22q30 -22 55 -73l33 -68q17 -33 28 -51q14 -22 28 -33q16 -13 32 -17q18 -5 39 -5q47 0 67 23q19 22 19 83v74h40v-69q0 -48 -7 -75q27 -35 79 -35q43 0 60 23t17 83v104h40v-99q0 -25 -1 -37q-1 -18 -3 -33q23 -16 56 -23q35 -8 71 -8v-44l-15 -16
q-36 0 -71 11q-33 11 -57 30q-14 -26 -36 -38t-59 -12q-63 0 -98 47q-15 -25 -41 -36q-27 -11 -66 -11q-30 0 -51 7q-23 8 -41 24q-18 17 -35 41q-15 21 -34 60l-29 59q-21 42 -45 60t-61 18q-35 0 -66 -10q-32 -10 -58 -27t-42 -39t-16 -45q0 -30 24 -48q25 -19 81 -35
l74 -21q36 -11 60 -21t39 -24q14 -12 22 -32q7 -17 7 -44q0 -46 -25 -81t-69 -61t-103 -39q-62 -14 -130 -14zM964 510l41 -41l-41 -41h-7l-42 41l42 41h7zM914 415l43 -43l-43 -42h-7l-43 42l43 43h7zM1013 415l43 -43l-43 -42h-7l-43 42l43 43h7z" />
    <glyph glyph-name="uniFD1A" unicode="&#xfeb8;&#xfef2;" horiz-adv-x="1296" arabic-form="final" 
d="M352 -285l-5 -10q-149 0 -228 64t-79 198q0 36 5 78q5 37 12 72h36v-7q-7 -31 -10 -69q-3 -35 -3 -66q0 -104 70 -153q71 -50 207 -50q60 0 111 9q52 9 88 25q38 17 59 38t21 47q0 29 -21 45t-72 30l-74 20q-78 21 -110 49q-33 28 -33 79q0 36 21 72t55 64q33 27 77 46
q42 18 86 18q46 0 75 -22q30 -22 55 -73l33 -68q17 -33 28 -51q14 -22 28 -33q16 -13 32 -17q18 -5 39 -5q47 0 67 23q19 22 19 83v74h40v-69q0 -48 -7 -75q27 -35 79 -35q43 0 60 23t17 83v104h40v-99q0 -25 -1 -37q-1 -18 -3 -33q23 -16 56 -23q35 -8 71 -8v-44l-15 -16
q-36 0 -71 11q-33 11 -57 30q-14 -26 -36 -38t-59 -12q-63 0 -98 47q-15 -25 -41 -36q-27 -11 -66 -11q-30 0 -51 7q-23 8 -41 24q-18 17 -35 41q-15 21 -34 60l-29 59q-21 42 -45 60t-61 18q-35 0 -66 -10q-32 -10 -58 -27t-42 -39t-16 -45q0 -30 24 -48q25 -19 81 -35
l74 -21q36 -11 60 -21t39 -24q14 -12 22 -32q7 -17 7 -44q0 -46 -25 -81t-69 -61t-103 -39q-62 -14 -130 -14zM301 -389l43 -43l-43 -42h-7l-43 42l43 43h7zM400 -389l43 -43l-43 -42h-7l-43 42l43 43h7zM964 510l41 -41l-41 -41h-7l-42 41l42 41h7zM914 415l43 -43l-43 -42
h-7l-43 42l43 43h7zM1013 415l43 -43l-43 -42h-7l-43 42l43 43h7z" />
    <glyph glyph-name="uniFD21" unicode="&#xfebc;&#xfef0;" horiz-adv-x="1415" arabic-form="final" 
d="M1288 95l-1 -3q31 -20 63 -27q29 -7 65 -7v-47l-12 -13q-37 0 -73 12t-73 43q-28 -25 -69 -40q-40 -15 -93 -15h-256q-25 0 -46 6t-39 21q-16 13 -34 38q-16 23 -33 57l-29 59q-21 43 -45 61t-61 18q-35 0 -66 -10q-32 -10 -58 -27t-42 -39t-16 -45q0 -31 24 -49
q23 -17 80 -34l74 -22q36 -10 60 -21t39 -24q14 -12 22 -32q7 -17 7 -44q0 -46 -25 -81t-69 -61t-103 -39q-62 -14 -130 -14q-150 0 -228 63t-78 197q0 37 5 77q5 37 12 71h36v-6q-7 -31 -10 -69q-3 -34 -3 -67q0 -104 70 -153t207 -49q60 0 111 9q50 9 88 24t59 36t21 47
q0 28 -21 45t-72 30l-74 21q-78 21 -110 49q-33 29 -33 79q0 36 21 72t55 64q33 27 77 46q42 18 86 18q45 0 75 -21t55 -73l33 -68q23 -45 45 -66l75 96q36 47 71 84q33 35 65 56q33 22 63 32t66 10q42 0 77 -15t60 -42t39 -63q14 -37 14 -76q0 -44 -18 -79zM1107 57v1
q83 0 120 25q38 26 38 75q0 33 -12 60q-12 28 -33 47q-21 20 -49 30q-30 11 -63 11q-32 0 -60 -9q-30 -9 -57 -28q-25 -17 -58 -50q-26 -26 -64 -74l-60 -77l1 -4q15 -7 39 -7h258z" />
    <glyph glyph-name="uniFD22" unicode="&#xfebc;&#xfef2;" horiz-adv-x="1415" arabic-form="final" 
d="M1288 95l-1 -3q31 -20 63 -27q29 -7 65 -7v-47l-12 -13q-37 0 -73 12t-73 43q-28 -25 -69 -40q-40 -15 -93 -15h-256q-25 0 -46 6t-39 21q-16 13 -34 38q-16 23 -33 57l-29 59q-21 43 -45 61t-61 18q-35 0 -66 -10q-32 -10 -58 -27t-42 -39t-16 -45q0 -31 24 -49
q23 -17 80 -34l74 -22q36 -10 60 -21t39 -24q14 -12 22 -32q7 -17 7 -44q0 -46 -25 -81t-69 -61t-103 -39q-62 -14 -130 -14q-150 0 -228 63t-78 197q0 37 5 77q5 37 12 71h36v-6q-7 -31 -10 -69q-3 -34 -3 -67q0 -104 70 -153t207 -49q60 0 111 9q50 9 88 24t59 36t21 47
q0 28 -21 45t-72 30l-74 21q-78 21 -110 49q-33 29 -33 79q0 36 21 72t55 64q33 27 77 46q42 18 86 18q45 0 75 -21t55 -73l33 -68q23 -45 45 -66l75 96q36 47 71 84q33 35 65 56q33 22 63 32t66 10q42 0 77 -15t60 -42t39 -63q14 -37 14 -76q0 -44 -18 -79zM1107 57v1
q83 0 120 25q38 26 38 75q0 33 -12 60q-12 28 -33 47q-21 20 -49 30q-30 11 -63 11q-32 0 -60 -9q-30 -9 -57 -28q-25 -17 -58 -50q-26 -26 -64 -74l-60 -77l1 -4q15 -7 39 -7h258zM305 -381l43 -43l-43 -42h-7l-43 42l43 43h7zM404 -381l43 -43l-43 -42h-7l-43 42l43 43h7z
" />
    <glyph glyph-name="uniFD23" unicode="&#xfec0;&#xfef0;" horiz-adv-x="1415" arabic-form="final" 
d="M1288 95l-1 -3q31 -20 63 -27q29 -7 65 -7v-47l-12 -13q-37 0 -73 12t-73 43q-28 -25 -69 -40q-40 -15 -93 -15h-256q-25 0 -46 6t-39 21q-16 13 -34 38q-16 23 -33 57l-29 59q-21 43 -45 61t-61 18q-35 0 -66 -10q-32 -10 -58 -27t-42 -39t-16 -45q0 -31 24 -49
q23 -17 80 -34l74 -22q36 -10 60 -21t39 -24q14 -12 22 -32q7 -17 7 -44q0 -46 -25 -81t-69 -61t-103 -39q-62 -14 -130 -14q-150 0 -228 63t-78 197q0 37 5 77q5 37 12 71h36v-6q-7 -31 -10 -69q-3 -34 -3 -67q0 -104 70 -153t207 -49q60 0 111 9q50 9 88 24t59 36t21 47
q0 28 -21 45t-72 30l-74 21q-78 21 -110 49q-33 29 -33 79q0 36 21 72t55 64q33 27 77 46q42 18 86 18q45 0 75 -21t55 -73l33 -68q23 -45 45 -66l75 96q36 47 71 84q33 35 65 56q33 22 63 32t66 10q42 0 77 -15t60 -42t39 -63q14 -37 14 -76q0 -44 -18 -79zM1107 57v1
q83 0 120 25q38 26 38 75q0 33 -12 60q-12 28 -33 47q-21 20 -49 30q-30 11 -63 11q-32 0 -60 -9q-30 -9 -57 -28q-25 -17 -58 -50q-26 -26 -64 -74l-60 -77l1 -4q15 -7 39 -7h258zM1079 562l43 -43l-43 -42h-7l-43 42l43 43h7z" />
    <glyph glyph-name="uniFD24" unicode="&#xfec0;&#xfef2;" horiz-adv-x="1415" arabic-form="final" 
d="M1288 95l-1 -3q31 -20 63 -27q29 -7 65 -7v-47l-12 -13q-37 0 -73 12t-73 43q-28 -25 -69 -40q-40 -15 -93 -15h-256q-25 0 -46 6t-39 21q-16 13 -34 38q-16 23 -33 57l-29 59q-21 43 -45 61t-61 18q-35 0 -66 -10q-32 -10 -58 -27t-42 -39t-16 -45q0 -31 24 -49
q23 -17 80 -34l74 -22q36 -10 60 -21t39 -24q14 -12 22 -32q7 -17 7 -44q0 -46 -25 -81t-69 -61t-103 -39q-62 -14 -130 -14q-150 0 -228 63t-78 197q0 37 5 77q5 37 12 71h36v-6q-7 -31 -10 -69q-3 -34 -3 -67q0 -104 70 -153t207 -49q60 0 111 9q50 9 88 24t59 36t21 47
q0 28 -21 45t-72 30l-74 21q-78 21 -110 49q-33 29 -33 79q0 36 21 72t55 64q33 27 77 46q42 18 86 18q45 0 75 -21t55 -73l33 -68q23 -45 45 -66l75 96q36 47 71 84q33 35 65 56q33 22 63 32t66 10q42 0 77 -15t60 -42t39 -63q14 -37 14 -76q0 -44 -18 -79zM1107 57v1
q83 0 120 25q38 26 38 75q0 33 -12 60q-12 28 -33 47q-21 20 -49 30q-30 11 -63 11q-32 0 -60 -9q-30 -9 -57 -28q-25 -17 -58 -50q-26 -26 -64 -74l-60 -77l1 -4q15 -7 39 -7h258zM1079 562l43 -43l-43 -42h-7l-43 42l43 43h7zM305 -381l43 -43l-43 -42h-7l-43 42l43 43h7z
M404 -381l43 -43l-43 -42h-7l-43 42l43 43h7z" />
    <glyph glyph-name="uniFD29" unicode="&#xfeb8;&#xfeae;" horiz-adv-x="974" arabic-form="final" 
d="M33 -255l-7 -3q-36 0 -66 13q-33 14 -60 34v34l6 4q32 -12 57 -18t51 -6q38 0 70 19q34 20 57 52q25 34 38 78q14 47 14 98q0 30 -6 69q-6 37 -17 74l2 5l235 30v-50q30 -129 130 -129q49 0 69 23q19 22 19 83v74h40v-69q0 -48 -7 -75q26 -35 81 -35q41 0 57 22t16 84
v104h40v-99q0 -40 -6 -70q23 -16 56 -23q35 -8 71 -8v-43l-15 -17q-36 0 -71 11q-33 11 -57 30q-26 -50 -91 -50q-33 0 -58 12t-42 35q-29 -47 -102 -47q-127 0 -174 174l-136 -18q5 -23 6 -46q2 -32 2 -43q0 -69 -16 -124q-17 -58 -43 -99q-27 -43 -64 -66q-38 -24 -79 -24
zM642 517l41 -41l-41 -41h-7l-42 41l42 41h7zM592 422l43 -43l-43 -42h-7l-43 42l43 43h7zM691 422l43 -43l-43 -42h-7l-43 42l43 43h7z" />
    <glyph glyph-name="uniFD2A" unicode="&#xfeb4;&#xfeae;" horiz-adv-x="974" arabic-form="final" 
d="M33 -255l-7 -3q-36 0 -66 13q-33 14 -60 34v34l6 4q32 -12 57 -18t51 -6q38 0 70 19q34 20 57 52q25 34 38 78q14 47 14 98q0 30 -6 69q-6 37 -17 74l2 5l235 30v-50q30 -129 130 -129q49 0 69 23q19 22 19 83v74h40v-69q0 -48 -7 -75q26 -35 81 -35q41 0 57 22t16 84
v104h40v-99q0 -40 -6 -70q23 -16 56 -23q35 -8 71 -8v-43l-15 -17q-36 0 -71 11q-33 11 -57 30q-26 -50 -91 -50q-33 0 -58 12t-42 35q-29 -47 -102 -47q-127 0 -174 174l-136 -18q5 -23 6 -46q2 -32 2 -43q0 -69 -16 -124q-17 -58 -43 -99q-27 -43 -64 -66q-38 -24 -79 -24
z" />
    <glyph glyph-name="uniFD2B" unicode="&#xfebc;&#xfeae;" horiz-adv-x="1102" arabic-form="final" 
d="M33 -255l-2 1q-36 0 -66 13q-33 14 -60 34v34l6 4q31 -12 57 -18t51 -6q38 0 70 19q34 20 57 52q25 34 38 78q14 47 14 98q0 30 -6 69q-6 37 -17 74l2 5l235 30v-50q6 -42 17 -66q10 -22 30 -34l82 106q36 47 71 84q33 35 65 56q33 22 63 32t66 10q42 0 77 -15t60 -42
t39 -63q14 -37 14 -76q0 -43 -19 -77q34 -22 65 -30q28 -7 62 -7v-47l-12 -13q-37 0 -73 12q-34 11 -73 44q-28 -25 -69 -40t-93 -15h-253q-71 0 -110 39q-38 38 -58 126l-136 -19q5 -23 6 -46q2 -32 2 -43q0 -69 -16 -124q-17 -58 -43 -99q-27 -43 -64 -66q-38 -24 -79 -24
zM793 61l-1 1q83 0 120 25q38 26 38 75q0 33 -12 60q-12 28 -33 47q-21 20 -49 30q-30 11 -63 11q-31 0 -60 -9q-30 -9 -57 -28q-25 -17 -58 -50q-26 -26 -64 -74l-62 -80l1 -3q25 -5 45 -5h255z" />
    <glyph glyph-name="uniFD2C" unicode="&#xfec0;&#xfeae;" horiz-adv-x="1102" arabic-form="final" 
d="M33 -255l-2 1q-36 0 -66 13q-33 14 -60 34v34l6 4q31 -12 57 -18t51 -6q38 0 70 19q34 20 57 52q25 34 38 78q14 47 14 98q0 30 -6 69q-6 37 -17 74l2 5l235 30v-50q6 -42 17 -66q10 -22 30 -34l82 106q36 47 71 84q33 35 65 56q33 22 63 32t66 10q42 0 77 -15t60 -42
t39 -63q14 -37 14 -76q0 -43 -19 -77q34 -22 65 -30q28 -7 62 -7v-47l-12 -13q-37 0 -73 12q-34 11 -73 44q-28 -25 -69 -40t-93 -15h-253q-71 0 -110 39q-38 38 -58 126l-136 -19q5 -23 6 -46q2 -32 2 -43q0 -69 -16 -124q-17 -58 -43 -99q-27 -43 -64 -66q-38 -24 -79 -24
zM793 61l-1 1q83 0 120 25q38 26 38 75q0 33 -12 60q-12 28 -33 47q-21 20 -49 30q-30 11 -63 11q-31 0 -60 -9q-30 -9 -57 -28q-25 -17 -58 -50q-26 -26 -64 -74l-62 -80l1 -3q25 -5 45 -5h255zM764 566l43 -43l-43 -42h-7l-43 42l43 43h7z" />
    <glyph glyph-name="uniFDF2" unicode="&#x627;&#xfedf;&#xfee0;&#xfeea;" horiz-adv-x="1211" arabic-form="isolated" 
d="M618 1000v-181h-32v181h32zM544 636l-2 1q-27 0 -42 15t-15 44q0 3 2 21q1 13 6 24h27v-6l-3 -15q-1 -5 -1 -14q0 -31 30 -31q21 0 31 16t10 51v40h29v-50q14 -10 33 -10q33 0 33 33q0 21 -11 57v6h30q6 -22 8 -33q3 -16 3 -32q0 -31 -13 -50q-14 -20 -45 -20
q-25 0 -42 14q-13 -61 -68 -61zM1124 746v-745h-47v745h47zM449 -9l-8 -3q-66 1 -97 34q-32 33 -39 90l-1 1q-28 -34 -64 -49t-75 -15q-34 0 -58 10q-25 10 -43 27q-18 16 -27 39t-9 48q0 53 39 93q40 41 115 84l121 70v74h42v-327q0 -56 26 -88q25 -31 89 -31q35 0 68 14
q32 14 57 36q-9 32 -9 72v412h47v-412q0 -59 29 -91q28 -31 92 -31q59 0 86 30t27 89v508h47v-508q0 -94 -40 -135q-40 -42 -118 -42q-56 0 -93 20q-36 20 -54 57q-25 -34 -63 -55t-87 -21zM167 108h-1q41 0 74 12q35 13 59 34v215l-104 -56q-33 -18 -61 -36
q-26 -16 -40 -31q-14 -14 -22 -30q-7 -14 -7 -32q0 -38 30 -57q29 -19 72 -19z" />
    <glyph glyph-name="uniFEF5" unicode="&#xfedf;&#xfe82;" horiz-adv-x="506" arabic-form="isolated" 
d="M378 302h1q48 -47 68 -79q21 -34 21 -76q0 -69 -45 -108t-121 -39h-260v57l267 234l-267 240v62l5 3l299 -265q22 33 31 78q9 44 9 113v223h47v-223q0 -40 -3 -72q-3 -31 -9 -58q-6 -29 -16 -48q-11 -21 -27 -42zM301 60v1q59 0 93 23q33 22 33 60q0 26 -21 51
q-23 28 -67 69l-227 -202v-2h189zM41 667l-1 -1q10 11 27 19q15 7 34 7q14 0 29 -3l30 -6l27 -6q13 -3 27 -3q30 0 47 11h6v-32q-11 -7 -24 -12q-12 -4 -30 -4q-17 0 -32 3q-20 4 -29 6q-18 4 -26 6q-12 3 -25 3q-15 0 -30 -5q-14 -5 -23 -15h-7v32z" />
    <glyph glyph-name="uniFEF6" unicode="&#xfee0;&#xfe82;" horiz-adv-x="562" arabic-form="final" 
d="M171 -7h-2q-38 0 -74 3q-41 3 -71 10v47h136q25 0 36 1q22 2 32 3l-129 550v6h50l128 -549q74 18 120 70q-2 14 -2 19v20v572h47v-567q0 -63 27 -90t92 -27v-45l-15 -15q-116 1 -141 96q-41 -56 -96 -80t-138 -24zM1 707l-1 -1q10 11 27 19q15 7 34 7q14 0 29 -3l30 -6
l27 -6q13 -3 27 -3q30 0 47 11h6v-32q-11 -7 -24 -12q-12 -4 -30 -4q-17 0 -32 3q-20 4 -29 6q-18 4 -26 6q-12 3 -25 3q-15 0 -30 -5q-14 -5 -23 -15h-7v32z" />
    <glyph glyph-name="uniFEF7" unicode="&#xfedf;&#xfe84;" horiz-adv-x="506" arabic-form="isolated" 
d="M378 302h1q48 -47 68 -79q21 -34 21 -76q0 -69 -45 -108t-121 -39h-260v57l267 234l-267 240v62l5 3l299 -265q22 33 31 78q9 44 9 113v223h47v-223q0 -40 -3 -72q-3 -31 -9 -58q-6 -29 -16 -48q-11 -21 -27 -42zM301 60v1q59 0 93 23q33 22 33 60q0 26 -21 51
q-23 28 -67 69l-227 -202v-2h189zM99 684v2q-7 10 -12 24q-4 12 -4 24q0 19 7 33t20 27q11 11 29 19q15 7 36 7q54 0 54 -54v-21h-29v9q0 29 -31 29q-22 0 -39 -14t-17 -33q0 -13 8 -27q7 -13 21 -25h104v-37h-184v37h37z" />
    <glyph glyph-name="uniFEF8" unicode="&#xfee0;&#xfe84;" horiz-adv-x="562" arabic-form="final" 
d="M171 -7h-2q-38 0 -74 3q-41 3 -71 10v47h136q25 0 36 1q22 2 32 3l-129 550v6h50l128 -549q74 18 120 70q-2 14 -2 19v20v572h47v-567q0 -63 27 -90t92 -27v-45l-15 -15q-116 1 -141 96q-41 -56 -96 -80t-138 -24zM58 724v2q-8 10 -12 24q-4 12 -4 24q0 19 7 33t20 27
q11 11 29 19q15 7 36 7q54 0 54 -54v-21h-29v9q0 29 -31 29q-22 0 -39 -14t-17 -33q0 -13 8 -27q7 -13 21 -25h104v-37h-184v37h37z" />
    <glyph glyph-name="uniFEF9" unicode="&#xfedf;&#xfe88;" horiz-adv-x="506" arabic-form="isolated" 
d="M378 302h1q48 -47 68 -79q21 -34 21 -76q0 -69 -45 -108t-121 -39h-260v57l267 234l-267 240v62l5 3l299 -265q22 33 31 78q9 44 9 113v223h47v-223q0 -40 -3 -72q-3 -31 -9 -58q-6 -29 -16 -48q-11 -21 -27 -42zM301 60v1q59 0 93 23q33 22 33 60q0 26 -21 51
q-23 28 -67 69l-227 -202v-2h189zM111 -197v2q-7 11 -12 24q-4 12 -4 24q0 19 7 33t20 27q11 11 29 19q15 7 36 7q54 0 54 -54v-21h-29v9q0 29 -31 29q-22 0 -39 -14t-17 -33q0 -13 8 -27q7 -13 21 -25h104v-37h-184v37h37z" />
    <glyph glyph-name="uniFEFA" unicode="&#xfee0;&#xfe88;" horiz-adv-x="562" arabic-form="final" 
d="M171 -7h-2q-38 0 -74 3q-41 3 -71 10v47h136q25 0 36 1q22 2 32 3l-129 550v6h50l128 -549q74 18 120 70q-2 14 -2 19v20v572h47v-567q0 -63 27 -90t92 -27v-45l-15 -15q-116 1 -141 96q-41 -56 -96 -80t-138 -24zM188 -198v2q-8 10 -12 24q-4 12 -4 24q0 19 7 33t20 27
q11 11 29 19q15 7 36 7q54 0 54 -54v-21h-29v9q0 29 -31 29q-22 0 -39 -14t-17 -33q0 -13 8 -27q7 -13 21 -25h104v-37h-184v37h37z" />
    <glyph glyph-name="uniFEFB" unicode="&#xfedf;&#xfe8e;" horiz-adv-x="506" arabic-form="isolated" 
d="M378 302h1q48 -47 68 -79q21 -34 21 -76q0 -69 -45 -108t-121 -39h-260v57l267 234l-267 240v62l5 3l299 -265q22 33 31 78q9 44 9 113v223h47v-223q0 -40 -3 -72q-3 -31 -9 -58q-6 -29 -16 -48q-11 -21 -27 -42zM301 60v1q59 0 93 23q33 22 33 60q0 26 -21 51
q-23 28 -67 69l-227 -202v-2h189z" />
    <glyph glyph-name="uniFEFC" unicode="&#xfee0;&#xfe8e;" horiz-adv-x="562" arabic-form="final" 
d="M171 -7h-2q-38 0 -74 3q-41 3 -71 10v47h136q25 0 36 1q22 2 32 3l-129 550v6h50l128 -549q74 18 120 70q-2 14 -2 19v20v572h47v-567q0 -63 27 -90t92 -27v-45l-15 -15q-116 1 -141 96q-41 -56 -96 -80t-138 -24z" />
    <glyph glyph-name="f_b" unicode="fb" horiz-adv-x="821" 
d="M520 36l-4 1q98 0 149 52q51 53 51 160q0 103 -48 151t-137 48h-31v29q11 4 27 5q24 2 37 2q100 0 157 -60t57 -168q0 -124 -66 -190t-187 -66h-138v669q0 13 -3 22q-3 10 -12 14q-9 5 -27 6q-24 2 -49 2q-68 0 -97 -24q-28 -24 -28 -89v-125h122v-36h-122v-385
q0 -21 19 -21h66v-34h-214v34h53q19 0 19 21v385h-82v36h63q19 0 19 21v74q0 95 46 138q47 44 132 44q40 0 75 -3q39 -3 58 -7q21 -4 21 -24v-682h74z" />
    <glyph glyph-name="f_f" unicode="ff" horiz-adv-x="599" 
d="M331 34l51 -2q19 0 19 21v385h-232v-385q0 -21 19 -21h66v-34h-214v34h53q19 0 19 21v385h-82v36h63q19 0 19 21v78q0 85 40 131q41 47 114 47q15 0 35 -2q12 -1 27 -5v-47h-7q-9 4 -28 7q-18 3 -41 3q-45 0 -63 -24t-18 -81v-127h213q19 0 19 21v78q0 85 40 131
q41 47 112 47q15 0 35 -2q12 -1 27 -5v-47h-7q-9 4 -28 7q-18 3 -41 3q-45 0 -63 -24t-18 -81v-127h121v-36h-121v-385q0 -21 19 -21h66v-34h-214v34z" />
    <glyph glyph-name="f_h" unicode="fh" horiz-adv-x="841" 
d="M42 34h52q19 0 19 21v385h-82v36h63q19 0 19 21v74q0 95 46 138q47 44 132 44q41 0 75 -3q39 -3 58 -7q21 -5 21 -24v-298h3q25 25 65 45t89 20q137 0 137 -137v-294q0 -21 20 -21h53v-34h-202v34h54q19 0 19 21v281q0 56 -25 81t-78 25q-42 0 -78 -18q-35 -18 -58 -42
v-327q0 -21 19 -21h53v-34h-201v34h53q19 0 19 21v615q0 13 -3 22q-3 10 -12 14t-27 6q-24 2 -49 2q-68 0 -97 -24q-28 -24 -28 -89v-125h122v-36h-122v-385q0 -21 19 -21h58v-34h-206v34z" />
    <glyph glyph-name="f_j" unicode="fj" horiz-adv-x="558" 
d="M42 34l51 -1q19 0 19 21v385h-82v36h63q19 0 19 21v78q0 85 40 131q41 47 114 47q15 0 35 -2q12 -1 27 -5v-47h-7q-9 4 -28 7q-18 3 -41 3q-45 0 -63 -24t-18 -81v-127h267q19 0 19 -21v-531q0 -69 -40 -109t-115 -40v35q50 0 74 27t24 85v497q0 21 -19 21h-210v-385
q0 -21 19 -21h66v-34h-214v34zM384 630v-2q0 41 40 41q20 0 30 -10q11 -11 11 -30t-11 -30q-10 -10 -30 -10q-40 0 -40 41z" />
    <glyph glyph-name="f_k" unicode="fk" horiz-adv-x="790" 
d="M456 249l156 157l11 11q6 6 6 12q0 11 -15 11h-47v34h196v-34h-19q-24 0 -43 -8q-17 -7 -37 -27l-148 -145l185 -192q16 -16 36 -25q18 -8 45 -10v-34h-34q-31 0 -55 11q-22 10 -42 32zM41 33h51q19 0 19 21v385h-82v36h63q19 0 19 21v74q0 95 46 138q47 44 132 44
q41 0 75 -3q39 -3 58 -7q21 -4 21 -24v-663q0 -21 19 -21h53v-34h-201v34h53q19 0 19 21v614q0 13 -3 22q-3 10 -12 14q-9 5 -27 6q-24 2 -49 2q-69 0 -97 -24t-28 -89v-125h122v-36h-122v-385q0 -21 19 -21h58v-34h-206v34z" />
    <glyph glyph-name="f_f_b" unicode="ffb" horiz-adv-x="1110" 
d="M808 36h-6q99 0 150 52t51 160q0 103 -48 151t-137 48h-31v29q11 4 27 5q24 2 37 2q100 0 157 -60t57 -168q0 -124 -66 -190t-187 -66h-137v669q0 13 -3 22q-3 10 -13 14q-11 5 -28 6q-24 2 -49 2q-68 0 -97 -24q-28 -24 -28 -89v-125h121v-36h-121v-385q0 -21 19 -21h64
v-34h-212v34h53q19 0 19 21v385h-232v-385q0 -21 19 -21h66v-34h-214v34h53q19 0 19 21v385h-82v36h63q19 0 19 21v78q0 85 40 131q41 47 114 47q15 0 35 -2q12 -1 27 -5v-47h-7q-9 4 -28 7q-18 3 -41 3q-45 0 -63 -24t-18 -81v-127h213q19 0 19 21v74q0 95 46 138
q47 44 132 44q40 0 75 -3q40 -4 59 -7q21 -4 21 -24v-682h73z" />
    <glyph glyph-name="f_f_h" unicode="ffh" horiz-adv-x="1130" 
d="M331 34l50 -1q19 0 19 21v385h-232v-385q0 -21 19 -21h66v-34h-214v34h53q19 0 19 21v385h-82v36h63q19 0 19 21v78q0 85 40 131q41 47 114 47q15 0 35 -2q12 -1 27 -5v-47h-7q-9 4 -28 7q-18 3 -41 3q-45 0 -63 -24t-18 -81v-127h213q19 0 19 21v74q0 95 46 138
q47 44 132 44q40 0 75 -3q40 -4 59 -7q21 -5 21 -24v-298h3q25 25 65 45q38 19 89 19q137 0 137 -137v-293q0 -21 19 -21h54v-34h-202v34h53q20 0 20 21v281q0 56 -25 80q-26 24 -78 24q-42 0 -78 -17q-34 -16 -57 -41v-327q0 -21 19 -21h53v-34h-201v34h53q19 0 19 21v615
q0 13 -3 22q-3 10 -13 14q-11 5 -28 6q-24 2 -49 2q-69 0 -97 -24t-28 -89v-125h121v-36h-121v-385q0 -21 19 -21h58v-34h-206v34z" />
    <glyph glyph-name="f_f_i" unicode="ffi" horiz-adv-x="857" 
d="M620 34l51 -2q19 0 19 21v364q0 21 -19 21h-213v-385q0 -21 19 -21h66v-34h-214v34h53q19 0 19 21v385h-232v-385q0 -21 19 -21h66v-34h-214v34h53q19 0 19 21v385h-82v36h63q19 0 19 21v78q0 85 40 131q41 47 114 47q15 0 35 -2q12 -1 27 -5v-47h-7q-9 4 -28 7
q-18 3 -41 3q-45 0 -63 -24t-18 -81v-127h213q19 0 19 21v78q0 85 40 131q41 47 112 47q15 0 35 -2q12 -1 27 -5v-47h-7q-9 4 -28 7q-18 3 -41 3q-45 0 -63 -24t-18 -81v-127h270q19 0 19 -21v-400q0 -21 19 -21h53v-34h-201v34zM675 629v-2q0 19 11 30t30 11q20 0 30 -10
q11 -11 11 -30t-11 -30q-10 -10 -30 -10q-19 0 -30 11t-11 30z" />
    <glyph glyph-name="f_f_j" unicode="ffj" horiz-adv-x="847" 
d="M331 34l51 -2q19 0 19 21v385h-232v-385q0 -21 19 -21h66v-34h-214v34h53q19 0 19 21v385h-82v36h63q19 0 19 21v78q0 85 40 131q41 47 114 47q15 0 35 -2q12 -1 27 -5v-47h-7q-9 4 -28 7q-18 3 -41 3q-45 0 -63 -24t-18 -81v-127h213q19 0 19 21v78q0 85 40 131
q41 47 112 47q15 0 35 -2q12 -1 27 -5v-47h-7q-9 4 -28 7q-18 3 -41 3q-45 0 -63 -24t-18 -81v-127h267q19 0 19 -21v-531q0 -69 -40 -109t-115 -40v35q50 0 74 27t24 85v497q0 21 -19 21h-210v-385q0 -21 19 -21h66v-34h-214v34zM672 629v-2q0 19 11 30t30 11q20 0 30 -10
q11 -11 11 -30t-11 -30q-10 -10 -30 -10q-19 0 -30 11t-11 30z" />
    <glyph glyph-name="f_f_k" unicode="ffk" horiz-adv-x="1079" 
d="M331 34l50 -1q19 0 19 21v385h-232v-385q0 -21 19 -21h66v-34h-214v34h53q19 0 19 21v385h-82v36h63q19 0 19 21v78q0 85 40 131q41 47 114 47q15 0 35 -2q12 -1 27 -5v-47h-7q-9 4 -28 7q-18 3 -41 3q-45 0 -63 -24t-18 -81v-127h213q19 0 19 21v74q0 95 46 138
q47 44 132 44q40 0 75 -3q40 -4 59 -7q21 -5 21 -24v-663q0 -21 19 -21h53v-34h-201v34h53q19 0 19 21v614q0 13 -3 22q-3 10 -13 14q-11 5 -28 6q-24 2 -49 2q-69 0 -97 -24t-28 -89v-125h121v-36h-121v-385q0 -21 19 -21h58v-34h-206v34zM742 248l155 157l11 11q6 6 6 12
q0 11 -15 11h-48v34h197v-34h-19q-24 0 -43 -8q-17 -7 -37 -27l-149 -145l186 -192q16 -16 36 -25q18 -8 45 -10v-34h-34q-33 0 -55 11q-21 11 -41 32z" />
    <glyph glyph-name="f_f_l" unicode="ffl" horiz-adv-x="836" 
d="M331 34l50 -1q19 0 19 21v385h-232v-385q0 -21 19 -21h66v-34h-214v34h53q19 0 19 21v385h-82v36h63q19 0 19 21v78q0 85 40 131q41 47 114 47q15 0 35 -2q12 -1 27 -5v-47h-7q-9 4 -28 7q-18 3 -41 3q-45 0 -63 -24t-18 -81v-127h213q19 0 19 21v74q0 95 46 138
q47 44 132 44q40 0 75 -3q40 -4 59 -7q21 -5 21 -24v-663q0 -21 19 -21h53v-34h-201v34h53q19 0 19 21v614q0 13 -3 22q-3 10 -13 14q-11 5 -28 6q-24 2 -49 2q-69 0 -97 -24t-28 -89v-125h121v-36h-121v-385q0 -21 19 -21h58v-34h-206v34z" />
    <glyph glyph-name="f_y" unicode="fy" horiz-adv-x="762" 
d="M286 -186l8 -2q12 -2 19 -3t21 -1q56 0 89 27q34 28 56 87l24 63l-157 430q-5 11 -12 17q-8 6 -27 6h-136v-385q0 -21 19 -21h66v-34h-214v34h53q19 0 19 21v385h-82v36h63q19 0 19 21v78q0 85 40 131q41 47 114 47q15 0 35 -2q13 -1 26 -5v-47h-6q-9 4 -28 7
q-18 3 -41 3q-45 0 -63 -24t-18 -81v-127h294v-34h-46q-17 0 -17 -13q0 -2 2 -10q1 -4 3 -14l122 -343h2l122 343q2 10 3 14q2 8 2 11q0 13 -17 13h-46v34h166v-34h-24q-19 0 -27 -6q-7 -6 -12 -20l-183 -501q-22 -64 -67 -106t-124 -42h-21q-7 0 -19 2v45z" />
    <glyph glyph-name="f_yacute" unicode="f&#xfd;" horiz-adv-x="762" 
d="M286 -186l9 -1q7 -1 18 -3q7 -1 21 -1q56 0 89 27q34 28 56 87l24 63l-157 431q-4 10 -12 16t-27 6h-136v-385q0 -21 19 -21h66v-34h-214v34h53q19 0 19 21v385h-82v36h63q19 0 19 21v78q0 85 40 131q41 47 114 47q15 0 35 -2q12 -1 27 -5v-47h-7q-9 4 -28 7q-18 3 -41 3
q-45 0 -63 -24t-18 -81v-127h293v-34h-45q-18 0 -18 -13q0 -9 7 -24l122 -344h2l122 344q2 10 3 14q2 8 2 10q0 13 -17 13h-46v34h166v-34h-25q-19 0 -27 -6q-7 -6 -12 -20l-183 -501q-22 -64 -67 -106t-124 -42h-21q-7 0 -19 2v45zM494 571v-2q21 20 57 56l42 42l24 24
q6 4 8 5q4 2 9 2q10 0 18 -9q8 -10 8 -18q0 -11 -10 -18q-4 -5 -27 -21t-48 -33q-30 -19 -66 -45z" />
    <glyph glyph-name="f_ydieresis" unicode="f&#xff;" horiz-adv-x="762" 
d="M286 -186l9 -1q7 -1 18 -3q7 -1 21 -1q56 0 89 27q34 28 56 87l24 63l-157 431q-4 10 -12 16t-27 6h-136v-385q0 -21 19 -21h66v-34h-214v34h53q19 0 19 21v385h-82v36h63q19 0 19 21v78q0 85 40 131q41 47 114 47q15 0 35 -2q12 -1 27 -5v-47h-7q-9 4 -28 7q-18 3 -41 3
q-45 0 -63 -24t-18 -81v-127h293v-34h-45q-18 0 -18 -13q0 -9 7 -24l122 -344h2l122 344q2 10 3 14q2 8 2 10q0 13 -17 13h-46v34h166v-34h-25q-19 0 -27 -6q-7 -6 -12 -20l-183 -501q-22 -64 -67 -106t-124 -42h-21q-7 0 -19 2v45zM425 612h-2q0 17 9 26t26 9t26 -9t9 -26
t-9 -26t-25 -9t-25 9t-9 26zM573 612l-1 -1q0 35 35 35q17 0 26 -9t9 -26t-9 -26t-25 -9q-35 0 -35 36z" />
    <glyph glyph-name="uni06440671" unicode="&#xfedf;&#xfb51;" horiz-adv-x="506" 
d="M378 302h1q48 -47 68 -79q21 -34 21 -76q0 -69 -45 -108t-121 -39h-260v57l267 234l-267 240v62l5 3l299 -265q22 33 31 78q9 44 9 113v223h47v-223q0 -40 -3 -72q-3 -31 -9 -58q-6 -29 -16 -48q-11 -21 -27 -42zM301 60v1q59 0 93 23q33 22 33 60q0 26 -21 51
q-23 28 -67 69l-227 -202v-2h189zM212 787l-3 -3q32 0 51 -22t19 -54t-21 -51q-22 -20 -54 -20q-28 0 -54 9t-51 9q-15 0 -30 -5q-14 -5 -23 -15h-7v32q10 11 27 19q15 7 34 7q9 0 12 -1q22 49 47 73q23 22 53 22zM203 673v4q22 0 33 8t11 21q0 17 -12 29t-32 12
q-19 0 -36 -15t-30 -46l33 -9q15 -4 33 -4z" />
    <glyph glyph-name="uni06440671.fina" unicode="&#xfee0;&#xfb51;" horiz-adv-x="562" 
d="M171 -7h-2q-38 0 -74 3q-41 3 -71 10v47h136q25 0 36 1q22 2 32 3l-129 550v6h50l128 -549q74 18 120 70q-2 14 -2 19v20v572h47v-567q0 -63 27 -90t92 -27v-45l-15 -15q-116 1 -141 96q-41 -56 -96 -80t-138 -24zM172 827l-3 -3q32 0 51 -22t19 -54t-21 -51
q-22 -20 -54 -20q-28 0 -54 9t-51 9q-15 0 -30 -5q-14 -5 -23 -15h-7v32q10 11 27 19q15 7 34 7q9 0 12 -1q22 49 47 73q23 22 53 22zM163 713v4q22 0 33 8t11 21q0 17 -12 29t-32 12q-19 0 -36 -15t-30 -46l33 -9q15 -4 33 -4z" />
    <glyph glyph-name="uni06330632" unicode="&#xfeb3;&#xfeb0;" horiz-adv-x="900" 
d="M33 -255l-6 -3q-36 0 -66 13q-33 14 -60 34v34l6 4q31 -12 57 -18t51 -6q38 0 70 19q34 20 57 52q25 34 38 78q14 47 14 98q0 30 -6 69q-6 37 -17 74l2 5l235 30v-50q30 -129 128 -129q50 0 70 23q19 22 19 83v74h40v-69q0 -48 -7 -75q14 -17 35 -26t45 -9q74 0 74 88
q0 35 -4 64q-5 34 -15 83l3 5h42q9 -59 11 -82q3 -33 3 -69q0 -70 -30 -109t-85 -39q-64 0 -98 46q-28 -46 -102 -46q-127 0 -174 174l-136 -18q5 -23 6 -46q2 -32 2 -43q0 -69 -16 -124q-17 -58 -43 -99q-27 -43 -64 -66q-38 -24 -79 -24zM170 392l43 -43l-43 -42h-7
l-43 42l43 43h7z" />
    <glyph glyph-name="uni06340632" unicode="&#xfeb7;&#xfeb0;" horiz-adv-x="900" 
d="M33 -255l-6 -3q-36 0 -66 13q-33 14 -60 34v34l6 4q31 -12 57 -18t51 -6q38 0 70 19q34 20 57 52q25 34 38 78q14 47 14 98q0 30 -6 69q-6 37 -17 74l2 5l235 30v-50q30 -129 128 -129q50 0 70 23q19 22 19 83v74h40v-69q0 -48 -7 -75q14 -17 35 -26t45 -9q74 0 74 88
q0 35 -4 64q-5 34 -15 83l3 5h42q9 -59 11 -82q3 -33 3 -69q0 -70 -30 -109t-85 -39q-64 0 -98 46q-28 -46 -102 -46q-127 0 -174 174l-136 -18q5 -23 6 -46q2 -32 2 -43q0 -69 -16 -124q-17 -58 -43 -99q-27 -43 -64 -66q-38 -24 -79 -24zM638 517l41 -41l-41 -41h-7
l-42 41l42 41h7zM588 422l43 -43l-43 -42h-7l-43 42l43 43h7zM687 422l43 -43l-43 -42h-7l-43 42l43 43h7zM170 392l43 -43l-43 -42h-7l-43 42l43 43h7z" />
    <glyph glyph-name="uni06330632.fina" unicode="&#xfeb4;&#xfeb0;" horiz-adv-x="974" 
d="M33 -255l-7 -3q-36 0 -66 13q-33 14 -60 34v34l6 4q32 -12 57 -18t51 -6q38 0 70 19q34 20 57 52q25 34 38 78q14 47 14 98q0 30 -6 69q-6 37 -17 74l2 5l235 30v-50q30 -129 130 -129q49 0 69 23q19 22 19 83v74h40v-69q0 -48 -7 -75q26 -35 81 -35q41 0 57 22t16 84
v104h40v-99q0 -40 -6 -70q23 -16 56 -23q35 -8 71 -8v-43l-15 -17q-36 0 -71 11q-33 11 -57 30q-26 -50 -91 -50q-33 0 -58 12t-42 35q-29 -47 -102 -47q-127 0 -174 174l-136 -18q5 -23 6 -46q2 -32 2 -43q0 -69 -16 -124q-17 -58 -43 -99q-27 -43 -64 -66q-38 -24 -79 -24
zM169 392l43 -43l-43 -42h-7l-43 42l43 43h7z" />
    <glyph glyph-name="uni06340632.fina" unicode="&#xfeb8;&#xfeb0;" horiz-adv-x="974" 
d="M33 -255l-7 -3q-36 0 -66 13q-33 14 -60 34v34l6 4q32 -12 57 -18t51 -6q38 0 70 19q34 20 57 52q25 34 38 78q14 47 14 98q0 30 -6 69q-6 37 -17 74l2 5l235 30v-50q30 -129 130 -129q49 0 69 23q19 22 19 83v74h40v-69q0 -48 -7 -75q26 -35 81 -35q41 0 57 22t16 84
v104h40v-99q0 -40 -6 -70q23 -16 56 -23q35 -8 71 -8v-43l-15 -17q-36 0 -71 11q-33 11 -57 30q-26 -50 -91 -50q-33 0 -58 12t-42 35q-29 -47 -102 -47q-127 0 -174 174l-136 -18q5 -23 6 -46q2 -32 2 -43q0 -69 -16 -124q-17 -58 -43 -99q-27 -43 -64 -66q-38 -24 -79 -24
zM642 517l41 -41l-41 -41h-7l-42 41l42 41h7zM592 422l43 -43l-43 -42h-7l-43 42l43 43h7zM691 422l43 -43l-43 -42h-7l-43 42l43 43h7zM169 392l43 -43l-43 -42h-7l-43 42l43 43h7z" />
    <glyph glyph-name="uni06330626" unicode="&#xfeb3;&#xfe8a;" horiz-adv-x="1220" 
d="M352 -285v-4q-150 0 -228 63t-78 197q0 37 5 77q5 37 12 71h36v-6q-7 -31 -10 -69q-3 -34 -3 -67q0 -104 70 -153t207 -49q60 0 111 9q50 9 88 24t59 36t21 47q0 29 -21 45t-72 30l-74 21q-78 21 -110 49q-33 28 -33 79q0 36 21 72t55 64q33 27 77 46q42 18 86 18
q46 0 75 -22q30 -23 54 -73l33 -68q17 -33 28 -51q14 -22 28 -33q16 -13 32 -17q18 -5 39 -5q47 0 67 23q19 22 19 83v74h40v-69q0 -48 -7 -75q27 -35 79 -35q74 0 74 88q0 35 -4 64q-5 34 -15 83l3 5h42q9 -58 11 -82q3 -33 3 -69q0 -70 -30 -109t-85 -39q-63 0 -98 47
q-15 -25 -41 -36q-27 -11 -66 -11q-30 0 -51 7q-23 7 -42 24q-19 16 -36 41q-17 24 -33 60l-29 59q-21 42 -45 60t-61 18q-35 0 -66 -10q-32 -10 -58 -27q-25 -16 -42 -39q-16 -22 -16 -45q0 -31 24 -49q23 -17 80 -34l74 -22q36 -11 60 -21t39 -24q14 -12 22 -32
q7 -17 7 -44q0 -46 -25 -81t-69 -61t-103 -39q-62 -14 -130 -14zM27 231v2q-7 11 -12 24q-4 12 -4 24q0 19 7 33t20 27q11 11 29 19q15 7 36 7q54 0 54 -54v-21h-29v9q0 29 -31 29q-22 0 -39 -14t-17 -33q0 -13 8 -27q7 -13 21 -25h104v-37h-184v37h37z" />
    <glyph glyph-name="uni06340626" unicode="&#xfeb7;&#xfe8a;" horiz-adv-x="1220" 
d="M352 -285v-4q-150 0 -228 63t-78 197q0 37 5 77q5 37 12 71h36v-6q-7 -31 -10 -69q-3 -34 -3 -67q0 -104 70 -153t207 -49q60 0 111 9q50 9 88 24t59 36t21 47q0 29 -21 45t-72 30l-74 21q-78 21 -110 49q-33 28 -33 79q0 36 21 72t55 64q33 27 77 46q42 18 86 18
q46 0 75 -22q30 -23 54 -73l33 -68q17 -33 28 -51q14 -22 28 -33q16 -13 32 -17q18 -5 39 -5q47 0 67 23q19 22 19 83v74h40v-69q0 -48 -7 -75q27 -35 79 -35q74 0 74 88q0 35 -4 64q-5 34 -15 83l3 5h42q9 -58 11 -82q3 -33 3 -69q0 -70 -30 -109t-85 -39q-63 0 -98 47
q-15 -25 -41 -36q-27 -11 -66 -11q-30 0 -51 7q-23 7 -42 24q-19 16 -36 41q-17 24 -33 60l-29 59q-21 42 -45 60t-61 18q-35 0 -66 -10q-32 -10 -58 -27q-25 -16 -42 -39q-16 -22 -16 -45q0 -31 24 -49q23 -17 80 -34l74 -22q36 -11 60 -21t39 -24q14 -12 22 -32
q7 -17 7 -44q0 -46 -25 -81t-69 -61t-103 -39q-62 -14 -130 -14zM969 516l41 -41l-41 -41h-7l-42 41l42 41h7zM919 421l43 -43l-43 -42h-7l-43 42l43 43h7zM1018 421l43 -43l-43 -42h-7l-43 42l43 43h7zM27 231v2q-7 11 -12 24q-4 12 -4 24q0 19 7 33t20 27q11 11 29 19
q15 7 36 7q54 0 54 -54v-21h-29v9q0 29 -31 29q-22 0 -39 -14t-17 -33q0 -13 8 -27q7 -13 21 -25h104v-37h-184v37h37z" />
    <glyph glyph-name="uni06330626.fina" unicode="&#xfeb4;&#xfe8a;" horiz-adv-x="1296" 
d="M352 -285l-5 -10q-149 0 -228 64t-79 198q0 36 5 78q5 37 12 72h36v-7q-7 -31 -10 -69q-3 -35 -3 -66q0 -104 70 -153q71 -50 207 -50q60 0 111 9q52 9 88 25q38 17 59 38t21 47q0 29 -21 45t-72 30l-74 20q-78 21 -110 49q-33 28 -33 79q0 36 21 72t55 64q33 27 77 46
q42 18 86 18q46 0 75 -22q30 -22 55 -73l33 -68q17 -33 28 -51q14 -22 28 -33q16 -13 32 -17q18 -5 39 -5q47 0 67 23q19 22 19 83v74h40v-69q0 -48 -7 -75q27 -35 79 -35q43 0 60 23t17 83v104h40v-99q0 -25 -1 -37q-1 -18 -3 -33q23 -16 56 -23q35 -8 71 -8v-44l-15 -16
q-36 0 -71 11q-33 11 -57 30q-14 -26 -36 -38t-59 -12q-63 0 -98 47q-15 -25 -41 -36q-27 -11 -66 -11q-30 0 -51 7q-23 8 -41 24q-18 17 -35 41q-15 21 -34 60l-29 59q-21 42 -45 60t-61 18q-35 0 -66 -10q-32 -10 -58 -27t-42 -39t-16 -45q0 -30 24 -48q25 -19 81 -35
l74 -21q36 -11 60 -21t39 -24q14 -12 22 -32q7 -17 7 -44q0 -46 -25 -81t-69 -61t-103 -39q-62 -14 -130 -14zM22 225v2q-8 11 -12 24q-4 12 -4 24q0 19 7 33t20 27q11 11 29 19q15 7 36 7q54 0 54 -54v-21h-29v9q0 29 -31 29q-22 0 -39 -14t-17 -33q0 -13 8 -27
q7 -13 21 -25h104v-37h-184v37h37z" />
    <glyph glyph-name="uni06340626.fina" unicode="&#xfeb8;&#xfe8a;" horiz-adv-x="1296" 
d="M352 -285l-5 -10q-149 0 -228 64t-79 198q0 36 5 78q5 37 12 72h36v-7q-7 -31 -10 -69q-3 -35 -3 -66q0 -104 70 -153q71 -50 207 -50q60 0 111 9q52 9 88 25q38 17 59 38t21 47q0 29 -21 45t-72 30l-74 20q-78 21 -110 49q-33 28 -33 79q0 36 21 72t55 64q33 27 77 46
q42 18 86 18q46 0 75 -22q30 -22 55 -73l33 -68q17 -33 28 -51q14 -22 28 -33q16 -13 32 -17q18 -5 39 -5q47 0 67 23q19 22 19 83v74h40v-69q0 -48 -7 -75q27 -35 79 -35q43 0 60 23t17 83v104h40v-99q0 -25 -1 -37q-1 -18 -3 -33q23 -16 56 -23q35 -8 71 -8v-44l-15 -16
q-36 0 -71 11q-33 11 -57 30q-14 -26 -36 -38t-59 -12q-63 0 -98 47q-15 -25 -41 -36q-27 -11 -66 -11q-30 0 -51 7q-23 8 -41 24q-18 17 -35 41q-15 21 -34 60l-29 59q-21 42 -45 60t-61 18q-35 0 -66 -10q-32 -10 -58 -27t-42 -39t-16 -45q0 -30 24 -48q25 -19 81 -35
l74 -21q36 -11 60 -21t39 -24q14 -12 22 -32q7 -17 7 -44q0 -46 -25 -81t-69 -61t-103 -39q-62 -14 -130 -14zM964 510l41 -41l-41 -41h-7l-42 41l42 41h7zM914 415l43 -43l-43 -42h-7l-43 42l43 43h7zM1013 415l43 -43l-43 -42h-7l-43 42l43 43h7zM22 225v2q-8 11 -12 24
q-4 12 -4 24q0 19 7 33t20 27q11 11 29 19q15 7 36 7q54 0 54 -54v-21h-29v9q0 29 -31 29q-22 0 -39 -14t-17 -33q0 -13 8 -27q7 -13 21 -25h104v-37h-184v37h37z" />
    <glyph glyph-name="uni06350632" unicode="&#xfebb;&#xfeb0;" horiz-adv-x="1033" 
d="M33 -255l-4 2q-36 0 -66 13q-33 14 -60 34v34l6 4q31 -12 57 -18t51 -6q38 0 70 19q34 20 57 52q25 34 38 78q14 47 14 98q0 30 -6 69q-6 37 -17 74l2 5l235 30v-50q6 -42 17 -66q10 -22 30 -34l82 106q36 47 71 84q33 35 65 56q33 22 63 32t66 10q42 0 77 -15t60 -42
t39 -63q14 -37 14 -76t-15 -72q-15 -32 -42 -55q-28 -23 -66 -35q-39 -12 -87 -12h-253q-71 0 -110 39q-38 38 -58 126l-136 -19q5 -23 6 -46q2 -32 2 -43q0 -69 -16 -124q-17 -58 -43 -99q-27 -43 -64 -66q-38 -24 -79 -24zM791 62l-1 1q83 0 120 25q38 26 38 75
q0 33 -12 60q-12 28 -33 47q-21 20 -49 30q-30 11 -63 11q-31 0 -60 -9q-30 -9 -57 -28q-25 -17 -58 -50q-26 -26 -64 -74l-62 -80l1 -3q25 -5 45 -5h255zM173 398l43 -43l-43 -42h-7l-43 42l43 43h7z" />
    <glyph glyph-name="uni06360632" unicode="&#xfebf;&#xfeb0;" horiz-adv-x="1033" 
d="M33 -255l-4 2q-36 0 -66 13q-33 14 -60 34v34l6 4q31 -12 57 -18t51 -6q38 0 70 19q34 20 57 52q25 34 38 78q14 47 14 98q0 30 -6 69q-6 37 -17 74l2 5l235 30v-50q6 -42 17 -66q10 -22 30 -34l82 106q36 47 71 84q33 35 65 56q33 22 63 32t66 10q42 0 77 -15t60 -42
t39 -63q14 -37 14 -76t-15 -72q-15 -32 -42 -55q-28 -23 -66 -35q-39 -12 -87 -12h-253q-71 0 -110 39q-38 38 -58 126l-136 -19q5 -23 6 -46q2 -32 2 -43q0 -69 -16 -124q-17 -58 -43 -99q-27 -43 -64 -66q-38 -24 -79 -24zM791 62l-1 1q83 0 120 25q38 26 38 75
q0 33 -12 60q-12 28 -33 47q-21 20 -49 30q-30 11 -63 11q-31 0 -60 -9q-30 -9 -57 -28q-25 -17 -58 -50q-26 -26 -64 -74l-62 -80l1 -3q25 -5 45 -5h255zM123 398l43 -43l-43 -42h-7l-43 42l43 43h7zM712 567l43 -43l-43 -42h-7l-43 42l43 43h7z" />
    <glyph glyph-name="uni06350632.fina" unicode="&#xfebc;&#xfeb0;" horiz-adv-x="1102" 
d="M33 -255l-2 1q-36 0 -66 13q-33 14 -60 34v34l6 4q31 -12 57 -18t51 -6q38 0 70 19q34 20 57 52q25 34 38 78q14 47 14 98q0 30 -6 69q-6 37 -17 74l2 5l235 30v-50q6 -42 17 -66q10 -22 30 -34l82 106q36 47 71 84q33 35 65 56q33 22 63 32t66 10q42 0 77 -15t60 -42
t39 -63q14 -37 14 -76q0 -43 -19 -77q34 -22 65 -30q28 -7 62 -7v-47l-12 -13q-37 0 -73 12q-34 11 -73 44q-28 -25 -69 -40t-93 -15h-253q-71 0 -110 39q-38 38 -58 126l-136 -19q5 -23 6 -46q2 -32 2 -43q0 -69 -16 -124q-17 -58 -43 -99q-27 -43 -64 -66q-38 -24 -79 -24
zM793 61l-1 1q83 0 120 25q38 26 38 75q0 33 -12 60q-12 28 -33 47q-21 20 -49 30q-30 11 -63 11q-31 0 -60 -9q-30 -9 -57 -28q-25 -17 -58 -50q-26 -26 -64 -74l-62 -80l1 -3q25 -5 45 -5h255zM175 397l43 -43l-43 -42h-7l-43 42l43 43h7z" />
    <glyph glyph-name="uni06360632.fina" unicode="&#xfec0;&#xfeb0;" horiz-adv-x="1102" 
d="M33 -255l-2 1q-36 0 -66 13q-33 14 -60 34v34l6 4q31 -12 57 -18t51 -6q38 0 70 19q34 20 57 52q25 34 38 78q14 47 14 98q0 30 -6 69q-6 37 -17 74l2 5l235 30v-50q6 -42 17 -66q10 -22 30 -34l82 106q36 47 71 84q33 35 65 56q33 22 63 32t66 10q42 0 77 -15t60 -42
t39 -63q14 -37 14 -76q0 -43 -19 -77q34 -22 65 -30q28 -7 62 -7v-47l-12 -13q-37 0 -73 12q-34 11 -73 44q-28 -25 -69 -40t-93 -15h-253q-71 0 -110 39q-38 38 -58 126l-136 -19q5 -23 6 -46q2 -32 2 -43q0 -69 -16 -124q-17 -58 -43 -99q-27 -43 -64 -66q-38 -24 -79 -24
zM793 61l-1 1q83 0 120 25q38 26 38 75q0 33 -12 60q-12 28 -33 47q-21 20 -49 30q-30 11 -63 11q-31 0 -60 -9q-30 -9 -57 -28q-25 -17 -58 -50q-26 -26 -64 -74l-62 -80l1 -3q25 -5 45 -5h255zM125 397l43 -43l-43 -42h-7l-43 42l43 43h7zM714 566l43 -43l-43 -42h-7
l-43 42l43 43h7z" />
    <glyph glyph-name="uni06350626" unicode="&#xfebb;&#xfe8a;" horiz-adv-x="1346" 
d="M1117 369l-1 -2q42 0 77 -15t60 -42t39 -63q14 -37 14 -76t-15 -72q-15 -32 -42 -55q-28 -23 -66 -35q-39 -12 -87 -12h-256q-25 0 -46 6t-39 21q-16 13 -34 38q-17 22 -33 57l-29 59q-21 43 -45 61t-61 18q-35 0 -66 -10q-32 -10 -58 -27q-25 -16 -42 -39
q-16 -22 -16 -45q0 -31 24 -49q23 -17 80 -34l74 -22q36 -11 60 -21t39 -24q14 -12 22 -32q7 -17 7 -44q0 -46 -25 -81t-69 -61t-103 -39q-62 -14 -130 -14q-150 0 -228 63t-78 197q0 37 5 77q5 37 12 71h36v-6q-7 -31 -10 -69q-3 -35 -3 -67q0 -104 70 -153t207 -49
q60 0 111 9q50 9 88 24t59 36t21 47q0 29 -21 45t-72 30l-74 21q-78 21 -110 49q-33 29 -33 79q0 36 21 72t55 64q33 27 77 46q42 18 86 18q45 0 75 -21t55 -73l33 -68q22 -45 45 -66l75 96q36 47 71 84q33 35 65 56q33 22 63 32t66 10zM1107 58v1q83 0 120 25q38 26 38 75
q0 33 -12 60q-12 28 -33 47q-21 20 -49 30q-30 11 -63 11q-32 0 -60 -9q-30 -9 -57 -28q-25 -17 -58 -50q-26 -26 -64 -74l-60 -77l1 -4q15 -7 39 -7h258zM26 234v2q-8 10 -12 24q-4 12 -4 24q0 19 7 33t20 27q11 11 29 19q15 7 36 7q54 0 54 -54v-21h-29v9q0 29 -31 29
q-22 0 -39 -14t-17 -33q0 -13 8 -27q7 -13 21 -25h104v-37h-184v37h37z" />
    <glyph glyph-name="uni06360626" unicode="&#xfebf;&#xfe8a;" horiz-adv-x="1346" 
d="M1117 369l-1 -2q42 0 77 -15t60 -42t39 -63q14 -37 14 -76t-15 -72q-15 -32 -42 -55q-28 -23 -66 -35q-39 -12 -87 -12h-256q-25 0 -46 6t-39 21q-16 13 -34 38q-17 22 -33 57l-29 59q-21 43 -45 61t-61 18q-35 0 -66 -10q-32 -10 -58 -27q-25 -16 -42 -39
q-16 -22 -16 -45q0 -31 24 -49q23 -17 80 -34l74 -22q36 -11 60 -21t39 -24q14 -12 22 -32q7 -17 7 -44q0 -46 -25 -81t-69 -61t-103 -39q-62 -14 -130 -14q-150 0 -228 63t-78 197q0 37 5 77q5 37 12 71h36v-6q-7 -31 -10 -69q-3 -35 -3 -67q0 -104 70 -153t207 -49
q60 0 111 9q50 9 88 24t59 36t21 47q0 29 -21 45t-72 30l-74 21q-78 21 -110 49q-33 29 -33 79q0 36 21 72t55 64q33 27 77 46q42 18 86 18q45 0 75 -21t55 -73l33 -68q22 -45 45 -66l75 96q36 47 71 84q33 35 65 56q33 22 63 32t66 10zM1107 58v1q83 0 120 25q38 26 38 75
q0 33 -12 60q-12 28 -33 47q-21 20 -49 30q-30 11 -63 11q-32 0 -60 -9q-30 -9 -57 -28q-25 -17 -58 -50q-26 -26 -64 -74l-60 -77l1 -4q15 -7 39 -7h258zM26 234v2q-8 10 -12 24q-4 12 -4 24q0 19 7 33t20 27q11 11 29 19q15 7 36 7q54 0 54 -54v-21h-29v9q0 29 -31 29
q-22 0 -39 -14t-17 -33q0 -13 8 -27q7 -13 21 -25h104v-37h-184v37h37zM1079 565l43 -43l-43 -42h-7l-43 42l43 43h7z" />
    <glyph glyph-name="uni06350626.fina" unicode="&#xfebc;&#xfe8a;" horiz-adv-x="1415" 
d="M1288 95l-1 -3q31 -20 63 -27q29 -7 65 -7v-47l-12 -13q-37 0 -73 12t-73 43q-28 -25 -69 -40q-40 -15 -93 -15h-256q-25 0 -46 6t-39 21q-16 13 -34 38q-16 23 -33 57l-29 59q-21 43 -45 61t-61 18q-35 0 -66 -10q-32 -10 -58 -27t-42 -39t-16 -45q0 -31 24 -49
q23 -17 80 -34l74 -22q36 -10 60 -21t39 -24q14 -12 22 -32q7 -17 7 -44q0 -46 -25 -81t-69 -61t-103 -39q-62 -14 -130 -14q-150 0 -228 63t-78 197q0 37 5 77q5 37 12 71h36v-6q-7 -31 -10 -69q-3 -34 -3 -67q0 -104 70 -153t207 -49q60 0 111 9q50 9 88 24t59 36t21 47
q0 28 -21 45t-72 30l-74 21q-78 21 -110 49q-33 29 -33 79q0 36 21 72t55 64q33 27 77 46q42 18 86 18q45 0 75 -21t55 -73l33 -68q23 -45 45 -66l75 96q36 47 71 84q33 35 65 56q33 22 63 32t66 10q42 0 77 -15t60 -42t39 -63q14 -37 14 -76q0 -44 -18 -79zM1107 57v1
q83 0 120 25q38 26 38 75q0 33 -12 60q-12 28 -33 47q-21 20 -49 30q-30 11 -63 11q-32 0 -60 -9q-30 -9 -57 -28q-25 -17 -58 -50q-26 -26 -64 -74l-60 -77l1 -4q15 -7 39 -7h258zM26 233v2q-8 11 -12 24q-4 12 -4 24q0 19 7 33t20 27q11 11 29 19q15 7 36 7q54 0 54 -54
v-21h-29v9q0 29 -31 29q-22 0 -39 -14t-17 -33q0 -13 8 -27q7 -13 21 -25h104v-37h-184v37h37z" />
    <glyph glyph-name="uni06360626.fina" unicode="&#xfec0;&#xfe8a;" horiz-adv-x="1415" 
d="M1288 95l-1 -3q31 -20 63 -27q29 -7 65 -7v-47l-12 -13q-37 0 -73 12t-73 43q-28 -25 -69 -40q-40 -15 -93 -15h-256q-25 0 -46 6t-39 21q-16 13 -34 38q-16 23 -33 57l-29 59q-21 43 -45 61t-61 18q-35 0 -66 -10q-32 -10 -58 -27t-42 -39t-16 -45q0 -31 24 -49
q23 -17 80 -34l74 -22q36 -10 60 -21t39 -24q14 -12 22 -32q7 -17 7 -44q0 -46 -25 -81t-69 -61t-103 -39q-62 -14 -130 -14q-150 0 -228 63t-78 197q0 37 5 77q5 37 12 71h36v-6q-7 -31 -10 -69q-3 -34 -3 -67q0 -104 70 -153t207 -49q60 0 111 9q50 9 88 24t59 36t21 47
q0 28 -21 45t-72 30l-74 21q-78 21 -110 49q-33 29 -33 79q0 36 21 72t55 64q33 27 77 46q42 18 86 18q45 0 75 -21t55 -73l33 -68q23 -45 45 -66l75 96q36 47 71 84q33 35 65 56q33 22 63 32t66 10q42 0 77 -15t60 -42t39 -63q14 -37 14 -76q0 -44 -18 -79zM1107 57v1
q83 0 120 25q38 26 38 75q0 33 -12 60q-12 28 -33 47q-21 20 -49 30q-30 11 -63 11q-32 0 -60 -9q-30 -9 -57 -28q-25 -17 -58 -50q-26 -26 -64 -74l-60 -77l1 -4q15 -7 39 -7h258zM26 233v2q-8 11 -12 24q-4 12 -4 24q0 19 7 33t20 27q11 11 29 19q15 7 36 7q54 0 54 -54
v-21h-29v9q0 29 -31 29q-22 0 -39 -14t-17 -33q0 -13 8 -27q7 -13 21 -25h104v-37h-184v37h37zM1079 564l43 -43l-43 -42h-7l-43 42l43 43h7z" />
    <glyph glyph-name="uni06430626" unicode="&#xfedb;&#xfe8a;" horiz-adv-x="749" 
d="M376 -234l-3 -6q-169 0 -249 67q-81 67 -81 210q0 40 6 79q5 33 14 74h36v-6q-8 -38 -11 -71q-3 -36 -3 -69q0 -112 72 -165q73 -53 220 -53q55 0 105 8q48 8 81 22q35 15 53 35q18 19 18 45q0 16 -9 30q-10 15 -28 23q-19 9 -51 15q-26 5 -80 10l-67 5v57l4 4l71 -6
q73 -5 108 16q36 21 36 62q0 15 -6 30q-7 18 -16 32q-9 15 -29 36q-24 26 -43 45l-140 139v59l415 252h6v-54l-372 -226l98 -103q35 -35 59 -62t39 -51q14 -22 22 -47q7 -21 7 -46q0 -77 -76 -108v-3q47 -14 69 -40q23 -28 23 -64q0 -40 -21 -73q-20 -32 -60 -55
q-41 -23 -94 -35q-55 -12 -123 -12zM25 300v2q-7 10 -12 24q-4 12 -4 24q0 19 7 33t20 27q11 11 29 19q15 7 36 7q54 0 54 -54v-21h-29v9q0 29 -31 29q-22 0 -39 -14t-17 -33q0 -13 8 -27q7 -13 21 -25h104v-37h-184v37h37z" />
    <glyph glyph-name="uni06A9064A" unicode="&#xfb90;&#xfef2;" horiz-adv-x="749" 
d="M376 -234l-3 -6q-169 0 -249 67q-81 67 -81 210q0 40 6 79q5 33 14 74h36v-6q-8 -38 -11 -71q-3 -36 -3 -69q0 -112 72 -165q73 -53 220 -53q55 0 105 8q48 8 81 22q35 15 53 35q18 19 18 45q0 16 -9 30q-10 15 -28 23q-19 9 -51 15q-26 5 -80 10l-67 5v57l4 4l71 -6
q73 -5 108 16q36 21 36 62q0 15 -6 30q-7 18 -16 32q-9 15 -29 36q-24 26 -43 45l-140 139v59l415 252h6v-54l-372 -226l98 -103q35 -35 59 -62t39 -51q14 -22 22 -47q7 -21 7 -46q0 -77 -76 -108v-3q47 -14 69 -40q23 -28 23 -64q0 -40 -21 -73q-20 -32 -60 -55
q-41 -23 -94 -35q-55 -12 -123 -12zM327 -334l43 -43l-43 -42h-7l-43 42l43 43h7zM426 -334l43 -43l-43 -42h-7l-43 42l43 43h7z" />
    <glyph glyph-name="uni06AF0649" unicode="&#xfb94;&#xfef0;" horiz-adv-x="749" 
d="M376 -234l-3 -6q-169 0 -249 67q-81 67 -81 210q0 40 6 79q5 33 14 74h36v-6q-8 -38 -11 -71q-3 -36 -3 -69q0 -112 72 -165q73 -53 220 -53q55 0 105 8q48 8 81 22q35 15 53 35q18 19 18 45q0 16 -9 30q-10 15 -28 23q-19 9 -51 15q-26 5 -80 10l-67 5v57l4 4l71 -6
q73 -5 108 16q36 21 36 62q0 15 -6 30q-7 18 -16 32q-9 15 -29 36q-24 26 -43 45l-140 139v59l415 252h6v-54l-372 -226l98 -103q35 -35 59 -62t39 -51q14 -22 22 -47q7 -21 7 -46q0 -77 -76 -108v-3q47 -14 69 -40q23 -28 23 -64q0 -40 -21 -73q-20 -32 -60 -55
q-41 -23 -94 -35q-55 -12 -123 -12zM380 580l415 252h7v-36l-415 -252h-7v36z" />
    <glyph glyph-name="uni06AF064A" unicode="&#xfb94;&#xfef2;" horiz-adv-x="749" 
d="M376 -234l-3 -6q-169 0 -249 67q-81 67 -81 210q0 40 6 79q5 33 14 74h36v-6q-8 -38 -11 -71q-3 -36 -3 -69q0 -112 72 -165q73 -53 220 -53q55 0 105 8q48 8 81 22q35 15 53 35q18 19 18 45q0 16 -9 30q-10 15 -28 23q-19 9 -51 15q-26 5 -80 10l-67 5v57l4 4l71 -6
q73 -5 108 16q36 21 36 62q0 15 -6 30q-7 18 -16 32q-9 15 -29 36q-24 26 -43 45l-140 139v59l415 252h6v-54l-372 -226l98 -103q35 -35 59 -62t39 -51q14 -22 22 -47q7 -21 7 -46q0 -77 -76 -108v-3q47 -14 69 -40q23 -28 23 -64q0 -40 -21 -73q-20 -32 -60 -55
q-41 -23 -94 -35q-55 -12 -123 -12zM327 -334l43 -43l-43 -42h-7l-43 42l43 43h7zM426 -334l43 -43l-43 -42h-7l-43 42l43 43h7zM380 580l415 252h7v-36l-415 -252h-7v36z" />
    <glyph glyph-name="uni06AF0626" unicode="&#xfb94;&#xfe8a;" horiz-adv-x="749" 
d="M376 -234l-3 -6q-169 0 -249 67q-81 67 -81 210q0 40 6 79q5 33 14 74h36v-6q-8 -38 -11 -71q-3 -36 -3 -69q0 -112 72 -165q73 -53 220 -53q55 0 105 8q48 8 81 22q35 15 53 35q18 19 18 45q0 16 -9 30q-10 15 -28 23q-19 9 -51 15q-26 5 -80 10l-67 5v57l4 4l71 -6
q73 -5 108 16q36 21 36 62q0 15 -6 30q-7 18 -16 32q-9 15 -29 36q-24 26 -43 45l-140 139v59l415 252h6v-54l-372 -226l98 -103q35 -35 59 -62t39 -51q14 -22 22 -47q7 -21 7 -46q0 -77 -76 -108v-3q47 -14 69 -40q23 -28 23 -64q0 -40 -21 -73q-20 -32 -60 -55
q-41 -23 -94 -35q-55 -12 -123 -12zM25 300v2q-7 10 -12 24q-4 12 -4 24q0 19 7 33t20 27q11 11 29 19q15 7 36 7q54 0 54 -54v-21h-29v9q0 29 -31 29q-22 0 -39 -14t-17 -33q0 -13 8 -27q7 -13 21 -25h104v-37h-184v37h37zM380 582l415 252h7v-36l-415 -252h-7v36z" />
    <glyph glyph-name="uni06430626.fina" unicode="&#xfedc;&#xfe8a;" horiz-adv-x="963" 
d="M586 468l194 -301q23 -34 39 -53q17 -20 36 -34q17 -12 38 -19q19 -6 45 -6h19v-44l-15 -16q-27 0 -54 5q-24 4 -45 18t-42 36q-19 20 -46 57q-8 -42 -34 -70q-27 -29 -69 -39q17 -23 17 -57q0 -41 -21 -76q-21 -34 -60 -58t-94 -36q-56 -12 -123 -12q-169 0 -249 67
q-81 68 -81 210q0 40 6 79q5 33 14 74h36v-6q-8 -38 -11 -71q-3 -36 -3 -69q0 -113 72 -165q73 -53 220 -53q55 0 105 8q48 8 81 22q35 15 53 35t18 44q0 17 -8 30q-8 12 -26 20q-20 8 -50 14q-49 9 -78 14l-72 10v56l4 4l69 -10q10 -1 27 -4t24 -4q11 -2 38 -4q16 -2 30 -3
q9 -1 25 -1q107 0 117 93l-190 286v59l415 252h6v-54zM26 301v2q-8 11 -12 24q-4 12 -4 24q0 19 7 33t20 27q11 11 29 19q15 7 36 7q54 0 54 -54v-21h-29v9q0 29 -31 29q-22 0 -39 -14t-17 -33q0 -13 8 -27q7 -13 21 -25h104v-37h-184v37h37z" />
    <glyph glyph-name="uni06AF0649.fina" unicode="&#xfb95;&#xfef0;" horiz-adv-x="963" 
d="M586 468l194 -301q23 -34 39 -53q17 -20 36 -34q17 -12 38 -19q19 -6 45 -6h19v-44l-15 -16q-27 0 -54 5q-24 4 -45 18t-42 36q-19 20 -46 57q-8 -42 -34 -70q-27 -29 -69 -39q17 -23 17 -57q0 -41 -21 -76q-21 -34 -60 -58t-94 -36q-56 -12 -123 -12q-169 0 -249 67
q-81 68 -81 210q0 40 6 79q5 33 14 74h36v-6q-8 -38 -11 -71q-3 -36 -3 -69q0 -113 72 -165q73 -53 220 -53q55 0 105 8q48 8 81 22q35 15 53 35t18 44q0 17 -8 30q-8 12 -26 20q-20 8 -50 14q-49 9 -78 14l-72 10v56l4 4l69 -10q10 -1 27 -4t24 -4q11 -2 38 -4q16 -2 30 -3
q9 -1 25 -1q107 0 117 93l-190 286v59l415 252h6v-54zM538 581l415 252h7v-36l-415 -252h-7v36z" />
    <glyph glyph-name="uni06AF064A.fina" unicode="&#xfb95;&#xfef2;" horiz-adv-x="963" 
d="M586 468l194 -301q23 -34 39 -53q17 -20 36 -34q17 -12 38 -19q19 -6 45 -6h19v-44l-15 -16q-27 0 -54 5q-24 4 -45 18t-42 36q-19 20 -46 57q-8 -42 -34 -70q-27 -29 -69 -39q17 -23 17 -57q0 -41 -21 -76q-21 -34 -60 -58t-94 -36q-56 -12 -123 -12q-169 0 -249 67
q-81 68 -81 210q0 40 6 79q5 33 14 74h36v-6q-8 -38 -11 -71q-3 -36 -3 -69q0 -113 72 -165q73 -53 220 -53q55 0 105 8q48 8 81 22q35 15 53 35t18 44q0 17 -8 30q-8 12 -26 20q-20 8 -50 14q-49 9 -78 14l-72 10v56l4 4l69 -10q10 -1 27 -4t24 -4q11 -2 38 -4q16 -2 30 -3
q9 -1 25 -1q107 0 117 93l-190 286v59l415 252h6v-54zM326 -333l43 -43l-43 -42h-7l-43 42l43 43h7zM425 -333l43 -43l-43 -42h-7l-43 42l43 43h7zM538 581l415 252h7v-36l-415 -252h-7v36z" />
    <glyph glyph-name="uni06AF0626.fina" unicode="&#xfb95;&#xfe8a;" horiz-adv-x="963" 
d="M586 468l194 -301q23 -34 39 -53q17 -20 36 -34q17 -12 38 -19q19 -6 45 -6h19v-44l-15 -16q-27 0 -54 5q-24 4 -45 18t-42 36q-19 20 -46 57q-8 -42 -34 -70q-27 -29 -69 -39q17 -23 17 -57q0 -41 -21 -76q-21 -34 -60 -58t-94 -36q-56 -12 -123 -12q-169 0 -249 67
q-81 68 -81 210q0 40 6 79q5 33 14 74h36v-6q-8 -38 -11 -71q-3 -36 -3 -69q0 -113 72 -165q73 -53 220 -53q55 0 105 8q48 8 81 22q35 15 53 35t18 44q0 17 -8 30q-8 12 -26 20q-20 8 -50 14q-49 9 -78 14l-72 10v56l4 4l69 -10q10 -1 27 -4t24 -4q11 -2 38 -4q16 -2 30 -3
q9 -1 25 -1q107 0 117 93l-190 286v59l415 252h6v-54zM26 301v2q-8 11 -12 24q-4 12 -4 24q0 19 7 33t20 27q11 11 29 19q15 7 36 7q54 0 54 -54v-21h-29v9q0 29 -31 29q-22 0 -39 -14t-17 -33q0 -13 8 -27q7 -13 21 -25h104v-37h-184v37h37zM538 583l415 252h7v-36
l-415 -252h-7v36z" />
    <glyph glyph-name="uni06440626" unicode="&#xfedf;&#xfe8a;" horiz-adv-x="758" 
d="M576 47l-4 -3q52 -14 75 -39q23 -26 23 -63q0 -40 -21 -73t-60 -57t-94 -36t-123 -12q-169 0 -249 67q-81 67 -81 210q0 40 6 79q5 33 14 74h36v-6q-8 -38 -11 -71q-3 -36 -3 -69q0 -112 72 -165q73 -53 220 -53q55 0 105 8q47 8 81 21q35 14 53 35t18 46q0 16 -9 30
q-10 15 -28 23q-20 9 -51 15q-26 5 -80 10l-67 5v57l4 4l71 -6q64 -5 96 25q33 30 33 101v541h47v-541q0 -57 -18 -96t-55 -58v-3zM24 303v2q-8 11 -12 24q-4 12 -4 24q0 19 7 33t20 27q11 11 29 19q15 7 36 7q54 0 54 -54v-21h-29v9q0 29 -31 29q-22 0 -39 -14t-17 -33
q0 -13 8 -27q7 -13 21 -25h104v-37h-184v37h37z" />
    <glyph glyph-name="uni06440626.fina" unicode="&#xfee0;&#xfe8a;" horiz-adv-x="879" 
d="M879 15l-19 -20h-1q-95 0 -129 64q-13 -21 -38 -37t-51 -20q27 -21 27 -58q0 -42 -21 -76t-60 -58t-94 -36t-123 -12q-169 0 -249 67q-81 67 -81 210q0 40 6 79q5 33 14 74h36v-6q-8 -38 -11 -71q-3 -36 -3 -69q0 -112 72 -165q73 -53 220 -53q55 0 105 8q48 8 81 22
q35 15 53 35t18 44q0 17 -8 30q-8 12 -26 20q-20 8 -50 14q-49 9 -78 14l-72 10v56l4 4l69 -10q10 -1 27 -4t24 -4q10 -1 38 -4q17 -1 30 -3q9 -1 25 -1q34 0 61 10q29 11 48 27q-8 34 -8 71v577h47v-577q0 -55 27 -81q28 -26 84 -26h6v-45zM26 301v2q-8 11 -12 24
q-4 12 -4 24q0 19 7 33t20 27q11 11 29 19q15 7 36 7q54 0 54 -54v-21h-29v9q0 29 -31 29q-22 0 -39 -14t-17 -33q0 -13 8 -27q7 -13 21 -25h104v-37h-184v37h37z" />
    <glyph glyph-name="uni06280626" unicode="&#xfe91;&#xfe8a;" horiz-adv-x="713" 
d="M376 -147l-3 -2q-169 0 -249 67q-81 68 -81 210q0 40 6 79q5 33 14 74h36v-6q-8 -38 -11 -71q-3 -36 -3 -69q0 -113 72 -165q73 -53 220 -53q55 0 105 8q46 7 81 21t53 35t18 46q0 17 -9 30q-10 15 -28 23q-19 9 -51 15q-26 5 -80 10l-67 5v57l4 4l71 -6q69 -5 101 24
t32 92q0 24 -5 69q-4 40 -15 90l3 4h44q7 -45 12 -86q4 -35 4 -71q0 -112 -66 -148v-2q90 -29 90 -105q0 -41 -21 -74t-60 -57t-94 -36t-123 -12zM611 -213l43 -43l-43 -42h-7l-43 42l43 43h7zM25 391v2q-7 11 -12 24q-4 12 -4 24q0 19 7 33t20 27q11 11 29 19q15 7 36 7
q54 0 54 -54v-21h-29v9q0 29 -31 29q-22 0 -39 -14t-17 -33q0 -13 8 -27q7 -13 21 -25h104v-37h-184v37h37z" />
    <glyph glyph-name="uni067E0649" unicode="&#xfb58;&#xfef0;" horiz-adv-x="713" 
d="M376 -147l-3 -2q-169 0 -249 67q-81 68 -81 210q0 40 6 79q5 33 14 74h36v-6q-8 -38 -11 -71q-3 -36 -3 -69q0 -113 72 -165q73 -53 220 -53q55 0 105 8q46 7 81 21t53 35t18 46q0 17 -9 30q-10 15 -28 23q-19 9 -51 15q-26 5 -80 10l-67 5v57l4 4l71 -6q69 -5 101 24
t32 92q0 24 -5 69q-4 40 -15 90l3 4h44q7 -45 12 -86q4 -35 4 -71q0 -112 -66 -148v-2q90 -29 90 -105q0 -41 -21 -74t-60 -57t-94 -36t-123 -12zM556 -280l-42 42l42 41h7l42 -41l-42 -42h-7zM653 -280l-43 42l43 41h7l42 -41l-42 -42h-7zM604 -374l-40 41l40 40h7l41 -40
l-41 -41h-7z" />
    <glyph glyph-name="uni067E064A" unicode="&#xfb58;&#xfef2;" horiz-adv-x="713" 
d="M376 -147l-3 -2q-169 0 -249 67q-81 68 -81 210q0 40 6 79q5 33 14 74h36v-6q-8 -38 -11 -71q-3 -36 -3 -69q0 -113 72 -165q73 -53 220 -53q55 0 105 8q46 7 81 21t53 35t18 46q0 17 -9 30q-10 15 -28 23q-19 9 -51 15q-26 5 -80 10l-67 5v57l4 4l71 -6q69 -5 101 24
t32 92q0 24 -5 69q-4 40 -15 90l3 4h44q7 -45 12 -86q4 -35 4 -71q0 -112 -66 -148v-2q90 -29 90 -105q0 -41 -21 -74t-60 -57t-94 -36t-123 -12zM556 -280l-42 42l42 41h7l42 -41l-42 -42h-7zM653 -280l-43 42l43 41h7l42 -41l-42 -42h-7zM604 -374l-40 41l40 40h7l41 -40
l-41 -41h-7zM332 -243l43 -43l-43 -42h-7l-43 42l43 43h7zM431 -243l43 -43l-43 -42h-7l-43 42l43 43h7z" />
    <glyph glyph-name="uni067E0626" unicode="&#xfb58;&#xfe8a;" horiz-adv-x="713" 
d="M376 -147l-3 -2q-169 0 -249 67q-81 68 -81 210q0 40 6 79q5 33 14 74h36v-6q-8 -38 -11 -71q-3 -36 -3 -69q0 -113 72 -165q73 -53 220 -53q55 0 105 8q46 7 81 21t53 35t18 46q0 17 -9 30q-10 15 -28 23q-19 9 -51 15q-26 5 -80 10l-67 5v57l4 4l71 -6q69 -5 101 24
t32 92q0 24 -5 69q-4 40 -15 90l3 4h44q7 -45 12 -86q4 -35 4 -71q0 -112 -66 -148v-2q90 -29 90 -105q0 -41 -21 -74t-60 -57t-94 -36t-123 -12zM556 -280l-42 42l42 41h7l42 -41l-42 -42h-7zM653 -280l-43 42l43 41h7l42 -41l-42 -42h-7zM604 -374l-40 41l40 40h7l41 -40
l-41 -41h-7zM25 391v2q-7 11 -12 24q-4 12 -4 24q0 19 7 33t20 27q11 11 29 19q15 7 36 7q54 0 54 -54v-21h-29v9q0 29 -31 29q-22 0 -39 -14t-17 -33q0 -13 8 -27q7 -13 21 -25h104v-37h-184v37h37z" />
    <glyph glyph-name="uni062A0626" unicode="&#xfe97;&#xfe8a;" horiz-adv-x="713" 
d="M376 -147l-3 -2q-169 0 -249 67q-81 68 -81 210q0 40 6 79q5 33 14 74h36v-6q-8 -38 -11 -71q-3 -36 -3 -69q0 -113 72 -165q73 -53 220 -53q55 0 105 8q46 7 81 21t53 35t18 46q0 17 -9 30q-10 15 -28 23q-19 9 -51 15q-26 5 -80 10l-67 5v57l4 4l71 -6q69 -5 101 24
t32 92q0 24 -5 69q-4 40 -15 90l3 4h44q7 -45 12 -86q4 -35 4 -71q0 -112 -66 -148v-2q90 -29 90 -105q0 -41 -21 -74t-60 -57t-94 -36t-123 -12zM551 637l43 -43l-43 -42h-7l-43 42l43 43h7zM650 637l43 -43l-43 -42h-7l-43 42l43 43h7zM25 391v2q-7 11 -12 24q-4 12 -4 24
q0 19 7 33t20 27q11 11 29 19q15 7 36 7q54 0 54 -54v-21h-29v9q0 29 -31 29q-22 0 -39 -14t-17 -33q0 -13 8 -27q7 -13 21 -25h104v-37h-184v37h37z" />
    <glyph glyph-name="uni062B0626" unicode="&#xfe9b;&#xfe8a;" horiz-adv-x="713" 
d="M376 -147l-3 -2q-169 0 -249 67q-81 68 -81 210q0 40 6 79q5 33 14 74h36v-6q-8 -38 -11 -71q-3 -36 -3 -69q0 -113 72 -165q73 -53 220 -53q55 0 105 8q46 7 81 21t53 35t18 46q0 17 -9 30q-10 15 -28 23q-19 9 -51 15q-26 5 -80 10l-67 5v57l4 4l71 -6q69 -5 101 24
t32 92q0 24 -5 69q-4 40 -15 90l3 4h44q7 -45 12 -86q4 -35 4 -71q0 -112 -66 -148v-2q90 -29 90 -105q0 -41 -21 -74t-60 -57t-94 -36t-123 -12zM601 732l41 -41l-41 -41h-7l-42 41l42 41h7zM551 637l43 -43l-43 -42h-7l-43 42l43 43h7zM650 637l43 -43l-43 -42h-7l-43 42
l43 43h7zM25 391v2q-7 11 -12 24q-4 12 -4 24q0 19 7 33t20 27q11 11 29 19q15 7 36 7q54 0 54 -54v-21h-29v9q0 29 -31 29q-22 0 -39 -14t-17 -33q0 -13 8 -27q7 -13 21 -25h104v-37h-184v37h37z" />
    <glyph glyph-name="uni06460626" unicode="&#xfee7;&#xfe8a;" horiz-adv-x="713" 
d="M376 -147l-3 -2q-169 0 -249 67q-81 68 -81 210q0 40 6 79q5 33 14 74h36v-6q-8 -38 -11 -71q-3 -36 -3 -69q0 -113 72 -165q73 -53 220 -53q55 0 105 8q46 7 81 21t53 35t18 46q0 17 -9 30q-10 15 -28 23q-19 9 -51 15q-26 5 -80 10l-67 5v57l4 4l71 -6q69 -5 101 24
t32 92q0 24 -5 69q-4 40 -15 90l3 4h44q7 -45 12 -86q4 -35 4 -71q0 -112 -66 -148v-2q90 -29 90 -105q0 -41 -21 -74t-60 -57t-94 -36t-123 -12zM600 637l43 -43l-43 -42h-7l-43 42l43 43h7zM25 391v2q-7 11 -12 24q-4 12 -4 24q0 19 7 33t20 27q11 11 29 19q15 7 36 7
q54 0 54 -54v-21h-29v9q0 29 -31 29q-22 0 -39 -14t-17 -33q0 -13 8 -27q7 -13 21 -25h104v-37h-184v37h37z" />
    <glyph glyph-name="uni064A0626" unicode="&#xfef3;&#xfe8a;" horiz-adv-x="713" 
d="M376 -147l-3 -2q-169 0 -249 67q-81 68 -81 210q0 40 6 79q5 33 14 74h36v-6q-8 -38 -11 -71q-3 -36 -3 -69q0 -113 72 -165q73 -53 220 -53q55 0 105 8q46 7 81 21t53 35t18 46q0 17 -9 30q-10 15 -28 23q-19 9 -51 15q-26 5 -80 10l-67 5v57l4 4l71 -6q69 -5 101 24
t32 92q0 24 -5 69q-4 40 -15 90l3 4h44q7 -45 12 -86q4 -35 4 -71q0 -112 -66 -148v-2q90 -29 90 -105q0 -41 -21 -74t-60 -57t-94 -36t-123 -12zM25 391v2q-7 11 -12 24q-4 12 -4 24q0 19 7 33t20 27q11 11 29 19q15 7 36 7q54 0 54 -54v-21h-29v9q0 29 -31 29
q-22 0 -39 -14t-17 -33q0 -13 8 -27q7 -13 21 -25h104v-37h-184v37h37zM562 -211l43 -43l-43 -42h-7l-43 42l43 43h7zM661 -211l43 -43l-43 -42h-7l-43 42l43 43h7z" />
    <glyph glyph-name="uni06260626" unicode="&#xfe8b;&#xfe8a;" horiz-adv-x="713" 
d="M376 -147l-3 -2q-169 0 -249 67q-81 68 -81 210q0 40 6 79q5 33 14 74h36v-6q-8 -38 -11 -71q-3 -36 -3 -69q0 -113 72 -165q73 -53 220 -53q55 0 105 8q46 7 81 21t53 35t18 46q0 17 -9 30q-10 15 -28 23q-19 9 -51 15q-26 5 -80 10l-67 5v57l4 4l71 -6q69 -5 101 24
t32 92q0 24 -5 69q-4 40 -15 90l3 4h44q7 -45 12 -86q4 -35 4 -71q0 -112 -66 -148v-2q90 -29 90 -105q0 -41 -21 -74t-60 -57t-94 -36t-123 -12zM542 553v2q-8 11 -12 24q-4 12 -4 24q0 19 7 33t20 27q11 11 29 19q15 7 36 7q54 0 54 -54v-21h-29v9q0 29 -31 29
q-22 0 -39 -14t-17 -33q0 -13 8 -27q7 -13 21 -25h104v-37h-184v37h37zM332 -241l43 -43l-43 -42h-7l-43 42l43 43h7zM431 -241l43 -43l-43 -42h-7l-43 42l43 43h7z" />
    <glyph glyph-name="uni06CC06CC" unicode="&#xfbfe;&#xfbfd;" horiz-adv-x="713" 
d="M376 -147l-3 -2q-169 0 -249 67q-81 68 -81 210q0 40 6 79q5 33 14 74h36v-6q-8 -38 -11 -71q-3 -36 -3 -69q0 -113 72 -165q73 -53 220 -53q55 0 105 8q46 7 81 21t53 35t18 46q0 17 -9 30q-10 15 -28 23q-19 9 -51 15q-26 5 -80 10l-67 5v57l4 4l71 -6q69 -5 101 24
t32 92q0 24 -5 69q-4 40 -15 90l3 4h44q7 -45 12 -86q4 -35 4 -71q0 -112 -66 -148v-2q90 -29 90 -105q0 -41 -21 -74t-60 -57t-94 -36t-123 -12zM562 -213l43 -43l-43 -42h-7l-43 42l43 43h7zM661 -213l43 -43l-43 -42h-7l-43 42l43 43h7z" />
    <glyph glyph-name="uni06280626.fina" unicode="&#xfe92;&#xfe8a;" horiz-adv-x="861" 
d="M650 -307l43 -43l-43 -42h-7l-43 42l43 43h7zM27 235v2q-7 11 -12 24q-4 12 -4 24q0 19 7 33t20 27q11 11 29 19q15 7 36 7q54 0 54 -54v-21h-29v9q0 29 -31 29q-22 0 -39 -14t-17 -33q0 -13 8 -27q7 -13 21 -25h104v-37h-184v37h37zM352 -283v-3q-150 0 -228 63t-78 197
q0 37 5 77q5 37 12 71h36v-6q-7 -31 -10 -69q-3 -34 -3 -67q0 -104 70 -153t207 -49q60 0 111 9q50 9 88 24t59 36t21 47q0 28 -21 45t-72 30l-74 21q-78 21 -110 49q-33 29 -33 79q0 36 21 72t55 64q33 27 77 46q42 18 86 18q46 0 75 -22q30 -22 55 -73l33 -68
q11 -24 26 -46q11 -17 26 -30q13 -11 30 -16q15 -4 36 -4h11v-45l-15 -15h-6q-25 0 -46 6t-39 21q-16 13 -34 38q-17 22 -33 57l-29 59q-21 43 -45 61t-61 18q-35 0 -66 -10q-32 -10 -58 -27q-25 -16 -42 -39q-16 -22 -16 -45q0 -31 24 -49q23 -17 80 -34l74 -22
q36 -11 60 -21t39 -24q14 -12 22 -32q7 -17 7 -44q0 -46 -25 -81t-69 -61t-103 -39q-62 -14 -130 -14z" />
    <glyph glyph-name="uni067E0649.fina" unicode="&#xfb59;&#xfef0;" horiz-adv-x="861" 
d="M595 -374l-42 42l42 41h7l42 -41l-42 -42h-7zM692 -374l-43 42l43 41h7l42 -41l-42 -42h-7zM643 -468l-40 41l40 40h7l41 -40l-41 -41h-7zM352 -285v-3q-150 0 -228 63t-78 197q0 37 5 77q5 37 12 71h36v-6q-7 -31 -10 -69q-3 -35 -3 -67q0 -104 70 -153t207 -49
q60 0 111 9q50 9 88 24t59 36t21 47q0 28 -21 45t-72 30l-74 21q-78 21 -110 49q-33 29 -33 79q0 36 21 72t55 64q33 27 77 46q42 18 86 18q46 0 75 -22q30 -22 55 -73l33 -68q11 -24 26 -46q11 -17 26 -30q13 -11 30 -16q15 -4 36 -4h11v-45l-15 -15h-6q-25 0 -46 6t-39 21
q-16 13 -34 38q-17 22 -33 57l-29 59q-21 43 -45 61t-61 18q-35 0 -66 -10q-32 -10 -58 -27q-25 -16 -42 -39q-16 -22 -16 -45q0 -31 24 -49q23 -17 80 -34l74 -22q36 -11 60 -21t39 -24q14 -12 22 -32q7 -17 7 -44q0 -46 -25 -81t-69 -61t-103 -39q-62 -14 -130 -14z" />
    <glyph glyph-name="uni067E064A.fina" unicode="&#xfb59;&#xfef2;" horiz-adv-x="861" 
d="M595 -374l-42 42l42 41h7l42 -41l-42 -42h-7zM692 -374l-43 42l43 41h7l42 -41l-42 -42h-7zM643 -468l-40 41l40 40h7l41 -40l-41 -41h-7zM306 -379l43 -43l-43 -42h-7l-43 42l43 43h7zM405 -379l43 -43l-43 -42h-7l-43 42l43 43h7zM352 -285v-3q-150 0 -228 63t-78 197
q0 37 5 77q5 37 12 71h36v-6q-7 -31 -10 -69q-3 -35 -3 -67q0 -104 70 -153t207 -49q60 0 111 9q50 9 88 24t59 36t21 47q0 28 -21 45t-72 30l-74 21q-78 21 -110 49q-33 29 -33 79q0 36 21 72t55 64q33 27 77 46q42 18 86 18q46 0 75 -22q30 -22 55 -73l33 -68
q11 -24 26 -46q11 -17 26 -30q13 -11 30 -16q15 -4 36 -4h11v-45l-15 -15h-6q-25 0 -46 6t-39 21q-16 13 -34 38q-17 22 -33 57l-29 59q-21 43 -45 61t-61 18q-35 0 -66 -10q-32 -10 -58 -27q-25 -16 -42 -39q-16 -22 -16 -45q0 -31 24 -49q23 -17 80 -34l74 -22
q36 -11 60 -21t39 -24q14 -12 22 -32q7 -17 7 -44q0 -46 -25 -81t-69 -61t-103 -39q-62 -14 -130 -14z" />
    <glyph glyph-name="uni067E0626.fina" unicode="&#xfb59;&#xfe8a;" horiz-adv-x="861" 
d="M595 -374l-42 42l42 41h7l42 -41l-42 -42h-7zM692 -374l-43 42l43 41h7l42 -41l-42 -42h-7zM643 -468l-40 41l40 40h7l41 -40l-41 -41h-7zM27 235v2q-7 11 -12 24q-4 12 -4 24q0 19 7 33t20 27q11 11 29 19q15 7 36 7q54 0 54 -54v-21h-29v9q0 29 -31 29q-22 0 -39 -14
t-17 -33q0 -13 8 -27q7 -13 21 -25h104v-37h-184v37h37zM352 -283v-3q-150 0 -228 63t-78 197q0 37 5 77q5 37 12 71h36v-6q-7 -31 -10 -69q-3 -34 -3 -67q0 -104 70 -153t207 -49q60 0 111 9q50 9 88 24t59 36t21 47q0 28 -21 45t-72 30l-74 21q-78 21 -110 49
q-33 29 -33 79q0 36 21 72t55 64q33 27 77 46q42 18 86 18q46 0 75 -22q30 -22 55 -73l33 -68q11 -24 26 -46q11 -17 26 -30q13 -11 30 -16q15 -4 36 -4h11v-45l-15 -15h-6q-25 0 -46 6t-39 21q-16 13 -34 38q-17 22 -33 57l-29 59q-21 43 -45 61t-61 18q-35 0 -66 -10
q-32 -10 -58 -27q-25 -16 -42 -39q-16 -22 -16 -45q0 -31 24 -49q23 -17 80 -34l74 -22q36 -11 60 -21t39 -24q14 -12 22 -32q7 -17 7 -44q0 -46 -25 -81t-69 -61t-103 -39q-62 -14 -130 -14z" />
    <glyph glyph-name="uni062A0626.fina" unicode="&#xfe98;&#xfe8a;" horiz-adv-x="861" 
d="M523 515l43 -43l-43 -42h-7l-43 42l43 43h7zM622 515l43 -43l-43 -42h-7l-43 42l43 43h7zM27 235v2q-7 11 -12 24q-4 12 -4 24q0 19 7 33t20 27q11 11 29 19q15 7 36 7q54 0 54 -54v-21h-29v9q0 29 -31 29q-22 0 -39 -14t-17 -33q0 -13 8 -27q7 -13 21 -25h104v-37h-184
v37h37zM352 -283v-3q-150 0 -228 63t-78 197q0 37 5 77q5 37 12 71h36v-6q-7 -31 -10 -69q-3 -34 -3 -67q0 -104 70 -153t207 -49q60 0 111 9q50 9 88 24t59 36t21 47q0 28 -21 45t-72 30l-74 21q-78 21 -110 49q-33 29 -33 79q0 36 21 72t55 64q33 27 77 46q42 18 86 18
q46 0 75 -22q30 -22 55 -73l33 -68q11 -24 26 -46q11 -17 26 -30q13 -11 30 -16q15 -4 36 -4h11v-45l-15 -15h-6q-25 0 -46 6t-39 21q-16 13 -34 38q-17 22 -33 57l-29 59q-21 43 -45 61t-61 18q-35 0 -66 -10q-32 -10 -58 -27q-25 -16 -42 -39q-16 -22 -16 -45
q0 -31 24 -49q23 -17 80 -34l74 -22q36 -11 60 -21t39 -24q14 -12 22 -32q7 -17 7 -44q0 -46 -25 -81t-69 -61t-103 -39q-62 -14 -130 -14z" />
    <glyph glyph-name="uni062B0626.fina" unicode="&#xfe9c;&#xfe8a;" horiz-adv-x="861" 
d="M573 610l41 -41l-41 -41h-7l-42 41l42 41h7zM523 515l43 -43l-43 -42h-7l-43 42l43 43h7zM622 515l43 -43l-43 -42h-7l-43 42l43 43h7zM27 235v2q-7 11 -12 24q-4 12 -4 24q0 19 7 33t20 27q11 11 29 19q15 7 36 7q54 0 54 -54v-21h-29v9q0 29 -31 29q-22 0 -39 -14
t-17 -33q0 -13 8 -27q7 -13 21 -25h104v-37h-184v37h37zM352 -283v-3q-150 0 -228 63t-78 197q0 37 5 77q5 37 12 71h36v-6q-7 -31 -10 -69q-3 -34 -3 -67q0 -104 70 -153t207 -49q60 0 111 9q50 9 88 24t59 36t21 47q0 28 -21 45t-72 30l-74 21q-78 21 -110 49
q-33 29 -33 79q0 36 21 72t55 64q33 27 77 46q42 18 86 18q46 0 75 -22q30 -22 55 -73l33 -68q11 -24 26 -46q11 -17 26 -30q13 -11 30 -16q15 -4 36 -4h11v-45l-15 -15h-6q-25 0 -46 6t-39 21q-16 13 -34 38q-17 22 -33 57l-29 59q-21 43 -45 61t-61 18q-35 0 -66 -10
q-32 -10 -58 -27q-25 -16 -42 -39q-16 -22 -16 -45q0 -31 24 -49q23 -17 80 -34l74 -22q36 -11 60 -21t39 -24q14 -12 22 -32q7 -17 7 -44q0 -46 -25 -81t-69 -61t-103 -39q-62 -14 -130 -14z" />
    <glyph glyph-name="uni06460626.fina" unicode="&#xfee8;&#xfe8a;" horiz-adv-x="861" 
d="M27 235v2q-7 11 -12 24q-4 12 -4 24q0 19 7 33t20 27q11 11 29 19q15 7 36 7q54 0 54 -54v-21h-29v9q0 29 -31 29q-22 0 -39 -14t-17 -33q0 -13 8 -27q7 -13 21 -25h104v-37h-184v37h37zM572 517l43 -43l-43 -42h-7l-43 42l43 43h7zM352 -283v-3q-150 0 -228 63t-78 197
q0 37 5 77q5 37 12 71h36v-6q-7 -31 -10 -69q-3 -34 -3 -67q0 -104 70 -153t207 -49q60 0 111 9q50 9 88 24t59 36t21 47q0 28 -21 45t-72 30l-74 21q-78 21 -110 49q-33 29 -33 79q0 36 21 72t55 64q33 27 77 46q42 18 86 18q46 0 75 -22q30 -22 55 -73l33 -68
q11 -24 26 -46q11 -17 26 -30q13 -11 30 -16q15 -4 36 -4h11v-45l-15 -15h-6q-25 0 -46 6t-39 21q-16 13 -34 38q-17 22 -33 57l-29 59q-21 43 -45 61t-61 18q-35 0 -66 -10q-32 -10 -58 -27q-25 -16 -42 -39q-16 -22 -16 -45q0 -31 24 -49q23 -17 80 -34l74 -22
q36 -11 60 -21t39 -24q14 -12 22 -32q7 -17 7 -44q0 -46 -25 -81t-69 -61t-103 -39q-62 -14 -130 -14z" />
    <glyph glyph-name="uni064A0626.fina" unicode="&#xfef4;&#xfe8a;" horiz-adv-x="861" 
d="M27 235v2q-7 11 -12 24q-4 12 -4 24q0 19 7 33t20 27q11 11 29 19q15 7 36 7q54 0 54 -54v-21h-29v9q0 29 -31 29q-22 0 -39 -14t-17 -33q0 -13 8 -27q7 -13 21 -25h104v-37h-184v37h37zM601 -305l43 -43l-43 -42h-7l-43 42l43 43h7zM700 -305l43 -43l-43 -42h-7l-43 42
l43 43h7zM352 -283v-3q-150 0 -228 63t-78 197q0 37 5 77q5 37 12 71h36v-6q-7 -31 -10 -69q-3 -34 -3 -67q0 -104 70 -153t207 -49q60 0 111 9q50 9 88 24t59 36t21 47q0 28 -21 45t-72 30l-74 21q-78 21 -110 49q-33 29 -33 79q0 36 21 72t55 64q33 27 77 46q42 18 86 18
q46 0 75 -22q30 -22 55 -73l33 -68q11 -24 26 -46q11 -17 26 -30q13 -11 30 -16q15 -4 36 -4h11v-45l-15 -15h-6q-25 0 -46 6t-39 21q-16 13 -34 38q-17 22 -33 57l-29 59q-21 43 -45 61t-61 18q-35 0 -66 -10q-32 -10 -58 -27q-25 -16 -42 -39q-16 -22 -16 -45
q0 -31 24 -49q23 -17 80 -34l74 -22q36 -11 60 -21t39 -24q14 -12 22 -32q7 -17 7 -44q0 -46 -25 -81t-69 -61t-103 -39q-62 -14 -130 -14z" />
    <glyph glyph-name="uni06260626.fina" unicode="&#xfe8c;&#xfe8a;" horiz-adv-x="861" 
d="M-85 235v2q-7 11 -12 24q-4 12 -4 24q0 19 7 33t20 27q11 11 29 19q15 7 36 7q54 0 54 -54v-21h-29v9q0 29 -31 29q-22 0 -39 -14t-17 -33q0 -13 8 -27q7 -13 21 -25h104v-37h-184v37h37zM402 433v2q-8 11 -12 24q-4 12 -4 24q0 19 7 33t20 27q11 11 29 19q15 7 36 7
q54 0 54 -54v-21h-29v9q0 29 -31 29q-22 0 -39 -14t-17 -33q0 -13 8 -27q7 -13 21 -25h104v-37h-184v37h37zM352 -281v-3q-150 0 -228 63t-78 197q0 37 5 77q5 37 12 71h36v-6q-7 -31 -10 -69q-3 -34 -3 -67q0 -104 70 -153t207 -49q60 0 111 9q50 9 88 24t59 36t21 47
q0 28 -21 45t-72 30l-74 21q-78 21 -110 49q-33 29 -33 79q0 36 21 72t55 64q33 27 77 46q42 18 86 18q46 0 75 -22q30 -22 55 -73l33 -68q11 -24 26 -46q11 -17 26 -30q13 -11 30 -16q15 -4 36 -4h11v-45l-15 -15h-6q-25 0 -46 6t-39 21q-16 13 -34 38q-17 22 -33 57
l-29 59q-21 43 -45 61t-61 18q-35 0 -66 -10q-32 -10 -58 -27q-25 -16 -42 -39q-16 -22 -16 -45q0 -31 24 -49q23 -17 80 -34l74 -22q36 -11 60 -21t39 -24q14 -12 22 -32q7 -17 7 -44q0 -46 -25 -81t-69 -61t-103 -39q-62 -14 -130 -14z" />
    <glyph glyph-name="uni06CC06CC.fina" unicode="&#xfbff;&#xfbfd;" horiz-adv-x="861" 
d="M601 -307l43 -43l-43 -42h-7l-43 42l43 43h7zM700 -307l43 -43l-43 -42h-7l-43 42l43 43h7zM352 -285v-3q-150 0 -228 63t-78 197q0 37 5 77q5 37 12 71h36v-6q-7 -31 -10 -69q-3 -35 -3 -67q0 -104 70 -153t207 -49q60 0 111 9q50 9 88 24t59 36t21 47q0 28 -21 45
t-72 30l-74 21q-78 21 -110 49q-33 29 -33 79q0 36 21 72t55 64q33 27 77 46q42 18 86 18q46 0 75 -22q30 -22 55 -73l33 -68q11 -24 26 -46q11 -17 26 -30q13 -11 30 -16q15 -4 36 -4h11v-45l-15 -15h-6q-25 0 -46 6t-39 21q-16 13 -34 38q-17 22 -33 57l-29 59
q-21 43 -45 61t-61 18q-35 0 -66 -10q-32 -10 -58 -27q-25 -16 -42 -39q-16 -22 -16 -45q0 -31 24 -49q23 -17 80 -34l74 -22q36 -11 60 -21t39 -24q14 -12 22 -32q7 -17 7 -44q0 -46 -25 -81t-69 -61t-103 -39q-62 -14 -130 -14z" />
    <glyph glyph-name="uni06410626" unicode="&#xfed3;&#xfe8a;" horiz-adv-x="721" 
d="M580 62l-6 -2q48 -14 71 -41q23 -28 23 -65q0 -39 -21 -72q-20 -32 -60 -55q-41 -23 -94 -35q-55 -12 -123 -12q-169 0 -249 67q-81 67 -81 210q0 40 6 79q5 33 14 74h36v-6q-8 -38 -11 -71q-3 -36 -3 -69q0 -112 72 -165q73 -53 220 -53q55 0 105 8q47 8 81 21
q35 14 53 35t18 46q0 16 -9 30q-10 15 -28 23q-20 9 -51 15q-26 5 -80 10l-67 5v57l4 4l76 -6q78 -8 111 21q34 29 38 99l-2 1q-57 -33 -132 -33q-74 0 -115 37q-42 37 -42 108q0 41 13 79q13 39 36 69q23 31 52 48q30 18 64 18q37 0 69 -21t54 -60q22 -38 34 -94t12 -123
q0 -75 -21 -119t-67 -60v-2zM494 239l-1 1q35 0 66 6q29 6 63 20q-3 47 -15 86q-12 40 -30 68t-42 45q-25 17 -51 17q-25 0 -45 -13q-22 -14 -36 -34q-15 -21 -24 -48t-9 -54q0 -46 33 -70t91 -24zM23 320v2q-7 10 -12 24q-4 12 -4 24q0 19 7 33t20 27q11 11 29 19
q15 7 36 7q54 0 54 -54v-21h-29v9q0 29 -31 29q-22 0 -39 -14t-17 -33q0 -13 8 -27q7 -13 21 -25h104v-37h-184v37h37zM487 739l43 -43l-43 -42h-7l-43 42l43 43h7z" />
    <glyph glyph-name="uni06A40649" unicode="&#xfb6c;&#xfef0;" horiz-adv-x="721" 
d="M580 62l-6 -2q48 -14 71 -41q23 -28 23 -65q0 -39 -21 -72q-20 -32 -60 -55q-41 -23 -94 -35q-55 -12 -123 -12q-169 0 -249 67q-81 67 -81 210q0 40 6 79q5 33 14 74h36v-6q-8 -38 -11 -71q-3 -36 -3 -69q0 -112 72 -165q73 -53 220 -53q55 0 105 8q47 8 81 21
q35 14 53 35t18 46q0 16 -9 30q-10 15 -28 23q-20 9 -51 15q-26 5 -80 10l-67 5v57l4 4l76 -6q78 -8 111 21q34 29 38 99l-2 1q-57 -33 -132 -33q-74 0 -115 37q-42 37 -42 108q0 41 13 79q13 39 36 69q23 31 52 48q30 18 64 18q37 0 69 -21t54 -60q22 -38 34 -94t12 -123
q0 -75 -21 -119t-67 -60v-2zM494 239l-1 1q35 0 66 6q29 6 63 20q-3 47 -15 86q-12 40 -30 68t-42 45q-25 17 -51 17q-25 0 -45 -13q-22 -14 -36 -34q-15 -21 -24 -48t-9 -54q0 -46 33 -70t91 -24zM488 832l41 -41l-41 -41h-7l-42 41l42 41h7zM438 737l43 -43l-43 -42h-7
l-43 42l43 43h7zM537 737l43 -43l-43 -42h-7l-43 42l43 43h7z" />
    <glyph glyph-name="uni06A4064A" unicode="&#xfb6c;&#xfef2;" horiz-adv-x="721" 
d="M580 62l-6 -2q48 -14 71 -41q23 -28 23 -65q0 -39 -21 -72q-20 -32 -60 -55q-41 -23 -94 -35q-55 -12 -123 -12q-169 0 -249 67q-81 67 -81 210q0 40 6 79q5 33 14 74h36v-6q-8 -38 -11 -71q-3 -36 -3 -69q0 -112 72 -165q73 -53 220 -53q55 0 105 8q47 8 81 21
q35 14 53 35t18 46q0 16 -9 30q-10 15 -28 23q-20 9 -51 15q-26 5 -80 10l-67 5v57l4 4l76 -6q78 -8 111 21q34 29 38 99l-2 1q-57 -33 -132 -33q-74 0 -115 37q-42 37 -42 108q0 41 13 79q13 39 36 69q23 31 52 48q30 18 64 18q37 0 69 -21t54 -60q22 -38 34 -94t12 -123
q0 -75 -21 -119t-67 -60v-2zM494 239l-1 1q35 0 66 6q29 6 63 20q-3 47 -15 86q-12 40 -30 68t-42 45q-25 17 -51 17q-25 0 -45 -13q-22 -14 -36 -34q-15 -21 -24 -48t-9 -54q0 -46 33 -70t91 -24zM328 -314l43 -43l-43 -42h-7l-43 42l43 43h7zM427 -314l43 -43l-43 -42h-7
l-43 42l43 43h7zM488 832l41 -41l-41 -41h-7l-42 41l42 41h7zM438 737l43 -43l-43 -42h-7l-43 42l43 43h7zM537 737l43 -43l-43 -42h-7l-43 42l43 43h7z" />
    <glyph glyph-name="uni06A40626" unicode="&#xfb6c;&#xfe8a;" horiz-adv-x="721" 
d="M580 62l-6 -2q48 -14 71 -41q23 -28 23 -65q0 -39 -21 -72q-20 -32 -60 -55q-41 -23 -94 -35q-55 -12 -123 -12q-169 0 -249 67q-81 67 -81 210q0 40 6 79q5 33 14 74h36v-6q-8 -38 -11 -71q-3 -36 -3 -69q0 -112 72 -165q73 -53 220 -53q55 0 105 8q47 8 81 21
q35 14 53 35t18 46q0 16 -9 30q-10 15 -28 23q-20 9 -51 15q-26 5 -80 10l-67 5v57l4 4l76 -6q78 -8 111 21q34 29 38 99l-2 1q-57 -33 -132 -33q-74 0 -115 37q-42 37 -42 108q0 41 13 79q13 39 36 69q23 31 52 48q30 18 64 18q37 0 69 -21t54 -60q22 -38 34 -94t12 -123
q0 -75 -21 -119t-67 -60v-2zM494 239l-1 1q35 0 66 6q29 6 63 20q-3 47 -15 86q-12 40 -30 68t-42 45q-25 17 -51 17q-25 0 -45 -13q-22 -14 -36 -34q-15 -21 -24 -48t-9 -54q0 -46 33 -70t91 -24zM23 320v2q-7 10 -12 24q-4 12 -4 24q0 19 7 33t20 27q11 11 29 19
q15 7 36 7q54 0 54 -54v-21h-29v9q0 29 -31 29q-22 0 -39 -14t-17 -33q0 -13 8 -27q7 -13 21 -25h104v-37h-184v37h37zM488 834l41 -41l-41 -41h-7l-42 41l42 41h7zM438 739l43 -43l-43 -42h-7l-43 42l43 43h7zM537 739l43 -43l-43 -42h-7l-43 42l43 43h7z" />
    <glyph glyph-name="uni06420626" unicode="&#xfed7;&#xfe8a;" horiz-adv-x="721" 
d="M580 62l-6 -2q48 -14 71 -41q23 -28 23 -65q0 -39 -21 -72q-20 -32 -60 -55q-41 -23 -94 -35q-55 -12 -123 -12q-169 0 -249 67q-81 67 -81 210q0 40 6 79q5 33 14 74h36v-6q-8 -38 -11 -71q-3 -36 -3 -69q0 -112 72 -165q73 -53 220 -53q55 0 105 8q47 8 81 21
q35 14 53 35t18 46q0 16 -9 30q-10 15 -28 23q-20 9 -51 15q-26 5 -80 10l-67 5v57l4 4l76 -6q78 -8 111 21q34 29 38 99l-2 1q-57 -33 -132 -33q-74 0 -115 37q-42 37 -42 108q0 41 13 79q13 39 36 69q23 31 52 48q30 18 64 18q37 0 69 -21t54 -60q22 -38 34 -94t12 -123
q0 -75 -21 -119t-67 -60v-2zM494 239l-1 1q35 0 66 6q29 6 63 20q-3 47 -15 86q-12 40 -30 68t-42 45q-25 17 -51 17q-25 0 -45 -13q-22 -14 -36 -34q-15 -21 -24 -48t-9 -54q0 -46 33 -70t91 -24zM438 737l43 -43l-43 -42h-7l-43 42l43 43h7zM537 737l43 -43l-43 -42h-7
l-43 42l43 43h7zM23 320v2q-7 10 -12 24q-4 12 -4 24q0 19 7 33t20 27q11 11 29 19q15 7 36 7q54 0 54 -54v-21h-29v9q0 29 -31 29q-22 0 -39 -14t-17 -33q0 -13 8 -27q7 -13 21 -25h104v-37h-184v37h37z" />
    <glyph glyph-name="uni06490631.fina" unicode="&#x649;&#xfeae;" horiz-adv-x="555" 
d="M33 -255l-5 -1q-36 0 -66 13q-33 14 -60 34v34l6 4q32 -12 57 -18t51 -6q38 0 70 19t57 53t38 80q14 48 14 102q0 47 -12 107t-33 120l3 5h44l16 -59l185 29v60h40v-152q0 -59 27 -84q26 -25 84 -25h6v-45l-15 -15h-1q-70 0 -105 38t-35 117v45l-175 -27q11 -64 11 -111
q0 -70 -16 -127q-17 -59 -43 -100q-27 -43 -64 -66q-38 -24 -79 -24z" />
    <glyph glyph-name="uni06490632.fina" unicode="&#x649;&#xfeb0;" horiz-adv-x="555" 
d="M33 -255l-5 -1q-36 0 -66 13q-33 14 -60 34v34l6 4q32 -12 57 -18t51 -6q38 0 70 19t57 53t38 80q14 48 14 102q0 47 -12 107t-33 120l3 5h44l16 -59l185 29v60h40v-152q0 -59 27 -84q26 -25 84 -25h6v-45l-15 -15h-1q-70 0 -105 38t-35 117v45l-175 -27q11 -64 11 -111
q0 -70 -16 -127q-17 -59 -43 -100q-27 -43 -64 -66q-38 -24 -79 -24zM154 484l43 -43l-43 -42h-7l-43 42l43 43h7z" />
    <glyph glyph-name="uni067E0631.fina" unicode="&#xfb59;&#xfeae;" horiz-adv-x="555" 
d="M33 -255l-5 -1q-36 0 -66 13q-33 14 -60 34v34l6 4q32 -12 57 -18t51 -6q38 0 70 19t57 53t38 80q14 48 14 102q0 47 -12 107t-33 120l3 5h44l16 -59l185 29v60h40v-152q0 -59 27 -84q26 -25 84 -25h6v-45l-15 -15h-1q-70 0 -105 38t-35 117v45l-175 -27q11 -64 11 -111
q0 -70 -16 -127q-17 -59 -43 -100q-27 -43 -64 -66q-38 -24 -79 -24zM365 -162l-42 42l42 41h7l42 -41l-42 -42h-7zM462 -162l-43 42l43 41h7l42 -41l-42 -42h-7zM413 -256l-40 41l40 40h7l41 -40l-41 -41h-7z" />
    <glyph glyph-name="uni067E0632.fina" unicode="&#xfb59;&#xfeb0;" horiz-adv-x="555" 
d="M33 -255l-5 -1q-36 0 -66 13q-33 14 -60 34v34l6 4q32 -12 57 -18t51 -6q38 0 70 19t57 53t38 80q14 48 14 102q0 47 -12 107t-33 120l3 5h44l16 -59l185 29v60h40v-152q0 -59 27 -84q26 -25 84 -25h6v-45l-15 -15h-1q-70 0 -105 38t-35 117v45l-175 -27q11 -64 11 -111
q0 -70 -16 -127q-17 -59 -43 -100q-27 -43 -64 -66q-38 -24 -79 -24zM365 -162l-42 42l42 41h7l42 -41l-42 -42h-7zM462 -162l-43 42l43 41h7l42 -41l-42 -42h-7zM413 -256l-40 41l40 40h7l41 -40l-41 -41h-7zM154 484l43 -43l-43 -42h-7l-43 42l43 43h7z" />
    <glyph glyph-name="uni064906BA" unicode="&#x649;&#xfb9f;" horiz-adv-x="893" 
d="M306 -207l-1 3q-125 0 -193 66q-67 66 -67 180q0 42 6 81q6 40 18 80h36v-6q-21 -78 -21 -140q0 -95 58 -147t163 -52q110 0 164 51t54 152q0 44 -9 104t-24 120l2 5h45l12 -58l187 28v60h40v-152q0 -58 27 -84q26 -25 84 -25h6v-45l-15 -15h-1q-70 1 -106 39t-36 117v45
l-178 -28q9 -58 9 -102q0 -136 -66 -207q-66 -70 -194 -70z" />
    <glyph glyph-name="uni06490646.fina" unicode="&#x649;&#xfee6;" horiz-adv-x="893" 
d="M306 -207l-1 3q-125 0 -193 66q-67 66 -67 180q0 42 6 81q6 40 18 80h36v-6q-21 -78 -21 -140q0 -95 58 -147t163 -52q110 0 164 51t54 152q0 44 -9 104t-24 120l2 5h45l12 -58l187 28v60h40v-152q0 -58 27 -84q26 -25 84 -25h6v-45l-15 -15h-1q-70 1 -106 39t-36 117v45
l-178 -28q9 -58 9 -102q0 -136 -66 -207q-66 -70 -194 -70zM317 373l43 -43l-43 -42h-7l-43 42l43 43h7z" />
    <glyph glyph-name="uni067E0646.fina" unicode="&#xfb59;&#xfee6;" horiz-adv-x="893" 
d="M306 -207l-1 3q-125 0 -193 66q-67 66 -67 180q0 42 6 81q6 40 18 80h36v-6q-21 -78 -21 -140q0 -95 58 -147t163 -52q110 0 164 51t54 152q0 44 -9 104t-24 120l2 5h45l12 -58l187 28v60h40v-152q0 -58 27 -84q26 -25 84 -25h6v-45l-15 -15h-1q-70 1 -106 39t-36 117v45
l-178 -28q9 -58 9 -102q0 -136 -66 -207q-66 -70 -194 -70zM317 373l43 -43l-43 -42h-7l-43 42l43 43h7zM708 -158l-42 42l42 41h7l42 -41l-42 -42h-7zM805 -158l-43 42l43 41h7l42 -41l-42 -42h-7zM756 -252l-40 41l40 40h7l41 -40l-41 -41h-7z" />
    <glyph glyph-name="uni066E.init" unicode="&#x66e;" horiz-adv-x="214" 
d="M0 60l16 -2q55 0 81 29q25 28 25 89q0 37 -4 74q-5 43 -15 95l3 5h44q8 -42 13 -92q4 -37 4 -75q0 -93 -36 -138t-113 -45h-33v45z" />
    <glyph glyph-name="uni066E.medi" unicode="&#x66e;" horiz-adv-x="272" 
d="M0 60v1q70 0 123 39q-8 34 -8 69v122h40v-122q0 -59 27 -84q26 -25 84 -25h6v-45l-15 -15h-1q-44 1 -75 17q-29 15 -46 48q-25 -31 -63 -48q-39 -17 -87 -17v45z" />
    <glyph glyph-name="uni066E.fina" unicode="&#x66e;" horiz-adv-x="849" 
d="M702 103l-2 1q28 -22 66 -33q36 -10 80 -10v-44l-15 -16q-48 0 -93 18q-44 18 -82 57q-70 -42 -153 -63t-174 -21q-151 0 -221 47q-69 47 -69 152q0 29 6 62q5 30 17 68h37v-6q-7 -29 -12 -57q-5 -32 -5 -51q0 -79 62 -115t197 -36q124 0 232 39t187 112h6v-49
q-20 -20 -31 -29q-22 -18 -33 -26z" />
    <glyph glyph-name="uni066F.fina" unicode="&#x66f;" horiz-adv-x="678" 
d="M346 -234q-69 0 -126 17q-55 16 -94 48q-39 31 -60 78t-21 105q0 75 27 162h38v-6q-23 -84 -23 -144q0 -91 68 -142q67 -51 191 -51q117 0 174 39q58 39 68 129h-128q-75 0 -118 37t-43 106q0 42 13 80q14 39 36 69q23 31 52 48q30 18 64 18q38 0 68 -21t51 -60t33 -95
q13 -58 14 -123h48v-44l-15 -16h-36q-12 -120 -81 -177t-200 -57zM589 60l-3 -2q-2 55 -12 98q-11 45 -28 75q-18 31 -42 49t-52 18q-25 0 -45 -13q-22 -14 -36 -34q-15 -21 -24 -48t-9 -54q0 -45 33 -67q32 -22 91 -22h127z" />
    <glyph glyph-name="uni06A1.init" unicode="&#x6a1;" horiz-adv-x="425" 
d="M0 60l188 -2q76 0 112 27q35 27 40 98l-3 1q-57 -33 -132 -33q-74 0 -115 37q-42 38 -42 108q0 41 13 79q13 39 36 69q23 31 52 48q30 18 64 18q37 0 69 -21t54 -60q22 -38 34 -94q12 -55 12 -123q0 -112 -45 -162t-147 -50h-205v45zM212 208l-1 1q69 0 126 26
q-3 48 -15 87q-12 40 -30 68q-18 29 -40 45t-50 16q-25 0 -45 -13q-22 -14 -36 -34q-15 -21 -24 -48t-9 -54q0 -46 33 -70t91 -24z" />
    <glyph glyph-name="uni06A1.medi" unicode="&#x6a1;" horiz-adv-x="421" 
d="M421 15l-15 -16h-41q-40 0 -82 8q-40 8 -74 21q-35 -14 -75 -21q-43 -8 -86 -8h-62v45l15 15h111q20 0 39 3q-46 31 -73 75t-27 91q0 38 14 75q13 36 36 63t53 44q31 17 62 17q34 0 62 -15q29 -15 50 -41q21 -25 33 -60t12 -72q0 -53 -27 -98q-28 -46 -73 -77
q17 -4 45 -4h103v-45zM89 239l-3 -1q0 -50 36 -93t92 -66q51 19 84 57t33 79q0 31 -10 57q-11 28 -28 48q-18 21 -40 33q-23 12 -48 12t-45 -10q-21 -10 -37 -28q-16 -17 -25 -40t-9 -48z" />
    <glyph glyph-name="uni06A1.fina" unicode="&#x6a1;" horiz-adv-x="889" 
d="M889 15l-16 -19h-41q-44 0 -84 9t-75 24q-108 -41 -270 -41q-96 0 -168 11q-67 10 -112 35q-43 24 -63 62q-19 37 -19 92q0 29 6 62q5 30 17 68h37v-6q-7 -28 -12 -57q-5 -32 -5 -51q0 -40 17 -69t54 -47q39 -19 99 -26q66 -8 150 -8h130q16 0 44 2q20 1 40 6
q-46 31 -73 75t-27 91q0 38 14 75q14 36 36 63q23 27 53 44q31 17 62 17q33 0 62 -15t50 -41q21 -25 33 -60t12 -72q0 -109 -101 -175q7 -1 23 -3q8 -1 24 -1h103v-45zM556 236l-4 -1q0 -49 36 -93q36 -43 92 -66q54 21 86 56t32 80q0 31 -10 57q-11 28 -28 48
q-18 21 -40 33t-48 12q-25 0 -45 -10q-21 -10 -37 -28q-16 -17 -25 -40q-9 -22 -9 -48z" />
    <glyph glyph-name="uni06C2.fina" unicode="&#x6c2;" horiz-adv-x="552" 
d="M537 0l1 1q-28 0 -49 6q-19 6 -37 20q-16 13 -28 36q-11 20 -22 57l-18 63q-10 35 -24 49q-13 13 -39 13q-38 0 -106 -31q-67 -31 -181 -99h-7v52q115 72 186 104q74 33 119 33q38 0 57 -21t33 -72l19 -64q13 -51 36 -69t60 -18h15v-45zM277 417v2q-7 11 -12 24
q-4 12 -4 24q0 19 7 33t20 27q11 11 29 19q15 7 36 7q54 0 54 -54v-21h-29v9q0 29 -31 29q-22 0 -39 -14t-17 -33q0 -13 8 -27q7 -13 21 -25h104v-37h-184v37h37z" />
    <glyph glyph-name="uni06C3.fina" unicode="&#x6c3;" horiz-adv-x="552" 
d="M537 0l1 1q-28 0 -49 6q-19 6 -37 20q-16 13 -28 36q-11 20 -22 57l-18 63q-10 35 -24 49q-13 13 -39 13q-38 0 -106 -31q-67 -31 -181 -99h-7v52q115 72 186 104q74 33 119 33q38 0 57 -21t33 -72l19 -64q13 -51 36 -69t60 -18h15v-45zM286 501l43 -43l-43 -42h-7
l-43 42l43 43h7zM385 501l43 -43l-43 -42h-7l-43 42l43 43h7z" />
    <glyph glyph-name="uniFB51" unicode="&#x671;" horiz-adv-x="249" arabic-form="final" 
d="M233 0v-1q-76 1 -112 42t-36 126v448h47v-448q0 -55 27 -81q28 -26 84 -26h6v-45l-15 -15h-1zM168 829l-3 -3q32 0 51 -22t19 -54t-21 -51q-22 -20 -54 -20q-28 0 -54 9t-51 9q-15 0 -30 -5q-14 -5 -23 -15h-7v32q10 11 27 19q15 7 34 7q9 0 12 -1q22 49 47 73
q23 22 53 22zM159 715v4q22 0 33 8t11 21q0 17 -12 29t-32 12q-19 0 -36 -15t-30 -46l33 -9q15 -4 33 -4z" />
    <glyph glyph-name="uniFB57" unicode="&#x67e;" horiz-adv-x="849" arabic-form="final" 
d="M702 103l-2 1q28 -22 66 -33q36 -10 80 -10v-44l-15 -16q-48 0 -93 18q-44 18 -82 57q-70 -42 -153 -63t-174 -21q-151 0 -221 47q-69 47 -69 152q0 29 6 62q5 30 17 68h37v-6q-7 -29 -12 -57q-5 -32 -5 -51q0 -79 62 -115t197 -36q124 0 232 39t187 112h6v-49
q-20 -20 -31 -29q-22 -18 -33 -26zM338 -160l-42 42l42 41h7l42 -41l-42 -42h-7zM435 -160l-43 42l43 41h7l42 -41l-42 -42h-7zM386 -254l-40 41l40 40h7l41 -40l-41 -41h-7z" />
    <glyph glyph-name="uniFB58" unicode="&#x67e;" horiz-adv-x="214" arabic-form="initial" 
d="M0 60l16 -2q55 0 81 29q25 28 25 89q0 37 -4 74q-5 43 -15 95l3 5h44q8 -42 13 -92q4 -37 4 -75q0 -93 -36 -138t-113 -45h-33v45zM30 -163l-42 42l42 41h7l42 -41l-42 -42h-7zM127 -163l-43 42l43 41h7l42 -41l-42 -42h-7zM78 -257l-40 41l40 40h7l41 -40l-41 -41h-7z
" />
    <glyph glyph-name="uniFB59" unicode="&#x67e;" horiz-adv-x="272" arabic-form="medial" 
d="M0 60v1q70 0 123 39q-8 34 -8 69v122h40v-122q0 -59 27 -84q26 -25 84 -25h6v-45l-15 -15h-1q-44 1 -75 17q-29 15 -46 48q-25 -31 -63 -48q-39 -17 -87 -17v45zM80 -160l-42 42l42 41h7l42 -41l-42 -42h-7zM177 -160l-43 42l43 41h7l42 -41l-42 -42h-7zM128 -254l-40 41
l40 40h7l41 -40l-41 -41h-7z" />
    <glyph glyph-name="uniFB67" unicode="&#x679;" horiz-adv-x="849" arabic-form="final" 
d="M702 103l-2 1q28 -22 66 -33q36 -10 80 -10v-44l-15 -16q-48 0 -93 18q-44 18 -82 57q-70 -42 -153 -63t-174 -21q-151 0 -221 47q-69 47 -69 152q0 29 6 62q5 30 17 68h37v-6q-7 -29 -12 -57q-5 -32 -5 -51q0 -79 62 -115t197 -36q124 0 232 39t187 112h6v-49
q-20 -20 -31 -29q-22 -18 -33 -26zM314 362l9 16v176h32v-128q20 24 38 35q19 11 38 11q32 0 51 -22t19 -54q0 -31 -23 -51t-57 -20h-143v37h36zM426 359q22 0 33 9t11 23q0 17 -12 29t-32 12q-23 0 -44 -18t-39 -55h83z" />
    <glyph glyph-name="uniFB68" unicode="&#x679;" horiz-adv-x="214" arabic-form="initial" 
d="M0 60l16 -2q55 0 81 29q25 28 25 89q0 37 -4 74q-5 43 -15 95l3 5h44q8 -42 13 -92q4 -37 4 -75q0 -93 -36 -138t-113 -45h-33v45zM39 459l9 16v176h32v-128q20 24 38 35q19 11 38 11q32 0 51 -22t19 -54q0 -31 -23 -51t-57 -20h-143v37h36zM151 456q23 0 33 9
q11 9 11 23q0 17 -12 29t-32 12q-23 0 -44 -18t-39 -55h83z" />
    <glyph glyph-name="uniFB69" unicode="&#x679;" horiz-adv-x="272" arabic-form="medial" 
d="M0 60v1q70 0 123 39q-8 34 -8 69v122h40v-122q0 -59 27 -84q26 -25 84 -25h6v-45l-15 -15h-1q-44 1 -75 17q-29 15 -46 48q-25 -31 -63 -48q-39 -17 -87 -17v45zM60 402l9 16v176h32v-128q20 24 38 35q19 11 38 11q32 0 51 -22t19 -54q0 -31 -23 -51t-57 -20h-143v37h36z
M172 399q22 0 33 9t11 23q0 17 -12 29t-32 12q-23 0 -44 -18t-39 -55h83z" />
    <glyph glyph-name="uniFB6B" unicode="&#x6a4;" horiz-adv-x="889" arabic-form="final" 
d="M889 15l-16 -19h-41q-44 0 -84 9t-75 24q-108 -41 -270 -41q-96 0 -168 11q-67 10 -112 35q-43 24 -63 62q-19 37 -19 92q0 29 6 62q5 30 17 68h37v-6q-7 -28 -12 -57q-5 -32 -5 -51q0 -40 17 -69t54 -47q39 -19 99 -26q66 -8 150 -8h130q16 0 44 2q20 1 40 6
q-46 31 -73 75t-27 91q0 38 14 75q14 36 36 63q23 27 53 44q31 17 62 17q33 0 62 -15t50 -41q21 -25 33 -60t12 -72q0 -109 -101 -175q7 -1 23 -3q8 -1 24 -1h103v-45zM556 236l-4 -1q0 -49 36 -93q36 -43 92 -66q54 21 86 56t32 80q0 31 -10 57q-11 28 -28 48
q-18 21 -40 33t-48 12q-25 0 -45 -10q-21 -10 -37 -28q-16 -17 -25 -40q-9 -22 -9 -48zM683 712l41 -41l-41 -41h-7l-42 41l42 41h7zM633 617l43 -43l-43 -42h-7l-43 42l43 43h7zM732 617l43 -43l-43 -42h-7l-43 42l43 43h7z" />
    <glyph glyph-name="uniFB6C" unicode="&#x6a4;" horiz-adv-x="425" arabic-form="initial" 
d="M0 60l188 -2q76 0 112 27q35 27 40 98l-3 1q-57 -33 -132 -33q-74 0 -115 37q-42 38 -42 108q0 41 13 79q13 39 36 69q23 31 52 48q30 18 64 18q37 0 69 -21t54 -60q22 -38 34 -94q12 -55 12 -123q0 -112 -45 -162t-147 -50h-205v45zM212 208l-1 1q69 0 126 26
q-3 48 -15 87q-12 40 -30 68q-18 29 -40 45t-50 16q-25 0 -45 -13q-22 -14 -36 -34q-15 -21 -24 -48t-9 -54q0 -46 33 -70t91 -24zM206 801l41 -41l-41 -41h-7l-42 41l42 41h7zM156 706l43 -43l-43 -42h-7l-43 42l43 43h7zM255 706l43 -43l-43 -42h-7l-43 42l43 43h7z" />
    <glyph glyph-name="uniFB6D" unicode="&#x6a4;" horiz-adv-x="421" arabic-form="medial" 
d="M421 15l-15 -16h-41q-40 0 -82 8q-40 8 -74 21q-35 -14 -75 -21q-43 -8 -86 -8h-62v45l15 15h111q20 0 39 3q-46 31 -73 75t-27 91q0 38 14 75q13 36 36 63t53 44q31 17 62 17q34 0 62 -15q29 -15 50 -41q21 -25 33 -60t12 -72q0 -53 -27 -98q-28 -46 -73 -77
q17 -4 45 -4h103v-45zM89 239l-3 -1q0 -50 36 -93t92 -66q51 19 84 57t33 79q0 31 -10 57q-11 28 -28 48q-18 21 -40 33q-23 12 -48 12t-45 -10q-21 -10 -37 -28q-16 -17 -25 -40t-9 -48zM212 715l41 -41l-41 -41h-7l-42 41l42 41h7zM162 620l43 -43l-43 -42h-7l-43 42
l43 43h7zM261 620l43 -43l-43 -42h-7l-43 42l43 43h7z" />
    <glyph glyph-name="uniFB7B" unicode="&#x686;" horiz-adv-x="645" arabic-form="final" 
d="M645 15l-16 -18h-27q-74 1 -109 42q-34 40 -34 129v112l-65 -24q-77 -30 -132 -58q-58 -30 -99 -66q-40 -36 -61 -79q-21 -44 -21 -97q0 -51 19 -90q20 -41 55 -69q37 -29 89 -44t120 -15q65 0 122 15q54 14 100 38h7v-48q-41 -31 -105 -51q-63 -19 -135 -19
q-75 0 -132 19q-59 20 -99 55q-41 36 -62 86q-21 49 -21 111q0 63 23 115q22 50 68 93q45 42 111 78q71 39 151 71l75 29v2l-290 28q-32 3 -47 -6t-15 -43v-33h-37v73q0 44 21 59t78 9l267 -29q6 -1 15 -2t15.5 -2t11.5 -1q22 -2 30 -2h26h27h11v-57l-80 -29v-127
q0 -60 27 -85q26 -25 86 -25h32v-45zM257 -23l-43 43l43 42h7l43 -42l-43 -43h-7zM356 -23l-43 43l43 42h7l43 -42l-43 -43h-7zM307 -118l-42 41l42 41h7l41 -41l-41 -41h-7z" />
    <glyph glyph-name="uniFB7C" unicode="&#x686;" horiz-adv-x="603" arabic-form="initial" 
d="M518 217l-149 -112q-36 -27 -70 -49q-33 -21 -66 -33t-69 -18t-81 -6h-102v45l15 15h87q45 0 76 4q34 4 67 15q33 10 66 27q30 15 72 44l105 74v2l-240 64q-25 7 -42 12t-27 6t-18 3q-5 1 -13 1q-39 0 -39 -43v-38h-38v68q0 38 18 54q19 17 51 17q19 0 46 -6l80 -20
l192 -53q33 -10 60 -13q24 -3 57 -3h27v-57h-65zM223 -162l-42 42l42 41h7l42 -41l-42 -42h-7zM320 -162l-43 42l43 41h7l42 -41l-42 -42h-7zM271 -256l-40 41l40 40h7l41 -40l-41 -41h-7z" />
    <glyph glyph-name="uniFB7D" unicode="&#x686;" horiz-adv-x="635" arabic-form="medial" 
d="M635 15l-18 -18h-1q-74 2 -108 37t-34 112v39l-104 -81q-36 -27 -70 -49q-33 -21 -66 -33t-69 -18t-81 -6h-102v45l15 15h87q45 0 76 4q34 4 67 15t66 27q30 15 72 44l105 74v2l-240 64q-26 8 -42 12t-27 6t-18 3q-5 1 -13 1q-39 0 -39 -43v-38h-38v68q0 37 18 54
q19 17 51 17q19 0 46 -6l80 -20l192 -53q33 -10 60 -13q24 -3 57 -3h27v-57h-65v-59q0 -55 24 -76t86 -21h6v-45zM225 -164l-42 42l42 41h7l42 -41l-42 -42h-7zM322 -164l-43 42l43 41h7l42 -41l-42 -42h-7zM273 -258l-40 41l40 40h7l41 -40l-41 -41h-7z" />
    <glyph glyph-name="uniFB89" unicode="&#x688;" horiz-adv-x="530" arabic-form="final" 
d="M397 170l-3 1q15 -50 44 -81q28 -30 89 -30v-45l-15 -15q-47 0 -77 18t-51 54q-30 -39 -80 -60t-117 -21q-43 0 -73 6q-28 6 -49 20q-19 13 -28 36t-9 54v32h38v-21q0 -38 30 -53t106 -15q55 0 95 13q43 14 71 39l-9 27q-3 9 -9 29l-86 293v8h48zM200 571l9 16v176h32
v-128q20 24 38 35q19 11 38 11q32 0 51 -22t19 -54q0 -31 -23 -51t-57 -20h-143v37h36zM312 568q22 0 33 9t11 23q0 17 -12 29t-32 12q-23 0 -44 -18t-39 -55h83z" />
    <glyph glyph-name="uniFB8B" unicode="&#x698;" horiz-adv-x="358" arabic-form="final" 
d="M33 -255l-7 -3q-36 0 -66 13q-33 14 -60 34v34l6 4q32 -12 57 -18t51 -6q38 0 70 19t57 53t38 80q14 48 14 102q0 29 -9 83t-24 114l3 5h44l22 -113q9 -47 38 -67q28 -19 89 -19v-44l-16 -16q-38 0 -64 9t-42 30l-2 -1q-3 -67 -19 -119q-17 -55 -43 -93q-27 -38 -62 -60
q-34 -21 -75 -21zM162 547l41 -41l-41 -41h-7l-42 41l42 41h7zM112 452l43 -43l-43 -42h-7l-43 42l43 43h7zM211 452l43 -43l-43 -42h-7l-43 42l43 43h7z" />
    <glyph glyph-name="uniFB8D" unicode="&#x691;" horiz-adv-x="358" arabic-form="final" 
d="M33 -255l-7 -3q-36 0 -66 13q-33 14 -60 34v34l6 4q32 -12 57 -18t51 -6q38 0 70 19t57 53t38 80q14 48 14 102q0 29 -9 83t-24 114l3 5h44l22 -113q9 -47 38 -67q28 -19 89 -19v-44l-16 -16q-38 0 -64 9t-42 30l-2 -1q-3 -67 -19 -119q-17 -55 -43 -93q-27 -38 -62 -60
q-34 -21 -75 -21zM82 368l9 16v176h32v-128q20 24 38 35q19 11 38 11q32 0 51 -22t19 -54q0 -31 -23 -51t-57 -20h-143v37h36zM194 365q22 0 33 9t11 23q0 17 -12 29t-32 12q-23 0 -44 -18t-39 -55h83z" />
    <glyph glyph-name="uniFB8F" unicode="&#x6a9;" horiz-adv-x="908" arabic-form="final" 
d="M328 -9l-2 1q-149 0 -217 47q-67 46 -67 150q0 29 6 62q5 30 17 68h37v-6q-8 -29 -12 -57q-5 -32 -5 -51q0 -79 60 -115t194 -36q97 0 186 24q88 24 157 69l-194 291v59l415 252h7v-54l-377 -228l197 -296q23 -34 39 -53q17 -20 36 -34q17 -12 38 -19q19 -6 45 -6h20v-44
l-15 -16q-28 0 -55 5q-23 4 -46 18q-21 13 -43 36q-23 24 -45 55h-2q-71 -59 -169 -91q-96 -31 -205 -31z" />
    <glyph glyph-name="uniFB90" unicode="&#x6a9;" horiz-adv-x="398" arabic-form="initial" 
d="M80 470l95 -102q38 -38 59 -63q24 -29 39 -54q14 -24 22 -49q7 -22 7 -49q0 -71 -45 -111q-44 -40 -126 -40h-148v45l15 15h133q63 0 98 24t35 68q0 15 -5 32q-5 16 -15 32q-9 15 -29 36q-12 13 -44 45l-140 140v59l415 252h7v-54z" />
    <glyph glyph-name="uniFB91" unicode="&#x6a9;" horiz-adv-x="463" arabic-form="medial" 
d="M0 60l97 -1q125 0 132 94l-190 285v59l415 252h6v-54l-377 -228l198 -296q23 -34 39 -53q17 -20 36 -34q17 -12 38 -19q20 -6 45 -6h20v-44l-15 -16q-28 0 -55 5q-24 4 -45 18t-42 36q-23 24 -45 55l-3 -1q-10 -52 -51 -82t-105 -30h-113v45z" />
    <glyph glyph-name="uniFB93" unicode="&#x6af;" horiz-adv-x="908" arabic-form="final" 
d="M328 -9l-2 1q-149 0 -217 47q-67 46 -67 150q0 29 6 62q5 30 17 68h37v-6q-8 -29 -12 -57q-5 -32 -5 -51q0 -79 60 -115t194 -36q97 0 186 24q88 24 157 69l-194 291v59l415 252h7v-54l-377 -228l197 -296q23 -34 39 -53q17 -20 36 -34q17 -12 38 -19q19 -6 45 -6h20v-44
l-15 -16q-28 0 -55 5q-23 4 -46 18q-21 13 -43 36q-23 24 -45 55h-2q-71 -59 -169 -91q-96 -31 -205 -31zM484 587l415 252h7v-36l-415 -252h-7v36z" />
    <glyph glyph-name="uniFB94" unicode="&#x6af;" horiz-adv-x="398" arabic-form="initial" 
d="M80 470l95 -102q38 -38 59 -63q24 -29 39 -54q14 -24 22 -49q7 -22 7 -49q0 -71 -45 -111q-44 -40 -126 -40h-148v45l15 15h133q63 0 98 24t35 68q0 15 -5 32q-5 16 -15 32q-9 15 -29 36q-12 13 -44 45l-140 140v59l415 252h7v-54zM28 587l415 252h7v-36l-415 -252h-7v36
z" />
    <glyph glyph-name="uniFB95" unicode="&#x6af;" horiz-adv-x="463" arabic-form="medial" 
d="M0 60l97 -1q125 0 132 94l-190 285v59l415 252h6v-54l-377 -228l198 -296q23 -34 39 -53q17 -20 36 -34q17 -12 38 -19q20 -6 45 -6h20v-44l-15 -16q-28 0 -55 5q-24 4 -45 18t-42 36q-23 24 -45 55l-3 -1q-10 -52 -51 -82t-105 -30h-113v45zM40 585l415 252h7v-36
l-415 -252h-7v36z" />
    <glyph glyph-name="uniFB9F" unicode="&#x6ba;" horiz-adv-x="690" arabic-form="final" 
d="M308 -234v1q-122 0 -193 63q-70 63 -70 183q0 41 7 80q7 40 18 82h36v-6q-21 -78 -21 -140q0 -97 60 -148t163 -51q113 0 165 52q53 53 53 165q0 32 -7 75q-8 48 -24 119l2 5h45l20 -98q11 -50 40 -69t87 -19h1v-44l-15 -16h-1q-75 0 -108 43l-3 -1q-3 -276 -255 -276z
" />
    <glyph glyph-name="uniFBA7" unicode="&#x6c1;" horiz-adv-x="552" arabic-form="final" 
d="M537 0l1 1q-28 0 -49 6q-19 6 -37 20q-16 13 -28 36q-11 20 -22 57l-18 63q-10 35 -24 49q-13 13 -39 13q-38 0 -106 -31q-67 -31 -181 -99h-7v52q115 72 186 104q74 33 119 33q38 0 57 -21t33 -72l19 -64q13 -51 36 -69t60 -18h15v-45z" />
    <glyph glyph-name="uniFBA8" unicode="&#x6c1;" horiz-adv-x="463" arabic-form="initial" 
d="M404 290l-1 -2q6 -47 8 -63q3 -30 3 -55q0 -96 -36 -138t-113 -42q-98 0 -131 72q-48 -63 -150 -63v45l15 15q76 0 123 38q-4 15 -6 33q-1 12 -1 38v62h40v-62q0 -60 27 -88t84 -28q56 0 81 27q26 28 26 90q0 23 -3 51q-4 34 -10 66l3 4h41zM74 -184l-2 -1q0 23 12 51
q14 32 40 74h33v-6q-25 -44 -36 -66q-10 -21 -10 -36q0 -29 47 -29v-48q-3 -1 -9 -1h-11q-34 0 -49 18t-15 44z" />
    <glyph glyph-name="uniFBA9" unicode="&#x6c1;" horiz-adv-x="463" arabic-form="medial" 
d="M463 15l-16 -16h-57q-39 0 -55 -14q-15 -13 -15 -51v-138l-41 -44l-76 72q-99 93 -99 185q0 27 7 48l-2 1q-29 -32 -55 -45t-68 -13v45l15 15q23 0 41 6q19 6 35 18q17 12 35 32t42 48l27 34l31 -26l-26 -34q-41 -55 -41 -105q0 -41 24 -81q25 -42 75 -86l37 -35v104
q0 72 25 98q26 27 88 27h69v-45z" />
    <glyph glyph-name="uniFBAB" unicode="&#x6be;" horiz-adv-x="539" arabic-form="final" 
d="M332 -234l-2 1q-95 0 -143 63q-47 62 -52 171q-38 2 -57 4q-22 2 -55 8v47h115q8 54 28 103q22 53 49 90q29 39 63 63t69 24q47 0 74 -33t27 -88q0 -52 -23 -93q-22 -40 -62 -63v-3h176v-45l-15 -15h-91l-1 -2q40 -31 40 -90q0 -29 -11 -56q-11 -26 -30 -45t-45 -30
q-27 -11 -54 -11zM236 61l-2 1q78 0 124 40t46 102q0 35 -18 56t-49 21q-28 0 -55 -18q-26 -17 -49 -48q-22 -29 -37 -70t-21 -84h61zM328 -172v-2q44 0 72 24q29 24 29 62q0 45 -34 70t-96 25q-38 0 -60 -1t-68 -3q4 -85 45 -130q40 -45 112 -45z" />
    <glyph glyph-name="uniFBAC" unicode="&#x6be;" horiz-adv-x="587" arabic-form="initial" 
d="M339 375l-2 -2q57 -29 96 -54t63 -51q25 -26 35 -54q11 -30 11 -63q0 -36 -13 -63q-13 -28 -37 -49t-59 -33t-78 -12t-82 9q-38 9 -74 26q-33 -13 -71 -21q-40 -8 -80 -8h-62v45l15 15h86q18 0 27 1l27 3q-42 31 -67 74q-24 42 -24 90q0 26 8 55q8 27 21 51q13 23 32 42
q17 17 41 30v58l5 3zM87 238l-2 -3q0 -47 35 -88q34 -40 92 -66q48 23 75 57t27 80q0 30 -9 57q-9 26 -24 46q-14 19 -36 31q-21 12 -45 12t-44 -10q-22 -11 -36 -28q-15 -18 -24 -40t-9 -48zM356 50l-3 -3q68 0 105 26q36 26 36 71q0 21 -8 42q-8 20 -26 38t-47 38
q-24 17 -71 40q9 -30 9 -64q0 -53 -24 -98q-24 -46 -67 -78q22 -6 47 -9q24 -3 49 -3z" />
    <glyph glyph-name="uniFBAD" unicode="&#x6be;" horiz-adv-x="463" arabic-form="medial" 
d="M257 -234l-3 -2q-47 0 -84 17q-35 16 -60 47q-23 29 -37 74q-14 44 -15 97h-76v45l15 15h64q8 54 28 103t50 90q29 39 63 63t69 24q46 0 73 -33t27 -88q0 -53 -22 -93q-23 -41 -63 -63v-3h176v-45l-15 -15h-90l-1 -2q19 -15 30 -38q11 -24 11 -51q0 -29 -11 -56
q-10 -26 -30 -45t-45 -30q-27 -11 -54 -11zM160 58q36 0 69 11q31 11 54 30q23 20 35 45q12 26 12 57q0 35 -18 56t-49 21q-28 0 -55 -18q-26 -17 -49 -48t-39 -70t-22 -84h62zM254 -176l-1 -2q43 0 71 24q29 24 29 62q0 45 -34 70t-96 25q-38 0 -60 -1t-68 -3
q4 -85 45 -130q40 -45 114 -45z" />
    <glyph glyph-name="uniFBAF" unicode="&#x6d2;" horiz-adv-x="804" arabic-form="final" 
d="M406 -226l-1 -1q-193 0 -285 27q-91 27 -91 84q0 37 19 68q20 32 53 56q34 25 80 38q48 14 102 14h521v-45l-15 -15h-506q-53 0 -94 -9q-40 -9 -67 -24q-26 -15 -40 -33q-13 -17 -13 -34q0 -31 86 -49q85 -18 252 -18q31 0 99 2q36 1 101 5q63 4 96 7q47 5 84 9h5v-48
q-29 -6 -79 -13q-56 -7 -96 -11q-36 -3 -105 -7q-54 -3 -106 -3z" />
    <glyph glyph-name="uniFBB1" unicode="&#x6d3;" horiz-adv-x="804" arabic-form="final" 
d="M406 -226l-1 -1q-193 0 -285 27q-91 27 -91 84q0 37 19 68q20 32 53 56q34 25 80 38q48 14 102 14h521v-45l-15 -15h-506q-53 0 -94 -9q-40 -9 -67 -24q-26 -15 -40 -33q-13 -17 -13 -34q0 -31 86 -49q85 -18 252 -18q31 0 99 2q36 1 101 5q63 4 96 7q47 5 84 9h5v-48
q-29 -6 -79 -13q-56 -7 -96 -11q-36 -3 -105 -7q-54 -3 -106 -3zM227 170v2q-7 10 -12 24q-4 12 -4 24q0 19 7 33t20 27q11 11 29 19q15 7 36 7q54 0 54 -54v-21h-29v9q0 29 -31 29q-22 0 -39 -14t-17 -33q0 -13 8 -27q7 -13 21 -25h104v-37h-184v37h37z" />
    <glyph glyph-name="uniFBFD" unicode="&#x6cc;" horiz-adv-x="700" arabic-form="final" 
d="M376 -234l-5 -6q-169 0 -249 67q-81 67 -81 210q0 40 6 79q5 33 14 74h36v-6q-8 -38 -11 -71q-3 -36 -3 -69q0 -112 72 -165q73 -53 220 -53q55 0 105 8q48 8 81 22q35 15 53 35t18 44q0 17 -8 30q-7 12 -26 21q-18 9 -50 15q-14 3 -78 13l-72 10v56l4 4l69 -9
q56 -8 112 -12q51 -4 118 -4v-44l-15 -16h-37q25 -16 25 -51q0 -42 -21 -76t-60 -58t-94 -36t-123 -12z" />
    <glyph glyph-name="uniFBFE" unicode="&#x6cc;" horiz-adv-x="214" arabic-form="initial" 
d="M0 60l16 -2q55 0 81 29q25 28 25 89q0 37 -4 74q-5 43 -15 95l3 5h44q8 -42 13 -92q4 -37 4 -75q0 -93 -36 -138t-113 -45h-33v45zM36 -96l43 -43l-43 -42h-7l-43 42l43 43h7zM135 -96l43 -43l-43 -42h-7l-43 42l43 43h7z" />
    <glyph glyph-name="uniFBFF" unicode="&#x6cc;" horiz-adv-x="272" arabic-form="medial" 
d="M0 60v1q70 0 123 39q-8 34 -8 69v122h40v-122q0 -59 27 -84q26 -25 84 -25h6v-45l-15 -15h-1q-44 1 -75 17q-29 15 -46 48q-25 -31 -63 -48q-39 -17 -87 -17v45zM86 -93l43 -43l-43 -42h-7l-43 42l43 43h7zM185 -93l43 -43l-43 -42h-7l-43 42l43 43h7z" />
    <glyph glyph-name="uniFDF4" unicode="&#xfdf4;" horiz-adv-x="905" arabic-form="isolated" 
d="M191 -8v-1q-87 0 -124 27t-37 92v32h39v-21q0 -20 7 -33q8 -14 24 -21q18 -8 43 -11q27 -3 65 -3q104 0 165 48l-105 356v8h49l104 -354q12 -42 30 -69t54 -42l2 3q-15 14 -15 32q0 45 41 81t138 75l65 25v3h-278v38q0 38 27 80t90 78v97q0 24 6 41t15 27t21 15
q13 5 23 5q16 0 33 -6t51 -24l42 -21q22 -11 30 -21q8 -11 8 -30v-57l-97 -29q-93 -29 -144 -64q-52 -36 -70 -70h390v-62l-134 -45q-115 -37 -168 -68q-51 -30 -51 -61q0 -26 30 -41q31 -16 96 -23l23 -4l-7 -60l-141 20q-56 7 -91 39q-34 31 -57 93q-63 -74 -192 -74z
M610 429l-2 -1q50 22 114 39l48 15l-44 23q-34 19 -52 25q-16 6 -27 6q-19 0 -28 -13t-9 -37v-57z" />
    <glyph glyph-name="uniFDFA" unicode="&#xfdfa;" horiz-adv-x="1005" arabic-form="isolated" 
d="M662 241l-11 -1q-43 0 -57 27q-20 -27 -57 -27h-43v-153q0 -19 8 -30q7 -10 30 -10q27 0 33 8q6 7 6 24v27h31v-26v-15q0 -9 -1 -13q17 -9 39 -9q20 0 24 10q5 12 5 27v27h31v-26v-16q0 -10 -1 -15q13 -6 28 -6q26 0 26 29q0 16 -1 26q-2 20 -3 29l1 3h32q4 -22 5 -33
q2 -22 2 -27q0 -78 -61 -78q-24 0 -41 17q-14 -17 -42 -17q-18 0 -33 6t-25 16q-18 -18 -55 -18q-25 0 -40 6q-14 6 -22 20q-22 -27 -63 -27q-23 0 -36 9t-24 30l-5 -40l-57 9q-17 2 -30 6t-24 14q-17 -27 -54 -27h-136v49h145q16 0 28 6q-1 3 -1 11v13q0 18 9 35t24 30
q15 14 34 21q21 8 42 8q10 0 15 -3t9 -13l23 -68q7 -22 18 -30t34 -8q24 0 45 10q-1 3 -1 11v12v160h-238q-26 0 -42 13t-22 36h-2q-9 -17 -25 -24q-18 -8 -33 -8q-28 0 -45 17q-16 16 -16 39q0 26 18 45t53 36l47 23v31h38v-121q0 -16 6 -28t32 -12h229v160h37v-160h52
q4 0 18 2q9 1 21 8q-1 4 -1 12v15v71h34v-66q0 -23 9 -32t38 -9q23 0 39 10q-1 3 -1 11v12v219h37v-212q0 -19 8 -29q8 -9 33 -9h38q-6 6 -13 20q-6 12 -6 26q0 19 7 34q8 18 19 29q13 13 27 20t32 7q37 0 58 -18v-48h-4q-11 7 -27 12q-18 5 -33 5q-24 0 -40 -10t-16 -28
q0 -14 12 -28q11 -13 32 -19q24 1 48 5q19 3 42 9h2v-44q-24 -10 -70 -16q-45 -6 -119 -6q-43 0 -57 26q-20 -26 -59 -26zM638 569l-7 2q-40 0 -54 23q-14 -17 -28 -21q7 -7 7 -21q0 -36 -27 -54t-95 -18h-401v49h411q54 0 72 7q19 7 19 18t-10 15q-9 4 -36 7l-27 3v46l1 2
l24 -3q21 -2 32 -3q8 -1 23 -1t30 7q-1 4 -1 12v13v203h37v-197q0 -19 8 -29q8 -9 33 -9q4 0 18 2q11 2 21 6q-1 3 -1 15v35h34v-28q0 -6 2 -14q2 -7 9 -11l33 43q32 42 60 61q27 18 58 18q34 0 56 -25q23 -26 23 -63q0 -41 -25 -66t-67 -25h-102q-25 0 -43 6t-28 22
q-19 -27 -59 -27zM215 563l-4 -1q-33 0 -48 17q-16 17 -20 39h-1q-9 -16 -24 -24q-16 -8 -33 -8q-28 0 -45 17q-16 16 -16 39q0 26 18 45t53 36l47 23v32h38v-125q0 -14 8 -28q7 -13 35 -13q11 0 24 5t20 9q-2 6 -2 9v10v135h37v-128q0 -20 9 -30q9 -11 35 -11q22 0 30 11
t8 24v209h37v-212q0 -34 -17 -57q-16 -22 -59 -22q-57 0 -72 31q-7 -13 -21 -22q-13 -8 -37 -10zM848 -62l-3 -4q-19 0 -36 6q-13 5 -34 17v30l3 3q36 -10 66 -10q33 0 53 19q22 20 26 51l-1 1q-26 -14 -57 -14q-35 0 -54 18t-19 52q0 41 23 72q22 29 54 31q16 0 31 -9
q16 -9 26 -27q11 -19 17 -45q6 -27 6 -58q0 -27 -8 -53q-7 -24 -21 -42q-12 -17 -32 -28q-17 -10 -40 -10zM742 615l17 1h116q23 0 36 9t13 26q0 20 -16 32t-43 12q-32 0 -55 -13q-25 -14 -51 -43l-17 -20v-4zM468 851h37v-198h-37v198zM870 86v-1q21 0 48 8q-4 28 -20 48
q-15 20 -37 20q-19 0 -33 -14q-13 -13 -13 -30q0 -31 55 -31zM623 708l272 121h4v-19l-272 -122h-4v20zM218 82h-1q0 -14 11 -20q10 -6 33 -9l64 -9v2v2l-20 58q-4 10 -10 13t-16 3q-23 0 -42 -13t-19 -27zM83 629l1 -2q12 0 27 5q11 4 24 11v66l-39 -15q-51 -20 -51 -39
q0 -14 11 -20q10 -6 27 -6zM84 300v-2q26 0 51 15v65l-39 -14q-22 -7 -37 -17q-13 -9 -13 -22t11 -19t27 -6zM584 416l-2 -1q-16 0 -27 11q-10 10 -10 26q0 19 11 33t27 14q17 0 27 -13q11 -14 11 -33q0 -17 -10 -27t-27 -10zM46 119l201 89h4v-19l-201 -90h-4v20zM215 369
l169 76h4v-20l-169 -75h-4v19zM515 136l161 72h4v-19l-161 -73h-4v20zM244 791v1q-26 0 -26 32v17h15v-14q0 -12 11 -12q15 0 15 23v19h15v-22l6 -2q2 -1 7 -1q13 0 13 14q0 8 -5 26h15q2 -8 3 -13t1 -15q0 -35 -25 -35q-10 0 -18 5q-6 -23 -27 -23zM328 316v1q-26 0 -26 32
v17h15v-14q0 -12 11 -12q15 0 15 23v19h15v-22l6 -2q2 -1 7 -1q13 0 13 14q0 8 -5 26h15q2 -8 3 -13t1 -15q0 -35 -25 -35q-10 0 -18 5q-6 -23 -27 -23zM641 744v1q-26 0 -26 32v16h15v-13q0 -13 11 -13q15 0 15 23v20h15v-22q6 -3 13 -3q13 0 13 14q0 8 -5 26h15
q2 -8 3 -13t1 -15q0 -36 -25 -36q-10 0 -18 6q-6 -23 -27 -23zM745 440l147 66h3v-20l-147 -66h-3v20zM582 440h-1q25 0 25 17q0 9 -7 15t-18 6t-17 -6t-6 -15q0 -17 24 -17zM376 136v3l23 24l23 -24v-3l-23 -24zM376 189v3l23 24l23 -24v-3l-23 -23z" />
    <glyph glyph-name="uniFDFB" unicode="&#xfdfb;" horiz-adv-x="2562" arabic-form="isolated" 
d="M753 -7l-14 -9q-38 0 -74 3q-41 3 -71 10v47h145h31q11 0 29 2l-130 552v6h50l128 -550q73 16 120 68q-1 7 -1 21v21v572h47v-567q0 -63 27 -90t92 -27h42q45 0 76 4q34 4 67 15t66 27q30 15 72 44l105 74v2l-240 64q-26 8 -42 12t-27 6t-18 3q-5 1 -13 1q-39 0 -39 -43
v-38h-38v68q0 37 18 54q19 17 51 17q19 0 46 -6l80 -20l192 -53q36 -9 60 -12t57 -3h27v-57h-65l-144 -111l-30 -22q-9 -7 -27 -19q-1 -6 -1 -18v-17q0 -95 55 -147t156 -52q113 0 164 58q51 59 51 183v673h47v-567q0 -63 27 -90t92 -27h42q45 0 76 4q34 4 67 15
q33 10 66 27q30 15 72 44l104 74v2l-239 64q-25 7 -42 12t-27 6t-18 3q-5 1 -13 1q-39 0 -39 -43v-38h-37v68q0 38 18 54q19 17 51 17q13 0 20 -1q21 -3 26 -4q6 -1 18 -4l16 -4q17 -4 46 -12l192 -53q4 -1 11 -3t12 -3t9 -2q9 -2 27 -4l27 -3q9 -1 30 -1h26v-57h-65
l-144 -111q-36 -27 -70 -49q-33 -21 -66 -33t-69 -18t-81 -6h-57q-80 1 -111 54l-1 -1q-9 -286 -253 -286q-60 0 -108 18q-47 18 -79 51t-48 81t-15 108v18q-41 -22 -85 -31t-102 -9h-57q-113 0 -142 96q-40 -55 -96 -79q-55 -24 -138 -24zM415 -10l-2 1q-59 0 -91 30
q-31 30 -40 85h-2q-27 -33 -63 -48t-74 -15q-34 0 -58 10q-25 10 -43 27q-18 16 -27 39t-9 48q0 53 39 93q40 41 115 84l121 70v74h42v-327q0 -56 23 -84q22 -27 74 -27q46 0 75 24t29 76v587h47v-587q0 -82 -42 -121t-114 -39zM146 102h-1q78 0 133 46v8v207l-104 -56
q-33 -18 -61 -36q-25 -16 -40 -31q-14 -14 -22 -30q-7 -14 -7 -32q0 -38 30 -57q29 -19 72 -19zM1122 460l602 268h7v-37l-602 -269h-7v38zM27 454l127 51v2q-62 9 -62 52q0 17 6 33q7 18 16 29q11 13 24 20q14 8 27 8q29 0 50 -25q21 -26 21 -63q0 -35 -24 -57t-78 -45
l-100 -43h-7v38zM1982 457l416 186h7v-38l-417 -186h-6v38zM1678 465l-2 1q-27 0 -43 13q-13 -60 -68 -60q-26 0 -41 15t-15 44q0 3 2 21q1 13 6 24h26v-6l-3 -15q-1 -5 -1 -14q0 -31 30 -31q21 0 31 16t10 51v40h29v-37v-14q13 -9 33 -9q34 0 34 33q0 21 -11 57v6h30
q6 -22 8 -33q3 -16 3 -32q0 -31 -13 -50q-14 -20 -45 -20zM191 530l-2 -1q12 12 12 32q0 21 -12 36t-29 15q-14 0 -28 -15q-13 -14 -13 -33q0 -30 72 -34zM1181 -104l43 43h7l43 -43l-43 -42h-7zM2041 -104l43 43h7l43 -43l-43 -42h-7z" />
    <glyph glyph-name="uniFE82" unicode="&#x622;" horiz-adv-x="249" arabic-form="final" 
d="M233 0v-1q-76 1 -112 42t-36 126v448h47v-448q0 -55 27 -81q28 -26 84 -26h6v-45l-15 -15h-1zM-3 709l-1 -1q10 11 27 19q15 7 34 7q14 0 29 -3l30 -6l27 -6q13 -3 27 -3q30 0 47 11h6v-32q-11 -7 -24 -12q-12 -4 -30 -4q-17 0 -32 3q-20 4 -29 6q-18 4 -26 6
q-12 3 -25 3q-15 0 -30 -5q-14 -5 -23 -15h-7v32z" />
    <glyph glyph-name="uniFE84" unicode="&#x623;" horiz-adv-x="249" arabic-form="final" 
d="M233 0v-1q-76 1 -112 42t-36 126v448h47v-448q0 -55 27 -81q28 -26 84 -26h6v-45l-15 -15h-1zM55 726v2q-7 10 -12 24q-4 12 -4 24q0 19 7 33t20 27q11 11 29 19q15 7 36 7q54 0 54 -54v-21h-29v9q0 29 -31 29q-22 0 -39 -14t-17 -33q0 -13 8 -27q7 -13 21 -25h104v-37
h-184v37h37z" />
    <glyph glyph-name="uniFE86" unicode="&#x624;" horiz-adv-x="419" arabic-form="final" 
d="M143 -255q-39 0 -75 12q-32 11 -79 35v34l6 4q38 -12 74 -19q30 -6 58 -6q37 0 71 14t59 39q26 26 44 62t24 79h-126q-75 0 -118 37t-43 106q0 42 13 80q13 39 36 69q23 31 52 48q30 18 64 18q38 0 68 -21t51 -60t33 -95q13 -58 14 -123h50v-44l-15 -16h-39
q-6 -57 -25 -102q-20 -48 -49 -80q-30 -33 -67 -52t-81 -19zM328 60l-3 -2q-2 55 -12 98q-11 45 -28 75q-17 31 -42 49q-24 18 -52 18q-25 0 -45 -13q-22 -14 -36 -34q-15 -21 -24 -48t-9 -54q0 -45 33 -67q32 -22 91 -22h127zM134 469v2q-8 11 -12 24q-4 12 -4 24
q0 19 7 33t20 27q11 11 29 19q15 7 36 7q54 0 54 -54v-21h-29v9q0 29 -31 29q-22 0 -39 -14t-17 -33q0 -13 8 -27q7 -13 21 -25h104v-37h-184v37h37z" />
    <glyph glyph-name="uniFE88" unicode="&#x625;" horiz-adv-x="249" arabic-form="final" 
d="M233 0v-1q-76 1 -112 42t-36 126v577h47v-577q0 -55 27 -81q28 -26 84 -26h6v-45l-15 -15h-1zM55 -199v2q-7 11 -12 24q-4 12 -4 24q0 19 7 33t20 27q11 11 29 19q15 7 36 7q54 0 54 -54v-21h-29v9q0 29 -31 29q-22 0 -39 -14t-17 -33q0 -13 8 -27q7 -13 21 -25h104v-37
h-184v37h37z" />
    <glyph glyph-name="uniFE8A" unicode="&#x626;" horiz-adv-x="700" arabic-form="final" 
d="M376 -234l-5 -6q-169 0 -249 67q-81 67 -81 210q0 40 6 79q5 33 14 74h36v-6q-8 -38 -11 -71q-3 -36 -3 -69q0 -112 72 -165q73 -53 220 -53q55 0 105 8q48 8 81 22q35 15 53 35t18 44q0 17 -8 30q-7 12 -26 21q-18 9 -50 15q-14 3 -78 13l-72 10v56l4 4l69 -9
q56 -8 112 -12q51 -4 118 -4v-44l-15 -16h-37q25 -16 25 -51q0 -42 -21 -76t-60 -58t-94 -36t-123 -12zM23 300v2q-7 10 -12 24q-4 12 -4 24q0 19 7 33t20 27q11 11 29 19q15 7 36 7q54 0 54 -54v-21h-29v9q0 29 -31 29q-22 0 -39 -14t-17 -33q0 -13 8 -27q7 -13 21 -25h104
v-37h-184v37h37z" />
    <glyph glyph-name="uniFE8B" unicode="&#x626;" horiz-adv-x="214" arabic-form="initial" 
d="M0 60l16 -2q55 0 81 29q25 28 25 89q0 37 -4 74q-5 43 -15 95l3 5h44q8 -42 13 -92q4 -37 4 -75q0 -93 -36 -138t-113 -45h-33v45zM59 459v2q-7 11 -12 24q-4 12 -4 24q0 19 7 33t20 27q11 11 29 19q15 7 36 7q54 0 54 -54v-21h-29v9q0 29 -31 29q-22 0 -39 -14t-17 -33
q0 -13 8 -27q7 -13 21 -25h104v-37h-184v37h37z" />
    <glyph glyph-name="uniFE8C" unicode="&#x626;" horiz-adv-x="272" arabic-form="medial" 
d="M0 60v1q70 0 123 39q-8 34 -8 69v122h40v-122q0 -59 27 -84q26 -25 84 -25h6v-45l-15 -15h-1q-44 1 -75 17q-29 15 -46 48q-25 -31 -63 -48q-39 -17 -87 -17v45zM81 402v2q-7 10 -12 24q-4 12 -4 24q0 19 7 33t20 27q11 11 29 19q15 7 36 7q54 0 54 -54v-21h-29v9
q0 29 -31 29q-22 0 -39 -14t-17 -33q0 -13 8 -27q7 -13 21 -25h104v-37h-184v37h37z" />
    <glyph glyph-name="uniFE8E" unicode="&#x627;" horiz-adv-x="249" arabic-form="final" 
d="M233 0v-1q-76 1 -112 42t-36 126v577h47v-577q0 -55 27 -81q28 -26 84 -26h6v-45l-15 -15h-1z" />
    <glyph glyph-name="uniFE90" unicode="&#x628;" horiz-adv-x="849" arabic-form="final" 
d="M702 103l-2 1q28 -22 66 -33q36 -10 80 -10v-44l-15 -16q-48 0 -93 18q-44 18 -82 57q-70 -42 -153 -63t-174 -21q-151 0 -221 47q-69 47 -69 152q0 29 6 62q5 30 17 68h37v-6q-7 -29 -12 -57q-5 -32 -5 -51q0 -79 62 -115t197 -36q124 0 232 39t187 112h6v-49
q-20 -20 -31 -29q-22 -18 -33 -26zM393 -93l43 -43l-43 -42h-7l-43 42l43 43h7z" />
    <glyph glyph-name="uniFE91" unicode="&#x628;" horiz-adv-x="214" arabic-form="initial" 
d="M0 60l16 -2q55 0 81 29q25 28 25 89q0 37 -4 74q-5 43 -15 95l3 5h44q8 -42 13 -92q4 -37 4 -75q0 -93 -36 -138t-113 -45h-33v45zM84 -96l43 -43l-43 -42h-7l-43 42l43 43h7z" />
    <glyph glyph-name="uniFE92" unicode="&#x628;" horiz-adv-x="272" arabic-form="medial" 
d="M0 60v1q70 0 123 39q-8 34 -8 69v122h40v-122q0 -59 27 -84q26 -25 84 -25h6v-45l-15 -15h-1q-44 1 -75 17q-29 15 -46 48q-25 -31 -63 -48q-39 -17 -87 -17v45zM135 -93l43 -43l-43 -42h-7l-43 42l43 43h7z" />
    <glyph glyph-name="uniFE94" unicode="&#x629;" horiz-adv-x="466" arabic-form="final" 
d="M451 0h-4q-65 1 -97 30q-32 28 -39 84h-3q-25 -33 -62 -48q-36 -15 -75 -15q-34 0 -58 10q-25 10 -43 27q-18 16 -27 39t-9 48q0 53 39 93q40 41 115 84l121 70v74h42v-327q0 -57 26 -83t89 -26v-45zM173 110h-1q41 0 74 12q35 13 59 34v215l-104 -56q-33 -18 -61 -36
q-26 -17 -40 -31t-22 -30q-7 -14 -7 -32q0 -38 30 -57q29 -19 72 -19zM185 641l43 -43l-43 -42h-7l-43 42l43 43h7zM284 641l43 -43l-43 -42h-7l-43 42l43 43h7z" />
    <glyph glyph-name="uniFE96" unicode="&#x62a;" horiz-adv-x="849" arabic-form="final" 
d="M702 103l-2 1q28 -22 66 -33q36 -10 80 -10v-44l-15 -16q-48 0 -93 18q-44 18 -82 57q-70 -42 -153 -63t-174 -21q-151 0 -221 47q-69 47 -69 152q0 29 6 62q5 30 17 68h37v-6q-7 -29 -12 -57q-5 -32 -5 -51q0 -79 62 -115t197 -36q124 0 232 39t187 112h6v-49
q-20 -20 -31 -29q-22 -18 -33 -26zM344 446l43 -43l-43 -42h-7l-43 42l43 43h7zM443 446l43 -43l-43 -42h-7l-43 42l43 43h7z" />
    <glyph glyph-name="uniFE97" unicode="&#x62a;" horiz-adv-x="214" arabic-form="initial" 
d="M0 60l16 -2q55 0 81 29q25 28 25 89q0 37 -4 74q-5 43 -15 95l3 5h44q8 -42 13 -92q4 -37 4 -75q0 -93 -36 -138t-113 -45h-33v45zM68 543l43 -43l-43 -42h-7l-43 42l43 43h7zM167 543l43 -43l-43 -42h-7l-43 42l43 43h7z" />
    <glyph glyph-name="uniFE98" unicode="&#x62a;" horiz-adv-x="272" arabic-form="medial" 
d="M0 60v1q70 0 123 39q-8 34 -8 69v122h40v-122q0 -59 27 -84q26 -25 84 -25h6v-45l-15 -15h-1q-44 1 -75 17q-29 15 -46 48q-25 -31 -63 -48q-39 -17 -87 -17v45zM90 486l43 -43l-43 -42h-7l-43 42l43 43h7zM189 486l43 -43l-43 -42h-7l-43 42l43 43h7z" />
    <glyph glyph-name="uniFE9A" unicode="&#x62b;" horiz-adv-x="849" arabic-form="final" 
d="M702 103l-2 1q28 -22 66 -33q36 -10 80 -10v-44l-15 -16q-48 0 -93 18q-44 18 -82 57q-70 -42 -153 -63t-174 -21q-151 0 -221 47q-69 47 -69 152q0 29 6 62q5 30 17 68h37v-6q-7 -29 -12 -57q-5 -32 -5 -51q0 -79 62 -115t197 -36q124 0 232 39t187 112h6v-49
q-20 -20 -31 -29q-22 -18 -33 -26zM394 541l41 -41l-41 -41h-7l-42 41l42 41h7zM344 446l43 -43l-43 -42h-7l-43 42l43 43h7zM443 446l43 -43l-43 -42h-7l-43 42l43 43h7z" />
    <glyph glyph-name="uniFE9B" unicode="&#x62b;" horiz-adv-x="214" arabic-form="initial" 
d="M0 60l16 -2q55 0 81 29q25 28 25 89q0 37 -4 74q-5 43 -15 95l3 5h44q8 -42 13 -92q4 -37 4 -75q0 -93 -36 -138t-113 -45h-33v45zM118 638l41 -41l-41 -41h-7l-42 41l42 41h7zM68 543l43 -43l-43 -42h-7l-43 42l43 43h7zM167 543l43 -43l-43 -42h-7l-43 42l43 43h7z" />
    <glyph glyph-name="uniFE9C" unicode="&#x62b;" horiz-adv-x="272" arabic-form="medial" 
d="M0 60v1q70 0 123 39q-8 34 -8 69v122h40v-122q0 -59 27 -84q26 -25 84 -25h6v-45l-15 -15h-1q-44 1 -75 17q-29 15 -46 48q-25 -31 -63 -48q-39 -17 -87 -17v45zM140 581l41 -41l-41 -41h-7l-42 41l42 41h7zM90 486l43 -43l-43 -42h-7l-43 42l43 43h7zM189 486l43 -43
l-43 -42h-7l-43 42l43 43h7z" />
    <glyph glyph-name="uniFE9E" unicode="&#x62c;" horiz-adv-x="645" arabic-form="final" 
d="M645 15l-16 -18h-27q-74 1 -109 42q-34 40 -34 129v112l-65 -24q-77 -30 -132 -58q-58 -30 -99 -66q-40 -36 -61 -79q-21 -44 -21 -97q0 -51 19 -90q20 -41 55 -69q37 -29 89 -44t120 -15q65 0 122 15q54 14 100 38h7v-48q-41 -31 -105 -51q-63 -19 -135 -19
q-75 0 -132 19q-59 20 -99 55q-41 36 -62 86q-21 49 -21 111q0 63 23 115q22 50 68 93q45 42 111 78q71 39 151 71l75 29v2l-290 28q-32 3 -47 -6t-15 -43v-33h-37v73q0 44 21 59t78 9l267 -29q6 -1 15 -2t15.5 -2t11.5 -1q22 -2 30 -2h26h27h11v-57l-80 -29v-127
q0 -60 27 -85q26 -25 86 -25h32v-45zM313 24l43 -43l-43 -42h-7l-43 42l43 43h7z" />
    <glyph glyph-name="uniFE9F" unicode="&#x62c;" horiz-adv-x="603" arabic-form="initial" 
d="M518 217l-149 -112q-36 -27 -70 -49q-33 -21 -66 -33t-69 -18t-81 -6h-102v45l15 15h87q45 0 76 4q34 4 67 15q33 10 66 27q30 15 72 44l105 74v2l-240 64q-25 7 -42 12t-27 6t-18 3q-5 1 -13 1q-39 0 -39 -43v-38h-38v68q0 38 18 54q19 17 51 17q19 0 46 -6l80 -20
l192 -53q33 -10 60 -13q24 -3 57 -3h27v-57h-65zM278 -95l43 -43l-43 -42h-7l-43 42l43 43h7z" />
    <glyph glyph-name="uniFEA0" unicode="&#x62c;" horiz-adv-x="635" arabic-form="medial" 
d="M635 15l-18 -18h-1q-74 2 -108 37t-34 112v39l-104 -81q-36 -27 -70 -49q-33 -21 -66 -33t-69 -18t-81 -6h-102v45l15 15h87q45 0 76 4q34 4 67 15t66 27q30 15 72 44l105 74v2l-240 64q-26 8 -42 12t-27 6t-18 3q-5 1 -13 1q-39 0 -39 -43v-38h-38v68q0 37 18 54
q19 17 51 17q19 0 46 -6l80 -20l192 -53q33 -10 60 -13q24 -3 57 -3h27v-57h-65v-59q0 -55 24 -76t86 -21h6v-45zM280 -97l43 -43l-43 -42h-7l-43 42l43 43h7z" />
    <glyph glyph-name="uniFEA2" unicode="&#x62d;" horiz-adv-x="645" arabic-form="final" 
d="M645 15l-16 -18h-27q-74 1 -109 42q-34 40 -34 129v112l-65 -24q-77 -30 -132 -58q-58 -30 -99 -66q-40 -36 -61 -79q-21 -44 -21 -97q0 -51 19 -90q20 -41 55 -69q37 -29 89 -44t120 -15q65 0 122 15q54 14 100 38h7v-48q-41 -31 -105 -51q-63 -19 -135 -19
q-75 0 -132 19q-59 20 -99 55q-41 36 -62 86q-21 49 -21 111q0 63 23 115q22 50 68 93q45 42 111 78q71 39 151 71l75 29v2l-290 28q-32 3 -47 -6t-15 -43v-33h-37v73q0 44 21 59t78 9l267 -29q6 -1 15 -2t15.5 -2t11.5 -1q22 -2 30 -2h26h27h11v-57l-80 -29v-127
q0 -60 27 -85q26 -25 86 -25h32v-45z" />
    <glyph glyph-name="uniFEA3" unicode="&#x62d;" horiz-adv-x="603" arabic-form="initial" 
d="M518 217l-149 -112q-36 -27 -70 -49q-33 -21 -66 -33t-69 -18t-81 -6h-102v45l15 15h87q45 0 76 4q34 4 67 15q33 10 66 27q30 15 72 44l105 74v2l-240 64q-25 7 -42 12t-27 6t-18 3q-5 1 -13 1q-39 0 -39 -43v-38h-38v68q0 38 18 54q19 17 51 17q19 0 46 -6l80 -20
l192 -53q33 -10 60 -13q24 -3 57 -3h27v-57h-65z" />
    <glyph glyph-name="uniFEA4" unicode="&#x62d;" horiz-adv-x="635" arabic-form="medial" 
d="M635 15l-18 -18h-1q-74 2 -108 37t-34 112v39l-104 -81q-36 -27 -70 -49q-33 -21 -66 -33t-69 -18t-81 -6h-102v45l15 15h87q45 0 76 4q34 4 67 15t66 27q30 15 72 44l105 74v2l-240 64q-26 8 -42 12t-27 6t-18 3q-5 1 -13 1q-39 0 -39 -43v-38h-38v68q0 37 18 54
q19 17 51 17q19 0 46 -6l80 -20l192 -53q33 -10 60 -13q24 -3 57 -3h27v-57h-65v-59q0 -55 24 -76t86 -21h6v-45z" />
    <glyph glyph-name="uniFEA6" unicode="&#x62e;" horiz-adv-x="645" arabic-form="final" 
d="M645 15l-16 -18h-27q-74 1 -109 42q-34 40 -34 129v112l-65 -24q-77 -30 -132 -58q-58 -30 -99 -66q-40 -36 -61 -79q-21 -44 -21 -97q0 -51 19 -90q20 -41 55 -69q37 -29 89 -44t120 -15q65 0 122 15q54 14 100 38h7v-48q-41 -31 -105 -51q-63 -19 -135 -19
q-75 0 -132 19q-59 20 -99 55q-41 36 -62 86q-21 49 -21 111q0 63 23 115q22 50 68 93q45 42 111 78q71 39 151 71l75 29v2l-290 28q-32 3 -47 -6t-15 -43v-33h-37v73q0 44 21 59t78 9l267 -29q6 -1 15 -2t15.5 -2t11.5 -1q22 -2 30 -2h26h27h11v-57l-80 -29v-127
q0 -60 27 -85q26 -25 86 -25h32v-45zM305 613l43 -43l-43 -42h-7l-43 42l43 43h7z" />
    <glyph glyph-name="uniFEA7" unicode="&#x62e;" horiz-adv-x="603" arabic-form="initial" 
d="M518 217l-149 -112q-36 -27 -70 -49q-33 -21 -66 -33t-69 -18t-81 -6h-102v45l15 15h87q45 0 76 4q34 4 67 15q33 10 66 27q30 15 72 44l105 74v2l-240 64q-25 7 -42 12t-27 6t-18 3q-5 1 -13 1q-39 0 -39 -43v-38h-38v68q0 38 18 54q19 17 51 17q19 0 46 -6l80 -20
l192 -53q33 -10 60 -13q24 -3 57 -3h27v-57h-65zM262 563l43 -43l-43 -42h-7l-43 42l43 43h7z" />
    <glyph glyph-name="uniFEA8" unicode="&#x62e;" horiz-adv-x="635" arabic-form="medial" 
d="M635 15l-18 -18h-1q-74 2 -108 37t-34 112v39l-104 -81q-36 -27 -70 -49q-33 -21 -66 -33t-69 -18t-81 -6h-102v45l15 15h87q45 0 76 4q34 4 67 15t66 27q30 15 72 44l105 74v2l-240 64q-26 8 -42 12t-27 6t-18 3q-5 1 -13 1q-39 0 -39 -43v-38h-38v68q0 37 18 54
q19 17 51 17q19 0 46 -6l80 -20l192 -53q33 -10 60 -13q24 -3 57 -3h27v-57h-65v-59q0 -55 24 -76t86 -21h6v-45zM264 561l43 -43l-43 -42h-7l-43 42l43 43h7z" />
    <glyph glyph-name="uniFEAA" unicode="&#x62f;" horiz-adv-x="530" arabic-form="final" 
d="M397 170l-3 1q15 -50 44 -81q28 -30 89 -30v-45l-15 -15q-47 0 -77 18t-51 54q-30 -39 -80 -60t-117 -21q-43 0 -73 6q-28 6 -49 20q-19 13 -28 36t-9 54v32h38v-21q0 -38 30 -53t106 -15q55 0 95 13q43 14 71 39l-9 27q-3 9 -9 29l-86 293v8h48z" />
    <glyph glyph-name="uniFEAC" unicode="&#x630;" horiz-adv-x="530" arabic-form="final" 
d="M397 170l-3 1q15 -50 44 -81q28 -30 89 -30v-45l-15 -15q-47 0 -77 18t-51 54q-30 -39 -80 -60t-117 -21q-43 0 -73 6q-28 6 -49 20q-19 13 -28 36t-9 54v32h38v-21q0 -38 30 -53t106 -15q55 0 95 13q43 14 71 39l-9 27q-3 9 -9 29l-86 293v8h48zM279 655l43 -43l-43 -42
h-7l-43 42l43 43h7z" />
    <glyph glyph-name="uniFEAE" unicode="&#x631;" horiz-adv-x="358" arabic-form="final" 
d="M33 -255l-7 -3q-36 0 -66 13q-33 14 -60 34v34l6 4q32 -12 57 -18t51 -6q38 0 70 19t57 53t38 80q14 48 14 102q0 29 -9 83t-24 114l3 5h44l22 -113q9 -47 38 -67q28 -19 89 -19v-44l-16 -16q-38 0 -64 9t-42 30l-2 -1q-3 -67 -19 -119q-17 -55 -43 -93q-27 -38 -62 -60
q-34 -21 -75 -21z" />
    <glyph glyph-name="uniFEB0" unicode="&#x632;" horiz-adv-x="358" arabic-form="final" 
d="M33 -255l-7 -3q-36 0 -66 13q-33 14 -60 34v34l6 4q32 -12 57 -18t51 -6q38 0 70 19t57 53t38 80q14 48 14 102q0 29 -9 83t-24 114l3 5h44l22 -113q9 -47 38 -67q28 -19 89 -19v-44l-16 -16q-38 0 -64 9t-42 30l-2 -1q-3 -67 -19 -119q-17 -55 -43 -93q-27 -38 -62 -60
q-34 -21 -75 -21zM161 452l43 -43l-43 -42h-7l-43 42l43 43h7z" />
    <glyph glyph-name="uniFEB2" unicode="&#x633;" horiz-adv-x="1129" arabic-form="final" 
d="M308 -234l-2 -3q-122 0 -193 63q-70 63 -70 183q0 41 7 80q7 40 18 82h36v-6q-21 -78 -21 -140q0 -97 60 -148t163 -51q108 0 163 55t55 162q0 29 -6 74q-5 38 -20 106l2 5h45l15 -83q10 -50 39 -73q28 -22 84 -22q49 0 69 23t20 81v74h40v-69q0 -27 -1 -39
q-1 -17 -6 -34q14 -17 36 -26q23 -9 49 -9q43 0 60 23q16 22 16 83v104h40v-99q0 -40 -6 -70q23 -16 56 -23q35 -8 71 -8v-44l-15 -16q-36 0 -71 11q-33 10 -57 30q-23 -50 -92 -50q-70 0 -105 48q-13 -22 -39 -36q-25 -13 -65 -13t-70 11q-29 10 -48 36l-2 -1
q-1 -133 -69 -202t-186 -69z" />
    <glyph glyph-name="uniFEB3" unicode="&#x633;" horiz-adv-x="639" arabic-form="initial" 
d="M275 -9l-3 -4q-44 0 -81 14q-35 13 -61 42q-18 -26 -49 -36q-33 -11 -78 -11h-21v44l15 16h8q65 0 90 21t25 76v74h40v-69q0 -35 -8 -69q21 -17 54 -28q30 -10 66 -10q51 0 70 22t19 82v74h40v-69q0 -46 -7 -75q14 -17 35 -26t45 -9q74 0 74 89q0 30 -3 63q-3 30 -14 83
l3 5h42q9 -56 11 -81q3 -33 3 -69q0 -71 -30 -110t-85 -39q-62 0 -98 47q-29 -47 -102 -47z" />
    <glyph glyph-name="uniFEB4" unicode="&#x633;" horiz-adv-x="713" arabic-form="medial" 
d="M272 -9l1 -3q-43 0 -80 14q-36 14 -60 42q-18 -26 -49 -36q-33 -11 -78 -11h-21v44l15 16h8q64 0 90 21q25 21 25 76v74h40v-69q0 -35 -8 -69q21 -17 54 -28q30 -10 71 -10q48 0 66 23t18 81v74h40v-69q0 -46 -7 -75q27 -35 81 -35q42 0 57 23t15 83v104h40v-99
q0 -25 -1 -37q-1 -18 -3 -33q23 -16 56 -23q35 -8 71 -8v-44l-15 -16q-36 0 -71 11q-32 10 -58 30q-24 -50 -91 -50q-65 0 -100 47q-15 -24 -40 -36q-26 -12 -66 -12z" />
    <glyph glyph-name="uniFEB6" unicode="&#x634;" horiz-adv-x="1129" arabic-form="final" 
d="M308 -234l-2 -3q-122 0 -193 63q-70 63 -70 183q0 41 7 80q7 40 18 82h36v-6q-21 -78 -21 -140q0 -97 60 -148t163 -51q108 0 163 55t55 162q0 29 -6 74q-5 38 -20 106l2 5h45l15 -83q10 -50 39 -73q28 -22 84 -22q49 0 69 23t20 81v74h40v-69q0 -27 -1 -39
q-1 -17 -6 -34q14 -17 36 -26q23 -9 49 -9q43 0 60 23q16 22 16 83v104h40v-99q0 -40 -6 -70q23 -16 56 -23q35 -8 71 -8v-44l-15 -16q-36 0 -71 11q-33 10 -57 30q-23 -50 -92 -50q-70 0 -105 48q-13 -22 -39 -36q-25 -13 -65 -13t-70 11q-29 10 -48 36l-2 -1
q-1 -133 -69 -202t-186 -69zM794 517l41 -41l-41 -41h-7l-42 41l42 41h7zM744 422l43 -43l-43 -42h-7l-43 42l43 43h7zM843 422l43 -43l-43 -42h-7l-43 42l43 43h7z" />
    <glyph glyph-name="uniFEB7" unicode="&#x634;" horiz-adv-x="639" arabic-form="initial" 
d="M275 -9l-3 -4q-44 0 -81 14q-35 13 -61 42q-18 -26 -49 -36q-33 -11 -78 -11h-21v44l15 16h8q65 0 90 21t25 76v74h40v-69q0 -35 -8 -69q21 -17 54 -28q30 -10 66 -10q51 0 70 22t19 82v74h40v-69q0 -46 -7 -75q14 -17 35 -26t45 -9q74 0 74 89q0 30 -3 63q-3 30 -14 83
l3 5h42q9 -56 11 -81q3 -33 3 -69q0 -71 -30 -110t-85 -39q-62 0 -98 47q-29 -47 -102 -47zM385 516l41 -41l-41 -41h-7l-42 41l42 41h7zM335 421l43 -43l-43 -42h-7l-43 42l43 43h7zM434 421l43 -43l-43 -42h-7l-43 42l43 43h7z" />
    <glyph glyph-name="uniFEB8" unicode="&#x634;" horiz-adv-x="713" arabic-form="medial" 
d="M272 -9l1 -3q-43 0 -80 14q-36 14 -60 42q-18 -26 -49 -36q-33 -11 -78 -11h-21v44l15 16h8q64 0 90 21q25 21 25 76v74h40v-69q0 -35 -8 -69q21 -17 54 -28q30 -10 71 -10q48 0 66 23t18 81v74h40v-69q0 -46 -7 -75q27 -35 81 -35q42 0 57 23t15 83v104h40v-99
q0 -25 -1 -37q-1 -18 -3 -33q23 -16 56 -23q35 -8 71 -8v-44l-15 -16q-36 0 -71 11q-32 10 -58 30q-24 -50 -91 -50q-65 0 -100 47q-15 -24 -40 -36q-26 -12 -66 -12zM389 517l41 -41l-41 -41h-7l-42 41l42 41h7zM339 422l43 -43l-43 -42h-7l-43 42l43 43h7zM438 422l43 -43
l-43 -42h-7l-43 42l43 43h7z" />
    <glyph glyph-name="uniFEBA" unicode="&#x635;" horiz-adv-x="1242" arabic-form="final" 
d="M308 -234l-2 -2q-122 0 -193 63q-70 63 -70 183q0 41 7 80q7 40 18 82h36v-6q-21 -78 -21 -140q0 -97 60 -148t163 -51q108 0 163 55t55 162q0 29 -6 74q-5 38 -20 106l2 5h45l15 -83q9 -45 34 -64l82 104q36 47 71 84q33 35 65 56q33 22 63 32t68 10q43 0 77 -15t60 -42
t39 -63q14 -37 14 -76q0 -43 -19 -77q34 -22 65 -30q28 -7 63 -7v-47l-13 -13q-36 0 -72 12q-34 11 -73 44q-28 -25 -69 -40t-93 -15h-249q-73 0 -108 42h-2q-1 -133 -69 -204t-186 -71zM933 58v1q82 0 120 25q39 26 39 75q0 33 -12 60q-12 28 -33 47t-50 30q-30 11 -63 11
q-32 0 -60 -9q-30 -9 -57 -28q-28 -19 -59 -50q-26 -26 -64 -74l-61 -78l1 -3q20 -7 53 -7h246z" />
    <glyph glyph-name="uniFEBB" unicode="&#x635;" horiz-adv-x="756" arabic-form="initial" 
d="M0 60l1 -1q71 0 123 39q-5 17 -6 34q-2 24 -2 39v59h40v-59q0 -59 26 -85l79 101q36 47 71 84q33 35 65 56q33 22 63 32t66 10q43 0 77 -15q35 -15 60 -42t39 -63q14 -37 14 -76t-15 -72q-15 -32 -42 -55q-28 -23 -66 -35q-39 -12 -87 -12h-245q-96 1 -126 66
q-51 -65 -150 -65v45zM519 59v1q83 0 120 25q38 26 38 75q0 33 -12 60q-12 28 -33 47q-21 20 -49 30q-30 11 -63 11q-32 0 -60 -9q-30 -9 -57 -28q-25 -17 -58 -50q-26 -26 -64 -74l-61 -78l1 -3q13 -4 23 -5q16 -2 28 -2h247z" />
    <glyph glyph-name="uniFEBC" unicode="&#x635;" horiz-adv-x="825" arabic-form="medial" 
d="M0 60l3 -2q71 0 123 39q-5 17 -6 34q-2 24 -2 39v59h40v-59q0 -59 26 -85l79 101q36 47 71 84q33 35 65 56q33 22 63 32t66 10q42 0 77 -15t60 -42t39 -63q14 -37 14 -76q0 -43 -19 -77q34 -22 65 -30q28 -7 62 -7v-47l-12 -13q-37 0 -73 12q-34 11 -73 44
q-28 -25 -69 -40t-93 -15h-245q-96 1 -126 66q-51 -65 -150 -65v45zM521 58v1q83 0 120 25q38 26 38 75q0 33 -12 60q-12 28 -33 47q-21 20 -49 30q-30 11 -63 11q-32 0 -60 -9q-30 -9 -57 -28q-25 -17 -58 -50q-26 -26 -64 -74l-61 -78l1 -3q13 -4 23 -5q16 -2 28 -2h247z
" />
    <glyph glyph-name="uniFEBE" unicode="&#x636;" horiz-adv-x="1242" arabic-form="final" 
d="M308 -234l-2 -2q-122 0 -193 63q-70 63 -70 183q0 41 7 80q7 40 18 82h36v-6q-21 -78 -21 -140q0 -97 60 -148t163 -51q108 0 163 55t55 162q0 29 -6 74q-5 38 -20 106l2 5h45l15 -83q9 -45 34 -64l82 104q36 47 71 84q33 35 65 56q33 22 63 32t68 10q43 0 77 -15t60 -42
t39 -63q14 -37 14 -76q0 -43 -19 -77q34 -22 65 -30q28 -7 63 -7v-47l-13 -13q-36 0 -72 12q-34 11 -73 44q-28 -25 -69 -40t-93 -15h-249q-73 0 -108 42h-2q-1 -133 -69 -204t-186 -71zM933 58v1q82 0 120 25q39 26 39 75q0 33 -12 60q-12 28 -33 47t-50 30q-30 11 -63 11
q-32 0 -60 -9q-30 -9 -57 -28q-28 -19 -59 -50q-26 -26 -64 -74l-61 -78l1 -3q20 -7 53 -7h246zM905 563l43 -43l-43 -42h-7l-43 42l43 43h7z" />
    <glyph glyph-name="uniFEBF" unicode="&#x636;" horiz-adv-x="756" arabic-form="initial" 
d="M0 60l1 -1q71 0 123 39q-5 17 -6 34q-2 24 -2 39v59h40v-59q0 -59 26 -85l79 101q36 47 71 84q33 35 65 56q33 22 63 32t66 10q43 0 77 -15q35 -15 60 -42t39 -63q14 -37 14 -76t-15 -72q-15 -32 -42 -55q-28 -23 -66 -35q-39 -12 -87 -12h-245q-96 1 -126 66
q-51 -65 -150 -65v45zM519 59v1q83 0 120 25q38 26 38 75q0 33 -12 60q-12 28 -33 47q-21 20 -49 30q-30 11 -63 11q-32 0 -60 -9q-30 -9 -57 -28q-25 -17 -58 -50q-26 -26 -64 -74l-61 -78l1 -3q13 -4 23 -5q16 -2 28 -2h247zM491 564l43 -43l-43 -42h-7l-43 42l43 43h7z
" />
    <glyph glyph-name="uniFEC0" unicode="&#x636;" horiz-adv-x="825" arabic-form="medial" 
d="M0 60l3 -2q71 0 123 39q-5 17 -6 34q-2 24 -2 39v59h40v-59q0 -59 26 -85l79 101q36 47 71 84q33 35 65 56q33 22 63 32t66 10q42 0 77 -15t60 -42t39 -63q14 -37 14 -76q0 -43 -19 -77q34 -22 65 -30q28 -7 62 -7v-47l-12 -13q-37 0 -73 12q-34 11 -73 44
q-28 -25 -69 -40t-93 -15h-245q-96 1 -126 66q-51 -65 -150 -65v45zM521 58v1q83 0 120 25q38 26 38 75q0 33 -12 60q-12 28 -33 47q-21 20 -49 30q-30 11 -63 11q-32 0 -60 -9q-30 -9 -57 -28q-25 -17 -58 -50q-26 -26 -64 -74l-61 -78l1 -3q13 -4 23 -5q16 -2 28 -2h247z
M493 563l43 -43l-43 -42h-7l-43 42l43 43h7z" />
    <glyph glyph-name="uniFEC2" unicode="&#x637;" horiz-adv-x="770" arabic-form="final" 
d="M108 60l35 45v640h47v-582l17 24q36 47 71 84q33 35 65 56q33 22 63 32t68 10q40 0 75 -15t60 -42t39 -63q14 -37 14 -76q0 -43 -19 -77q34 -22 65 -30q28 -7 63 -7v-47l-13 -13q-36 0 -72 12q-34 11 -73 44q-28 -25 -69 -40q-40 -15 -93 -15h-436v60h93zM465 60l-1 3
q82 0 120 25q39 26 39 75q0 33 -12 60q-12 28 -33 47q-21 20 -49 30q-30 11 -63 11q-32 0 -60 -9q-30 -9 -57 -28q-30 -20 -59 -51q-27 -28 -64 -75l-64 -84l1 -4h302z" />
    <glyph glyph-name="uniFEC3" unicode="&#x637;" horiz-adv-x="673" arabic-form="initial" 
d="M444 369l-1 1q43 0 77 -15t60 -42t39 -63q14 -37 14 -76t-15 -72q-15 -32 -42 -55q-28 -23 -66 -35q-39 -12 -87 -12h-438v45l15 15h80l34 45v640h47v-582l17 24q39 52 70 84q32 33 65 57q33 23 63 32q32 9 68 9zM434 61v3q83 0 120 25q38 26 38 75q0 33 -12 60
q-12 28 -33 47q-21 20 -49 30q-30 11 -63 11q-31 0 -60 -9q-30 -9 -57 -28q-30 -20 -59 -51q-27 -28 -64 -75l-64 -84l2 -4h301z" />
    <glyph glyph-name="uniFEC4" unicode="&#x637;" horiz-adv-x="742" arabic-form="medial" 
d="M614 97h1q34 -22 65 -30q28 -7 62 -7v-47l-12 -13q-37 0 -73 12q-34 11 -73 44q-28 -25 -69 -40t-93 -15h-438v45l15 15h80l34 45v640h47v-582l17 24q39 52 70 84q32 33 65 57q33 23 63 32q31 9 68 9q43 0 77 -15t60 -42t39 -63q14 -37 14 -76q0 -43 -19 -77zM436 60v3
q83 0 120 25q38 26 38 75q0 33 -12 60q-12 28 -33 47q-21 20 -49 30q-30 11 -63 11q-31 0 -60 -9q-30 -9 -57 -28q-30 -20 -59 -51q-27 -28 -64 -75l-64 -84l2 -4h301z" />
    <glyph glyph-name="uniFEC6" unicode="&#x638;" horiz-adv-x="770" arabic-form="final" 
d="M108 60l35 45v640h47v-582l17 24q36 47 71 84q33 35 65 56q33 22 63 32t68 10q40 0 75 -15t60 -42t39 -63q14 -37 14 -76q0 -43 -19 -77q34 -22 65 -30q28 -7 63 -7v-47l-13 -13q-36 0 -72 12q-34 11 -73 44q-28 -25 -69 -40q-40 -15 -93 -15h-436v60h93zM465 60l-1 3
q82 0 120 25q39 26 39 75q0 33 -12 60q-12 28 -33 47q-21 20 -49 30q-30 11 -63 11q-32 0 -60 -9q-30 -9 -57 -28q-30 -20 -59 -51q-27 -28 -64 -75l-64 -84l1 -4h302zM436 567l43 -43l-43 -42h-7l-43 42l43 43h7z" />
    <glyph glyph-name="uniFEC7" unicode="&#x638;" horiz-adv-x="673" arabic-form="initial" 
d="M444 369l-1 1q43 0 77 -15t60 -42t39 -63q14 -37 14 -76t-15 -72q-15 -32 -42 -55q-28 -23 -66 -35q-39 -12 -87 -12h-438v45l15 15h80l34 45v640h47v-582l17 24q39 52 70 84q32 33 65 57q33 23 63 32q32 9 68 9zM434 61v3q83 0 120 25q38 26 38 75q0 33 -12 60
q-12 28 -33 47q-21 20 -49 30q-30 11 -63 11q-31 0 -60 -9q-30 -9 -57 -28q-30 -20 -59 -51q-27 -28 -64 -75l-64 -84l2 -4h301zM406 568l43 -43l-43 -42h-7l-43 42l43 43h7z" />
    <glyph glyph-name="uniFEC8" unicode="&#x638;" horiz-adv-x="742" arabic-form="medial" 
d="M614 97h1q34 -22 65 -30q28 -7 62 -7v-47l-12 -13q-37 0 -73 12q-34 11 -73 44q-28 -25 -69 -40t-93 -15h-438v45l15 15h80l34 45v640h47v-582l17 24q39 52 70 84q32 33 65 57q33 23 63 32q31 9 68 9q43 0 77 -15t60 -42t39 -63q14 -37 14 -76q0 -43 -19 -77zM436 60v3
q83 0 120 25q38 26 38 75q0 33 -12 60q-12 28 -33 47q-21 20 -49 30q-30 11 -63 11q-31 0 -60 -9q-30 -9 -57 -28q-30 -20 -59 -51q-27 -28 -64 -75l-64 -84l2 -4h301zM408 567l43 -43l-43 -42h-7l-43 42l43 43h7z" />
    <glyph glyph-name="uniFECA" unicode="&#x639;" horiz-adv-x="560" arabic-form="final" 
d="M307 -325l-5 -7q-130 0 -200 50q-69 50 -69 141q0 61 45 123q45 61 151 133l32 22q-2 2 -7.5 10t-8.5 13q-6 8 -18 26l-112 156l-34 -11h-6v53q58 25 120 37q60 12 111 12q181 0 181 -112q0 -40 -25 -75t-81 -79l-47 -36q20 -21 42 -37q22 -15 43 -24q23 -9 48 -12t57 -3
h33v-45l-15 -15h-18q-35 0 -68 5q-28 4 -57 17q-28 12 -53 33q-24 20 -54 53l-38 -25q-58 -38 -90 -64q-33 -27 -54 -53q-20 -24 -27 -45q-7 -20 -7 -43q0 -63 59 -99t171 -36q35 0 63 4q33 5 62 12q30 8 57 18t48 21h7v-48q-42 -31 -105 -51q-61 -19 -131 -19zM368 204
l-1 -1q42 29 60 54t18 45q0 69 -142 69q-28 0 -66 -5q-31 -4 -71 -14l-1 -3l100 -140q14 -18 20 -26q12 -16 18 -23z" />
    <glyph glyph-name="uniFECB" unicode="&#x639;" horiz-adv-x="459" arabic-form="initial" 
d="M409 53h-4q-60 -28 -138 -40q-77 -12 -178 -12h-108v46l15 14h125l1 3q-34 31 -54 71q-19 38 -19 81q0 40 15 76t42 63t63 42t77 15q31 0 64 -11q31 -10 52 -30v-56h-7q-25 20 -54 29q-30 9 -62 9q-33 0 -60 -9t-47 -26q-20 -16 -30 -39q-10 -21 -10 -50q0 -24 9 -48
q9 -23 26 -45q16 -20 41 -39q25 -18 52 -30q52 5 96 15t87 27h6v-56z" />
    <glyph glyph-name="uniFECC" unicode="&#x639;" horiz-adv-x="484" arabic-form="medial" 
d="M0 60l107 3q51 0 87 17q-20 20 -39 48l-105 147l-33 -12h-7v53q58 25 120 37q60 12 113 12q177 0 177 -109q0 -20 -6 -40q-6 -19 -21 -40t-39 -45t-60 -54q28 -16 74 -16h115v-45l-15 -15h-104q-35 0 -67 8q-30 7 -57 27q-27 -18 -57 -27t-72 -9h-126v45zM248 94l-2 -1
q40 31 66 54q28 25 41 39q15 16 21 30t6 25q0 66 -138 66q-30 0 -70 -5q-31 -4 -70 -14l-2 -3l98 -137q19 -24 25 -30q13 -15 25 -24z" />
    <glyph glyph-name="uniFECE" unicode="&#x63a;" horiz-adv-x="560" arabic-form="final" 
d="M307 -325l-5 -7q-130 0 -200 50q-69 50 -69 141q0 61 45 123q45 61 151 133l32 22q-2 2 -7.5 10t-8.5 13q-6 8 -18 26l-112 156l-34 -11h-6v53q58 25 120 37q60 12 111 12q181 0 181 -112q0 -40 -25 -75t-81 -79l-47 -36q20 -21 42 -37q22 -15 43 -24q23 -9 48 -12t57 -3
h33v-45l-15 -15h-18q-35 0 -68 5q-28 4 -57 17q-28 12 -53 33q-24 20 -54 53l-38 -25q-58 -38 -90 -64q-33 -27 -54 -53q-20 -24 -27 -45q-7 -20 -7 -43q0 -63 59 -99t171 -36q35 0 63 4q33 5 62 12q30 8 57 18t48 21h7v-48q-42 -31 -105 -51q-61 -19 -131 -19zM368 204
l-1 -1q42 29 60 54t18 45q0 69 -142 69q-28 0 -66 -5q-31 -4 -71 -14l-1 -3l100 -140q14 -18 20 -26q12 -16 18 -23zM300 624l43 -43l-43 -42h-7l-43 42l43 43h7z" />
    <glyph glyph-name="uniFECF" unicode="&#x63a;" horiz-adv-x="459" arabic-form="initial" 
d="M409 53h-4q-60 -28 -138 -40q-77 -12 -178 -12h-108v46l15 14h125l1 3q-34 31 -54 71q-19 38 -19 81q0 40 15 76t42 63t63 42t77 15q31 0 64 -11q31 -10 52 -30v-56h-7q-25 20 -54 29q-30 9 -62 9q-33 0 -60 -9t-47 -26q-20 -16 -30 -39q-10 -21 -10 -50q0 -24 9 -48
q9 -23 26 -45q16 -20 41 -39q25 -18 52 -30q52 5 96 15t87 27h6v-56zM237 607l43 -43l-43 -42h-7l-43 42l43 43h7z" />
    <glyph glyph-name="uniFED0" unicode="&#x63a;" horiz-adv-x="484" arabic-form="medial" 
d="M0 60l107 3q51 0 87 17q-20 20 -39 48l-105 147l-33 -12h-7v53q58 25 120 37q60 12 113 12q177 0 177 -109q0 -20 -6 -40q-6 -19 -21 -40t-39 -45t-60 -54q28 -16 74 -16h115v-45l-15 -15h-104q-35 0 -67 8q-30 7 -57 27q-27 -18 -57 -27t-72 -9h-126v45zM248 94l-2 -1
q40 31 66 54q28 25 41 39q15 16 21 30t6 25q0 66 -138 66q-30 0 -70 -5q-31 -4 -70 -14l-2 -3l98 -137q19 -24 25 -30q13 -15 25 -24zM237 558l43 -43l-43 -42h-7l-43 42l43 43h7z" />
    <glyph glyph-name="uniFED2" unicode="&#x641;" horiz-adv-x="889" arabic-form="final" 
d="M889 15l-16 -19h-41q-44 0 -84 9t-75 24q-108 -41 -270 -41q-96 0 -168 11q-67 10 -112 35q-43 24 -63 62q-19 37 -19 92q0 29 6 62q5 30 17 68h37v-6q-7 -28 -12 -57q-5 -32 -5 -51q0 -40 17 -69t54 -47q39 -19 99 -26q66 -8 150 -8h130q16 0 44 2q20 1 40 6
q-46 31 -73 75t-27 91q0 38 14 75q14 36 36 63q23 27 53 44q31 17 62 17q33 0 62 -15t50 -41q21 -25 33 -60t12 -72q0 -109 -101 -175q7 -1 23 -3q8 -1 24 -1h103v-45zM556 236l-4 -1q0 -49 36 -93q36 -43 92 -66q54 21 86 56t32 80q0 31 -10 57q-11 28 -28 48
q-18 21 -40 33t-48 12q-25 0 -45 -10q-21 -10 -37 -28q-16 -17 -25 -40q-9 -22 -9 -48zM682 617l43 -43l-43 -42h-7l-43 42l43 43h7z" />
    <glyph glyph-name="uniFED3" unicode="&#x641;" horiz-adv-x="425" arabic-form="initial" 
d="M0 60l188 -2q76 0 112 27q35 27 40 98l-3 1q-57 -33 -132 -33q-74 0 -115 37q-42 38 -42 108q0 41 13 79q13 39 36 69q23 31 52 48q30 18 64 18q37 0 69 -21t54 -60q22 -38 34 -94q12 -55 12 -123q0 -112 -45 -162t-147 -50h-205v45zM212 208l-1 1q69 0 126 26
q-3 48 -15 87q-12 40 -30 68q-18 29 -40 45t-50 16q-25 0 -45 -13q-22 -14 -36 -34q-15 -21 -24 -48t-9 -54q0 -46 33 -70t91 -24zM205 706l43 -43l-43 -42h-7l-43 42l43 43h7z" />
    <glyph glyph-name="uniFED4" unicode="&#x641;" horiz-adv-x="421" arabic-form="medial" 
d="M421 15l-15 -16h-41q-40 0 -82 8q-40 8 -74 21q-35 -14 -75 -21q-43 -8 -86 -8h-62v45l15 15h111q20 0 39 3q-46 31 -73 75t-27 91q0 38 14 75q13 36 36 63t53 44q31 17 62 17q34 0 62 -15q29 -15 50 -41q21 -25 33 -60t12 -72q0 -53 -27 -98q-28 -46 -73 -77
q17 -4 45 -4h103v-45zM89 239l-3 -1q0 -50 36 -93t92 -66q51 19 84 57t33 79q0 31 -10 57q-11 28 -28 48q-18 21 -40 33q-23 12 -48 12t-45 -10q-21 -10 -37 -28q-16 -17 -25 -40t-9 -48zM211 620l43 -43l-43 -42h-7l-43 42l43 43h7z" />
    <glyph glyph-name="uniFED6" unicode="&#x642;" horiz-adv-x="678" arabic-form="final" 
d="M346 -234q-69 0 -126 17q-55 16 -94 48q-39 31 -60 78t-21 105q0 75 27 162h38v-6q-23 -84 -23 -144q0 -91 68 -142q67 -51 191 -51q117 0 174 39q58 39 68 129h-128q-75 0 -118 37t-43 106q0 42 13 80q14 39 36 69q23 31 52 48q30 18 64 18q38 0 68 -21t51 -60t33 -95
q13 -58 14 -123h48v-44l-15 -16h-36q-12 -120 -81 -177t-200 -57zM589 60l-3 -2q-2 55 -12 98q-11 45 -28 75q-18 31 -42 49t-52 18q-25 0 -45 -13q-22 -14 -36 -34q-15 -21 -24 -48t-9 -54q0 -45 33 -67q32 -22 91 -22h127zM414 553l43 -43l-43 -42h-7l-43 42l43 43h7z
M513 553l43 -43l-43 -42h-7l-43 42l43 43h7z" />
    <glyph glyph-name="uniFED7" unicode="&#x642;" horiz-adv-x="425" arabic-form="initial" 
d="M0 60l188 -2q76 0 112 27q35 27 40 98l-3 1q-57 -33 -132 -33q-74 0 -115 37q-42 38 -42 108q0 41 13 79q13 39 36 69q23 31 52 48q30 18 64 18q37 0 69 -21t54 -60q22 -38 34 -94q12 -55 12 -123q0 -112 -45 -162t-147 -50h-205v45zM212 208l-1 1q69 0 126 26
q-3 48 -15 87q-12 40 -30 68q-18 29 -40 45t-50 16q-25 0 -45 -13q-22 -14 -36 -34q-15 -21 -24 -48t-9 -54q0 -46 33 -70t91 -24zM156 706l43 -43l-43 -42h-7l-43 42l43 43h7zM255 706l43 -43l-43 -42h-7l-43 42l43 43h7z" />
    <glyph glyph-name="uniFED8" unicode="&#x642;" horiz-adv-x="421" arabic-form="medial" 
d="M421 15l-15 -16h-41q-40 0 -82 8q-40 8 -74 21q-35 -14 -75 -21q-43 -8 -86 -8h-62v45l15 15h111q20 0 39 3q-46 31 -73 75t-27 91q0 38 14 75q13 36 36 63t53 44q31 17 62 17q34 0 62 -15q29 -15 50 -41q21 -25 33 -60t12 -72q0 -53 -27 -98q-28 -46 -73 -77
q17 -4 45 -4h103v-45zM89 239l-3 -1q0 -50 36 -93t92 -66q51 19 84 57t33 79q0 31 -10 57q-11 28 -28 48q-18 21 -40 33q-23 12 -48 12t-45 -10q-21 -10 -37 -28q-16 -17 -25 -40t-9 -48zM162 620l43 -43l-43 -42h-7l-43 42l43 43h7zM261 620l43 -43l-43 -42h-7l-43 42
l43 43h7z" />
    <glyph glyph-name="uniFEDA" unicode="&#x643;" horiz-adv-x="846" arabic-form="final" 
d="M846 15l-20 -15h-1q-116 0 -140 99q-73 -53 -165 -80q-93 -27 -196 -27q-149 0 -217 47q-67 46 -67 150q0 29 6 62q5 30 17 68h37v-6q-8 -29 -12 -57q-5 -32 -5 -51q0 -79 60 -115t194 -36q98 0 188 23q88 22 158 68q-1 3 -1 11v11v577h47v-577q0 -55 27 -81
q28 -26 84 -26h6v-45zM471 352q0 -37 -36 -55t-114 -18h-32v38h32q62 0 87 7q27 8 27 22q0 8 -6 14q-7 7 -22 11l-35 11q-23 7 -34 20q-10 11 -10 29q0 16 11 32t36 32l71 47h7v-37l-70 -46q-20 -14 -20 -22q0 -11 25 -20l36 -11q26 -8 36 -21q11 -14 11 -33z" />
    <glyph glyph-name="uniFEDB" unicode="&#x643;" horiz-adv-x="398" arabic-form="initial" 
d="M80 470l95 -102q38 -38 59 -63q24 -29 39 -54q14 -24 22 -49q7 -22 7 -49q0 -71 -45 -111q-44 -40 -126 -40h-148v45l15 15h133q63 0 98 24t35 68q0 15 -5 32q-5 16 -15 32q-9 15 -29 36q-12 13 -44 45l-140 140v59l415 252h7v-54z" />
    <glyph glyph-name="uniFEDC" unicode="&#x643;" horiz-adv-x="463" arabic-form="medial" 
d="M0 60l97 -1q125 0 132 94l-190 285v59l415 252h6v-54l-377 -228l198 -296q23 -34 39 -53q17 -20 36 -34q17 -12 38 -19q20 -6 45 -6h20v-44l-15 -16q-28 0 -55 5q-24 4 -45 18t-42 36q-23 24 -45 55l-3 -1q-10 -52 -51 -82t-105 -30h-113v45z" />
    <glyph glyph-name="uniFEDE" unicode="&#x644;" horiz-adv-x="676" arabic-form="final" 
d="M557 178l-1 1q0 -63 28 -90t91 -27v-45l-15 -15q-79 1 -111 53l-1 -1q-9 -286 -252 -286q-122 0 -186 66q-65 67 -65 183q0 40 6 79q6 40 18 80h36v-6q-21 -78 -21 -140q0 -94 56 -147q55 -52 156 -52q112 0 163 58q51 59 51 183v673h47v-567z" />
    <glyph glyph-name="uniFEDF" unicode="&#x644;" horiz-adv-x="249" arabic-form="initial" 
d="M0 60h-2q58 0 88 24t30 79v582h47v-582q0 -80 -41 -121q-40 -40 -114 -42h-23v45z" />
    <glyph glyph-name="uniFEE0" unicode="&#x644;" horiz-adv-x="280" arabic-form="medial" 
d="M280 15l-15 -16h-1q-47 1 -80 17q-31 15 -48 50q-25 -31 -63 -49q-37 -18 -87 -18v45l15 15q71 0 123 39q-8 34 -8 69v577h47v-577q0 -55 27 -81q28 -26 84 -26h6v-45z" />
    <glyph glyph-name="uniFEE2" unicode="&#x645;" horiz-adv-x="597" arabic-form="final" 
d="M218 251l-3 -3q-37 -14 -63 -30q-26 -17 -42 -37t-22 -49q-6 -28 -6 -66v-385h-44v385q0 56 12 96t39 70t74 51q50 23 115 41l120 33q18 5 24 -13l67 -208q9 -25 16 -38q9 -15 21 -24t29 -12t39 -3v-45l-16 -15q-54 0 -85 29q-29 28 -49 89l-53 162q-7 16 -22 12
q-164 -47 -164 -129q0 -42 32 -63q30 -20 92 -28l138 -18l-8 -60l-138 18q-80 10 -118 45q-37 34 -37 94q0 28 14 54t39 45z" />
    <glyph glyph-name="uniFEE3" unicode="&#x645;" horiz-adv-x="491" arabic-form="initial" 
d="M117 68l-2 2q-22 -35 -54 -52q-31 -16 -77 -16v45l15 15q42 0 68 20q25 20 45 63l20 43q24 51 43 81q22 34 42 53q22 20 42 29q21 9 47 9q66 0 102 -50q36 -49 36 -140q0 -33 -8 -75q-7 -35 -17 -64l-5 -15q-9 -28 -39 -21zM361 63l1 -2q22 -6 28 12q6 19 9 44q3 24 3 46
q0 66 -27 102t-75 36q-21 0 -38 -7t-34 -24t-33 -43q-17 -27 -33 -66l-17 -38z" />
    <glyph glyph-name="uniFEE4" unicode="&#x645;" horiz-adv-x="529" arabic-form="medial" 
d="M422 138l-2 -3q9 -25 16 -38q9 -15 21 -24t29 -12q16 -3 39 -3v-45l-15 -15q-57 0 -86 29t-50 89l-53 162q-5 16 -21 12q-84 -22 -123 -54t-39 -73q0 -42 32 -63q30 -20 92 -28l138 -18l-8 -60l-137 18q-44 6 -79 20q-34 14 -53 39q-19 -37 -54 -54q-36 -17 -85 -17v45
l15 15q69 0 109 40q-10 21 -10 54q0 66 56 119t159 81l18 5q18 5 24 -13z" />
    <glyph glyph-name="uniFEE6" unicode="&#x646;" horiz-adv-x="690" arabic-form="final" 
d="M308 -234v1q-122 0 -193 63q-70 63 -70 183q0 41 7 80q7 40 18 82h36v-6q-21 -78 -21 -140q0 -97 60 -148t163 -51q113 0 165 52q53 53 53 165q0 32 -7 75q-8 48 -24 119l2 5h45l20 -98q11 -50 40 -69t87 -19h1v-44l-15 -16h-1q-75 0 -108 43l-3 -1q-3 -276 -255 -276z
M311 247l43 -43l-43 -42h-7l-43 42l43 43h7z" />
    <glyph glyph-name="uniFEE7" unicode="&#x646;" horiz-adv-x="214" arabic-form="initial" 
d="M0 60l16 -2q55 0 81 29q25 28 25 89q0 37 -4 74q-5 43 -15 95l3 5h44q8 -42 13 -92q4 -37 4 -75q0 -93 -36 -138t-113 -45h-33v45zM117 543l43 -43l-43 -42h-7l-43 42l43 43h7z" />
    <glyph glyph-name="uniFEE8" unicode="&#x646;" horiz-adv-x="272" arabic-form="medial" 
d="M0 60v1q70 0 123 39q-8 34 -8 69v122h40v-122q0 -59 27 -84q26 -25 84 -25h6v-45l-15 -15h-1q-44 1 -75 17q-29 15 -46 48q-25 -31 -63 -48q-39 -17 -87 -17v45zM139 486l43 -43l-43 -42h-7l-43 42l43 43h7z" />
    <glyph glyph-name="uniFEEA" unicode="&#x647;" horiz-adv-x="466" arabic-form="final" 
d="M451 0h-4q-65 1 -97 30q-32 28 -39 84h-3q-25 -33 -62 -48q-36 -15 -75 -15q-34 0 -58 10q-25 10 -43 27q-18 16 -27 39t-9 48q0 53 39 93q40 41 115 84l121 70v74h42v-327q0 -57 26 -83t89 -26v-45zM173 110h-1q41 0 74 12q35 13 59 34v215l-104 -56q-33 -18 -61 -36
q-26 -17 -40 -31t-22 -30q-7 -14 -7 -32q0 -38 30 -57q29 -19 72 -19z" />
    <glyph glyph-name="uniFEEB" unicode="&#x647;" horiz-adv-x="587" arabic-form="initial" 
d="M339 375l-2 -2q57 -29 96 -54t63 -51q25 -26 35 -54q11 -30 11 -63q0 -36 -13 -63q-13 -28 -37 -49t-59 -33t-78 -12t-82 9q-38 9 -74 26q-33 -13 -71 -21q-40 -8 -80 -8h-62v45l15 15h86q18 0 27 1l27 3q-42 31 -67 74q-24 42 -24 90q0 26 8 55q8 27 21 51q13 23 32 42
q17 17 41 30v58l5 3zM87 238l-2 -3q0 -47 35 -88q34 -40 92 -66q48 23 75 57t27 80q0 30 -9 57q-9 26 -24 46q-14 19 -36 31q-21 12 -45 12t-44 -10q-22 -11 -36 -28q-15 -18 -24 -40t-9 -48zM356 50l-3 -3q68 0 105 26q36 26 36 71q0 21 -8 42q-8 20 -26 38t-47 38
q-24 17 -71 40q9 -30 9 -64q0 -53 -24 -98q-24 -46 -67 -78q22 -6 47 -9q24 -3 49 -3z" />
    <glyph glyph-name="uniFEEC" unicode="&#x647;" horiz-adv-x="463" arabic-form="medial" 
d="M248 -234l-1 -3q-43 0 -79 17q-34 16 -57 48q-22 30 -34 75q-11 41 -13 96h-80v45l15 15h71l128 325q9 24 31 12l15 -8q55 -29 86 -75q32 -47 32 -103q0 -49 -21 -88t-58 -61v-3h179v-45l-15 -15h-90l-1 -3q20 -13 30 -36q11 -24 11 -51q0 -30 -12 -56t-31 -45t-47 -30
t-59 -11zM162 57l-2 -2q37 0 66 10q31 11 51 28q21 18 33 43q12 26 12 57q0 40 -23 75q-23 34 -66 57q-17 7 -24 -9l-101 -259h54zM247 -179l1 -2q47 0 77 24t30 62q0 45 -34 70t-96 25q-36 0 -58 -1q-44 -2 -67 -3q2 -82 39 -128q38 -47 108 -47z" />
    <glyph glyph-name="uniFEEE" unicode="&#x648;" horiz-adv-x="419" arabic-form="final" 
d="M143 -255q-39 0 -75 12q-32 11 -79 35v34l6 4q38 -12 74 -19q30 -6 58 -6q37 0 71 14t59 39q26 26 44 62t24 79h-126q-75 0 -118 37t-43 106q0 42 13 80q13 39 36 69q23 31 52 48q30 18 64 18q38 0 68 -21t51 -60t33 -95q13 -58 14 -123h50v-44l-15 -16h-39
q-6 -57 -25 -102q-20 -48 -49 -80q-30 -33 -67 -52t-81 -19zM328 60l-3 -2q-2 55 -12 98q-11 45 -28 75q-17 31 -42 49q-24 18 -52 18q-25 0 -45 -13q-22 -14 -36 -34q-15 -21 -24 -48t-9 -54q0 -45 33 -67q32 -22 91 -22h127z" />
    <glyph glyph-name="uniFEF0" unicode="&#x649;" horiz-adv-x="700" arabic-form="final" 
d="M376 -234l-5 -6q-169 0 -249 67q-81 67 -81 210q0 40 6 79q5 33 14 74h36v-6q-8 -38 -11 -71q-3 -36 -3 -69q0 -112 72 -165q73 -53 220 -53q55 0 105 8q48 8 81 22q35 15 53 35t18 44q0 17 -8 30q-7 12 -26 21q-18 9 -50 15q-14 3 -78 13l-72 10v56l4 4l69 -9
q56 -8 112 -12q51 -4 118 -4v-44l-15 -16h-37q25 -16 25 -51q0 -42 -21 -76t-60 -58t-94 -36t-123 -12z" />
    <glyph glyph-name="uniFEF2" unicode="&#x64a;" horiz-adv-x="700" arabic-form="final" 
d="M376 -234l-5 -6q-169 0 -249 67q-81 67 -81 210q0 40 6 79q5 33 14 74h36v-6q-8 -38 -11 -71q-3 -36 -3 -69q0 -112 72 -165q73 -53 220 -53q55 0 105 8q48 8 81 22q35 15 53 35t18 44q0 17 -8 30q-7 12 -26 21q-18 9 -50 15q-14 3 -78 13l-72 10v56l4 4l69 -9
q56 -8 112 -12q51 -4 118 -4v-44l-15 -16h-37q25 -16 25 -51q0 -42 -21 -76t-60 -58t-94 -36t-123 -12zM340 -334l43 -43l-43 -42h-7l-43 42l43 43h7zM439 -334l43 -43l-43 -42h-7l-43 42l43 43h7z" />
    <glyph glyph-name="uniFEF3" unicode="&#x64a;" horiz-adv-x="214" arabic-form="initial" 
d="M0 60l16 -2q55 0 81 29q25 28 25 89q0 37 -4 74q-5 43 -15 95l3 5h44q8 -42 13 -92q4 -37 4 -75q0 -93 -36 -138t-113 -45h-33v45zM36 -96l43 -43l-43 -42h-7l-43 42l43 43h7zM135 -96l43 -43l-43 -42h-7l-43 42l43 43h7z" />
    <glyph glyph-name="uniFEF4" unicode="&#x64a;" horiz-adv-x="272" arabic-form="medial" 
d="M0 60v1q70 0 123 39q-8 34 -8 69v122h40v-122q0 -59 27 -84q26 -25 84 -25h6v-45l-15 -15h-1q-44 1 -75 17q-29 15 -46 48q-25 -31 -63 -48q-39 -17 -87 -17v45zM86 -93l43 -43l-43 -42h-7l-43 42l43 43h7zM185 -93l43 -43l-43 -42h-7l-43 42l43 43h7z" />
    <glyph glyph-name=".notdef" horiz-adv-x="281" 
d="M100 718h81v-920h-81v920z" />
    <glyph glyph-name=".null" horiz-adv-x="0" 
 />
    <glyph glyph-name=".null" horiz-adv-x="0" 
 />
    <glyph glyph-name="uni000D" unicode="&#xd;" horiz-adv-x="235" 
 />
    <glyph glyph-name="space" unicode=" " horiz-adv-x="235" 
 />
    <glyph glyph-name="exclam" unicode="!" horiz-adv-x="265" 
d="M90 34q0 43 43 43q19 0 30 -12q11 -13 11 -31t-11 -31q-11 -12 -30 -12q-43 0 -43 43zM118 188v-1q-2 12 -3 36t-3 54q-2 33 -3 64q-1 23 -3 67q-2 33 -3 63q-1 20 -1 50v145q0 8 3 13q3 4 12 4h31q15 0 15 -17v-145q0 -29 -1 -49q-2 -30 -3 -63q-2 -44 -3 -67
q-1 -31 -3 -64q-1 -30 -3 -54l-3 -36h-29z" />
    <glyph glyph-name="quotedbl" unicode="&#x22;" horiz-adv-x="313" 
d="M75 538l-1 -1q-3 21 -7 61l-5 55q-1 10 -4 44q-1 12 -1 26q0 13 8 21t21 8t21 -8t8 -21q0 -14 -1 -26q-2 -19 -3 -43q-1 -12 -5 -55q-4 -40 -7 -61h-24zM213 537l-1 -1q-3 21 -7 61l-5 55q-1 10 -4 44q-1 12 -1 26q0 13 8 21t21 8t21 -8t8 -21q0 -14 -1 -26
q-2 -19 -3 -43q-1 -12 -5 -55q-4 -40 -7 -61h-24z" />
    <glyph glyph-name="numbersign" unicode="#" horiz-adv-x="604" 
d="M64 476h127l36 204h39l-36 -204h187l36 204h39l-36 -204h128l-6 -36h-128l-32 -179h128l-6 -37h-128l-39 -224h-39l39 224h-187l-39 -224h-39l39 224h-127l6 37h127l32 179h-127zM192 261h187l32 179h-187z" />
    <glyph glyph-name="dollar" unicode="$" horiz-adv-x="507" 
d="M51 157l32 2v-42q0 -20 5 -37q4 -14 15 -25q13 -12 39 -18t75 -6q84 0 129 36t45 99q0 36 -12 62q-13 27 -34 44q-25 20 -52 32q-24 11 -63 25q-33 12 -69 29q-29 14 -55 38q-23 22 -37 54q-13 30 -13 76q0 68 47 110t126 51v109h44v-106q55 -2 86 -7q36 -6 51 -13
q12 -5 17 -10q6 -6 6 -19v-108h-39v33q0 16 -3 33q-3 16 -14 27q-13 11 -37 17q-26 6 -72 6q-70 0 -111 -30t-41 -84q0 -36 12 -60q12 -23 33 -40q20 -15 48 -28q30 -13 58 -24q45 -17 75 -31q34 -16 60 -39t39 -54q14 -33 14 -78q0 -72 -45 -123t-131 -63v-123h-44v119h-9
q-54 0 -97 5q-38 4 -61 15q-17 8 -17 25v121z" />
    <glyph glyph-name="percent" unicode="%" horiz-adv-x="792" 
d="M205 366q51 0 81 39t30 106q0 68 -30 107t-81 39t-80 -39q-29 -40 -29 -107q0 -66 29 -106q28 -39 80 -39zM205 337l-2 -1q-72 0 -115 46t-43 129q0 39 12 71t33 54t50 36q27 13 65 13q74 0 116 -45t42 -127q0 -38 -11 -71q-10 -30 -32 -55q-20 -23 -50 -37
q-27 -13 -65 -13zM590 679h43l-438 -680h-42zM585 21v-1q51 0 81 39t30 107t-30 107t-81 39t-80 -39q-29 -40 -29 -106q0 -67 29 -107q29 -39 80 -39zM585 -8q-71 0 -115 45q-43 44 -43 128q0 38 11 71q10 31 32 54q21 22 50 36q27 13 65 13q71 0 115 -45q43 -44 43 -128
q0 -38 -11 -71q-10 -31 -32 -54q-21 -22 -50 -36q-27 -13 -65 -13z" />
    <glyph glyph-name="ampersand" unicode="&#x26;" horiz-adv-x="714" 
d="M489 82l-9 -6q-39 -42 -92 -66q-52 -24 -119 -24q-52 0 -94 12t-72 36t-47 59q-16 33 -16 80q0 34 12 64q12 29 33 55q20 24 47 45q27 20 53 35l-6 6q-35 34 -60 72q-25 37 -25 90q0 36 15 63q15 28 40 45q25 18 60 27t75 9q47 0 79 -7q37 -8 48 -13q12 -5 17 -9
q6 -5 6 -18v-108h-39v34q0 18 -4 33q-5 16 -15 27q-26 23 -96 23q-53 0 -88 -25q-36 -25 -36 -76q0 -38 19 -67t54 -64l264 -261q21 34 33 74q12 39 12 80q0 23 -22 23h-60v34h208v-34h-58q-22 0 -24 -23q-6 -101 -58 -181l43 -42q27 -27 59 -39q30 -11 69 -13v-34h-35
q-30 0 -49 4q-23 5 -39 13q-18 9 -33 21t-30 27zM282 24q52 0 95 21q44 21 77 57l-247 244q-49 -32 -78 -72q-28 -40 -28 -94q0 -41 13 -68q14 -29 37 -48q24 -20 57 -30q31 -10 74 -10z" />
    <glyph glyph-name="quotesingle" unicode="'" horiz-adv-x="174" 
d="M75 538l-1 -1q-3 21 -7 61l-5 55q-1 10 -4 44q-1 12 -1 26q0 13 8 21t21 8t21 -8t8 -21q0 -14 -1 -26q-2 -19 -3 -43q-1 -12 -5 -55q-4 -40 -7 -61h-24z" />
    <glyph glyph-name="parenleft" unicode="(" horiz-adv-x="378" 
d="M321 -212v-2q-59 33 -105 84q-45 50 -79 114q-33 63 -51 135t-18 149t18 149t51 135q34 64 79 114q46 51 105 84l17 -27q-42 -26 -80 -68t-66 -99t-45 -129q-17 -74 -17 -157q0 -84 17 -158q17 -72 45 -129t66 -99t80 -68z" />
    <glyph glyph-name="parenright" unicode=")" horiz-adv-x="378" 
d="M40 -184l-1 -1q42 26 80 68q37 42 66 99t45 129q17 74 17 158t-17 158q-16 72 -45 129t-66 99q-38 42 -80 68l18 27q58 -34 104 -84q45 -50 79 -114q33 -63 51 -135t18 -148t-18 -148t-51 -135q-34 -64 -79 -114q-47 -52 -103 -84z" />
    <glyph glyph-name="asterisk" unicode="*" horiz-adv-x="442" 
d="M197 640l-3 -3q0 3 -0.5 7.5t-1 7t-0.5 3.5v6q0 13 8 21q7 7 18 7t18 -7q8 -8 8 -21v-6l-2 -18l-14 -114l102 46q16 7 23 9q8 2 11 2q13 0 20 -7q8 -8 8 -19q0 -13 -8 -18q-8 -4 -18 -6l-130 -26l78 -81q16 -16 20 -21q6 -8 6 -16q0 -14 -9 -18q-8 -4 -18 -4q-12 0 -18 6
q-4 4 -10 14l-65 107l-65 -107q-6 -10 -10 -14q-6 -6 -18 -6q-8 0 -18 5q-9 5 -9 18q0 9 6 16q4 5 20 21l78 81l-130 26q-27 5 -27 26q0 11 8 19q7 7 20 7q3 0 11 -2q7 -2 23 -9l102 -46z" />
    <glyph glyph-name="plus" unicode="+" horiz-adv-x="593" 
d="M65 285h210v196h43v-196h210v-40h-210v-207h-43v207h-210v40z" />
    <glyph glyph-name="comma" unicode="," horiz-adv-x="201" 
d="M33 -113h3q29 17 47 42t18 60h-3q-20 0 -30 12q-11 13 -11 32q0 18 11 31q10 12 30 12q23 0 35 -16t12 -45q0 -58 -29 -96q-28 -37 -68 -54z" />
    <glyph glyph-name="hyphen" unicode="-" horiz-adv-x="389" 
d="M65 308h259v-50h-259v50z" />
    <glyph glyph-name="period" unicode="." horiz-adv-x="196" 
d="M97 -9q-19 0 -30 12q-11 13 -11 32t11 32q11 12 30 12q23 0 33 -12q11 -13 11 -32t-11 -32q-10 -12 -33 -12z" />
    <glyph glyph-name="slash" unicode="/" horiz-adv-x="372" 
d="M331 745h48l-326 -950h-49z" />
    <glyph glyph-name="zero" unicode="0" horiz-adv-x="566" 
d="M46 238l-4 -3q0 54 18 99q18 44 50 78q32 33 75 51t95 18q53 0 95 -16q43 -17 75 -48q32 -32 50 -77t18 -103q0 -55 -18 -100q-18 -46 -49 -78q-31 -33 -75 -51t-94 -18q-49 0 -94 17q-44 17 -75 48t-49 78t-18 105zM279 25h-1q80 0 128 55q48 56 48 156t-48 156t-127 56
q-39 0 -71 -15t-54 -42t-36 -66q-13 -38 -13 -89q0 -100 48 -156q48 -55 126 -55z" />
    <glyph glyph-name="one" unicode="1" horiz-adv-x="375" 
d="M60 34h101q19 0 19 21v361q0 21 -19 21q-3 0 -21 -2q-20 -2 -29 -4q-20 -4 -29 -6l-12.5 -2.5t-8.5 -1.5v34l48 12q10 3 45 10q8 2 20.5 4.5t15.5 2.5q15 3 20 3q25 0 25 -24v-408q0 -21 19 -21h91v-34h-285v34z" />
    <glyph glyph-name="two" unicode="2" horiz-adv-x="473" 
d="M37 32l-4 -3q56 36 92 60q49 33 93 72q44 40 72 82q29 44 29 90q0 49 -33 78q-32 28 -94 28q-41 0 -69 -7q-29 -7 -49 -18h-7v39q19 12 57 21t81 9q92 0 134 -39t42 -103q0 -33 -14 -67q-13 -32 -36 -61t-51 -54q-33 -29 -58 -47q-36 -25 -57 -38q-10 -6 -25.5 -16
t-20.5 -13h317v-45h-399v32z" />
    <glyph glyph-name="three" unicode="3" horiz-adv-x="435" 
d="M34 -161l-1 -1q16 -5 39 -8q26 -3 48 -3q39 0 74 11q34 11 57 31q25 22 38 51q14 31 14 71q0 33 -14 63q-13 28 -39 48t-60 30q-36 11 -76 11h-17v39h17q36 0 69 11q32 11 56 30q23 19 37 45q13 25 13 56q0 59 -34 89q-35 30 -99 30q-30 0 -57 -7q-30 -8 -51 -19h-6v39
q24 13 62 21q40 8 69 8q89 0 135 -39t46 -112q0 -33 -14 -63q-13 -28 -35 -48t-46 -33q-25 -14 -48 -18v-3q31 -6 60 -21q30 -16 51 -37q23 -23 36 -52t13 -64q0 -49 -18 -88q-18 -38 -50 -66q-31 -26 -75 -40q-45 -14 -93 -14q-25 0 -55 3q-26 3 -46 8v41z" />
    <glyph glyph-name="four" unicode="4" horiz-adv-x="542" 
d="M21 29l345 462h29v-446h118v-45h-118v-207h-55v207h-319v29zM340 45v354l-260 -354h260z" />
    <glyph glyph-name="five" unicode="5" horiz-adv-x="451" 
d="M114 429v-206h29q117 0 182 -55q66 -55 66 -154q0 -52 -18 -94t-51 -72q-32 -29 -80 -46q-45 -16 -103 -16q-9 0 -41 2q-25 2 -41 6v41h6q12 -3 38 -7q21 -3 33 -3q90 0 143 46q54 47 54 132t-54 128q-55 44 -149 44h-26q-11 0 -29 -2v303h253q20 0 20 20v38h38v-85
q0 -20 -20 -20h-250z" />
    <glyph glyph-name="six" unicode="6" horiz-adv-x="529" 
d="M184 394l-4 1q15 4 38 6q30 2 41 2q100 0 153 -47t53 -140q0 -48 -12 -89t-36 -71t-61 -46q-36 -16 -87 -16q-103 0 -157 72t-54 224q0 101 21 176q21 76 60 125t93 75q53 25 120 25q53 0 83 -8v-41h-7q-11 4 -34 7q-21 3 -40 3q-110 0 -172 -87q-61 -86 -61 -276
q0 -71 9 -120q9 -48 29 -81q19 -31 48 -46t68 -15q65 0 98 48t33 129q0 80 -40 120q-41 41 -135 41h-47v29z" />
    <glyph glyph-name="seven" unicode="7" horiz-adv-x="463" 
d="M112 429q-42 0 -42 -41v-57h-38v125q0 20 20 20h379v-27l-316 -670l-48 18l310 632h-265z" />
    <glyph glyph-name="eight" unicode="8" horiz-adv-x="508" 
d="M54 159l-6 -4q0 34 12 64t33 54q22 25 48 44q28 20 58 36q-61 32 -93 76q-33 45 -33 101q0 33 14 63q14 29 38 50t57 33t73 12q80 0 125 -39t45 -106q0 -55 -39 -100t-98 -74q76 -41 120 -87q43 -46 43 -111q0 -40 -15 -73t-42 -57q-26 -23 -64 -37q-36 -13 -82 -13
q-47 0 -84 14q-36 14 -61 37t-37 54q-12 30 -12 63zM230 336l1 -2q-60 -32 -93 -75t-33 -99q0 -60 39 -99t109 -39q30 0 57 11q26 10 44 29q17 17 28 42q10 23 10 53q2 59 -36 96t-111 75zM130 534l-1 -2q0 -42 27 -79t86 -66l13 -7q59 28 87 69q29 41 29 83q0 57 -33 87
t-87 30q-53 0 -87 -31t-34 -84z" />
    <glyph glyph-name="nine" unicode="9" horiz-adv-x="529" 
d="M345 82l-3 -2q-15 -5 -37 -6q-15 -1 -40 -1q-100 0 -153 47q-52 46 -52 140q0 48 12 89t36 71t62 47q39 17 87 17q103 0 157 -72t54 -224q0 -101 -21 -176q-21 -76 -60 -125t-93 -75q-53 -25 -120 -25q-27 0 -48 3q-23 3 -34 7v40h6q11 -4 34 -7q21 -3 41 -3
q111 0 172 87q61 86 61 275q0 139 -38 200q-38 60 -114 60q-66 0 -99 -48t-33 -129q0 -79 41 -120t135 -41h47v-29z" />
    <glyph glyph-name="colon" unicode=":" horiz-adv-x="206" 
d="M102 -9q-20 0 -30 12q-11 13 -11 32t11 32q10 12 30 12q22 0 33 -12q11 -13 11 -32t-11 -32q-11 -12 -33 -12zM102 398q-20 0 -30 12q-11 13 -11 32q0 18 11 31q10 12 30 12q22 0 33 -12q11 -13 11 -31q0 -19 -11 -32q-11 -12 -33 -12z" />
    <glyph glyph-name="semicolon" unicode=";" horiz-adv-x="208" 
d="M102 397h-1q-19 0 -31 12t-12 32t12 32t32 12q21 0 33 -12t12 -32t-12 -32t-33 -12zM37 -113q29 17 47 42t18 60h-3q-18 0 -30 12t-12 32q0 19 12 31t32 12q23 0 35 -16t12 -45q0 -59 -28 -96t-69 -54z" />
    <glyph glyph-name="less" unicode="&#x3c;" horiz-adv-x="495" 
d="M68 252l315 200l22 -34l-283 -178l283 -178l-22 -34l-315 200v24z" />
    <glyph glyph-name="equal" unicode="=" horiz-adv-x="572" 
d="M75 217h422v-41h-422v41zM75 363h422v-41h-422v41z" />
    <glyph glyph-name="greater" unicode="&#x3e;" horiz-adv-x="495" 
d="M90 62l283 178l-283 178l22 34l315 -200v-24l-315 -200z" />
    <glyph glyph-name="question" unicode="?" horiz-adv-x="402" 
d="M120 178l-4 -2q-8 16 -12 36q-5 22 -5 44q0 49 23 81q22 31 74 63q25 15 41 27q18 14 32 29q13 15 21 35q7 18 7 45q0 56 -36 81q-37 26 -100 26q-35 0 -67 -8q-30 -7 -48 -18h-7v42q24 13 60 21q38 8 78 8q89 0 135 -39q47 -39 47 -110q0 -36 -10 -60q-11 -26 -28 -46
q-18 -21 -43 -37q-26 -16 -54 -33q-41 -23 -61 -48q-19 -23 -19 -64q0 -21 4 -37q5 -19 9 -29v-7h-37zM97 32q0 43 43 43q20 0 30 -12q11 -13 11 -31t-11 -31q-10 -12 -30 -12q-43 0 -43 43z" />
    <glyph glyph-name="at" unicode="@" horiz-adv-x="907" 
d="M572 439l-47 -2q-52 0 -93 -19q-43 -20 -72 -55t-46 -89q-16 -51 -16 -118q0 -59 22 -90q23 -32 60 -32q38 0 75 28q39 30 68 70zM610 -164l-9 -2q-38 -16 -88 -28q-48 -12 -105 -12q-78 0 -144 24t-114 72q-47 47 -76 120q-28 71 -28 169q0 107 33 192t92 144t138 90
q81 32 173 32q87 0 156 -27q71 -28 116 -76q46 -50 72 -117q25 -66 25 -147q0 -46 -12 -96t-39 -90q-26 -40 -72 -67q-45 -27 -109 -27q-54 0 -79 22q-26 22 -27 69h-3q-13 -18 -31 -34q-20 -18 -37 -30q-20 -13 -42 -21q-21 -7 -47 -7q-53 0 -84 42q-31 41 -31 122
q0 71 21 131t60 102t93 66t120 24h98l-56 -351l-3 -21q-1 -7 -1 -18q0 -27 13 -44q13 -18 54 -18q49 0 83 23q33 23 53 59q20 38 29 79q9 43 9 84q0 73 -21 135t-63 105q-43 45 -103 68q-61 24 -139 24q-85 0 -156 -28q-72 -28 -124 -82q-52 -53 -82 -132q-30 -78 -30 -177
q0 -88 24 -153t67 -108t103 -64t132 -21q50 0 97 11q44 10 79 24z" />
    </font>
</defs>
</svg>
