<?xml version="1.0" encoding="utf-8"?>
<!-- Generator: Adobe Illustrator 26.5.0, SVG Export Plug-In . SVG Version: 6.00 Build 0)  -->
<svg version="1.0" id="Layer_1" xmlns="http://www.w3.org/2000/svg" xmlns:xlink="http://www.w3.org/1999/xlink" x="0px" y="0px"
	 viewBox="0 0 32 32" enable-background="new 0 0 32 32" xml:space="preserve">
<g>
	<g>
		<g>
			<g>
				<g>
					<path fill="#F5F9FC" d="M13.7,26.7h9.2c0.4,0,0.8-0.1,1.2-0.2c0.4-0.2,0.7-0.4,1-0.7c0.3-0.3,0.5-0.6,0.7-1
						c0.2-0.4,0.2-0.8,0.2-1.2V6.7c0-1.8-0.7-3.5-1.9-4.7c-1.2-1.3-2.9-2-4.6-2h-8.8v23.6c0,0.4,0.1,0.8,0.2,1.2
						c0.2,0.4,0.4,0.7,0.7,1c0.3,0.3,0.6,0.5,1,0.7C12.9,26.6,13.3,26.7,13.7,26.7z"/>
				</g>
			</g>
		</g>
	</g>
	<g>
		<g>
			<g>
				<g>
					<path fill="#F5F9FC" d="M5.2,4.6h5.7c1.3,0,2.5,0.5,3.4,1.4c0.9,0.9,1.4,2.2,1.4,3.5v17.5c0,1.3-0.5,2.6-1.4,3.5
						c-0.9,0.9-2.1,1.4-3.4,1.4H0.4V9.5C0.4,8.2,0.9,7,1.8,6C2.7,5.1,3.9,4.6,5.2,4.6"/>
				</g>
			</g>
		</g>
	</g>
	<path fill="#143B61" d="M7.8,29.3C7.9,29.3,7.9,29.3,7.8,29.3c0,0.1,0,0.1,0,0.1c0,0,0,0,0,0c0,0,0,0-0.1,0c-0.1,0-0.1,0-0.2,0
		c0,0-0.1-0.1-0.1-0.1c0,0,0,0,0-0.1c0,0,0,0,0-0.1c0,0,0,0,0,0c0,0,0,0,0.1,0c0.1,0,0.1,0,0.2,0C7.8,29.2,7.8,29.2,7.8,29.3z"/>
	<path fill="#143B61" d="M8.8,29.3C8.8,29.3,8.8,29.3,8.8,29.3c0,0.1,0,0.1,0,0.1c0,0,0,0,0,0c0,0,0,0-0.1,0c-0.1,0-0.1,0-0.2,0
		c0,0-0.1-0.1-0.1-0.1c0,0,0,0,0-0.1s0,0,0-0.1c0,0,0,0,0,0c0,0,0,0,0.1,0c0.1,0,0.1,0,0.2,0C8.7,29.2,8.8,29.2,8.8,29.3z"/>
	<path fill="#143B61" d="M9.8,29.3C9.8,29.3,9.8,29.3,9.8,29.3c0,0.1,0,0.1,0,0.1c0,0,0,0,0,0c0,0,0,0-0.1,0c-0.1,0-0.1,0-0.2,0
		c0,0-0.1-0.1-0.1-0.1c0,0,0,0,0-0.1c0,0,0,0,0-0.1c0,0,0,0,0,0c0,0,0,0,0.1,0c0.1,0,0.1,0,0.2,0C9.7,29.2,9.7,29.2,9.8,29.3z"/>
	<path fill="#143B61" d="M10.5,29.4c0.1,0.1,0.2,0.1,0.3,0c0-0.1,0-0.2-0.1-0.2c-0.1-0.1-0.2-0.1-0.3,0
		C10.3,29.2,10.4,29.3,10.5,29.4z"/>
	<path fill="#143B61" d="M11.4,29.4c0.1,0.1,0.2,0.1,0.3,0c0-0.1,0-0.2-0.1-0.2c-0.1-0.1-0.2-0.1-0.3,0
		C11.3,29.2,11.3,29.3,11.4,29.4z"/>
	<path fill="#143B61" d="M12.6,29.3C12.6,29.3,12.6,29.3,12.6,29.3c0,0.1,0,0.1,0,0.1c0,0,0,0,0,0c0,0,0,0-0.1,0c-0.1,0-0.1,0-0.2,0
		c0,0-0.1-0.1-0.1-0.1c0,0,0,0,0-0.1c0,0,0,0,0-0.1c0,0,0,0,0,0c0,0,0,0,0.1,0c0.1,0,0.1,0,0.2,0C12.6,29.2,12.6,29.3,12.6,29.3z"/>
	<path fill="#143B61" d="M13.6,29.3C13.6,29.3,13.6,29.4,13.6,29.3c0,0.1,0,0.1,0,0.1c0,0,0,0,0,0c0,0,0,0-0.1,0c-0.1,0-0.1,0-0.2,0
		c0,0-0.1-0.1-0.1-0.1c0,0,0,0,0-0.1c0,0,0,0,0-0.1c0,0,0,0,0,0c0,0,0,0,0.1,0c0.1,0,0.1,0,0.2,0C13.5,29.2,13.5,29.3,13.6,29.3z"/>
	<path fill="#143B61" d="M14.5,29.3C14.5,29.4,14.6,29.4,14.5,29.3c0,0.1,0,0.1,0,0.1c0,0,0,0,0,0c0,0,0,0-0.1,0c-0.1,0-0.1,0-0.2,0
		c0,0-0.1-0.1-0.1-0.1c0,0,0,0,0-0.1c0,0,0,0,0-0.1c0,0,0,0,0,0c0,0,0,0,0.1,0c0.1,0,0.1,0,0.2,0C14.5,29.3,14.5,29.3,14.5,29.3z"/>
	<path fill="#143B61" d="M15.2,29.5c0.1,0.1,0.2,0.1,0.3,0c0-0.1,0-0.2-0.1-0.2c-0.1-0.1-0.2-0.1-0.3,0
		C15.1,29.3,15.1,29.4,15.2,29.5z"/>
	<path fill="#143B61" d="M8.3,28.4C8.3,28.5,8.4,28.5,8.3,28.4c0,0.1,0,0.1,0,0.1c0,0,0,0,0,0c0,0,0,0-0.1,0c-0.1,0-0.1,0-0.2,0
		c0,0-0.1-0.1-0.1-0.1c0,0,0,0,0-0.1c0,0,0,0,0-0.1c0,0,0,0,0,0c0,0,0,0,0.1,0c0.1,0,0.1,0,0.2,0C8.3,28.4,8.3,28.4,8.3,28.4z"/>
	<path fill="#143B61" d="M9.3,28.4C9.3,28.5,9.3,28.5,9.3,28.4c0,0.1,0,0.1,0,0.1c0,0,0,0,0,0c0,0,0,0-0.1,0c-0.1,0-0.1,0-0.2,0
		c0,0-0.1-0.1-0.1-0.1c0,0,0,0,0-0.1c0,0,0,0,0-0.1c0,0,0,0,0,0c0,0,0,0,0.1,0c0.1,0,0.1,0,0.2,0C9.2,28.4,9.3,28.4,9.3,28.4z"/>
	<path fill="#143B61" d="M10,28.6c0.1,0.1,0.2,0.1,0.3,0c0-0.1,0-0.2-0.1-0.2c-0.1-0.1-0.2-0.1-0.3,0C9.8,28.4,9.9,28.5,10,28.6z"/>
	<path fill="#143B61" d="M11.2,28.5C11.2,28.5,11.2,28.5,11.2,28.5c0,0.1,0,0.1,0,0.1c0,0,0,0,0,0c0,0,0,0-0.1,0c-0.1,0-0.1,0-0.2,0
		c0,0-0.1-0.1-0.1-0.1c0,0,0,0,0-0.1c0,0,0,0,0-0.1c0,0,0,0,0,0c0,0,0,0,0.1,0c0.1,0,0.1,0,0.2,0C11.1,28.4,11.2,28.4,11.2,28.5z"/>
	<path fill="#143B61" d="M11.9,28.6c0.1,0.1,0.2,0.1,0.3,0c0-0.1,0-0.2-0.1-0.2c-0.1-0.1-0.2-0.1-0.3,0
		C11.7,28.4,11.8,28.5,11.9,28.6z"/>
	<path fill="#143B61" d="M12.9,28.6c0.1,0.1,0.2,0.1,0.3,0c0-0.1,0-0.2-0.1-0.2c-0.1-0.1-0.2-0.1-0.3,0
		C12.7,28.4,12.8,28.5,12.9,28.6z"/>
	<path fill="#143B61" d="M13.8,28.6c0.1,0.1,0.2,0.1,0.3,0c0-0.1,0-0.2-0.1-0.2c-0.1-0.1-0.2-0.1-0.3,0
		C13.7,28.4,13.7,28.5,13.8,28.6z"/>
	<path fill="#143B61" d="M15,28.5C15,28.5,15,28.5,15,28.5c0,0.1,0,0.1,0,0.1c0,0,0,0,0,0c0,0,0,0-0.1,0c-0.1,0-0.1,0-0.2,0
		c0,0-0.1-0.1-0.1-0.1c0,0,0,0,0-0.1c0,0,0,0,0-0.1c0,0,0,0,0,0c0,0,0,0,0.1,0c0.1,0,0.1,0,0.2,0C15,28.4,15,28.5,15,28.5z"/>
	<path fill="#143B61" d="M8.8,27.6C8.8,27.6,8.8,27.7,8.8,27.6c0,0.1,0,0.1,0,0.1c0,0,0,0,0,0c0,0,0,0-0.1,0c-0.1,0-0.1,0-0.2,0
		c0,0-0.1-0.1-0.1-0.1c0,0,0,0,0-0.1s0,0,0-0.1c0,0,0,0,0,0c0,0,0,0,0.1,0c0.1,0,0.1,0,0.2,0C8.7,27.5,8.8,27.6,8.8,27.6z"/>
	<path fill="#143B61" d="M9.8,27.6C9.8,27.6,9.8,27.7,9.8,27.6c0,0.1,0,0.1,0,0.1c0,0,0,0,0,0c0,0,0,0-0.1,0c-0.1,0-0.1,0-0.2,0
		c0,0-0.1-0.1-0.1-0.1c0,0,0,0,0-0.1c0,0,0,0,0-0.1c0,0,0,0,0,0c0,0,0,0,0.1,0c0.1,0,0.1,0,0.2,0C9.7,27.5,9.7,27.6,9.8,27.6z"/>
	<path fill="#143B61" d="M10.7,27.6C10.7,27.7,10.8,27.7,10.7,27.6c0,0.1,0,0.1,0,0.1c0,0,0,0,0,0c0,0,0,0-0.1,0c-0.1,0-0.1,0-0.2,0
		c0,0-0.1-0.1-0.1-0.1c0,0,0,0,0-0.1c0,0,0,0,0-0.1c0,0,0,0,0,0c0,0,0,0,0.1,0c0.1,0,0.1,0,0.2,0C10.7,27.6,10.7,27.6,10.7,27.6z"/>
	<path fill="#143B61" d="M11.4,27.8c0.1,0.1,0.2,0.1,0.3,0c0-0.1,0-0.2-0.1-0.2c-0.1-0.1-0.2-0.1-0.3,0
		C11.3,27.6,11.3,27.7,11.4,27.8z"/>
	<path fill="#143B61" d="M12.4,27.8c0.1,0.1,0.2,0.1,0.3,0c0-0.1,0-0.2-0.1-0.2c-0.1-0.1-0.2-0.1-0.3,0
		C12.2,27.6,12.3,27.7,12.4,27.8z"/>
	<path fill="#143B61" d="M13.6,27.7C13.6,27.7,13.6,27.7,13.6,27.7c0,0.1,0,0.1,0,0.1c0,0,0,0,0,0c0,0,0,0-0.1,0c-0.1,0-0.1,0-0.2,0
		c0,0-0.1-0.1-0.1-0.1c0,0,0,0,0-0.1s0,0,0-0.1c0,0,0,0,0,0c0,0,0,0,0.1,0c0.1,0,0.1,0,0.2,0C13.5,27.6,13.6,27.6,13.6,27.7z"/>
	<path fill="#143B61" d="M14.6,27.7C14.6,27.7,14.6,27.7,14.6,27.7c0,0.1,0,0.1,0,0.1c0,0,0,0,0,0c0,0,0,0-0.1,0c-0.1,0-0.1,0-0.2,0
		c0,0-0.1-0.1-0.1-0.1c0,0,0,0,0-0.1s0,0,0-0.1c0,0,0,0,0,0c0,0,0,0,0.1,0c0.1,0,0.1,0,0.2,0C14.5,27.6,14.5,27.6,14.6,27.7z"/>
	<path fill="#143B61" d="M16.2,29.2c0.1,0,0.1,0,0.2,0c0,0,0.1,0.1,0.1,0.1c0.1,0.1,0,0.2-0.1,0.2c-0.1,0-0.1,0-0.2,0
		c0,0-0.1-0.1-0.1-0.1c0,0,0,0,0-0.1c0,0,0,0,0-0.1C16.1,29.2,16.1,29.2,16.2,29.2C16.1,29.2,16.2,29.2,16.2,29.2z"/>
	<path fill="#143B61" d="M17.4,29.4C17.4,29.4,17.4,29.4,17.4,29.4c0,0.1,0,0.1,0,0.1c0,0,0,0,0,0c0,0,0,0-0.1,0c-0.1,0-0.1,0-0.2,0
		c0,0-0.1-0.1-0.1-0.1c-0.1-0.1,0-0.2,0.1-0.2c0.1,0,0.1,0,0.2,0C17.3,29.3,17.4,29.3,17.4,29.4z"/>
	<path fill="#143B61" d="M18.4,29.4C18.4,29.4,18.4,29.4,18.4,29.4c0,0.1,0,0.1,0,0.1c0,0,0,0,0,0c0,0,0,0-0.1,0c-0.1,0-0.1,0-0.2,0
		c0,0-0.1-0.1-0.1-0.1c0,0,0,0,0-0.1c0,0,0,0,0-0.1c0,0,0,0,0,0c0,0,0,0,0.1,0c0.1,0,0.1,0,0.2,0C18.3,29.3,18.3,29.3,18.4,29.4z"/>
	<path fill="#143B61" d="M19.1,29.5c0.1,0.1,0.2,0.1,0.3,0c0-0.1,0-0.2-0.1-0.2c-0.1-0.1-0.2-0.1-0.3,0C18.9,29.3,19,29.4,19.1,29.5
		z"/>
	<path fill="#143B61" d="M20.3,29.4C20.3,29.4,20.3,29.4,20.3,29.4c0,0.1,0,0.1,0,0.1c0,0,0,0,0,0c0,0,0,0-0.1,0c-0.1,0-0.1,0-0.2,0
		c0,0-0.1-0.1-0.1-0.1c0,0,0,0,0-0.1c0,0,0,0,0-0.1c0,0,0,0,0,0c0,0,0,0,0.1,0c0.1,0,0.1,0,0.2,0S20.2,29.4,20.3,29.4z"/>
	<path fill="#143B61" d="M21.2,29.4C21.2,29.4,21.2,29.5,21.2,29.4c0,0.1,0,0.1,0,0.1c0,0,0,0,0,0c0,0,0,0-0.1,0c-0.1,0-0.1,0-0.2,0
		c0,0-0.1-0.1-0.1-0.1c0,0,0,0,0-0.1c0,0,0,0,0-0.1c0,0,0,0,0,0c0,0,0,0,0.1,0c0.1,0,0.1,0,0.2,0C21.2,29.3,21.2,29.4,21.2,29.4z"/>
	<path fill="#143B61" d="M22.2,29.4C22.2,29.4,22.2,29.5,22.2,29.4c0,0.1,0,0.1,0,0.1c0,0,0,0,0,0c0,0,0,0-0.1,0c-0.1,0-0.1,0-0.2,0
		c0,0-0.1-0.1-0.1-0.1c0,0,0,0,0-0.1c0,0,0,0,0-0.1c0,0,0,0,0,0c0,0,0,0,0.1,0c0.1,0,0.1,0,0.2,0C22.1,29.3,22.2,29.4,22.2,29.4z"/>
	<path fill="#143B61" d="M23.1,29.4C23.1,29.5,23.2,29.5,23.1,29.4c0,0.1,0,0.1,0,0.1c0,0,0,0,0,0c0,0,0,0-0.1,0c-0.1,0-0.1,0-0.2,0
		c0,0-0.1-0.1-0.1-0.1c0,0,0,0,0-0.1c0,0,0,0,0-0.1c0,0,0,0,0,0c0,0,0,0,0.1,0c0.1,0,0.1,0,0.2,0C23.1,29.4,23.1,29.4,23.1,29.4z"/>
	<path fill="#143B61" d="M15.7,28.4c0.1,0,0.1,0,0.2,0c0,0,0.1,0.1,0.1,0.1c0,0,0,0,0,0.1c0,0,0,0,0,0.1c0,0,0,0,0,0c0,0,0,0-0.1,0
		c-0.1,0-0.1,0-0.2,0c0,0-0.1-0.1-0.1-0.1c0,0,0,0,0-0.1c0,0,0,0,0-0.1S15.6,28.4,15.7,28.4C15.7,28.4,15.7,28.4,15.7,28.4z"/>
	<path fill="#143B61" d="M16.9,28.5C16.9,28.6,16.9,28.6,16.9,28.5c0,0.1,0,0.1,0,0.1c0,0,0,0,0,0c0,0,0,0-0.1,0c-0.1,0-0.1,0-0.2,0
		c0,0-0.1-0.1-0.1-0.1c0,0,0,0,0-0.1c0,0,0,0,0-0.1s0,0,0,0c0,0,0,0,0.1,0c0.1,0,0.1,0,0.2,0C16.9,28.5,16.9,28.5,16.9,28.5z"/>
	<path fill="#143B61" d="M17.9,28.6C17.9,28.6,17.9,28.6,17.9,28.6c0,0.1,0,0.1,0,0.1c0,0,0,0,0,0c0,0,0,0-0.1,0c-0.1,0-0.1,0-0.2,0
		c0,0-0.1-0.1-0.1-0.1c-0.1-0.1,0-0.2,0.1-0.2c0.1,0,0.1,0,0.2,0C17.8,28.5,17.9,28.5,17.9,28.6z"/>
	<path fill="#143B61" d="M18.8,28.6C18.9,28.6,18.9,28.6,18.8,28.6c0,0.1,0,0.1,0,0.1c0,0,0,0,0,0c0,0,0,0-0.1,0c-0.1,0-0.1,0-0.2,0
		c0,0-0.1-0.1-0.1-0.1c0,0,0,0,0-0.1c0,0,0,0,0-0.1c0,0,0,0,0,0c0,0,0,0,0.1,0c0.1,0,0.1,0,0.2,0C18.8,28.5,18.8,28.5,18.8,28.6z"/>
	<path fill="#143B61" d="M19.8,28.6C19.8,28.6,19.8,28.6,19.8,28.6c0,0.1,0,0.1,0,0.1c0,0,0,0,0,0c0,0,0,0-0.1,0c-0.1,0-0.1,0-0.2,0
		c0,0-0.1-0.1-0.1-0.1c0,0,0,0,0-0.1c0,0,0,0,0-0.1c0,0,0,0,0,0c0,0,0,0,0.1,0c0.1,0,0.1,0,0.2,0C19.7,28.5,19.8,28.5,19.8,28.6z"/>
	<path fill="#143B61" d="M20.8,28.6C20.8,28.6,20.8,28.6,20.8,28.6c0,0.1,0,0.1,0,0.1c0,0,0,0,0,0c0,0,0,0-0.1,0c-0.1,0-0.1,0-0.2,0
		c0,0-0.1-0.1-0.1-0.1c0,0,0,0,0-0.1c0,0,0,0,0-0.1c0,0,0,0,0,0c0,0,0,0,0.1,0c0.1,0,0.1,0,0.2,0C20.7,28.5,20.7,28.5,20.8,28.6z"/>
	<path fill="#143B61" d="M21.5,28.7c0.1,0.1,0.2,0.1,0.3,0c0-0.1,0-0.2-0.1-0.2c-0.1-0.1-0.2-0.1-0.3,0
		C21.3,28.5,21.4,28.6,21.5,28.7z"/>
	<path fill="#143B61" d="M22.7,28.6C22.7,28.6,22.7,28.7,22.7,28.6c0,0.1,0,0.1,0,0.1c0,0,0,0,0,0c0,0,0,0-0.1,0c-0.1,0-0.1,0-0.2,0
		c0,0-0.1-0.1-0.1-0.1c0,0,0,0,0-0.1c0,0,0,0,0-0.1c0,0,0,0,0,0c0,0,0,0,0.1,0c0.1,0,0.1,0,0.2,0C22.6,28.5,22.6,28.6,22.7,28.6z"/>
	<path fill="#143B61" d="M15.2,27.5c0.1,0,0.1,0,0.2,0c0,0,0.1,0.1,0.1,0.1c0,0,0,0,0,0.1c0,0,0,0,0,0.1c0,0,0,0,0,0c0,0,0,0-0.1,0
		c-0.1,0-0.1,0-0.2,0c0,0-0.1-0.1-0.1-0.1C15.1,27.6,15.1,27.5,15.2,27.5z"/>
	<path fill="#143B61" d="M16.5,27.7C16.5,27.7,16.5,27.7,16.5,27.7c0,0.1,0,0.1,0,0.1c0,0,0,0,0,0c0,0,0,0-0.1,0c-0.1,0-0.1,0-0.2,0
		c0,0-0.1-0.1-0.1-0.1c0,0,0,0,0-0.1c0,0,0,0,0-0.1c0,0,0,0,0,0c0,0,0,0,0.1,0c0.1,0,0.1,0,0.2,0C16.4,27.6,16.4,27.7,16.5,27.7z"/>
	<path fill="#143B61" d="M17.4,27.7C17.4,27.7,17.4,27.8,17.4,27.7c0,0.1,0,0.1,0,0.1c0,0,0,0,0,0c0,0,0,0-0.1,0c-0.1,0-0.1,0-0.2,0
		c0,0-0.1-0.1-0.1-0.1c0,0,0,0,0-0.1c0,0,0,0,0-0.1c0,0,0,0,0,0c0,0,0,0,0.1,0c0.1,0,0.1,0,0.2,0C17.3,27.6,17.4,27.7,17.4,27.7z"/>
	<path fill="#143B61" d="M18.4,27.7C18.4,27.8,18.4,27.8,18.4,27.7c0,0.1,0,0.1,0,0.1c0,0,0,0,0,0c0,0,0,0-0.1,0c-0.1,0-0.1,0-0.2,0
		c0,0-0.1-0.1-0.1-0.1c0,0,0,0,0-0.1c0,0,0,0,0-0.1c0,0,0,0,0,0c0,0,0,0,0.1,0c0.1,0,0.1,0,0.2,0C18.3,27.7,18.4,27.7,18.4,27.7z"/>
	<path fill="#143B61" d="M19.3,27.7C19.3,27.8,19.4,27.8,19.3,27.7c0,0.1,0,0.1,0,0.1c0,0,0,0,0,0c0,0,0,0-0.1,0c-0.1,0-0.1,0-0.2,0
		c0,0-0.1-0.1-0.1-0.1c0,0,0,0,0-0.1c0,0,0,0,0-0.1c0,0,0,0,0,0c0,0,0,0,0.1,0c0.1,0,0.1,0,0.2,0C19.3,27.7,19.3,27.7,19.3,27.7z"/>
	<path fill="#143B61" d="M20.3,27.8C20.3,27.8,20.3,27.8,20.3,27.8c0,0.1,0,0.1,0,0.1c0,0,0,0,0,0c0,0,0,0-0.1,0c-0.1,0-0.1,0-0.2,0
		c0,0-0.1-0.1-0.1-0.1c0,0,0,0,0-0.1c0,0,0,0,0-0.1c0,0,0,0,0,0c0,0,0,0,0.1,0c0.1,0,0.1,0,0.2,0C20.2,27.7,20.3,27.7,20.3,27.8z"/>
	<path fill="#143B61" d="M21,27.9c0.1,0.1,0.2,0.1,0.3,0c0-0.1,0-0.2-0.1-0.2c-0.1-0.1-0.2-0.1-0.3,0C20.8,27.7,20.9,27.8,21,27.9z"
		/>
	<path fill="#143B61" d="M22.2,27.8C22.2,27.8,22.2,27.8,22.2,27.8c0,0.1,0,0.1,0,0.1c0,0,0,0,0,0c0,0,0,0-0.1,0c-0.1,0-0.1,0-0.2,0
		c0,0-0.1-0.1-0.1-0.1c0,0,0,0,0-0.1c0,0,0,0,0-0.1c0,0,0,0,0,0c0,0,0,0,0.1,0c0.1,0,0.1,0,0.2,0C22.1,27.7,22.2,27.7,22.2,27.8z"/>
	<path fill="#143B61" d="M30.6,29.4C30.7,29.4,30.7,29.4,30.6,29.4c0,0.1,0,0.1,0,0.1s0,0,0,0c0,0,0,0-0.1,0c-0.1,0-0.1,0-0.2,0
		c0,0-0.1-0.1-0.1-0.1c-0.1-0.1,0-0.2,0.1-0.2c0.1,0,0.1,0,0.2,0C30.6,29.3,30.6,29.3,30.6,29.4z"/>
	<path fill="#143B61" d="M31.6,29.4C31.6,29.4,31.6,29.4,31.6,29.4c0,0.1,0,0.1,0,0.1c0,0,0,0,0,0c0,0,0,0-0.1,0c-0.1,0-0.1,0-0.2,0
		c0,0-0.1-0.1-0.1-0.1c0,0,0,0,0-0.1c0,0,0,0,0-0.1s0,0,0,0c0,0,0,0,0.1,0c0.1,0,0.1,0,0.2,0C31.5,29.3,31.6,29.3,31.6,29.4z"/>
	<path fill="#143B61" d="M30.2,28.5C30.2,28.6,30.2,28.6,30.2,28.5c0,0.1,0,0.1,0,0.1c0,0,0,0,0,0c0,0,0,0-0.1,0c-0.1,0-0.1,0-0.2,0
		c0,0-0.1-0.1-0.1-0.1c0,0,0,0,0-0.1c0,0,0,0,0-0.1s0,0,0,0c0,0,0,0,0.1,0c0.1,0,0.1,0,0.2,0C30.1,28.5,30.1,28.5,30.2,28.5z"/>
	<path fill="#143B61" d="M31.1,28.6C31.1,28.6,31.1,28.6,31.1,28.6c0,0.1,0,0.1,0,0.1c0,0,0,0,0,0c0,0,0,0-0.1,0c-0.1,0-0.1,0-0.2,0
		c0,0-0.1-0.1-0.1-0.1c-0.1-0.1,0-0.2,0.1-0.2c0.1,0,0.1,0,0.2,0C31.1,28.5,31.1,28.5,31.1,28.6z"/>
	<path fill="#143B61" d="M29.7,27.7C29.7,27.7,29.7,27.7,29.7,27.7c0,0.1,0,0.1,0,0.1c0,0,0,0,0,0c0,0,0,0-0.1,0c-0.1,0-0.1,0-0.2,0
		c0,0-0.1-0.1-0.1-0.1c0,0,0,0,0-0.1c0,0,0,0,0-0.1c0,0,0,0,0,0c0,0,0,0,0.1,0c0.1,0,0.1,0,0.2,0C29.6,27.6,29.7,27.7,29.7,27.7z"/>
	<path fill="#143B61" d="M30.7,27.7C30.7,27.7,30.7,27.8,30.7,27.7c0,0.1,0,0.1,0,0.1c0,0,0,0,0,0c0,0,0,0-0.1,0c-0.1,0-0.1,0-0.2,0
		c0,0-0.1-0.1-0.1-0.1c0,0,0,0,0-0.1c0,0,0,0,0-0.1c0,0,0,0,0,0c0,0,0,0,0.1,0c0.1,0,0.1,0,0.2,0C30.6,27.6,30.6,27.7,30.7,27.7z"/>
	<path fill="#143B61" d="M31.6,27.7C31.6,27.8,31.6,27.8,31.6,27.7c0,0.1,0,0.1,0,0.1c0,0,0,0,0,0c0,0,0,0-0.1,0c-0.1,0-0.1,0-0.2,0
		c0,0-0.1-0.1-0.1-0.1c0,0,0,0,0-0.1c0,0,0,0,0-0.1c0,0,0,0,0,0c0,0,0,0,0.1,0c0.1,0,0.1,0,0.2,0C31.5,27.7,31.6,27.7,31.6,27.7z"/>
	<path fill="#143B61" d="M24,29.4C24,29.4,24,29.4,24,29.4c0,0.1,0,0.1,0,0.1s0,0,0,0c0,0,0,0-0.1,0c-0.1,0-0.1,0-0.2,0
		c0,0-0.1-0.1-0.1-0.1c-0.1-0.1,0-0.2,0.1-0.2c0.1,0,0.1,0,0.2,0S23.9,29.3,24,29.4z"/>
	<path fill="#143B61" d="M24.9,29.4C24.9,29.4,24.9,29.4,24.9,29.4c0,0.1,0,0.1,0,0.1c0,0,0,0,0,0c0,0,0,0-0.1,0c-0.1,0-0.1,0-0.2,0
		c0,0-0.1-0.1-0.1-0.1c0,0,0,0,0-0.1c0,0,0,0,0-0.1c0,0,0,0,0,0c0,0,0,0,0.1,0c0.1,0,0.1,0,0.2,0C24.8,29.3,24.9,29.3,24.9,29.4z"/>
	<path fill="#143B61" d="M25.6,29.5c0.1,0.1,0.2,0.1,0.3,0c0-0.1,0-0.2-0.1-0.2c-0.1-0.1-0.2-0.1-0.3,0
		C25.5,29.3,25.5,29.4,25.6,29.5z"/>
	<path fill="#143B61" d="M26.8,29.4C26.8,29.4,26.8,29.4,26.8,29.4c0,0.1,0,0.1,0,0.1c0,0,0,0,0,0c0,0,0,0-0.1,0c-0.1,0-0.1,0-0.2,0
		c0,0-0.1-0.1-0.1-0.1c0,0,0,0,0-0.1c0,0,0,0,0-0.1c0,0,0,0,0,0c0,0,0,0,0.1,0c0.1,0,0.1,0,0.2,0C26.7,29.3,26.8,29.4,26.8,29.4z"/>
	<path fill="#143B61" d="M27.8,29.4C27.8,29.4,27.8,29.5,27.8,29.4c0,0.1,0,0.1,0,0.1c0,0,0,0,0,0c0,0,0,0-0.1,0c-0.1,0-0.1,0-0.2,0
		c0,0-0.1-0.1-0.1-0.1c0,0,0,0,0-0.1c0,0,0,0,0-0.1c0,0,0,0,0,0c0,0,0,0,0.1,0c0.1,0,0.1,0,0.2,0C27.7,29.3,27.7,29.4,27.8,29.4z"/>
	<path fill="#143B61" d="M28.7,29.4C28.7,29.4,28.8,29.5,28.7,29.4c0,0.1,0,0.1,0,0.1c0,0,0,0,0,0c0,0,0,0-0.1,0c-0.1,0-0.1,0-0.2,0
		c0,0-0.1-0.1-0.1-0.1c0,0,0,0,0-0.1c0,0,0,0,0-0.1c0,0,0,0,0,0c0,0,0,0,0.1,0c0.1,0,0.1,0,0.2,0C28.7,29.3,28.7,29.4,28.7,29.4z"/>
	<path fill="#143B61" d="M29.7,29.4C29.7,29.5,29.7,29.5,29.7,29.4c0,0.1,0,0.1,0,0.1c0,0,0,0,0,0c0,0,0,0-0.1,0c-0.1,0-0.1,0-0.2,0
		c0,0-0.1-0.1-0.1-0.1c0,0,0,0,0-0.1c0,0,0,0,0-0.1c0,0,0,0,0,0c0,0,0,0,0.1,0c0.1,0,0.1,0,0.2,0C29.6,29.4,29.7,29.4,29.7,29.4z"/>
	<path fill="#143B61" d="M23.5,28.5C23.5,28.6,23.5,28.6,23.5,28.5c0,0.1,0,0.1,0,0.1c0,0,0,0,0,0c0,0,0,0-0.1,0c-0.1,0-0.1,0-0.2,0
		c0,0-0.1-0.1-0.1-0.1c0,0,0,0,0-0.1c0,0,0,0,0-0.1c0,0,0,0,0,0c0,0,0,0,0.1,0c0.1,0,0.1,0,0.2,0C23.4,28.5,23.5,28.5,23.5,28.5z"/>
	<path fill="#143B61" d="M24.4,28.6C24.5,28.6,24.5,28.6,24.4,28.6c0,0.1,0,0.1,0,0.1s0,0,0,0c0,0,0,0-0.1,0c-0.1,0-0.1,0-0.2,0
		s-0.1-0.1-0.1-0.1c-0.1-0.1,0-0.2,0.1-0.2c0.1,0,0.1,0,0.2,0C24.4,28.5,24.4,28.5,24.4,28.6z"/>
	<path fill="#143B61" d="M25.4,28.6C25.4,28.6,25.4,28.6,25.4,28.6c0,0.1,0,0.1,0,0.1c0,0,0,0,0,0c0,0,0,0-0.1,0c-0.1,0-0.1,0-0.2,0
		c0,0-0.1-0.1-0.1-0.1c0,0,0,0,0-0.1c0,0,0,0,0-0.1c0,0,0,0,0,0c0,0,0,0,0.1,0c0.1,0,0.1,0,0.2,0C25.3,28.5,25.4,28.5,25.4,28.6z"/>
	<path fill="#143B61" d="M26.4,28.6C26.4,28.6,26.4,28.6,26.4,28.6c0,0.1,0,0.1,0,0.1c0,0,0,0,0,0c0,0,0,0-0.1,0c-0.1,0-0.1,0-0.2,0
		c0,0-0.1-0.1-0.1-0.1c0,0,0,0,0-0.1c0,0,0,0,0-0.1c0,0,0,0,0,0c0,0,0,0,0.1,0c0.1,0,0.1,0,0.2,0S26.3,28.5,26.4,28.6z"/>
	<path fill="#143B61" d="M27.3,28.6C27.3,28.6,27.3,28.6,27.3,28.6c0,0.1,0,0.1,0,0.1c0,0,0,0,0,0c0,0,0,0-0.1,0c-0.1,0-0.1,0-0.2,0
		c0,0-0.1-0.1-0.1-0.1c0,0,0,0,0-0.1c0,0,0,0,0-0.1c0,0,0,0,0,0c0,0,0,0,0.1,0c0.1,0,0.1,0,0.2,0C27.2,28.5,27.3,28.5,27.3,28.6z"/>
	<path fill="#143B61" d="M28,28.7c0.1,0.1,0.2,0.1,0.3,0c0-0.1,0-0.2-0.1-0.2c-0.1-0.1-0.2-0.1-0.3,0C27.9,28.5,27.9,28.6,28,28.7z"
		/>
	<path fill="#143B61" d="M29.2,28.6C29.2,28.6,29.2,28.7,29.2,28.6c0,0.1,0,0.1,0,0.1c0,0,0,0,0,0c0,0,0,0-0.1,0c-0.1,0-0.1,0-0.2,0
		c0,0-0.1-0.1-0.1-0.1c0,0,0,0,0-0.1c0,0,0,0,0-0.1c0,0,0,0,0,0c0,0,0,0,0.1,0c0.1,0,0.1,0,0.2,0C29.2,28.5,29.2,28.6,29.2,28.6z"/>
	<path fill="#143B61" d="M23,27.7C23,27.7,23,27.7,23,27.7c0,0.1,0,0.1,0,0.1c0,0,0,0,0,0c0,0,0,0-0.1,0c-0.1,0-0.1,0-0.2,0
		c0,0-0.1-0.1-0.1-0.1c0,0,0,0,0-0.1c0,0,0,0,0-0.1c0,0,0,0,0,0c0,0,0,0,0.1,0c0.1,0,0.1,0,0.2,0C22.9,27.6,23,27.7,23,27.7z"/>
	<path fill="#143B61" d="M24,27.7C24,27.7,24,27.8,24,27.7c0,0.1,0,0.1,0,0.1c0,0,0,0,0,0c0,0,0,0-0.1,0c-0.1,0-0.1,0-0.2,0
		c0,0-0.1-0.1-0.1-0.1c0,0,0,0,0-0.1c0,0,0,0,0-0.1c0,0,0,0,0,0c0,0,0,0,0.1,0c0.1,0,0.1,0,0.2,0C23.9,27.6,23.9,27.7,24,27.7z"/>
	<path fill="#143B61" d="M24.9,27.7C24.9,27.8,25,27.8,24.9,27.7c0,0.1,0,0.1,0,0.1c0,0,0,0,0,0c0,0,0,0-0.1,0c-0.1,0-0.1,0-0.2,0
		c0,0-0.1-0.1-0.1-0.1c0,0,0,0,0-0.1c0,0,0,0,0-0.1c0,0,0,0,0,0c0,0,0,0,0.1,0c0.1,0,0.1,0,0.2,0C24.9,27.7,24.9,27.7,24.9,27.7z"/>
	<path fill="#143B61" d="M25.9,27.7C25.9,27.8,25.9,27.8,25.9,27.7c0,0.1,0,0.1,0,0.1c0,0,0,0,0,0c0,0,0,0-0.1,0c-0.1,0-0.1,0-0.2,0
		c0,0-0.1-0.1-0.1-0.1c0,0,0,0,0-0.1c0,0,0,0,0-0.1c0,0,0,0,0,0c0,0,0,0,0.1,0c0.1,0,0.1,0,0.2,0C25.8,27.7,25.9,27.7,25.9,27.7z"/>
	<path fill="#143B61" d="M26.8,27.8C26.9,27.8,26.9,27.8,26.8,27.8c0,0.1,0,0.1,0,0.1c0,0,0,0,0,0c0,0,0,0-0.1,0c-0.1,0-0.1,0-0.2,0
		c0,0-0.1-0.1-0.1-0.1c0,0,0,0,0-0.1c0,0,0,0,0-0.1c0,0,0,0,0,0c0,0,0,0,0.1,0c0.1,0,0.1,0,0.2,0C26.8,27.7,26.8,27.7,26.8,27.8z"/>
	<path fill="#143B61" d="M27.5,27.9c0.1,0.1,0.2,0.1,0.3,0c0-0.1,0-0.2-0.1-0.2c-0.1-0.1-0.2-0.1-0.3,0
		C27.4,27.7,27.4,27.8,27.5,27.9z"/>
	<path fill="#143B61" d="M28.7,27.8C28.8,27.8,28.8,27.8,28.7,27.8c0,0.1,0,0.1,0,0.1c0,0,0,0,0,0c0,0,0,0-0.1,0c-0.1,0-0.1,0-0.2,0
		c0,0-0.1-0.1-0.1-0.1c0,0,0,0,0-0.1c0,0,0,0,0-0.1c0,0,0,0,0,0c0,0,0,0,0.1,0c0.1,0,0.1,0,0.2,0C28.7,27.7,28.7,27.7,28.7,27.8z"/>
	<g>
		<defs>
			<rect id="SVGID_1_" x="9.5" y="1.5" width="21.4" height="26.8"/>
		</defs>
		<clipPath id="SVGID_00000137126819234683511590000004956304105807768481_">
			<use xlink:href="#SVGID_1_"  overflow="visible"/>
		</clipPath>
		<g clip-path="url(#SVGID_00000137126819234683511590000004956304105807768481_)">
			<path fill="#C7D1D8" stroke="#143B61" stroke-width="9.388294e-02" stroke-linecap="round" stroke-linejoin="round" d="M22.5,5.8
				c0-2-0.9-2.4-0.9-2.4l-1.2-0.1V3.1l-0.5,0.1l-0.1,0v0l-0.7,0.1c0,0-0.9,0.5-0.9,2.4c0,1.8-0.8,2.5-0.8,2.8c0,0.3,2.4,0.2,2.9,0.2
				v0c0,0,3,0.1,3-0.2C23.3,8.3,22.5,7.6,22.5,5.8z"/>
			<path fill="#FFFFFF" stroke="#143B61" stroke-width="9.388294e-02" stroke-linecap="round" stroke-linejoin="round" d="
				M25.9,20.6c0,0,0,2.1,0.3,3.3c0.2,1.2,0.5,2.6,0.5,2.6s-0.2,0.9-0.3,0.9c-0.1,0-0.5,0.3-0.4,0.4c0.1,0.1,1.5,0,1.5,0
				s0.2-0.2,0.1-0.5c0-0.3,0-1.4,0-1.4s0.1-3.8,0.1-4.4v-1.2l-1.8-0.1L25.9,20.6z"/>
			<path fill="#143B61" stroke="#143B61" stroke-width="9.388294e-02" stroke-linecap="round" stroke-linejoin="round" d="
				M27.5,27.4c0-0.3,0-0.5,0-0.8c-0.1,0.2-0.2,0.7-0.4,0.8c-0.3,0.1-0.7,0-0.7,0c-0.1,0-0.5,0.3-0.4,0.4c0.1,0.1,1.5,0,1.5,0
				S27.5,27.7,27.5,27.4z"/>
			<path fill="#FFFFFF" stroke="#143B61" stroke-width="9.388294e-02" stroke-linecap="round" stroke-linejoin="round" d="
				M29.8,20.6c0,0,0,2.1-0.3,3.3c-0.2,1.2-0.5,2.6-0.5,2.6s0.2,0.9,0.3,0.9c0.1,0,0.5,0.3,0.4,0.4c-0.1,0.1-1.5,0-1.5,0
				s-0.2-0.2-0.1-0.5c0-0.3,0-1.4,0-1.4s-0.1-3.8-0.1-4.4v-1.2l1.8-0.1L29.8,20.6z"/>
			<path fill="#143B61" stroke="#143B61" stroke-width="9.388294e-02" stroke-linecap="round" stroke-linejoin="round" d="
				M28.2,27.4c0-0.3,0-0.5,0-0.8c0.1,0.2,0.2,0.7,0.4,0.8c0.3,0.1,0.7,0,0.7,0c0.1,0,0.5,0.3,0.4,0.4c-0.1,0.1-1.5,0-1.5,0
				S28.1,27.7,28.2,27.4z"/>
			<path fill="#143B61" stroke="#143B61" stroke-width="9.388294e-02" stroke-linecap="round" stroke-linejoin="round" d="
				M25.7,12.5c0,0-0.7,1.8-0.9,3.2s-0.9,8.8-0.7,9c0.1,0.2,0.5,0.2,0.5,0.2l0,0.4c0,0,0.8,0.3,1.5,0.3c0.7,0,1.3-0.2,1.8-0.1
				c0.4,0.1,1.7,0.2,2,0c0.3-0.2,0.7-0.3,0.7-0.4c0-0.1,0-0.3,0-0.3l0.3-0.2c0,0-0.1-7.2-0.3-8.6c-0.2-1.4-0.6-2.5-0.7-3
				c-0.2-0.4-0.8-0.5-0.8-0.5L25.7,12.5z"/>
			<path fill="none" stroke="#143B61" stroke-width="9.388294e-02" stroke-linecap="round" stroke-linejoin="round" d="M24.6,20.1
				l0.2-2.4"/>
			<path fill="none" stroke="#143B61" stroke-width="9.388294e-02" stroke-linecap="round" stroke-linejoin="round" d="M30.6,20
				l-0.4-3.2"/>
			<path fill="#F6F7F9" stroke="#143B61" stroke-width="9.388294e-02" stroke-miterlimit="10" d="M26.8,6.5l-0.1,1c0,0-2,0.8-2,0.9
				c-0.1,0.1,1.2,4.3,1.2,4.3s0.6,0.4,1.8,0.4c1.1,0,1.8-0.6,1.8-0.6s0.7-4.1,0.6-4.4c-0.1-0.2-1.9-0.8-1.9-0.8l0-0.7L26.8,6.5z"/>
			<path fill="#FFFFFF" stroke="#143B61" stroke-width="9.388294e-02" stroke-linecap="round" stroke-linejoin="round" d="M27.5,8.4
				l1.1-0.8c-0.3-0.1-0.5-0.2-0.5-0.2l0-0.7l-1.3-0.3l0,1.1c0,0-0.2,0.1-0.4,0.2L27.5,8.4z"/>
			<path fill="#143B61" stroke="#143B61" stroke-width="9.388294e-02" stroke-linecap="round" stroke-linejoin="round" d="M28,7.2
				l0-0.5l-1.3-0.3l0,0.3c0.1,0.2,0.5,0.6,0.8,0.7C27.7,7.4,27.9,7.3,28,7.2z"/>
			<path fill="#F6F7F9" d="M25.2,8.2c0,0-0.7,0.2-0.7,0.3c0,0.1,0.4,3.3,0.4,3.3s-0.2,0.2-0.1,0.3c0.1,0.1,0.3,0.4,0.3,0.4
				c0,0,0,0.1,0,0.1c0,0,0,0.1,0.1,0.1c0.1,0.1,0.5,1.4,0.8,2c0.2,0.4,0.5,0.8,0.8,1.1c0,0,0.2,0.4,0.4,0.6c0.2,0.1,0.3,0.2,0.4,0.2
				c0.1-0.1,0.2-0.5,0.2-0.7c0-0.3-0.5-0.6-0.6-0.6c-0.1,0-0.2-0.2-0.2-0.2s-0.5-1-0.6-1.5c-0.1-0.5-0.3-1.2-0.3-1.2
				s0.1-0.3,0.1-0.4c0-0.1-0.2-0.2-0.2-0.3v-0.5l-0.2-1.8"/>
			<path fill="none" stroke="#143B61" stroke-width="9.388294e-02" stroke-miterlimit="10" d="M25.2,8.2c0,0-0.7,0.2-0.7,0.3
				c0,0.1,0.4,3.3,0.4,3.3s-0.2,0.2-0.1,0.3c0.1,0.1,0.3,0.4,0.3,0.4c0,0,0,0.1,0,0.1c0,0,0,0.1,0.1,0.1c0.1,0.1,0.5,1.4,0.8,2
				c0.2,0.4,0.5,0.8,0.8,1.1c0,0,0.2,0.4,0.4,0.6c0.2,0.1,0.3,0.2,0.4,0.2c0.1-0.1,0.2-0.5,0.2-0.7c0-0.3-0.5-0.6-0.6-0.6
				c-0.1,0-0.2-0.2-0.2-0.2s-0.5-1-0.6-1.5c-0.1-0.5-0.3-1.2-0.3-1.2s0.1-0.3,0.1-0.4c0-0.1-0.2-0.2-0.2-0.3v-0.5l-0.2-1.8"/>
			<path fill="#FFFFFF" stroke="#143B61" stroke-width="9.388294e-02" stroke-linecap="round" stroke-linejoin="round" d="
				M26.4,15.6c0.1,0.1,0.1,0.2,0.2,0.2l0.1,0.1c0,0,0.2,0.4,0.4,0.6c0.2,0.1,0.3,0.2,0.4,0.2c0.1-0.1,0.2-0.5,0.2-0.7
				c0-0.3-0.5-0.6-0.6-0.6c-0.1,0-0.2-0.2-0.2-0.2C26.8,15.2,26.4,15.4,26.4,15.6z"/>
			<path fill="none" stroke="#143B61" stroke-width="9.388294e-02" stroke-linecap="round" stroke-linejoin="round" d="M25.2,12.4
				c0,0,0.4-0.3,0.7-0.2"/>
			<path fill="none" stroke="#143B61" stroke-width="9.388294e-02" stroke-linecap="round" stroke-linejoin="round" d="M24.9,12.2
				c0,0,0.6-0.4,0.9-0.2"/>
			<path fill="#F6F7F9" d="M29.3,9.5l-0.1,2.4c0,0-0.3,0.4-0.2,0.5c0,0.1,0,0.1,0,0.2l-0.2,0.2l-1,2.6c0,0-0.4,0.3-0.4,0.4
				s-0.2,0.5-0.2,0.6c0,0.1,0,0.1,0.1,0.1c0.1,0,0.3-0.4,0.3-0.4l-0.1,0.4c-0.1,0-0.2,0.1-0.3,0.1c-0.1,0,0.1,0.2,0.4,0.2
				c0.3,0,0.5-0.2,0.5-0.4c0.1-0.3,0.2-1.1,0.2-1.1s1.6-2.1,1.8-2.4c0.2-0.3,0.2-0.5,0.2-0.6c0-0.1,0-0.2,0-0.4
				c0.1-0.2,0.1-0.3,0-0.4c0-0.1,0.1-1.7,0-2.3c-0.1-0.6-0.2-0.9-0.4-1C29.8,8,29.5,8,29.5,8"/>
			<path fill="none" stroke="#143B61" stroke-width="9.388294e-02" stroke-miterlimit="10" d="M29.3,9.5l-0.1,2.4
				c0,0-0.3,0.4-0.2,0.5c0,0.1,0,0.1,0,0.2l-0.2,0.2l-1,2.6c0,0-0.4,0.3-0.4,0.4s-0.2,0.5-0.2,0.6c0,0.1,0,0.1,0.1,0.1
				c0.1,0,0.3-0.4,0.3-0.4l-0.1,0.4c-0.1,0-0.2,0.1-0.3,0.1c-0.1,0,0.1,0.2,0.4,0.2c0.3,0,0.5-0.2,0.5-0.4c0.1-0.3,0.2-1.1,0.2-1.1
				s1.6-2.1,1.8-2.4c0.2-0.3,0.2-0.5,0.2-0.6c0-0.1,0-0.2,0-0.4c0.1-0.2,0.1-0.3,0-0.4c0-0.1,0.1-1.7,0-2.3c-0.1-0.6-0.2-0.9-0.4-1
				C29.8,8,29.5,8,29.5,8"/>
			<path fill="#FFFFFF" stroke="#143B61" stroke-width="9.388294e-02" stroke-linecap="round" stroke-linejoin="round" d="M28,15.1
				l-0.1,0.3c0,0-0.4,0.3-0.4,0.4c0,0.1-0.2,0.5-0.2,0.6c0,0.1,0,0.1,0.1,0.1c0.1,0,0.3-0.4,0.3-0.4l-0.1,0.4
				c-0.1,0-0.2,0.1-0.3,0.1c-0.1,0,0.1,0.2,0.4,0.2c0.3,0,0.5-0.2,0.5-0.4c0.1-0.3,0.2-1.1,0.2-1.1L28,15.1z"/>
			<path fill="none" stroke="#143B61" stroke-width="9.388294e-02" stroke-linecap="round" stroke-linejoin="round" d="M29.2,12.5
				c0,0,0.5-0.3,0.8,0.1"/>
			<path fill="none" stroke="#143B61" stroke-width="9.388294e-02" stroke-linecap="round" stroke-linejoin="round" d="M30,12.1
				c0,0-0.5-0.1-0.8,0.2"/>
			<path fill="#E6F1F7" stroke="#143B61" stroke-width="9.388294e-02" stroke-linecap="round" stroke-linejoin="round" d="M19,26.8
				l-0.2,0.6c0,0-0.5,0.8-0.5,0.8s1.9,0,1.9,0s0.1,0,0.1-0.3c0-0.3-0.1-0.9-0.1-0.9s-0.2-0.5-0.6-0.6C19.3,26.5,19,26.7,19,26.8z"/>
			<path fill="#E6F1F7" stroke="#143B61" stroke-width="9.388294e-02" stroke-linecap="round" stroke-linejoin="round" d="
				M22.9,26.7l0.4,0.6c0,0,1.3,0.7,1.4,0.7c0.1,0,0.1,0.2,0,0.2c-0.1,0-0.4,0.1-0.4,0.1h-2.8c0,0-0.1-0.3-0.1-0.4
				c0-0.2,0.1-0.6,0.1-0.6l0-0.4L22.9,26.7z"/>
			<path fill="#FFFFFF" stroke="#143B61" stroke-width="9.388294e-02" stroke-linecap="round" stroke-linejoin="round" d="M19.3,6.9
				l-1.7,0.9l-1,3.8l-1.3,2.1l0.5,0.4l1.8-1.8l0.5-0.6l0.1,1.3c0,0-0.1,0.6-0.1,0.9c0,0.2,0.1,12.9,0.1,12.9l5.5,0.4
				c0,0-0.4-13.3-0.4-13.4c0-0.1-0.1-0.9-0.1-0.9l0.1-1.6l0.3,1.4l0.2,2.5l0.7,0l0.1-3.4l-1-3.9L21.6,7L19.3,6.9z"/>
			<path fill="#FFFFFF" stroke="#143B61" stroke-width="9.388294e-02" stroke-linecap="round" stroke-linejoin="round" d="M19.7,6.2
				l-0.3,0l-0.3,0.6l0.2,1.4l1.1-0.7l1.1,0.8l0.4-1.5l-0.4-0.6L19.7,6.2z"/>
			<path fill="#F6F7F9" stroke="#143B61" stroke-width="9.388294e-02" stroke-linecap="round" stroke-linejoin="round" d="M19.6,5.7
				l-0.1,0.9l0.9,1l0.8-1.1l-0.1-0.9C21.2,5.7,20.3,5.9,19.6,5.7z"/>
			<path fill="#FFFFFF" stroke="#143B61" stroke-width="9.388294e-02" stroke-linecap="round" stroke-linejoin="round" d="M19.1,3.9
				c0,0-0.1-0.3-0.2-0.1c-0.1,0.2,0.2,0.7,0.2,0.7L19.1,3.9L19.1,3.9z"/>
			<path fill="#FFFFFF" stroke="#143B61" stroke-width="9.388294e-02" stroke-linecap="round" stroke-linejoin="round" d="M21.6,3.9
				c0,0,0.1-0.3,0.2-0.1c0.1,0.2-0.2,0.7-0.2,0.7L21.6,3.9L21.6,3.9z"/>
			<path fill="#F6F7F9" stroke="#143B61" stroke-width="9.388294e-02" stroke-linecap="round" stroke-linejoin="round" d="M19.2,3.1
				c0,0-0.1,1.6,0,1.9c0.1,0.2,0.6,1.1,1.3,1.1c0.7-0.1,1-0.8,1.1-1.2c0-0.4,0-1.6,0-1.6S21.2,3.1,21.1,3c0-0.1,0-0.3,0-0.4
				C21.1,2.6,20,3.2,19.2,3.1z"/>
			<path fill="none" stroke="#143B61" stroke-width="9.388294e-02" stroke-linecap="round" stroke-linejoin="round" d="M17.7,9
				l0.3,2.6l-0.6-1.9"/>
			<path fill="none" stroke="#143B61" stroke-width="9.388294e-02" stroke-linecap="round" stroke-linejoin="round" d="M20.4,7.9
				l0.2,4.9"/>
			<path fill="none" stroke="#143B61" stroke-width="9.388294e-02" stroke-linecap="round" stroke-linejoin="round" d="M23.2,11.2
				l0-2.3"/>
			<path fill="none" stroke="#143B61" stroke-width="9.388294e-02" stroke-linecap="round" stroke-linejoin="round" d="M24.4,16.2
				L24.3,17l-0.1,0L24.4,16.2z"/>
			<path fill="#FFFFFF" stroke="#143B61" stroke-width="9.388294e-02" stroke-linecap="round" stroke-linejoin="round" d="
				M23.7,15.1l-0.2,0.8l0.1,0.8l0.1,0l0-0.5l0.1,0.9l0.3,0.1c0,0,0.2-0.7,0.2-0.9c0-0.1,0-1.1,0-1.1L23.7,15.1z"/>
			<path fill="none" stroke="#143B61" stroke-width="9.388294e-02" stroke-linecap="round" stroke-linejoin="round" d="M23.9,17
				L24,16"/>
			<path fill="none" stroke="#143B61" stroke-width="9.388294e-02" stroke-linecap="round" stroke-linejoin="round" d="M24,17
				l0.2-0.9"/>
			<path fill="#FFFFFF" stroke="#143B61" stroke-width="9.388294e-02" stroke-linecap="round" stroke-linejoin="round" d="
				M15.3,13.7c0,0-0.6,0.3-0.7,0.3c-0.1,0-0.2,0.2-0.3,0.3c-0.2,0.1-0.4,0.3-0.3,0.3c0.1,0,0.2,0,0.3,0l0.2-0.3l-0.4,0.8l0,0.3
				l0.3,0.1l0.6-0.3l0.8-1.2L15.3,13.7z"/>
			<path fill="#FFFFFF" d="M14.4,14.3c0,0,0.3,0.2,0.4,0.2c0.2,0,0.3-0.4,0.3-0.4"/>
			<path fill="none" stroke="#143B61" stroke-width="9.388294e-02" stroke-linecap="round" stroke-linejoin="round" d="M14.4,14.3
				c0,0,0.3,0.2,0.4,0.2c0.2,0,0.3-0.4,0.3-0.4"/>
			<path fill="none" stroke="#143B61" stroke-width="9.388294e-02" stroke-linecap="round" stroke-linejoin="round" d="M14.1,15.3
				l0.4-0.6"/>
			<path fill="none" stroke="#143B61" stroke-width="9.388294e-02" stroke-linecap="round" stroke-linejoin="round" d="M14.2,15.5
				l0.4-0.6"/>
			<path fill="none" stroke="#143B61" stroke-width="9.388294e-02" stroke-linecap="round" stroke-linejoin="round" d="M14.3,15.6
				l0.5-0.6"/>
			<path fill="#FFFFFF" stroke="#143B61" stroke-width="9.388294e-02" stroke-linecap="round" stroke-linejoin="round" d="M16,26.4
				c0,0.1,0.1,0.2,0.1,0.4c0.1,0.1,0.2,0.5,0.3,0.6c0.1,0.1,0.2,0.3,0.2,0.4c0,0.1,0,0.2-0.1,0.2h-1.7c0,0,0-0.2,0-0.4
				c0-0.2,0-0.5,0-0.6v-0.6c0.3,0,0.5,0,0.8-0.1C15.9,26.2,16,26.4,16,26.4z"/>
			<path fill="#FFFFFF" stroke="#143B61" stroke-width="9.388294e-02" stroke-linecap="round" stroke-linejoin="round" d="
				M12.9,26.3l-0.3,0.8c0,0-0.4,0.4-0.4,0.5c0,0.2,0.1,0.2,0.1,0.2h1.8c0-0.2,0-0.4,0-0.6C14.1,27,14,26.6,14,26.6l-0.7-0.4
				L12.9,26.3z"/>
			<path fill="#143B61" stroke="#143B61" stroke-width="9.388294e-02" stroke-linecap="round" stroke-linejoin="round" d="
				M12.6,19.3l0.3,6.1c0,0-0.2,0.4-0.2,0.5c0.1,0.1,0.1,0.5,0.1,0.5l0.6,0.4c0,0,0.5-0.1,0.5-0.1c0-0.1,0.1-0.4,0.1-0.7
				c0-0.2-0.1-0.5-0.1-0.7c0-0.2,0.4-4.9,0.4-4.9l0.1,0l0.3,5.6c0,0.1-0.1,0.2-0.1,0.3c0,0.1,0.2,0.4,0.2,0.4s0,0.2,0.1,0.2
				c0.1,0,0.3,0,0.4-0.1c0.1-0.1,0-0.3,0.2-0.3s0.5,0.1,0.5,0.1c0-0.2,0-0.3,0-0.5c0-0.2-0.2-0.4-0.2-0.4l0.2-4.5l-0.1-1.7
				L12.6,19.3z"/>
			<path fill="#E6F1F7" stroke="#143B61" stroke-width="9.388294e-02" stroke-linecap="round" stroke-linejoin="round" d="M17,16.5
				l-0.1,3.3c0,0,0.1,0.8,0.1,0.8c0,0.1-0.1,0.4-0.2,0.5c0,0,0,0,0,0c0,0,0,0-0.1,0c0,0,0,0-0.1,0c0,0,0,0,0,0l0-0.2l-0.1-0.4
				L16.4,21c0,0-0.2,0-0.1-0.2c0-0.2,0-0.6,0.1-0.7c0-0.1,0-0.2,0-0.3c0,0-0.3-1.8-0.3-1.8s-0.1-1.4-0.1-1.4L17,16.5z"/>
			<path fill="#E6F1F7" stroke="#143B61" stroke-width="9.388294e-02" stroke-miterlimit="10" d="M11.3,19.5c0.7,0,1.3-0.6,1.3-1.3
				c0-0.7-0.6-1.3-1.3-1.3c-0.7,0-1.3,0.6-1.3,1.3C10,18.9,10.6,19.5,11.3,19.5z"/>
			<path fill="#E6F1F7" stroke="#143B61" stroke-width="9.388294e-02" stroke-linecap="round" stroke-linejoin="round" d="
				M10.7,15.6c0,0-0.6,0.7-0.6,0.8c0,0.1-0.6,2-0.6,2.2c0.1,0.2,0.3,0.6,0.3,0.7c0.1,0.1,0.6,0.4,0.8,0.4c0.1,0,0.2-0.1,0.3-0.1
				c0,0,0,0,0,0c0,0,0,0,0,0c0,0,0,0,0,0c0,0,0,0,0,0c-0.1,0-0.1-0.1-0.2-0.1c-0.1-0.1-0.2-0.2-0.2-0.2s0.2,0.2,0.3,0.1
				c0-0.1-0.1-0.2-0.2-0.3c-0.1-0.1-0.3-0.3-0.3-0.4l-0.2-0.1c0,0-0.1-0.6,0.1-0.8c0.1-0.2,0.2-0.3,0.4-0.4l0.3-0.5l0.3-0.3
				L10.7,15.6z"/>
			<path fill="none" stroke="#143B61" stroke-width="9.388294e-02" stroke-linecap="round" stroke-linejoin="round" d="M10.6,19.2
				L10.1,19"/>
			<path fill="#FFFFFF" stroke="#143B61" stroke-width="9.388294e-02" stroke-miterlimit="10" d="M13.9,13.2l-1.7,0.6l-1.7,1.9
				l0.8,1l1.2-0.8l0,3.6c0.5,0.2,1.1,0.3,1.7,0.3c0.9,0.1,1.9-0.3,1.9-0.3l0.1-2.5l1.2-0.4c0,0-0.8-2.3-1-2.6
				c-0.2-0.3-1.5-0.8-1.5-0.8S14.3,13.1,13.9,13.2z"/>
			<path fill="none" stroke="#143B61" stroke-width="9.388294e-02" stroke-linecap="round" stroke-linejoin="round" d="M16.2,17
				l0.1-2.4"/>
			<path fill="none" stroke="#143B61" stroke-width="9.388294e-02" stroke-linecap="round" stroke-linejoin="round" d="M12.5,15.9
				l-0.2-1"/>
			<path fill="#E6F1F7" stroke="#143B61" stroke-width="9.388294e-02" stroke-linecap="round" stroke-linejoin="round" d="
				M13.8,12.5c0,0,0.1,0.8,0,0.9c0,0.1,0.1,0.6,0.4,0.7c0.3,0.1,0.7-0.6,0.7-0.6c0-0.1,0-0.5,0-0.5L13.8,12.5z"/>
			<path fill="#143B61" stroke="#143B61" stroke-width="9.388294e-02" stroke-linecap="round" stroke-linejoin="round" d="
				M14.9,13.4c0-0.1,0-0.4,0-0.4l-1.1-0.4c0,0,0,0.1,0,0.2c0.2,0.2,0.4,0.4,0.6,0.5C14.6,13.3,14.8,13.3,14.9,13.4z"/>
			<path fill="#E6F1F7" stroke="#143B61" stroke-width="9.388294e-02" stroke-linecap="round" stroke-linejoin="round" d="
				M15.4,10.6c0,0-0.2-0.4-0.9-0.6c-0.7-0.1-1.4,0.2-1.7,0.8c-0.3,0.6,0.3,1.3,0.3,1.3s0.6,0.6,0.7,0.7c0.1,0.1,0.3,0.3,0.6,0.3
				c0.3,0,0.8,0.1,1,0c0.2-0.1,0.2-0.4,0.3-0.5c0-0.1,0.2-0.6,0.1-0.9c-0.1-0.1-0.1-0.3-0.3-0.4C15.5,11.3,15.5,10.8,15.4,10.6z"/>
			<path fill="#143B61" stroke="#143B61" stroke-width="9.388294e-02" stroke-linecap="round" stroke-linejoin="round" d="
				M15.3,10.7C15.3,10.7,15.4,10.6,15.3,10.7c0.1-0.1,0.1-0.1,0.1-0.1c0,0-0.2-0.4-0.9-0.6c-0.7-0.1-1.4,0.2-1.7,0.8
				c-0.3,0.6,0.3,1.3,0.3,1.3l0.2,0.2c0,0,0.1-0.1,0.1-0.1c0.1-0.1,0.3,0.2,0.3,0.2c0,0,0.1,0,0.1,0c0,0,0,0,0.1-0.1
				c0.1-0.1-0.2-0.4-0.2-0.4c0.1-0.1,0.1-0.2,0.2-0.3c0.2-0.2,0.5-0.7,0.5-0.7l0,0.3c0,0,0.2,0,0.3-0.1c0.1-0.1,0.2-0.2,0.2-0.2
				l0,0.3C15,10.9,15.2,10.8,15.3,10.7z"/>
			<path fill="#E6F1F7" d="M13.9,12.4c0,0-0.2-0.5-0.5-0.4c-0.2,0-0.3,0.4-0.1,0.6c0.2,0.2,0.5,0.1,0.5,0.1"/>
			<path fill="none" stroke="#143B61" stroke-width="9.388294e-02" stroke-linecap="round" stroke-linejoin="round" d="M13.9,12.4
				c0,0-0.2-0.5-0.5-0.4c-0.2,0-0.3,0.4-0.1,0.6c0.2,0.2,0.5,0.1,0.5,0.1"/>
			<path fill="#143B61" stroke="#143B61" stroke-width="9.388294e-02" stroke-linecap="round" stroke-linejoin="round" d="M27.1,3.2
				c0.1,0,0.8,0,1.3,0.5C28.7,4,28.9,4.4,29,4.9c0,0,0,0.1,0,0.4c0,0.3,0,0.5,0,1c0,1.1,0.1,1.2-0.1,1.5c-0.2,0.5-0.8,0.8-1.3,0.8
				C27,8.7,26.4,8.4,26.1,8c-0.2-0.4-0.3-0.8-0.3-0.9c0-0.2,0-0.3,0-0.6c0-0.2-0.1-0.5-0.2-0.7c-0.2-0.6-0.1-1.6,0.4-2.2
				C26.2,3.5,26.5,3.2,27.1,3.2z"/>
			<path fill="#143B61" d="M28.5,5.6c0,0.2,0,0.4,0,0.7c0,0.3-0.4,0.6-0.6,0.7c-0.2,0.1-0.8,0-0.9,0c-0.1,0-0.6-0.3-0.6-0.5
				c0-0.2,0-0.9,0-0.9l0.8,0.4L28.5,5.6z"/>
			<path fill="#F6F7F9" stroke="#E6F1F7" stroke-width="9.388294e-02" stroke-linecap="round" stroke-linejoin="round" d="M27.3,3.9
				C27.3,3.9,27.3,3.9,27.3,3.9c0.1,0,0.1,0,0.2,0c0.2,0.1,0.8,0.6,1,0.7c0.1,0.1,0.1,0.4,0.1,0.8c0,0.5,0,0.7,0,0.8
				c-0.1,0.4-0.5,0.8-1.1,0.9c-0.2,0-0.4-0.1-0.6-0.1c-0.2-0.1-0.3-0.2-0.4-0.4c-0.1-0.2-0.1-0.4-0.1-0.9c0-0.2,0-0.3,0-0.7
				c0-0.2,0-0.3,0-0.5C26.2,4.5,27,4,27.3,3.9z"/>
			<path fill="#143B61" stroke="#143B61" stroke-width="9.388294e-02" stroke-linecap="round" stroke-linejoin="round" d="M21.1,5.2
				l-0.2-0.1C20.8,5,20.8,5,20.7,5c0,0-0.1,0-0.1,0c-0.2,0.1-0.4,0.1-0.6,0h0c-0.1,0-0.2,0-0.3,0.1l-0.1,0.1
				c-0.1-0.2-0.1-0.4-0.1-0.5c0-0.2-0.1-0.3-0.2-0.4c0,0-0.1,0.7,0.1,1.2c0.3,0.8,1.2,0.9,1.7,0.5c0.7-0.4,0.6-1.7,0.6-1.7
				c-0.1,0.1-0.1,0.3-0.2,0.4C21.2,5.2,21.1,5.2,21.1,5.2z M20.8,5.3c0,0.1-0.2,0.4-0.6,0.4c-0.4,0-0.5-0.2-0.6-0.3c0,0,0,0,0-0.1
				c0,0,0-0.1,0.1-0.1c0,0,0.1,0,0.1,0c0.2,0,0.5,0,0.7,0c0,0,0.1,0,0.1,0C20.8,5.1,20.8,5.2,20.8,5.3C20.8,5.2,20.8,5.2,20.8,5.3z"
				/>
			<path fill="#E6F1F7" stroke="#143B61" stroke-width="9.388294e-02" stroke-linecap="round" stroke-linejoin="round" d="M21.4,2.2
				c-0.1-0.1-0.7-0.4-1.1-0.4c-0.4,0-1,0.3-1.1,0.4c-0.1,0.1-0.2,0.7-0.2,1c0,0,0.5-0.1,1.3-0.1c0.8,0,1.3,0.1,1.3,0.1
				C21.6,2.9,21.5,2.3,21.4,2.2z"/>
			<path fill="#E6F1F7" d="M21.4,2.2c-0.1-0.1-0.7-0.4-1.1-0.4c-0.4,0-1,0.3-1.1,0.4c-0.1,0.1-0.2,0.7-0.2,1c0,0,0.5-0.1,1.3-0.1
				c0.8,0,1.3,0.1,1.3,0.1C21.6,2.9,21.5,2.3,21.4,2.2z"/>
			<path fill="none" stroke="#143B61" stroke-width="9.388294e-02" stroke-linecap="round" stroke-linejoin="round" d="M21.4,2.2
				c-0.1-0.1-0.7-0.4-1.1-0.4c-0.4,0-1,0.3-1.1,0.4c-0.1,0.1-0.2,0.7-0.2,1c0,0,0.5-0.1,1.3-0.1c0.8,0,1.3,0.1,1.3,0.1
				C21.6,2.9,21.5,2.3,21.4,2.2z"/>
			<path fill="#E6F1F7" stroke="#143B61" stroke-width="9.388294e-02" stroke-linecap="round" stroke-linejoin="round" d="M22.7,6
				c-0.1-2.4-0.5-3.3-2.4-3.3h0c-1.9,0-2.3,0.8-2.4,3.3c0,0.8-0.5,1.5-0.5,1.5c0.1,0,0.7,0.2,0.7,0.1c0.3-0.6,0.5-1.3,0.5-1.8
				c-0.2-2,0.3-2.3,0.4-2.4c0.3-0.2,0.8-0.1,1.3-0.1s1-0.1,1.3,0.1c0.1,0.1,0.6,0.3,0.4,2.4c0,0.5,0.1,1.2,0.5,1.8
				c0.1,0.1,0.6-0.1,0.7-0.1C23.2,7.5,22.7,6.8,22.7,6z"/>
			<path fill="#E6F1F7" d="M22.7,6c-0.1-2.4-0.5-3.3-2.4-3.3h0c-1.9,0-2.3,0.8-2.4,3.3c0,0.8-0.5,1.5-0.5,1.5c0.1,0,0.7,0.2,0.7,0.1
				c0.3-0.6,0.5-1.3,0.5-1.8c-0.2-2,0.3-2.3,0.4-2.4c0.3-0.2,0.8-0.1,1.3-0.1c0.5,0,1-0.1,1.3,0.1c0.1,0.1,0.6,0.3,0.4,2.4
				c0,0.5,0.1,1.2,0.5,1.8c0.1,0.1,0.6-0.1,0.7-0.1C23.2,7.5,22.7,6.8,22.7,6z"/>
			<path fill="none" stroke="#143B61" stroke-width="9.388294e-02" stroke-linecap="round" stroke-linejoin="round" d="M22.7,6
				c-0.1-2.4-0.5-3.3-2.4-3.3h0c-1.9,0-2.3,0.8-2.4,3.3c0,0.8-0.5,1.5-0.5,1.5c0.1,0,0.7,0.2,0.7,0.1c0.3-0.6,0.5-1.3,0.5-1.8
				c-0.2-2,0.3-2.3,0.4-2.4c0.3-0.2,0.8-0.1,1.3-0.1c0.5,0,1-0.1,1.3,0.1c0.1,0.1,0.6,0.3,0.4,2.4c0,0.5,0.1,1.2,0.5,1.8
				c0.1,0.1,0.6-0.1,0.7-0.1C23.2,7.5,22.7,6.8,22.7,6z"/>
			<path fill="#143B61" stroke="#143B61" stroke-width="9.388294e-02" stroke-linecap="round" stroke-linejoin="round" d="M21.6,2.9
				C21.6,2.9,21.6,2.9,21.6,2.9c-0.8-0.2-1.7-0.2-2.5,0c0,0-0.1,0-0.1,0c0,0,0,0-0.1-0.1c0,0,0-0.1,0-0.1c0,0,0,0,0.1-0.1
				c0.8-0.2,1.7-0.2,2.6,0c0,0,0.1,0,0.1,0.1c0,0,0,0.1,0,0.1C21.7,2.8,21.7,2.9,21.6,2.9C21.7,2.9,21.7,2.9,21.6,2.9z"/>
			<path fill="#143B61" stroke="#143B61" stroke-width="9.388294e-02" stroke-linecap="round" stroke-linejoin="round" d="M21.6,2.7
				C21.6,2.7,21.6,2.7,21.6,2.7c-0.8-0.2-1.7-0.2-2.5,0c0,0-0.1,0-0.1,0c0,0,0,0-0.1-0.1c0,0,0-0.1,0-0.1c0,0,0,0,0.1-0.1
				c0.8-0.2,1.7-0.2,2.6,0c0,0,0.1,0,0.1,0.1c0,0,0,0.1,0,0.1C21.7,2.6,21.7,2.6,21.6,2.7C21.7,2.7,21.7,2.7,21.6,2.7z"/>
		</g>
	</g>
</g>
</svg>
